<svg width="655" height="507" viewBox="0 0 655 507" fill="none" xmlns="http://www.w3.org/2000/svg">
<path d="M562.657 151.009H331.701C328.364 151.009 325.658 153.714 325.658 157.052V356.344C325.658 359.681 328.364 362.387 331.701 362.387H562.657C565.995 362.387 568.7 359.681 568.7 356.344V157.052C568.7 153.714 565.995 151.009 562.657 151.009Z" fill="black"/>
<path d="M391.888 268.965C415.817 285.764 435.396 328.909 456.788 328.184C474.795 327.58 486.76 308.726 505.372 303.651C496.187 293.861 506.58 256.396 477.333 259.055C460.534 260.626 457.15 271.624 440.472 270.415C413.158 268.36 419.201 216.634 391.283 215.184C367.475 213.975 374.968 248.298 368.804 263.405C375.451 262.076 383.428 263.043 391.888 268.965Z" fill="#FF0077" stroke="black" stroke-width="4"/>
<path d="M532.564 308.364C525.796 302.442 517.337 298.333 506.822 298.937C500.417 299.3 494.132 302.925 489.056 306.068C479.629 311.869 469.236 322.746 456.788 323.229C435.396 323.954 415.817 280.809 391.888 264.01C383.428 258.088 375.572 257.121 368.804 258.45C356.598 260.867 348.379 270.657 348.379 270.657V337.128C348.379 340.753 351.884 343.775 356.114 343.775H537.761C544.771 343.775 549.726 336.765 547.309 330.118C546.705 328.426 546.221 327.097 546.1 326.855C542.958 320.45 538.486 313.682 532.564 308.485V308.364Z" fill="white" stroke="black" stroke-width="4"/>
<path d="M344.028 177.839C348.567 177.839 352.247 174.16 352.247 169.621C352.247 165.082 348.567 161.403 344.028 161.403C339.489 161.403 335.81 165.082 335.81 169.621C335.81 174.16 339.489 177.839 344.028 177.839Z" fill="#FF0077"/>
<path d="M367.958 177.839C372.497 177.839 376.176 174.16 376.176 169.621C376.176 165.082 372.497 161.403 367.958 161.403C363.419 161.403 359.74 165.082 359.74 169.621C359.74 174.16 363.419 177.839 367.958 177.839Z" fill="white"/>
<path d="M292.906 82H162.261C158.877 82 156.218 84.6588 156.218 87.8011V214.096C156.218 217.359 158.997 219.897 162.261 219.897H292.906C296.29 219.897 298.949 217.238 298.949 214.096V87.8011C298.949 84.538 296.169 82 292.906 82Z" fill="white" stroke="black" stroke-width="4" stroke-miterlimit="10"/>
<path d="M227.335 118.378H177.313C176.208 118.378 175.312 119.273 175.312 120.378V136.923C175.312 138.028 176.208 138.923 177.312 138.923H227.335C228.44 138.923 229.335 138.028 229.335 136.923V120.378C229.335 119.273 228.44 118.378 227.335 118.378Z" fill="#FF0077" stroke="black" stroke-width="4" stroke-miterlimit="10"/>
<path d="M297 83H158V101H297V83Z" fill="black"/>
<path d="M254.528 148.954H177.312C176.208 148.954 175.312 149.85 175.312 150.954V167.5C175.312 168.604 176.208 169.5 177.313 169.5H254.528C255.633 169.5 256.528 168.604 256.528 167.5V150.954C256.528 149.85 255.633 148.954 254.528 148.954Z" fill="#FF0077" stroke="black" stroke-width="4" stroke-miterlimit="10"/>
<path d="M229.148 179.652H177.312C176.208 179.652 175.312 180.547 175.312 181.652V198.197C175.312 199.302 176.208 200.197 177.313 200.197H229.148C230.253 200.197 231.148 199.302 231.148 198.197V181.652C231.148 180.547 230.253 179.652 229.148 179.652Z" fill="#FF0077" stroke="black" stroke-width="4" stroke-miterlimit="10"/>
<path d="M165.523 95.0523C167.993 95.0523 169.995 93.0502 169.995 90.5806C169.995 88.1109 167.993 86.1089 165.523 86.1089C163.054 86.1089 161.052 88.1109 161.052 90.5806C161.052 93.0502 163.054 95.0523 165.523 95.0523Z" fill="#FF0077"/>
<path d="M178.213 95.0523C180.683 95.0523 182.685 93.0502 182.685 90.5806C182.685 88.1109 180.683 86.1089 178.213 86.1089C175.744 86.1089 173.742 88.1109 173.742 90.5806C173.742 93.0502 175.744 95.0523 178.213 95.0523Z" fill="white"/>
<path d="M86 424.749H231.39" stroke="black" stroke-width="4" stroke-linecap="round"/>
<path d="M284.567 282.742L353.213 240.926C356.96 238.63 358.652 234.158 357.322 230.049C355.63 224.731 349.708 221.952 344.511 224.248L236.345 271.019C226.435 274.766 217.733 281.171 211.328 289.51L105.699 424.748H206.01L249.518 359.728" fill="white"/>
<path d="M284.567 282.742L353.213 240.926C356.96 238.63 358.652 234.158 357.322 230.049C355.63 224.731 349.708 221.952 344.511 224.248L236.345 271.019C226.435 274.766 217.733 281.171 211.328 289.51L105.699 424.748H206.01L249.518 359.728" stroke="black" stroke-width="4"/>
<path d="M239.004 365.77C235.74 365.77 232.719 364.199 231.027 361.42C229.577 359.244 229.093 356.706 229.577 354.168C230.06 351.63 231.51 349.455 233.686 348.005L282.27 315.736C283.841 314.648 285.654 314.165 287.588 314.165C290.851 314.165 293.872 315.736 295.564 318.516C297.015 320.691 297.498 323.229 297.015 325.767C296.531 328.305 295.081 330.48 292.905 331.931L244.321 364.199C242.75 365.287 240.937 365.77 239.004 365.77Z" fill="white"/>
<path d="M287.588 316.703C289.884 316.703 292.181 317.791 293.631 319.966C295.806 323.229 294.96 327.822 291.576 329.997L242.992 362.266C241.783 363.112 240.333 363.474 239.004 363.474C236.707 363.474 234.411 362.387 232.961 360.211C230.786 356.948 231.632 352.356 235.015 350.18L283.6 317.911C284.808 317.065 286.259 316.703 287.588 316.703ZM287.588 311.869C285.171 311.869 282.875 312.594 280.941 313.923L232.357 346.192C226.797 349.818 225.347 357.311 228.973 362.87C231.269 366.254 235.015 368.309 239.004 368.309C242.992 368.309 243.717 367.583 245.651 366.254L294.235 333.985C299.794 330.36 301.245 322.867 297.619 317.307C295.323 313.923 291.576 311.869 287.588 311.869Z" fill="black"/>
<path d="M247.222 384.261C243.959 384.261 240.938 382.69 239.246 379.91C236.345 375.439 237.554 369.517 241.904 366.616L268.855 348.73C270.426 347.642 272.239 347.158 274.173 347.158C277.436 347.158 280.458 348.73 282.15 351.509C283.6 353.685 284.083 356.223 283.6 358.761C283.116 361.299 281.666 363.474 279.491 364.924L252.54 382.811C250.969 383.899 249.156 384.382 247.222 384.382V384.261Z" fill="white"/>
<path d="M274.173 349.576C276.469 349.576 278.766 350.663 280.216 352.839C282.391 356.102 281.545 360.694 278.161 362.87L251.21 380.757C250.002 381.603 248.551 381.965 247.222 381.965C244.926 381.965 242.629 380.877 241.179 378.702C239.004 375.439 239.85 370.967 243.234 368.671L270.185 350.784C271.393 349.938 272.844 349.576 274.173 349.576ZM274.173 344.741C271.756 344.741 269.46 345.467 267.526 346.796L240.575 364.683C235.016 368.308 233.565 375.802 237.191 381.361C239.487 384.745 243.234 386.799 247.222 386.799C251.21 386.799 251.935 386.074 253.869 384.745L280.82 366.858C283.479 365.045 285.292 362.386 286.017 359.244C286.742 356.102 286.017 352.839 284.204 350.18C281.908 346.796 278.161 344.741 274.173 344.741Z" fill="black"/>
<path d="M208.427 357.19C206.494 354.169 207.34 350.059 210.361 348.005L328.438 269.569C331.58 267.515 335.689 268.361 337.744 271.503C339.677 274.524 338.831 278.633 335.81 280.688L217.733 359.124C214.591 361.178 210.482 360.332 208.427 357.19Z" fill="#FF0077" stroke="black" stroke-width="4"/>
<path d="M377.022 199.835C401.676 199.835 421.739 219.897 421.739 244.552C421.739 269.206 401.676 289.268 377.022 289.268C352.367 289.268 332.305 269.206 332.305 244.552C332.305 219.897 352.367 199.835 377.022 199.835ZM377.022 185.936C344.753 185.936 318.527 212.162 318.527 244.431C318.527 276.699 344.753 302.925 377.022 302.925C409.29 302.925 435.516 276.699 435.516 244.431C435.516 212.162 409.29 185.936 377.022 185.936Z" fill="#FF0077" stroke="black" stroke-width="4"/>
<path d="M205.286 350.663C205.286 350.663 249.64 357.552 260.517 308.847L296.653 299.904C308.014 297.849 316.232 288.06 316.715 276.82C316.715 274.766 315.023 273.195 312.969 273.557L238.884 285.764" fill="white"/>
<path d="M205.286 350.663C205.286 350.663 249.64 357.552 260.517 308.847L296.653 299.904C308.014 297.849 316.232 288.06 316.715 276.82C316.715 274.766 315.023 273.195 312.969 273.557L238.884 285.764" stroke="black" stroke-width="4" stroke-linecap="round"/>
<path d="M309.826 275.974C310.672 281.896 306.563 287.456 300.641 288.302C294.719 289.148 289.16 285.039 288.314 279.117" stroke="black" stroke-width="4" stroke-linecap="round"/>
</svg>
