<svg width="655" height="493" viewBox="0 0 655 493" fill="none" xmlns="http://www.w3.org/2000/svg">
<path d="M579 391.3V239.9" stroke="black" stroke-width="4" stroke-linecap="round"/>
<path d="M596.6 99.6001H89.6997C84.1769 99.6001 79.6997 104.077 79.6997 109.6V408.5C79.6997 414.023 84.1769 418.5 89.6997 418.5H596.6C602.123 418.5 606.6 414.023 606.6 408.5V109.6C606.6 104.077 602.123 99.6001 596.6 99.6001Z" fill="white" stroke="black" stroke-width="4" stroke-miterlimit="10"/>
<path d="M345.9 126.9H112.3C109.538 126.9 107.3 129.138 107.3 131.9V386C107.3 388.761 109.538 391 112.3 391H345.9C348.661 391 350.9 388.761 350.9 386V131.9C350.9 129.138 348.661 126.9 345.9 126.9Z" fill="#FF0077" stroke="black" stroke-width="4" stroke-miterlimit="10"/>
<path d="M188.2 274.8C187.5 274.8 186.9 274.8 186.3 274.5C183.9 273.7 182.7 271.5 182 269.9C180.8 267.1 180.7 264.7 180.6 262.4C180.6 261.1 180.5 259.7 180.2 258.3C179.4 253.7 178.3 248.8 177.2 244C175.6 236.8 173.9 229.3 173.1 222.2C172.2 215.1 171.2 206.4 174.9 198.8C178.4 191.9 186.2 187.2 194.3 187.2C202.4 187.2 196 187.2 196.8 187.3H197C198 187.3 198.9 186.5 199.1 185.5C199.8 180.6 201.1 174.4 205.5 170C210 165.5 216.2 164.3 222.2 163.1C225.6 162.4 229.1 161.7 232.2 160.4C235.2 159.1 238 157.2 240.9 155.1C245 152.2 249.3 149.2 254.5 148.1C255.7 147.9 256.8 147.8 258 147.8C267.6 147.8 277 155.5 279.4 165.2C281.4 173.5 278.7 183.1 272.5 190.2C278.2 190.4 283.7 192 288.5 194.9C292.4 197.2 295.3 200.1 297 203.4C299.5 208.1 299.9 214 298 219.6C296.1 225.4 292 230.5 286.7 233.6C286.4 233.8 286 234 285.7 234.2C284.5 234.9 283.3 235.5 282.6 236.4C281.6 237.6 281.4 239.6 281.2 241.2L278.4 262.6C278.4 262.9 278.4 263.4 278.4 264C278.3 267 278 271.6 274.6 272.2C274.4 272.2 274.2 272.2 274 272.2C271.3 272.2 268.8 269.7 266.4 267.2C266.2 266.9 266 266.7 265.8 266.5L248.3 248.7C245.5 245.8 242.3 242.6 238.5 241.3C236.9 240.8 235.1 240.5 233 240.5C230.9 240.5 231 240.5 229.8 240.7C218.2 241.7 207.1 245.8 196.3 250C198.8 256.5 201.2 263 203.7 269.5C203.9 270.1 203.9 270.7 203.6 271.2C203.3 271.7 202.8 272.1 202.2 272.2L190.7 274.3C189.9 274.4 189.2 274.6 188.4 274.6L188.2 274.8Z" fill="#FF0077"/>
<path d="M258.2 149.9C267.1 149.9 275.5 157 277.6 165.8C279.6 174.2 276.5 183.2 270.6 189.6C269.6 190.7 270.4 192.3 271.8 192.3C277.3 192.3 282.8 193.9 287.6 196.7C290.8 198.6 293.6 201.1 295.4 204.4C297.8 208.8 297.9 214.3 296.3 219.1C294.5 224.5 290.8 229.2 285.9 232C284.2 233 282.4 233.8 281.2 235.3C279.9 236.9 279.6 239.1 279.3 241.1C278.4 248.2 277.4 255.3 276.5 262.5C276.3 264.3 276.5 270 274.2 270.3C274.1 270.3 274 270.3 273.9 270.3C271.5 270.3 268.5 266.6 267.1 265.2C261.3 259.3 255.4 253.3 249.6 247.4C246.5 244.2 243.2 240.9 239 239.5C237 238.8 235 238.6 232.9 238.6C230.8 238.6 230.6 238.6 229.5 238.8C217.1 239.9 205.2 244.4 193.6 249C196.3 256.1 199 263.2 201.7 270.4C197.9 271.1 194 271.8 190.2 272.5C189.6 272.6 188.9 272.7 188.2 272.7C187.5 272.7 187.3 272.7 186.9 272.5C185.4 272 184.5 270.5 183.8 269C182.1 265.1 182.9 262 182.2 257.8C180.2 246.2 176.6 233.5 175.1 221.9C174.2 214.4 173.3 206.4 176.7 199.7C179.9 193.3 187.2 189.2 194.3 189.2C201.4 189.2 195.8 189.2 196.5 189.3C196.7 189.3 196.8 189.3 197 189.3C199 189.3 200.8 187.8 201.1 185.7C201.8 180.3 203.2 175 207 171.3C213.6 164.7 224.5 165.8 233.1 162.2C240.8 158.9 246.8 151.7 255 150.1C256 149.9 257.1 149.8 258.1 149.8M258.2 145.9C256.9 145.9 255.6 146 254.3 146.3C248.7 147.4 244.2 150.6 239.9 153.6C237.1 155.6 234.4 157.5 231.6 158.7C228.7 159.9 225.5 160.6 222 161.2C215.7 162.4 209.2 163.7 204.3 168.7C199.4 173.5 198 180.2 197.3 185.4C196.4 185.3 195.5 185.2 194.6 185.2C185.7 185.2 177.2 190.3 173.4 197.9C169.3 206 170.5 215.5 171.4 222.4C172.3 229.6 173.9 237.1 175.6 244.4C176.7 249.3 177.7 254 178.5 258.6C178.7 259.9 178.8 261.2 178.8 262.5C178.9 264.9 179 267.6 180.3 270.7C180.8 271.8 182.2 275.3 185.8 276.5C186.6 276.8 187.4 276.9 188.3 276.9C189.2 276.9 190.3 276.7 191 276.6L202.5 274.5C203.7 274.3 204.7 273.6 205.3 272.5C205.9 271.4 206 270.2 205.6 269.1C203.4 263.2 201.1 257.3 198.9 251.4C209 247.5 219.4 243.9 230 242.9C231.2 242.8 232.2 242.8 233.1 242.8C235 242.8 236.6 243 237.9 243.5C241.3 244.7 244.3 247.7 247 250.4L255.7 259.3L264.4 268.2C264.6 268.4 264.8 268.6 265 268.8C267.1 271.1 270.3 274.5 274.1 274.5C277.9 274.5 274.7 274.5 275.1 274.5C280.2 273.7 280.5 267.7 280.6 264.4C280.6 263.9 280.6 263.4 280.6 263.2L283.4 241.8C283.6 240.4 283.8 238.7 284.4 237.9C284.9 237.3 285.8 236.8 286.9 236.2C287.3 236 287.6 235.8 288 235.6C293.7 232.2 298.1 226.7 300.1 220.5C302.1 214.3 301.7 207.8 298.9 202.7C297 199.1 293.8 196 289.6 193.5C285.6 191.1 281.1 189.5 276.4 188.8C281.4 181.6 283.3 172.8 281.4 165C278.8 154.4 268.6 146 258.1 146L258.2 145.9Z" fill="black"/>
<path d="M255.2 300.4H202.3V335.4H255.2V300.4Z" fill="black" stroke="black" stroke-width="4"/>
<path d="M220.3 315.2L255.8 322.9V304.3L220.3 315.2Z" fill="black"/>
<path d="M323.8 391C323.753 390.967 323.707 390.933 323.66 390.9C304.172 376.938 256.796 343.1 255.2 343.1H202.3L132.1 390.9" fill="white"/>
<path d="M323.8 391C323.753 390.967 323.707 390.933 323.66 390.9M323.66 390.9C304.172 376.938 256.796 343.1 255.2 343.1H202.3L132.1 390.9H323.66Z" stroke="black" stroke-width="4"/>
<path d="M229.3 314C207 314.2 188.8 296.1 188.8 273.7V233.2C188.8 230.4 191 228.2 193.8 228.2H264.5C267.3 228.2 269.5 230.5 269.5 233.2L269.3 273.9C269.2 295.9 251.4 313.7 229.4 313.9L229.3 314Z" fill="black" stroke="black" stroke-width="4"/>
<path d="M188.8 278C182.7 278 177.7 273 177.7 266.9C177.7 260.8 182.7 255.8 188.8 255.8V278Z" fill="black" stroke="black" stroke-width="4"/>
<path d="M269.3 255.7C275.4 255.7 280.4 260.7 280.4 266.8C280.4 272.9 275.4 277.9 269.3 277.9V255.7Z" fill="black" stroke="black" stroke-width="4"/>
<path d="M227.7 336.3V391" stroke="black" stroke-width="4"/>
<path d="M255.2 322.9H202.3V343.4H255.2V322.9Z" fill="white" stroke="black" stroke-width="4"/>
<path d="M227.7 360.9H239.8" stroke="black" stroke-width="4" stroke-linecap="round"/>
<path d="M206.6 283.2C216.43 283.2 224.4 275.231 224.4 265.4C224.4 255.569 216.43 247.6 206.6 247.6C196.769 247.6 188.8 255.569 188.8 265.4C188.8 275.231 196.769 283.2 206.6 283.2Z" stroke="white" stroke-width="4" stroke-miterlimit="10"/>
<path d="M251.6 283.2C261.43 283.2 269.4 275.231 269.4 265.4C269.4 255.569 261.43 247.6 251.6 247.6C241.769 247.6 233.8 255.569 233.8 265.4C233.8 275.231 241.769 283.2 251.6 283.2Z" stroke="white" stroke-width="4" stroke-miterlimit="10"/>
<path d="M224.4 265.4H233.8" stroke="white" stroke-width="4" stroke-miterlimit="10"/>
<path d="M537.2 303.2C514.3 323 495.4 373.9 474.9 373C457.6 372.3 446.2 350 428.3 344.1C437.1 332.6 427.1 288.4 455.2 291.6C471.3 293.4 474.6 306.4 490.5 304.9C516.7 302.4 510.9 241.5 537.7 239.8C560.6 238.4 553.4 278.8 559.3 296.6C552.9 295.1 545.3 296.2 537.2 303.2Z" fill="#FF0077" stroke="black" stroke-width="4"/>
<path d="M387.5 371.3C390.5 363.8 396.6 355.8 402.3 349.6C408.8 342.6 417 337.8 426.9 338.5C433 338.9 439.1 343.2 443.9 346.9C452.9 353.8 462.9 366.6 474.9 367.1C495.4 368 514.2 317.1 537.2 297.3C545.3 290.3 552.9 289.2 559.3 290.7C571.1 293.5 579 305 579 305V383.4C579 387.7 579 391.2 579 391.2H387.5" fill="black"/>
<path d="M387.5 371.3C390.5 363.8 396.6 355.8 402.3 349.6C408.8 342.6 417 337.8 426.9 338.5C433 338.9 439.1 343.2 443.9 346.9C452.9 353.8 462.9 366.6 474.9 367.1C495.4 368 514.2 317.1 537.2 297.3C545.3 290.3 552.9 289.2 559.3 290.7C571.1 293.5 579 305 579 305V383.4C579 387.7 579 391.2 579 391.2H387.5" stroke="black" stroke-width="4"/>
<path d="M428.3 171.7L385.7 185.5C393.3 209 418.6 221.9 442.1 214.3C465.6 206.7 478.5 181.4 470.9 157.9C464.8 139.1 448.1 127 428.3 127V171.8V171.7Z" fill="black" stroke="black" stroke-width="4"/>
<path d="M428.3 171.7L385.7 157.9C382.6 167.3 382.6 176.2 385.7 185.6L428.3 171.8V171.7Z" fill="white" stroke="black" stroke-width="4"/>
<path d="M428.3 171.7V126.9C408.5 126.9 391.8 139 385.7 157.8L428.3 171.6V171.7Z" fill="#FF0077" stroke="black" stroke-width="4"/>
<path d="M428.3 190.3C438.573 190.3 446.9 181.972 446.9 171.7C446.9 161.427 438.573 153.1 428.3 153.1C418.028 153.1 409.7 161.427 409.7 171.7C409.7 181.972 418.028 190.3 428.3 190.3Z" fill="white" stroke="black" stroke-width="4"/>
<path d="M387.5 391.3V239.9" stroke="black" stroke-width="4" stroke-linecap="round"/>
<path d="M479.4 391.3V239.9" stroke="black" stroke-width="4" stroke-linecap="round"/>
<path d="M580.6 391.3V239.9" stroke="black" stroke-width="4" stroke-linecap="round"/>
<path d="M156.5 177.7C155.2 177.7 154 177.2 153.1 176.3L142.9 166.5L71.6999 167.2C65.2999 167.2 59.2999 164.8 55.1999 160.6C51.7999 157.1 49.8999 152.7 49.8999 148.1L50.2999 94.8001C50.3999 84.5001 60.1999 76.1001 72.0999 76.1001H153.7C165.5 76.1001 175.3 84.4001 175.5 94.7001L176.2 147.1C176.3 155.2 170.5 162.5 161.7 165.2L161.3 173C161.2 175.6 159 177.7 156.4 177.7H156.5Z" fill="white"/>
<path d="M153.7 78.1C164.5 78.1 173.3 85.5 173.5 94.7L174.2 147.1C174.3 154.9 168.2 161.6 159.8 163.6L159.3 172.9C159.3 174.6 157.8 175.7 156.4 175.7C155 175.7 155 175.4 154.4 174.9L143.6 164.5L71.9999 165.2C71.8999 165.2 71.6999 165.2 71.5999 165.2C60.5999 165.2 51.6999 157.6 51.7999 148.1L52.1999 94.8C52.1999 85.5 61.0999 78 71.9999 78H153.6M153.7 74.1H72.0999C59.0999 74.1 48.3999 83.4 48.2999 94.8L47.8999 148.1C47.8999 153.2 49.8999 158.2 53.6999 162C58.1999 166.6 64.7999 169.2 71.5999 169.2C78.3999 169.2 71.8999 169.2 72.0999 169.2L142 168.5L151.6 177.7C152.9 178.9 154.6 179.6 156.4 179.6C160.1 179.6 163.1 176.7 163.3 173L163.6 166.5C172.4 163.2 178.3 155.5 178.1 146.9L177.4 94.6C177.2 83.2 166.5 74 153.6 74L153.7 74.1Z" fill="black"/>
<path d="M84.0997 132.2C89.2912 132.2 93.4997 127.991 93.4997 122.8C93.4997 117.608 89.2912 113.4 84.0997 113.4C78.9082 113.4 74.6997 117.608 74.6997 122.8C74.6997 127.991 78.9082 132.2 84.0997 132.2Z" fill="black"/>
<path d="M113.1 132.2C118.291 132.2 122.5 127.991 122.5 122.8C122.5 117.608 118.291 113.4 113.1 113.4C107.908 113.4 103.7 117.608 103.7 122.8C103.7 127.991 107.908 132.2 113.1 132.2Z" fill="black"/>
<path d="M142.1 132.2C147.291 132.2 151.5 127.991 151.5 122.8C151.5 117.608 147.291 113.4 142.1 113.4C136.908 113.4 132.7 117.608 132.7 122.8C132.7 127.991 136.908 132.2 142.1 132.2Z" fill="black"/>
<path d="M494.4 158.8H580.2" stroke="black" stroke-width="4" stroke-linecap="round"/>
<path d="M494.4 171.7H580.2" stroke="black" stroke-width="4" stroke-linecap="round"/>
<path d="M494.4 184.7H540.7" stroke="black" stroke-width="4" stroke-linecap="round"/>
</svg>
