<svg width="500" height="500" viewBox="0 0 500 500" fill="none" xmlns="http://www.w3.org/2000/svg">
<path d="M56 410.39H307.92" stroke="black" stroke-width="4" stroke-linecap="round"/>
<path d="M344.43 282.59H255.05V193.21C255.05 143.88 295.1 103.83 344.43 103.83C393.76 103.83 433.81 143.88 433.81 193.21C433.81 242.54 393.76 282.59 344.43 282.59Z" fill="white" stroke="black" stroke-width="4"/>
<path d="M276.771 262.56V177.82L277.341 177.24C278.221 176.34 299.021 155.2 318.841 155.2C323.671 155.2 328.081 156.47 331.941 158.97C342.381 165.74 348.441 179.77 353.791 192.14C359.541 205.43 364.971 217.99 374.181 218.11H374.561C385.381 218.11 389.701 211.9 395.171 204.03C402.221 193.89 411.001 181.27 437.391 180.56L439.441 180.51V262.55H276.781L276.771 262.56Z" fill="#FF0077"/>
<path d="M318.84 157.2C323 157.2 327.08 158.21 330.85 160.65C352.05 174.4 354.39 219.86 374.15 220.12C374.29 220.12 374.42 220.12 374.56 220.12C401.61 220.12 392.24 183.78 437.44 182.57V260.56H278.78V178.63C278.78 178.63 299.65 157.19 318.85 157.19M318.84 153.2C298.19 153.2 276.81 174.92 275.91 175.85L274.78 177.01V264.56H441.44V178.46L437.33 178.57C409.93 179.3 400.83 192.38 393.52 202.9C388.18 210.58 384.33 216.12 374.55 216.12H374.2C366.29 216.01 361.11 204.03 355.62 191.35C350.16 178.71 343.96 164.39 333.02 157.29C328.83 154.57 324.06 153.19 318.83 153.19L318.84 153.2Z" fill="black"/>
<path d="M309.99 157.46V262.15" stroke="black" stroke-width="4"/>
<path d="M374.46 217.03V262.15" stroke="black" stroke-width="4"/>
<path d="M406.7 192.09V262.15" stroke="black" stroke-width="4"/>
<path d="M438.94 181.52V262.15" stroke="black" stroke-width="4"/>
<path d="M342.22 171.91V262.15" stroke="black" stroke-width="4"/>
<path d="M277.75 176.79V262.15" stroke="black" stroke-width="4"/>
<path d="M309.99 161.54C312.685 161.54 314.87 159.355 314.87 156.66C314.87 153.965 312.685 151.78 309.99 151.78C307.295 151.78 305.11 153.965 305.11 156.66C305.11 159.355 307.295 161.54 309.99 161.54Z" fill="white" stroke="black" stroke-width="4"/>
<path d="M342.22 176.79C344.915 176.79 347.1 174.605 347.1 171.91C347.1 169.215 344.915 167.03 342.22 167.03C339.525 167.03 337.34 169.215 337.34 171.91C337.34 174.605 339.525 176.79 342.22 176.79Z" fill="white" stroke="black" stroke-width="4"/>
<path d="M374.46 224.05C377.155 224.05 379.34 221.865 379.34 219.17C379.34 216.475 377.155 214.29 374.46 214.29C371.765 214.29 369.58 216.475 369.58 219.17C369.58 221.865 371.765 224.05 374.46 224.05Z" fill="white" stroke="black" stroke-width="4"/>
<path d="M406.7 196.97C409.395 196.97 411.58 194.785 411.58 192.09C411.58 189.395 409.395 187.21 406.7 187.21C404.005 187.21 401.82 189.395 401.82 192.09C401.82 194.785 404.005 196.97 406.7 196.97Z" fill="white" stroke="black" stroke-width="4"/>
<path d="M438.94 186.4C441.635 186.4 443.82 184.215 443.82 181.52C443.82 178.825 441.635 176.64 438.94 176.64C436.245 176.64 434.06 178.825 434.06 181.52C434.06 184.215 436.245 186.4 438.94 186.4Z" fill="white" stroke="black" stroke-width="4"/>
<path d="M278.25 183.46C280.945 183.46 283.13 181.275 283.13 178.58C283.13 175.885 280.945 173.7 278.25 173.7C275.555 173.7 273.37 175.885 273.37 178.58C273.37 181.275 275.555 183.46 278.25 183.46Z" fill="white" stroke="black" stroke-width="4"/>
<path d="M389.03 169.62C411.292 169.62 429.34 151.573 429.34 129.31C429.34 107.047 411.292 89 389.03 89C366.767 89 348.72 107.047 348.72 129.31C348.72 151.573 366.767 169.62 389.03 169.62Z" fill="white" stroke="black" stroke-width="4"/>
<path d="M389 129.3L417.77 138.65C412.61 154.54 395.54 163.23 379.66 158.07C363.77 152.91 355.08 135.84 360.24 119.96C364.37 107.25 375.64 99.0601 389.01 99.0601V129.31L389 129.3Z" fill="black" stroke="black" stroke-width="4"/>
<path d="M389.03 129.31L369.16 152.17C374.67 156.96 381.73 159.6 389.03 159.6C405.64 159.6 419.32 145.93 419.32 129.31C419.32 112.69 405.65 99.02 389.03 99.02C388.95 99.02 388.87 99.02 388.8 99.02L389.03 129.31Z" fill="white" stroke="black" stroke-width="4"/>
<path d="M389 129.3V99.05C402.36 99.05 413.64 107.24 417.77 119.95L389 129.3Z" fill="#FF0077" stroke="black" stroke-width="4"/>
<path d="M389.03 141.86C395.961 141.86 401.58 136.241 401.58 129.31C401.58 122.379 395.961 116.76 389.03 116.76C382.099 116.76 376.48 122.379 376.48 129.31C376.48 136.241 382.099 141.86 389.03 141.86Z" fill="white" stroke="black" stroke-width="4"/>
<path d="M245.49 312.14H161.34C158.208 312.14 155.67 314.678 155.67 317.81V333.37C155.67 336.501 158.208 339.04 161.34 339.04H245.49C248.621 339.04 251.16 336.501 251.16 333.37V317.81C251.16 314.678 248.621 312.14 245.49 312.14Z" fill="black"/>
<path d="M105.08 273.62C112.07 242.01 143.36 222.05 174.97 229.04L181.06 201.5C134.24 191.15 87.89 220.71 77.54 267.53C67.19 314.35 96.75 360.7 143.57 371.05L149.66 343.51C118.05 336.52 98.09 305.23 105.08 273.62Z" fill="black"/>
<path d="M76.38 410.39H188.13V338.3C188.13 318.01 171.54 300.52 151.26 300.48C146.26 300.48 141.49 301.46 137.13 303.25C130.56 305.95 125.12 310.84 121.26 316.8L69.16 397.1C65.45 402.82 69.55 410.39 76.38 410.39Z" fill="white" stroke="black" stroke-width="4"/>
<path d="M197.576 134.902L130.371 160.23C128.613 160.892 127.726 162.854 128.388 164.611L166.38 265.419C167.042 267.176 169.003 268.064 170.76 267.402L237.966 242.074C239.723 241.412 240.611 239.45 239.949 237.693L201.957 136.885C201.295 135.128 199.333 134.24 197.576 134.902Z" fill="black"/>
<path d="M232.19 262.73L188.78 279.09C186.49 279.95 183.93 278.79 183.08 276.5L140.32 161.62L192 142.14L234.77 257.05C235.62 259.33 234.46 261.87 232.19 262.73Z" fill="black"/>
<path d="M151.2 348.3C157.203 348.3 162.07 343.433 162.07 337.43C162.07 331.427 157.203 326.56 151.2 326.56C145.197 326.56 140.33 331.427 140.33 337.43C140.33 343.433 145.197 348.3 151.2 348.3Z" stroke="black" stroke-width="4"/>
<path d="M150.73 238.5C164.112 238.5 174.96 227.652 174.96 214.27C174.96 200.888 164.112 190.04 150.73 190.04C137.348 190.04 126.5 200.888 126.5 214.27C126.5 227.652 137.348 238.5 150.73 238.5Z" fill="white" stroke="black" stroke-width="4"/>
<path d="M182.52 110.41L124.77 132.18L129.94 145.89C134.26 144.26 139.08 146.44 140.71 150.76L143.62 158.47L185.73 142.6L182.82 134.89C181.19 130.57 183.37 125.75 187.69 124.12L182.52 110.41Z" fill="black"/>
<path d="M234.35 300.49H188.39C187.032 300.49 185.93 301.591 185.93 302.95V309.73C185.93 311.089 187.032 312.19 188.39 312.19H234.35C235.709 312.19 236.81 311.089 236.81 309.73V302.95C236.81 301.591 235.709 300.49 234.35 300.49Z" fill="white" stroke="black" stroke-width="4"/>
</svg>
