<svg width="500" height="500" viewBox="0 0 500 500" fill="none" xmlns="http://www.w3.org/2000/svg">
<path d="M128.17 408.11H388.99" stroke="black" stroke-width="4" stroke-linecap="round"/>
<path d="M315.21 144.37H73.5898C71.3807 144.37 69.5898 146.161 69.5898 148.37V333.03C69.5898 335.239 71.3807 337.03 73.5898 337.03H315.21C317.419 337.03 319.21 335.239 319.21 333.03V148.37C319.21 146.161 317.419 144.37 315.21 144.37Z" fill="white" stroke="black" stroke-width="4"/>
<path d="M319.22 171.61H68L70.57 149.82C70.57 146.94 73.04 145.9 75.92 145.9L314.47 144.61C316.87 144.61 318.82 146.53 318.86 148.93L319.23 171.61H319.22Z" fill="black"/>
<path d="M78.9299 162.59C81.857 162.59 84.2299 160.217 84.2299 157.29C84.2299 154.363 81.857 151.99 78.9299 151.99C76.0028 151.99 73.6299 154.363 73.6299 157.29C73.6299 160.217 76.0028 162.59 78.9299 162.59Z" fill="#FF0077"/>
<path d="M94.3698 162.59C97.2969 162.59 99.6698 160.217 99.6698 157.29C99.6698 154.363 97.2969 151.99 94.3698 151.99C91.4427 151.99 89.0698 154.363 89.0698 157.29C89.0698 160.217 91.4427 162.59 94.3698 162.59Z" fill="white"/>
<path d="M133.48 285.61H191.56V249.26H133.48V285.61Z" fill="#FFE8EE"/>
<path d="M191.57 250.72H252.86V216.37H191.57V250.72Z" fill="#FFE8EE"/>
<path d="M293.1 194.15H94.1402C91.5278 194.15 89.4102 196.268 89.4102 198.88V211.2C89.4102 213.812 91.5278 215.93 94.1402 215.93H293.1C295.712 215.93 297.83 213.812 297.83 211.2V198.88C297.83 196.268 295.712 194.15 293.1 194.15Z" fill="#FF0077" stroke="black" stroke-width="4" stroke-linecap="round"/>
<path d="M92.6304 250.36H299.4" stroke="black" stroke-width="4" stroke-miterlimit="10" stroke-linecap="round"/>
<path d="M92.6304 284.83H299.4" stroke="black" stroke-width="4" stroke-miterlimit="10" stroke-linecap="round"/>
<path d="M253.75 194.07V304.4" stroke="black" stroke-width="4" stroke-miterlimit="10" stroke-linecap="round"/>
<path d="M191.56 195.56V305.89" stroke="black" stroke-width="4" stroke-miterlimit="10" stroke-linecap="round"/>
<path d="M133.49 194.07V304.4" stroke="black" stroke-width="4" stroke-miterlimit="10" stroke-linecap="round"/>
<path d="M347.94 208.02C339.57 208.02 332.75 201.21 332.75 192.83C332.75 184.45 339.56 177.64 347.94 177.64C356.32 177.64 363.13 184.45 363.13 192.83C363.13 201.21 356.32 208.02 347.94 208.02Z" fill="#FF0077"/>
<path d="M347.94 179.65C355.22 179.65 361.13 185.55 361.13 192.84C361.13 200.13 355.23 206.03 347.94 206.03C340.65 206.03 334.75 200.13 334.75 192.84C334.75 185.55 340.65 179.65 347.94 179.65ZM347.94 175.65C338.46 175.65 330.75 183.36 330.75 192.84C330.75 202.32 338.46 210.03 347.94 210.03C357.42 210.03 365.13 202.32 365.13 192.84C365.13 183.36 357.42 175.65 347.94 175.65Z" fill="black"/>
<path d="M392.54 171.62C414.803 171.62 432.85 153.573 432.85 131.31C432.85 109.047 414.803 91 392.54 91C370.277 91 352.23 109.047 352.23 131.31C352.23 153.573 370.277 171.62 392.54 171.62Z" fill="white" stroke="black" stroke-width="4"/>
<path d="M392.5 131.3L421.27 140.65C416.11 156.54 399.04 165.23 383.16 160.07C367.27 154.91 358.58 137.84 363.74 121.96C367.87 109.25 379.14 101.06 392.51 101.06V131.31L392.5 131.3Z" fill="black" stroke="black" stroke-width="4"/>
<path d="M392.54 131.31L372.67 154.17C378.18 158.96 385.24 161.6 392.54 161.6C409.15 161.6 422.83 147.93 422.83 131.31C422.83 114.69 409.16 101.02 392.54 101.02C392.46 101.02 392.38 101.02 392.31 101.02L392.54 131.31Z" fill="white" stroke="black" stroke-width="4"/>
<path d="M392.5 131.3V101.05C405.86 101.05 417.14 109.24 421.27 121.95L392.5 131.3Z" fill="#FF0077" stroke="black" stroke-width="4"/>
<path d="M392.54 143.86C399.471 143.86 405.09 138.241 405.09 131.31C405.09 124.379 399.471 118.76 392.54 118.76C385.609 118.76 379.99 124.379 379.99 131.31C379.99 138.241 385.609 143.86 392.54 143.86Z" fill="white" stroke="black" stroke-width="4"/>
<path d="M278.94 408.48H405.99C422.84 408.48 433.37 390.24 424.94 375.65L370.34 281.07C368.21 277.38 367.09 273.2 367.09 268.94V212.68H368.58C370.26 212.68 371.63 211.32 371.63 209.63V199.73C371.63 198.05 370.27 196.68 368.58 196.68H316.35C314.67 196.68 313.3 198.04 313.3 199.73V209.63C313.3 211.31 314.66 212.68 316.35 212.68H317.84V268.94C317.84 273.2 316.72 277.38 314.59 281.07L259.99 375.65C251.57 390.24 262.1 408.48 278.94 408.48Z" fill="white" stroke="black" stroke-width="4"/>
<path d="M281.65 398.82C276.67 398.82 272.2 396.24 269.71 391.93C267.22 387.61 267.22 382.46 269.71 378.15L286.96 348.27H300.17C300.37 339.17 307.84 331.82 316.99 331.82C326.14 331.82 333.61 339.16 333.81 348.27H351.78C352.27 343.53 356.28 339.83 361.14 339.83C366 339.83 370.02 343.54 370.5 348.27H396.09L413.34 378.15C415.83 382.47 415.83 387.62 413.34 391.93C410.85 396.24 406.39 398.82 401.4 398.82H281.62H281.65Z" fill="#FF0077"/>
<path d="M317.01 333.81C325.2 333.81 331.84 340.45 331.84 348.64C331.84 349.19 331.81 349.73 331.75 350.26H353.84C353.79 349.92 353.76 349.58 353.76 349.23C353.76 345.14 357.08 341.82 361.17 341.82C365.26 341.82 368.58 345.14 368.58 349.23C368.58 349.58 368.55 349.92 368.5 350.26H394.97L411.65 379.14C416.19 387 410.52 396.81 401.45 396.81H281.67C272.6 396.81 266.93 386.99 271.47 379.14L288.15 350.26H302.3C302.24 349.73 302.21 349.19 302.21 348.64C302.21 340.45 308.85 333.81 317.04 333.81M317.01 329.81C307.43 329.81 299.51 337 298.33 346.26H285.82L284.67 348.26L267.99 377.14C265.14 382.08 265.14 387.98 267.99 392.92C270.84 397.86 275.95 400.81 281.66 400.81H401.44C407.15 400.81 412.26 397.86 415.11 392.92C417.96 387.98 417.96 382.08 415.11 377.14L398.43 348.26L397.28 346.26H372.19C370.88 341.4 366.43 337.82 361.17 337.82C355.91 337.82 351.46 341.4 350.15 346.26H335.69C334.52 337 326.59 329.81 317.01 329.81Z" fill="black"/>
<path d="M357.62 327.42C350.48 327.42 344.66 321.61 344.66 314.46C344.66 307.31 350.47 301.5 357.62 301.5C364.77 301.5 370.58 307.31 370.58 314.46C370.58 321.61 364.77 327.42 357.62 327.42Z" fill="#FF0077"/>
<path d="M357.62 303.5C363.67 303.5 368.58 308.41 368.58 314.46C368.58 320.51 363.67 325.42 357.62 325.42C351.57 325.42 346.66 320.51 346.66 314.46C346.66 308.41 351.57 303.5 357.62 303.5ZM357.62 299.5C349.37 299.5 342.66 306.21 342.66 314.46C342.66 322.71 349.37 329.42 357.62 329.42C365.87 329.42 372.58 322.71 372.58 314.46C372.58 306.21 365.87 299.5 357.62 299.5Z" fill="black"/>
<path d="M297.83 178.46C290.69 178.46 284.87 172.65 284.87 165.5C284.87 158.35 290.68 152.54 297.83 152.54C304.98 152.54 310.79 158.35 310.79 165.5C310.79 172.65 304.98 178.46 297.83 178.46Z" fill="#FF0077"/>
<path d="M297.83 154.55C303.88 154.55 308.79 159.46 308.79 165.51C308.79 171.56 303.88 176.47 297.83 176.47C291.78 176.47 286.87 171.56 286.87 165.51C286.87 159.46 291.78 154.55 297.83 154.55ZM297.83 150.55C289.58 150.55 282.87 157.26 282.87 165.51C282.87 173.76 289.58 180.47 297.83 180.47C306.08 180.47 312.79 173.76 312.79 165.51C312.79 157.26 306.08 150.55 297.83 150.55Z" fill="black"/>
<path d="M323.66 128.16C333.54 128.16 341.55 120.15 341.55 110.27C341.55 100.39 333.54 92.3799 323.66 92.3799C313.78 92.3799 305.77 100.39 305.77 110.27C305.77 120.15 313.78 128.16 323.66 128.16Z" fill="white" stroke="black" stroke-width="4"/>
<path d="M317.84 212.68H367.09" stroke="black" stroke-width="4" stroke-miterlimit="10"/>
</svg>
