<svg width="650" height="500" viewBox="0 0 650 500" fill="none" xmlns="http://www.w3.org/2000/svg">
<path d="M206 249.8L176.7 409L225.9 408.3L237.4 263.8L206 249.8Z" fill="black"/>
<path d="M64 408.3H482.2" stroke="black" stroke-width="4" stroke-linecap="round"/>
<path d="M153.1 411.1L168.9 423.1C168.9 423.1 174.5 432.6 176.4 432.6C178.3 432.6 178.5 432.4 179.5 431.8C182.5 430 185.5 428.1 185.5 428.1L187.5 426.8L186.5 432.7C186.3 433.9 186.1 435.2 187.4 435.6C188.7 436 190 435.1 190.5 434.1L194.4 425.2C195.1 423.6 195.3 421.7 194.9 420C193.9 415.4 191.8 406.4 190.4 404.1C188.6 401 177.4 384.9 177.4 384.9L163.3 389.2L153.3 411.1H153.1Z" fill="black"/>
<path d="M332.4 322.7C330.3 299.8 322.4 273 320.2 265.8C319.9 264.8 318.8 264.4 317.9 264.9L280.6 287.4L267.5 231.3C267.5 231.3 222.4 196.6 163.6 223.8C118.2 244.9 96.8001 306.7 89.5001 333.6C86.2001 345.8 87.7001 358.9 93.9001 370C98.1001 377.6 104.7 386.9 115 397.7L139.1 423C142.7 426.8 148.7 426.6 152.1 422.7L181.2 389.1L206 249.6L228.3 235.5L235.5 247L225.9 408.2H267.6V366.9C294.3 378.1 322.3 369.4 329.3 351.2C331.7 344.9 333.5 333.9 332.5 322.6L332.4 322.7Z" fill="white" stroke="black" stroke-width="4"/>
<path d="M244.9 222.6C244.9 222.6 254.2 219.5 256.7 212.5C258.6 207 259.2 197.6 256.9 192.8C254.5 188 244.1 202.7 242.8 208.5C241.5 214.4 245 222.6 245 222.6H244.9Z" fill="white" stroke="black" stroke-width="4"/>
<path d="M212.6 246.7L223.6 263.8L228.1 260.8L228.3 235.7L213.3 243.4L212.6 246.7Z" fill="#FF0077"/>
<path d="M240 263.7C240 275.7 230.2 285.5 218.2 285.5C206.2 285.5 196.4 275.7 196.4 263.7" stroke="white" stroke-width="4" stroke-miterlimit="10"/>
<path d="M179.6 399.2L184.7 266.4L197 261.5C198.1 261.1 198.4 259.7 197.6 258.8L188 248.2C186.9 246.9 187 244.9 188.4 243.9C193.7 239.9 207.3 231.7 226.9 233.8" stroke="black" stroke-width="4" stroke-miterlimit="10"/>
<path d="M225.8 264.6L237.4 254.8L232.6 235.6C232.6 235.6 223.8 234.4 223 242.7C222.2 251 225.8 264.6 225.8 264.6Z" fill="#FF0077"/>
<path d="M199 222.3L243.6 210.4L255.6 255.5C256.6 259.2 254.4 263.1 250.6 264.1L220.4 270.9C216 271.9 211.5 269.7 209.4 265.7L200.9 241.9L204 234.8L198.9 222.4L199 222.3Z" fill="black"/>
<path d="M200.2 238.7C206.3 244.1 210.1 242.3 208.5 239.8C207 237.5 207 228.2 207 228.2C207 228.2 220.9 231.9 216.7 225.5L215.4 223.5C214.3 221.8 215.6 219.6 217.6 219.8C220.9 220.1 225.5 220.1 230.7 219.2C240.7 217.4 250.4 214.2 259.9 197.9C265.3 188.7 262.5 172.7 254.6 175.1C246.7 177.5 236.7 194 223.8 199.8L224.6 190C226.1 171.2 210.3 177.1 208.1 184.6C206.3 190.7 199 208.4 199 208.4C199 208.4 179.6 191.5 179.6 217.9C179.6 237.1 200.2 238.8 200.2 238.8V238.7Z" fill="white" stroke="black" stroke-width="4"/>
<path d="M230.576 243.481C233.337 242.924 234.956 239.401 234.192 235.611C233.428 231.821 230.57 229.201 227.809 229.757C225.048 230.314 223.429 233.838 224.193 237.627C224.957 241.417 227.815 244.038 230.576 243.481Z" fill="white"/>
<path d="M244.567 240.277C247.328 239.72 248.947 236.197 248.183 232.407C247.419 228.617 244.561 225.996 241.8 226.553C239.039 227.11 237.42 230.633 238.184 234.423C238.949 238.213 241.806 240.834 244.567 240.277Z" fill="white"/>
<path d="M200.6 244.9C203.748 244.9 206.3 242.348 206.3 239.2C206.3 236.052 203.748 233.5 200.6 233.5C197.452 233.5 194.9 236.052 194.9 239.2C194.9 242.348 197.452 244.9 200.6 244.9Z" fill="black"/>
<path d="M277.1 290.4L264.7 240.3C264.1 238 262.3 236.2 260 235.6C257.9 235.1 256.2 233.6 255.5 231.5L254.7 229.4L289.4 220.9L306.5 271.4L277.1 290.4Z" fill="black"/>
<path d="M250.2 237.6C247.8 237.6 245.6 236.1 244.7 233.8C243.6 230.8 245.1 227.6 248 226.4L273.9 216L284.8 227.7L251.8 237.4C251.3 237.6 250.7 237.6 250.2 237.6Z" fill="#FF0077"/>
<path d="M273.5 218.4L281.2 226.7L251.3 235.4C250.9 235.5 250.6 235.6 250.2 235.6C248.6 235.6 247.2 234.6 246.6 233.1C245.9 231.2 246.9 229 248.8 228.3L273.4 218.4M274.5 213.7L272 214.7L247.4 224.6C243.5 226.2 241.5 230.5 243 234.5C244.1 237.6 247.1 239.6 250.3 239.6C253.5 239.6 251.8 239.5 252.5 239.3L282.4 230.6L288.6 228.8L284.2 224.1L276.5 215.8L274.6 213.8L274.5 213.7Z" fill="black"/>
<path d="M266.1 212.4L265.6 212.2C263.2 211.4 260.5 212.4 259.3 214.7L252.4 227.8C252 228.5 252.3 229.4 253 229.7C254.9 230.8 257.3 230.2 258.5 228.4L267.7 214.8L266 212.3L266.1 212.4Z" fill="black"/>
<path d="M271.2 212.9C271.3 210.6 268.7 209 266.8 210.3C264.9 211.6 264.1 212.7 264.1 214.2L263.8 232.5H265.5C267.9 232.6 270 230.8 270.3 228.4L271.1 212.9H271.2Z" fill="black"/>
<path d="M241.6 243.2L229.7 251.8C232.1 255.1 236.7 255.8 239.9 253.4C241.4 252.3 242.4 250.7 242.8 249C243.6 249.9 244.6 250.6 245.9 251C249.2 252 252.7 250 253.7 246.7L241.6 243.2Z" fill="white"/>
<path d="M406.3 287.1H377.4C375.412 287.1 373.8 288.712 373.8 290.7V294C373.8 295.988 375.412 297.6 377.4 297.6H406.3C408.288 297.6 409.9 295.988 409.9 294V290.7C409.9 288.712 408.288 287.1 406.3 287.1Z" fill="black"/>
<path d="M391.8 264.6V408.3" stroke="black" stroke-width="4" stroke-linecap="round"/>
<path d="M388.6 264.6L363.2 406.1" stroke="black" stroke-width="4" stroke-linecap="round"/>
<path d="M395.5 267.4L420.5 406.9" stroke="black" stroke-width="4" stroke-linecap="round"/>
<path d="M305.5 199C305.5 195.2 305.9 191.5 306.6 187.9L287 197.3C278.2 202 272.9 211.8 274.3 222.3C276.1 235.7 288.5 245.1 301.9 243.3C302.5 243.3 303.1 243.1 303.7 243L321 240C311.3 228.8 305.4 214.5 305.4 199.1L305.5 199Z" fill="#FF0077" stroke="black" stroke-width="4"/>
<path d="M441.9 76.8L344.6 136.3C342.4 137.5 340.2 138.9 338.1 140.3C338.1 140.3 338.1 140.4 337.9 140.5C314.2 156.8 304.6 179.5 303.4 195.4C303.4 196.1 303.4 196.9 303.4 197.6C303.4 210.3 307.1 222.2 313.6 232.1C316.3 236 319.4 239.7 323 243.1C333 252.5 345.8 258.7 359.2 260.7C359.7 260.7 360.1 260.8 360.6 260.9C362.7 261.1 364.9 261.2 367.1 261.2C369.3 261.2 370.3 261.2 371.8 261L493.6 256.4L441.9 76.7V76.8Z" fill="#FF0077" stroke="black" stroke-width="4"/>
<path d="M489.9 256.4C543.03 256.4 586.1 213.33 586.1 160.2C586.1 107.07 543.03 64 489.9 64C436.77 64 393.7 107.07 393.7 160.2C393.7 213.33 436.77 256.4 489.9 256.4Z" fill="white" stroke="black" stroke-width="4"/>
<path d="M391.8 277.1C400.581 277.1 407.7 269.981 407.7 261.2C407.7 252.419 400.581 245.3 391.8 245.3C383.019 245.3 375.9 252.419 375.9 261.2C375.9 269.981 383.019 277.1 391.8 277.1Z" fill="black"/>
<path d="M162.5 314.7L146.1 343C145.4 344.1 145.6 345.6 146.4 346.6L181.2 389.3" stroke="black" stroke-width="4" stroke-miterlimit="10" stroke-linecap="round"/>
<path d="M251.2 261.2L225.9 408.3" stroke="black" stroke-width="4"/>
<path d="M276.5 279.6L288.6 337.1" stroke="black" stroke-width="4" stroke-linecap="round"/>
<path d="M489.9 222.2C524.142 222.2 551.9 194.442 551.9 160.2C551.9 125.958 524.142 98.2 489.9 98.2C455.658 98.2 427.9 125.958 427.9 160.2C427.9 194.442 455.658 222.2 489.9 222.2Z" fill="#FF0077" stroke="black" stroke-width="4" stroke-miterlimit="10"/>
<path d="M489.9 198.3C510.942 198.3 528 181.242 528 160.2C528 139.158 510.942 122.1 489.9 122.1C468.858 122.1 451.8 139.158 451.8 160.2C451.8 181.242 468.858 198.3 489.9 198.3Z" fill="black"/>
<path d="M520.9 143C510.1 143 501.3 134.2 501.3 123.4C501.3 112.6 510.1 103.8 520.9 103.8C531.7 103.8 540.5 112.6 540.5 123.4C540.5 134.2 531.7 143 520.9 143Z" fill="white"/>
<path d="M520.9 105.8C530.6 105.8 538.5 113.7 538.5 123.4C538.5 133.1 530.6 141 520.9 141C511.2 141 503.3 133.1 503.3 123.4C503.3 113.7 511.2 105.8 520.9 105.8ZM520.9 101.8C509 101.8 499.3 111.5 499.3 123.4C499.3 135.3 509 145 520.9 145C532.8 145 542.5 135.3 542.5 123.4C542.5 111.5 532.8 101.8 520.9 101.8Z" fill="black"/>
<path d="M281.6 299.6C271.7 303.4 267.8 323.3 267.7 330.3L267.5 378.6" stroke="black" stroke-width="4"/>
<path d="M197.9 207.2C197.9 207.2 201.7 198.2 196.9 191.4L197.9 207.2Z" fill="white"/>
<path d="M197.9 207.2C197.9 207.2 201.7 198.2 196.9 191.4" stroke="black" stroke-width="4" stroke-linecap="round"/>
</svg>
