<svg width="655" height="563" viewBox="0 0 655 563" fill="none" xmlns="http://www.w3.org/2000/svg">
<g clip-path="url(#clip0_7872_395)">
<path d="M462.58 104.25H201.69C197.272 104.25 193.69 107.832 193.69 112.25V386.21C193.69 390.628 197.272 394.21 201.69 394.21H462.58C466.998 394.21 470.58 390.628 470.58 386.21V112.25C470.58 107.832 466.998 104.25 462.58 104.25Z" fill="#FFE8EE"/>
<path d="M319.28 140.54H88.76C83.3697 140.54 79 144.91 79 150.3V348.14C79 353.53 83.3697 357.9 88.76 357.9H319.28C324.67 357.9 329.04 353.53 329.04 348.14V150.3C329.04 144.91 324.67 140.54 319.28 140.54Z" fill="white" stroke="black" stroke-width="4"/>
<path d="M147.19 261.87C171.77 279.18 191.96 323.57 213.91 322.82C232.44 322.18 244.72 302.78 263.9 297.59C254.45 287.56 265.19 248.99 235.07 251.75C217.83 253.33 214.28 264.7 197.2 263.4C169.15 261.25 175.31 208.07 146.63 206.61C122.13 205.36 129.84 240.66 123.48 256.16C130.37 254.83 138.5 255.77 147.18 261.88L147.19 261.87Z" fill="#FF0077" stroke="black" stroke-width="4"/>
<path d="M291.78 302.39C284.87 296.24 276.08 292.08 265.36 292.71C258.79 293.1 252.27 296.83 247.12 300.04C237.48 306.04 226.7 317.23 213.91 317.67C191.96 318.42 171.77 274.03 147.19 256.72C138.51 250.61 130.38 249.67 123.49 251C110.87 253.43 102.42 263.49 102.42 263.49V331.9C102.42 335.68 105.99 338.74 110.4 338.74H297.18C304.45 338.74 309.5 331.5 306.98 324.68C306.32 322.9 305.83 321.59 305.68 321.28C302.47 314.71 297.85 307.79 291.79 302.4L291.78 302.39Z" fill="black"/>
<path d="M88.23 140.54H319.81C324.9 140.54 329.04 144.67 329.04 149.77V174.5H79V149.77C79 144.68 83.13 140.54 88.23 140.54Z" fill="black"/>
<path d="M95.8499 164.58C100.517 164.58 104.3 160.797 104.3 156.13C104.3 151.463 100.517 147.68 95.8499 147.68C91.1831 147.68 87.3999 151.463 87.3999 156.13C87.3999 160.797 91.1831 164.58 95.8499 164.58Z" fill="#FF0077"/>
<path d="M120.48 164.58C125.147 164.58 128.93 160.797 128.93 156.13C128.93 151.463 125.147 147.68 120.48 147.68C115.813 147.68 112.03 151.463 112.03 156.13C112.03 160.797 115.813 164.58 120.48 164.58Z" fill="white"/>
<path d="M259.63 305.21C265.921 305.21 271.02 300.11 271.02 293.82C271.02 287.529 265.921 282.43 259.63 282.43C253.34 282.43 248.24 287.529 248.24 293.82C248.24 300.11 253.34 305.21 259.63 305.21Z" fill="white" stroke="black" stroke-width="4"/>
<path d="M202.98 273.66C209.27 273.66 214.37 268.561 214.37 262.27C214.37 255.98 209.27 250.88 202.98 250.88C196.689 250.88 191.59 255.98 191.59 262.27C191.59 268.561 196.689 273.66 202.98 273.66Z" fill="white" stroke="black" stroke-width="4"/>
<path d="M146.34 218.94C152.631 218.94 157.73 213.841 157.73 207.55C157.73 201.26 152.631 196.16 146.34 196.16C140.05 196.16 134.95 201.26 134.95 207.55C134.95 213.841 140.05 218.94 146.34 218.94Z" fill="white" stroke="black" stroke-width="4"/>
<path d="M484.17 253.34C486.561 253.34 488.5 251.402 488.5 249.01C488.5 246.619 486.561 244.68 484.17 244.68C481.778 244.68 479.84 246.619 479.84 249.01C479.84 251.402 481.778 253.34 484.17 253.34Z" fill="white"/>
<path d="M394.27 209.07H508.19C510.95 209.07 513.19 211.31 513.19 214.07V317.96C513.19 320.72 510.95 322.96 508.19 322.96H394.27C391.51 322.96 389.27 320.72 389.27 317.96V214.08C389.27 211.32 391.51 209.08 394.27 209.08V209.07Z" fill="white" stroke="black" stroke-width="4" stroke-miterlimit="10"/>
<path d="M393.95 208.27H510.09C512.85 208.27 515.09 210.51 515.09 213.27V225.67H387.32V214.9C387.32 211.24 390.29 208.27 393.95 208.27Z" fill="black"/>
<path d="M494.04 220.46C496.431 220.46 498.37 218.521 498.37 216.13C498.37 213.739 496.431 211.8 494.04 211.8C491.649 211.8 489.71 213.739 489.71 216.13C489.71 218.521 491.649 220.46 494.04 220.46Z" fill="#FF0077"/>
<path d="M505.46 220.46C507.851 220.46 509.79 218.521 509.79 216.13C509.79 213.739 507.851 211.8 505.46 211.8C503.068 211.8 501.13 213.739 501.13 216.13C501.13 218.521 503.068 220.46 505.46 220.46Z" fill="white"/>
<path d="M518.2 541.64L508.12 511.68V472.5L487.35 463.23L489.85 494.92L489.78 494.85L489.95 496.06L490.03 497.04L490.09 497.11L491.73 509.12L489.28 515.24C488.28 517.73 488.91 520.59 490.85 522.44L516.51 546.8L516.89 546.47C518.26 545.28 518.78 543.37 518.2 541.65V541.64Z" fill="black"/>
<path d="M302.99 258.68C302.64 258.63 301.26 257.53 301.05 257.24L295.34 249.75C295.1 249.43 294.73 249.24 294.33 249.22C293.47 249.18 292.8 249.95 292.95 250.79L294.63 257.89L275.38 261.54C274.93 261.62 274.59 261.98 274.51 262.42C274.4 263.01 274.8 263.58 275.39 263.69L345.02 278.36C350.44 279.62 356.03 280.07 361.58 279.7L380.11 279.45L379.43 257.06L365.9 261.15C358.96 263.25 351.69 263.98 344.47 263.32L303 258.67L302.99 258.68Z" fill="white" stroke="black" stroke-width="4" stroke-miterlimit="10"/>
<path d="M413.59 260.44L399.96 244.23L409.24 232.93L425.22 251.76L413.59 260.44Z" fill="white"/>
<path d="M395.86 207.18C395.73 206.48 395.42 204.94 395.42 204.2C395.42 197.28 401.16 191.7 408.14 191.97C414.63 192.22 419.91 197.73 419.9 204.22C419.9 208.24 417.95 211.8 414.95 214.03C420.05 217.85 421.11 223.69 425.09 226.28C473.38 257.7 443.93 269.33 443.93 269.33L375.97 267.03V221.5C375.97 213.59 382.38 207.17 390.3 207.17H395.86V207.18Z" fill="black"/>
<path d="M394.876 245.518C388.299 246.354 382.283 241.696 381.446 235.119L380.209 225.398C379.382 218.89 383.988 212.941 390.495 212.113L400.147 210.886C400.197 210.879 400.252 210.913 400.259 210.972L403.277 234.691C403.952 239.998 400.194 244.851 394.887 245.526L394.876 245.518Z" fill="white"/>
<path d="M382.08 213.97C382.08 213.97 387.92 224.15 402.5 225.92C417.08 227.69 416.89 222.45 416.89 222.45C416.89 222.45 413.29 208.37 400.19 207.87C387.09 207.36 382.98 212.69 382.98 212.69L382.07 213.98L382.08 213.97Z" fill="black"/>
<path d="M401.66 225.47C403.06 224.39 405.26 224.18 406.81 225.84C407.44 226.52 407.77 227.49 407.63 228.53C407.25 231.45 403.99 233.05 402.22 232.35C400.36 231.62 400.96 226.08 401.07 225.92L401.65 225.46L401.66 225.47Z" fill="white"/>
<path d="M465.9 252.81L487.56 252.05C491.48 251.7 496.03 249.55 499.74 248.24L512.52 242.47V226.29L511.54 226.57C499.17 230.04 486.4 231.85 473.55 231.95L465.9 232.01" fill="white"/>
<path d="M465.9 252.81L487.56 252.05C491.48 251.7 496.03 249.55 499.74 248.24L512.52 242.47V226.29L511.54 226.57C499.17 230.04 486.4 231.85 473.55 231.95L465.9 232.01" stroke="black" stroke-width="4" stroke-miterlimit="10"/>
<path d="M428.03 278.83C428.03 293.21 416.38 304.86 402 304.86C387.62 304.86 375.97 293.21 375.97 278.83V252.8H428.52L428.03 278.83Z" fill="black"/>
<path d="M427.36 283.48L426.77 283.46C426.77 283.46 422.86 283.35 416.9 282.54C409.36 281.52 404.19 277.33 404.14 277.29L403.51 276.78L377.62 278.91V257.79L398.67 251.62C399.59 251.82 401.53 252.16 403.87 252.16C408.34 252.16 412.17 250.91 414.95 248.55C416.83 246.95 418.36 244.82 419.98 242.57C423.69 237.4 427.53 232.06 436.31 232.06H468.37L468.62 252.73H458.15L457.71 254.14C457.27 255.55 458.21 256.19 459.4 257.01L469.11 263.65L478.31 269.93L468.12 290.78L444.1 294.87L427.34 283.49L427.36 283.48Z" fill="#FF0077"/>
<path d="M466.41 234.05L466.61 250.71H456.68L455.81 253.54C454.95 256.35 457.12 257.84 458.28 258.64L460.69 260.29C462.68 261.65 465.34 263.47 468 265.28L475.77 270.58L466.79 288.96L444.58 292.75L428.97 282.15L428 281.49L426.83 281.46C426.83 281.46 423.01 281.35 417.18 280.56C410.25 279.62 405.46 275.78 405.43 275.75L404.17 274.71L402.55 274.84L379.64 276.73V259.28L398.78 253.67C399.91 253.88 401.73 254.15 403.89 254.15C408.84 254.15 413.12 252.74 416.27 250.06C418.34 248.3 420.01 245.97 421.63 243.72C425.21 238.74 428.59 234.04 436.33 234.04H466.41M470.36 230.05H436.33C422.54 230.05 419.54 242.04 413.67 247.02C410.72 249.53 406.92 250.16 403.88 250.16C400.84 250.16 398.62 249.55 398.62 249.55L375.62 256.29V281.08L402.86 278.84C402.86 278.84 408.38 283.41 416.63 284.53C422.79 285.37 426.72 285.47 426.72 285.47L443.66 296.97L469.48 292.57L480.88 269.24C480.88 269.24 459.6 254.72 459.63 254.72H470.65L470.36 230.06V230.05Z" fill="black"/>
<path d="M506.47 322.47C510.87 322.42 514.38 318.8 514.3 314.4L513.93 289.77L475.94 265.75L441.23 292.7C441.23 292.7 437.94 306.05 444.04 326.15C447.24 336.68 454.57 345.39 464.6 359.28C475.11 373.83 477.97 388.05 478.51 396.71C479.85 418.32 479.18 494.86 479.18 494.86H515.82C515.82 494.86 517.36 423.18 515.82 386.1C515.28 373.05 512.54 356.6 502.57 336.4C498.5 328.15 499.26 329.87 495.55 321.91" fill="black"/>
<path d="M379.22 155.01L379.95 102.65C380.12 93.42 388.92 86.01 399.72 86.01H481.29C492.14 86.01 500.97 93.49 501.06 102.77L501.48 156.05C501.58 165.57 492.46 173.28 481.33 173.1L409.74 172.37L398.99 182.73C397.19 184.46 394.2 183.27 394.07 180.78L393.62 171.53C385.2 169.5 379.09 162.84 379.24 155.02L379.22 155.01Z" fill="white" stroke="black" stroke-width="4"/>
<path fill-rule="evenodd" clip-rule="evenodd" d="M444.08 112.93C448.87 109.82 455.06 109.54 459.97 112.45C462.19 113.77 464.07 115.56 465.4 117.8C468.68 123.34 467.71 130 464.83 135.48C460.01 144.66 450.06 151.47 441.24 155.86C440.67 156.14 440.01 156.14 439.45 155.86C430.63 151.47 420.68 144.67 415.86 135.49C412.98 130.01 412.01 123.35 415.29 117.81C416.61 115.58 418.5 113.78 420.73 112.46C425.64 109.55 431.82 109.83 436.61 112.94L440.35 115.37L444.09 112.95L444.08 112.93Z" fill="#FF0077" stroke="black" stroke-width="4" stroke-miterlimit="10"/>
<path d="M378.78 236.02C380.68 236.02 382.22 233.679 382.22 230.79C382.22 227.902 380.68 225.56 378.78 225.56C376.88 225.56 375.34 227.902 375.34 230.79C375.34 233.679 376.88 236.02 378.78 236.02Z" fill="white" stroke="black" stroke-width="4"/>
<path d="M390.56 236.02C392.808 236.02 394.63 233.679 394.63 230.79C394.63 227.902 392.808 225.56 390.56 225.56C388.312 225.56 386.49 227.902 386.49 230.79C386.49 233.679 388.312 236.02 390.56 236.02Z" fill="white" stroke="black" stroke-width="4"/>
<path d="M382.22 230.79H387.49" stroke="black" stroke-width="4"/>
</g>
<defs>
<clipPath id="clip0_7872_395">
<rect width="441.43" height="462.8" fill="white" transform="translate(77 84)"/>
</clipPath>
</defs>
</svg>
