<svg width="500" height="500" viewBox="0 0 500 500" fill="none" xmlns="http://www.w3.org/2000/svg">
<path d="M265.5 203.1L264.4 222.1L248.5 226C246.2 225.8 244.2 223.9 244.8 221.7L257 166.8L279.4 176.1C279.4 176.1 279.4 176.2 279.4 176.3C279.4 176.9 279.4 178 279.1 179.5C278.4 182.5 276.2 187.4 270 194.2C267.9 196.5 265.8 199.9 265.5 203.1Z" fill="white" stroke="black" stroke-width="4"/>
<path d="M394.7 208.5C398.8 187.6 387.6 166.1 367.2 157.8C344 148.4 317.5 159.6 308.1 182.8C298.7 206 309.9 232.5 333.1 241.9C336.8 243.4 340.5 244.4 344.3 244.9L345.5 245.1L345.8 246.3C346.2 248 346.4 249.8 346.5 251.6C346.5 252.1 346.5 252.6 346.6 253C346.7 254.4 346.8 255.7 347 257C347.5 260.6 348.3 263.4 350 265.1L351.6 266.6L349.9 267.9C345.3 271.2 343.2 274.7 341.5 278.7C340.7 280.6 340.1 282.6 339.4 284.9C339.4 285.1 339.3 285.4 339.2 285.6C338.4 288.1 337.5 290.9 336.2 294C322.6 327.5 335.1 363.4 368.4 376.9C401.8 390.4 439.8 374.3 453.4 340.9C466.9 307.5 450.8 269.5 417.4 255.9C413.5 254.3 409.5 253.1 405.5 252.3C405.5 252.3 405.5 252.3 405.4 252.3C405.4 252.3 405.3 252.3 405.2 252.3C405.1 252.3 404.9 252.3 404.8 252.3C404.7 252.3 404.6 252.3 404.4 252.3C403.2 252.1 402 251.8 400.8 251.4C394.3 249.2 390.1 245.1 388.5 239.6C386.9 234.1 387.9 227.6 390.9 220.3V220.2C391.4 219.2 391.9 218.1 392.3 217.1C393.1 215.1 394.4 211.4 394.8 208.8L394.7 208.5Z" fill="#FF0077" stroke="black" stroke-width="4"/>
<path d="M323.1 230L316.9 254L347.3 257.4L350 221.6L323 229.9L323.1 230Z" fill="white" stroke="black" stroke-width="4"/>
<path d="M349.3 255L352 219.3L321.6 228.7L318.4 236.8L349.2 255.1L349.3 255Z" fill="black"/>
<path d="M318.7 235.9C330.4 240.6 343.8 235.9 348.6 224.1L355.7 205.5C360.4 193.8 354.8 180.5 343.1 175.7C331.4 171 318.1 176.6 313.3 188.3L306.1 206.1C301.4 217.8 307 231.1 318.7 235.9Z" fill="white" stroke="black" stroke-width="4"/>
<path d="M307.1 266.2C308.3 261.9 310.3 254.9 311.4 251.1C311.9 249.5 313.4 248.4 315 248.5L352.4 250C354.4 250 355.9 251.7 355.9 253.7L355.5 266.6C355.5 267.1 355.3 267.7 355.1 268.2L350.2 277.7C349.4 279.2 347.8 279.9 346.1 279.5L309.7 270.7C307.7 270.2 306.5 268.2 307.1 266.3V266.2Z" fill="black"/>
<path d="M324 168.5C324.7 183.6 341.9 207.1 359.4 218.2C376.9 229.2 375.2 182.2 367.2 173.5C359.2 164.8 324 168.5 324 168.5Z" fill="#FF0077"/>
<path d="M347.4 213C349 210.8 354 205.2 358 209.3C362 213.4 356.5 219.5 352.5 219.7C348.5 220 345.9 217.7 345.9 217.7C345.9 217.7 345.8 215.2 347.4 213Z" fill="white"/>
<path d="M325.3 175.9C327.4 183.1 334.3 198.5 349.1 210.3C351.3 208.3 353.8 207.4 356.2 208.3C358.9 209.2 361.6 213.3 357.5 217.7C354.8 220.6 352.7 220.7 349.8 220.3" stroke="black" stroke-width="4" stroke-linecap="round"/>
<path d="M187.7 113.9L271 161.1L260.4 181L174.7 138.4L187.7 113.9Z" fill="black"/>
<path d="M232.906 146.027L225.958 159.095L309.573 203.554L316.521 190.486L232.906 146.027Z" fill="black"/>
<path d="M307.8 178.7C307.3 176.9 306.1 175.5 304.4 174.6L276.3 159.3C275 158.6 279.6 160.8 281.8 167.6C282.2 172.1 289.1 189.1 279.1 203.2C277.9 205 274.5 209.2 274.3 211.2L272.7 230.8L293.3 227.4H293.5H293.7L297.1 259.1L296.6 218.7C297.3 213.7 298.6 213.7 302.8 208.4C309.7 196.8 310 186.1 307.8 178.7Z" fill="white" stroke="black" stroke-width="4"/>
<path d="M355.5 265.6L300.8 257L299.6 227.1C299.6 225.7 298.4 224.7 297.1 224.6L273.2 224.1C271.7 224.1 270.4 225.2 270.3 226.7L266.9 270.8H266.6L267.6 220.8C267.6 219.4 266.5 218.8 265.1 218.8L241.3 218.4C239.9 218.4 238.8 219.4 238.7 220.8L232.3 298.6C231.3 307.3 236.5 315 244.4 316.4L244.6 463.1C244.6 464.7 245.9 466.1 247.6 466.1H324.2L323.5 455C322.8 444.6 323.5 434.2 325.8 424C334.6 384.8 360.1 375.6 373.2 342.8C387.6 317.2 381.1 271.3 355.6 265.7L355.5 265.6Z" fill="black"/>
<path d="M266.9 278.7L265.7 297C263.6 329.6 295.5 353.8 326.3 343.1L347.6 335.7" stroke="white" stroke-width="4" stroke-linecap="round"/>
<path d="M405.4 252.3C481.9 263.5 472.1 310.5 450.8 346.2M391.5 218.7C388.8 226.2 389.8 237.2 397.3 239" stroke="black" stroke-width="4" stroke-linecap="round"/>
<path d="M248.5 463.9H346.2" stroke="black" stroke-width="4" stroke-linecap="round"/>
<path d="M272.869 175.107C275.773 169.645 274.885 163.494 270.887 161.368C266.888 159.242 261.292 161.946 258.388 167.407C255.484 172.869 256.372 179.02 260.371 181.146C264.369 183.272 269.965 180.568 272.869 175.107Z" fill="black"/>
<path d="M164.9 90.7L241 139.5L225.4 168.7L141.9 132.3L164.8 90.7H164.9Z" fill="black"/>
<path d="M163.3 120.8C159.7 125.8 155.3 129.2 151.1 130.6C146.9 132 143.1 131.4 140.5 129C137.9 126.6 136.6 122.5 136.9 117.5C137.2 112.5 139.2 106.9 142.8 101.9C146.4 96.9 150.8 93.5 155 92.1C159.2 90.7 163 91.3 165.6 93.7C168.2 96.1 169.5 100.2 169.2 105.2C168.9 110.2 166.9 115.8 163.3 120.8Z" fill="white" stroke="black" stroke-width="4"/>
<path d="M158.5 116.8C156.4 119.7 153.9 121.6 151.6 122.4C149.2 123.2 147.2 122.8 145.9 121.6C144.6 120.4 143.8 118.2 144 115.4C144.2 112.6 145.3 109.4 147.3 106.5C149.4 103.6 151.9 101.7 154.2 100.9C156.6 100.1 158.6 100.5 159.9 101.7C161.2 102.9 162 105.1 161.8 107.9C161.6 110.7 160.5 113.9 158.5 116.8Z" fill="#FF0077" stroke="black" stroke-width="4"/>
<path d="M164.9 100.6C167.1 102.6 166.8 107.2 164.2 110.7C161.6 114.3 157.8 115.6 155.6 113.6C153.4 111.6 153.7 107 156.3 103.5C158.9 99.8999 162.7 98.5999 164.9 100.6Z" fill="white"/>
<path d="M243.662 159.682C247.966 151.587 246.633 142.461 240.684 139.297C234.734 136.134 226.423 140.132 222.118 148.227C217.814 156.322 219.148 165.448 225.097 168.611C231.046 171.775 239.358 167.777 243.662 159.682Z" fill="black"/>
<path d="M317.659 199.735C319.578 196.126 318.999 192.066 316.366 190.666C313.732 189.266 310.042 191.056 308.124 194.665C306.205 198.273 306.784 202.334 309.417 203.734C312.051 205.134 315.741 203.343 317.659 199.735Z" fill="black"/>
<path d="M61.3002 77.9H59.0002C59.0002 70.3 52.8002 64.1 45.2002 64.1V61.8C52.8002 61.8 59.0002 55.6 59.0002 48H61.3002C61.3002 55.6 67.5002 61.8 75.1002 61.8V64.1C67.5002 64.1 61.3002 70.3 61.3002 77.9Z" fill="black"/>
<path d="M273.4 73.6001H274.9C274.9 78.7001 279 82.8001 284 82.8001V84.3001C279 84.3001 274.9 88.4001 274.9 93.5001H273.4C273.4 88.4001 269.3 84.3001 264.3 84.3001V82.8001C269.3 82.8001 273.4 78.7001 273.4 73.6001Z" fill="black"/>
<path d="M43.6001 91.8999H45.2001C45.2001 97.0999 49.5001 101.4 54.7001 101.4V103C49.5001 103 45.2001 107.2 45.2001 112.5H43.6001C43.6001 107.3 39.3001 103 34.1001 103V101.4C39.3001 101.4 43.6001 97.1999 43.6001 91.8999Z" fill="black"/>
<path d="M147.9 354.5H149.7C149.7 360.6 154.7 365.6 160.8 365.6V367.4C154.7 367.4 149.7 372.4 149.7 378.5H147.9C147.9 372.4 142.9 367.4 136.8 367.4V365.6C142.9 365.6 147.9 360.6 147.9 354.5Z" fill="black"/>
<path fill-rule="evenodd" clip-rule="evenodd" d="M103.8 247.1C137.5 237 162.1 219.9 158.8 208.8C155.5 197.7 125.5 197 91.8002 207C58.1002 217.1 33.5002 234.2 36.8002 245.3C40.1002 256.4 70.1002 257.1 103.8 247.1ZM102.2 241.9C133.9 232.4 157.3 217 154.5 207.6C151.7 198.2 123.7 198.2 92.0002 207.7C60.3002 217.2 36.9002 232.6 39.7002 242C42.5002 251.4 70.5002 251.4 102.2 241.9Z" fill="black"/>
<path d="M97.0001 261.8C117.656 261.8 134.4 245.055 134.4 224.4C134.4 203.745 117.656 187 97.0001 187C76.3447 187 59.6001 203.745 59.6001 224.4C59.6001 245.055 76.3447 261.8 97.0001 261.8Z" fill="black"/>
<path fill-rule="evenodd" clip-rule="evenodd" d="M61.1 256.1C46.2 256.1 36.8 252.5 34.9 245.8C30.8 232.1 60.3 214.3 91.2 205C106.6 200.4 122 197.8 134.4 197.8C146.8 197.8 158.7 201.4 160.6 208.1C162.5 214.3 157.4 222.1 146.2 229.8C135.6 237.2 120.8 243.9 104.3 248.9C88.9 253.5 73.5 256.1 61.1 256.1ZM134.2 202.5C122.6 202.5 107.8 205 92.5 209.6C77.3 214.1 63.6 220.2 53.9 226.5C45.1 232.3 40.5 237.8 41.5 241.4C42.6 244.9 49.4 247 59.9 247C71.5 247 86.3 244.5 101.6 239.9C116.8 235.4 130.5 229.3 140.2 223C149 217.2 153.6 211.7 152.6 208.1C151.5 204.6 144.7 202.5 134.2 202.5Z" fill="#FF0077"/>
<path d="M134.4 199.9C147.7 199.9 157 202.9 158.7 208.7C162 219.8 137.4 236.9 103.7 247C87.9001 251.7 72.9 254.1 61.1 254.1C49.3 254.1 38.5 251.1 36.8 245.3C33.5 234.2 58.1001 217.1 91.8001 207C107.6 202.3 122.6 199.9 134.4 199.9ZM60 249.1C71.3 249.1 86.3 246.7 102.2 241.9C133.9 232.4 157.3 217 154.5 207.6C153.1 202.9 145.4 200.5 134.2 200.5C123 200.5 107.9 202.9 92 207.7C60.3 217.2 36.9001 232.6 39.7001 242C41.1001 246.7 48.8 249.1 60 249.1ZM134.4 195.9C121.8 195.9 106.2 198.5 90.6 203.2C73.9 208.2 58.8 215.1 48.1 222.5C32.8 233.1 31.4001 241.4 32.9001 246.4C35.2001 254 44.9 258.1 61.1 258.1C77.3 258.1 89.3001 255.5 104.9 250.8C121.6 245.8 136.7 238.9 147.4 231.5C162.7 220.9 164.1 212.6 162.6 207.6C160.3 200 150.6 195.9 134.4 195.9ZM60 245.1C48 245.1 44.0001 242.4 43.5001 240.9C43.1001 239.4 44.9 234.9 55.1 228.3C64.7001 222 78.2 216.1 93.2 211.6C108.2 207.1 122.8 204.6 134.3 204.6C145.8 204.6 150.3 207.3 150.8 208.8C151.2 210.3 149.4 214.8 139.2 221.4C129.6 227.7 116.1 233.6 101.1 238.1C86.1001 242.6 71.5 245.1 60 245.1Z" fill="black"/>
<path d="M86.1998 188.5C66.3998 194.4 55.1998 215.3 61.0998 235.1L132.7 213.6C126.8 193.8 105.9 182.6 86.0998 188.5H86.1998Z" fill="black"/>
<path d="M257.5 156.3L260.6 155.2C263.6 153.8 266.3 153 270.5 155.5L278.3 160.7C281 162.9 282.3 166.4 281.8 169.8L280.9 175.8" stroke="black" stroke-width="4" stroke-miterlimit="10"/>
</svg>
