<svg width="500" height="500" viewBox="0 0 500 500" fill="none" xmlns="http://www.w3.org/2000/svg">
<path d="M361 264.4C359.6 264.4 358.1 264.4 356.6 264.1H356.4L297.9 252.6L330.4 241.2L359.6 239.7L375 169.4C375.4 167.7 377.3 164.6 382.1 164.5H390.6C391.1 163.4 391.5 162.7 392 162.1C393.6 160 396.3 158.6 397.6 158L401.3 150.3C401.8 149.3 402.9 148.6 404 148.6C405.1 148.6 404.7 148.6 405 148.8C406.4 149.3 407.3 150.8 406.9 152.3L406.1 156L409.6 151.4C410.3 150.5 411.4 149.9 412.6 149.9C413.9 149.9 415 150.5 415.5 151.5C416 152.5 416 153.7 415.5 154.7C415.7 154.7 416 154.7 416.2 154.7C417.8 154.7 419.1 155.6 419.5 156.9C419.9 158.2 419.5 159.6 418.3 160.6L391.7 180.9L382.3 248.7C380.7 260.4 369.7 264.6 360.9 264.6L361 264.4Z" fill="white"/>
<path d="M404.2 150.6C404.3 150.6 404.4 150.6 404.5 150.6C405 150.8 405.2 151.3 405.1 151.8L402.5 164.2L411.3 152.6C411.6 152.1 412.2 151.9 412.7 151.9C413.9 151.9 414.3 152.9 413.7 153.9C412.6 155.7 411.1 158.1 409.8 160.2L415.5 156.9C415.7 156.8 416 156.7 416.3 156.7C417.7 156.7 418.2 158.1 417.1 158.9L389.9 179.7L380.4 248.3C379.4 255.8 373 262.4 360.9 262.4C348.8 262.4 358.2 262.4 356.7 262.2L305.5 252.1L330.8 243.2L361.2 241.7L376.9 169.9C376.9 169.9 377.6 166.6 382.1 166.6C384.7 166.6 388.4 166.5 391.8 166.4C392.3 165.3 393 164.2 393.6 163.3C395.3 161 399.1 159.6 399.1 159.6L403.2 151.2C403.4 150.9 403.7 150.6 404.1 150.6M404.2 146.6C402.3 146.6 400.5 147.7 399.7 149.4L396.3 156.5C394.6 157.3 392.1 158.8 390.5 160.9C390.2 161.3 389.9 161.8 389.5 162.4H382.2C378.5 162.6 376.2 164.2 375 165.6C373.7 167.1 373.2 168.6 373.1 169L358 237.9L330.6 239.3H330L329.5 239.5L304.2 248.4L290.3 253.3L304.7 256.1L355.9 266.2H356.1H356.3C357.9 266.4 359.5 266.5 361 266.5C376.5 266.5 383.3 257 384.4 248.9L393.7 181.9L419.6 162.1C421.5 160.7 422.2 158.4 421.5 156.2C421 154.6 419.7 153.4 418 152.9C418 152.1 417.8 151.3 417.4 150.5C416.5 148.9 414.8 147.9 412.8 147.8C411.3 147.8 409.8 148.4 408.8 149.5C408.3 148.3 407.2 147.2 405.9 146.8C405.4 146.6 404.8 146.5 404.3 146.5L404.2 146.6Z" fill="black"/>
<path d="M362.2 237C362.2 237 272 215.6 268.3 215.9H268.1L267.3 216C266.6 216.1 265.9 216.3 265.3 216.5L253.7 219.4L250.8 220.1L248.3 208.1L202.6 219L205.1 231.4L196.6 233.5C195.8 233.7 195 233.9 194.3 234.2C194.3 234.1 184.2 236.6 184.2 236.6C174.7 238.9 167.3 246.4 164.9 255.9L136.3 370.8C135.2 375.3 138 379.8 142.6 380.7L153.4 382.9C153.4 382.9 151.7 370.5 164.3 358.1L173.4 354.7L189.3 304L191.4 311.6C193 317.7 195 323.6 197.2 329.5L206.6 354.4L195.7 383.3C188.2 400 174.9 422 173 440.6C172 450.5 171.9 460.9 172.2 473.5H326.4C325 419.3 325.2 408.8 308.7 368.2C306.9 363.8 298.7 344.9 295.6 335.5C293.6 329.3 285 301.6 289.2 297.9C303.9 284.8 291.1 263.6 291.1 263.6L357.6 266.8L362.4 237.3L362.2 237Z" fill="black"/>
<path d="M285.5 207.3C286.6 201.1 285.5 195.7 282.3 190.5C278.9 184.8 275.9 180.3 272.1 174.8C269.1 170.4 263.5 165 260.4 160.7C258.9 158.7 257.4 156.2 255.5 154.5C255.7 154.1 256 153.6 256.3 153C262.5 139.8 254.3 126.7 242.5 120.8C242.5 120.8 209.8 121.9 215.1 129.9C216.4 131.9 201.1 142.3 201.8 144C201.7 144 192 146.6 191.9 146.5L193.4 151.6C195 153 194.2 157.8 194 161.7C190.1 164.5 187.3 167.5 187.3 167.5C193 171 190.3 180.8 179.3 191.1C179.1 191.1 178.8 191.3 178.6 191.4C175.2 194.4 172.2 197.1 169.3 199.5C167.2 202.4 165.1 205.3 162.8 207.9C161.3 209.5 159.8 211 158.3 212.5C158.1 212.8 158 213 157.8 213.3C157.8 213.5 157.6 213.6 157.5 213.8C157.5 213.8 157.7 213.7 157.7 213.6C157.5 213.8 157.4 214 157.2 214.2C156.7 215.1 149.8 221 147 233.3C144.5 244.5 160.9 266.3 207.1 255.9C215.8 254 227.7 248.1 227.7 248.1C227.7 248.1 227.7 246.9 227.5 244.7C238.6 242.8 265.1 238.2 266.5 236.4C271.4 230.5 275.9 224.4 280.2 218.1C282.3 215.1 284.1 211.8 285 208.2C285 207.8 285.2 207.5 285.2 207.1L285.5 207.3Z" fill="black"/>
<path d="M232.4 236.9C230.7 236.9 229 236.5 227.6 235.6L210 225.6L204.1 188L245.2 209.4L246.5 218.3L241.6 230.7C240.1 234.5 236.5 236.9 232.5 236.9H232.4Z" fill="white"/>
<path d="M206.6 191.6L243.3 210.7L244.4 218L239.7 229.9C238.5 233 235.5 234.9 232.4 234.9C229.3 234.9 229.8 234.6 228.5 233.9L211.7 224.3L206.5 191.5M201.4 184.4L202.6 192.2L207.8 225L208.1 226.9L209.8 227.9L226.6 237.5C228.4 238.5 230.4 239 232.4 239C237.3 239 241.6 236.1 243.4 231.5L248.1 219.6L248.5 218.6L248.3 217.5L247.2 210.2L246.9 208.2L245.1 207.3L208.4 188.2L201.4 184.5V184.4Z" fill="black"/>
<path d="M231.7 408.5L192.9 379.7L239.4 312.2L280.8 341.7C282.9 343.2 283.3 346 281.8 348.1L238 407.6C236.5 409.6 233.7 410 231.7 408.5Z" fill="#FF0077"/>
<path d="M139.5 453.9L148.6 458.7C151.1 460 154.2 459 155.5 456.5L220.5 331.9C222.4 328.3 219.5 324 215.5 324.4L204.5 325.4C202.8 325.6 201.2 326.6 200.4 328.1L137.4 446.9C136.1 449.4 137 452.5 139.6 453.9H139.5Z" fill="black"/>
<path d="M131.5 459.1L120.3 450.6C117.6 448.5 117 444.7 118.9 441.9L240.8 267.9C242.7 265.1 246.5 264.4 249.4 266.2L256.7 270.8C259.7 272.7 260.6 276.7 258.6 279.7L140.5 457.6C138.5 460.7 134.3 461.4 131.4 459.1H131.5Z" fill="white" stroke="black" stroke-width="4" stroke-miterlimit="10"/>
<path d="M235.6 402C234.5 402 233.4 401.7 232.4 401C230.5 399.7 225.1 396.2 217 391C211.6 387.6 205.4 385.6 199.1 385.3C189.7 384.8 176.1 384.2 164.7 384.1C145 384 140.6 377.9 140.2 377.2L139.4 375.8L164.3 351.4L165.4 351.8C179.3 356.1 216 367.5 219.6 368.1C222 368.5 224.5 368.6 227.1 368.6C229.8 368.6 232.7 368.7 235.5 369.3C239.6 370 243.2 371.8 246.5 373.5C249.1 374.9 251.7 376.3 254.2 377.7C255.3 378.3 256.3 378.9 257.4 379.5C258.5 380.1 259.2 381.2 259.4 382.4C259.6 383.5 259.3 384.6 258.7 385.4L259.4 386.6C260.5 388.4 261.9 392.7 258.8 395.5C255.4 398.6 247 400.2 238.6 401.6C237.8 401.7 237.2 401.8 236.6 401.9C236.3 401.9 236 401.9 235.6 401.9V402ZM255 387.7L255.6 387C255.6 387 255.5 387 255.4 387C255.1 387 254.8 387 254.5 387C254.5 387 254.3 387 254.2 387L255 387.9V387.7Z" fill="white"/>
<path d="M164.7 353.7C164.7 353.7 214.7 369.3 219.2 370C224.5 370.9 229.8 370.2 235.1 371.2C238.9 371.9 242.1 373.5 245.5 375.2C249.2 377.1 252.8 379.2 256.4 381.2C257.5 381.8 257.8 383.4 256.9 384.3C256.5 384.7 256 384.9 255.4 384.9C254.8 384.9 255.1 384.9 254.9 384.9C253.7 384.6 249.9 383.1 247.5 382.6L255.1 390.7L257.7 387.6C257.7 387.6 260.1 391.5 257.5 394C253.9 397.3 241.3 399.1 236.3 400C236.1 400 235.9 400 235.7 400C235 400 234.3 399.8 233.7 399.4C231.3 397.7 224.1 393.1 218.2 389.4C212.5 385.8 206 383.7 199.3 383.4C190.1 382.9 176.3 382.3 164.8 382.2C145.6 382.1 142 376.2 142 376.2L164.9 353.7M163.6 349.1L161.9 350.8L139 373.3L136.7 375.5L138.4 378.2C138.8 378.8 140.3 380.8 144.4 382.7C149.3 384.9 156.1 386 164.6 386.1C175.9 386.1 189.5 386.8 198.9 387.3C204.9 387.6 210.8 389.5 215.9 392.7C224 397.9 229.4 401.3 231.3 402.6C232.6 403.5 234.1 404 235.6 404C237.1 404 236.5 404 236.9 403.9C237.5 403.8 238.2 403.7 238.9 403.6C247.9 402.1 256.3 400.4 260.1 397C263.6 393.8 263.1 388.8 261 385.5V385.3C261.3 384.3 261.5 383.2 261.3 382C261 380.2 259.9 378.6 258.3 377.7C257.2 377.1 256.2 376.5 255.1 375.9C252.6 374.5 250 373 247.3 371.6C243.9 369.8 240.2 368 235.8 367.2C232.8 366.7 229.9 366.6 227.1 366.5C224.6 366.5 222.2 366.4 219.9 366C216.8 365.5 185.1 355.8 165.9 349.8L163.6 349.1Z" fill="black"/>
<path d="M226.9 199.9L237.7 199.2C251.5 197.1 261 184.3 258.9 170.5L254.9 143.8C252.8 130 240 120.5 226.2 122.6L221.4 123.3C207.6 125.4 198.1 138.2 200.2 152L200.8 166.6L210 227.2" fill="white"/>
<path d="M226.9 199.9L237.7 199.2C251.5 197.1 261 184.3 258.9 170.5L254.9 143.8C252.8 130 240 120.5 226.2 122.6L221.4 123.3C207.6 125.4 198.1 138.2 200.2 152L200.8 166.6L210 227.2" stroke="black" stroke-width="4" stroke-miterlimit="10" stroke-linecap="round"/>
<path d="M244.9 114C242.3 104.7 231.4 101.7 210.6 112.6C202.7 116.8 196.5 121 191.7 125C189.9 120.3 185.3 111.7 175.2 105.9C163.2 99 147.4 100.3 141 103.2C139.4 103.7 138.2 104.5 137.5 105.5C134.3 110.7 134.4 125 148.9 135.8C156.1 141.1 164.5 142.5 171.5 142.5C178.5 142.5 175.4 142.4 177.1 142.2C173.2 149.3 171.1 153.8 175.1 158.1C179.1 162.5 187.2 167.5 187.2 167.5L204.8 163.4L212.3 162.3C212.3 162.3 228.2 159.6 234.4 149C240.6 138.4 247.4 123.4 244.8 114.1L244.9 114Z" fill="black"/>
<path d="M209.2 172.3C206.6 175.1 202 173.7 197.6 171C193.2 168.3 192.9 162.3 195.5 159.5C198.1 156.7 204.1 156.6 207.1 160.8C209.9 164.8 211.8 169.5 209.2 172.3Z" fill="white"/>
<path d="M354.7 233.3V233.1C354.7 233.1 354 234 354.7 233.3Z" fill="black"/>
<path d="M105.6 472H360.4" stroke="black" stroke-width="4" stroke-linecap="round"/>
<path d="M370.5 117.7H398.4V136.8C398.4 139.3 396.3 141.4 393.8 141.4H375.1C372.6 141.4 370.5 139.3 370.5 136.8V117.7Z" fill="black"/>
<path d="M409.3 97.0001C409.3 80.0001 401.4 72.1001 384.4 72.1001C367.4 72.1001 359.5 80.0001 359.5 97.0001C359.5 114 367.4 121.9 384.4 121.9C401.4 121.9 409.3 114 409.3 97.0001Z" fill="white" stroke="black" stroke-width="4"/>
<path d="M380 102.3C380 99.2999 377.6 96.8999 374.6 96.8999C371.6 96.8999 369.2 99.2999 369.2 102.3C369.2 105.3 371.6 107.7 374.6 107.7H385.8" stroke="black" stroke-width="4"/>
<path d="M380 102.3V121.6" stroke="black" stroke-width="4"/>
<path d="M388.9 102.3C388.9 99.2999 391.3 96.8999 394.3 96.8999C397.3 96.8999 399.7 99.2999 399.7 102.3C399.7 105.3 397.3 107.7 394.3 107.7H385.2" stroke="black" stroke-width="4"/>
<path d="M388.9 102.3V121.6" stroke="black" stroke-width="4"/>
<path d="M384.4 65.3V53" stroke="#FF0077" stroke-width="4" stroke-linecap="round"/>
<path d="M408.7 74.9999L417.3 66.3999" stroke="#FF0077" stroke-width="4" stroke-linecap="round"/>
<path d="M360.4 75.4999L351.8 66.8999" stroke="#FF0077" stroke-width="4" stroke-linecap="round"/>
<path d="M352.7 99.7H345.1" stroke="#FF0077" stroke-width="4" stroke-linecap="round"/>
<path d="M415.7 99H423.2" stroke="#FF0077" stroke-width="4" stroke-linecap="round"/>
<path d="M139.6 105.9C139.6 105.9 122.3 160.2 177.2 142.1" stroke="black" stroke-width="4" stroke-miterlimit="10"/>
<path d="M185.3 187.6C166.4 206.3 151.6 213.8 143.9 223.2C138.5 229.8 137.7 235.5 137.7 235.5" stroke="black" stroke-width="4" stroke-miterlimit="10" stroke-linecap="round"/>
<path d="M258.3 159.3C258.8 159.4 286.4 181.9 291.7 201.6C293.7 209.1 284.5 226.5 284.5 226.5" stroke="black" stroke-width="4" stroke-miterlimit="10" stroke-linecap="round"/>
</svg>
