<svg width="650" height="500" viewBox="0 0 650 500" fill="none" xmlns="http://www.w3.org/2000/svg">
<path d="M162.2 408.6H409.5" stroke="black" stroke-width="4" stroke-linecap="round"/>
<path d="M520 62.7H264.8C262.038 62.7 259.8 64.9385 259.8 67.6999V207.9C259.8 210.661 262.038 212.9 264.8 212.9H520C522.761 212.9 525 210.661 525 207.9V67.6999C525 64.9385 522.761 62.7 520 62.7Z" fill="#FF0077" stroke="black" stroke-width="4"/>
<path d="M523.9 85.4001H261.1V63.3H523.5L523.9 85.4001Z" fill="black"/>
<path d="M307.3 121.4C293.3 115.3 274.9 117 262.5 126C250.5 134.8 244.8 149.6 238.3 162.4C235.4 168.1 232 173.8 226.6 177.3C221.6 180.6 215.4 181.4 209.4 181.6C197.2 182.1 185 180.5 172.8 180.9C160.6 181.3 147.9 184 138.6 191.9C128.7 200.2 123.7 214.1 126.1 226.8C128.5 239.5 138.2 250.6 150.5 254.7C155.8 256.5 162.4 257.7 164.4 263C166.5 268.4 162.3 273.8 159.5 278.9C152.9 290.8 154.2 306.5 162.3 317.5C170.3 328.5 184.5 334.6 198.1 333.4C211.7 332.2 224.4 324.3 231.9 312.9C236.6 305.8 239.5 297.4 245.6 291.5C255.9 281.6 271.8 281.8 285.7 278.8C302.3 275.2 317.7 266.3 329.1 253.7C330.4 252.3 331.7 250.7 332 248.7C332.3 246.9 331.7 245 331.2 243.2C329.6 236.8 330 229.9 332.5 223.7C334.2 219.6 336.7 215.8 337.5 211.5C338.9 204 334.8 196.7 332.3 189.4C328.4 178.1 328.6 165.8 326.7 154C324.7 141.2 319.5 127.4 307.2 121.3" fill="black"/>
<path d="M261.2 177.1L271.2 233.4L306.4 222.5L300.7 200.9L271.3 191.9L261.2 177.1Z" fill="white"/>
<path d="M388.1 240.4H365.8V216.6V213.6H388.1V240.4Z" fill="white"/>
<path d="M292.31 125.581L276.149 128.372C263.632 130.534 255.238 142.434 257.4 154.951L263.51 190.327C265.672 202.845 277.572 211.239 290.089 209.077L306.25 206.286C318.767 204.123 327.162 192.224 325 179.706L318.889 144.33C316.727 131.813 304.827 123.419 292.31 125.581Z" fill="white"/>
<path d="M330.1 161.5C330.3 161.5 409.7 204.8 409.7 204.8" stroke="black" stroke-width="4" stroke-miterlimit="10"/>
<path d="M379.9 182.4L370.9 195.8C367.6 200.7 365.9 206.4 365.9 212.3V213.9L380.3 221.6C385.7 224 392.1 221.7 394.7 216.4L397.8 210.2C401.5 204.5 398.5 198.3 393.9 193.8L387.1 187.1" fill="white"/>
<path d="M387.8 229.9V222.1C387.8 222.1 398.6 218.3 400.4 205.3" stroke="black" stroke-width="4"/>
<path d="M404.2 211.2C402.7 211.2 401.1 210.8 399.7 210.1L366.9 192.8C364.6 191.6 363 189.6 362.2 187.2C361.4 184.8 361.7 182.2 362.9 179.9C364.6 176.8 367.8 174.8 371.3 174.8C374.8 174.8 374.4 175.2 375.7 175.9L408.5 193.2C410.8 194.4 412.4 196.4 413.2 198.8C414 201.2 413.7 203.8 412.5 206.1C410.9 209.1 407.8 211.1 404.3 211.2H404H404.2Z" fill="#FF0077"/>
<path d="M371.5 176.8C372.7 176.8 373.9 177.1 375 177.7L407.8 195C411.5 196.9 412.9 201.5 410.9 205.2C409.6 207.7 407.1 209.1 404.4 209.2C404.4 209.2 404.3 209.2 404.2 209.2C403 209.2 401.8 208.9 400.7 208.3L367.9 191C364.2 189.1 362.8 184.5 364.8 180.8C366.2 178.2 368.8 176.8 371.5 176.8ZM371.5 172.8C367.2 172.8 363.3 175.2 361.3 178.9C359.9 181.6 359.6 184.7 360.5 187.7C361.4 190.6 363.4 193.1 366.1 194.5L398.9 211.8C400.6 212.7 402.4 213.1 404.3 213.1C406.2 213.1 404.5 213.1 404.6 213.1C408.8 213 412.5 210.6 414.5 207C415.9 204.3 416.2 201.2 415.3 198.2C414.4 195.3 412.4 192.8 409.7 191.4L376.9 174.1C375.2 173.2 373.4 172.8 371.5 172.8Z" fill="black"/>
<path d="M377.9 204.6L369.5 197.7L383.1 176C384.4 174 387.6 173.9 389.6 175.2C391.6 176.5 392.4 178.3 391.7 180C392.5 180 393.4 180.4 394.1 180.9L407.3 188.5C409.8 189.7 410 193.3 408.7 195.1L405.1 200.5C404.2 201.8 402.4 202.1 400.9 201.2L385 192.3C384.8 192.2 384.7 192.1 384.5 192L377.9 204.6Z" fill="white"/>
<path d="M265.7 169.9C262.1 169.9 259.3 168.8 257.3 166.5C250.6 159 255.7 141.6 255.9 140.8C256.1 140.4 269.3 111 300.7 123.6C317.1 130.2 318.7 140.7 321.1 147.1C323.7 154 327 157.7 326.9 158V158.5C326.8 158.5 326.2 158.5 326.2 158.5C325.3 158.5 308.5 158.2 294.5 135.2C294.3 142.9 291.7 165.5 269.5 169.6C268.1 169.9 266.8 170 265.6 170L265.7 169.9Z" fill="black"/>
<path d="M263.6 181.1C260.6 182.2 257.6 178.9 255.2 174.6C252.5 169.7 254.6 165.3 257.5 164.2C260.5 163.1 265.1 165.8 265.9 170.7C266.7 175.2 266.5 180 263.6 181.1Z" fill="white"/>
<path d="M330.7 136.4C316.9 136.4 305.6 147.7 305.6 161.5C305.6 175.3 316.9 186.6 330.7 186.6C344.5 186.6 355.8 175.3 355.8 161.5C355.8 147.7 344.5 136.4 330.7 136.4Z" fill="#FF0077"/>
<path d="M330.7 186.6C344.562 186.6 355.8 175.362 355.8 161.5C355.8 147.638 344.562 136.4 330.7 136.4C316.837 136.4 305.6 147.638 305.6 161.5C305.6 175.362 316.837 186.6 330.7 186.6Z" fill="black"/>
<path d="M362.8 228.1V243L360.3 236.9C353.8 222 337.5 213.8 321.7 217.5L241.1 242.1C225.3 245.8 214.4 260.2 215.1 276.3L219.7 407.3H250.1L376 408.6L356.4 309.2C360.4 318.3 370.3 323.3 380 321.1C389.4 318.9 396.1 310.6 396.1 300.9V228.1H362.8ZM250.2 402.5L253.4 306.7L259.8 317.4C264.1 324.7 269.3 331.4 275.1 337.6L284.8 347.9C284.8 347.9 253.8 360.9 250.2 402.6V402.5Z" fill="black"/>
<path d="M270.1 77.9999C272.475 77.9999 274.4 76.0747 274.4 73.6999C274.4 71.3251 272.475 69.3999 270.1 69.3999C267.725 69.3999 265.8 71.3251 265.8 73.6999C265.8 76.0747 267.725 77.9999 270.1 77.9999Z" fill="#FF0077"/>
<path d="M282.7 77.9999C285.075 77.9999 287 76.0747 287 73.6999C287 71.3251 285.075 69.3999 282.7 69.3999C280.325 69.3999 278.4 71.3251 278.4 73.6999C278.4 76.0747 280.325 77.9999 282.7 77.9999Z" fill="white"/>
<path d="M556.9 193H463.2C460.438 193 458.2 195.239 458.2 198V316.6C458.2 319.361 460.438 321.6 463.2 321.6H556.9C559.661 321.6 561.9 319.361 561.9 316.6V198C561.9 195.239 559.661 193 556.9 193Z" fill="white" stroke="black" stroke-width="4"/>
<path d="M510 242.5L538.3 251.7C533.2 267.4 516.4 275.9 500.7 270.8C485 265.7 476.5 248.9 481.6 233.2C485.7 220.7 496.8 212.6 509.9 212.6V242.4L510 242.5Z" fill="black" stroke="black" stroke-width="4"/>
<path d="M510 242.5L538.299 233.3C540.299 239.6 540.299 245.5 538.299 251.7L510 242.5Z" fill="white" stroke="black" stroke-width="4"/>
<path d="M510 242.5V212.7C523.2 212.7 534.299 220.8 538.299 233.3L510 242.5Z" fill="#FF0077" stroke="black" stroke-width="4"/>
<path d="M510 254.9C516.848 254.9 522.4 249.348 522.4 242.5C522.4 235.652 516.848 230.1 510 230.1C503.151 230.1 497.6 235.652 497.6 242.5C497.6 249.348 503.151 254.9 510 254.9Z" fill="white" stroke="black" stroke-width="4"/>
<path d="M515.5 266.7L524.9 295H546.9" stroke="black" stroke-width="4" stroke-linecap="round"/>
<path d="M524.9 302.6H546.9" stroke="black" stroke-width="4" stroke-linecap="round"/>
<path d="M500.2 117.2C494.8 117.7 489.9 121.1 486.6 125.4C483.3 129.7 481.3 134.9 479.6 140.1C477.2 147.8 475.7 156.9 470.4 163.3C464.4 170.6 454.6 170.8 447.5 165C436.9 156.4 435.6 139 422.8 132.8C416.3 129.7 409 131.1 403.7 135.8C399 140 396 145.6 391.4 150C389.7 151.6 373.9 164.5 348.4 153.1" stroke="black" stroke-width="4" stroke-miterlimit="10"/>
<path d="M443.5 168.5C446.869 168.5 449.6 165.769 449.6 162.4C449.6 159.031 446.869 156.3 443.5 156.3C440.131 156.3 437.4 159.031 437.4 162.4C437.4 165.769 440.131 168.5 443.5 168.5Z" fill="white"/>
<path d="M443.5 158.2C445.8 158.2 447.6 160.1 447.6 162.3C447.6 164.5 445.7 166.4 443.5 166.4C441.3 166.4 439.4 164.5 439.4 162.3C439.4 160.1 441.3 158.2 443.5 158.2ZM443.5 154.2C439 154.2 435.4 157.9 435.4 162.3C435.4 166.7 439.1 170.4 443.5 170.4C447.9 170.4 451.6 166.7 451.6 162.3C451.6 157.9 447.9 154.2 443.5 154.2Z" fill="black"/>
<path d="M500.5 124.7C503.869 124.7 506.6 121.969 506.6 118.6C506.6 115.231 503.869 112.5 500.5 112.5C497.131 112.5 494.4 115.231 494.4 118.6C494.4 121.969 497.131 124.7 500.5 124.7Z" fill="white"/>
<path d="M500.5 114.4C502.8 114.4 504.6 116.3 504.6 118.5C504.6 120.7 502.7 122.6 500.5 122.6C498.3 122.6 496.4 120.7 496.4 118.5C496.4 116.3 498.3 114.4 500.5 114.4ZM500.5 110.4C496 110.4 492.4 114.1 492.4 118.5C492.4 122.9 496.1 126.6 500.5 126.6C504.9 126.6 508.6 122.9 508.6 118.5C508.6 114.1 504.9 110.4 500.5 110.4Z" fill="black"/>
<path d="M330.7 186.6C344.562 186.6 355.8 175.362 355.8 161.5C355.8 147.638 344.562 136.4 330.7 136.4C316.837 136.4 305.6 147.638 305.6 161.5C305.6 175.362 316.837 186.6 330.7 186.6Z" fill="#FF0077" stroke="black" stroke-width="4" stroke-miterlimit="10"/>
<path d="M389.5 156.2C386.1 156.2 383.4 153.4 383.4 150.1C383.4 146.8 386.2 144 389.5 144C392.8 144 395.6 146.8 395.6 150.1C395.6 153.4 392.8 156.2 389.5 156.2Z" fill="white"/>
<path d="M389.5 145.9C391.8 145.9 393.6 147.8 393.6 150C393.6 152.2 391.7 154.1 389.5 154.1C387.3 154.1 385.4 152.2 385.4 150C385.4 147.8 387.3 145.9 389.5 145.9ZM389.5 141.9C385 141.9 381.4 145.6 381.4 150C381.4 154.4 385.1 158.1 389.5 158.1C393.9 158.1 397.6 154.4 397.6 150C397.6 145.6 393.9 141.9 389.5 141.9Z" fill="black"/>
<path d="M330.7 174.6C337.935 174.6 343.8 168.735 343.8 161.5C343.8 154.265 337.935 148.4 330.7 148.4C323.465 148.4 317.6 154.265 317.6 161.5C317.6 168.735 323.465 174.6 330.7 174.6Z" fill="black" stroke="white" stroke-width="4" stroke-miterlimit="10"/>
<path d="M308.6 221.4C311.9 232.4 305.6 244.1 294.6 247.5C283.6 250.8 272.5 244.4 269.1 233.4" fill="white"/>
<path d="M308.6 221.4C311.9 232.4 305.6 244.1 294.6 247.5C283.6 250.8 272.5 244.4 269.1 233.4" stroke="black" stroke-width="4"/>
<path d="M364.7 230.9L365.1 213.9C365.8 204.7 368.3 196.3 373 189L382.1 174.8C383.4 172.7 386.2 172 388.4 173.3L390.5 174.6C392.6 175.9 393.3 178.6 392.2 180.7L405.7 187.3C408.4 188.6 410.4 190.9 411.3 193.7" stroke="black" stroke-width="4" stroke-linecap="round"/>
<path d="M337.2 158.6C333.8 158.6 331.1 155.8 331.1 152.5C331.1 149.2 333.9 146.4 337.2 146.4C340.5 146.4 343.3 149.2 343.3 152.5C343.3 155.8 340.5 158.6 337.2 158.6Z" fill="white"/>
<path d="M337.2 148.4C339.5 148.4 341.3 150.3 341.3 152.5C341.3 154.7 339.4 156.6 337.2 156.6C335 156.6 333.1 154.7 333.1 152.5C333.1 150.3 335 148.4 337.2 148.4ZM337.2 144.4C332.7 144.4 329.1 148.1 329.1 152.5C329.1 156.9 332.8 160.6 337.2 160.6C341.6 160.6 345.3 156.9 345.3 152.5C345.3 148.1 341.6 144.4 337.2 144.4Z" fill="black"/>
<path d="M381.8 201.6L385.6 193.9L398.3 200.1C400.9 201.4 404 200.8 405.9 198.7L410.7 193.3" stroke="black" stroke-width="4"/>
<path d="M302.3 206.9L283.3 209.1L307.7 224.2L311.8 215.5L302.3 206.9Z" fill="black"/>
</svg>
