<svg width="500" height="500" viewBox="0 0 500 500" fill="none" xmlns="http://www.w3.org/2000/svg">
<path d="M270.8 424.8C231.3 424.8 194.7 409.7 167.7 382.2C141.5 355.5 127.8 320.6 129.3 284L133.6 173.5C134.9 141.2 149.5 111.1 174.8 88.8C199.9 66.6 232.8 54.4 267.5 54.4C302.2 54.4 335.3 66.6 360.8 88.8C386.5 111.1 401.7 141.2 403.5 173.5L409.8 284C411.9 320.6 398.8 355.5 373.1 382.3C346.6 409.8 312 424.8 272.5 424.8H270.8Z" fill="white" stroke="black" stroke-width="4" stroke-miterlimit="10"/>
<path d="M376.1 149C382.6 166.5 384.3 185.7 385.8 204.2C387.3 223.5 387.9 242.8 388.7 262C389.7 287.6 390.9 312.6 380 336.5C372.1 353.7 359.9 369.1 345.1 380.8C330.3 392.5 335.2 388.1 329.7 390.8C327.2 392 309.4 403.9 266.4 406C208.7 408.9 147.4 351.5 149.4 288.1L155.1 178.7C155.4 168.3 159.3 151.5 162.5 142.1C164.1 137.3 169.4 132.6 172.1 128.4C187.5 103.9 212.9 86.7 241 80C286 69.3 336.6 87.5 363.7 125.2C369 132.6 373.1 140.6 376.3 148.9L376.1 149Z" fill="#FF0077"/>
<path d="M280 410L316 353L359.5 367L351 376.5L319 397L280 410Z" fill="white"/>
<path d="M358.2 367.2L292.6 343.7L267.9 403" stroke="black" stroke-width="4" stroke-miterlimit="10"/>
<path d="M290.5 404C303 403.7 298.5 404.7 309.7 400.8C316.3 380.7 322.1 362.6 325 353.5L292.6 342.6L290.5 404Z" fill="black"/>
<path d="M355.9 298.5L300.9 306.1L309.1 271.6L355.9 285.9C357.2 286.3 358.1 287.5 358.2 288.8L358.5 295.4C358.5 296.9 357.5 298.2 355.9 298.4V298.5Z" fill="white" stroke="black" stroke-width="4" stroke-miterlimit="10"/>
<path d="M302.201 306L313.601 304.4L326.301 276.9L309.201 271.7L302.101 301.2L302.201 306Z" fill="black"/>
<path d="M172.4 317L154.5 321C154.5 321 186.6 412 288.1 405.1V379.3L172.4 317Z" fill="white"/>
<path d="M290.4 405L320 232.7C320 232.6 281.7 232.2 281.7 232.2L154.2 318.6" fill="white"/>
<path d="M290.4 405L320 232.7C320 232.6 281.7 232.2 281.7 232.2L154.2 318.6" stroke="black" stroke-width="4" stroke-miterlimit="10"/>
<path d="M316.5 170.5H319C320 170.5 320.8 171.2 320.8 172.2L322 232.9L279.3 232.4L296.8 183.9C299.7 176 307.5 170.7 316.5 170.7V170.5Z" fill="black"/>
<path d="M269 406.1C235.2 406.1 205.4 391.6 182.3 367.2C159.8 343.5 148.2 312.5 149.4 280L153.1 181.9C154.2 153.2 166.7 126.5 188.4 106.7C209.9 87 238.1 76.2 267.8 76.2C297.5 76.2 325.8 87 347.7 106.7C369.7 126.5 382.7 153.2 384.3 181.9L389.7 280C391.5 312.5 380.6 344.6 358.5 368.3C335.8 392.7 306.8 406.1 273 406.1H269Z" stroke="black" stroke-width="4" stroke-miterlimit="10"/>
<path d="M317.1 231.5L225.8 396.6" stroke="black" stroke-width="4" stroke-miterlimit="10"/>
<path d="M305.3 316H270" stroke="black" stroke-width="4" stroke-miterlimit="10"/>
<path d="M196 178.8C193.1 178.8 190.3 179.2 187.7 179.8C179.9 164.4 163.9 153.8 145.4 153.8C119.2 153.8 98 175 98 201.2V208.6H227.2C227.2 191.3 213.2 178.9 195.9 178.9L196 178.8Z" fill="white" stroke="black" stroke-width="4" stroke-miterlimit="10"/>
<path d="M358.8 143.1C360.7 143.1 362.6 143.3 364.4 143.8C369.7 133.3 380.5 126.2 393 126.2C410.7 126.2 425.1 140.6 425.1 158.3V163.3H337.6C337.6 151.6 347.1 143.2 358.8 143.2V143.1Z" fill="white" stroke="black" stroke-width="4" stroke-miterlimit="10"/>
<path d="M240.8 132.5V130.5C240.8 125.1 245.2 120.8 250.5 120.8C255.8 120.8 253 121 254.1 121.5C256.2 116.5 261.1 113.1 266.6 113.1C272.1 113.1 276.6 116.1 278.8 120.8C279.2 120.8 279.5 120.8 279.9 120.8C285.3 120.8 289.6 125.2 289.6 130.5V132.5H240.7H240.8Z" fill="white"/>
<path d="M266.6 115.1C271.8 115.1 276.1 118.5 277.6 123.2C278.3 123 279.1 122.8 279.9 122.8C284.2 122.8 287.6 126.3 287.6 130.5H242.7C242.7 126.2 246.2 122.8 250.4 122.8C254.6 122.8 253.9 123.4 255.2 124.5C256.2 119.2 260.9 115.1 266.5 115.1M266.6 111.1C260.8 111.1 255.7 114.3 253 119.1C252.2 118.9 251.3 118.8 250.4 118.8C243.9 118.8 238.7 124.1 238.7 130.5V134.5H291.6V130.5C291.6 124.1 286.4 118.8 280 118.8C277.3 114.1 272.2 111.1 266.6 111.1Z" fill="black"/>
</svg>
