<svg width="449" height="500" viewBox="0 0 449 500" fill="none" xmlns="http://www.w3.org/2000/svg">
<path d="M361.85 88.72H356.47L354.49 82.72C353.76 80.5 351.69 79 349.35 79H335.99C333.65 79 331.58 80.5 330.85 82.72L328.87 88.72H310.73C306.67 88.72 303.38 92.01 303.38 96.07V128.92H369.19V96.07C369.19 92.01 365.9 88.72 361.84 88.72H361.85Z" fill="black"/>
<path d="M318.68 90.22H310.056C306.529 90.22 303.68 93.1207 303.68 96.6909V129.22H318.68V90.22Z" fill="#FF0077"/>
<path d="M342.67 116.65C346.978 116.65 350.47 113.158 350.47 108.85C350.47 104.542 346.978 101.05 342.67 101.05C338.362 101.05 334.87 104.542 334.87 108.85C334.87 113.158 338.362 116.65 342.67 116.65Z" fill="#FF0077"/>
<path d="M342.669 122.62C350.274 122.62 356.439 116.455 356.439 108.85C356.439 101.245 350.274 95.0801 342.669 95.0801C335.064 95.0801 328.899 101.245 328.899 108.85C328.899 116.455 335.064 122.62 342.669 122.62Z" stroke="white" stroke-width="4" stroke-miterlimit="10"/>
<path d="M347.89 85.88H337.46C336.79 85.88 336.25 85.34 336.25 84.67C336.25 84 336.79 83.46 337.46 83.46H347.89C348.56 83.46 349.1 84 349.1 84.67C349.1 85.34 348.56 85.88 347.89 85.88Z" fill="white"/>
<path d="M200.539 388.5C200.149 388.47 199.769 388.44 199.369 388.44C198.969 388.44 198.589 388.47 198.199 388.5H200.529H200.539Z" fill="#FF0077"/>
<path d="M185.499 398.42C185.009 399.89 184.729 401.45 184.729 403.08C184.729 411.17 191.279 417.72 199.369 417.72C207.459 417.72 214.009 411.17 214.009 403.08C214.009 401.45 213.729 399.89 213.239 398.42H185.499Z" fill="black"/>
<path d="M363.949 396.51H183.359V128.86H363.949C373.739 128.86 381.669 136.93 381.669 146.88V378.49C381.669 388.44 373.739 396.51 363.949 396.51Z" fill="black" stroke="black" stroke-width="4"/>
<path d="M287.87 93.1699H186.37C185.497 93.1699 184.79 93.8773 184.79 94.7499V106.44C184.79 107.313 185.497 108.02 186.37 108.02H287.87C288.743 108.02 289.45 107.313 289.45 106.44V94.7499C289.45 93.8773 288.743 93.1699 287.87 93.1699Z" fill="black"/>
<path d="M329.76 128.86H181.11C169.518 128.86 160.12 138.258 160.12 149.85V375.52C160.12 387.112 169.518 396.51 181.11 396.51H329.76C341.353 396.51 350.75 387.112 350.75 375.52V149.85C350.75 138.258 341.353 128.86 329.76 128.86Z" fill="white" stroke="black" stroke-width="4"/>
<path d="M258.71 184.16L240.83 149.89C239.35 147.08 235.87 146.01 233.07 147.49L216.68 156.13C213.87 157.61 212.8 161.09 214.28 163.89L232.16 198.16C233.64 200.97 237.12 202.04 239.92 200.56L256.31 191.92C259.12 190.44 260.19 186.96 258.71 184.16ZM231.56 166.66C228.3 167.53 224.95 165.59 224.08 162.32C223.21 159.06 225.15 155.71 228.42 154.84C231.69 153.97 235.03 155.91 235.9 159.18C236.77 162.44 234.83 165.79 231.56 166.66Z" fill="black"/>
<path d="M263.74 398.42C263.25 399.89 262.97 401.45 262.97 403.08C262.97 411.17 269.52 417.72 277.61 417.72C285.7 417.72 292.25 411.17 292.25 403.08C292.25 401.45 291.97 399.89 291.48 398.42H263.74Z" fill="black"/>
<path d="M317.91 398.42C317.42 399.89 317.14 401.45 317.14 403.08C317.14 411.17 323.69 417.72 331.78 417.72C339.87 417.72 346.42 411.17 346.42 403.08C346.42 401.45 346.14 399.89 345.65 398.42H317.91Z" fill="black"/>
<path d="M37 419.75H407.74" stroke="black" stroke-width="4" stroke-linecap="round"/>
<path d="M199.37 106.09V399.89" stroke="black" stroke-width="4" stroke-miterlimit="10" stroke-linecap="round"/>
<path d="M277.81 106.09V399.89" stroke="black" stroke-width="4" stroke-miterlimit="10" stroke-linecap="round"/>
<path d="M303.39 125.86H299.39C293.03 125.86 287.87 131.02 287.87 137.38V173.65C287.87 182.27 294.86 189.25 303.47 189.25C312.09 189.25 319.07 182.26 319.07 173.65V90.72H311.47C307.052 90.72 303.47 94.3017 303.47 98.72V127.72" stroke="black" stroke-width="4"/>
<path d="M229.989 129.98V160.55" stroke="black" stroke-width="4" stroke-miterlimit="10" stroke-linecap="round"/>
<path d="M144.589 362.941C187.065 362.941 221.498 328.508 221.498 286.032C221.498 243.556 187.065 209.123 144.589 209.123C102.113 209.123 67.6797 243.556 67.6797 286.032C67.6797 328.508 102.113 362.941 144.589 362.941Z" fill="#FF0077" stroke="black" stroke-width="4" stroke-miterlimit="10" stroke-linecap="round"/>
<path d="M86.8613 234.997C109.06 212.799 151.415 219.141 181.448 249.174C211.481 279.207 217.834 321.551 195.625 343.76" fill="#FF0077"/>
<path d="M86.8613 234.997C109.06 212.799 151.415 219.141 181.448 249.174C211.481 279.207 217.834 321.551 195.625 343.76" stroke="black" stroke-width="4" stroke-miterlimit="10" stroke-linecap="round"/>
<path d="M198.971 340.425C176.773 362.623 134.417 356.281 104.384 326.248C74.3513 296.215 67.998 253.87 90.2072 231.661" fill="#FF0077"/>
<path d="M198.971 340.425C176.773 362.623 134.417 356.281 104.384 326.248C74.3513 296.215 67.998 253.87 90.2072 231.661" stroke="black" stroke-width="4" stroke-miterlimit="10" stroke-linecap="round"/>
<path d="M70.2695 343.497L78.6967 351.924C115.094 388.321 174.095 388.321 210.492 351.924C246.89 315.527 246.89 256.526 210.492 220.129L199.234 208.87" stroke="black" stroke-width="4" stroke-miterlimit="10" stroke-linecap="round"/>
<path d="M90.207 231.65L198.971 340.425" stroke="black" stroke-width="4" stroke-miterlimit="10" stroke-linecap="round"/>
<path d="M72.0254 358.596L217.153 213.479" stroke="black" stroke-width="4" stroke-miterlimit="10" stroke-linecap="round"/>
<path d="M177.837 421.35H112.131L116.729 407.546C117.431 406.185 118.835 405.329 120.372 405.329H169.936C171.516 405.329 172.954 406.229 173.634 407.656L177.848 421.35H177.837Z" fill="black"/>
<path d="M144.984 379.225V411.211" stroke="black" stroke-width="4" stroke-miterlimit="10"/>
<path d="M94.02 266.04C92.52 266.04 91.07 266.22 89.69 266.56C85.63 258.52 77.29 253 67.67 253C54.05 253 43 264.04 43 277.67V281.51H110.3C110.3 272.52 103.01 266.04 94.02 266.04Z" fill="white" stroke="black" stroke-width="4" stroke-miterlimit="10"/>
<path d="M117.001 182C120.83 182 124.258 183.975 126.008 187.008C126.174 186.997 126.342 186.992 126.511 186.992C130.472 186.992 134 189.959 134 194V196H98V194C98 189.959 101.528 186.992 105.489 186.992C106.299 186.992 107.079 187.115 107.811 187.339C109.495 184.12 113.044 182 117.001 182Z" fill="white" stroke="black" stroke-width="4" stroke-miterlimit="10"/>
</svg>
