<svg width="500" height="500" viewBox="0 0 500 500" fill="none" xmlns="http://www.w3.org/2000/svg">
<path d="M276.599 157.4H372.299C376.699 157.4 379.899 161.5 378.999 165.7L348.899 301.8C347.699 307.2 342.899 311.1 337.299 311.1H231.899L276.699 157.4H276.599Z" fill="black"/>
<path d="M336.9 311.1L370.9 157.4H266.8L235.2 300.6" fill="black"/>
<path d="M141.799 416.7V399.4C141.899 399.4 191.799 397.6 191.799 397.6L192.099 425.6H123.399V424.7L141.799 416.7Z" fill="black" stroke="black" stroke-width="4"/>
<path d="M205.499 248.9C196.299 246.7 187.799 243.8 182.899 237.4C177.899 231.1 175.799 220.8 181.199 202.8C185.999 186.7 191.599 171.8 196.399 160C202.599 144.9 214.199 132.5 228.899 125.4L263.699 108.5L304.099 128.4C320.199 136.3 332.399 150.4 337.999 167.5C344.399 187 352.299 211.2 355.199 219.4C357.599 226.4 357.699 231.7 356.199 236.1C354.599 240.5 351.099 244.2 345.599 247.6C343.099 249.1 339.699 250 335.799 250.5C331.899 251 327.799 251 323.799 250.7C319.899 250.5 316.399 250 313.799 249.7C312.499 249.5 205.499 249 205.499 249V248.9Z" fill="#FF0077" stroke="black" stroke-width="4"/>
<path d="M263.8 108.4L276.9 114.9C276.5 119.7 275.7 125.1 273.6 129.4C271.4 134 268.1 137 262.7 137C257.3 137 253.3 135.1 251 131.9C248.6 128.6 247.1 123.9 245.7 117.3L263.8 108.5V108.4Z" fill="black"/>
<path d="M275.799 172.7C273.799 167 274.299 166 276.099 165C277.899 164 280.199 166.9 280.499 169.5C280.699 172 275.799 172.8 275.799 172.8V172.7Z" fill="black"/>
<path d="M248.7 66.8C244.2 59.5 234.6 57.2 227.3 61.7C221.1 65.4 218.2 72.8 220.3 79.7L225 108.4L228.7 107.1L231.7 116.8C233 121.3 238.2 123.2 242.2 120.7L254.2 112.8L276.8 113L248.6 66.9L248.7 66.8Z" fill="black"/>
<path d="M297 157.8L297.8 157.4L333.9 147.8C335.2 147.5 336.2 146.4 336.5 145.1L337.1 142L323.3 136.9L299.8 149.5L297 157.9V157.8Z" fill="black"/>
<path d="M295.999 154.3L303.499 151.7L333.599 141.1L324.599 130.9L298.699 147.3L295.899 154.2L295.999 154.3Z" fill="white" stroke="black" stroke-width="4"/>
<path d="M254.699 210.4C254.399 210.1 254.199 209.8 253.899 209.6C254.199 209.8 254.399 210.2 254.699 210.4Z" fill="#FF0077"/>
<path d="M249.8 206.8C250.1 207 250.5 207.2 250.8 207.3C250.5 207.1 250.2 206.9 249.8 206.8Z" fill="#FF0077"/>
<path d="M249.999 205.8C237.799 199.4 224.999 206.3 216.499 218.4C207.399 231.4 208.599 247.9 219.199 255.2C229.699 262.5 245.599 257.9 254.699 244.9C261.499 235.1 265.099 219.3 254.699 208.8" fill="white"/>
<path d="M249.999 205.8C237.799 199.4 224.999 206.3 216.499 218.4C207.399 231.4 208.599 247.9 219.199 255.2C229.699 262.5 245.599 257.9 254.699 244.9C261.499 235.1 265.099 219.3 254.699 208.8" stroke="black" stroke-width="4"/>
<path d="M249.2 220.5L298.3 157.3L297.2 146L240.7 214L249.3 220.5H249.2Z" fill="black"/>
<path d="M272.9 212.5L253.5 197.7C253.5 197.7 252.2 195.9 253.5 194.3L254.8 192.7C254.8 192.7 253.3 190.8 253.8 188.4C254.4 186.1 255.4 185.3 255.4 185.3C255.4 185.3 254.6 183.7 256.5 181.4C258.4 179.1 260 179.5 260 179.5C260 179.5 259 176.5 261.5 175.3C263.5 174.3 266.9 173.3 268.3 172.9C268.8 172.8 269.3 172.9 269.7 173C270.6 173.4 271 174.5 270.7 175.5L270 177.5C270 177.5 271.8 179.3 275.9 179.6C280 179.9 284.3 174.5 284.3 174.5L295.1 181.6" fill="black"/>
<path d="M227.3 231.1C219.7 223 215.9 218.3 212.2 217.1C208.5 215.9 206.9 220.1 207.4 222C207 222 203.5 222.7 202.4 224.8C201.3 226.9 202 229.9 202 229.9C202 229.9 199.2 230.3 197.9 233.9C196.9 236.7 198.7 239.2 198.7 239.2C198.7 239.2 195.7 239.7 195.6 242.6C195.6 245.1 196.6 247.5 201.9 250.1C208.3 253.2 219.7 246 219.7 246L226.9 232.7L227.3 231.1Z" fill="black"/>
<path d="M163.9 247.9C150.3 247.9 139.2 259 139.2 272.6L139.8 399.4L187.3 399L192.9 303.8C192.9 303.8 203.1 303.6 217.1 303.4L223.9 247.8H163.9V247.9Z" fill="black"/>
<path d="M217 303.5C245.6 303.1 290.1 302.8 295.3 303.6C288.9 299.8 223.8 247.9 223.8 247.9L217 303.5Z" fill="black"/>
<path d="M295.899 303.8C295.899 303.8 295.699 303.7 295.399 303.6C295.799 303.8 295.899 303.8 295.899 303.8Z" fill="black"/>
<path d="M159.3 360.3L218.7 239.4C224.1 228.3 237 223 248.6 226.9L328.5 254L320.3 289.5C317.6 301.2 305.4 308 294 304L251 289L249.1 288.3L248.1 290.1L201.5 373.9L159.2 360.3H159.3Z" fill="black"/>
<path d="M153.6 359.4L151.5 358.7L150.6 360.6L143 376.6L125.7 384.3L124.3 384.9V393.7H188.6L189.3 392.4L199.2 373.7L153.5 359.3L153.6 359.4Z" fill="white" stroke="black" stroke-width="4"/>
<path d="M224 391.9H158.8C156.8 391.9 155.2 393.3 155.2 395V425.3C155.2 427 156.8 428.4 158.8 428.4H224C226 428.4 227.6 427 227.6 425.3V395C227.6 393.3 226 391.9 224 391.9Z" fill="black"/>
<path d="M251.2 79C249.3 74.9 251.7 71.4 255 71.9C257.3 72.2 259.7 75.3 259.7 78.7C259.7 82.1 257.8 84.1 255.5 84.1C253.2 84.1 252.2 81.1 251.3 79.1L251.2 79Z" fill="black"/>
<path d="M273.1 210C308.8 240.2 320.5 255.6 344.1 248.4" stroke="black" stroke-width="4"/>
<path d="M60.7998 429.3H410.9" stroke="black" stroke-width="4" stroke-linecap="round"/>
<path d="M316.899 303.9L338.699 428" stroke="black" stroke-width="4" stroke-miterlimit="10"/>
<path d="M283.5 303.9L305.4 428" stroke="black" stroke-width="4" stroke-miterlimit="10"/>
<path d="M233.199 303.9L211.399 428" stroke="black" stroke-width="4" stroke-miterlimit="10"/>
<path d="M215.4 217.8L211.2 171.5" stroke="black" stroke-width="4" stroke-miterlimit="10" stroke-linecap="round"/>
<path d="M316.3 198L313.3 159.1" stroke="black" stroke-width="4" stroke-miterlimit="10" stroke-linecap="round"/>
<path d="M290.7 180.6L330 207.5" stroke="black" stroke-width="4" stroke-linecap="round"/>
<path d="M153.6 363.9L197.7 264.2" stroke="white" stroke-width="4" stroke-miterlimit="10" stroke-linecap="round"/>
</svg>
