<svg width="566" height="500" viewBox="0 0 566 500" fill="none" xmlns="http://www.w3.org/2000/svg">
<path d="M110 437C110 385.089 144.477 343 187 343C229.523 343 264 385.089 264 437" stroke="black" stroke-width="4" stroke-miterlimit="10" stroke-linecap="round"/>
<path d="M286 310.762L359.298 289.715C369.318 286.84 380.051 290.712 385.89 299.326C402.335 323.556 445.999 394.994 456.221 411.766C457.636 414.09 459.678 415.967 462.124 417.198L495.705 434.066C497.907 435.169 497.13 438.479 494.662 438.5L442.053 438.776C438.926 438.797 436.532 436.018 437.022 432.941L439.521 417.134C439.925 415.893 439.542 414.535 438.532 413.697C429.108 405.857 383.104 367.359 377.019 358.045C370.818 348.571 369.201 336.106 367.563 330.282C366.787 327.503 363.34 326.516 361.213 328.479C361.213 328.479 327.781 359.031 312.305 367.72" fill="white"/>
<path d="M286 310.762L359.298 289.715C369.318 286.84 380.051 290.712 385.89 299.326C402.335 323.556 445.999 394.994 456.221 411.766C457.636 414.09 459.678 415.967 462.124 417.198L495.705 434.066C497.907 435.169 497.13 438.479 494.662 438.5L442.053 438.776C438.926 438.797 436.532 436.018 437.022 432.941L439.521 417.134C439.925 415.893 439.542 414.535 438.532 413.697C429.108 405.857 383.104 367.359 377.019 358.045C370.818 348.571 369.201 336.106 367.563 330.282C366.787 327.503 363.34 326.516 361.213 328.479C361.213 328.479 327.781 359.031 312.305 367.72" stroke="black" stroke-width="4" stroke-miterlimit="10" stroke-linecap="round"/>
<path d="M163.5 346L66.1704 175.591C50.4413 147.885 58.5399 120.179 80.9097 109.646C103.279 99.1141 131.46 109.742 147.178 137.449L243 306.276" stroke="black" stroke-width="4"/>
<path d="M142.011 263.649L145.698 190.682C143.134 174.122 152.744 158.092 168.552 152.586C187.762 145.903 208.561 157.127 213.531 176.87L229 256.467L142 263.649H142.011Z" fill="black"/>
<path d="M226.551 272.192L198.969 286.398L231.765 350.076L259.347 335.87L226.551 272.192Z" fill="white" stroke="black" stroke-width="4" stroke-miterlimit="10" stroke-linecap="round"/>
<path d="M299.618 297.143L363.611 255.534C372.361 249.845 383.747 250.453 391.838 257.039C414.611 275.592 477.147 331.654 491.808 344.826C493.839 346.651 496.348 347.868 499.038 348.338L536.057 354.796C538.481 355.223 538.705 358.639 536.344 359.365L486.099 374.949C483.111 375.878 480.018 373.892 479.592 370.786L477.381 354.839C477.402 353.526 476.647 352.33 475.435 351.818C464.144 347.014 408.945 323.338 400.407 316.144C393.348 310.198 384.47 296.994 381.387 292.244C380.855 291.422 379.665 291.422 379.123 292.244C373.902 300.185 352.086 333.031 341.316 344.314C326.389 359.962 322.5 367.5 290.5 378.5L277.5 381.5C277.5 381.5 257.092 352.896 266.894 332.252C276.697 311.607 299.608 297.133 299.608 297.133" fill="white"/>
<path d="M299.618 297.143L363.611 255.534C372.361 249.845 383.747 250.453 391.838 257.039C414.611 275.592 477.147 331.654 491.808 344.826C493.839 346.651 496.348 347.868 499.038 348.338L536.057 354.796C538.481 355.223 538.705 358.639 536.344 359.365L486.099 374.949C483.111 375.878 480.018 373.892 479.592 370.786L477.381 354.839C477.402 353.526 476.647 352.33 475.435 351.818C464.144 347.014 408.945 323.338 400.407 316.144C393.348 310.198 384.47 296.994 381.387 292.244C380.855 291.422 379.665 291.422 379.123 292.244C373.902 300.185 352.086 333.031 341.316 344.314C326.389 359.962 322.5 367.5 290.5 378.5L277.5 381.5C277.5 381.5 257.092 352.896 266.894 332.252C276.697 311.607 299.608 297.133 299.608 297.133" stroke="black" stroke-width="4" stroke-miterlimit="10" stroke-linecap="round"/>
<path d="M280 311L259.965 324.058C256.601 326.407 252.624 327.704 248.53 327.789L237.91 328.022L237.095 322.772C236.101 316.309 236.682 309.708 238.788 303.521C241.104 296.75 240.967 289.374 238.417 282.698L227.141 253.988C222.751 240.85 194.836 238.649 194.836 238.649L154 246.5C146.583 249.988 145 252.5 138 257C131 261.5 167.45 340.204 165.715 342.107C167.45 344.137 167.291 345.295 173.141 351.184C189.642 367.766 212.057 384.944 261.615 383.572C274.88 383.211 279.703 381.521 286.727 379.756C286.727 379.756 255.073 332.219 294 301L280 311Z" fill="#FF0077" stroke="black" stroke-width="4" stroke-miterlimit="10"/>
<path d="M165.5 204.649C186.211 204.649 203 187.86 203 167.149C203 146.439 186.211 129.649 165.5 129.649C144.789 129.649 128 146.439 128 167.149C128 187.86 144.789 204.649 165.5 204.649Z" fill="black"/>
<path d="M197.492 214.205C229.954 192.62 246.725 160.766 234.949 143.056C223.174 125.346 187.312 128.487 154.849 150.071C122.386 171.655 105.616 203.51 117.392 221.22C129.167 238.93 165.029 235.789 197.492 214.205Z" fill="black"/>
<path d="M197 222.649L195.955 210.907L176 209.649" fill="black"/>
<path d="M205.312 175.892C201.958 164.476 189.985 157.94 178.569 161.293C167.152 164.647 160.616 176.62 163.97 188.037L169.595 207.188C172.949 218.605 184.922 225.141 196.339 221.787C207.755 218.434 214.291 206.461 210.938 195.044L205.312 175.892Z" fill="white"/>
<path d="M192.274 154.649L157.391 167.113C157.391 167.113 155.025 197.666 161.928 196.623C184.238 193.231 196.156 174.982 192.274 154.66V154.649Z" fill="black"/>
<path d="M211.529 244.487L207.699 242.689C201.932 239.988 199.347 237.588 198.368 231.227L197.049 222.649L154 250.051C154.138 250.212 154.287 248.232 154.436 248.404C171.311 266.701 209.38 286.472 217.094 265.894C220.892 255.766 211.519 244.476 211.519 244.476L211.529 244.487Z" fill="white"/>
<path d="M263 244C269.075 244 274 238.851 274 232.5C274 226.149 269.075 221 263 221C256.925 221 252 226.149 252 232.5C252 238.851 256.925 244 263 244Z" fill="white" stroke="black" stroke-width="4" stroke-miterlimit="10"/>
<path d="M265.87 231H228.128C227.132 231 226.622 232.169 227.329 232.855L244.825 249.826V285.891C244.825 287.06 245.794 288 246.999 288C248.203 288 249.173 287.06 249.173 285.891V249.826L266.668 232.855C267.376 232.169 266.878 231 265.87 231Z" fill="black"/>
<path d="M141.041 250.603C146.932 248.268 156.172 252.62 160.138 265.303C170.74 299.181 176.397 313.233 185.626 323.082L236.444 260.622C237.315 259.508 248.215 255.252 248.215 255.252C250.395 254.084 253.032 255.676 253 258.149L252.83 271.374C252.819 272.467 252.245 273.486 251.309 274.069L244.163 280.002C241.356 282.337 238.921 285.065 236.922 288.121C229.776 299.032 211.795 326.68 202.768 341.868C199.577 347.228 196.568 351.685 193.421 355.198C189.327 359.762 182.319 360.25 177.481 356.482C162.733 344.978 140.073 317.881 135.139 281.966C132.204 260.548 135.214 252.906 141.041 250.592V250.603Z" fill="white" stroke="black" stroke-width="4" stroke-miterlimit="10" stroke-linecap="round"/>
<path d="M154 247.802C154 247.802 185.496 281.602 209.788 273.352C228.61 266.973 209.186 241.649 209.186 241.649" stroke="black" stroke-width="4" stroke-miterlimit="10" stroke-linecap="round"/>
<path d="M192.219 195.266C196.812 193.675 198.843 187.498 196.755 181.468C194.667 175.439 189.251 171.84 184.658 173.431C180.065 175.021 178.034 181.198 180.122 187.228C182.21 193.257 187.626 196.856 192.219 195.266Z" fill="black" stroke="black" stroke-width="4"/>
<path d="M186 176.649L183 184.649" stroke="white" stroke-width="4" stroke-linecap="round"/>
<path d="M210.838 186.085C213.834 185.048 214.871 180.192 213.156 175.238C211.441 170.285 207.622 167.11 204.627 168.147C201.631 169.184 200.594 174.041 202.309 178.994C204.024 183.948 207.843 187.122 210.838 186.085Z" fill="black" stroke="black" stroke-width="4"/>
<path d="M205.513 170.762L204.067 174.918" stroke="white" stroke-width="4" stroke-linecap="round"/>
<path d="M236.5 260.5L245 253" stroke="black" stroke-width="4" stroke-miterlimit="10" stroke-linecap="round"/>
<path d="M173 436.649C173 384.738 215.089 342.649 267 342.649C318.911 342.649 361 384.738 361 436.649" stroke="black" stroke-width="4" stroke-miterlimit="10" stroke-linecap="round"/>
<path d="M69 438.649H513" stroke="black" stroke-width="4" stroke-linecap="round"/>
<path d="M467.215 182.165C467.215 175.799 461.92 170.647 455.379 170.647C454.119 170.647 452.909 170.838 451.771 171.194C449.497 164.222 442.796 159.165 434.873 159.165C426.216 159.165 419.014 165.209 417.461 173.193C415.431 171.611 412.863 170.647 410.051 170.647C403.509 170.647 398.215 175.799 398.215 182.165H467.215Z" fill="white" stroke="black" stroke-width="4" stroke-miterlimit="10"/>
<path d="M378.715 142.165C401.635 142.165 420.215 123.585 420.215 100.665C420.215 77.7452 401.635 59.165 378.715 59.165C355.795 59.165 337.215 77.7452 337.215 100.665C337.215 123.585 355.795 142.165 378.715 142.165Z" fill="#FF0077" stroke="black" stroke-width="4"/>
<path d="M377.379 132.173C375.551 132.173 373.785 132.394 372.103 132.812C367.156 122.942 356.995 116.165 345.273 116.165C328.678 116.165 315.215 129.718 315.215 146.451V151.165H397.215C397.215 140.128 388.333 132.173 377.379 132.173Z" fill="white" stroke="black" stroke-width="4" stroke-miterlimit="10"/>
</svg>
