<svg width="650" height="500" viewBox="0 0 650 500" fill="none" xmlns="http://www.w3.org/2000/svg">
<g clip-path="url(#clip0_6341_226)">
<path d="M377.14 105.23L435.41 86.54C448.15 84.47 448.65 96.38 453.86 108.19L468.49 141.35C469.7 144.1 470.23 147.1 470.03 150.1L464.94 226.45C464.52 232.68 462.61 238.73 459.36 244.06L450.24 259.05" fill="white"/>
<path d="M377.14 105.23L435.41 86.54C448.15 84.47 448.65 96.38 453.86 108.19L468.49 141.35C469.7 144.1 470.23 147.1 470.03 150.1L464.94 226.45C464.52 232.68 462.61 238.73 459.36 244.06L450.24 259.05" stroke="black" stroke-width="4"/>
<path d="M447.274 114.484C452.596 112.223 454.255 104.139 450.978 96.4275C447.702 88.7165 440.732 84.2986 435.41 86.5599C430.088 88.8211 428.429 96.9052 431.706 104.616C434.982 112.327 441.952 116.745 447.274 114.484Z" fill="white" stroke="black" stroke-width="4"/>
<path d="M444.291 107.461C446.294 106.611 446.597 102.814 444.969 98.9811C443.34 95.1485 440.397 92.7314 438.394 93.5823C436.391 94.4332 436.088 98.23 437.716 102.063C439.345 105.895 442.288 108.312 444.291 107.461Z" fill="white" stroke="black" stroke-width="4"/>
<path d="M447.28 114.46L404.88 126.99" stroke="black" stroke-width="4"/>
<path d="M465.53 217.63L464.58 235.19C464.19 242.36 467.26 249.28 472.84 253.8L487.16 265.4" stroke="black" stroke-width="4" stroke-linecap="round"/>
<path d="M364.603 153.13C371.579 150.314 374.388 140.982 370.878 132.286C367.368 123.59 358.868 118.823 351.893 121.638C344.917 124.453 342.108 133.785 345.618 142.482C349.128 151.178 357.628 155.945 364.603 153.13Z" fill="white"/>
<path d="M501.71 181.94C487.83 179.54 478.03 180.02 473.44 180.52C479.06 171.33 475.21 158.08 464.4 150.31C453.17 142.24 438.7 143.16 432.09 152.37C432.09 152.38 432.08 152.39 432.07 152.4C435.34 133.25 419.7 108.22 400.63 104.78C373.24 99.83 356.4 113.59 352.81 132.85C349.22 152.11 371.54 177.66 390.74 181.24C406.6 184.2 421.95 176.03 428.84 162.25C428.62 169.87 432.79 178.14 440.46 183.64C450.43 190.8 462.94 190.86 470.25 184.35L469.81 190.55C472.07 202.12 477.2 212.28 482.09 218.84C486.97 225.4 491.35 227.56 498.31 220.65C505.27 213.75 511.64 203.71 511.87 194.86C512.11 186.01 509.4 183.27 501.71 181.94Z" fill="black"/>
<path d="M475.73 172.5C479.78 172.46 482.79 179.82 475.73 187.02C468.67 194.22 458.96 193.51 461.31 188.7C463.66 183.89 472.5 175 472.5 175L475.73 172.5Z" fill="white" stroke="black" stroke-width="4"/>
<path d="M506.18 414.49V344.98C506.18 318.66 499.8 292.74 479.65 275.81L459.55 257.53L373.89 266.3L315.51 414.49H404.55L423.34 365.57L429.56 414.49H506.19H506.18Z" fill="black"/>
<path d="M363 298.88C439.09 301.97 467.87 268.28 467.87 268.28C467.87 268.28 457.77 259.79 451.56 246.56C440.59 223.21 450.14 229.59 444.69 223.06L373.56 270.14L363 298.88Z" fill="#FF0077" stroke="black" stroke-width="4"/>
<path d="M338.42 116.08C328.36 109.64 308.15 99.08 305.97 74.4C304.96 62.96 310.32 57.21 314.83 55.17C320.63 52.55 330.93 53.96 338.84 63.33C344.39 69.92 353.56 72.14 367.75 72.47C397.07 73.15 396.4 104.77 386.21 121.38C383.15 126.37 374.86 129.96 365.77 131.26C343.05 134.53 338.42 116.08 338.42 116.08Z" fill="black"/>
<path d="M290.01 200.85L280.64 148.04H250.06L257.25 222.97C261.51 272.57 291.03 271.26 291.03 271.26C322.74 273 329.37 232.3 329.37 232.3C329.37 232.3 349.2 265.15 366.99 279.63C432.3 332.76 452.84 222.77 455.84 175.89C456.58 164.33 454.29 155.8 446.95 146.84C434.31 131.4 411.74 128.03 380.29 135.7L369.66 141.63L350.03 147.66C330.41 137.19 307.42 148.34 299.52 172.17L290.01 200.85Z" fill="#FF0077" stroke="black" stroke-width="4"/>
<path d="M347.26 143.95L343.6 140.63C340.08 137.44 339.67 132.06 342.67 128.37L354.75 113.53L361.99 114.56L379.79 135.89C379.74 155.87 380.72 166.39 370.15 169.32C353.88 173.84 352.81 159.91 352.43 154.04V145L347.27 143.95H347.26Z" fill="white" stroke="black" stroke-width="4"/>
<path d="M380.83 136.24L375.92 99.5L358.33 95.31C348.6 92.99 339.06 99.79 338.07 109.75L336.22 128.39C335.42 136.45 341.22 143.67 349.26 144.63L358.48 145.72" fill="white"/>
<path d="M380.83 136.24L375.92 99.5L358.33 95.31C348.6 92.99 339.06 99.79 338.07 109.75L336.22 128.39C335.42 136.45 341.22 143.67 349.26 144.63L358.48 145.72" stroke="black" stroke-width="4" stroke-miterlimit="10" stroke-linecap="round"/>
<path d="M390.29 130.36C393.94 129.69 397.44 132.11 398.11 135.76C401.68 155.34 408.33 173.29 417.27 188.65L411.7 204.92C398.7 186.03 389.51 163.49 384.89 138.18C384.22 134.53 386.64 131.03 390.29 130.36Z" fill="black"/>
<path d="M348.192 197.12C344.392 180.23 341.382 158.56 342.172 143.14C342.212 142.4 339.69 143.82 339.5 143.14C338.96 143.2 332 142.45 332 142.45C331.89 142.88 328.772 141.99 328.752 142.45C328.162 153.85 328.622 164.91 330.002 175.56C336.132 182.69 342.112 189.95 348.192 197.12Z" fill="black"/>
<path d="M135.611 109.64L132.181 85.24C131.581 80.95 127.001 78.47 123.081 80.3C120.621 81.45 119.141 84.03 119.401 86.73L120.101 94.25L135.611 109.64Z" fill="black" stroke="black" stroke-width="4" stroke-linejoin="round"/>
<path d="M135.61 109.64L117.79 85.19C114.66 80.89 108.27 80.85 105.08 85.1C103.08 87.77 102.97 91.41 104.81 94.2L109.92 101.93L135.61 109.64Z" fill="#FF0077" stroke="black" stroke-width="4" stroke-linejoin="round"/>
<path d="M135.611 109.64L126.041 118.18C120.221 123.27 111.131 121.28 107.971 114.22C106.111 110.06 106.881 105.23 109.881 101.87L135.611 109.63V109.64Z" fill="#FF0077" stroke="black" stroke-width="4" stroke-linejoin="round"/>
<path d="M250.401 93.47C250.261 91.66 248.751 90.25 246.931 90.25C245.111 90.25 243.621 91.63 243.461 93.43L242.871 100.38C242.231 99.56 241.241 99.03 240.121 99.03C238.311 99.03 236.811 100.41 236.651 102.21L235.461 116.16C235.291 118.19 236.891 119.93 238.931 119.93H241.171C243.191 119.93 244.791 118.21 244.641 116.19L244.231 110.8C244.681 111.02 245.191 111.15 245.731 111.15H247.971C249.991 111.15 251.591 109.43 251.441 107.41L250.391 93.46L250.401 93.47Z" fill="white" stroke="black" stroke-width="4"/>
<path d="M292.25 105.32H233.64C231.72 105.32 230.13 106.83 230.04 108.74L227.74 153.4C227.62 155.68 229.44 157.6 231.73 157.6H301.23L298.52 111.24C298.33 107.92 295.58 105.32 292.25 105.32Z" fill="white" stroke="black" stroke-width="4"/>
<path d="M250.81 116.84L186.32 95.83V167.09L250.45 147.84C257.32 145.78 262.02 139.46 262.02 132.29C262.02 125.26 257.5 119.03 250.81 116.85V116.84Z" fill="black"/>
<path d="M184.89 97.37C176.85 97.37 170.07 113.37 170.07 131.46C170.07 149.55 176.86 165.6 184.89 165.6C192.92 165.6 199.71 149.55 199.71 131.46C199.71 113.37 192.92 97.37 184.89 97.37Z" fill="white" stroke="black" stroke-width="4"/>
<path d="M184.9 104.48C179.11 104.48 174.23 117.02 174.23 131.87C174.23 146.72 179.12 159.26 184.9 159.26C190.68 159.26 195.57 146.72 195.57 131.87C195.57 117.02 190.68 104.48 184.9 104.48Z" fill="black"/>
<path d="M264.681 100.7H242.951L241.741 105.32H265.891L264.681 100.7Z" fill="black"/>
<path d="M301.181 160.44V157.6H301.231L298.521 111.24C298.331 107.92 295.581 105.32 292.251 105.32H289.261L288.461 100.71H276.271L275.871 105.32H278.231V157.6H233.801" fill="black"/>
<path d="M296.83 414.93H522.72" stroke="black" stroke-width="4" stroke-linecap="round"/>
<path d="M290.02 200.85L295.85 231.37" stroke="black" stroke-width="4" stroke-linecap="round"/>
<path d="M388.68 102.87L353.99 79.5L331.81 87.88C337.39 100.22 347.7 106.77 355.51 110.12C359.43 123.79 378.87 140.5 378.87 140.5C382.87 139.06 387.58 138.47 390.49 112.19L388.67 102.87H388.68Z" fill="black"/>
<path d="M351.31 159.9L359.73 147.25L349.18 144.71L351.31 159.9Z" fill="black"/>
<path d="M372.54 117.89C376.02 115.23 377.85 108.4 374.96 105.97C372.75 104.11 369.01 103.74 366.99 109.02" fill="white"/>
<path d="M335.85 182.24L395.46 245.08L423.85 172.96" stroke="black" stroke-width="4" stroke-linecap="round"/>
<path d="M311.76 197.26L331.81 236.18" stroke="black" stroke-width="4"/>
<path d="M301.23 137.91C301.23 137.91 304.63 139.05 305.22 140.75L311.76 155.8L338.5 185.17L311.76 197.26L298.59 172.35C297.48 170.24 295.47 168.76 293.13 168.31L265.87 163.13C264.37 162.67 263.27 161.38 263.05 159.83L262.8 157.98H296.77C299.79 157.98 302.2 155.44 302.03 152.42L301.23 137.92V137.91Z" fill="white" stroke="black" stroke-width="4"/>
<path d="M395.46 245.08L406.58 256.51" stroke="black" stroke-width="4" stroke-linecap="round"/>
</g>
<defs>
<clipPath id="clip0_6341_226">
<rect width="423.22" height="362.93" fill="white" transform="translate(101.5 54)"/>
</clipPath>
</defs>
</svg>
