<svg width="500" height="500" viewBox="0 0 500 500" fill="none" xmlns="http://www.w3.org/2000/svg">
<path d="M159.94 149.63C138.38 143.6 125.44 131.24 121.76 105.81C118.11 80.4 148.87 86.53 148.87 86.53C148.87 86.53 145.57 73.89 149.6 64.34C153.55 54.99 168.31 54.75 177.04 41.7C188.34 24.89 201.27 19.27 213.33 31.84C229.59 48.77 214.95 67.9 214.95 67.9C214.95 67.9 222.45 62.33 233.45 64.97C245.16 67.78 250.9 75.93 251.08 85.49C251.34 98.12 242.01 105.24 233.9 106.72C233.9 106.72 234.92 111.08 231.11 117.05C228.29 121.47 216.9 128.53 203.7 125.4C190.51 122.26 159.91 149.62 159.91 149.62L159.94 149.64V149.63Z" fill="black"/>
<path d="M371 356.1C371 356.1 345.11 353.87 345.27 355.36L349.54 372.48C349.74 374.4 373.12 356.28 371 356.1Z" fill="black"/>
<path d="M346.18 355.36C331.87 349.79 265.37 342.07 236.46 381.44C223.83 398.64 213.75 474.79 213.75 474.79H276.4C277.61 467.92 278.65 459.46 281.56 433.52C281.71 432.18 283.66 432.2 283.78 433.54C285.45 451.96 287.99 474.79 287.99 474.79H354.31C354.43 474.79 358.41 474.64 358.32 474.56C358.32 474.56 354.43 358.55 346.17 355.35L346.18 355.36Z" fill="black"/>
<path d="M271.31 159.02L305.78 282.05L209.91 256.97L261.82 162.92L271.31 159.02Z" fill="black"/>
<path d="M294.54 202.06C294.54 202.06 302.12 235.62 303.38 235.59C304.64 235.56 350.15 238.01 355.58 200.84C361.01 163.67 355.87 144.74 345.61 128.86C337.48 116.28 294.54 202.05 294.54 202.05V202.06Z" fill="black"/>
<path d="M337.86 229.62C337.86 229.62 369.2 230.25 366.95 195.97C364.01 151.2 341.33 122.54 341.33 122.54C341.33 122.54 361.1 157.18 358.76 192.66C356.42 228.14 337.86 229.62 337.86 229.62Z" fill="black"/>
<path d="M315.86 214.34L316.45 223C316.45 223 315.34 232.6 308.51 237.3C296.52 238.78 287.89 245.14 279.02 236.27C272.72 228.38 275.5 210.51 275.5 210.51L274.06 172.54L292.86 204.95L315.85 214.33L315.86 214.34Z" fill="white"/>
<path d="M296.99 387.28C276.2 387.28 251.49 383.99 251.24 383.96L249.51 383.73V346.65L343.68 348.21L350.26 383.57L348.3 383.94C347.6 384.07 330.77 387.17 297.64 387.28H296.99Z" fill="white"/>
<path d="M251.51 348.68L342.02 350.18L347.93 381.97C347.93 381.97 330.96 385.16 297.64 385.27C297.43 385.27 297.21 385.27 297 385.27C276.1 385.27 251.52 381.97 251.52 381.97V348.68M247.51 344.62V385.48L250.98 385.95C251.99 386.09 276.07 389.29 296.99 389.29H297.65C330.95 389.18 347.96 386.05 348.67 385.92L352.59 385.18L351.86 381.26L345.95 349.47L345.35 346.26L342.08 346.21L251.57 344.71L247.5 344.64L247.51 344.62Z" fill="black"/>
<path d="M417 357C409.5 353.97 388.51 333.57 370.83 316.09C365.15 310.47 359.28 304.67 353.86 299.43C353.48 299.06 352.98 298.87 352.47 298.87C352.1 298.87 351.73 298.97 351.4 299.18C350.62 299.67 350.28 300.63 350.57 301.51L368.29 354.29C357.57 355.04 315.32 357.8 278.77 357.8C252.93 357.8 235.36 356.46 226.49 353.8C221.54 325.67 222.61 273.49 223.91 260.23C224.02 259.1 223.92 257.3 223.78 254.81C223.14 243.25 214.709 217.58 231.499 213.01C234.089 212.97 261.34 214.25 273.61 213.01C274.75 228.04 283.99 237.59 292.96 239.34C294.75 239.69 296.5 239.87 298.16 239.87C309.52 239.87 317.27 231.45 318.33 218.23L334.46 220.4C339.16 221.03 343.56 223.26 346.85 226.67L347.34 227.18C353.65 233.73 358.17 238.41 358.81 239C360.26 240.27 361.68 241.52 363.11 242.79C377.62 255.63 392.6 268.88 412.33 272.34C410.35 282.04 409.06 303.29 416.26 313.01C418.09 315.49 420.34 317.04 422.96 317.65L418.5 352L417 357Z" fill="#FF0077" stroke="black" stroke-width="4"/>
<path d="M421.12 360.34C419.03 360.34 416.49 359.36 414.26 355.76C404.24 339.56 407.23 278.08 412.42 271.68L413.51 270.34L445.22 293.22L445.06 294.32C445.04 294.48 442.7 310.01 438.95 325.66C435.6 339.66 430.26 358.47 422.68 360.16C422.2 360.27 421.68 360.34 421.12 360.34Z" fill="black"/>
<path d="M234.35 121.29C236.52 115.66 239.52 110.35 243.75 105.51C251.05 97.1699 260.98 91.3699 271.76 88.8599C282.66 86.3299 293.41 87.3999 303.84 91.3599C320.15 97.5499 332.56 110.3 342.5 124.25C343.99 126.34 345.46 128.46 346.74 130.68L268.18 181C268.18 181 251.68 201.75 238.33 212.67C224.04 224.36 212.88 226.22 213.74 224.76C222.79 209.5 224.94 190.29 226.85 172.99C228.74 155.93 228.15 137.34 234.34 121.28L234.35 121.29Z" fill="black"/>
<path d="M310.701 118.66L294.911 119.86C277.671 123.24 266.091 140.03 268.501 152.35L273.641 172.76C276.861 189.18 288.211 205.97 288.211 205.97C288.921 206.06 294.781 206.09 305.781 206.1C319.311 206.11 332.401 206.73 335.171 174.71C335.171 174.71 338.9 151.93 324.77 127.46C320.56 120.17 318.951 117.05 310.691 118.67L310.701 118.66Z" fill="white"/>
<path d="M268.61 169.78C275.61 162.51 278.13 156.67 278.34 152.46C278.6 147.04 277.8 144.8 277.8 144.8C277.8 144.8 289.82 143.26 294.6 134.8C297.52 129.63 298.63 125.08 298.63 125.08L303.24 136.79C303.24 136.79 309.34 136.2 320.63 137.17C330.37 138.01 340.89 140.72 340.89 140.72C340.89 140.72 345.15 122.5 326.31 118.43C316.21 116.24 291.27 113.95 273.8 131.13C256.34 148.32 262.1 159.46 262.69 165.67C263.28 171.88 268.61 169.78 268.61 169.78Z" fill="black"/>
<path d="M279.58 162.53C275.12 156.72 269.25 158.68 266.97 160.59C263.4 163.58 264.5 171.08 268.31 173.95C274.15 178.36 279.47 176.86 281.53 172.25C283.59 167.64 279.57 162.53 279.57 162.53H279.58Z" fill="white"/>
<path d="M75.1396 473.74H372.96" stroke="black" stroke-width="4" stroke-linecap="round"/>
<path d="M302.38 174.7C308.975 174.7 314.32 167.68 314.32 159.02C314.32 150.36 308.975 143.34 302.38 143.34C295.786 143.34 290.44 150.36 290.44 159.02C290.44 167.68 295.786 174.7 302.38 174.7Z" fill="black" stroke="black" stroke-width="4"/>
<path d="M329.42 174.7C334.656 174.7 338.9 167.68 338.9 159.02C338.9 150.36 334.656 143.34 329.42 143.34C324.185 143.34 319.94 150.36 319.94 159.02C319.94 167.68 324.185 174.7 329.42 174.7Z" fill="black" stroke="black" stroke-width="4"/>
<path d="M284.72 363.58L349.84 366.98L351.33 357.37L287.36 357.22L284.72 363.58Z" fill="black"/>
<path d="M296.17 374.08C298.131 374.08 299.72 372.491 299.72 370.53C299.72 368.569 298.131 366.98 296.17 366.98C294.21 366.98 292.62 368.569 292.62 370.53C292.62 372.491 294.21 374.08 296.17 374.08Z" fill="black"/>
<path d="M88.6599 244.59L117.58 161.44C119.61 155.38 116.98 148.58 111.2 145.86C110.95 145.74 110.69 145.63 110.42 145.52L109.27 104.85C109.1 103.05 107.51 101.59 105.6 101.46C103.56 101.33 101.89 102.75 101.84 104.66L99.2799 135.83L90.6199 108.57C90.2699 107.15 88.8499 105.42 86.9099 105.36C84.9799 105.3 83.0699 106.61 83.4899 109.18L88.6299 136.35C88.6299 136.35 83.9599 135.84 82.8299 138.1C81.6999 140.36 81.4699 143.39 81.4699 143.39C81.4699 143.39 76.2399 141.53 74.4599 146.03C72.8099 150.17 81.3899 174.94 82.7799 178.88L68.6699 221.83L88.6599 244.57V244.59Z" fill="white" stroke="black" stroke-width="4" stroke-linejoin="round"/>
<path d="M100.38 148.95L89.7899 153.64C87.3099 154.74 86.2099 157.65 87.3499 160.11C88.4399 162.48 91.1999 163.56 93.6099 162.57L104.18 158.21C104.18 158.21 84.6199 169.36 95.9599 188.36" fill="white"/>
<path d="M100.38 148.95L89.7899 153.64C87.3099 154.74 86.2099 157.65 87.3499 160.11C88.4399 162.48 91.1999 163.56 93.6099 162.57L104.18 158.21C104.18 158.21 84.6199 169.36 95.9599 188.36" stroke="black" stroke-width="4" stroke-linecap="round" stroke-linejoin="round"/>
<path d="M196.37 180.12C162.85 148.82 110.35 175.97 129.97 204.27C145.25 226.3 173.2 235.47 184.67 238.88C196.15 242.3 216.17 228.85 214.96 228.83C213.75 228.81 229.89 211.42 196.37 180.12Z" fill="black"/>
<path d="M150.29 148.88C150.29 148.88 151.3 208.66 156.09 223.45C197.4 248.24 204.6 223.35 204.6 223.35L199.67 187.86C198.79 167.41 150.29 148.89 150.29 148.89V148.88Z" fill="white"/>
<path d="M150.29 148.88L151.65 226.74L200.11 190.7L199.67 187.85C198.79 167.4 150.29 148.88 150.29 148.88Z" fill="black"/>
<path d="M172.89 98.3701H203.91C213.9 98.3701 222.01 106.48 222.01 116.47V153.57C222.01 172.12 206.95 187.18 188.4 187.18C169.85 187.18 154.79 172.12 154.79 153.57V116.47C154.79 106.48 162.9 98.3701 172.89 98.3701Z" fill="white" stroke="black" stroke-width="4"/>
<path d="M246.24 225.53C232.32 209.44 209.15 203.59 209.15 203.59C209.15 203.59 210.72 212.56 208.9 207.86C208.9 207.86 196.46 226.74 171.76 202.79C169.88 200.13 160.83 198.33 158.41 196.9L147.42 203.47C147.34 200.98 141.87 197.91 117.48 212.14C92.9697 226.45 66.1797 259.71 66.1797 259.71C68.3897 254.91 97.5297 258.62 97.5297 258.62L115.1 202.79H72.9597C72.9597 202.79 60.6097 234.43 47.0497 272.83C38.3797 297.38 49.1897 311.94 67.4297 320.84C75.9797 325.02 85.9197 325.69 94.7697 322.19C101.71 319.44 104.51 315.67 104.51 315.67C96.4797 372.39 90.3197 424.56 94.8397 445.25C95.5797 448.62 98.2697 451.22 101.66 451.82L104.89 452.4C103.15 473.13 103.92 474.79 103.92 474.79H169.73H220.17H245.71C249.36 445.82 247.88 410.98 244.11 374.08C247.85 374.79 248.1 373.66 251.52 374.08C259.08 375.01 287.25 376.62 290.4 351.41C292.1 298.3 246.25 225.52 246.25 225.52L246.24 225.53Z" fill="black"/>
<path d="M162.54 144.77C162.54 144.77 162.12 128.57 150.42 130.93C141.41 132.75 143.11 146.49 148.11 150.53C153.11 154.57 159.67 154.99 159.67 154.99L162.54 144.77Z" fill="white"/>
<path d="M201.54 222.4C201.54 222.4 205.2 238.99 201.54 252.54" stroke="white" stroke-width="4" stroke-linecap="round"/>
<path d="M183.78 222.4C183.78 222.4 187.44 238.99 183.78 252.54" stroke="white" stroke-width="4" stroke-linecap="round"/>
<path d="M162.88 128.81C162.88 128.81 184.4 127.43 193.59 119.02C202.78 110.6 203.96 100.66 203.96 100.66C203.96 100.66 211.85 106.95 220.95 108.59C231.74 110.53 238.54 83.1 229.93 77.94C221.29 72.8 203.05 77.91 196.96 82.64C177.07 86.01 167.27 85.73 160.52 93.3C153.77 100.87 157.14 129.83 157.14 129.83L162.9 128.81H162.88Z" fill="black"/>
<path d="M162.09 146.81C158.93 146.81 156.38 144.25 156.38 141.1V128.26C156.38 125.1 158.94 126.16 162.09 126.16V122.55C165.25 122.55 167.8 125.11 167.8 128.26V141.1C167.8 144.26 165.24 146.81 162.09 146.81Z" fill="black"/>
<path d="M142.48 136.48C142.48 136.48 139.47 151.89 154.8 156.03" stroke="black" stroke-width="4" stroke-linejoin="round"/>
<path d="M190.06 153.9C196.654 153.9 202 146.88 202 138.22C202 129.56 196.654 122.54 190.06 122.54C183.466 122.54 178.12 129.56 178.12 138.22C178.12 146.88 183.466 153.9 190.06 153.9Z" fill="black" stroke="black" stroke-width="4"/>
<path d="M217.1 153.9C222.336 153.9 226.58 146.88 226.58 138.22C226.58 129.56 222.336 122.54 217.1 122.54C211.864 122.54 207.62 129.56 207.62 138.22C207.62 146.88 211.864 153.9 217.1 153.9Z" fill="black" stroke="black" stroke-width="4"/>
<path d="M302.84 148.25L295.26 157.65" stroke="white" stroke-width="4" stroke-linecap="round"/>
<path d="M196.97 130.29L186.28 143.53" stroke="white" stroke-width="4" stroke-linecap="round"/>
<path d="M329.42 147.88L324.92 153.6" stroke="white" stroke-width="4" stroke-linecap="round"/>
<path d="M221.02 127.61L217.1 132.58" stroke="white" stroke-width="4" stroke-linecap="round"/>
<path d="M417.13 237.14C413.46 233.87 414.86 222.98 420.58 211.79C426.68 199.86 435.39 192.12 440.03 194.49" stroke="black" stroke-width="4" stroke-linecap="round"/>
<path d="M414.86 248.5C413.18 243.38 415.38 233.52 420.85 223.53C427.85 210.77 437.54 202.63 442.51 205.35" stroke="black" stroke-width="4" stroke-linecap="round"/>
<path d="M398.98 117.4H367.94C366.769 117.4 365.82 118.349 365.82 119.52V183.71C365.82 184.881 366.769 185.83 367.94 185.83H398.98C400.151 185.83 401.1 184.881 401.1 183.71V119.52C401.1 118.349 400.151 117.4 398.98 117.4Z" fill="black"/>
<path d="M369.25 123.64V123.71C369.25 125.49 370.69 126.93 372.47 126.93H380.59C382.37 126.93 383.81 125.49 383.81 123.71V123.64C383.81 121.86 382.37 120.42 380.59 120.42H372.47C370.69 120.42 369.25 121.86 369.25 123.64ZM370.76 123.67C370.76 122.47 371.74 121.49 372.94 121.49C374.14 121.49 375.12 122.47 375.12 123.67C375.12 124.87 374.14 125.85 372.94 125.85C371.74 125.85 370.76 124.87 370.76 123.67Z" fill="white"/>
<path d="M380.55 125.09C381.334 125.09 381.97 124.454 381.97 123.67C381.97 122.886 381.334 122.25 380.55 122.25C379.766 122.25 379.13 122.886 379.13 123.67C379.13 124.454 379.766 125.09 380.55 125.09Z" fill="black"/>
<path d="M429.439 301C421.233 301 412.667 295.457 412.163 284.875C412.019 281.852 413.063 275.076 414.169 269.938L414.538 268.237C418.767 248.666 423.15 228.438 415.078 210.136C409.868 209.794 399.349 205.664 396.434 203.135C394.985 202.073 390.567 198.69 389.739 196.377C389.667 196.17 389.595 195.963 389.541 195.766C388.812 195.514 388.083 195.253 387.346 194.992C385.87 194.47 384.403 193.93 383.017 193.426L382.667 193.3L379.004 191.833C378.023 191.437 377.205 191.113 376.62 190.879L375.63 190.493C373.074 189.485 371.734 186.659 372.561 184.059C372.705 183.6 372.912 183.168 373.173 182.772C371.14 181.755 370.087 179.425 370.735 177.184C371.32 175.151 373.209 173.729 375.315 173.729C375.765 173.729 376.206 173.792 376.638 173.918L383.836 176.032L397.469 177.742C397.406 177.688 397.1 177.436 397.1 177.436C396.767 177.166 396.434 176.887 396.083 176.617C395.39 176.077 394.688 175.537 393.977 175.025C393.266 174.512 392.538 174.017 391.8 173.531C391.431 173.288 391.062 173.054 390.702 172.829L390.144 172.487L389.739 172.244L388.578 171.731C388.029 171.488 387.499 171.236 386.959 170.984L386.797 170.912C386.32 170.687 385.834 170.462 385.357 170.22L385.15 170.121C384.682 169.896 384.223 169.671 383.764 169.428L382.226 168.618C381.857 168.42 381.47 168.204 381.083 167.988L379.832 167.277C377.798 166.134 375.981 163.444 376.503 160.906C376.692 159.962 377.529 157.721 381.146 157.334L381.641 157.28L382.091 157.487L383.899 158.288C384.043 158.351 384.187 158.423 384.322 158.477L385.069 158.774L385.663 159.017C385.942 159.134 386.221 159.251 386.518 159.368L388.047 159.962C388.29 160.051 388.533 160.141 388.776 160.231C389.046 160.33 389.316 160.429 389.577 160.537C390.036 160.717 390.504 160.879 390.972 161.05L391.071 161.086C391.584 161.275 392.088 161.446 392.592 161.626L393.356 161.887L394.094 162.13C394.256 162.184 394.427 162.256 394.571 162.328L395.453 162.76L396.173 163.129C396.659 163.381 397.127 163.633 397.586 163.885C398.503 164.389 399.421 164.929 400.312 165.468C401.203 166.017 402.094 166.593 402.967 167.178C403.111 167.277 403.246 167.367 403.389 167.466C403.497 167.412 403.614 167.367 403.731 167.331C404.253 167.169 404.856 167.088 405.513 167.088C408.24 167.088 411.83 168.474 413.27 169.428C416.995 171.902 419.037 174.575 420.684 176.725C420.981 177.121 421.278 177.499 421.566 177.859L422.115 178.543C423.618 180.397 427.127 184.725 431.275 190.691L431.32 190.745C431.455 190.897 431.581 191.05 431.707 191.212C436.233 196.953 440.264 204.161 443.036 211.467C452.655 237.112 451.323 264.89 448.516 283.687C446.077 296.483 436.719 300.991 429.448 300.991L429.439 301Z" fill="white"/>
<path d="M429.439 301V303H430.269L430.855 302.412L429.439 301ZM412.163 284.875L414.161 284.78L412.163 284.875ZM414.169 269.938L412.215 269.514L412.214 269.517L414.169 269.938ZM414.538 268.237L416.493 268.661L416.493 268.66L414.538 268.237ZM415.078 210.136L416.908 209.329L416.419 208.219L415.209 208.14L415.078 210.136ZM396.434 203.135L397.744 201.624L397.682 201.57L397.616 201.522L396.434 203.135ZM389.739 196.377L387.85 197.034L387.853 197.043L387.856 197.051L389.739 196.377ZM389.541 195.766L391.471 195.239L391.193 194.22L390.195 193.875L389.541 195.766ZM383.017 193.426L383.701 191.546L383.693 191.544L383.017 193.426ZM382.667 193.3L381.923 195.157L381.957 195.17L381.991 195.182L382.667 193.3ZM379.004 191.833L378.256 193.688L378.261 193.69L379.004 191.833ZM376.62 190.879L377.362 189.023L377.355 189.02L377.348 189.017L376.62 190.879ZM375.63 190.493L374.896 192.353L374.902 192.355L375.63 190.493ZM372.561 184.059L374.467 184.665L374.47 184.657L372.561 184.059ZM373.173 182.772L374.843 183.873L376.083 181.991L374.068 180.983L373.173 182.772ZM370.735 177.184L372.656 177.74L372.657 177.737L370.735 177.184ZM376.638 173.918L377.201 171.999L377.198 171.998L376.638 173.918ZM383.836 176.032L383.273 177.951L383.427 177.997L383.587 178.017L383.836 176.032ZM397.469 177.742L397.22 179.726C398.096 179.836 398.94 179.359 399.298 178.552C399.655 177.744 399.441 176.798 398.77 176.224L397.469 177.742ZM397.1 177.436L398.371 175.892L398.365 175.887L398.359 175.883L397.1 177.436ZM396.083 176.617L394.854 178.195L394.863 178.203L396.083 176.617ZM390.702 172.829L391.762 171.133L391.755 171.128L391.747 171.124L390.702 172.829ZM390.144 172.487L391.189 170.782L391.181 170.777L391.173 170.772L390.144 172.487ZM389.739 172.244L390.768 170.529L390.661 170.465L390.547 170.415L389.739 172.244ZM388.578 171.731L387.769 173.56L387.77 173.561L388.578 171.731ZM386.959 170.984L387.804 169.172L387.788 169.164L387.771 169.157L386.959 170.984ZM386.797 170.912L385.943 172.721L385.964 172.731L385.984 172.74L386.797 170.912ZM385.357 170.22L386.265 168.437L386.243 168.426L386.22 168.415L385.357 170.22ZM385.15 170.121L384.283 171.923L384.287 171.925L385.15 170.121ZM383.764 169.428L384.7 167.66L384.696 167.658L383.764 169.428ZM382.226 168.618L381.28 170.38L381.287 170.384L381.294 170.388L382.226 168.618ZM381.083 167.988L380.095 169.727L380.101 169.731L380.108 169.734L381.083 167.988ZM379.832 167.277L380.82 165.538L380.812 165.534L379.832 167.277ZM376.503 160.906L378.462 161.309L378.464 161.299L376.503 160.906ZM381.146 157.334L381.359 159.323L381.363 159.322L381.146 157.334ZM381.641 157.28L382.477 155.463L381.974 155.232L381.424 155.292L381.641 157.28ZM382.091 157.487L381.255 159.304L381.268 159.31L381.281 159.316L382.091 157.487ZM383.899 158.288L383.09 160.117L383.098 160.12L383.899 158.288ZM384.322 158.477L383.579 160.334L383.583 160.335L384.322 158.477ZM385.069 158.774L385.826 156.923L385.817 156.919L385.808 156.915L385.069 158.774ZM385.663 159.017L386.436 157.172L386.428 157.169L386.42 157.166L385.663 159.017ZM386.518 159.368L385.785 161.228L385.794 161.232L386.518 159.368ZM388.047 159.962L387.324 161.826L387.338 161.832L387.353 161.837L388.047 159.962ZM388.776 160.231L388.082 162.107L388.088 162.109L388.776 160.231ZM389.577 160.537L388.812 162.385L388.83 162.393L388.847 162.399L389.577 160.537ZM390.972 161.05L390.286 162.929L390.288 162.93L390.972 161.05ZM391.071 161.086L391.762 159.21L391.754 159.207L391.071 161.086ZM392.592 161.626L391.919 163.51L391.932 163.514L391.946 163.519L392.592 161.626ZM393.356 161.887L392.711 163.78L392.721 163.783L392.731 163.787L393.356 161.887ZM394.094 162.13L394.727 160.233L394.72 160.23L394.094 162.13ZM394.571 162.328L393.677 164.117L393.684 164.121L393.691 164.124L394.571 162.328ZM395.453 162.76L396.365 160.98L396.349 160.972L396.333 160.964L395.453 162.76ZM396.173 163.129L397.094 161.353L397.085 161.349L396.173 163.129ZM400.312 165.468L401.361 163.766L401.355 163.762L401.349 163.758L400.312 165.468ZM402.967 167.178L404.1 165.53L404.09 165.523L404.08 165.517L402.967 167.178ZM403.389 167.466L402.256 169.114L403.229 169.783L404.284 169.255L403.389 167.466ZM403.731 167.331L404.32 169.243L404.324 169.241L403.731 167.331ZM413.27 169.428L414.376 167.762L414.374 167.76L413.27 169.428ZM420.684 176.725L422.284 175.525L422.278 175.517L422.272 175.509L420.684 176.725ZM421.566 177.859L420.004 179.108L420.006 179.111L421.566 177.859ZM422.115 178.543L420.555 179.795L420.561 179.802L422.115 178.543ZM431.275 190.691L429.633 191.832L429.683 191.904L429.739 191.971L431.275 190.691ZM431.32 190.745L429.784 192.025L429.802 192.047L429.82 192.068L431.32 190.745ZM431.707 191.212L430.128 192.44L430.136 192.451L431.707 191.212ZM443.036 211.467L444.908 210.765L444.906 210.758L443.036 211.467ZM448.516 283.687L450.48 284.062L450.488 284.022L450.494 283.983L448.516 283.687ZM429.448 300.991V298.991H428.618L428.032 299.579L429.448 300.991ZM429.439 301V299C422.058 299 414.603 294.069 414.161 284.78L412.163 284.875L410.165 284.97C410.731 296.846 420.408 303 429.439 303V301ZM412.163 284.875L414.161 284.78C414.098 283.473 414.297 281.186 414.678 278.478C415.052 275.814 415.581 272.884 416.125 270.359L414.169 269.938L412.214 269.517C411.651 272.13 411.105 275.157 410.717 277.921C410.334 280.642 410.083 283.254 410.165 284.97L412.163 284.875ZM414.169 269.938L416.124 270.362L416.493 268.661L414.538 268.237L412.584 267.813L412.215 269.514L414.169 269.938ZM414.538 268.237L416.493 268.66C420.69 249.237 425.288 228.33 416.908 209.329L415.078 210.136L413.248 210.943C421.011 228.546 416.845 248.096 412.583 267.815L414.538 268.237ZM415.078 210.136L415.209 208.14C412.912 207.989 409.207 206.96 405.609 205.587C403.838 204.911 402.153 204.175 400.748 203.463C399.308 202.734 398.282 202.091 397.744 201.624L396.434 203.135L395.123 204.646C396.043 205.444 397.426 206.265 398.941 207.032C400.491 207.817 402.307 208.608 404.182 209.324C407.875 210.733 412.035 211.94 414.947 212.131L415.078 210.136ZM396.434 203.135L397.616 201.522C396.917 201.01 395.515 199.946 394.202 198.748C393.545 198.148 392.939 197.541 392.462 196.974C391.963 196.379 391.71 195.949 391.622 195.703L389.739 196.377L387.856 197.051C388.182 197.962 388.792 198.823 389.399 199.546C390.029 200.296 390.774 201.035 391.506 201.703C392.97 203.039 394.502 204.199 395.252 204.748L396.434 203.135ZM389.739 196.377L391.628 195.72C391.551 195.499 391.503 195.359 391.471 195.239L389.541 195.766L387.612 196.292C387.687 196.568 387.783 196.841 387.85 197.034L389.739 196.377ZM389.541 195.766L390.195 193.875C389.475 193.626 388.76 193.371 388.012 193.106L387.346 194.992L386.679 196.877C387.407 197.135 388.15 197.401 388.888 197.656L389.541 195.766ZM387.346 194.992L388.012 193.106C386.548 192.588 385.097 192.054 383.701 191.546L383.017 193.426L382.334 195.306C383.71 195.806 385.192 196.351 386.679 196.877L387.346 194.992ZM383.017 193.426L383.693 191.544L383.342 191.418L382.667 193.3L381.991 195.182L382.342 195.308L383.017 193.426ZM382.667 193.3L383.41 191.443L379.748 189.977L379.004 191.833L378.261 193.69L381.923 195.157L382.667 193.3ZM379.004 191.833L379.753 189.979C378.769 189.581 377.938 189.253 377.362 189.023L376.62 190.879L375.877 192.736C376.471 192.974 377.278 193.293 378.256 193.688L379.004 191.833ZM376.62 190.879L377.348 189.017L376.358 188.63L375.63 190.493L374.902 192.355L375.892 192.742L376.62 190.879ZM375.63 190.493L376.364 188.632C374.784 188.009 373.96 186.26 374.467 184.665L372.561 184.059L370.656 183.452C369.508 187.059 371.365 190.961 374.896 192.353L375.63 190.493ZM372.561 184.059L374.47 184.657C374.557 184.379 374.683 184.116 374.843 183.873L373.173 182.772L371.503 181.671C371.142 182.22 370.854 182.82 370.653 183.46L372.561 184.059ZM373.173 182.772L374.068 180.983C372.89 180.394 372.279 179.045 372.656 177.74L370.735 177.184L368.814 176.629C367.895 179.804 369.39 183.116 372.279 184.561L373.173 182.772ZM370.735 177.184L372.657 177.737C372.996 176.558 374.103 175.729 375.315 175.729V173.729V171.729C372.316 171.729 369.644 173.743 368.813 176.631L370.735 177.184ZM375.315 173.729V175.729C375.575 175.729 375.828 175.765 376.078 175.838L376.638 173.918L377.198 171.998C376.584 171.819 375.954 171.729 375.315 171.729V173.729ZM376.638 173.918L376.074 175.837L383.273 177.951L383.836 176.032L384.4 174.113L377.201 171.999L376.638 173.918ZM383.836 176.032L383.587 178.017L397.22 179.726L397.469 177.742L397.718 175.758L384.085 174.048L383.836 176.032ZM397.469 177.742L398.77 176.224C398.722 176.182 398.612 176.091 398.535 176.027C398.492 175.992 398.451 175.958 398.421 175.933C398.406 175.921 398.393 175.911 398.385 175.904C398.381 175.9 398.377 175.897 398.375 175.895C398.374 175.894 398.373 175.894 398.372 175.893C398.372 175.893 398.372 175.893 398.371 175.892C398.371 175.892 398.371 175.892 398.371 175.892C398.371 175.892 398.371 175.892 398.371 175.892C398.371 175.892 398.371 175.892 398.371 175.892C398.371 175.892 398.371 175.892 397.1 177.436C395.828 178.98 395.828 178.98 395.828 178.98C395.828 178.98 395.828 178.98 395.828 178.98C395.828 178.98 395.828 178.98 395.828 178.98C395.828 178.98 395.828 178.98 395.829 178.98C395.829 178.98 395.829 178.98 395.829 178.981C395.83 178.981 395.83 178.982 395.832 178.983C395.834 178.984 395.837 178.987 395.841 178.991C395.849 178.997 395.861 179.007 395.876 179.019C395.905 179.043 395.945 179.076 395.986 179.11C396.028 179.145 396.07 179.18 396.106 179.209C396.124 179.224 396.139 179.237 396.15 179.247C396.164 179.258 396.168 179.262 396.167 179.261L397.469 177.742ZM397.1 177.436L398.359 175.883C398.059 175.639 397.68 175.323 397.302 175.032L396.083 176.617L394.863 178.203C395.188 178.452 395.474 178.693 395.84 178.99L397.1 177.436ZM396.083 176.617L397.312 175.04C396.615 174.496 395.889 173.938 395.148 173.403L393.977 175.025L392.807 176.646C393.487 177.137 394.165 177.658 394.854 178.195L396.083 176.617ZM393.977 175.025L395.148 173.403C394.406 172.868 393.653 172.356 392.9 171.861L391.8 173.531L390.7 175.201C391.423 175.677 392.127 176.155 392.807 176.646L393.977 175.025ZM391.8 173.531L392.9 171.861C392.512 171.606 392.129 171.362 391.762 171.133L390.702 172.829L389.642 174.525C389.995 174.746 390.349 174.97 390.7 175.201L391.8 173.531ZM390.702 172.829L391.747 171.124L391.189 170.782L390.144 172.487L389.099 174.192L389.657 174.534L390.702 172.829ZM390.144 172.487L391.173 170.772L390.768 170.529L389.739 172.244L388.71 173.959L389.115 174.202L390.144 172.487ZM389.739 172.244L390.547 170.415L389.387 169.902L388.578 171.731L387.77 173.561L388.931 174.073L389.739 172.244ZM388.578 171.731L389.388 169.902C388.863 169.67 388.36 169.431 387.804 169.172L386.959 170.984L386.113 172.797C386.637 173.041 387.196 173.307 387.769 173.56L388.578 171.731ZM386.959 170.984L387.771 169.157L387.609 169.085L386.797 170.912L385.984 172.74L386.146 172.812L386.959 170.984ZM386.797 170.912L387.65 169.104C387.155 168.87 386.707 168.663 386.265 168.437L385.357 170.22L384.449 172.002C384.961 172.262 385.485 172.505 385.943 172.721L386.797 170.912ZM385.357 170.22L386.22 168.415L386.013 168.316L385.15 170.121L384.287 171.925L384.494 172.024L385.357 170.22ZM385.15 170.121L386.017 168.318C385.556 168.097 385.124 167.885 384.7 167.66L383.764 169.428L382.829 171.195C383.322 171.456 383.808 171.695 384.283 171.923L385.15 170.121ZM383.764 169.428L384.696 167.658L383.157 166.848L382.226 168.618L381.294 170.388L382.833 171.197L383.764 169.428ZM382.226 168.618L383.171 166.855C382.82 166.667 382.447 166.459 382.058 166.242L381.083 167.988L380.108 169.734C380.492 169.949 380.894 170.173 381.28 170.38L382.226 168.618ZM381.083 167.988L382.071 166.249L380.82 165.538L379.832 167.277L378.844 169.016L380.095 169.727L381.083 167.988ZM379.832 167.277L380.812 165.534C380.129 165.15 379.422 164.461 378.948 163.627C378.476 162.796 378.323 161.983 378.462 161.309L376.503 160.906L374.544 160.503C374.16 162.367 374.655 164.168 375.47 165.603C376.283 167.034 377.501 168.262 378.852 169.021L379.832 167.277ZM376.503 160.906L378.464 161.299C378.51 161.068 378.642 160.656 378.994 160.283C379.316 159.941 379.97 159.471 381.359 159.323L381.146 157.334L380.933 155.345C378.704 155.584 377.131 156.427 376.083 157.539C375.065 158.619 374.684 159.8 374.542 160.514L376.503 160.906ZM381.146 157.334L381.363 159.322L381.858 159.268L381.641 157.28L381.424 155.292L380.929 155.346L381.146 157.334ZM381.641 157.28L380.805 159.097L381.255 159.304L382.091 157.487L382.926 155.67L382.477 155.463L381.641 157.28ZM382.091 157.487L381.281 159.316L383.09 160.117L383.899 158.288L384.709 156.459L382.9 155.658L382.091 157.487ZM383.899 158.288L383.098 160.12C383.147 160.142 383.19 160.162 383.278 160.202C383.352 160.236 383.461 160.286 383.579 160.334L384.322 158.477L385.065 156.62C384.942 156.57 385.004 156.588 384.701 156.456L383.899 158.288ZM384.322 158.477L383.583 160.335L384.33 160.632L385.069 158.774L385.808 156.915L385.061 156.618L384.322 158.477ZM385.069 158.774L384.312 160.625L384.906 160.868L385.663 159.017L386.42 157.166L385.826 156.923L385.069 158.774ZM385.663 159.017L384.889 160.861C385.166 160.977 385.464 161.102 385.785 161.228L386.518 159.368L387.251 157.507C386.977 157.399 386.718 157.29 386.436 157.172L385.663 159.017ZM386.518 159.368L385.794 161.232L387.324 161.826L388.047 159.962L388.771 158.097L387.242 157.503L386.518 159.368ZM388.047 159.962L387.353 161.837C387.474 161.882 387.596 161.927 387.717 161.972C387.839 162.017 387.96 162.062 388.082 162.107L388.776 160.231L389.471 158.356C389.349 158.311 389.228 158.266 389.107 158.221C388.985 158.176 388.864 158.131 388.742 158.086L388.047 159.962ZM388.776 160.231L388.088 162.109C388.365 162.211 388.596 162.296 388.812 162.385L389.577 160.537L390.342 158.689C390.037 158.563 389.728 158.45 389.465 158.354L388.776 160.231ZM389.577 160.537L388.847 162.399C389.334 162.59 389.861 162.774 390.286 162.929L390.972 161.05L391.658 159.172C391.147 158.985 390.738 158.844 390.307 158.675L389.577 160.537ZM390.972 161.05L390.288 162.93L390.387 162.966L391.071 161.086L391.754 159.207L391.655 159.171L390.972 161.05ZM391.071 161.086L390.379 162.963C390.898 163.154 391.462 163.346 391.919 163.51L392.592 161.626L393.264 159.743C392.714 159.546 392.27 159.397 391.762 159.21L391.071 161.086ZM392.592 161.626L391.946 163.519L392.711 163.78L393.356 161.887L394.002 159.994L393.237 159.733L392.592 161.626ZM393.356 161.887L392.731 163.787L393.469 164.03L394.094 162.13L394.72 160.23L393.982 159.987L393.356 161.887ZM394.094 162.13L393.462 164.027C393.529 164.05 393.612 164.085 393.677 164.117L394.571 162.328L395.466 160.539C395.242 160.427 394.984 160.318 394.727 160.233L394.094 162.13ZM394.571 162.328L393.691 164.124L394.573 164.556L395.453 162.76L396.333 160.964L395.451 160.532L394.571 162.328ZM395.453 162.76L394.541 164.54L395.261 164.909L396.173 163.129L397.085 161.349L396.365 160.98L395.453 162.76ZM396.173 163.129L395.252 164.904C395.72 165.147 396.174 165.391 396.623 165.638L397.586 163.885L398.548 162.132C398.08 161.874 397.597 161.615 397.094 161.353L396.173 163.129ZM397.586 163.885L396.623 165.638C397.507 166.123 398.399 166.647 399.275 167.179L400.312 165.468L401.349 163.758C400.444 163.21 399.5 162.654 398.548 162.132L397.586 163.885ZM400.312 165.468L399.263 167.171C400.129 167.705 400.999 168.267 401.853 168.84L402.967 167.178L404.08 165.517C403.189 164.92 402.277 164.33 401.361 163.766L400.312 165.468ZM402.967 167.178L401.834 168.826C401.912 168.88 401.987 168.931 402.056 168.978C402.127 169.026 402.191 169.069 402.256 169.114L403.389 167.466L404.523 165.818C404.444 165.764 404.369 165.713 404.3 165.666C404.229 165.618 404.165 165.575 404.1 165.53L402.967 167.178ZM403.389 167.466L404.284 169.255C404.279 169.257 404.28 169.257 404.287 169.254C404.295 169.251 404.305 169.247 404.32 169.243L403.731 167.331L403.143 165.42C402.941 165.482 402.718 165.566 402.495 165.677L403.389 167.466ZM403.731 167.331L404.324 169.241C404.616 169.151 405.013 169.088 405.513 169.088V167.088V165.088C404.699 165.088 403.89 165.188 403.139 165.421L403.731 167.331ZM405.513 167.088V169.088C406.582 169.088 407.936 169.369 409.25 169.8C410.568 170.233 411.645 170.751 412.165 171.095L413.27 169.428L414.374 167.76C413.454 167.151 412.016 166.498 410.498 166C408.975 165.5 407.17 165.088 405.513 165.088V167.088ZM413.27 169.428L412.163 171.094C415.593 173.372 417.468 175.814 419.096 177.941L420.684 176.725L422.272 175.509C420.607 173.335 418.396 170.432 414.376 167.762L413.27 169.428ZM420.684 176.725L419.084 177.925C419.398 178.344 419.709 178.739 420.004 179.108L421.566 177.859L423.128 176.61C422.847 176.259 422.564 175.898 422.284 175.525L420.684 176.725ZM421.566 177.859L420.006 179.111L420.555 179.795L422.115 178.543L423.675 177.291L423.126 176.607L421.566 177.859ZM422.115 178.543L420.561 179.802C422.055 181.644 425.527 185.927 429.633 191.832L431.275 190.691L432.917 189.549C428.726 183.522 425.181 179.149 423.668 177.283L422.115 178.543ZM431.275 190.691L429.739 191.971L429.784 192.025L431.32 190.745L432.856 189.464L432.811 189.41L431.275 190.691ZM431.32 190.745L429.82 192.068C429.925 192.187 430.025 192.308 430.128 192.44L431.707 191.212L433.286 189.985C433.137 189.793 432.985 189.608 432.82 189.421L431.32 190.745ZM431.707 191.212L430.136 192.451C434.528 198.021 438.462 205.048 441.166 212.177L443.036 211.467L444.906 210.758C442.067 203.274 437.938 195.886 433.278 189.974L431.707 191.212ZM443.036 211.467L441.163 212.17C450.609 237.352 449.324 264.736 446.538 283.392L448.516 283.687L450.494 283.983C453.322 265.045 454.701 236.873 444.908 210.765L443.036 211.467ZM448.516 283.687L446.551 283.313C444.316 295.043 435.889 298.991 429.448 298.991V300.991V302.991C437.549 302.991 447.839 297.923 450.48 284.062L448.516 283.687ZM429.448 300.991L428.032 299.579L428.023 299.588L429.439 301L430.855 302.412L430.864 302.403L429.448 300.991Z" fill="black"/>
<path d="M440.03 194.49C444.67 196.86 443.48 208.46 437.38 220.39C431.28 232.32 422.57 240.06 417.93 237.69C417.64 237.54 417.37 237.36 417.13 237.14" stroke="black" stroke-width="4" stroke-linecap="round"/>
<path d="M415.95 250.55C415.49 250 415.13 249.31 414.86 248.5" stroke="black" stroke-width="4" stroke-linecap="round"/>
<path d="M442.51 205.35C447.47 208.07 445.83 220.62 438.83 233.39C431.83 246.15 422.14 254.29 417.17 251.57C416.7 251.31 416.3 250.97 415.94 250.55" stroke="black" stroke-width="4" stroke-linecap="round"/>
<path d="M373.73 111.25V107" stroke="black" stroke-width="4" stroke-linecap="round"/>
<path d="M360.26 125.16H356" stroke="black" stroke-width="4" stroke-linecap="round"/>
<path d="M362.54 112.74L359.51 109.76" stroke="black" stroke-width="4" stroke-linecap="round"/>
</svg>
