<svg width="500" height="500" viewBox="0 0 500 500" fill="none" xmlns="http://www.w3.org/2000/svg">
<path d="M386.731 336.253C386.731 336.253 360.841 334.023 361.001 335.513L365.271 352.633C365.471 354.553 388.851 336.433 386.731 336.253Z" fill="black"/>
<path d="M363.5 364C349.19 358.43 286.62 322.079 257.71 361.449C245.08 378.649 235 454.799 235 454.799H297.65C298.86 447.929 299.9 439.469 302.81 413.529C302.96 412.189 304.91 412.209 305.03 413.549C306.7 431.969 309.24 454.799 309.24 454.799L356.87 454.719C356.99 454.719 372.4 454.569 391 454.569C391 454.569 390.5 388.5 373 364.5L363.5 364Z" fill="black"/>
<path d="M290.01 139.18L324.48 262.21L228.61 237.14L280.51 143.09L290.01 139.18Z" fill="black"/>
<path d="M313.24 182.23C313.24 182.23 320.82 215.79 322.08 215.76C323.34 215.73 368.85 218.18 374.28 181.01C379.71 143.84 368.53 123.69 358.27 107.82C350.14 95.24 313.24 182.23 313.24 182.23Z" fill="black"/>
<path d="M357.6 214.75C357.6 214.75 388.94 214.38 385.59 180.18C381.21 135.53 357.63 107.62 357.63 107.62C357.63 107.62 378.5 141.61 377.3 177.14C376.1 212.68 357.6 214.75 357.6 214.75Z" fill="black"/>
<path d="M334.56 194.5L335.15 203.16C335.15 203.16 334.04 212.76 327.21 217.46C315.22 218.94 306.59 225.3 297.72 216.43C291.42 208.54 294.2 190.67 294.2 190.67L292.76 152.7L311.56 185.11L334.55 194.49L334.56 194.5Z" fill="white"/>
<path d="M266.033 322.98L360.203 324.541L361.955 324.569L362.156 326.309L362.157 326.31V326.318C362.158 326.323 362.159 326.332 362.16 326.342C362.163 326.364 362.167 326.398 362.172 326.441C362.182 326.527 362.197 326.655 362.216 326.82C362.254 327.151 362.31 327.634 362.38 328.242C362.52 329.457 362.718 331.172 362.947 333.167C363.405 337.158 363.987 342.276 364.487 346.779C364.967 351.093 365.986 354.664 366.882 357.147C367.329 358.387 367.743 359.353 368.042 360C368.191 360.322 368.311 360.565 368.392 360.723C368.432 360.802 368.462 360.861 368.48 360.896C368.49 360.914 368.496 360.926 368.5 360.932C368.501 360.933 368.501 360.934 368.501 360.935H368.502L369.834 363.353L367.121 363.866L365.161 364.235L365.155 364.237C364.341 364.388 347.391 367.499 314.146 367.61H312.663L312.648 367.595C302.393 367.553 291.316 366.75 282.716 365.943C278.294 365.528 274.517 365.112 271.828 364.798C270.484 364.641 269.411 364.509 268.666 364.416C268.293 364.369 268.002 364.332 267.801 364.306C267.7 364.293 267.621 364.283 267.566 364.276C267.518 364.27 267.497 364.267 267.492 364.266L267.467 364.262L265.736 364.033L264 363.801V322.947L266.033 322.98Z" fill="white" stroke="black" stroke-width="4"/>
<path d="M289.05 194.177C290.913 209.095 300.431 218.929 310.206 220.837V220.838C312.145 221.217 314.061 221.416 315.897 221.416C322.225 221.416 327.639 219.054 331.596 214.793C335.134 210.982 337.412 205.757 338.251 199.583L352.682 201.525H352.683C357.032 202.108 361.11 204.174 364.155 207.331L364.705 207.911L364.716 207.922C371.056 214.504 375.731 219.36 376.471 220.02L376.479 220.026L376.485 220.033C377.952 221.316 379.406 222.597 380.848 223.887L380.855 223.894C395.111 236.508 410.28 249.996 430.09 254.145C429.229 259.221 428.611 266.303 428.913 273.391C429.253 281.367 430.773 289.79 434.823 295.259C436.537 297.58 438.628 299.263 441.067 300.213L436.273 336.88C434.84 335.964 433.066 334.659 430.99 332.986C427.609 330.262 423.599 326.714 419.24 322.684C410.525 314.623 400.507 304.717 391.478 295.79H391.477C385.682 290.056 379.685 284.131 374.145 278.774H374.146C373.367 278.017 372.349 277.636 371.331 277.636C370.59 277.636 369.837 277.837 369.165 278.265C367.586 279.263 366.914 281.202 367.492 282.957L367.496 282.967L384.757 334.381C370.73 335.328 330.875 337.785 296.106 337.785C270.838 337.785 253.594 336.518 244.504 334.116C242.163 320 241.223 300.28 241.036 282.237C240.844 263.668 241.45 247.052 242.103 240.392V240.391C242.234 239.044 242.114 237.01 241.976 234.554H241.977C241.648 228.611 241.172 219.794 242.833 211.908C244.477 204.103 248.069 197.791 255.409 195.688C258.741 195.633 276.733 195.27 289.05 194.177Z" fill="#FF0077" stroke="black" stroke-width="4"/>
<path d="M439.82 340.51C437.73 340.51 435.19 339.53 432.96 335.93C422.94 319.73 425.93 258.25 431.12 251.85L432.21 250.51L463.92 273.39L463.76 274.49C463.74 274.65 461.4 290.18 457.65 305.83C454.3 319.83 448.96 338.64 441.38 340.33C440.9 340.44 440.38 340.51 439.82 340.51Z" fill="black"/>
<path d="M262.21 84.4602C275.02 69.3202 306.02 61.1102 334.49 83.9502C342.84 90.6502 353.23 104.26 353.23 104.26L277.79 149.14L270.81 143.35C268.01 140.96 263.88 140.98 261.11 143.4L260.18 144.21C257.7 146.37 253.82 144.83 253.5 141.55C252.12 127.52 250.82 97.9402 262.22 84.4502L262.21 84.4602Z" fill="#FF0077" stroke="black" stroke-width="4"/>
<path d="M329.4 98.8202L313.61 100.02C296.37 103.4 284.79 120.19 287.2 132.51L292.34 152.92C295.56 169.34 306.91 186.13 306.91 186.13C307.62 186.22 313.48 186.25 324.48 186.26C338.01 186.27 351.1 186.89 353.87 154.87C353.87 154.87 357.6 132.09 343.47 107.62C339.26 100.33 337.65 97.2103 329.39 98.8303L329.4 98.8202Z" fill="white"/>
<path d="M287.31 149.94C294.31 142.67 296.83 136.83 297.04 132.62C297.3 127.2 296.5 124.96 296.5 124.96C296.5 124.96 308.52 123.42 313.3 114.96C316.22 109.79 317.33 105.24 317.33 105.24L321.94 116.95C321.94 116.95 328.04 116.36 339.33 117.33C349.07 118.17 359.59 120.88 359.59 120.88C359.59 120.88 363.85 102.66 345.01 98.5901C334.91 96.4001 309.97 94.1101 292.5 111.29C275.03 128.47 280.8 139.62 281.39 145.83C281.98 152.04 287.31 149.94 287.31 149.94Z" fill="black"/>
<path d="M298.28 142.69C293.82 136.88 287.95 138.84 285.67 140.75C282.1 143.74 283.2 151.24 287.01 154.11C292.85 158.52 298.17 157.02 300.23 152.41C302.29 147.8 298.27 142.69 298.27 142.69H298.28Z" fill="white"/>
<path d="M179.4 160.29C212.92 128.99 265.42 156.14 245.8 184.44C230.52 206.47 202.57 215.64 191.1 219.05C179.62 222.47 159.6 209.02 160.81 209C162.02 208.98 145.88 191.59 179.4 160.29Z" fill="black"/>
<path d="M230.97 114.83C230.97 114.83 229.08 127.95 237.51 140.26C229.05 144.91 218.9 148.39 212.38 139.91C204.75 129.99 230.97 114.83 230.97 114.83Z" fill="black"/>
<path d="M225.48 129.04C225.48 129.04 224.47 188.82 219.68 203.61C178.37 228.4 171.17 203.51 171.17 203.51L176.1 168.02C176.98 147.57 225.48 129.05 225.48 129.05V129.04Z" fill="white"/>
<path d="M225.48 129.04L224.12 206.9L175.66 170.86L176.1 168.01C176.98 147.56 225.48 129.04 225.48 129.04Z" fill="black"/>
<path d="M187.37 167.35C168.82 167.35 153.76 152.29 153.76 133.74V96.6401C153.76 86.6501 161.87 78.5401 171.86 78.5401H202.88C212.87 78.5401 220.98 86.6501 220.98 96.6401V133.74C220.98 152.29 205.92 167.35 187.37 167.35Z" fill="white" stroke="black" stroke-width="4"/>
<path d="M204.02 87.8501C204.17 90.0201 210.99 118.4 219.31 122.94C226.52 126.87 231.32 99.7801 231.32 99.7801L204.02 87.8501Z" fill="black"/>
<path d="M155.17 137.86C153.14 136.85 146.43 135.85 139.25 135.7C142.07 131.33 141.63 125.63 140.61 123C140.3 122.2 139.81 121.49 139.18 120.92C138.39 120.21 133.51 115.91 127.74 112.67C128.33 111.55 128.99 110.55 129.45 110.5C131.81 110.25 142.28 117.15 147.93 116.3C153.37 115.49 152.66 111.75 152.66 111.75C146.09 111.21 130.91 98.97 127.28 99.41C122.51 99.99 119.28 102.93 117.21 105.78C114.28 108.75 105.31 128.16 100.56 139.26C98.5199 143.95 86.1299 161.5 86.1299 161.5C93.5799 164.74 99.9799 169.1 105.45 174.43L119.05 151.03C119.05 151.03 123.73 149.41 130.79 147.31C136.92 145.65 143.96 142.24 151.03 143.99C159.9 146.19 160.38 140.45 155.17 137.86Z" fill="white" stroke="black" stroke-width="4"/>
<path d="M123.26 431.12C124.39 433.54 133.47 441.24 149.5 445.26C165.54 449.28 139.82 397.53 139.82 397.53L127.11 413.26L123.26 422.94V431.11V431.12Z" fill="black"/>
<path d="M272.76 205.7C258.84 189.61 227.36 181.08 227.36 181.08C227.36 181.08 227.31 171.37 225.49 166.66C225.49 166.66 198.69 183.24 183.62 201.12C181.74 198.46 179.58 196.48 177.16 195.06L173.94 183.64C173.86 181.15 146.72 190.48 122.34 204.72C97.9596 218.96 76.0796 238.24 76.0796 238.24C78.2896 233.44 93.3196 208.1 93.3196 208.1L110.52 177.5C104.56 167.97 89.3596 159.32 82.9096 157.95C76.9796 162.81 42.8996 208.13 28.4296 250.15C25.9496 257.35 17.6196 287.5 41.6296 295.81C68.9996 302.53 104.1 288.72 131.03 274.27C122.11 337.3 115.5 416.28 123.27 431.12C123.27 426.08 126.05 419.38 132.7 414.02C130.96 434.75 130.45 454.96 130.45 454.96H196.26H272.24C275.89 425.99 274.06 387.64 270.29 350.74C274.03 351.45 277.63 352.02 281.05 352.45C288.61 353.38 313.78 356.79 316.93 331.58C318.63 278.47 272.78 205.69 272.78 205.69L272.76 205.7Z" fill="black"/>
<path d="M77.0999 238.46V235.92C77.0999 235.85 77.0999 235.79 77.0999 235.72V235.7C77.1599 235.38 77.4199 235.1 77.8099 235.1H102.04C103.2 235.1 104.33 235.52 105.2 236.29L137.87 264.99H134.75L137.87 267.73H109.91L77.3199 239.11C77.1199 238.93 77.0499 238.69 77.0799 238.47L77.0999 238.46Z" fill="#FF0077" stroke="black" stroke-width="4"/>
<path d="M147.47 256.06C139.05 250.67 130.71 248.76 129.74 248.74C127.19 248.68 121.95 250.31 121.95 250.31L130.13 257.08C130.85 257.68 131.2 258.63 131.04 259.55C130.9 260.36 130.22 261.49 129.33 261.63C129.03 261.68 128.73 261.59 128.44 261.5C126.05 260.79 123.65 260.05 121.38 259.02C118.48 257.71 115.81 255.95 113.07 254.35C111.47 253.42 109.83 252.43 108.07 251.82C106.48 251.27 104.63 250.95 103 251.5C102.17 251.78 101.44 252.3 100.93 253.02C100.85 253.13 100.7 253.49 100.57 253.52C100.4 253.55 99.8903 253.13 99.7303 253.04C98.2603 252.22 96.7603 251.59 95.0403 251.96C94.4003 252.1 93.5603 252.59 93.1603 253.1C92.6703 253.73 92.4203 254.52 93.0303 255.15C95.2203 257.42 111.19 277.33 120.95 283.79C127.06 287.84 133.21 291.84 140.25 293.86C152.82 297.48 169.26 301.59 169.26 301.59C169.26 301.59 178.42 294.01 178.42 281.07C158.95 274.83 157.09 262.2 147.48 256.05L147.47 256.06Z" fill="white" stroke="black" stroke-width="4"/>
<path d="M219.34 125.29C219.34 125.29 218.33 109.93 228.88 112.06C237.01 113.7 235.57 125.38 231.06 129.02C226.55 132.66 220.34 133.08 220.34 133.08L219.34 125.29Z" fill="white" stroke="black" stroke-width="4"/>
<path d="M194.76 45C199.103 45 203.438 45.6446 207.678 46.9033L208.524 47.1631L208.527 47.1641C228.996 53.6882 240.918 73.2145 234.965 91.8779L234.962 91.8887L234.958 91.8994L229.647 107.909L229.019 109.806L227.122 109.179L156.65 85.8994L157.03 84.751L155.137 84.209L159.697 68.2988L159.705 68.2705L159.714 68.2422C164.185 54.2279 178.392 45 194.76 45Z" fill="#FF0077" stroke="black" stroke-width="4"/>
<path d="M219.3 144.37C218.79 144.37 218.3 144.27 217.83 144.08C215.88 143.27 214.96 141.03 215.77 139.08L218.69 132.07C217.79 130.88 217.3 129.42 217.3 127.9C217.3 124.07 220.42 120.95 224.25 120.95C228.08 120.95 231.2 124.07 231.2 127.9C231.2 131.16 228.96 133.9 225.91 134.64L222.84 142.02C222.24 143.45 220.86 144.38 219.31 144.38L219.3 144.37Z" fill="#FF0077" stroke="black" stroke-width="4"/>
<path d="M93.8398 453.9H410.27" stroke="black" stroke-width="4" stroke-linecap="round"/>
<path d="M321.07 154.86C327.664 154.86 333.01 147.84 333.01 139.18C333.01 130.52 327.664 123.5 321.07 123.5C314.476 123.5 309.13 130.52 309.13 139.18C309.13 147.84 314.476 154.86 321.07 154.86Z" fill="white" stroke="black" stroke-width="4"/>
<path d="M348.12 154.86C353.355 154.86 357.6 147.84 357.6 139.18C357.6 130.52 353.355 123.5 348.12 123.5C342.884 123.5 338.64 130.52 338.64 139.18C338.64 147.84 342.884 154.86 348.12 154.86Z" fill="white" stroke="black" stroke-width="4"/>
<path d="M186.18 136.07C192.775 136.07 198.12 129.05 198.12 120.39C198.12 111.73 192.775 104.71 186.18 104.71C179.586 104.71 174.24 111.73 174.24 120.39C174.24 129.05 179.586 136.07 186.18 136.07Z" fill="white" stroke="black" stroke-width="4"/>
<path d="M159.14 136.07C164.376 136.07 168.62 129.05 168.62 120.39C168.62 111.73 164.376 104.71 159.14 104.71C153.904 104.71 149.66 111.73 149.66 120.39C149.66 129.05 153.904 136.07 159.14 136.07Z" fill="white" stroke="black" stroke-width="4"/>
<path d="M239.35 237.74L258.56 288.92C259.71 291.98 257.19 295.16 253.95 294.74L193.91 286.97" stroke="white" stroke-width="4" stroke-linecap="round"/>
<path d="M174.24 202.56C174.24 202.56 170.58 219.15 174.24 232.7" stroke="white" stroke-width="4" stroke-linecap="round"/>
<path d="M192 202.56C192 202.56 188.34 219.15 192 232.7" stroke="white" stroke-width="4" stroke-linecap="round"/>
<path d="M210 104L246.58 115.12" stroke="black" stroke-width="4" stroke-linecap="round"/>
<path d="M437.13 219.14C433.46 215.87 434.86 204.98 440.58 193.79C446.68 181.86 455.39 174.12 460.03 176.49" stroke="black" stroke-width="4" stroke-linecap="round"/>
<path d="M434.86 230.5C433.18 225.38 435.38 215.52 440.85 205.53C447.85 192.77 457.54 184.63 462.51 187.35" stroke="black" stroke-width="4" stroke-linecap="round"/>
<path d="M418.98 99.3999H387.94C386.769 99.3999 385.82 100.349 385.82 101.52V165.71C385.82 166.881 386.769 167.83 387.94 167.83H418.98C420.151 167.83 421.1 166.881 421.1 165.71V101.52C421.1 100.349 420.151 99.3999 418.98 99.3999Z" fill="black"/>
<path d="M389.25 105.64V105.71C389.25 107.49 390.69 108.93 392.47 108.93H400.59C402.37 108.93 403.81 107.49 403.81 105.71V105.64C403.81 103.86 402.37 102.42 400.59 102.42H392.47C390.69 102.42 389.25 103.86 389.25 105.64ZM390.76 105.67C390.76 104.47 391.74 103.49 392.94 103.49C394.14 103.49 395.12 104.47 395.12 105.67C395.12 106.87 394.14 107.85 392.94 107.85C391.74 107.85 390.76 106.87 390.76 105.67Z" fill="white"/>
<path d="M400.55 107.09C401.334 107.09 401.97 106.454 401.97 105.67C401.97 104.886 401.334 104.25 400.55 104.25C399.766 104.25 399.13 104.886 399.13 105.67C399.13 106.454 399.766 107.09 400.55 107.09Z" fill="black"/>
<path d="M449.439 283C441.233 283 432.667 277.457 432.163 266.875C432.019 263.852 433.063 257.076 434.169 251.938L434.538 250.238C438.767 230.666 443.15 210.438 435.078 192.136C429.868 191.794 419.349 187.664 416.434 185.135C414.985 184.074 410.567 180.69 409.739 178.378C409.667 178.171 409.595 177.964 409.541 177.766C408.812 177.514 408.083 177.253 407.346 176.992C405.87 176.47 404.403 175.93 403.017 175.426L402.667 175.3L399.004 173.834C398.023 173.438 397.205 173.114 396.62 172.88L395.63 172.493C393.074 171.485 391.734 168.66 392.561 166.059C392.705 165.6 392.912 165.168 393.173 164.772C391.14 163.756 390.087 161.425 390.735 159.184C391.32 157.151 393.209 155.729 395.315 155.729C395.765 155.729 396.206 155.792 396.638 155.918L403.836 158.033L417.469 159.742C417.406 159.688 417.1 159.436 417.1 159.436C416.767 159.166 416.434 158.887 416.083 158.618C415.39 158.078 414.688 157.538 413.977 157.025C413.266 156.512 412.538 156.017 411.8 155.531C411.431 155.288 411.062 155.054 410.702 154.829L410.144 154.487L409.739 154.244L408.578 153.731C408.029 153.489 407.499 153.237 406.959 152.985L406.797 152.913C406.32 152.688 405.834 152.463 405.357 152.22L405.15 152.121C404.682 151.896 404.223 151.671 403.764 151.428L402.226 150.618C401.857 150.42 401.47 150.204 401.083 149.988L399.832 149.277C397.798 148.135 395.981 145.444 396.503 142.907C396.692 141.962 397.529 139.721 401.146 139.334L401.641 139.28L402.091 139.487L403.899 140.288C404.043 140.351 404.187 140.423 404.322 140.477L405.069 140.774L405.663 141.017C405.942 141.134 406.221 141.251 406.518 141.368L408.047 141.962C408.29 142.052 408.533 142.142 408.776 142.232C409.046 142.331 409.316 142.43 409.577 142.538C410.036 142.718 410.504 142.88 410.972 143.051L411.071 143.087C411.584 143.275 412.088 143.446 412.592 143.626L413.356 143.887L414.094 144.13C414.256 144.184 414.427 144.256 414.571 144.328L415.453 144.76L416.173 145.129C416.659 145.381 417.127 145.633 417.586 145.885C418.503 146.389 419.421 146.929 420.312 147.469C421.203 148.018 422.094 148.593 422.967 149.178C423.111 149.277 423.246 149.367 423.389 149.466C423.497 149.412 423.614 149.367 423.731 149.331C424.253 149.169 424.856 149.088 425.513 149.088C428.24 149.088 431.83 150.474 433.27 151.428C436.995 153.902 439.037 156.575 440.684 158.725C440.981 159.121 441.278 159.499 441.566 159.859L442.115 160.543C443.618 162.397 447.127 166.725 451.275 172.691L451.32 172.745C451.455 172.898 451.581 173.051 451.707 173.213C456.233 178.954 460.264 186.161 463.036 193.468C472.655 219.113 471.323 246.89 468.516 265.688C466.077 278.483 456.719 282.991 449.448 282.991L449.439 283Z" fill="white"/>
<path d="M449.439 283V285H450.269L450.855 284.413L449.439 283ZM432.163 266.875L434.161 266.78L432.163 266.875ZM434.169 251.938L432.215 251.514L432.214 251.517L434.169 251.938ZM434.538 250.238L436.493 250.662L436.493 250.66L434.538 250.238ZM435.078 192.136L436.908 191.329L436.419 190.22L435.209 190.14L435.078 192.136ZM416.434 185.135L417.744 183.624L417.682 183.571L417.616 183.522L416.434 185.135ZM409.739 178.378L407.85 179.035L407.853 179.043L407.856 179.052L409.739 178.378ZM409.541 177.766L411.471 177.24L411.193 176.221L410.195 175.876L409.541 177.766ZM403.017 175.426L403.701 173.547L403.693 173.544L403.017 175.426ZM402.667 175.3L401.923 177.157L401.957 177.17L401.991 177.183L402.667 175.3ZM399.004 173.834L398.256 175.688L398.261 175.69L399.004 173.834ZM396.62 172.88L397.362 171.023L397.355 171.02L397.348 171.017L396.62 172.88ZM395.63 172.493L394.896 174.353L394.902 174.356L395.63 172.493ZM392.561 166.059L394.467 166.666L394.47 166.658L392.561 166.059ZM393.173 164.772L394.843 165.873L396.083 163.991L394.068 162.983L393.173 164.772ZM390.735 159.184L392.656 159.74L392.657 159.737L390.735 159.184ZM396.638 155.918L397.201 153.999L397.198 153.998L396.638 155.918ZM403.836 158.033L403.273 159.952L403.427 159.997L403.587 160.017L403.836 158.033ZM417.469 159.742L417.22 161.727C418.096 161.837 418.94 161.359 419.298 160.552C419.655 159.744 419.441 158.798 418.77 158.224L417.469 159.742ZM417.1 159.436L418.371 157.892L418.365 157.888L418.359 157.883L417.1 159.436ZM416.083 158.618L414.854 160.195L414.863 160.203L416.083 158.618ZM410.702 154.829L411.762 153.133L411.755 153.129L411.747 153.124L410.702 154.829ZM410.144 154.487L411.189 152.782L411.181 152.777L411.173 152.772L410.144 154.487ZM409.739 154.244L410.768 152.529L410.661 152.465L410.547 152.415L409.739 154.244ZM408.578 153.731L407.769 155.56L407.77 155.561L408.578 153.731ZM406.959 152.985L407.804 151.172L407.788 151.164L407.771 151.157L406.959 152.985ZM406.797 152.913L405.943 154.721L405.964 154.731L405.984 154.74L406.797 152.913ZM405.357 152.22L406.265 150.438L406.243 150.426L406.22 150.415L405.357 152.22ZM405.15 152.121L404.283 153.923L404.287 153.925L405.15 152.121ZM403.764 151.428L404.7 149.66L404.696 149.658L403.764 151.428ZM402.226 150.618L401.28 152.38L401.287 152.384L401.294 152.388L402.226 150.618ZM401.083 149.988L400.095 151.727L400.101 151.731L400.108 151.735L401.083 149.988ZM399.832 149.277L400.82 147.539L400.812 147.534L399.832 149.277ZM396.503 142.907L398.462 143.309L398.464 143.299L396.503 142.907ZM401.146 139.334L401.359 141.323L401.363 141.322L401.146 139.334ZM401.641 139.28L402.477 137.463L401.974 137.232L401.424 137.292L401.641 139.28ZM402.091 139.487L401.255 141.304L401.268 141.31L401.281 141.316L402.091 139.487ZM403.899 140.288L403.09 142.117L403.098 142.12L403.899 140.288ZM404.322 140.477L403.579 142.334L403.583 142.336L404.322 140.477ZM405.069 140.774L405.826 138.923L405.817 138.919L405.808 138.915L405.069 140.774ZM405.663 141.017L406.436 139.173L406.428 139.169L406.42 139.166L405.663 141.017ZM406.518 141.368L405.785 143.229L405.794 143.232L406.518 141.368ZM408.047 141.962L407.324 143.826L407.338 143.832L407.353 143.837L408.047 141.962ZM408.776 142.232L408.082 144.107L408.088 144.109L408.776 142.232ZM409.577 142.538L408.812 144.386L408.83 144.393L408.847 144.4L409.577 142.538ZM410.972 143.051L410.286 144.929L410.288 144.93L410.972 143.051ZM411.071 143.087L411.762 141.21L411.754 141.207L411.071 143.087ZM412.592 143.626L411.919 145.51L411.932 145.515L411.946 145.519L412.592 143.626ZM413.356 143.887L412.711 145.78L412.721 145.784L412.731 145.787L413.356 143.887ZM414.094 144.13L414.727 142.233L414.72 142.231L414.094 144.13ZM414.571 144.328L413.677 146.117L413.684 146.121L413.691 146.124L414.571 144.328ZM415.453 144.76L416.365 142.98L416.349 142.972L416.333 142.964L415.453 144.76ZM416.173 145.129L417.094 143.354L417.085 143.349L416.173 145.129ZM420.312 147.469L421.361 145.766L421.355 145.762L421.349 145.758L420.312 147.469ZM422.967 149.178L424.1 147.53L424.09 147.524L424.08 147.517L422.967 149.178ZM423.389 149.466L422.256 151.114L423.229 151.783L424.284 151.255L423.389 149.466ZM423.731 149.331L424.32 151.243L424.324 151.241L423.731 149.331ZM433.27 151.428L434.376 149.762L434.374 149.761L433.27 151.428ZM440.684 158.725L442.284 157.525L442.278 157.518L442.272 157.51L440.684 158.725ZM441.566 159.859L440.004 161.109L440.006 161.111L441.566 159.859ZM442.115 160.543L440.555 161.795L440.561 161.803L442.115 160.543ZM451.275 172.691L449.633 173.833L449.683 173.904L449.739 173.971L451.275 172.691ZM451.32 172.745L449.784 174.025L449.802 174.047L449.82 174.068L451.32 172.745ZM451.707 173.213L450.128 174.441L450.136 174.451L451.707 173.213ZM463.036 193.468L464.908 192.765L464.906 192.758L463.036 193.468ZM468.516 265.688L470.48 266.062L470.488 266.023L470.494 265.983L468.516 265.688ZM449.448 282.991V280.991H448.618L448.032 281.579L449.448 282.991ZM449.439 283V281C442.058 281 434.603 276.069 434.161 266.78L432.163 266.875L430.165 266.971C430.731 278.846 440.408 285 449.439 285V283ZM432.163 266.875L434.161 266.78C434.098 265.473 434.297 263.186 434.678 260.478C435.052 257.815 435.581 254.884 436.125 252.359L434.169 251.938L432.214 251.517C431.651 254.131 431.105 257.157 430.717 259.922C430.334 262.642 430.083 265.255 430.165 266.971L432.163 266.875ZM434.169 251.938L436.124 252.362L436.493 250.662L434.538 250.238L432.584 249.814L432.215 251.514L434.169 251.938ZM434.538 250.238L436.493 250.66C440.69 231.237 445.288 210.331 436.908 191.329L435.078 192.136L433.248 192.943C441.011 210.546 436.845 230.096 432.583 249.815L434.538 250.238ZM435.078 192.136L435.209 190.14C432.912 189.989 429.207 188.96 425.609 187.587C423.838 186.911 422.153 186.175 420.748 185.464C419.308 184.734 418.282 184.091 417.744 183.624L416.434 185.135L415.123 186.646C416.043 187.444 417.426 188.265 418.941 189.032C420.491 189.817 422.307 190.608 424.182 191.324C427.875 192.733 432.035 193.941 434.947 194.132L435.078 192.136ZM416.434 185.135L417.616 183.522C416.917 183.01 415.515 181.947 414.202 180.748C413.545 180.148 412.939 179.541 412.462 178.974C411.963 178.379 411.71 177.949 411.622 177.704L409.739 178.378L407.856 179.052C408.182 179.962 408.792 180.823 409.399 181.546C410.029 182.296 410.774 183.035 411.506 183.703C412.97 185.04 414.502 186.199 415.252 186.748L416.434 185.135ZM409.739 178.378L411.628 177.721C411.551 177.5 411.503 177.359 411.471 177.24L409.541 177.766L407.612 178.292C407.687 178.568 407.783 178.842 407.85 179.035L409.739 178.378ZM409.541 177.766L410.195 175.876C409.475 175.627 408.76 175.371 408.012 175.106L407.346 176.992L406.679 178.877C407.407 179.135 408.15 179.401 408.888 179.656L409.541 177.766ZM407.346 176.992L408.012 175.106C406.548 174.588 405.097 174.054 403.701 173.547L403.017 175.426L402.334 177.306C403.71 177.806 405.192 178.352 406.679 178.877L407.346 176.992ZM403.017 175.426L403.693 173.544L403.342 173.418L402.667 175.3L401.991 177.183L402.342 177.309L403.017 175.426ZM402.667 175.3L403.41 173.444L399.748 171.977L399.004 173.834L398.261 175.69L401.923 177.157L402.667 175.3ZM399.004 173.834L399.753 171.979C398.769 171.582 397.938 171.253 397.362 171.023L396.62 172.88L395.877 174.737C396.471 174.974 397.278 175.293 398.256 175.688L399.004 173.834ZM396.62 172.88L397.348 171.017L396.358 170.63L395.63 172.493L394.902 174.356L395.892 174.742L396.62 172.88ZM395.63 172.493L396.364 170.632C394.784 170.009 393.96 168.26 394.467 166.666L392.561 166.059L390.656 165.452C389.508 169.059 391.365 172.961 394.896 174.353L395.63 172.493ZM392.561 166.059L394.47 166.658C394.557 166.38 394.683 166.116 394.843 165.873L393.173 164.772L391.503 163.672C391.142 164.22 390.854 164.821 390.653 165.46L392.561 166.059ZM393.173 164.772L394.068 162.983C392.89 162.394 392.279 161.046 392.656 159.74L390.735 159.184L388.814 158.629C387.895 161.804 389.39 165.117 392.279 166.561L393.173 164.772ZM390.735 159.184L392.657 159.737C392.996 158.559 394.103 157.729 395.315 157.729V155.729V153.729C392.316 153.729 389.644 155.743 388.813 158.632L390.735 159.184ZM395.315 155.729V157.729C395.575 157.729 395.828 157.765 396.078 157.838L396.638 155.918L397.198 153.998C396.584 153.819 395.954 153.729 395.315 153.729V155.729ZM396.638 155.918L396.074 157.837L403.273 159.952L403.836 158.033L404.4 156.114L397.201 153.999L396.638 155.918ZM403.836 158.033L403.587 160.017L417.22 161.727L417.469 159.742L417.718 157.758L404.085 156.048L403.836 158.033ZM417.469 159.742L418.77 158.224C418.722 158.182 418.612 158.091 418.535 158.028C418.492 157.992 418.451 157.958 418.421 157.934C418.406 157.921 418.393 157.911 418.385 157.904C418.381 157.9 418.377 157.897 418.375 157.895C418.374 157.895 418.373 157.894 418.372 157.893C418.372 157.893 418.372 157.893 418.371 157.893C418.371 157.893 418.371 157.893 418.371 157.893C418.371 157.893 418.371 157.893 418.371 157.892C418.371 157.892 418.371 157.892 418.371 157.892C418.371 157.892 418.371 157.892 417.1 159.436C415.828 160.98 415.828 160.98 415.828 160.98C415.828 160.98 415.828 160.98 415.828 160.98C415.828 160.98 415.828 160.98 415.828 160.98C415.828 160.98 415.828 160.98 415.829 160.98C415.829 160.98 415.829 160.981 415.829 160.981C415.83 160.981 415.83 160.982 415.832 160.983C415.834 160.985 415.837 160.987 415.841 160.991C415.849 160.998 415.861 161.008 415.876 161.02C415.905 161.044 415.945 161.076 415.986 161.111C416.028 161.145 416.07 161.18 416.106 161.21C416.124 161.224 416.139 161.237 416.15 161.247C416.164 161.258 416.168 161.262 416.167 161.261L417.469 159.742ZM417.1 159.436L418.359 157.883C418.059 157.64 417.68 157.323 417.302 157.032L416.083 158.618L414.863 160.203C415.188 160.452 415.474 160.693 415.84 160.99L417.1 159.436ZM416.083 158.618L417.312 157.04C416.615 156.497 415.889 155.938 415.148 155.403L413.977 157.025L412.807 158.647C413.487 159.137 414.165 159.659 414.854 160.195L416.083 158.618ZM413.977 157.025L415.148 155.403C414.406 154.868 413.653 154.357 412.9 153.861L411.8 155.531L410.7 157.201C411.423 157.678 412.127 158.156 412.807 158.647L413.977 157.025ZM411.8 155.531L412.9 153.861C412.512 153.606 412.129 153.363 411.762 153.133L410.702 154.829L409.642 156.525C409.995 156.746 410.349 156.971 410.7 157.201L411.8 155.531ZM410.702 154.829L411.747 153.124L411.189 152.782L410.144 154.487L409.099 156.193L409.657 156.534L410.702 154.829ZM410.144 154.487L411.173 152.772L410.768 152.529L409.739 154.244L408.71 155.959L409.115 156.202L410.144 154.487ZM409.739 154.244L410.547 152.415L409.387 151.902L408.578 153.731L407.77 155.561L408.931 156.074L409.739 154.244ZM408.578 153.731L409.388 151.903C408.863 151.67 408.36 151.431 407.804 151.172L406.959 152.985L406.113 154.797C406.637 155.042 407.196 155.307 407.769 155.56L408.578 153.731ZM406.959 152.985L407.771 151.157L407.609 151.085L406.797 152.913L405.984 154.74L406.146 154.812L406.959 152.985ZM406.797 152.913L407.65 151.104C407.155 150.87 406.707 150.663 406.265 150.438L405.357 152.22L404.449 154.002C404.961 154.263 405.485 154.505 405.943 154.721L406.797 152.913ZM405.357 152.22L406.22 150.415L406.013 150.317L405.15 152.121L404.287 153.925L404.494 154.024L405.357 152.22ZM405.15 152.121L406.017 150.318C405.556 150.097 405.124 149.885 404.7 149.66L403.764 151.428L402.829 153.195C403.322 153.457 403.808 153.695 404.283 153.923L405.15 152.121ZM403.764 151.428L404.696 149.658L403.157 148.848L402.226 150.618L401.294 152.388L402.833 153.198L403.764 151.428ZM402.226 150.618L403.171 148.856C402.82 148.667 402.447 148.459 402.058 148.242L401.083 149.988L400.108 151.735C400.492 151.949 400.894 152.173 401.28 152.38L402.226 150.618ZM401.083 149.988L402.071 148.249L400.82 147.539L399.832 149.277L398.844 151.016L400.095 151.727L401.083 149.988ZM399.832 149.277L400.812 147.534C400.129 147.15 399.422 146.461 398.948 145.627C398.476 144.796 398.323 143.983 398.462 143.309L396.503 142.907L394.544 142.504C394.16 144.367 394.655 146.169 395.47 147.603C396.283 149.034 397.501 150.262 398.852 151.021L399.832 149.277ZM396.503 142.907L398.464 143.299C398.51 143.068 398.642 142.657 398.994 142.283C399.316 141.942 399.97 141.471 401.359 141.323L401.146 139.334L400.933 137.346C398.704 137.584 397.131 138.428 396.083 139.539C395.065 140.619 394.684 141.8 394.542 142.514L396.503 142.907ZM401.146 139.334L401.363 141.322L401.858 141.268L401.641 139.28L401.424 137.292L400.929 137.346L401.146 139.334ZM401.641 139.28L400.805 141.097L401.255 141.304L402.091 139.487L402.926 137.67L402.477 137.463L401.641 139.28ZM402.091 139.487L401.281 141.316L403.09 142.117L403.899 140.288L404.709 138.459L402.9 137.658L402.091 139.487ZM403.899 140.288L403.098 142.12C403.147 142.142 403.19 142.162 403.278 142.203C403.352 142.237 403.461 142.287 403.579 142.334L404.322 140.477L405.065 138.62C404.942 138.571 405.004 138.588 404.701 138.456L403.899 140.288ZM404.322 140.477L403.583 142.336L404.33 142.632L405.069 140.774L405.808 138.915L405.061 138.619L404.322 140.477ZM405.069 140.774L404.312 142.625L404.906 142.868L405.663 141.017L406.42 139.166L405.826 138.923L405.069 140.774ZM405.663 141.017L404.889 142.861C405.166 142.977 405.464 143.102 405.785 143.229L406.518 141.368L407.251 139.507C406.977 139.399 406.718 139.291 406.436 139.173L405.663 141.017ZM406.518 141.368L405.794 143.232L407.324 143.826L408.047 141.962L408.771 140.097L407.242 139.503L406.518 141.368ZM408.047 141.962L407.353 143.837C407.474 143.882 407.596 143.927 407.717 143.972C407.839 144.017 407.96 144.062 408.082 144.107L408.776 142.232L409.471 140.356C409.349 140.311 409.228 140.266 409.107 140.221C408.985 140.176 408.864 140.131 408.742 140.086L408.047 141.962ZM408.776 142.232L408.088 144.109C408.365 144.211 408.596 144.296 408.812 144.386L409.577 142.538L410.342 140.69C410.037 140.563 409.728 140.45 409.465 140.354L408.776 142.232ZM409.577 142.538L408.847 144.4C409.334 144.591 409.861 144.774 410.286 144.929L410.972 143.051L411.658 141.172C411.147 140.985 410.738 140.845 410.307 140.676L409.577 142.538ZM410.972 143.051L410.288 144.93L410.387 144.966L411.071 143.087L411.754 141.207L411.655 141.171L410.972 143.051ZM411.071 143.087L410.379 144.963C410.898 145.154 411.462 145.347 411.919 145.51L412.592 143.626L413.264 141.743C412.714 141.546 412.27 141.397 411.762 141.21L411.071 143.087ZM412.592 143.626L411.946 145.519L412.711 145.78L413.356 143.887L414.002 141.995L413.237 141.734L412.592 143.626ZM413.356 143.887L412.731 145.787L413.469 146.03L414.094 144.13L414.72 142.231L413.982 141.988L413.356 143.887ZM414.094 144.13L413.462 146.028C413.529 146.05 413.612 146.085 413.677 146.117L414.571 144.328L415.466 142.539C415.242 142.428 414.984 142.319 414.727 142.233L414.094 144.13ZM414.571 144.328L413.691 146.124L414.573 146.556L415.453 144.76L416.333 142.964L415.451 142.532L414.571 144.328ZM415.453 144.76L414.541 146.54L415.261 146.909L416.173 145.129L417.085 143.349L416.365 142.98L415.453 144.76ZM416.173 145.129L415.252 146.905C415.72 147.147 416.174 147.391 416.623 147.638L417.586 145.885L418.548 144.132C418.08 143.875 417.597 143.615 417.094 143.354L416.173 145.129ZM417.586 145.885L416.623 147.638C417.507 148.124 418.399 148.648 419.275 149.179L420.312 147.469L421.349 145.758C420.444 145.21 419.5 144.654 418.548 144.132L417.586 145.885ZM420.312 147.469L419.263 149.171C420.129 149.705 420.999 150.267 421.853 150.84L422.967 149.178L424.08 147.517C423.189 146.92 422.277 146.33 421.361 145.766L420.312 147.469ZM422.967 149.178L421.834 150.826C421.912 150.88 421.987 150.931 422.056 150.978C422.127 151.026 422.191 151.069 422.256 151.114L423.389 149.466L424.523 147.818C424.444 147.764 424.369 147.713 424.3 147.666C424.229 147.619 424.165 147.575 424.1 147.53L422.967 149.178ZM423.389 149.466L424.284 151.255C424.279 151.258 424.28 151.257 424.287 151.254C424.295 151.251 424.305 151.247 424.32 151.243L423.731 149.331L423.143 147.42C422.941 147.482 422.718 147.566 422.495 147.677L423.389 149.466ZM423.731 149.331L424.324 151.241C424.616 151.151 425.013 151.088 425.513 151.088V149.088V147.088C424.699 147.088 423.89 147.188 423.139 147.421L423.731 149.331ZM425.513 149.088V151.088C426.582 151.088 427.936 151.369 429.25 151.801C430.568 152.233 431.645 152.751 432.165 153.095L433.27 151.428L434.374 149.761C433.454 149.151 432.016 148.499 430.498 148C428.975 147.5 427.17 147.088 425.513 147.088V149.088ZM433.27 151.428L432.163 153.094C435.593 155.372 437.468 157.815 439.096 159.941L440.684 158.725L442.272 157.51C440.607 155.335 438.396 152.432 434.376 149.762L433.27 151.428ZM440.684 158.725L439.084 159.925C439.398 160.344 439.709 160.74 440.004 161.109L441.566 159.859L443.128 158.61C442.847 158.259 442.564 157.899 442.284 157.525L440.684 158.725ZM441.566 159.859L440.006 161.111L440.555 161.795L442.115 160.543L443.675 159.291L443.126 158.607L441.566 159.859ZM442.115 160.543L440.561 161.803C442.055 163.645 445.527 167.928 449.633 173.833L451.275 172.691L452.917 171.549C448.726 165.522 445.181 161.149 443.668 159.284L442.115 160.543ZM451.275 172.691L449.739 173.971L449.784 174.025L451.32 172.745L452.856 171.464L452.811 171.41L451.275 172.691ZM451.32 172.745L449.82 174.068C449.925 174.187 450.025 174.308 450.128 174.441L451.707 173.213L453.286 171.985C453.137 171.794 452.985 171.609 452.82 171.422L451.32 172.745ZM451.707 173.213L450.136 174.451C454.528 180.021 458.462 187.048 461.166 194.177L463.036 193.468L464.906 192.758C462.067 185.274 457.938 177.886 453.278 171.974L451.707 173.213ZM463.036 193.468L461.163 194.17C470.609 219.353 469.324 246.736 466.538 265.392L468.516 265.688L470.494 265.983C473.322 247.045 474.701 218.873 464.908 192.765L463.036 193.468ZM468.516 265.688L466.551 265.313C464.316 277.043 455.889 280.991 449.448 280.991V282.991V284.991C457.549 284.991 467.839 279.923 470.48 266.062L468.516 265.688ZM449.448 282.991L448.032 281.579L448.023 281.588L449.439 283L450.855 284.413L450.864 284.404L449.448 282.991Z" fill="black"/>
<path d="M460.03 176.49C464.67 178.86 463.48 190.46 457.38 202.39C451.28 214.32 442.57 222.06 437.93 219.69C437.64 219.54 437.37 219.36 437.13 219.14" stroke="black" stroke-width="4" stroke-linecap="round"/>
<path d="M435.95 232.55C435.49 232 435.13 231.31 434.86 230.5" stroke="black" stroke-width="4" stroke-linecap="round"/>
<path d="M462.51 187.35C467.47 190.07 465.83 202.62 458.83 215.39C451.83 228.15 442.14 236.29 437.17 233.57C436.7 233.31 436.3 232.97 435.94 232.55" stroke="black" stroke-width="4" stroke-linecap="round"/>
<path d="M393.73 93.25V89" stroke="black" stroke-width="4" stroke-linecap="round"/>
<path d="M380.26 107.16H376" stroke="black" stroke-width="4" stroke-linecap="round"/>
<path d="M382.54 94.7398L379.51 91.7598" stroke="black" stroke-width="4" stroke-linecap="round"/>
<path d="M311.31 343.9L368.54 347.15L370.03 337.54H313.96L311.31 343.9Z" fill="black"/>
<path d="M314.86 354.25C316.82 354.25 318.41 352.661 318.41 350.7C318.41 348.739 316.82 347.15 314.86 347.15C312.899 347.15 311.31 348.739 311.31 350.7C311.31 352.661 312.899 354.25 314.86 354.25Z" fill="black"/>
<path d="M167.58 69.1736C182.92 71.2136 191.09 85.3936 189.51 95.1936C189.55 95.8836 170.14 101.914 161.84 98.8336C162.23 97.7536 162.75 96.7736 163.36 95.8636C158.15 97.7836 153.03 98.6536 148.87 94.1536C139.21 98.2436 130.94 99.8136 125 81.9136C133.36 87.2236 151.24 66.9936 167.58 69.1636V69.1736Z" fill="black"/>
</svg>
