<svg width="465" height="500" viewBox="0 0 465 500" fill="none" xmlns="http://www.w3.org/2000/svg">
<path d="M358.09 425.026L321.26 375.886L344.11 318.796L378.71 391.806C385.7 406.556 375.76 424.146 359.47 424.986C359.02 425.006 358.56 425.026 358.1 425.026H358.09Z" fill="white" stroke="black" stroke-width="4" stroke-miterlimit="10"/>
<path d="M267.59 270.756L266.99 236.836L258.14 233.666L258.3 242.066L234.85 256.366L205.05 241.176L204.15 233.666H201.47C201.11 233.666 200.75 233.726 200.41 233.856L194.89 235.916C193.06 236.596 191.83 238.326 191.77 240.276L191.03 265.186L267.58 270.766L267.59 270.756Z" fill="#FF0077"/>
<path d="M222 216.996C220.895 216.996 220 217.892 220 218.996C220 220.101 220.895 220.996 222 220.996V218.996V216.996ZM265 148.996H263V198.996H265H267V148.996H265ZM245 218.996V216.996H222V218.996V220.996H245V218.996ZM265 198.996H263C263 208.937 254.941 216.996 245 216.996V218.996V220.996C257.15 220.996 267 211.147 267 198.996H265Z" fill="black"/>
<path d="M279.12 118.046C278.07 110.906 274.79 104.636 265.97 102.426C260.47 101.046 256.12 102.406 253.81 103.476C253.6 103.236 253.37 102.996 253.13 102.766C255.64 98.5863 260.66 87.4863 251.04 77.2663C242.03 67.6863 232.23 71.8263 223.58 84.4363C216.89 94.2163 205.74 94.2863 202.69 101.316C199.58 108.486 201.97 118.056 201.97 118.056C201.97 118.056 192.15 115.406 182.11 124.436C173.09 133.246 178.23 143.116 180.83 145.976C183.28 148.666 185.91 150.546 185.91 150.546C185.31 154.166 183.37 161.976 185.02 169.976C187.33 181.176 206.1 194.686 206.1 194.686C206.34 194.906 207.2 153.476 207.2 153.476L229.72 136.296C229.72 136.296 229.14 144.426 237.5 149.786C248.75 157.006 259.24 149.116 259.24 149.116C259.24 149.116 263.68 154.256 268.57 151.856C273.46 149.446 270.99 140.796 270.99 140.796C270.99 140.796 280.6 128.136 279.13 118.076L279.12 118.046Z" fill="black"/>
<path d="M260.006 187.806C266.252 187.696 271.204 181.318 271.067 173.559C270.93 165.801 265.756 159.601 259.511 159.711C253.266 159.821 248.314 166.2 248.45 173.958C248.587 181.716 253.761 187.917 260.006 187.806Z" fill="white" stroke="black" stroke-width="4" stroke-miterlimit="10"/>
<path d="M229.921 187.807C236.166 187.697 241.118 181.318 240.981 173.56C240.845 165.801 235.671 159.601 229.425 159.711C223.18 159.821 218.228 166.2 218.365 173.958C218.502 181.717 223.675 187.917 229.921 187.807Z" fill="white" stroke="black" stroke-width="4" stroke-miterlimit="10"/>
<path d="M211.47 174.496C208.04 170.786 202.7 170.586 200.74 174.686C198.78 178.786 202.04 187.096 208.19 185.866C214.34 184.636 211.47 174.496 211.47 174.496Z" fill="white"/>
<path d="M206.5 171.326C206.5 171.326 204.255 170.951 202.317 171.326C200.538 171.668 198.178 173.272 197.505 175.275C195.544 181.112 199.489 187.996 206 187.996" fill="white"/>
<path d="M206.5 171.326C206.5 171.326 204.255 170.951 202.317 171.326C200.538 171.668 198.178 173.272 197.505 175.275C195.544 181.112 199.489 187.996 206 187.996" stroke="black" stroke-width="4" stroke-miterlimit="10"/>
<path d="M353.73 340.186L327.34 284.236C316.92 262.036 308.06 257.196 268.85 249.566L234.66 257.576L189.21 249.606C189.21 249.606 154.85 252.946 136.56 277.456C118.27 301.956 98.1099 332.666 98.1099 332.666L134.45 370.596L153.26 348.706L153.98 425.796L307.03 425.906L306.01 361.216C305.97 358.916 308.97 357.986 310.24 359.906L321.5 376.936L353.71 340.186H353.73Z" fill="#FF0077"/>
<path d="M253.49 425.756L239.29 272.236L243.96 266.486L234.53 254.716L225.59 266.666L230.34 272.736L218.15 426.056H226.47L253.49 425.756Z" fill="black"/>
<path d="M228 217.996H255V240.996L228 217.996Z" fill="black"/>
<path d="M155.49 425.806L155.03 349.406C155.02 348.316 153.65 347.826 152.95 348.676L133.26 371.326L98.1099 332.676L136.56 277.466C144.31 266.336 155.97 258.526 169.21 255.586L192.38 250.446L192.27 242.216C192.24 240.096 193.43 238.136 195.32 237.186L204.51 232.556V241.126L234.53 254.726L256.72 240.976V233.466" stroke="black" stroke-width="4" stroke-miterlimit="10"/>
<path d="M256.72 240.246V231.676L265.91 236.306C267.81 237.266 268.99 239.216 268.96 241.336L268.85 249.566L292.02 254.706C292.68 254.856 293.34 255.016 293.99 255.186C308.65 259.016 320.82 269.226 327.84 282.646L353.72 340.186L321.25 375.886L309.84 359.976C309 358.806 307.15 359.396 307.14 360.836L307.02 425.906" stroke="black" stroke-width="4" stroke-miterlimit="10"/>
<path d="M192.38 250.436L214.43 274.386L234.86 256.366L253.49 274.466L268.67 249.616" stroke="black" stroke-width="4" stroke-miterlimit="10" stroke-linecap="round"/>
<path d="M343.658 240.826C343.709 240.826 343.949 240.824 344.225 240.864L344.226 240.862C346.282 241.129 347.782 242.799 348.023 244.784L348.903 252.007L349.815 245.008C350.094 242.841 351.906 241.223 354.095 241.187H354.258C356.599 241.187 358.492 242.936 358.675 245.222L358.688 245.444V245.45L359.003 256.81L362.023 246.771L362.024 246.765C362.59 244.903 364.288 243.646 366.229 243.646C366.791 243.647 367.337 243.758 367.835 243.953H367.836L368.476 244.203L368.488 244.208L368.671 244.285C370.533 245.124 371.578 247.138 371.168 249.155L371.167 249.158C370.871 250.598 370.588 251.985 370.315 253.315C371.11 252.669 372.109 252.276 373.198 252.276C373.277 252.276 373.535 252.273 373.85 252.33L373.851 252.329C375.01 252.506 376.058 253.099 376.795 254.016L376.938 254.203L376.944 254.212L376.951 254.222C377.673 255.243 377.953 256.521 377.725 257.751L377.722 257.77L377.718 257.788L366.509 312.463L382.731 377.307C385.727 386.961 387.54 394.897 388.135 401.288C388.727 407.653 388.138 412.737 386.056 416.479C384.07 420.046 380.822 422.292 376.453 423.432L376.446 423.434C373.474 424.198 370.585 424.606 367.868 424.606H365.868V424.51C356.99 423.835 349.986 418.633 345.575 409.713V409.712C340.765 399.977 340.269 388.736 340.269 384.416C340.269 369.203 340.316 352.668 340.363 339.892C340.387 333.503 340.411 328.054 340.429 324.18C340.438 322.243 340.445 320.699 340.45 319.629C340.453 319.094 340.455 318.677 340.456 318.389C340.457 318.244 340.458 318.131 340.458 318.053V317.77L340.482 317.615C340.559 317.127 340.503 316.26 340.215 314.989C339.938 313.765 339.489 312.344 338.939 310.833C337.84 307.81 336.399 304.596 335.294 302.136C334.77 300.969 334.295 299.916 333.961 299.113V299.112L332.701 296.084L332.697 296.075L326.848 281.805L326.036 279.825L328.065 279.148L328.576 278.979L328.585 278.976L329.196 280.841C328.61 279.052 328.587 278.979 328.586 278.976L328.589 278.975C328.59 278.974 328.592 278.974 328.593 278.974C328.595 278.973 328.598 278.972 328.601 278.971C328.606 278.969 328.612 278.967 328.619 278.965C328.633 278.96 328.65 278.955 328.669 278.949C328.707 278.938 328.755 278.925 328.812 278.91C328.927 278.88 329.079 278.844 329.264 278.81C329.633 278.741 330.141 278.676 330.748 278.676C332.518 278.676 335.08 279.213 337.735 281.405L338.48 270.599L339.27 245.084C339.343 242.707 341.275 240.826 343.658 240.826Z" fill="white" stroke="black" stroke-width="4"/>
<path d="M37 425.906H153.98H427.92" fill="white"/>
<path d="M37 425.906H153.98H427.92" stroke="black" stroke-width="4" stroke-miterlimit="10" stroke-linecap="round"/>
<path d="M273.712 126.726C271.132 124.626 269.632 121.516 267.122 119.426C266.532 120.186 266.062 121.056 265.652 121.936C262.572 128.706 262.152 136.646 264.512 143.706C265.492 146.626 265.452 148.826 265.632 151.826C265.742 153.626 266.472 154.196 268.292 154.106C272.452 153.886 277.532 150.796 279.982 147.556C281.602 145.406 282.792 140.196 282.102 137.586C280.452 131.326 274.512 127.396 273.702 126.726H273.712Z" fill="black"/>
<path d="M204.25 127.596C213.898 127.596 221.72 122.269 221.72 115.696C221.72 109.124 213.898 103.796 204.25 103.796C194.601 103.796 186.78 109.124 186.78 115.696C186.78 122.269 194.601 127.596 204.25 127.596Z" fill="black"/>
<path d="M204.5 241.496V187.996" stroke="black" stroke-width="4"/>
<path d="M133.385 371.071L116.883 391.824C115.409 393.678 116.563 396.429 118.919 396.675L184.104 403.486L184.121 403.488L184.137 403.489C187.672 403.8 191.012 404.832 194.167 406.496L220.711 425.996H80.3125C66.4972 425.996 58.1983 419.59 54.5908 412.581C51.9117 407.376 52.8981 401.223 55.4766 395.174C58.038 389.166 61.9796 383.71 64.5479 380.171L64.5596 380.156L98.6768 332.198L133.385 371.071Z" fill="white" stroke="black" stroke-width="4"/>
</svg>
