<svg width="500" height="700" viewBox="0 0 500 700" fill="none" xmlns="http://www.w3.org/2000/svg">
<path d="M86 645.8H414" stroke="black" stroke-width="4" stroke-linecap="round"/>
<path d="M311.7 258.2L278.1 235.7L305.8 198.8L350.3 242.8C358.2 250.7 356.9 263.9 347.5 270L296.5 303.3L298.6 314.9C298.9 316.4 300 317.6 301.4 317.9C303.9 318.5 307.7 319.5 309.9 320.1C317.7 322.2 314.8 328.1 314.8 328.1L289.4 325.4L278.7 297.4L298.1 279.8L312.4 266C314.7 263.8 314.3 260.1 311.7 258.3V258.2Z" fill="white" stroke="black" stroke-width="4"/>
<path d="M170.901 312.3L179.701 316.6L175.701 319.2L173.001 322.2C171.801 321.8 161.501 318.3 158.101 317.2L158.801 316C161.201 311.8 166.601 310.2 170.901 312.3Z" fill="black"/>
<path d="M304.8 310.7L297.2 314.4L300 317.6L305.9 320.1C307.1 319.7 314.2 316.8 317.6 315.6L316.9 314.4C314.5 310.2 309.1 308.6 304.8 310.7Z" fill="black"/>
<path d="M268.9 624L264.2 582.9H288.7L293.4 624H268.9Z" fill="white" stroke="black" stroke-width="4"/>
<path d="M213.5 624.2L214.8 583.1H241.2V624.2H213.5Z" fill="white" stroke="black" stroke-width="4"/>
<path d="M231.1 299.7L290.9 320.5L337.8 591.7H263.2L231.1 299.7Z" fill="black"/>
<path d="M177.4 282L196.8 299.6L183 326.7L160.6 330.3C160.6 330.3 157.7 324.3 165.5 322.3C167.7 321.7 171.5 320.8 174 320.1C176.5 319.4 176.6 318.5 176.8 317.1L178.9 305.5L133.3 279.2C118.5 272 116.6 255.6 125.4 241.8L137.3 221.3L183 230.5L160.5 262.6C159.7 263.7 159.9 265.1 160.9 266L186.6 290.8" fill="white"/>
<path d="M177.4 282L196.8 299.6L183 326.7L160.6 330.3C160.6 330.3 157.7 324.3 165.5 322.3C167.7 321.7 171.5 320.8 174 320.1C176.5 319.4 176.6 318.5 176.8 317.1L178.9 305.5L133.3 279.2C118.5 272 116.6 255.6 125.4 241.8L137.3 221.3L183 230.5L160.5 262.6C159.7 263.7 159.9 265.1 160.9 266L186.6 290.8" stroke="black" stroke-width="4"/>
<path d="M183 325.2L252.6 312L242.8 592.1H174.6L172.5 473.9C172.2 458.5 171.5 443.2 170.2 427.8L166.7 384.9C166.1 377.5 167.1 370 169.5 362.9L182.8 325L183 325.2Z" fill="black"/>
<path d="M323.6 216.3L280.9 174.4C273.4 167.1 263.3 163.1 252.8 163.3L198.9 164.5L183.5 169.7L185.3 325.2L288.7 318.7L275.9 237.2C275.7 236 277 235 278.1 235.7L303.4 252.7L323.6 216.3Z" fill="#FF0077" stroke="black" stroke-width="4"/>
<path d="M225.7 157.6L196.8 167.9C200.3 178.9 214.2 184.3 229 179.8C238.9 176.8 243.1 172.4 245.9 165L225.6 157.5L225.7 157.6Z" fill="white"/>
<path d="M239.1 158.9L223.8 125.9L198.6 127.6L199.3 166.3L225.3 169.6L239.1 159V158.9Z" fill="white"/>
<path d="M237 154.4L223.8 125.9L219.6 148.4L237 154.4Z" fill="#FF0077"/>
<path d="M195.2 172.5C193.1 171.1 190.8 170.1 188.2 169.5C188.1 169.5 187.9 169.5 187.8 169.5C176.8 167.4 165.7 172.3 159.7 181.7L134.7 222.8L175 243.2L201.2 205.7C208.8 194.9 206.3 179.7 195.3 172.4L195.2 172.5Z" fill="#FF0077"/>
<path d="M199.4 130.8C184.8 126.7 176.1 118.4 173.6 101.2C171.1 84.1 191.9 88.2 191.9 88.2C191.9 88.2 189.7 79.7 192.4 73.2C195.1 66.9 205 66.7 210.9 57.9C218.5 46.6 227.2 42.8 235.4 51.2C246.4 62.6 236.5 75.5 236.5 75.5C236.5 75.5 241.6 71.7 249 73.5C256.9 75.4 260.8 80.9 260.9 87.3C261.1 95.8 254.8 100.6 249.3 101.6C249.3 101.6 250 104.5 247.4 108.6C245.5 111.6 237.8 116.3 228.9 114.2C220 112.1 199.4 130.5 199.4 130.5V130.8Z" fill="black"/>
<path d="M216.6 83.4L229.5 79.5L242.2 120.4C246.1 133.1 239.3 145.8 226.6 149.7C213.9 153.6 200.5 146.4 196.6 133.7L194.1 125.5C188.7 107.7 198.7 88.8 216.5 83.4H216.6Z" fill="white"/>
<path d="M196.1 129.8C196.1 129.8 207 123.3 210.7 114.5C214.5 105.8 211.4 98.6999 211.4 98.6999C211.4 98.6999 218.8 100.6 225.7 98.8999C233.8 96.8999 237 92.8999 237 92.8999C237 92.8999 237 74.9999 229.4 74.0999C221.8 73.1999 203.7 83.0999 200.9 88.2999C198.1 93.4999 194.3 102.7 191.9 110.1C189.6 117.5 196.1 129.8 196.1 129.8Z" fill="black"/>
<path d="M189.9 127.3C190.9 124.2 194.8 123 197.9 124.1C201 125.1 202.5 128.4 201.7 131.7C204.8 147.1 198.7 142.8 195.1 141.7C191.7 140.6 188.8 130.5 189.9 127.3Z" fill="white"/>
<path d="M203 141.3C202.3 141.5 201.5 141.3 201 140.6L194.6 130.5C194.1 129.7 194.3 128.6 195.1 128.1C195.9 127.6 197 127.8 197.5 128.6L203.9 138.7C204.4 139.5 204.2 140.6 203.4 141.1C203.3 141.1 203.1 141.3 203 141.3Z" fill="black"/>
<path d="M188.2 124.2C184.1 135.6 193.8 142.4 198.2 144.4L199 164.5L174.6 172.8C166 176.8 164.8 173.4 135.1 225.1" stroke="black" stroke-width="4"/>
<path d="M197 133C198.8 132.5 199.8 130.6 199.2 128.8C198.7 127 196.8 126 195 126.6C193.2 127.1 192.2 129 192.8 130.8C193.3 132.6 195.2 133.6 197 133Z" fill="black"/>
<path d="M204.8 134.4C204.8 134.4 222.5 123.7 230.4 121.3C238.3 118.9 243.3 119.8 243.3 119.8L249.9 141.4C253 151.5 247.3 162.2 237.2 165.3L234.5 166.1C224.4 169.2 213.7 163.5 210.6 153.4L204.8 134.3V134.4Z" fill="black"/>
<path d="M200.9 126.3L204.8 134.4C204.8 134.4 212.2 132.8 211.8 132.3C211.4 131.7 204.3 116.9 204.3 116.9L200.9 126.3Z" fill="black"/>
<path d="M175.6 242.7L134.6 222.8L163.3 260.6L175.7 242.7H175.6Z" fill="black"/>
<path d="M199 165.9C200.2 178.2 209.6 183.9 224.7 182.1C244.3 179.7 244.6 166.2 245.2 162.1" stroke="black" stroke-width="4"/>
<path d="M233.9 94.1001L246.9 137" stroke="black" stroke-width="4"/>
<path d="M269.2 644.1H359.6V640.6C359.6 636.7 357.2 633.2 353.6 631.8L294.3 615.5H266L269.1 644L269.2 644.1Z" fill="black"/>
<path d="M243.1 644.1H149.3V640.6C149.3 636.7 151.7 633.2 155.3 631.8L212.1 615.5H243.1V644V644.1Z" fill="black"/>
<path d="M180.8 370.8C189.4 366.5 207.7 353.6 211.6 336.2" stroke="white" stroke-width="4" stroke-linecap="round"/>
<path d="M267.1 603.3H290.9L292.2 616.1H268.5L267.1 603.3Z" fill="#FF0077" stroke="black" stroke-width="4"/>
<path d="M214.5 603.3H241.1V616.1H214L214.5 603.3Z" fill="#FF0077" stroke="black" stroke-width="4"/>
<path d="M184.4 227.2L170.4 248.4" stroke="black" stroke-width="4" stroke-linecap="round"/>
</svg>
