<svg width="552" height="500" viewBox="0 0 552 500" fill="none" xmlns="http://www.w3.org/2000/svg">
<path d="M493.4 158.815H81.5274C75.2489 158.815 70.1592 163.905 70.1592 170.183V405.393C70.1592 411.671 75.2489 416.761 81.5274 416.761H493.4C499.678 416.761 504.768 411.671 504.768 405.393V170.183C504.768 163.905 499.678 158.815 493.4 158.815Z" stroke="black" stroke-width="4"/>
<path d="M251.078 196.617L251.91 247.124L202.574 245.415L202.101 173.375L251.078 196.617Z" fill="white" stroke="black" stroke-width="3.32369"/>
<path d="M200.422 132.517C200.422 126.093 205.63 120.884 212.055 120.884H255.132C261.608 120.884 266.837 126.172 266.765 132.647L266.061 195.791C265.969 204.009 259.281 210.624 251.062 210.624H212.055C205.63 210.624 200.422 205.416 200.422 198.991V132.517Z" fill="white"/>
<path d="M335.604 407.94C340.947 413.965 348.564 417.489 356.635 417.489H357C371.324 417.489 383.351 406.235 384.487 391.911L395.401 260.152L446.899 220.818C448.718 219.568 449.641 217.082 448.958 215.263C447.823 212.236 444.958 211.263 441.329 213.201L437.458 215.263L440.874 210.587C441.897 208.882 442.011 207.063 441.215 205.585C440.419 204.221 438.828 203.311 436.895 203.311C435.076 203.311 433.371 204.107 432.348 205.585L422.958 214.763L424.504 205.926C424.958 203.879 423.708 201.72 421.775 201.037C421.321 200.81 422.003 200.81 420.411 200.81C418.82 200.81 417.342 201.72 416.66 203.197L409.156 218.658C406.997 219.568 401.426 222.182 398.47 226.275C397.561 227.526 396.538 229.231 395.515 231.277L378.235 231.618C370.163 231.732 366.753 236.734 366.071 239.69L365.616 241.395L343 346.263L328 316.263L304 371.561L335.604 407.94Z" fill="white" stroke="black" stroke-width="4" stroke-miterlimit="4.62023"/>
<path d="M148.904 311.239L149.927 418.263L311.925 417.263L308.401 277.703C307.946 258.718 292.943 242.124 273.958 241.783L229.504 246.353L185.169 243.598L148.904 311.239Z" fill="#FF0077"/>
<path d="M303.456 260.479L332.766 329.157L307.528 401.573L283.428 324.382L303.456 260.479Z" fill="#FF0077"/>
<path d="M148.087 339.923L113.897 382.583C112.413 384.435 113.566 387.196 115.927 387.443L181.104 394.252L181.121 394.254L181.137 394.255C184.672 394.567 188.012 395.599 191.167 397.263L217.712 416.763H77.3125C63.4971 416.763 55.1983 410.357 51.5908 403.348C48.9117 398.143 49.8981 391.989 52.4766 385.941C55.038 379.933 58.9796 374.477 61.5479 370.938L61.5557 370.928L61.5625 370.918L107.685 305.7L148.087 339.923Z" fill="white" stroke="black" stroke-width="4"/>
<path d="M263.644 262.767L263.076 228.889L252.769 224.334L252.354 231.812L230.75 247.6L201.232 233.209L200.323 225.706H197.026L188.045 229.117L187.136 257.196L263.644 262.767Z" fill="#FF0077"/>
<path d="M238.354 83C238.992 83 239.56 83 240.064 83C240.177 83.038 240.256 83.056 240.272 83.0596C240.352 83.0773 240.419 83.0881 240.458 83.0938L240.505 83.0996C249.198 84.1347 252.271 89.0724 252.999 92.3477L253.459 94.416L255.497 93.8379C265.14 91.0999 271.038 92.169 274.777 94.7939C278.56 97.4491 280.656 102.049 281.873 107.586C282.32 111.745 281.737 115.23 279.949 118.063C278.148 120.918 274.955 123.381 269.666 125.145L268.082 125.672L268.318 127.324C268.579 129.151 268.585 131.155 268.114 132.861C267.654 134.529 266.784 135.791 265.331 136.498L265.321 136.502L265.312 136.507C264.419 136.953 263.473 137.205 262.454 137.205C260.182 137.205 258.127 135.959 256.739 134.892L255.677 134.075L254.518 134.746C252.549 135.886 248.804 137.547 244.151 137.547C240.578 137.547 237.2 136.532 233.98 134.455C229.241 131.361 227.331 127.496 226.525 124.577L225.711 121.622L223.335 123.559C220.272 126.055 215.577 129.737 212.155 131.946C207.628 134.703 204.399 135.976 202.576 136.482L201.077 136.899L201.112 138.456L201.647 161.816L196.71 163.659L191.1 131.473L191.097 131.461L190.984 130.765C189.954 123.569 193.037 116.244 198.955 111.826L222.705 94.5537L223.146 94.2334L223.362 93.7344C224.464 91.2007 228.874 83 238.354 83Z" fill="#FF0077" stroke="black" stroke-width="4"/>
<path d="M206.723 166.335C203.312 162.584 197.233 162.243 195.3 166.335C193.368 170.428 197.287 178.954 203.426 177.704C209.565 176.453 206.723 166.335 206.723 166.335Z" fill="white"/>
<path d="M202.083 161.599C189.204 159.522 191.697 177.802 202.084 177.387L202.084 225.165" stroke="black" stroke-width="4"/>
<path d="M234.611 180.107C241.387 179.989 246.769 173.583 246.633 165.799C246.497 158.015 240.894 151.8 234.119 151.918C227.344 152.037 221.962 158.443 222.098 166.227C222.233 174.011 227.836 180.226 234.611 180.107Z" fill="white" stroke="black" stroke-width="4" stroke-miterlimit="10"/>
<path d="M93.916 324.268L129.793 363.929L172.698 312.786L184.976 241.279C184.976 241.279 150.644 244.576 132.341 269.132C114.038 293.573 93.916 324.268 93.916 324.268Z" fill="#FF0077"/>
<path d="M249.445 417.763L234.995 261.903L239.769 256.105L230.334 244.396L221.353 256.333L226.127 262.358L215.352 417.763H249.445Z" fill="black"/>
<path d="M218.644 212.158C217.939 211.714 218.254 210.624 219.087 210.624H250.857V232.451L218.644 212.158Z" fill="black"/>
<path d="M343.5 343.763L336.606 376.763" stroke="black" stroke-width="4" stroke-miterlimit="10" stroke-linecap="round"/>
<path d="M150.874 391.763V340.979C150.874 339.842 149.509 339.387 148.827 340.296L129.16 362.919L94.3516 324.763L132.457 269.131C140.187 257.99 151.897 250.146 165.084 247.304L188.275 242.188V230.479C188.161 230.479 202.083 224.34 202.083 224.34V232.866L230.451 246.508L251.938 231.843V224.34" stroke="black" stroke-width="4" stroke-miterlimit="10"/>
<path d="M250.41 223.339L263.647 227.865L264.329 241.279H277.061C286.156 241.279 294.568 246.281 299.002 254.239L333.675 328.019L310.143 390.317V417.263" stroke="black" stroke-width="4" stroke-miterlimit="10"/>
<path d="M310.144 333.021V394.182" stroke="black" stroke-width="4" stroke-miterlimit="10" stroke-linecap="round"/>
<path d="M219.532 208.962C218.614 208.962 217.87 209.706 217.87 210.624C217.87 211.541 218.614 212.285 219.532 212.285V210.624V208.962ZM219.532 210.624V212.285H246.895V210.624V208.962H219.532V210.624ZM266.895 190.624H268.557V135.01H266.895H265.233V190.624H266.895ZM246.895 210.624V212.285C258.858 212.285 268.557 202.587 268.557 190.624H266.895H265.233C265.233 200.751 257.023 208.962 246.895 208.962V210.624Z" fill="black"/>
<path d="M264.686 179.55C270.901 179.442 275.829 173.044 275.693 165.26C275.557 157.475 270.409 151.253 264.194 151.361C257.979 151.47 253.052 157.868 253.187 165.652C253.323 173.437 258.472 179.659 264.686 179.55Z" fill="white" stroke="black" stroke-width="4" stroke-miterlimit="10"/>
<path d="M319 416.763H144.5" stroke="black" stroke-width="4"/>
</svg>
