<svg width="622" height="502" viewBox="0 0 622 502" fill="none" xmlns="http://www.w3.org/2000/svg">
<ellipse cx="302.5" cy="376.5" rx="222.5" ry="45.5" fill="black"/>
<path d="M329.743 196.833L330.566 246.773L281.911 245.089L281.442 173.911L329.743 196.833Z" fill="white" stroke="black" stroke-width="4"/>
<path d="M279.421 132.517C279.421 126.093 284.63 120.884 291.054 120.884H334.132C340.607 120.884 345.836 126.172 345.764 132.647L345.06 195.791C344.969 204.009 338.28 210.624 330.061 210.624H291.054C284.63 210.624 279.421 205.416 279.421 198.991V132.517Z" fill="white"/>
<path d="M416.997 407.94C422.34 413.965 429.957 417.489 438.028 417.489L438.142 417.376C452.466 417.376 464.744 406.235 465.88 391.911L476.794 260.152L528.292 220.818C530.111 219.568 531.034 217.082 530.352 215.263C529.216 212.236 526.352 211.263 522.722 213.201L518.852 215.263L522.267 210.587C523.29 208.882 523.404 207.063 522.608 205.585C521.812 204.221 520.221 203.311 518.288 203.311C516.469 203.311 514.764 204.107 513.741 205.585L504.352 214.763L505.897 205.926C506.351 203.879 505.101 201.72 503.168 201.037C502.714 200.81 503.396 200.81 501.804 200.81C500.213 200.81 498.735 201.72 498.053 203.197L490.55 218.658C488.39 219.568 482.819 222.182 479.863 226.275C478.954 227.526 477.931 229.231 476.908 231.277L459.628 231.618C451.556 231.732 448.146 236.734 447.464 239.69L447.009 241.395L424.352 345.263L408.852 317.763L385.393 371.561L416.997 407.94Z" fill="white" stroke="black" stroke-width="4" stroke-miterlimit="4.62023"/>
<path d="M237 313.5L233 418.5L390.925 417.263L387.401 277.703C386.946 258.718 371.943 242.124 352.958 241.783L308.504 246.353L264.169 243.598L237 313.5Z" fill="#FF0077"/>
<path d="M382.456 260.479L412 327.5L386.528 401.573L362.428 324.382L382.456 260.479Z" fill="#FF0077"/>
<path d="M342.645 262.767L342.076 228.889L331.769 224.334L331.354 231.812L309.75 247.6L280.233 233.209L279.323 225.706H276.027L267.046 229.117L266.136 257.196L342.645 262.767Z" fill="#FF0077"/>
<path d="M317.354 83C317.992 83 318.561 83 319.065 83C319.177 83.038 319.257 83.056 319.273 83.0596C319.352 83.0773 319.419 83.0881 319.458 83.0938L319.505 83.0996C328.199 84.1347 331.272 89.0724 332 92.3477L332.459 94.416L334.498 93.8379C344.14 91.0999 350.038 92.169 353.778 94.7939C357.56 97.4491 359.657 102.049 360.874 107.586C361.32 111.745 360.738 115.23 358.95 118.063C357.149 120.918 353.956 123.381 348.667 125.145L347.083 125.672L347.319 127.324C347.58 129.151 347.585 131.155 347.115 132.861C346.655 134.529 345.785 135.791 344.332 136.498L344.322 136.502L344.312 136.507C343.42 136.953 342.473 137.205 341.455 137.205C339.183 137.205 337.128 135.959 335.74 134.892L334.677 134.075L333.518 134.746C331.549 135.886 327.805 137.547 323.152 137.547C319.579 137.547 316.2 136.532 312.981 134.455C308.242 131.361 306.331 127.496 305.526 124.577L304.711 121.622L302.335 123.559C299.272 126.055 294.578 129.737 291.156 131.946C286.629 134.703 283.4 135.976 281.577 136.482L280.078 136.899L280.113 138.456L280.648 161.816L275.71 163.659L270.1 131.473L270.097 131.461L269.985 130.765C268.955 123.569 272.038 116.244 277.956 111.826L301.706 94.5537L302.146 94.2334L302.363 93.7344C303.464 91.2007 307.875 83 317.354 83Z" fill="#FF0077" stroke="black" stroke-width="4"/>
<path d="M285.722 166.335C282.312 162.583 276.232 162.242 274.3 166.335C272.367 170.428 276.287 178.954 282.426 177.703C288.564 176.453 285.722 166.335 285.722 166.335Z" fill="white"/>
<path d="M281.083 161.6C268.204 159.522 270.697 177.803 281.083 177.387L281.083 225.165" stroke="black" stroke-width="4"/>
<path d="M313.611 180.108C320.387 179.989 325.769 173.583 325.633 165.799C325.497 158.015 319.894 151.8 313.119 151.919C306.344 152.037 300.962 158.443 301.098 166.227C301.233 174.012 306.836 180.226 313.611 180.108Z" fill="white" stroke="black" stroke-width="4" stroke-miterlimit="10"/>
<path d="M196.5 315.5L223.425 365.5L263.782 304.016L268.5 243C268.5 243 241.728 235.806 223.425 260.362C224.371 262 196.5 315.5 196.5 315.5Z" fill="#FF0077"/>
<path d="M328.446 419.763L313.995 263.903L318.77 258.105L309.334 246.396L300.353 258.333L305.128 264.358L294.352 419.763L311 445L328.446 419.763Z" fill="black"/>
<path d="M297.644 212.158C296.939 211.713 297.254 210.624 298.087 210.624H329.857V232.451L297.644 212.158Z" fill="black"/>
<path d="M425 342.263L418 376.763" stroke="black" stroke-width="4" stroke-miterlimit="10" stroke-linecap="round"/>
<path d="M233.732 419.5V349L222.5 365L196 315.5L224.5 259.5C234.5 243.5 251.242 244.39 267.275 242.188V230.479C267.162 230.479 281.083 224.34 281.083 224.34V232.866L309.452 246.508L330.939 231.843V224.34" stroke="black" stroke-width="4" stroke-miterlimit="10"/>
<path d="M329.411 223.339L342.647 227.865L343.329 241.279H356.062C365.156 241.279 373.569 246.281 378.002 254.239L413 326.5L389.143 390.317V417.263" stroke="black" stroke-width="4" stroke-miterlimit="10"/>
<path d="M389.144 333.021V394.182" stroke="black" stroke-width="4" stroke-miterlimit="10" stroke-linecap="round"/>
<path d="M196.235 405.279C191.539 411.821 184.324 416.108 176.295 416.937L176.17 416.835C161.922 418.305 148.565 408.483 145.965 394.351L121.588 264.408L66.3254 230.566C64.3878 229.509 63.215 227.131 63.7069 225.252C64.5255 222.124 67.2753 220.863 71.0848 222.418L75.1462 224.072L71.2689 219.771C70.0761 218.179 69.7764 216.382 70.4163 214.83C71.0679 213.391 72.5577 212.323 74.4801 212.125C76.2894 211.939 78.0673 212.555 79.2368 213.92L89.5183 222.087L87.0745 213.454C86.4121 211.466 87.4344 209.189 89.2868 208.312C89.7158 208.039 89.0373 208.109 90.6205 207.946C92.2036 207.782 93.767 208.535 94.5972 209.936L103.647 224.545C105.889 225.228 111.698 227.257 115.059 231.025C116.092 232.175 117.284 233.767 118.512 235.697L135.736 234.263C143.776 233.548 147.682 238.174 148.664 241.044L149.291 242.693L182.488 343.688L196.235 315.5L223.939 365.85L196.235 405.279Z" fill="white" stroke="black" stroke-width="4" stroke-miterlimit="4.62023"/>
<path d="M298.533 208.624C297.428 208.624 296.533 209.519 296.533 210.624C296.533 211.728 297.428 212.624 298.533 212.624V210.624V208.624ZM298.533 210.624V212.624H325.895V210.624V208.624H298.533V210.624ZM345.895 190.624H347.895V135.01H345.895H343.895V190.624H345.895ZM325.895 210.624V212.624C338.046 212.624 347.895 202.774 347.895 190.624H345.895H343.895C343.895 200.565 335.836 208.624 325.895 208.624V210.624Z" fill="black"/>
<path d="M343.686 179.55C349.901 179.442 354.829 173.043 354.693 165.259C354.557 157.475 349.409 151.253 343.194 151.361C336.979 151.47 332.052 157.868 332.187 165.652C332.323 173.436 337.472 179.659 343.686 179.55Z" fill="white" stroke="black" stroke-width="4" stroke-miterlimit="10"/>
<path d="M392.5 416.167C364.982 418.631 334.532 420 302.5 420C269.69 420 238.539 418.564 210.5 415.985" stroke="black" stroke-width="4"/>
</svg>
