<svg width="578" height="481" viewBox="0 0 578 481" fill="none" xmlns="http://www.w3.org/2000/svg">
<path d="M247.078 191.854L247.91 242.361L198.574 240.652L198.101 168.612L247.078 191.854Z" fill="white" stroke="black" stroke-width="3.32369"/>
<path d="M196.422 127.754C196.422 121.329 201.63 116.121 208.055 116.121H251.132C257.608 116.121 262.837 121.409 262.765 127.884L262.061 191.028C261.969 199.246 255.281 205.861 247.062 205.861H208.055C201.63 205.861 196.422 200.652 196.422 194.228V127.754Z" fill="white"/>
<path d="M331.604 403.177C336.947 409.202 344.564 412.726 352.635 412.726H353C367.324 412.726 379.351 401.471 380.487 387.147L391.401 255.389L442.899 216.055C444.718 214.805 445.641 212.319 444.958 210.5C443.823 207.473 440.958 206.5 437.329 208.438L433.458 210.5L436.874 205.824C437.897 204.118 438.011 202.299 437.215 200.822C436.419 199.457 434.828 198.548 432.895 198.548C431.076 198.548 429.371 199.344 428.348 200.822L418.958 210L420.504 201.163C420.958 199.116 419.708 196.956 417.775 196.274C417.321 196.047 418.003 196.047 416.411 196.047C414.82 196.047 413.342 196.956 412.66 198.434L405.156 213.895C402.997 214.805 397.426 217.419 394.47 221.512C393.561 222.762 392.538 224.468 391.515 226.514L374.235 226.855C366.163 226.969 362.753 231.971 362.071 234.926L361.616 236.632L339 341.5L324 311.5L300 366.798L331.604 403.177Z" fill="white" stroke="black" stroke-width="4" stroke-miterlimit="4.62023"/>
<path d="M144.904 306.476L145.927 413.5L307.925 412.5L304.401 272.94C303.946 253.955 288.943 237.361 269.958 237.02L225.504 241.59L181.169 238.835L144.904 306.476Z" fill="black"/>
<path d="M299.456 255.716L328.766 324.394L303.528 396.809L279.428 319.619L299.456 255.716Z" fill="black"/>
<path d="M144.087 335.16L109.897 377.819C108.413 379.672 109.566 382.433 111.927 382.68L177.104 389.489L177.121 389.491L177.137 389.492C180.672 389.804 184.012 390.835 187.167 392.5L213.712 412H73.3125C59.4971 412 51.1983 405.594 47.5908 398.585C44.9117 393.38 45.8981 387.226 48.4766 381.178C51.038 375.169 54.9796 369.713 57.5479 366.175L57.5557 366.165L57.5625 366.155L103.685 300.937L144.087 335.16Z" fill="white" stroke="black" stroke-width="4"/>
<path d="M259.644 258.003L259.076 224.126L248.769 219.571L248.354 227.049L226.75 242.837L197.232 228.446L196.323 220.943H193.026L184.045 224.353L183.136 252.433L259.644 258.003Z" fill="black"/>
<path d="M234.354 78.2368C234.992 78.2368 235.56 78.2368 236.064 78.2368C236.177 78.2748 236.256 78.2928 236.272 78.2964C236.352 78.3142 236.419 78.325 236.458 78.3306L236.505 78.3364C245.198 79.3715 248.271 84.3092 248.999 87.5845L249.459 89.6528L251.497 89.0747C261.14 86.3367 267.038 87.4058 270.777 90.0308C274.56 92.6859 276.656 97.2857 277.873 102.823C278.32 106.982 277.737 110.466 275.949 113.3C274.148 116.155 270.955 118.618 265.666 120.381L264.082 120.909L264.318 122.561C264.579 124.388 264.585 126.392 264.114 128.098C263.654 129.766 262.784 131.028 261.331 131.735L261.321 131.739L261.312 131.744C260.419 132.19 259.473 132.442 258.454 132.442C256.182 132.442 254.127 131.196 252.739 130.128L251.677 129.312L250.518 129.983C248.549 131.123 244.804 132.784 240.151 132.784C236.578 132.784 233.2 131.769 229.98 129.692C225.241 126.598 223.331 122.733 222.525 119.814L221.711 116.859L219.335 118.795C216.272 121.291 211.577 124.974 208.155 127.183C203.628 129.94 200.399 131.213 198.576 131.719L197.077 132.136L197.112 133.693L197.647 157.053L192.71 158.896L187.1 126.709L187.097 126.698L186.984 126.001C185.954 118.806 189.037 111.481 194.955 107.063L218.705 89.7905L219.146 89.4702L219.362 88.9712C220.464 86.4375 224.874 78.2368 234.354 78.2368Z" fill="black" stroke="black" stroke-width="4"/>
<path d="M202.723 161.572C199.312 157.82 193.233 157.479 191.3 161.572C189.368 165.664 193.287 174.191 199.426 172.94C205.565 171.69 202.723 161.572 202.723 161.572Z" fill="white"/>
<path d="M198.083 156.836C185.204 154.759 187.697 173.039 198.084 172.624L198.084 220.402" stroke="black" stroke-width="4"/>
<path d="M230.611 175.344C237.387 175.226 242.769 168.82 242.633 161.035C242.497 153.251 236.894 147.037 230.119 147.155C223.344 147.273 217.962 153.679 218.098 161.464C218.233 169.248 223.836 175.462 230.611 175.344Z" fill="white" stroke="black" stroke-width="4" stroke-miterlimit="10"/>
<path d="M89.916 319.504L125.793 359.166L168.698 308.023L180.976 236.516C180.976 236.516 146.644 239.813 128.341 264.368C110.038 288.81 89.916 319.504 89.916 319.504Z" fill="black"/>
<path d="M214.644 207.394C213.939 206.95 214.254 205.86 215.087 205.86H246.857V227.687L214.644 207.394Z" fill="black"/>
<path d="M339.5 339L332.606 372" stroke="black" stroke-width="4" stroke-miterlimit="10" stroke-linecap="round"/>
<path d="M146.874 387V336.216C146.874 335.079 145.509 334.624 144.827 335.533L125.16 358.156L90.3516 320L128.457 264.368C136.187 253.227 147.897 245.383 161.084 242.541L184.275 237.425V225.716C184.161 225.716 198.083 219.577 198.083 219.577V228.103L226.451 241.745L247.938 227.08V219.577" stroke="black" stroke-width="4" stroke-miterlimit="10"/>
<path d="M246.41 218.576L259.647 223.101L260.329 236.516H273.061C282.156 236.516 290.568 241.518 295.002 249.476L329.675 323.256L306.143 385.554V412.5" stroke="black" stroke-width="4" stroke-miterlimit="10"/>
<path d="M306.144 328.258V389.419" stroke="black" stroke-width="4" stroke-miterlimit="10" stroke-linecap="round"/>
<path d="M245.445 413L230.995 257.14L235.769 251.342L226.334 239.633L217.353 251.569L222.127 257.595L211.352 413H245.445Z" fill="white"/>
<path d="M215.532 204.199C214.614 204.199 213.87 204.943 213.87 205.86C213.87 206.778 214.614 207.522 215.532 207.522V205.86V204.199ZM215.532 205.86V207.522H242.895V205.86V204.199H215.532V205.86ZM262.895 185.86H264.557V130.247H262.895H261.233V185.86H262.895ZM242.895 205.86V207.522C254.858 207.522 264.557 197.824 264.557 185.86H262.895H261.233C261.233 195.988 253.023 204.199 242.895 204.199V205.86Z" fill="black"/>
<path d="M260.686 174.787C266.901 174.679 271.829 168.28 271.693 160.496C271.557 152.712 266.409 146.49 260.194 146.598C253.979 146.706 249.052 153.105 249.187 160.889C249.323 168.673 254.472 174.896 260.686 174.787Z" fill="white" stroke="black" stroke-width="4" stroke-miterlimit="10"/>
<path fill-rule="evenodd" clip-rule="evenodd" d="M401.034 90.7633C393.493 85.8229 383.613 85.3028 375.812 89.9832C373 91.6704 369.311 94.9236 367.231 98.5639C362.031 107.405 363.591 118.065 368.011 126.646C375.812 141.207 391.413 152.128 405.454 159.149C406.234 159.669 407.534 159.669 408.314 159.149C422.356 152.128 438.217 141.207 445.757 126.646C450.438 117.805 451.998 107.405 446.537 98.5639C444.457 94.9236 441.337 92.0634 437.957 89.9832C430.156 85.3028 420.275 85.8229 412.735 90.7633L406.754 94.6636L400.774 90.7633H401.034Z" fill="#FF0077" stroke="black" stroke-width="4" stroke-miterlimit="10"/>
<path fill-rule="evenodd" clip-rule="evenodd" d="M465.804 59.1444C461.776 56.5053 456.498 56.2275 452.331 58.7277C450.829 59.6289 448.858 61.3667 447.747 63.3113C444.969 68.0339 445.802 73.7287 448.164 78.3124C452.331 86.0907 460.665 91.9245 468.165 95.6747C468.582 95.9525 469.276 95.9525 469.693 95.6747C477.193 91.9245 485.666 86.0907 489.694 78.3124C492.195 73.5898 493.028 68.0339 490.111 63.3113C489 61.3667 487.333 59.8388 485.527 58.7277C481.36 56.2275 476.082 56.5053 472.054 59.1444L468.86 61.2278L465.665 59.1444H465.804Z" fill="#FF0077" stroke="black" stroke-width="4" stroke-miterlimit="10"/>
<path d="M467 414C468.105 414 469 413.105 469 412C469 410.895 468.105 410 467 410V412V414ZM467 412V410H145.5V412V414H467V412Z" fill="black"/>
</svg>
