<svg width="422" height="600" viewBox="0 0 422 600" fill="none" xmlns="http://www.w3.org/2000/svg">
<path d="M52.791 571.8H365.691" stroke="black" stroke-width="4" stroke-linecap="round"/>
<path fill-rule="evenodd" clip-rule="evenodd" d="M86.4909 409.3C89.8909 394.8 105.991 391 120.191 395.8L194.591 392.4L194.291 393.4C205.291 394.5 217.491 401.9 226.591 407.6C229.491 409.4 231.991 410.9 234.191 412.1C243.091 416.9 247.391 419 250.591 420.6C251.091 420.8 251.491 421.1 251.991 421.3C255.291 422.9 250.391 425.2 244.491 425.2H234.291C234.291 425.2 233.091 423.8 239.891 432.4C243.691 437.3 250.091 444.4 255.891 451C260.391 456.1 264.591 460.8 267.291 464C273.391 471.4 266.691 472.5 263.091 471.3C260.291 470.4 258.391 468.8 258.391 468.8C258.391 468.8 232.191 469.6 226.991 466.5C215.791 460 197.691 442.2 190.591 431.3C187.791 427 186.191 424.1 185.191 422.3C181.191 424.4 134.491 449.1 111.691 455.8C87.7909 462.9 83.3909 423.8 86.7909 409.3H86.4909Z" fill="black"/>
<path d="M183.491 96L135.891 214.8L136.591 229.9L187.691 243.4L193.391 155.6L183.491 96Z" fill="white" stroke="black" stroke-width="4"/>
<path d="M193.591 192.3L181.291 157.2L204.191 175.6L193.591 192.3Z" fill="black"/>
<path d="M67.5908 259.3L137.391 207.2C137.391 207.2 140.591 233.1 203.791 239.4C266.991 245.7 247.791 250.5 247.791 250.5L67.5908 259.3Z" fill="black"/>
<path d="M177.991 164.2C182.291 173 189.991 180.1 199.891 183.6C219.691 190.6 241.491 180.5 248.991 160.8C256.991 140 265.491 114.5 266.891 98.3002C267.191 94.7002 264.091 91.1002 262.491 89.0002C260.891 86.8002 258.291 85.1002 254.991 83.8002C248.191 81.1002 238.691 80.4002 228.791 80.7002C218.891 81.0002 208.991 82.3002 201.391 83.5002C197.591 84.1002 194.491 84.7002 192.291 85.2002C191.491 85.4002 190.791 85.5002 190.191 85.6002" fill="white"/>
<path d="M177.991 164.2C182.291 173 189.991 180.1 199.891 183.6C219.691 190.6 241.491 180.5 248.991 160.8C256.991 140 265.491 114.5 266.891 98.3002C267.191 94.7002 264.091 91.1002 262.491 89.0002C260.891 86.8002 258.291 85.1002 254.991 83.8002C248.191 81.1002 238.691 80.4002 228.791 80.7002C218.891 81.0002 208.991 82.3002 201.391 83.5002C197.591 84.1002 194.491 84.7002 192.291 85.2002C191.491 85.4002 190.791 85.5002 190.191 85.6002" stroke="black" stroke-width="4" stroke-linecap="round" stroke-linejoin="round"/>
<path d="M334.591 571.8L291.091 374L144.891 344.8L87.4907 571.9H334.591V571.8Z" fill="black"/>
<path d="M141.69 431.4C129.39 435.5 130.99 445.5 134.69 454C138.29 462.5 133.69 464.6 134.89 481C135.59 490.4 140.19 495.4 143.99 498.1C146.39 499.8 149.79 498.4 150.39 495.5C152.69 484.5 158.69 459.7 166.39 454.5C176.39 447.8 208.69 441.8 226.49 436.5C244.29 431.2 259.99 407.5 247.89 387.7C235.79 367.9 178.09 397.6 178.09 397.6L141.59 431.4H141.69Z" fill="white"/>
<path d="M102.291 413.5L138.391 380L138.591 379.8H138.891C138.891 379.7 139.991 381.7 139.991 381.7C139.258 380.3 138.891 379.6 138.891 379.6H138.991C139.091 379.6 139.291 379.5 139.491 379.4C139.891 379.2 140.591 378.9 141.391 378.5C142.991 377.7 145.291 376.6 148.191 375.4C153.791 372.9 161.491 369.8 169.591 367.3C177.691 364.8 186.291 362.9 193.691 362.9C201.091 362.9 207.991 364.8 211.691 370.8C218.191 381.5 217.191 393.2 212.291 402.9C207.391 412.5 198.591 420.2 188.991 423C183.291 424.7 175.991 426.5 168.491 428.4C164.291 429.4 160.091 430.5 155.991 431.6C150.191 433.1 144.791 434.6 140.091 436.2C135.391 437.8 131.791 439.3 129.591 440.8C128.191 441.8 126.591 443.8 124.891 447C123.291 450.1 121.791 453.9 120.391 457.9C117.691 466 115.591 474.9 114.491 480.3C113.491 484.8 108.291 486.9 104.491 484.3C100.191 481.3 95.1909 475.7 94.3909 465.5C93.7909 457.6 94.4909 452.8 95.0909 449.2C95.0909 448.9 95.0909 448.7 95.1909 448.4C95.4909 446.6 95.5909 445.2 95.5909 443.8C95.5909 442.5 95.1909 441 94.3909 439.1L102.391 413.6L102.291 413.5Z" fill="white" stroke="black" stroke-width="4"/>
<path d="M221.191 410.6C229.791 408 237.291 396.6 231.491 387.1C225.691 377.6 197.891 391.9 197.891 391.9C197.891 391.9 212.591 413.2 221.191 410.6Z" fill="black"/>
<path d="M189.791 312L231.691 198.5L310.991 225.7C332.191 232.9 344.191 255.4 338.191 277C330.491 305 320.191 341.4 312.991 362.3C292.991 420.4 272.291 439.5 222.391 405.6C209.791 397.5 194.791 381.4 194.791 381.4L217.391 328L189.791 312.1V312Z" fill="black"/>
<path d="M179.791 231.6L77.4908 252.7L71.9908 256.2C55.0908 266.8 46.3908 286.5 49.6908 306.1C54.1908 332.4 60.6908 368.8 65.7908 392C74.4908 431.9 85.7908 465.9 106.091 462C126.291 458.1 172.991 415.9 172.991 415.9L194.091 392.7L179.791 231.8V231.6Z" fill="black"/>
<path d="M185.191 273.6C163.991 265.3 150.991 212.6 179.791 187.6C206.791 164.1 244.291 179.6 255.991 198.3C267.691 217.1 266.491 223.8 266.891 238.3C267.291 252.8 185.191 273.6 185.191 273.6Z" fill="black"/>
<path d="M99.1909 362.2L183.791 381.3L222.691 332.4C222.691 332.4 233.391 340.7 237.191 343.3C247.791 350.6 257.491 351.7 263.891 348.4C293.191 331.5 265.891 304.8 257.791 300C253.791 297.6 240.091 290.4 230.991 289C229.691 287.1 224.591 283.6 222.291 280.8C217.491 275.1 214.891 265.5 206.891 262.5C192.491 257.1 179.191 258.9 166.391 264.6C153.491 270.4 141.191 280.1 128.991 290.5" fill="#FF0077"/>
<path d="M99.1909 362.2L183.791 381.3L222.691 332.4C222.691 332.4 233.391 340.7 237.191 343.3C247.791 350.6 257.491 351.7 263.891 348.4C293.191 331.5 265.891 304.8 257.791 300C253.791 297.6 240.091 290.4 230.991 289C229.691 287.1 224.591 283.6 222.291 280.8C217.491 275.1 214.891 265.5 206.891 262.5C192.491 257.1 179.191 258.9 166.391 264.6C153.491 270.4 141.191 280.1 128.991 290.5" stroke="black" stroke-width="4"/>
<path d="M146.291 346.2C105.391 330.1 90.491 346.2 90.491 346.2C90.491 346.2 88.191 388.2 105.191 404C122.191 419.8 137.491 408.5 148.991 402.5C160.491 396.4 170.491 392.6 187.191 393.1C203.791 393.6 209.991 396.5 209.991 396.5C209.991 396.5 185.391 362.8 146.391 346.3L146.291 346.2Z" fill="black"/>
<path d="M243.191 284.4C242.091 284.4 241.091 284.1 240.391 283.9C240.091 284.4 239.691 284.9 239.291 285.4C238.691 286.2 237.791 287.1 236.891 287.7C235.991 288.4 230.991 290.6 221.591 284.3C209.991 274.1 210.891 264.9 204.291 261.3L203.891 259.8C205.291 254.9 205.991 250.7 206.691 246.8C206.691 246.7 206.691 246.5 206.691 246.4C207.291 242.7 207.891 239.3 208.991 236.1C210.191 232.7 211.991 229.7 214.991 226.9C217.991 224.1 222.191 221.7 227.991 219.4C239.491 214.8 249.591 213.7 257.091 215.9C260.891 217 263.991 219 266.291 221.8C268.491 224.6 269.791 228.1 269.991 232C270.491 243.6 266.491 251 261.791 256.3C259.891 258.5 257.891 260.3 256.091 261.9C255.691 262.2 255.391 262.6 255.091 262.9C252.991 264.8 251.691 266.3 250.991 267.6C249.291 271.1 249.491 274.1 249.991 276C251.091 280.1 247.891 284.4 243.491 284.2L243.191 284.4Z" fill="white" stroke="black" stroke-width="4"/>
<path d="M196.491 226.6L211.591 246.4C211.591 246.4 214.891 237.4 222.091 231.3C229.391 225.2 238.191 225.2 238.191 225.2C238.191 225.2 243.291 230.7 253.091 234.1C262.891 237.5 269.69 235.5 269.69 235.5C269.69 235.5 268.191 216.9 259.391 207C253.391 200.2 204.691 212.5 204.691 212.5L196.491 226.6Z" fill="black"/>
<path d="M266.791 236.9C270.191 236.9 273.391 236.2 275.891 234.1C277.291 232.9 277.391 230.9 276.291 229.5C275.091 228.1 273.091 227.9 271.691 229.1C268.191 232.1 257.991 229.1 253.591 227.2C251.991 226.5 249.991 227.2 249.291 228.9C248.591 230.5 249.291 232.5 250.991 233.2C252.191 233.7 259.691 236.9 266.791 236.9Z" fill="black"/>
<path d="M213.091 245.6C210.291 239.1 203.391 237.1 199.191 239.8C195.091 242.5 195.191 250.8 200.491 256.2C205.491 261.3 208.591 262 212.591 259.4C214.291 258.2 215.891 252.3 213.091 245.7V245.6Z" fill="white"/>
<path d="M100.69 327C99.7904 336.8 99.5909 341.8 99.8909 351.6C99.8909 353.2 100.091 355.1 101.491 356C100.891 355.6 106.891 343 107.491 341.8C114.091 326.9 129.691 301.5 131.191 302.5C136.991 306.6 176.591 357.8 199.391 382.1C200.391 383.2 201.491 384.3 202.991 384.7C206.791 385.8 210.991 380.9 213.391 378.4C216.591 375 219.391 371.3 221.791 367.4C226.491 359.6 229.691 350.8 230.891 341.8C231.091 340.6 231.191 339.4 230.591 338.4C230.191 337.7 229.491 337.2 228.891 336.7C199.491 315.1 133.291 266.4 128.991 264.9C124.691 263.5 119.691 263.5 115.991 266.2C112.291 268.9 110.591 273.6 109.391 278C105.191 292.4 102.391 307.3 100.991 322.2L100.69 327Z" fill="white" stroke="black" stroke-width="4"/>
<path d="M246.491 149.9C246.491 149.9 246.491 149.9 246.591 149.8L258.191 168C253.191 171.2 246.491 169.7 243.191 164.7C242.791 164.1 242.491 163.5 242.291 162.9C239.891 165.4 236.691 167.1 233.091 167.6C224.391 168.8 216.391 162.7 215.291 154.1L246.391 149.8L246.491 149.9Z" fill="black"/>
<path d="M195.585 395.5C200.968 396.031 206.69 398.109 212.28 400.824C217.886 403.548 223.229 406.844 227.837 409.699C230.745 411.504 233.28 413.027 235.327 414.152L235.334 414.156L235.341 414.16C244.262 418.971 248.601 421.091 251.673 422.677L251.685 422.684L251.697 422.688L253.096 423.389C253.879 423.78 254.043 424.151 254.091 424.289C254.151 424.459 254.148 424.628 254.128 424.785C254.06 424.98 253.884 425.247 253.443 425.562C252.937 425.923 252.204 426.257 251.28 426.534C249.432 427.087 247.212 427.3 245.591 427.3H235.23L237.83 430.55C238.585 431.495 239.635 432.855 240.922 434.44V434.441C244.766 439.296 251.31 446.644 256.991 453.022V453.023C261.517 458.153 265.772 462.903 268.338 466.062L268.343 466.066C270.905 469.197 271.066 471.035 270.583 472.14C270.126 473.015 269.006 473.8 266.791 473.8C265.931 473.8 265.035 473.643 264.184 473.39C262.267 472.777 260.762 471.811 259.9 471.236L259.396 470.9H252.091C245.326 470.9 239.877 470.676 235.773 470.248C231.561 469.809 229.073 469.181 227.976 468.56C222.584 465.426 215.352 459.511 208.48 452.874C201.606 446.236 195.249 439.028 191.564 433.404C189.687 430.539 188.214 428.083 187.143 426.136L186.194 424.411L184.455 425.333C174.396 430.664 133.689 451.751 112.721 457.982L112.711 457.985L112.703 457.988C110.277 458.735 107.875 459.1 105.691 459.1C100.576 459.1 96.1623 457.022 92.8647 453.129L92.5493 452.746C89.3881 448.755 87.409 443.275 86.5181 437.46C85.6283 431.652 85.8506 425.68 86.9419 420.84L86.9907 420.623V420.519C90.4547 409.81 94.5772 403.845 99.9575 400.396C105.444 396.88 112.573 395.75 122.609 395.5H195.585Z" fill="white" stroke="black" stroke-width="4"/>
<path d="M259.991 474.6L229.991 443.3" stroke="black" stroke-width="4" stroke-miterlimit="10" stroke-linecap="round"/>
<path d="M247.691 477.7L212.591 443.3" stroke="black" stroke-width="4" stroke-miterlimit="10" stroke-linecap="round"/>
<path d="M176.091 164.4L174.291 196.8L192.691 183.5L176.091 164.4Z" fill="black"/>
<path d="M266.891 98.3L264.391 116.1C264.391 116.1 275.991 107.1 277.791 98.4C282.391 75.5 266.591 75.7 266.591 75.7C266.591 75.7 272.491 74.8 275.391 71.4C277.491 69 277.191 63.7 274.991 61.5C256.191 42 235.891 49.6 235.891 49.6L237.591 46.3C239.591 42.4 237.291 37.6 232.991 36.7C225.991 35.1 215.891 33.8 208.191 36.3C195.291 40.6 190.791 49.7 190.791 49.7C190.791 49.7 172.291 50.8 168.291 68.2C164.191 85.7 169.391 95.9 167.591 106.8C165.791 117.7 165.291 136.3 165.291 136.3L194.591 117.7L193.091 134.1C192.891 136.1 194.091 138 195.991 138.6C198.391 139.4 200.991 137.9 201.591 135.4L208.091 103.7C209.391 97.2 214.791 92.4 221.291 91.6L246.891 88.6L243.591 97.6C242.391 100.7 245.291 103.9 248.491 103L266.891 98.2V98.3Z" fill="black"/>
<path d="M194.391 120C195.591 110.3 189.691 106.4 183.791 106.4C177.891 106.4 172.191 111.2 173.191 120C174.091 127.5 177.891 133.6 183.791 133.6C189.691 133.6 193.391 127.5 194.391 120Z" fill="white"/>
</svg>
