<svg width="500" height="500" viewBox="0 0 500 500" fill="none" xmlns="http://www.w3.org/2000/svg">
<path d="M324.8 410.7C307.1 400.7 303.6 399.4 301 401.3C298.3 403.2 300.7 407 305 411.9C309.2 416.8 312.9 418.7 312.9 418.7L324.9 410.7H324.8Z" fill="white"/>
<path d="M151.4 313L114.1 187.8C111.3 178.7 102.2 172.8 92.8999 174.6C92.4999 174.6 92.0999 174.8 91.6999 174.9L54.9999 126.9C53.1999 124.9 50.0999 124.5 47.5999 126C44.9999 127.6 44.2999 130.8 45.7999 133.1L69.6999 172.9L35.5999 147.6C33.8999 146.2 30.6999 145.3 28.3999 146.9C25.9999 148.5 24.8999 151.7 27.5999 154.5L57.3999 182.8C57.3999 182.8 51.2999 186.2 51.8999 189.9C52.4999 193.6 54.7999 197.5 54.7999 197.5C54.7999 197.5 46.8999 199.8 48.5999 206.8C50.1999 213.2 81.9999 235.6 87.0999 239.2L107.3 303.2L151.1 313.3L151.4 313Z" fill="white" stroke="black" stroke-width="4" stroke-linejoin="round"/>
<path d="M229 134C232.3 129 233.5 123.3 230.5 117.8C227.5 112.5 219.6 109.9 213.8 109.8C196.8 109.6 184.9 128.6 186 144.2C186.4 150 188.9 156 193.9 158.8C197.9 161 202.8 160.7 207.2 159.6" fill="#FF0077"/>
<path d="M229 134C232.3 129 233.5 123.3 230.5 117.8C227.5 112.5 219.6 109.9 213.8 109.8C196.8 109.6 184.9 128.6 186 144.2C186.4 150 188.9 156 193.9 158.8C197.9 161 202.8 160.7 207.2 159.6" stroke="black" stroke-width="4"/>
<path d="M361.8 244.4C311.3 237.7 320.5 264.2 262.6 270.1C216.9 274.7 217 269.5 217 269.5C217 269.5 197.5 269.9 186.1 257C184.4 255.1 181.3 252.1 181.6 249.2C181.8 247.1 183.9 245.7 185.4 244.5C193.4 238 198.6 227.5 200.7 217.5C202.9 206.8 201.6 195.7 202.4 184.9C203.6 169.5 208.4 153.9 219.2 142.4C226.2 134.8 235.4 129.5 245.3 126.7C249.7 125.4 254.2 124.7 258.8 124.4C264.3 124.1 269.8 124.4 274.9 125.3C267.1 109.1 277.4 96.2999 298.1 97.3999C304.5 97.6999 310.9 99.4999 316.5 102.6C323.7 106.6 330.2 114.1 333.5 121.7C336.9 129.2 335.9 139 329.7 144.9C327.6 146.9 325.1 148.5 322.4 149.6C319.8 150.7 314.9 151.8 314.9 151.8C317.7 158.6 320.5 165.5 324 172C329.2 181.6 336.5 189.4 343.7 197.4C359.9 215.4 361.9 220.5 367.6 233.6C370.1 239.4 366.2 247.3 360.7 250.3L335.5 263.6" fill="#FF0077"/>
<path d="M361.8 244.4C311.3 237.7 320.5 264.2 262.6 270.1C216.9 274.7 217 269.5 217 269.5C217 269.5 197.5 269.9 186.1 257C184.4 255.1 181.3 252.1 181.6 249.2C181.8 247.1 183.9 245.7 185.4 244.5C193.4 238 198.6 227.5 200.7 217.5C202.9 206.8 201.6 195.7 202.4 184.9C203.6 169.5 208.4 153.9 219.2 142.4C226.2 134.8 235.4 129.5 245.3 126.7C249.7 125.4 254.2 124.7 258.8 124.4C264.3 124.1 269.8 124.4 274.9 125.3C267.1 109.1 277.4 96.2999 298.1 97.3999C304.5 97.6999 310.9 99.4999 316.5 102.6C323.7 106.6 330.2 114.1 333.5 121.7C336.9 129.2 335.9 139 329.7 144.9C327.6 146.9 325.1 148.5 322.4 149.6C319.8 150.7 314.9 151.8 314.9 151.8C317.7 158.6 320.5 165.5 324 172C329.2 181.6 336.5 189.4 343.7 197.4C359.9 215.4 361.9 220.5 367.6 233.6C370.1 239.4 366.2 247.3 360.7 250.3L335.5 263.6" stroke="black" stroke-width="4"/>
<path d="M82.6001 187.6L73.9001 202.4C71.9001 205.9 73.1001 210.3 76.6001 212.3C80.0001 214.2 84.2001 213.1 86.3001 209.8L95.2001 195.4C95.2001 195.4 81.3001 225.8 111.4 238.9" fill="white"/>
<path d="M82.6001 187.6L73.9001 202.4C71.9001 205.9 73.1001 210.3 76.6001 212.3C80.0001 214.2 84.2001 213.1 86.3001 209.8L95.2001 195.4C95.2001 195.4 81.3001 225.8 111.4 238.9" stroke="black" stroke-width="4" stroke-linecap="round" stroke-linejoin="round"/>
<path d="M163.9 357.9L140.7 277.5L81.1997 295.8L109.8 374.4C117.2 402.3 136.2 423.5 164.2 423.5C192.2 423.5 173.9 424.3 177.9 424.1C177.8 422.4 178.4 420.7 180.2 419.5C184.5 416.8 188.7 414.1 192.7 411C194.7 405.7 197 400.5 199.7 395.6C201.9 390.2 204.3 384.9 207 379.8C207.1 379.5 207.3 379.3 207.5 379.1L163.9 357.9Z" fill="black"/>
<path d="M400.3 304.2L381.4 283.5L264.1 241.4L246.8 235.5L214.4 245.1L192.2 274.7L144.4 379.6L181.1 419.9C182.2 418.9 191.2 411.1 191.9 410.8L216.9 359.2L219.7 425.2H366L410.5 424L411 335.3L400.4 304.2H400.3Z" fill="black"/>
<path d="M407.1 425.6L388.6 409.2C385.3 406.3 380.6 406 376.9 408.4L372.5 411.3L370.2 409.7C366.8 407.3 361.7 406.8 358.4 409.3C356.3 410.9 354.4 412.6 354.4 412.6C354.4 412.6 353.4 412 352.1 411.2C348.4 408.8 343 408.7 339.2 412.2L324.8 425.5H407L407.1 425.6Z" fill="white"/>
<path d="M337.2 418.2C319.5 408.2 316 406.9 313.4 408.8C310.7 410.7 313.1 414.5 317.4 419.4C321.6 424.3 325.3 426.2 325.3 426.2L337.3 418.2H337.2Z" fill="white"/>
<path d="M266.5 260.4C257.6 256.1 252.8 248.3 250.1 238.6C242.1 235.9 234.9 244.3 225.6 243.1C213.9 241.6 208.6 250 206.1 253.2C192.9 270 160.8 340.6 160.8 340.6" stroke="black" stroke-width="4"/>
<path d="M410.999 424.5C410.999 424.5 413.8 346.1 410.3 330.4C405.9 310.7 398.7 279.2 323 263.5" stroke="black" stroke-width="4"/>
<path d="M363.9 362.6L359.5 408.2" stroke="black" stroke-width="4" stroke-linecap="round"/>
<path d="M356 411.1L340.7 425.5" stroke="black" stroke-width="4"/>
<path d="M373.6 410.4L358.3 424.8" stroke="black" stroke-width="4"/>
<path d="M60.2998 425.5H462.2" stroke="black" stroke-width="4" stroke-linecap="round"/>
<path d="M325.3 425.7C325.3 425.7 321.3 423 317.1 418.1C312.9 413.2 310.5 409.4 313.1 407.5C315.7 405.7 319.1 406.7 335.2 415.9L339.2 412.2C343 408.7 348.4 408.8 352.1 411.2C353.3 412 354.4 412.6 354.4 412.6C354.4 412.6 356.2 410.9 358.4 409.3C361.8 406.8 366.9 407.2 370.2 409.7L372.5 411.3L376.9 408.4C380.5 406 385.3 406.3 388.6 409.2L407.1 425.6" stroke="black" stroke-width="4"/>
<path d="M256.7 260.9L269.4 289.1C276.3 304.5 292.1 313.9 306 310.8C322.1 307.2 329.1 288.5 321.2 270.6L312.1 250.2L296.6 211L256.8 260.9H256.7Z" fill="white" stroke="black" stroke-width="4"/>
<path d="M292.9 251.9L273.9 295.3L259.3 268.9L258.8 265.4L268.6 264L292.9 251.9Z" fill="black"/>
<path d="M308.2 198.8C309.4 174.2 288 148.4 263.4 147.2C238.8 146 217.8 164.9 216.6 189.5L217.4 196.8C218.9 210.1 224.1 223.1 229 235.6C234.9 250.7 244.7 263.1 261.9 264C269.8 264.7 279.9 261.9 290.8 251.2" fill="white"/>
<path d="M308.2 198.8C309.4 174.2 288 148.4 263.4 147.2C238.8 146 217.8 164.9 216.6 189.5L217.4 196.8C218.9 210.1 224.1 223.1 229 235.6C234.9 250.7 244.7 263.1 261.9 264C269.8 264.7 279.9 261.9 290.8 251.2" stroke="black" stroke-width="4" stroke-linecap="round"/>
<path d="M313.8 195.1C309.6 193.7 315.5 187.2 308.7 181.8C313 147.5 279.1 136.9 236.2 145.3C186.9 155 211.5 209 211.5 209C229 197.7 230.5 174.8 230.5 167.5C230.5 166.7 231.5 166.3 232 166.9C238.1 173.3 261.6 188 294.4 187.8C299.4 206.4 301 242.7 298.5 268.6C297.9 274.5 298.8 281.5 304.3 279.2C309.2 277.2 321.9 268.9 328.4 265.7C328.8 259.7 328.9 249.2 328.4 245.5C328.4 245.5 334.099 250.6 335.499 261.5C337.899 260.2 349.799 254.6 357.499 249.5C365.199 244.4 360.3 247.6 361.2 247C363.8 245.1 363.9 243.7 364.1 242.5C364.1 242.5 349.5 207.3 313.7 195.2L313.8 195.1Z" fill="#FF0077"/>
<path d="M231.7 332.3L197 401.3C189.8 415.6 175.3 424.6 159.3 424.8C139.3 424 121.6 409.7 113.3 386.3L82.2998 298.7C81.6998 297.1 82.5998 295.3 84.2998 294.7L140.7 277.4L168.7 365.3" stroke="black" stroke-width="4" stroke-linecap="round"/>
<path d="M215.2 365.2L219.7 425.2" stroke="black" stroke-width="4" stroke-linecap="round"/>
<path d="M316.3 102.6C316.3 102.6 377 141.9 317.9 158.8" stroke="black" stroke-width="4" stroke-miterlimit="10"/>
<path d="M202 193.7C200.7 209.3 197.7 227 175.8 240.7" stroke="black" stroke-width="4" stroke-miterlimit="10"/>
<path d="M335.3 263.6L328.5 245.6L326.6 266.8L298.4 281.7C307 223.3 294.6 189.4 294.6 189.4C294.6 189.4 265 189.7 231.5 168.3C231.1 168 230.5 168.3 230.5 168.8C230.3 182.8 224 191.5 219.5 198.1C215 204.7 218.1 202.5 218.8 205.2L220.2 211.1" stroke="black" stroke-width="4" stroke-linecap="round" stroke-linejoin="round"/>
<path d="M231.6 168.3C231.6 168.3 261.7 200.9 297.3 199.2" stroke="black" stroke-width="4"/>
<path d="M329 180.3C329.3 180.6 336.3 190 351 199.7C367.4 210.5 377.7 233.9 377.7 233.9" stroke="black" stroke-width="4"/>
</svg>
