<svg width="796" height="500" viewBox="0 0 796 500" fill="none" xmlns="http://www.w3.org/2000/svg">
<path d="M671.7 249H631.1V186.6C631.1 171.7 619 159.6 604.1 159.6H139.2C124.3 159.6 112.2 171.7 112.2 186.6V249H92.0999C80.2999 249 69.8999 259.3 69.8999 272V411H81.3999L89.8999 385.4H674.9L683.4 411H694.9V272C694.9 259.3 684.6 249 671.9 249H671.7Z" fill="black"/>
<path d="M199.2 277.3L383.7 265.6L373.6 325.3H198.8L199.2 277.3Z" fill="white" stroke="black" stroke-width="4"/>
<path d="M383.7 325.3H473.1L432.4 246.8L386.9 252.3L383.7 325.3Z" fill="#FF0077" stroke="black" stroke-width="4"/>
<path d="M352.8 271.9L390.7 214.6L421.4 260.6L457 191.2L422.7 146.1C408.3 127.2 379.4 128.6 366.9 148.9L305.6 249" fill="white"/>
<path d="M352.8 271.9L390.7 214.6L421.4 260.6L457 191.2L422.7 146.1C408.3 127.2 379.4 128.6 366.9 148.9L305.6 249" stroke="black" stroke-width="4"/>
<path d="M199.7 325.3H114.5V245.9H116.7C119 245.9 121.1 247.1 122.2 249.1L140.7 281.2L200 277.3L199.7 325.3Z" fill="#FF0077" stroke="black" stroke-width="4"/>
<path d="M391.4 211.7L380.4 194.9V231L391.4 211.7Z" fill="black"/>
<path d="M523.3 260.3C514.3 260.3 505.8 256.1 500.4 248.8L457 191.1L408.5 285.6C408.5 285.6 414.3 300 427.4 311.4C428.7 312.5 430 313.6 431.4 314.5C441.3 321.6 453.2 325.3 465.4 325.3H523.4V260.3H523.3Z" fill="#FF0077" stroke="black" stroke-width="4"/>
<path d="M596.1 343.3L574.5 261.1L574.1 233.1C574.1 229.2 571.4 226 567.5 225.8H566V202.7C562.9 203.4 560 205.7 559.4 208.9L555.1 233.6C553.4 243.4 552.7 253.3 553 263.1L556.5 371.6C557.4 393.7 575.6 411.1 597.7 411.1C616.2 411.1 632.4 398.8 637.4 381.1L648 343.4H596.1V343.3Z" fill="white" stroke="black" stroke-width="4"/>
<path d="M352.8 271.9L317.5 325.3H237.1V323.1C237.1 320.4 238.6 317.9 241 316.7L277.8 297.5L305.6 249.1L352.8 271.9Z" fill="#FF0077" stroke="black" stroke-width="4"/>
<path d="M42 413H718.4" stroke="black" stroke-width="4" stroke-linecap="round"/>
<path d="M596.1 343.3L602.6 370.6" stroke="black" stroke-width="4" stroke-linecap="round"/>
<path d="M408.6 241.3L408.5 285.6L421.3 260.5L408.6 241.3Z" fill="black"/>
<path d="M299.5 259.6L346.2 281.8" stroke="black" stroke-width="4"/>
<path d="M292.3 266.8L339.1 289" stroke="black" stroke-width="4"/>
<path d="M565.9 196.1V240.6" stroke="#FF0077" stroke-width="4" stroke-linecap="round"/>
<path d="M550.1 187.5C549 187.5 548 187.1 547.3 186.4L540.2 179.5L489.4 180C484.7 180 480.2 178.2 477.2 175.1C474.6 172.5 473.2 169.2 473.3 165.7L473.6 127.5C473.6 119.8 480.9 113.5 489.8 113.5H548.3C557.1 113.5 564.3 119.7 564.5 127.4L565 164.9C565.1 170.9 560.9 176.2 554.6 178.3L554.3 183.5C554.2 185.7 552.4 187.4 550.2 187.4L550.1 187.5Z" fill="white"/>
<path d="M548.1 115.6C555.8 115.6 562.1 120.9 562.3 127.5L562.8 165C562.9 170.6 558.5 175.4 552.5 176.8L552.2 183.4C552.2 184.6 551.1 185.4 550.1 185.4C549.1 185.4 549.1 185.2 548.7 184.8L541 177.4L489.7 177.9C489.7 177.9 489.5 177.9 489.4 177.9C481.5 177.9 475.2 172.4 475.2 165.7L475.5 127.5C475.5 120.8 481.9 115.5 489.7 115.5H548.2M548.1 111.6H489.6C479.7 111.6 471.5 118.8 471.4 127.6L471.1 165.8C471.1 169.8 472.7 173.6 475.6 176.6C479 180.1 484 182.1 489.3 182.1C494.6 182.1 489.5 182.1 489.6 182.1L539.2 181.6L545.7 187.9C546.8 189 548.3 189.6 549.9 189.6C553.2 189.6 555.8 187.1 556 183.8L556.2 179.9C562.6 177.3 566.8 171.5 566.6 165.1L566.1 127.6C565.9 118.8 557.8 111.7 547.9 111.7L548.1 111.6Z" fill="black"/>
<path d="M570 133C582.703 133 593 122.703 593 110C593 97.2975 582.703 87 570 87C557.297 87 547 97.2975 547 110C547 122.703 557.297 133 570 133Z" fill="#FF0077" stroke="black" stroke-width="4"/>
<path d="M584.2 110C584.5 110 584.8 110.3 584.8 110.6C584.5 118.5 578 124.8 570 124.8C562 124.8 555.6 118.5 555.2 110.6C555.2 110.3 555.5 110 555.8 110H584.1H584.2Z" fill="white"/>
<path d="M498.2 154.3C501.9 154.3 504.9 151.3 504.9 147.6C504.9 143.9 501.9 140.9 498.2 140.9C494.5 140.9 491.5 143.9 491.5 147.6C491.5 151.3 494.5 154.3 498.2 154.3Z" fill="black"/>
<path d="M519 154.3C522.7 154.3 525.7 151.3 525.7 147.6C525.7 143.9 522.7 140.9 519 140.9C515.3 140.9 512.3 143.9 512.3 147.6C512.3 151.3 515.3 154.3 519 154.3Z" fill="black"/>
<path d="M539.7 154.3C543.4 154.3 546.4 151.3 546.4 147.6C546.4 143.9 543.4 140.9 539.7 140.9C536 140.9 533 143.9 533 147.6C533 151.3 536 154.3 539.7 154.3Z" fill="black"/>
<path d="M188 278.5V324.3" stroke="black" stroke-width="4"/>
<path d="M178.1 278.5V324.3" stroke="black" stroke-width="4"/>
<path d="M650.5 247.6C660.9 252.1 679.9 245.7 683.9 237.3C687.5 229.7 658.3 206.3 658.3 206.3L633.4 205.4L630.9 204.6L632.3 227.3L650.5 247.6Z" fill="black"/>
<path d="M624.9 250.9L615.8 268.3L648.3 274.8L658.7 239.3L624.9 250.9Z" fill="white" stroke="black" stroke-width="4"/>
<path d="M655.2 244.6L657.5 237.2L663.8 217.1L647.6 214.6C639.4 213.4 631.5 210.3 624.6 205.6L612.3 239.7C609.5 245.7 612.5 252.5 618.2 254.9C620 255.6 621.9 255.8 623.8 255.6L643.4 253.3" fill="white"/>
<path d="M655.2 244.6L657.5 237.2L663.8 217.1L647.6 214.6C639.4 213.4 631.5 210.3 624.6 205.6L612.3 239.7C609.5 245.7 612.5 252.5 618.2 254.9C620 255.6 621.9 255.8 623.8 255.6L643.4 253.3" stroke="black" stroke-width="4" stroke-linecap="round"/>
<path d="M638.7 204C637.4 219.2 649.4 226.5 649.4 226.5L646.3 235.9L647.8 236.5C652.1 238.2 657 237.5 660.8 234.7C660.8 234.7 660.6 224.2 663.9 226.1C667.3 228 667.9 209.4 667.9 209.4L638.7 204Z" fill="black"/>
<path d="M653.6 236.8C656.1 232 661.6 232.3 664 234.6C666.4 236.9 666.6 242.6 662.4 245.1C658.2 247.5 653.1 247.2 652.3 245.5C651.1 243 651.3 241 653.5 236.7L653.6 236.8Z" fill="white"/>
<path d="M656.4 229.2C656.4 229.2 639.8 215 630.8 207.5C629.2 206.1 627.5 203.3 626.3 202.7C618.5 199.2 618.4 185.5 623.3 182.7C632 176.3 637.6 179.6 637.6 179.6C634.1 175.8 630.1 168.4 635.1 162.1C638.8 157.4 644.8 155.5 651.8 158.5C658.3 161.4 660 167 660 167C660 167 660 151.8 674.6 149.5C685.5 147.8 689.8 155.6 689.1 168.3C688.5 178.2 695.8 184 694.2 190.2C692.6 196.5 686.1 201.6 686.1 201.6C686.1 201.6 703.9 210.3 692.4 221.7C680.8 233.1 669.6 234.3 656.5 229.1L656.4 229.2Z" fill="black"/>
<path d="M675.6 193.6C679.8 195.1 684 196 688.4 196.4C693 196.9 700.2 194.7 704.1 197.9C706.3 199.7 706.7 202.9 706.2 205.6C705.3 211.3 701.4 216.4 696.1 218.8C695 219.3 693.6 219.9 693.4 221.1C693.2 222.2 694.1 223.2 694.9 224C696.3 225.4 701.3 237.8 670.7 246.9C669.3 239.7 671.5 230.8 670.3 223.6C669.4 218.2 666.5 213.3 665.2 208C664 203.3 664.2 198.3 664.9 193.5C665.3 190.6 666 187.6 668.1 185.5C669.9 183.7 672.6 182.9 675.1 183C677.9 183 684.9 184.3 685.1 188.1C685.3 191.9 681.8 193.2 681.8 196.2" fill="black"/>
<path d="M616.8 268.5L644.7 255L619.4 255.2L616.8 268.5Z" fill="black"/>
</svg>
