<svg width="445" height="722" viewBox="0 0 445 722" fill="none" xmlns="http://www.w3.org/2000/svg">
<g clip-path="url(#clip0_7830_221)">
<path d="M109.9 344.49C109.9 344.49 100.04 391.07 103.77 398.94C107.5 406.81 122.73 401.73 122.73 401.73L125.49 363.09L109.9 344.48V344.49Z" fill="#FF0077" stroke="black" stroke-width="4"/>
<path d="M232.56 171.71C223.81 162.67 216.99 151.96 211.88 140.47L200.87 112.28C191.39 92.2999 162.23 85.1599 141.18 115.46C135.78 123.24 134.56 133.92 134.69 142.7C134.8 149.58 129.75 155.38 122.95 156.4C122.84 156.42 122.73 156.43 122.61 156.45C106.85 158.98 94.8301 172.44 94.0701 188.38C93.1501 207.92 108.71 224.04 128.05 224.04C132.55 224.04 136.85 223.16 140.78 221.57C146.25 245.38 167.38 263.21 192.76 263.59C222.59 264.04 247.81 239.21 247.81 209.38C247.81 194.73 242 181.45 232.56 171.69V171.71Z" fill="#FF0077" stroke="black" stroke-width="4"/>
<path d="M192.35 188.12L169.39 176.63V148.01L193.61 149.62L192.35 188.12Z" fill="white"/>
<path d="M173.17 121.52V113.34C183.4 113.34 191.69 129.81 191.69 140.04V149.56C191.69 159.79 183.4 168.08 173.17 168.08C162.94 168.08 154.65 159.79 154.65 149.56V140.04C154.65 129.81 162.94 121.52 173.17 121.52Z" fill="white"/>
<path d="M189.62 119.5L186.86 108.77L171.35 108.4C171.35 108.4 150.11 120.56 142.78 137.52C141.72 139.97 132.81 144.97 146.9 140.7C172.06 133.09 176.99 120.47 179.24 114.73C180.3 138.32 193.51 139.12 193.51 139.12L196.74 135.38C196.74 135.38 189.99 120.05 189.62 119.5Z" fill="#FF0077"/>
<path d="M199.781 149.148C201.662 145.891 201.038 142.01 198.389 140.481C195.739 138.951 192.066 140.351 190.186 143.608C188.305 146.865 188.929 150.746 191.579 152.276C194.228 153.806 197.901 152.405 199.781 149.148Z" fill="white"/>
<path d="M233.19 381.36C236.57 379.58 249.56 372.35 249.82 354.02C250.07 335.69 238.5 317.84 229.33 295.66C220.17 273.47 220.37 247.14 220.37 247.14C220.37 247.14 193.28 287.95 194.18 331.36C195.08 374.77 233.19 381.37 233.19 381.37V381.36Z" fill="black"/>
<path d="M353.13 635.72H154.65C153.78 635.72 114.21 637.03 114.21 636.17H140.58C145.38 618.17 146.25 598.33 146.14 579.85C145.99 556.3 142.93 532.86 137.15 510.03L127.74 472.82C118.15 434.89 116.32 395.42 122.35 356.76L126.72 217.27L171.22 177.12L198.69 192.19C216.78 202.12 226.64 222.32 223.47 242.71C220.39 262.57 219.74 287.58 222 305.18C225.14 329.67 224.57 338.41 236.8 381.36C238.73 388.15 247.82 425.16 249.83 452.25C256.4 540.65 316 610.21 353.38 634.89C353.76 635.14 353.59 635.72 353.14 635.72H353.13Z" fill="black"/>
<path d="M159.59 174.83L160.6 165.86L195.31 163.66L192.79 188.96" fill="black"/>
<path d="M163.61 167.53C163.61 167.53 150.62 159.06 153.98 137.48C153.98 137.48 178.16 133.67 180.08 108.4C180.08 108.4 179.85 138.02 191.68 140.03C191.68 140.03 194.84 138.01 197.76 138.79C200.68 139.57 205.48 145.66 197.99 150.99L195.1 152.71L191.11 189.52" stroke="black" stroke-width="4" stroke-linecap="round" stroke-linejoin="round"/>
<path d="M203.359 160.254C203.837 154.308 201.56 149.274 198.274 149.01C194.987 148.745 191.935 153.351 191.457 159.296C190.979 165.242 193.255 170.276 196.542 170.54C199.828 170.805 202.88 166.199 203.359 160.254Z" stroke="black" stroke-width="4" stroke-miterlimit="10"/>
<path d="M193.61 187.63C193.61 187.63 223.51 195.76 182.96 274.82C166.86 306.22 117.95 344.23 115.92 378.77" stroke="#FF0077" stroke-width="4"/>
<path d="M164.34 198.46C155.66 229.57 164.7 256.34 180.98 280.94C197.26 305.54 228.37 346.78 187.13 376.44C145.89 406.1 108.45 359.46 97.4199 326.88C82.5899 283.11 101.76 235.6 112.61 214.01C123.46 192.43 137.03 175.3 148.97 173.13C160.9 170.96 171.22 177.11 171.22 177.11L164.35 198.45L164.34 198.46Z" fill="black"/>
<path d="M172.19 135.07C172.13 133.46 172.82 131.69 174.26 130.85C176.03 129.82 178.03 129.27 180.02 128.86C182.74 128.31 185.5 127.99 188.27 127.91C189.71 127.87 191.16 127.85 192.6 127.93C194.04 128.01 195.52 128.11 196.82 128.64C197.54 128.93 197.5 129.61 197.4 130.29C196.96 133.46 195.56 136.79 193.87 139.49C191.57 143.18 187.69 146.81 183.02 146.33C179.65 145.99 176.3 144.04 174.39 141.25C173.35 139.73 172.56 137.71 172.27 135.9C172.23 135.63 172.2 135.35 172.19 135.06V135.07Z" fill="black"/>
<path d="M169.66 135.07C169.72 133.46 169.03 131.69 167.59 130.85C165.82 129.82 163.82 129.27 161.83 128.86C159.11 128.31 156.35 127.99 153.58 127.91C152.14 127.87 150.69 127.85 149.25 127.93C147.81 128.01 146.33 128.11 145.03 128.64C144.31 128.93 144.35 129.61 144.45 130.29C144.89 133.46 146.29 136.79 147.98 139.49C150.28 143.18 154.16 146.81 158.83 146.33C162.2 145.99 165.55 144.04 167.46 141.25C168.5 139.73 169.29 137.71 169.58 135.9C169.62 135.63 169.65 135.35 169.66 135.06V135.07Z" fill="black"/>
<path d="M190.46 132.01L184.98 137.49" stroke="white" stroke-width="4" stroke-linecap="round"/>
<path d="M163.04 132.01L157.55 137.49" stroke="white" stroke-width="4" stroke-linecap="round"/>
</g>
<path d="M114 636L392 636" stroke="black" stroke-width="4" stroke-linecap="round"/>
<defs>
<clipPath id="clip0_7830_221">
<rect width="261.58" height="543.47" fill="white" transform="translate(92 93)"/>
</clipPath>
</defs>
</svg>
