<svg width="500" height="500" viewBox="0 0 500 500" fill="none" xmlns="http://www.w3.org/2000/svg">
<path d="M153.1 222.5C157.8 182.6 212.8 180.6 212.8 180.6C212.8 180.6 207.1 164 207.3 153.9C207.5 141.1 211.6 123.3 242.3 108.5C271.4 94.5001 307.6 103.7 327.8 138.6C348 173.5 321.5 164.9 347.3 207.4C373.1 249.9 346.2 299.4 333 304.8C319.8 310.1 241.6 301.2 194 273.5C146.5 245.8 153.1 222.5 153.1 222.5Z" fill="black"/>
<path d="M319.2 417.7L341.6 280.8L289.6 259.8L217.4 233.9L200.1 228L191.4 225L129.7 417.6H319.4L319.2 417.7Z" fill="#FF0077"/>
<path d="M298.2 211.2L225.9 231.5L219.8 262.8C216.5 279.9 226.6 296.8 243.3 301.9C262.6 307.8 282.8 295.8 286.8 275.9L291.3 253.3L298.3 211.1L298.2 211.2Z" fill="white"/>
<path d="M266.2 248L221.1 280.8L222.2 251.2L266.2 248Z" fill="black"/>
<path d="M279.2 138.1C255.2 126.4 226.3 136.2 214.6 160.2L206.5 187.1C206.3 191.1 206 195.1 205.7 199.1C203.9 221.2 201.6 243.7 223.5 251.6C234.7 255.5 276.4 253.5 288.1 229.5L301.3 202.6C313 178.6 303.2 149.7 279.2 138V138.1Z" fill="white"/>
<path d="M323.2 125.4C322 98.9002 340.2 91.4002 356.6 107.5C373 123.5 369.3 146.8 360 154.7C350.7 162.6 324.9 159.1 323.3 125.4H323.2Z" fill="black"/>
<path d="M394.9 417.7C394.9 417.7 393.8 334.2 374.9 308.7C365.2 295.7 353.6 285.5 341.5 280.8L320.6 286.2L319.1 417.7H394.8H394.9Z" fill="#FF0077"/>
<path d="M139.6 227.8C111.9 239.4 108.4 313.2 97.9001 336.2C70.0001 404 67.6001 417.6 67.6001 417.6L143.8 418.2L191.7 225.6C191.7 225.6 170.8 214.3 153.1 222.5L139.7 227.7L139.6 227.8Z" fill="#FF0077"/>
<path d="M296.7 201.2C296.7 201.2 282.5 187.6 287.9 154.1C295.8 104.6 323.2 184.5 323.2 184.5L317.3 209.7L296.7 201.2Z" fill="black"/>
<path d="M311.4 203.4C307.6 197.5 299.7 195.7 293.8 199.5C287.9 203.3 286.1 211.2 289.9 217.1C289.9 217.1 295.4 221.3 305.4 218.7C312.2 216.9 315.2 209.4 311.4 203.4Z" fill="white"/>
<path d="M215.5 156.4L217.1 153.1C228.8 129.1 257.8 119.3 281.7 131C287.8 134 295.5 141.5 299.6 146.4C280.1 163.3 238.4 160.4 215.5 156.3V156.4Z" fill="black"/>
<path d="M208.1 211.1C201.1 209.7 197.6 198.3 200.2 185.6C202.8 172.9 210.5 163.8 217.5 165.2C224.5 166.6 228 178 225.4 190.7C222.8 203.4 215.1 212.5 208.1 211.1Z" fill="white" stroke="black" stroke-width="4"/>
<path d="M246 222.1C235.9 220 230 207.2 232.8 193.4C235.6 179.6 246.1 170 256.2 172.1C266.3 174.2 272.2 187 269.4 200.8C266.6 214.6 256.1 224.2 246 222.1Z" fill="white" stroke="black" stroke-width="4"/>
<path d="M295.101 210.2C299.205 210.2 302.5 213.496 302.5 217.601C302.5 221.705 299.205 225 295.101 225C290.996 225 287.7 221.705 287.7 217.601C287.7 213.496 290.996 210.2 295.101 210.2Z" fill="#FF0077" stroke="black" stroke-width="4"/>
<path d="M394.3 415.9C393.7 399.5 391.6 362.8 388.1 347C383.7 327.3 376.8 301.4 351.7 286.1C331.6 273.9 303.7 264.8 291.7 261.1C291.7 261.1 288.9 276.2 286.4 282.4C284.9 286.1 278.9 304.7 251.2 302.8C228 301.2 220.8 283.7 220.3 272.8C220.3 261.9 220.5 252.6 220.5 252.6C220.5 252.4 216 250 215.5 249.6C213.9 248.4 212.3 247 211 245.4C208.3 242.2 206.3 238.5 204.9 234.6C204.6 233.7 204.5 232.3 203.9 231.6C203.3 230.9 202.2 230.4 201 230C198.4 229 195.7 227.9 193.1 227C187.8 225.1 182.4 223.4 176.9 222.3C165.1 220 152.8 221 142.3 227C133.3 232.1 126.3 240.2 121.3 249.2C119.3 252.9 117.5 256.9 116.2 260.9C113 270.2 110.9 279.8 108.9 289.4C104.6 309.5 101.3 330.5 92.7002 349.3C72.7002 393.2 67.7002 417.7 67.7002 417.7" stroke="black" stroke-width="4"/>
<path d="M317.1 355L311.1 417.2" stroke="black" stroke-width="4" stroke-linecap="round"/>
<path d="M163.2 324.4L154.1 359.3C152.3 366 149.6 372.4 145.9 378.3C139.9 387.9 136.3 398.9 135.6 410.3L135.1 417.6" stroke="black" stroke-width="4" stroke-linecap="round"/>
<path d="M338.3 196.6C338.3 196.6 353.8 225.3 364.2 241.8C374.2 257.9 377.3 278.6 364.2 295.5" stroke="black" stroke-width="4" stroke-miterlimit="10"/>
<path d="M362.6 121.3C370.2 136.7 376.3 185.5 333.3 162.7" stroke="black" stroke-width="4" stroke-miterlimit="10"/>
<path d="M30 417.9H414.9" stroke="black" stroke-width="4" stroke-linecap="round"/>
</svg>
