<svg width="796" height="681" viewBox="0 0 796 681" fill="none" xmlns="http://www.w3.org/2000/svg">
<g clip-path="url(#clip0_7824_251)">
<path d="M727.962 538.116C727.962 537.572 727.545 537.118 727.014 537.067C722.852 536.637 714.226 535.841 710.798 535.462C706.131 534.956 705.638 533.756 702.033 531.873C696.733 529.105 693.192 530.773 687.867 532.517C674.548 536.852 670.564 574.475 669.843 575.094L659.433 576.004C651.781 576.674 644.078 576.699 636.426 576.042C615.758 574.247 570.616 572.225 561.762 587.656C557.753 592.484 554.059 604.502 551.821 611.049C551.264 612.666 549.86 613.854 548.153 614.082C545.901 614.385 542.904 615.143 542.132 616.988C539.134 624.129 547.862 637.777 548.406 640.406C548.444 640.596 548.519 640.798 548.583 640.987H561.13L560.472 638.144C560.169 636.337 558.878 636.021 557.133 635.452C554.932 634.719 552.263 633.898 552.2 633.493C551.972 632.116 551.922 625.178 552.137 625.14L565.848 625.342C569.731 624.975 572.564 620.211 572.564 620.211C572.564 620.211 581.734 639.534 583.783 640.671L598.43 640.987C598.367 640.141 598.139 638.586 597.418 636.956C596.937 635.869 595.926 635.123 594.749 634.947L589.994 634.226C587.148 630.17 583.986 623.661 583.669 622.233C583.593 621.866 583.606 621.563 583.669 621.285C586.528 621.07 589.235 620.325 591.701 619.149C597.342 616.47 603.692 615.649 609.902 616.344C629.482 618.568 642.345 631.37 662.962 634.883C660.9 636.779 658.965 638.776 657.814 640.103H669.527C671.601 637.929 673.511 635.97 674.219 635.553C674.535 635.364 674.826 635.275 675.105 635.237V635.199C676.192 635.01 677.381 634.732 678.621 634.353C679.468 636.198 680.328 638.333 681.138 640.115H691.636C689.84 637.563 687.083 633.405 685.83 630.789C690.839 627.136 702.627 618.606 701.717 606.474C700.465 589.969 696.691 575.875 698.5 569L703.93 559.55C705 557.5 706.258 555.645 708.484 555.139C712.632 554.191 719.007 552.776 722.131 551.916C723.51 551.537 724.598 550.476 725.015 549.111L725.66 547C725.825 546.457 726.065 545.939 726.369 545.458L726.988 544.485C727.646 543.449 727.988 542.248 727.975 541.023L727.937 538.154L727.962 538.116Z" fill="black"/>
<path d="M434.488 294.521C434.488 294.521 582.005 568.785 670.488 577.521" stroke="black" stroke-width="4.94022" stroke-linecap="round"/>
<path d="M406.718 291.527C406.718 291.527 390.402 291.527 388.53 309.877L406.718 291.527Z" fill="white"/>
<path d="M406.718 291.527C406.718 291.527 390.402 291.527 388.53 309.877" stroke="black" stroke-width="4.94022" stroke-linecap="round"/>
<path d="M575.144 581.135C575.144 581.135 533.834 576.989 534.214 540.997" stroke="black" stroke-width="4.94022" stroke-linecap="round"/>
<path d="M673.789 538.483C671.588 539.418 670.134 541.541 670.07 543.929L669.906 549.882L669.413 567.499L690.169 567.398L681.707 543.626L687.879 532.505L673.789 538.47V538.483Z" fill="black"/>
<path d="M692.091 540.997L686.4 564.314C686.02 565.856 684.654 566.93 683.06 566.93H668.692" stroke="white" stroke-width="3" stroke-linecap="round" stroke-linejoin="round"/>
<path d="M552.374 316.13C554.805 316.13 557.148 316.429 559.379 316.978C565.96 303.951 579.459 295 595.052 295C617.113 295 635.012 312.889 635.012 334.966V341.187H526C526 326.614 537.804 316.13 552.374 316.13Z" fill="white" stroke="black" stroke-width="4" stroke-miterlimit="10"/>
</g>
<path d="M76.4834 230.618C77.8171 230.618 79.1009 230.78 80.3348 231.08C83.9494 223.924 91.3657 219 99.941 219C112.069 219 121.903 228.836 121.903 240.965V244.381H62C62 236.378 68.4939 230.606 76.4959 230.606L76.4834 230.618Z" fill="white" stroke="black" stroke-width="4" stroke-miterlimit="10"/>
<path d="M167 291.19C176.667 284.69 196.6 275.89 199 292.69C202 313.69 195 325.19 209 331.19C220.2 335.99 185.667 306.523 167 291.19Z" stroke="black" stroke-width="4" stroke-linecap="round"/>
<path d="M331.034 254L386.6 261.068C405.695 262.203 416.601 263.387 428.704 276.763L437.553 288.157C437.553 288.157 440.719 291.61 438.276 293.33C437.342 294.166 435.123 292.882 433.789 292.009C433.789 292.009 433.338 293.33 433.353 292.233C433.328 294.477 433.191 301.059 433.191 301.059C433.178 302.48 432.181 303.665 430.873 303.789C430.15 303.864 423.706 303.852 418.321 303.827C413.946 303.814 410.157 300.76 409.197 296.497L407.228 287.746H368.265H309.396" fill="white"/>
<path d="M331.034 254L386.6 261.068C405.695 262.203 416.601 263.387 428.704 276.763L437.553 288.157C437.553 288.157 440.719 291.61 438.276 293.33C437.342 294.166 435.123 292.882 433.789 292.009C433.789 292.009 433.338 293.33 433.353 292.233C433.328 294.477 433.191 301.059 433.191 301.059C433.178 302.48 432.181 303.665 430.873 303.789C430.15 303.864 423.706 303.852 418.321 303.827C413.946 303.814 410.157 300.76 409.197 296.497L407.228 287.746H368.265H309.396" stroke="black" stroke-width="4" stroke-linecap="round" stroke-linejoin="round"/>
<path d="M254.556 125.988C253.385 130.052 249.334 132.595 245.171 131.872C244.996 131.847 244.859 131.822 244.735 131.797C224.443 128.157 195.177 130.326 184.558 153.675C174.387 176.039 185.293 209.498 226.761 207.13C243.563 206.17 230.949 227.549 261.935 226.028C285.754 224.856 290.416 178.021 291.214 177.947C300.038 177.074 318.423 182.734 319.645 163.997C320.18 155.745 312.166 149.748 316.541 147.068C327.26 140.511 343.214 118.035 341.22 102.913C340.447 97.0544 334.739 93.14 328.918 94.1622L275.584 103.499C266.211 105.145 258.582 111.989 255.952 121.139L254.556 125.976V125.988Z" fill="black"/>
<path d="M298.802 324.585C343.888 427.033 436.5 639.54 436.5 639.54L317 639.378C316.906 639.54 316.426 635.924 316.115 631.487C311.578 567.162 323.967 515.066 323.967 515.066L270.06 454.157L298.802 324.572V324.585Z" fill="black"/>
<path d="M273.948 441.068L216.762 641.235C198.611 640.862 106.5 639 106.5 639L207.838 441.666L273.936 441.068H273.948Z" fill="black"/>
<path d="M273.787 441.679H148.223C140.577 441.679 135.898 433.542 139.987 427.082C147.741 414.834 160.404 395.924 177.239 374.437C203.239 341.24 243.137 303.854 243.137 303.854L248 201L256.399 188.967C256.399 188.967 264.227 178.582 277.862 182.173C291.498 185.763 290.615 192.163 296 201.5C296.76 202.821 296.546 215.357 296.92 220.394C297.107 223.012 300.423 221.491 300.522 224.844C301.582 260.497 297.93 328.287 297.93 328.287L273.799 441.691L273.787 441.679Z" fill="#FF0077"/>
<path d="M263.055 215.719C261.447 214.522 263.367 211.069 261.248 211.194C258.194 211.381 271.842 215.058 260.413 217.826L262.756 311.246C266.321 334.957 281.664 354.877 303.95 366.77L307.428 352.634L263.043 215.731L263.055 215.719Z" fill="black"/>
<path d="M268.389 112V126.922H265.011V130.512C264.014 130.637 263.08 131.061 262.344 131.809C260.425 133.728 260.587 137.019 262.718 139.164C263.391 139.837 264.189 140.285 265.011 140.572V181.822H286.687V163.31C286.998 163.323 287.297 163.36 287.609 163.36C298.229 163.36 306.829 154.746 306.829 144.137V112.025H268.377L268.389 112Z" fill="white"/>
<path d="M292.208 191.148L301.183 176.064L256.386 155.246V188.967" fill="#FF0077"/>
<path d="M163.229 290.553L254.006 194.477C264.426 184.292 276.765 181.151 287.883 185.838C294.951 188.817 303.638 198.603 298.615 213.35L298.565 213.487L237.927 356.548" stroke="black" stroke-width="4" stroke-miterlimit="10"/>
<path d="M163.092 286.588C93.8907 345.154 116.65 395.118 160.898 407.447C195.96 417.22 226.971 402.174 241.417 354.217L163.092 286.601V286.588Z" fill="black"/>
<path d="M122.446 322.229C110.655 341.09 108.387 358.131 112.599 372.08" stroke="black" stroke-width="4" stroke-miterlimit="10" stroke-linecap="round"/>
<path d="M357.608 255.785C330.461 251.285 306.812 232.202 298 205.5L295 199.5C293.741 198.415 258.181 200.286 258.63 203.876L267.118 279.171C271.356 311.695 298.815 337.5 331.508 340.105L347.322 340.558C352.955 340.72 357.608 336.198 357.608 330.563V255.797V255.785Z" fill="#FF0077"/>
<path d="M293.5 189L300.562 177.386L255.765 156.568L247.5 192L244.325 293.588C244.117 300.252 241.273 306.536 236.479 311.168C223.341 323.863 195.785 351.27 176.605 375.759C159.772 397.25 147.112 416.155 139.357 428.402C135.266 434.862 139.946 443 147.593 443H273.153L296.5 329.5L302 332.5C309 336 317.874 339.781 329.827 340.741L349.06 341.751C353.36 341.976 356.975 338.547 356.975 334.234V257.107C305.248 248.268 292.5 190 292.5 190L293.5 189Z" stroke="black" stroke-width="4" stroke-miterlimit="10"/>
<path d="M257.06 122.021C257.06 115.826 262.631 108.845 276.466 108.845C286.251 108.845 301.395 106.813 308.238 109.829C311.079 111.089 310.768 116.062 310.768 117.883C310.768 124.078 289.392 135.884 275.544 135.884C261.696 135.884 257.06 128.229 257.06 122.034V122.021Z" fill="black"/>
<path d="M68.8374 640H740.5" stroke="black" stroke-width="4" stroke-linecap="round"/>
<defs>
<clipPath id="clip0_7824_251">
<rect width="342" height="352" fill="white" transform="translate(386 289)"/>
</clipPath>
</defs>
</svg>
