<svg width="500" height="753" viewBox="0 0 500 753" fill="none" xmlns="http://www.w3.org/2000/svg">
<g clip-path="url(#clip0_6341_143)">
<path d="M223.88 126.36C233.39 126.36 241.1 118.65 241.1 109.14C241.1 99.6296 233.39 91.9199 223.88 91.9199C214.37 91.9199 206.66 99.6296 206.66 109.14C206.66 118.65 214.37 126.36 223.88 126.36Z" fill="black"/>
<path d="M238.58 138.96C248.09 138.96 255.8 131.25 255.8 121.74C255.8 112.23 248.09 104.52 238.58 104.52C229.07 104.52 221.36 112.23 221.36 121.74C221.36 131.25 229.07 138.96 238.58 138.96Z" fill="black"/>
<path d="M232.93 198.6C252.624 198.6 268.59 182.634 268.59 162.94C268.59 143.245 252.624 127.28 232.93 127.28C213.236 127.28 197.27 143.245 197.27 162.94C197.27 182.634 213.236 198.6 232.93 198.6Z" fill="black"/>
<path d="M324.98 184.56C330.18 199.02 320.56 210.02 306.83 211.98C293.1 213.94 261.61 218.41 261.61 218.41L229.68 185.45L288.14 179.92" fill="black"/>
<path d="M124 681.76H393.56" stroke="black" stroke-width="4" stroke-linecap="round"/>
<path d="M184.18 207.57C204.565 207.57 221.09 191.045 221.09 170.66C221.09 150.275 204.565 133.75 184.18 133.75C163.795 133.75 147.27 150.275 147.27 170.66C147.27 191.045 163.795 207.57 184.18 207.57Z" fill="black"/>
<path d="M191.41 147.78C202.08 147.78 210.73 139.13 210.73 128.46C210.73 117.79 202.08 109.14 191.41 109.14C180.74 109.14 172.09 117.79 172.09 128.46C172.09 139.13 180.74 147.78 191.41 147.78Z" fill="black"/>
<path d="M204.33 122.4C210.272 122.4 215.09 117.582 215.09 111.64C215.09 105.697 210.272 100.88 204.33 100.88C198.387 100.88 193.57 105.697 193.57 111.64C193.57 117.582 198.387 122.4 204.33 122.4Z" fill="black"/>
<path d="M226.34 450.42L207.58 633.92H147.39C147.39 633.92 147.39 483.81 147.39 406.72C147.39 400.73 147.59 395 147.95 389.52C152.25 324.37 179.92 294.43 179.92 294.43L272.86 313.96L338.21 633.93C338.21 633.93 256.84 634.04 256.82 633.93" fill="black"/>
<path d="M187 681.5L186.79 681.8H146.54L147.14 677.01C147.81 674.38 149.99 672.45 152.61 672.16L157.5 671.5L161 641.84H190.5L187 681.5Z" fill="white" stroke="black" stroke-width="4"/>
<path d="M272.27 646.21L279.83 681.8H325.59V676.32C325.59 674.12 324.02 672.25 321.9 671.95L307.51 669.88L301 646.22H275.5L272.27 646.21Z" fill="white" stroke="black" stroke-width="4"/>
<path d="M198.87 236.31L201.2 256.05L268.62 230.67L277 249.14L192.56 299.34C180.6 306.52 165.3 298.33 164.64 284.39L162.05 229.46C161.52 221.48 163.48 213.53 167.68 206.73C172.97 198.14 180.89 191.47 190.25 187.7L209.66 179.9L243.79 191.42C248.74 193.09 252.71 196.93 254.65 201.91L274.17 250.21L261.31 258.6L272.87 313.97L194.17 298.4" fill="black"/>
<path d="M231.44 175.44C231.44 175.44 231.44 202.62 231.44 203.74C231.44 204.86 230.53 213.05 216.95 210.44C213.55 209.79 210.71 208.47 208.35 206.86C202.07 202.57 198.58 195.22 198.74 187.62L199.45 152.71L220.33 175.45L231.44 175.43V175.44Z" fill="white" stroke="black" stroke-width="4"/>
<path d="M218.09 176.46L235.91 176.5C244.39 176.52 251.29 169.65 251.3 161.17L251.37 125.49C251.38 119.96 246.91 115.47 241.38 115.46L199.21 114.89L199.6 194.15" fill="white"/>
<path d="M218.09 176.46L235.91 176.5C244.39 176.52 251.29 169.65 251.3 161.17L251.37 125.49C251.38 119.96 246.91 115.47 241.38 115.46L199.21 114.89L199.6 194.15" stroke="black" stroke-width="4"/>
<path d="M250 127C250 127 247.56 132.958 237.38 128.288C227.44 123.728 227.35 118.728 227.35 118.728C227.35 118.728 226.92 122.438 221.91 124.258C219.08 125.288 215.91 123.078 215.91 123.078C215.91 123.078 217.01 136.318 207.58 142.718C198.15 149.118 193.78 139.248 193.78 139.248C193.78 139.248 192.72 125.028 198.22 116.608C203.72 108.188 228.19 109.588 234.6 111.768C243.57 114.818 249 119.5 249 119.5L250.5 125.5L250 127Z" fill="black"/>
<path d="M203.817 144.5C197.757 137.74 192.717 141.95 192.197 144.5C191.117 149.9 196.96 153.95 200.5 155C204.04 156.04 207.607 153.87 207.607 153.87L203.817 144.5Z" fill="white"/>
<path d="M270.07 645.3L264.81 625.53H297.17L302.76 645.2L270.07 645.3Z" fill="black"/>
<path d="M192.37 641.84L194.38 623.51L160.81 624.45L158.92 641.91L192.37 641.84Z" fill="black"/>
<path d="M439.71 164.99C431.85 109.78 402.58 87.7999 347.35 95.6599C292.12 103.53 270.16 132.81 278.02 188.02C285.88 243.23 315.15 265.21 370.38 257.35C425.61 249.48 447.57 220.2 439.71 164.99Z" fill="#FF0077" stroke="black" stroke-width="4"/>
<path d="M266.66 231.07C266.66 231.07 283.62 223.97 286.49 223.56L299.09 221.74C300.52 221.43 301.98 222.2 302.48 223.55C303.05 225.08 302.19 226.76 300.58 227.21L292.63 229.45C291.85 229.67 291.5 230.58 291.93 231.26C293.2 233.26 296.09 236.77 299.37 240.02C306.33 246.93 310.01 248.37 314.71 251.22C316.17 252.11 317.24 252.37 317.7 254.02C318.11 255.5 317.79 256.93 314.84 256.7C306.65 256.07 285.04 240.77 285.04 240.77L275.68 247.46L266.66 231.07Z" fill="white" stroke="black" stroke-width="4"/>
<path d="M260.02 312.63L178.95 298.35" stroke="white" stroke-width="4" stroke-linecap="round"/>
<path d="M162.05 229.46L164.64 284.39C165.3 298.33 180.6 306.52 192.56 299.34L194.17 298.38L162.05 229.46Z" fill="black"/>
<path d="M212.84 174.37L229.88 191.83V174.37H212.84Z" fill="black"/>
<path d="M192.76 330.71C192.76 330.71 188.34 354.58 163.46 365.76" stroke="white" stroke-width="4" stroke-linecap="round"/>
<path d="M393.7 95.4198L392.49 97.6598L386 104.86L400.16 115.33L403.77 115.36L410.61 110.52L414.78 107.57L411.13 100.13L404.69 95.6198L397.26 92.7498L392.43 91.8198L388.83 94.1898L393.7 95.4198Z" fill="white"/>
<path d="M376 94.4298L388.94 92.2498C390.74 91.9498 392.58 91.9098 394.39 92.1798C397.56 92.6498 400.92 92.6898 406.06 96.1698C409.26 98.3398 411.07 100.29 412.07 101.9C413.34 103.93 414.39 107.85 412.44 109.23L403.77 115.37C402.69 116.14 401.23 116.12 400.17 115.33L394.15 110.75L391.48 108.72L388.18 106.21C387.45 105.67 387.3 104.65 387.83 103.92L392.85 97.1798" stroke="black" stroke-width="4" stroke-linecap="round"/>
</g>
<defs>
<clipPath id="clip0_6341_143">
<rect width="321.25" height="593.8" fill="white" transform="translate(122 90)"/>
</clipPath>
</defs>
</svg>
