<svg width="537" height="478" viewBox="0 0 537 478" fill="none" xmlns="http://www.w3.org/2000/svg">
<path d="M361.512 236.206C357.164 231.514 354.401 225.393 353.758 219.046C352.685 208.471 357.105 198.182 361.536 188.525C367.183 176.223 368.243 168.959 368.112 162.04C367.54 133.305 344.8 110 316.056 110C287.312 110 264 133.305 264 162.04C264 190.775 287.312 214.08 316.056 214.08C316.413 214.08 316.759 214.056 317.116 214.056V267.18C298.736 280.256 286.74 301.703 286.74 325.961C286.74 365.783 319.034 398.078 358.88 398.078C398.726 398.078 435.5 373.834 435.5 334C438.836 275.22 391 267.18 361.524 236.206H361.512Z" fill="black"/>
<path d="M335 239H281V282H335V239Z" fill="white" stroke="black" stroke-width="4"/>
<path d="M279.595 249.453L297.141 267.709L333.771 245.321V233.829H279.071L279.595 249.453Z" fill="black"/>
<path d="M347.518 157.102C347.518 133.195 328.132 113.815 304.218 113.815C280.304 113.815 260.917 133.195 260.917 157.102V203.676C260.917 227.583 280.304 246.964 304.218 246.964C328.132 246.964 347.518 227.583 347.518 203.676V157.102Z" fill="white" stroke="black" stroke-width="4"/>
<path d="M300.653 106.19L334.68 81.2644C332.907 78.1532 329.801 75.385 324.635 73.6341C305.604 67.2105 288.668 65.1521 266.233 73.5158C242.679 82.2936 218.995 110.946 221.899 153.864C223.875 183.131 227.993 198.487 206.26 214.268C181.326 232.367 167.044 244.67 171.507 267.017C174.137 280.16 171.126 293.93 153.785 304.198C66.4258 355.978 64.9976 392.485 69.306 407H203.642C204.772 384.393 212.83 308.729 270.518 324.475C282.003 295.267 316.078 255.27 298.487 221.342C276.968 179.831 279.408 162.76 275.255 142.934C271.101 123.095 284.824 107.539 300.653 106.214V106.19Z" fill="black"/>
<path d="M343.035 103.114C346.023 102.073 348.284 100.724 349.76 98.9734C351.414 97.0215 352.033 94.9986 351.985 93.0348C351.95 91.355 351.438 89.7106 350.664 88.1846C350.022 86.907 349.212 85.724 348.355 84.6593C347.677 83.8075 346.963 83.0386 346.308 82.3761C346.142 82.2105 345.987 82.0449 345.82 81.9029C344.392 80.5307 343.285 79.7026 343.285 79.7026L338.227 91.84C338.227 91.84 338.096 92.1831 337.929 92.5498L334.764 100.145C335.43 98.4884 338.989 88.8589 334.645 81.2523C329.824 74.734 309.389 87.9716 291.405 107.349C292.191 106.852 296.571 104.143 298.463 103.859V115.926L316.566 116.434V107.349C318.791 107.373 320.934 107.384 322.993 107.384" fill="black"/>
<path d="M285.406 265.805C252.183 253.087 219.997 266.27 191.682 297.613C151.319 342.282 148.205 395.91 148.008 407.266L406 406.5C406 367 355.27 316.654 355.27 316.654C355.27 316.654 334.198 294.362 334.198 279.941V272.51H313.804C304.096 272.51 294.531 269.294 285.406 265.805Z" fill="#FF0077"/>
<path d="M148 407.826C148.002 407.653 148.004 407.466 148.008 407.266M148.008 407.266C148.205 395.91 151.319 342.282 191.682 297.613C219.997 266.27 252.183 253.087 285.406 265.805C294.531 269.294 304.096 272.51 313.804 272.51H334.198V279.941C334.198 294.362 355.27 316.654 355.27 316.654C355.27 316.654 406 367 406 406.5L148.008 407.266Z" stroke="black" stroke-width="4"/>
<path d="M37 407H494" stroke="black" stroke-width="4" stroke-linecap="round"/>
<path d="M249.708 344.019C249.708 344.019 230.006 365.549 227.349 406.598" stroke="black" stroke-width="4" stroke-linecap="round"/>
<path d="M54.0996 407.038C58.65 391.116 76.6849 348.532 144.643 310.627C144.643 310.627 163.202 300.695 163.25 280.046C163.298 259.396 155.412 240.974 180.534 228.089C205.657 215.204 221.941 208.273 225.014 191.732" stroke="black" stroke-width="4" stroke-linecap="round"/>
<path d="M313.485 106.039C313.485 106.039 347.923 112.16 357.941 94.8213" stroke="black" stroke-width="4" stroke-linecap="round"/>
<path d="M298.452 106.623L300.597 106.444C304.23 106.134 307.899 106.373 311.46 107.17L316.023 108.183L316.273 114.435L310.936 113.994C308.053 113.756 305.147 113.732 302.252 113.934L298.452 114.196C298.452 114.196 298.405 106.623 298.452 106.623Z" fill="#FF0077" stroke="black" stroke-width="4" stroke-miterlimit="10"/>
<path d="M321.681 116.566C321.681 116.566 321.562 163.819 268.505 164.569C215.449 165.319 281.787 118.019 281.787 118.019L285.397 117.007C295.593 114.137 306.314 113.66 316.714 115.637L321.669 116.578L321.681 116.566Z" fill="black"/>
<path d="M307.362 117.912C307.362 117.912 305.564 160.699 341.645 161.211C377.727 161.723 333.295 120.21 333.295 120.21L307.362 117.912Z" fill="black"/>
<path d="M334.618 203.188C344.216 203.188 351.997 194.684 351.997 184.194C351.997 173.704 344.216 165.2 334.618 165.2C325.019 165.2 317.238 173.704 317.238 184.194C317.238 194.684 325.019 203.188 334.618 203.188Z" fill="black"/>
<path d="M336.273 172.988C341.014 172.988 344.862 177.192 344.862 182.372" stroke="white" stroke-width="4" stroke-linecap="round"/>
<path d="M294.271 203.188C303.87 203.188 311.651 194.684 311.651 184.194C311.651 173.704 303.87 165.2 294.271 165.2C284.673 165.2 276.892 173.704 276.892 184.194C276.892 194.684 284.673 203.188 294.271 203.188Z" fill="black"/>
<path d="M296.272 172.988C301.013 172.988 304.861 177.192 304.861 182.372" stroke="white" stroke-width="4" stroke-linecap="round"/>
<path d="M399.705 162.6C401.005 162.6 402.205 162.1 403.105 161.2L413.305 151.4L484.505 152.1C490.905 152.1 496.905 149.7 501.005 145.5C504.405 142 506.305 137.6 506.305 133L505.905 79.7C505.805 69.4 496.005 61 484.105 61H402.505C390.705 61 380.905 69.3 380.705 79.6L380.005 132C379.905 140.1 385.705 147.4 394.505 150.1L394.905 157.9C395.005 160.5 397.205 162.6 399.805 162.6H399.705Z" fill="white"/>
<path d="M402.505 63.1C391.705 63.1 382.905 70.5 382.705 79.7L382.005 132.1C381.905 139.9 388.005 146.6 396.405 148.6L396.905 157.9C396.905 159.6 398.405 160.7 399.805 160.7C401.205 160.7 401.205 160.4 401.805 159.9L412.605 149.5L484.205 150.2C484.305 150.2 484.505 150.2 484.605 150.2C495.605 150.2 504.505 142.6 504.405 133.1L504.005 79.8C504.005 70.5 495.105 63 484.205 63H402.605M402.505 59.1H484.005C497.005 59.1 507.705 68.4 507.805 79.8L508.205 133.1C508.205 138.2 506.205 143.2 502.405 147C497.905 151.6 491.305 154.2 484.505 154.2C477.705 154.2 484.205 154.2 484.005 154.2L414.105 153.5L404.505 162.7C403.205 163.9 401.505 164.6 399.705 164.6C396.005 164.6 393.005 161.7 392.805 158L392.505 151.5C383.705 148.2 377.805 140.5 378.005 131.9L378.705 79.6C378.905 68.2 389.605 59 402.505 59V59.1Z" fill="black"/>
<path fill-rule="evenodd" clip-rule="evenodd" d="M439.4 90.0001C434.6 86.9001 428.4 86.6001 423.5 89.5001C421.3 90.8001 419.4 92.6001 418.1 94.8001C414.8 100.3 415.8 107 418.7 112.5C423.5 121.7 433.5 128.5 442.3 132.9C442.9 133.2 443.5 133.2 444.1 132.9C452.9 128.5 462.9 121.7 467.7 112.5C470.6 107 471.6 100.4 468.3 94.8001C467 92.6001 465.1 90.8001 462.9 89.4001C458 86.5001 451.8 86.8001 447 89.9001L443.3 92.3001L439.6 89.9001L439.4 90.0001Z" fill="#FF0077" stroke="black" stroke-width="4" stroke-miterlimit="10"/>
<path d="M394.071 271.879L393.616 273.585L363 406.5H423.401V292.342L474.899 253.008C476.718 251.758 477.641 249.272 476.958 247.453C475.823 244.426 472.958 243.453 469.329 245.391L465.458 247.453L468.874 242.777C469.897 241.071 470.011 239.253 469.215 237.775C468.419 236.41 466.828 235.501 464.895 235.501C463.076 235.501 461.371 236.297 460.348 237.775L450.958 246.953L452.504 238.116C452.958 236.069 451.708 233.909 449.775 233.227C449.321 233 450.003 233 448.411 233C446.82 233 445.342 233.909 444.66 235.387L437.156 250.848C434.997 251.758 429.426 254.372 426.47 258.465C425.561 259.715 424.538 261.421 423.515 263.467L406.235 263.808C398.163 263.922 394.753 268.924 394.071 271.879Z" fill="white" stroke="black" stroke-width="4" stroke-miterlimit="4.62023"/>
</svg>
