<svg width="537" height="478" viewBox="0 0 537 478" fill="none" xmlns="http://www.w3.org/2000/svg">
<path d="M381.512 236.206C377.164 231.514 374.401 225.393 373.758 219.046C372.685 208.471 377.105 198.182 381.536 188.525C387.183 176.223 388.243 168.959 388.112 162.04C387.54 133.305 364.8 110 336.056 110C307.312 110 284 133.305 284 162.04C284 190.775 307.312 214.08 336.056 214.08C336.413 214.08 336.759 214.056 337.116 214.056V267.18C318.736 280.256 306.74 301.703 306.74 325.961C306.74 365.783 339.034 398.078 378.88 398.078C418.726 398.078 455.5 373.834 455.5 334C458.836 275.22 411 267.18 381.524 236.206H381.512Z" fill="black"/>
<path d="M355 239H301V282H355V239Z" fill="white" stroke="black" stroke-width="4"/>
<path d="M299.595 249.453L317.141 267.709L353.771 245.321V233.829H299.071L299.595 249.453Z" fill="black"/>
<path d="M367.518 157.102C367.518 133.195 348.132 113.815 324.218 113.815C300.304 113.815 280.917 133.195 280.917 157.102V203.676C280.917 227.583 300.304 246.964 324.218 246.964C348.132 246.964 367.518 227.583 367.518 203.676V157.102Z" fill="white" stroke="black" stroke-width="4"/>
<path d="M320.653 106.19L354.68 81.2644C352.907 78.1532 349.801 75.385 344.635 73.6341C325.604 67.2105 308.668 65.1521 286.233 73.5158C262.679 82.2936 238.995 110.946 241.899 153.864C243.875 183.131 247.993 198.487 226.26 214.268C201.326 232.367 187.044 244.67 191.507 267.017C194.137 280.16 191.126 293.93 173.785 304.198C86.4258 355.978 84.9976 392.485 89.306 407H223.642C224.772 384.393 232.83 308.729 290.518 324.475C302.003 295.267 336.078 255.27 318.487 221.342C296.968 179.831 299.408 162.76 295.255 142.934C291.101 123.095 304.824 107.539 320.653 106.214V106.19Z" fill="black"/>
<path d="M363.035 103.114C366.023 102.073 368.284 100.724 369.76 98.9734C371.414 97.0215 372.033 94.9986 371.985 93.0348C371.95 91.355 371.438 89.7106 370.664 88.1846C370.022 86.907 369.212 85.724 368.355 84.6593C367.677 83.8075 366.963 83.0386 366.308 82.3761C366.142 82.2105 365.987 82.0449 365.82 81.9029C364.392 80.5307 363.285 79.7026 363.285 79.7026L358.227 91.84C358.227 91.84 358.096 92.1831 357.929 92.5498L354.764 100.145C355.43 98.4884 358.989 88.8589 354.645 81.2523C349.824 74.734 329.389 87.9716 311.405 107.349C312.191 106.852 316.571 104.143 318.463 103.859V115.926L336.566 116.434V107.349C338.791 107.373 340.934 107.384 342.993 107.384" fill="black"/>
<path d="M305.406 265.805C272.183 253.087 239.997 266.27 211.682 297.613C171.319 342.282 168.205 395.91 168.008 407.266L457.5 406.5C433.854 387.732 375.27 316.654 375.27 316.654C375.27 316.654 354.198 294.362 354.198 279.941V272.51H333.804C324.096 272.51 314.531 269.294 305.406 265.805Z" fill="#FF0077"/>
<path d="M168 407.826C168.002 407.653 168.004 407.466 168.008 407.266M168.008 407.266C168.205 395.91 171.319 342.282 211.682 297.613C239.997 266.27 272.183 253.087 305.406 265.805C314.531 269.294 324.096 272.51 333.804 272.51H354.198V279.941C354.198 294.362 375.27 316.654 375.27 316.654C375.27 316.654 433.855 387.732 457.5 406.5L168.008 407.266Z" stroke="black" stroke-width="4"/>
<path d="M57 407H480" stroke="black" stroke-width="4" stroke-linecap="round"/>
<path d="M269.708 344.019C269.708 344.019 250.006 365.549 247.349 406.598" stroke="black" stroke-width="4" stroke-linecap="round"/>
<path d="M74.0996 407.038C78.65 391.116 96.6849 348.532 164.643 310.627C164.643 310.627 183.202 300.695 183.25 280.046C183.298 259.396 175.412 240.974 200.534 228.089C225.657 215.204 241.941 208.273 245.014 191.732" stroke="black" stroke-width="4" stroke-linecap="round"/>
<path d="M333.485 106.039C333.485 106.039 367.923 112.16 377.941 94.8213" stroke="black" stroke-width="4" stroke-linecap="round"/>
<path d="M318.452 106.623L320.597 106.444C324.23 106.134 327.899 106.373 331.46 107.17L336.023 108.183L336.273 114.435L330.936 113.994C328.053 113.756 325.147 113.732 322.252 113.934L318.452 114.196C318.452 114.196 318.405 106.623 318.452 106.623Z" fill="#FF0077" stroke="black" stroke-width="4" stroke-miterlimit="10"/>
<path d="M341.681 116.566C341.681 116.566 341.562 163.819 288.505 164.569C235.449 165.319 301.787 118.019 301.787 118.019L305.397 117.007C315.593 114.137 326.314 113.66 336.714 115.637L341.669 116.578L341.681 116.566Z" fill="black"/>
<path d="M327.362 117.912C327.362 117.912 325.564 160.699 361.645 161.211C397.727 161.723 353.295 120.21 353.295 120.21L327.362 117.912Z" fill="black"/>
<path d="M354.618 203.188C364.216 203.188 371.997 194.684 371.997 184.194C371.997 173.704 364.216 165.2 354.618 165.2C345.019 165.2 337.238 173.704 337.238 184.194C337.238 194.684 345.019 203.188 354.618 203.188Z" fill="black"/>
<path d="M356.273 172.988C361.014 172.988 364.862 177.192 364.862 182.372" stroke="white" stroke-width="4" stroke-linecap="round"/>
<path d="M314.271 203.188C323.87 203.188 331.651 194.684 331.651 184.194C331.651 173.704 323.87 165.2 314.271 165.2C304.673 165.2 296.892 173.704 296.892 184.194C296.892 194.684 304.673 203.188 314.271 203.188Z" fill="black"/>
<path d="M316.272 172.988C321.013 172.988 324.861 177.192 324.861 182.372" stroke="white" stroke-width="4" stroke-linecap="round"/>
<path d="M430.238 302.756L390.356 305.971C386.854 305.971 384.007 303.28 384.007 299.958V213.014C384.007 209.691 386.854 207 390.356 207H429.13C432.513 207 435.3 209.513 435.467 212.728L436.587 296.457C436.765 299.898 433.871 302.768 430.25 302.768L430.238 302.756Z" fill="black"/>
<path d="M425.163 211.99H415.24C412.425 211.99 410.142 214.272 410.142 217.087C410.142 219.901 412.425 222.183 415.24 222.183H425.163C427.979 222.183 430.262 219.901 430.262 217.087C430.262 214.272 427.979 211.99 425.163 211.99Z" fill="white"/>
<path d="M425.211 220.147C426.902 220.147 428.272 218.777 428.272 217.086C428.272 215.396 426.902 214.026 425.211 214.026C423.52 214.026 422.149 215.396 422.149 217.086C422.149 218.777 423.52 220.147 425.211 220.147Z" fill="black"/>
<path d="M398.516 313.926C394.263 309.342 396.967 305.972 396.967 305.972L402.113 305.817C403.352 305.781 403.912 304.245 402.983 303.423L388.045 290.217C384.126 287.025 382.72 281.964 385.794 277.963L386.711 276.867L408.76 288.728C409.189 288.954 409.582 288.395 409.237 288.061L387.688 267.936C383.935 264.649 382.732 259.981 385.555 255.873L386.711 254.194L424.949 279.237C425.568 279.642 426.319 278.951 425.961 278.308L403.602 236.879C402.292 234.497 403.304 231.508 405.806 230.424C407.795 229.567 410.106 230.198 411.381 231.948L456.754 292.979C466.534 307.282 469.976 319.095 469.976 333.73V407.039L408.748 407.17L431.488 332.289L398.504 313.915L398.516 313.926Z" fill="white" stroke="black" stroke-width="4"/>
<path d="M431.5 332.301L444.305 338.958" stroke="black" stroke-width="4" stroke-linecap="round"/>
</svg>
