<svg width="500" height="500" viewBox="0 0 500 500" fill="none" xmlns="http://www.w3.org/2000/svg">
<path d="M94.2002 65H175.8C186.611 65 195.156 72.4433 195.586 81.2197L195.601 81.6387L196.3 134.026C196.386 141.096 191.307 147.704 183.213 150.188L181.874 150.599L181.803 151.998L181.402 159.798V159.811L181.401 159.823C181.344 161.325 180.061 162.571 178.548 162.597C177.797 162.584 177.125 162.297 176.614 161.786L176.586 161.758L166.386 151.958L165.797 151.392L164.98 151.4L93.79 152.099C87.8788 152.096 82.416 149.878 78.7305 146.103C75.6639 142.944 74.004 139.039 74 135.015L74.4004 81.7197C74.4872 72.7756 83.1188 65 94.2002 65Z" fill="white" stroke="black" stroke-width="4"/>
<path d="M187.5 222.5C192.2 182.6 247.2 180.6 247.2 180.6C247.2 180.6 241.5 164 241.7 153.9C241.9 141.1 246 123.3 276.7 108.5C305.8 94.4999 342 103.7 362.2 138.6C382.4 173.5 355.9 164.9 381.7 207.4C407.5 249.9 380.6 299.4 367.4 304.8C354.2 310.1 276 301.2 228.4 273.5C180.9 245.8 187.5 222.5 187.5 222.5Z" fill="black"/>
<path d="M353.6 417.7L376 280.8L324 259.8L251.8 233.9L234.5 228L225.8 225L164.1 417.6H353.8L353.6 417.7Z" fill="#FF0077"/>
<path d="M332.6 211.2L260.3 231.5L254.2 262.8C250.9 279.9 261 296.8 277.7 301.9C297 307.8 317.2 295.8 321.2 275.9L325.7 253.3L332.7 211.1L332.6 211.2Z" fill="white"/>
<path d="M300.6 248L255.5 280.8L256.6 251.2L300.6 248Z" fill="black"/>
<path d="M313.6 138.1C289.6 126.4 260.7 136.2 249 160.2L240.9 187.1C240.7 191.1 240.4 195.1 240.1 199.1C238.3 221.2 236 243.7 257.9 251.6C269.1 255.5 310.8 253.5 322.5 229.5L335.7 202.6C347.4 178.6 337.6 149.7 313.6 138V138.1Z" fill="white"/>
<path d="M357.6 125.4C356.4 98.9 374.6 91.4 391 107.5C407.4 123.5 403.7 146.8 394.4 154.7C385.1 162.6 359.3 159.1 357.7 125.4H357.6Z" fill="black"/>
<path d="M429.3 417.7C429.3 417.7 428.2 334.2 409.3 308.7C399.6 295.7 388 285.5 375.9 280.8L355 286.2L353.5 417.7H429.2H429.3Z" fill="#FF0077"/>
<path d="M181.1 224C153.4 235.6 139.1 258.5 133.7 284.2C120.8 345 95.3003 417.7 95.3003 417.7L178.2 418.3L226.1 225.7C226.1 225.7 198.8 215.8 181.1 224Z" fill="#FF0077"/>
<path d="M331.1 201.2C331.1 201.2 316.9 187.6 322.3 154.1C330.2 104.6 357.6 184.5 357.6 184.5L351.7 209.7L331.1 201.2Z" fill="black"/>
<path d="M345.8 203.4C342 197.5 334.1 195.7 328.2 199.5C322.3 203.3 320.5 211.2 324.3 217.1C324.3 217.1 329.8 221.3 339.8 218.7C346.6 216.9 349.6 209.4 345.8 203.4Z" fill="white"/>
<path d="M249.9 156.4L251.5 153.1C263.2 129.1 292.2 119.3 316.1 131C322.2 134 329.9 141.5 334 146.4C314.5 163.3 272.8 160.4 249.9 156.3V156.4Z" fill="black"/>
<path d="M242.5 211.1C235.5 209.7 232 198.3 234.6 185.6C237.2 172.9 244.9 163.8 251.9 165.2C258.9 166.6 262.4 178 259.8 190.7C257.2 203.4 249.5 212.5 242.5 211.1Z" fill="white" stroke="black" stroke-width="4"/>
<path d="M280.4 222.1C270.3 220 264.4 207.2 267.2 193.4C270 179.6 280.5 170 290.6 172.1C300.7 174.2 306.6 187 303.8 200.8C301 214.6 290.5 224.2 280.4 222.1Z" fill="white" stroke="black" stroke-width="4"/>
<path d="M169.6 417.7L137 292.8C136.3 290.1 135.3 287.4 134.2 284.8L125.2 264.7C124 261.8 120.5 260.4 117.5 261.5C114.5 262.7 113.1 266 114.3 268.9L118.7 278.6L84.5002 273.9C79.7002 273.2 75.2002 270.9 72.0002 267.2L56.0002 249.2C55.0002 247.9 53.3002 246.6 51.4002 247C49.5002 247.2 46.7002 248.7 48.4002 252.3L60.1002 273.1C62.7002 277.6 66.3002 281.4 70.7002 284.1L112 308.2L95.4002 417.8" fill="white"/>
<path d="M169.6 417.7L137 292.8C136.3 290.1 135.3 287.4 134.2 284.8L125.2 264.7C124 261.8 120.5 260.4 117.5 261.5C114.5 262.7 113.1 266 114.3 268.9L118.7 278.6L84.5002 273.9C79.7002 273.2 75.2002 270.9 72.0002 267.2L56.0002 249.2C55.0002 247.9 53.3002 246.6 51.4002 247C49.5002 247.2 46.7002 248.7 48.4002 252.3L60.1002 273.1C62.7002 277.6 66.3002 281.4 70.7002 284.1L112 308.2L95.4002 417.8" stroke="black" stroke-width="4"/>
<path d="M329.5 210.2C333.605 210.2 336.9 213.496 336.9 217.6C336.9 221.705 333.605 225 329.5 225C325.396 225 322.1 221.705 322.1 217.6C322.1 213.496 325.396 210.2 329.5 210.2Z" fill="#FF0077" stroke="black" stroke-width="4" stroke-linejoin="bevel"/>
<path d="M394.7 418L376.2 401.6C372.9 398.7 368.2 398.4 364.5 400.8L360.1 403.7L357.8 402.1C354.4 399.7 349.3 399.2 346 401.7C343.9 403.3 342 405 342 405C342 405 341 404.4 339.7 403.6C336 401.2 330.6 401.1 326.8 404.6L312.4 417.9H394.6L394.7 418Z" fill="white"/>
<path d="M324.8 410.7C307.1 400.7 303.6 399.4 301 401.3C298.4 403.2 300.7 407 305 411.9C309.3 416.8 312.9 418.7 312.9 418.7L324.9 410.7H324.8Z" fill="white"/>
<path d="M428.7 415.9C428.1 399.5 426 362.8 422.5 347C418.1 327.3 411.2 301.4 386.1 286.1C366 273.9 338.1 264.8 326.1 261.1C326.1 261.1 323.3 276.2 320.8 282.4C319.3 286.1 313.3 304.7 285.6 302.8C262.4 301.2 255.2 283.7 254.7 272.8C254.7 261.9 254.9 252.6 254.9 252.6C246 248.3 240.8 240.7 238.2 231C230.2 228.3 215.6 222.2 206.3 221C194.6 219.5 176.2 222.1 160.6 236.7C145 251.3 138.4 268.7 133.6 282.8" stroke="black" stroke-width="4"/>
<path d="M351.5 355L347.1 400.6" stroke="black" stroke-width="4" stroke-linecap="round"/>
<path d="M197.6 324.4L188.5 359.3C186.7 366 184 372.4 180.3 378.3C174.3 387.9 170.7 398.9 170 410.3L169.5 417.6" stroke="black" stroke-width="4" stroke-linecap="round"/>
<path d="M343.6 403.5L328.3 417.9" stroke="black" stroke-width="4"/>
<path d="M361.3 402.8L346 417.2" stroke="black" stroke-width="4" stroke-linecap="round"/>
<path d="M372.7 196.6C372.7 196.6 388.2 225.3 398.6 241.8C408.6 257.9 411.7 278.6 398.6 295.5" stroke="black" stroke-width="4" stroke-miterlimit="10"/>
<path d="M397 121.3C404.6 136.7 410.7 185.5 367.7 162.7" stroke="black" stroke-width="4" stroke-miterlimit="10"/>
<path d="M47.9004 417.9H461.4" stroke="black" stroke-width="4" stroke-linecap="round"/>
<path d="M312.9 418.1C312.9 418.1 308.9 415.4 304.7 410.5C300.5 405.6 298.1 401.8 300.7 399.9C303.3 398.1 306.7 399.1 322.8 408.3L326.8 404.6C330.6 401.1 336 401.2 339.7 403.6C340.9 404.4 342 405 342 405C342 405 343.8 403.3 346 401.7C349.4 399.2 354.5 399.6 357.8 402.1L360.1 403.7L364.5 400.8C368.1 398.4 372.9 398.7 376.2 401.6L394.7 418" stroke="black" stroke-width="4"/>
<path d="M112.2 306.1L120.1 310.4C121.5 311.1 121.6 313.1 120.3 313.9L111 320.2L112.2 306V306.1Z" fill="black"/>
<path d="M106.4 119C111.591 119 115.8 114.791 115.8 109.6C115.8 104.408 111.591 100.2 106.4 100.2C101.209 100.2 97 104.408 97 109.6C97 114.791 101.209 119 106.4 119Z" fill="black"/>
<path d="M135.4 119C140.591 119 144.8 114.791 144.8 109.6C144.8 104.408 140.591 100.2 135.4 100.2C130.209 100.2 126 104.408 126 109.6C126 114.791 130.209 119 135.4 119Z" fill="black"/>
<path d="M164.4 119C169.591 119 173.8 114.791 173.8 109.6C173.8 104.408 169.591 100.2 164.4 100.2C159.209 100.2 155 104.408 155 109.6C155 114.791 159.209 119 164.4 119Z" fill="black"/>
</svg>
