<svg width="662" height="667" viewBox="0 0 662 667" fill="none" xmlns="http://www.w3.org/2000/svg">
<g clip-path="url(#clip0_6341_309)">
<path d="M470.08 577.34L471.78 552.55L446.92 550.52L444.44 577.34H470.08Z" fill="black" stroke="black" stroke-width="4" stroke-miterlimit="10"/>
<path d="M532.26 587.78H233.84" stroke="black" stroke-width="4" stroke-miterlimit="10" stroke-linecap="round"/>
<path d="M162.18 338.88L219.26 389.41C221.7 391.57 225.43 391.34 227.59 388.9L247.52 366.39C256.48 356.27 264.22 345.13 270.58 333.2C275.49 322.15 282.71 312.24 291.94 304.43C292.74 303.76 293.47 303.1 294.09 302.48L310.8 285.89L384.58 319.12L472.52 416.3C478.27 422.65 481.17 431.07 480.56 439.61L471.76 552.54L417.1 549.58L425.12 450.99C425.45 446.52 423.52 442.18 419.99 439.43L339.21 379.84L241.49 449.53C229.62 457.48 213.88 456.44 203.15 447L115.69 364.01L162.18 338.88Z" fill="#FF0077" stroke="black" stroke-width="4"/>
<path d="M339.23 379.86C350.35 372.88 360.31 372.35 367.75 374.93" stroke="black" stroke-width="4" stroke-linecap="round"/>
<path d="M348.36 158.08H384.76L394.1 171.29L390.08 189.79L353.84 185.37L348.36 158.08Z" fill="black" stroke="black" stroke-width="4" stroke-miterlimit="10"/>
<path d="M539.79 202.46L536.74 196.63L505.83 203.05C505.83 199.77 506.2 195.91 504.07 191.91C502.7 189.33 499.79 188.81 497.87 189.56C495.95 190.31 495.21 192.98 495.96 194.91C499.56 204.15 496.31 210.72 496.14 211.05C495.37 212.51 495.67 214.23 496.75 215.37L494.5 223.34L466.61 259.6L452.66 277.73L447.91 283.9L448.77 271.94L445.62 241.64L411.14 229.41L415.62 274.82L417.9 297.99C417.98 298.94 418.18 300.09 418.4 301.18C418.67 302.29 418.96 303.39 419.38 304.49C420.18 306.67 421.28 308.78 422.65 310.69C425.41 314.51 429.13 317.44 433.21 319.26C437.3 321.08 441.79 321.84 446.33 321.43C450.86 321.05 455.44 319.31 459.14 316.57C461.01 315.21 462.61 313.62 463.96 311.95L464.46 311.32L464.84 310.82L465.26 310.24L466.09 309.08L469.42 304.43L476.07 295.13L489.38 276.53L513.95 239.32L520.93 236.93C524.08 235.85 526.8 233.8 528.7 231.07L541.04 213.47C541.76 210.53 542.12 206.93 539.79 202.49V202.46ZM440.8 293.12L440.82 293.08L440.87 293C440.93 292.92 441.01 292.82 441.1 292.73L440.88 293.02C440.88 293.02 440.78 293.16 440.8 293.12Z" fill="black" stroke="black" stroke-width="4" stroke-miterlimit="10"/>
<path d="M545.201 187.833L525.95 174.061C524.005 172.669 521.3 173.118 519.909 175.063L493.156 212.459C491.764 214.404 492.213 217.108 494.158 218.5L513.409 232.272C515.354 233.663 518.059 233.214 519.45 231.269L546.203 193.874C547.594 191.929 547.146 189.224 545.201 187.833Z" fill="white" stroke="black" stroke-width="4"/>
<path d="M541.49 199.31C540.67 197.25 538.35 196.26 536.31 197.08C534.26 197.9 533.27 200.23 534.09 202.28C534.34 202.91 534.51 203.5 534.64 204.06C533.57 203.27 532.13 203.02 530.8 203.55C528.75 204.37 528.07 206.6 528.57 208.75C528.77 209.61 528.89 210.04 529.02 210.72C528.21 210.74 527.52 210.77 526.68 211.11C524.63 211.93 523.64 214.26 524.45 216.31C526.07 220.39 525.65 222.45 524.7 223.92L527.06 224.49L531.29 226.96C531.56 226.49 533.61 223.13 533.04 218L535.72 219.57C535.99 219.11 537.79 215.76 537.24 210.75L541.04 213.4C541.04 213.4 545.06 208.71 542 201L541.49 199.31Z" fill="black" stroke="black" stroke-width="4" stroke-miterlimit="10"/>
<path d="M353.84 180.88L381.05 121.9L412.02 134.87L394.16 192.48L353.84 180.88Z" fill="black" stroke="black" stroke-width="4" stroke-miterlimit="10"/>
<path d="M297.78 220.35C306.17 202.69 326.29 172.09 344.94 172.09L364.94 174.64L390.07 189.8L402.92 175.58L416.35 182.36C432.5 190.93 439.55 200.14 442.3 214.51L442.36 214.84C444.05 223.69 445.14 232.64 445.61 241.64L446.15 246.24L417.82 249.235C415.279 249.503 413.086 251.135 412.099 253.491L384.6 319.14C340.95 329.92 299.38 296.14 299.38 296.14L329.93 235.89L297.78 220.35Z" fill="white" stroke="black" stroke-width="4"/>
<path d="M423.32 83.12C438.44 89.25 444.84 108.97 437.48 126.75L423.28 157.07C418.19 167.93 405.53 172.95 394.38 168.52L363.86 156.39L384.15 103.76C391.12 86.35 408.58 77.15 423.31 83.13L423.32 83.12Z" fill="black" stroke="black" stroke-width="4" stroke-miterlimit="10"/>
<path d="M343.93 188.08L348.36 158.08L388.77 183.57L403.18 178.44L406.48 198.79L343.93 188.08Z" fill="white"/>
<path d="M414.14 335.22L366.09 299.1C361.87 295.93 364.02 289.22 369.29 289.09L474.85 286.43L422.5 335.22H414.14Z" fill="white" stroke="black" stroke-width="4"/>
<path d="M512.06 331.94L417.88 336.11C412 336.37 408.45 329.7 411.94 324.97L460.43 259.12C463.01 255.61 467.11 253.54 471.47 253.54H561.63C567.35 253.54 570.65 260.02 567.29 264.65L522.55 326.3C520.1 329.68 516.23 331.76 512.06 331.94Z" fill="white" stroke="black" stroke-width="4"/>
<path d="M402.34 247.6C402.1 247.38 401.85 247.16 401.6 246.95C396.9 242.98 387.08 240.71 378.29 243.13C377.02 243.48 375.87 243.84 374.81 244.21L314.5 266.61L329.61 236.81L297.46 221.27L282.41 254L274.88 270.37L271.12 278.55L269.24 282.64L268.3 284.69L267.83 285.71L267.71 285.97L267.65 286.1L267.56 286.3C266.95 287.6 266.49 288.97 266.21 290.56C265.64 293.67 266.05 297.14 267.3 300C268.54 302.89 270.46 305.24 272.88 306.99C275.29 308.74 278.34 309.93 281.6 310.13C283.83 310.29 286.06 309.94 288.03 309.28L287.97 309.3L288.34 309.17C288.44 309.13 288.55 309.1 288.65 309.06L376.88 274.07C376.88 274.07 391.12 273.92 395.16 273.97L388.76 293.46C388.2 295.17 389.06 297.05 390.76 297.72C392.52 298.42 394.51 297.55 395.21 295.79L404.97 271.08C405 271.01 405.03 270.92 405.05 270.85C405.06 270.81 405.07 270.76 405.08 270.72L406.78 266.09C409.09 259.42 407.52 252.4 402.35 247.59L402.34 247.6Z" fill="black" stroke="black" stroke-width="4" stroke-miterlimit="10"/>
<path d="M382.531 120.355C386.462 119.93 389.24 115.793 388.734 111.115C388.228 106.436 384.631 102.989 380.7 103.414C376.768 103.839 373.991 107.976 374.497 112.654C375.003 117.332 378.6 120.78 382.531 120.355Z" fill="black" stroke="black" stroke-width="4" stroke-miterlimit="10"/>
<path d="M386.08 186.86C386.08 186.86 367.34 205.25 329.59 183.1C305.76 169.12 284.03 150.66 284.03 150.66L250.91 142.98L257.11 175.5C257.11 175.5 325.79 231.49 366.54 212.11C387.89 201.96 389.86 190.25 389.86 190.25L386.08 186.85V186.86Z" fill="#FF0077" stroke="black" stroke-width="4"/>
<path d="M392.8 189.5C391.26 192.63 387.06 192.99 384.88 191.28C382.7 189.58 383.2 185.5 384.91 183.32C386.61 181.14 389.76 180.76 391.94 182.46C394.12 184.16 394.02 187.01 392.8 189.49V189.5Z" fill="#FF0077" stroke="black" stroke-width="4" stroke-miterlimit="10"/>
<path d="M444.43 587.75L506.04 587.78C507.11 587.78 507.98 586.91 507.98 585.84V582.94C507.95 582.16 507.45 581.47 506.72 581.19L471.66 567.61L449.08 566.9C447.97 566.84 445.21 566.41 445.21 567.53L442.48 585.8C442.48 586.86 444.44 587.74 444.44 587.74L444.43 587.75Z" fill="white" stroke="black" stroke-width="4"/>
<path d="M347.05 156.38L344.95 173.93" stroke="black" stroke-width="4"/>
<path d="M241.189 241.44H300.179" stroke="black" stroke-width="4" stroke-miterlimit="10" stroke-linecap="round"/>
<path d="M150.13 254.44H287.19" stroke="black" stroke-width="4" stroke-miterlimit="10" stroke-linecap="round"/>
<path d="M361.47 477.32H420.47" stroke="black" stroke-width="4" stroke-miterlimit="10" stroke-linecap="round"/>
<path d="M314.52 490.32H451.58" stroke="black" stroke-width="4" stroke-miterlimit="10" stroke-linecap="round"/>
<path d="M390.01 114.39C386.69 119.07 387.27 121.74 384.88 128.84C383.17 133.93 384.12 139.65 387.75 143.61C391.79 148.02 399.12 150.47 412.02 141.05C415.65 138.4 420.51 140.32 424.04 142.16C428.13 144.29 427.9 147.78 427.9 147.78C427.9 147.78 423.38 157.94 420.14 164.37C416.57 171.46 408.36 174.88 400.81 172.45C398.43 171.69 396.14 170.91 394.36 170.22C368.45 160.26 374.76 142.29 376.08 136.1C377.4 129.91 381.62 115.33 381.62 115.33L390.01 114.4V114.39Z" fill="white" stroke="black" stroke-width="4"/>
<path d="M140.85 349.32L121.76 332.35L143.25 322.72L162.19 338.88" fill="black"/>
<path d="M140.85 349.32L121.76 332.35L143.25 322.72L162.19 338.88" stroke="black" stroke-width="4" stroke-miterlimit="10"/>
<path d="M75.5203 319.21C74.4703 319.44 73.8103 320.48 74.0503 321.53L74.6803 324.36C74.8803 325.12 75.5103 325.68 76.2903 325.79L123.76 333.34L143.2 325.08C144.3 324.9 144.39 323.96 144.15 322.88L140.46 306.37C140.23 305.34 139.22 304.68 138.18 304.89L75.5203 319.22V319.21Z" fill="white" stroke="black" stroke-width="4"/>
<path d="M312.73 315.08C306.56 319.43 295.16 324.37 276.16 322.72L312.73 315.08Z" fill="#FF0077"/>
<path d="M312.73 315.08C306.56 319.43 295.16 324.37 276.16 322.72" stroke="black" stroke-width="4" stroke-linecap="round"/>
<path d="M316.96 265.02L335.62 226.99" stroke="black" stroke-width="4" stroke-miterlimit="10" stroke-linecap="round"/>
</g>
<defs>
<clipPath id="clip0_6341_309">
<rect width="498.64" height="539.78" fill="white" transform="translate(72 50)"/>
</clipPath>
</defs>
</svg>
