<svg width="578" height="340" viewBox="0 0 578 340" fill="none" xmlns="http://www.w3.org/2000/svg">
<path d="M451.49 110.17L412.81 110.14C411.33 110.14 410.12 111.34 410.12 112.83C410.12 114.32 411.32 115.52 412.81 115.52H422.07L422.05 138.07L442.44 138.09L442.46 115.55H451.49C452.97 115.55 454.18 114.36 454.18 112.87C454.18 111.38 452.98 110.18 451.49 110.18V110.17Z" fill="black"/>
<path d="M478.8 290.06L474.37 290.05L450.26 271.52L472.78 259.11L478.8 290.06Z" fill="black" stroke="black" stroke-width="4"/>
<path d="M379.4 289.98H383.83L407.97 271.48L385.47 259.03L379.4 289.98Z" fill="#FF0077"/>
<path d="M382.3 275.18C385.6 278.12 389.11 280.77 392.8 283.1L407.96 271.48L385.46 259.03L382.29 275.18H382.3Z" fill="black"/>
<path d="M432.15 285.96C476.04 285.96 511.62 250.38 511.62 206.49C511.62 162.6 476.04 127.02 432.15 127.02C388.26 127.02 352.68 162.6 352.68 206.49C352.68 250.38 388.26 285.96 432.15 285.96Z" fill="black"/>
<path d="M432.15 275.14H432.09C413.75 275.12 396.52 267.97 383.56 254.99C370.6 242.01 363.48 224.77 363.49 206.43C363.51 188.09 370.66 170.86 383.64 157.9C396.6 144.96 413.83 137.83 432.14 137.83H432.2C450.54 137.85 467.77 145 480.73 157.98C493.69 170.96 500.81 188.2 500.8 206.54C500.79 224.88 493.63 242.11 480.65 255.07C467.69 268.01 450.46 275.14 432.15 275.14Z" fill="black"/>
<path d="M363.49 206.43C363.48 224.77 370.6 242.01 383.56 254.99C396.52 267.97 413.75 275.12 432.09 275.14H432.15C450.46 275.14 467.69 268.01 480.65 255.07C493.63 242.11 500.79 224.88 500.8 206.54C500.81 188.2 493.69 170.96 480.73 157.98C467.77 145 450.54 137.85 432.2 137.83H432.14C413.83 137.83 396.6 144.96 383.64 157.9C370.66 170.86 363.51 188.09 363.49 206.43ZM363.49 206.43H365.34" stroke="white" stroke-width="4" stroke-miterlimit="10" stroke-linecap="round"/>
<path d="M361.24 120.29C349.56 128.56 346.79 144.73 355.06 156.41L397.36 126.48C389.09 114.8 372.92 112.03 361.24 120.3V120.29Z" fill="#FF0077"/>
<path d="M503.65 119.93C515.32 128.22 518.06 144.39 509.77 156.06L467.52 126.05C475.81 114.38 491.98 111.64 503.65 119.93Z" fill="black"/>
<path d="M99.5202 81.12L146.23 229.84V292.62H83.4502L93.9802 80.93C94.0202 80.18 99.3002 80.4 99.5302 81.12H99.5202Z" fill="black"/>
<path d="M107.67 71.22H371.94C384.42 71.22 395.1 80.15 397.32 92.43L433.67 293.71H134.04L96.3099 84.82C95.0299 77.74 100.47 71.23 107.67 71.23V71.22Z" fill="white" stroke="black" stroke-width="4" stroke-miterlimit="10" stroke-linecap="round"/>
<path d="M380.91 71.22H106.24C99.7902 71.22 94.9102 77.06 96.0602 83.41L101.69 114.58H401.32L395.72 83.6C394.43 76.44 388.19 71.22 380.91 71.22Z" fill="#FF0077" stroke="black" stroke-width="4" stroke-miterlimit="10"/>
<path d="M380.16 292.72H433.67L425.64 248.22" fill="black"/>
<path d="M380.16 292.72H433.67L425.64 248.22" stroke="black" stroke-width="4"/>
<path d="M425.64 249.22H377.85C375.19 249.22 373.17 251.61 373.6 254.23L380.16 293.71" fill="white"/>
<path d="M425.64 249.22H377.85C375.19 249.22 373.17 251.61 373.6 254.23L380.16 293.71" stroke="black" stroke-width="4" stroke-miterlimit="10" stroke-linecap="round"/>
<path d="M53 293.88H507.24" stroke="black" stroke-width="4" stroke-miterlimit="10" stroke-linecap="round"/>
<path d="M136.1 69.45C136.1 56.5 143.79 46 153.28 46C162.77 46 170.46 56.5 170.46 69.45C170.46 82.4 162.77 92.9 153.28 92.9" stroke="black" stroke-width="4"/>
<path d="M153.9 100.69C158.136 100.69 161.57 96.8351 161.57 92.08C161.57 87.3248 158.136 83.47 153.9 83.47C149.664 83.47 146.23 87.3248 146.23 92.08C146.23 96.8351 149.664 100.69 153.9 100.69Z" fill="black"/>
<path d="M203.33 69.45C203.33 56.5 211.02 46 220.51 46C230 46 237.69 56.5 237.69 69.45C237.69 82.4 230 92.9 220.51 92.9" stroke="black" stroke-width="4"/>
<path d="M221.12 100.69C225.356 100.69 228.79 96.8351 228.79 92.08C228.79 87.3248 225.356 83.47 221.12 83.47C216.884 83.47 213.45 87.3248 213.45 92.08C213.45 96.8351 216.884 100.69 221.12 100.69Z" fill="black"/>
<path d="M270.55 69.45C270.55 56.5 278.24 46 287.73 46C297.22 46 304.91 56.5 304.91 69.45C304.91 82.4 297.22 92.9 287.73 92.9" stroke="black" stroke-width="4"/>
<path d="M288.35 100.69C292.586 100.69 296.02 96.8351 296.02 92.08C296.02 87.3248 292.586 83.47 288.35 83.47C284.114 83.47 280.68 87.3248 280.68 92.08C280.68 96.8351 284.114 100.69 288.35 100.69Z" fill="black"/>
<path d="M337.78 69.45C337.78 56.5 345.47 46 354.96 46C364.45 46 372.14 56.5 372.14 69.45C372.14 82.4 364.45 92.9 354.96 92.9" stroke="black" stroke-width="4"/>
<path d="M355.58 100.69C359.816 100.69 363.25 96.8351 363.25 92.08C363.25 87.3248 359.816 83.47 355.58 83.47C351.344 83.47 347.91 87.3248 347.91 92.08C347.91 96.8351 351.344 100.69 355.58 100.69Z" fill="black"/>
<path d="M432.15 151.53V206.49L462.05 236.39" fill="black"/>
<path d="M432.15 151.53V206.49L462.05 236.39" stroke="white" stroke-width="4" stroke-miterlimit="10" stroke-linecap="round"/>
<path d="M142.83 133.19H284.92C291.02 133.19 296.25 137.45 297.33 143.31L318.99 260.37C320.39 267.92 314.44 274.86 306.58 274.86H165.43C159.36 274.86 154.16 270.65 153.03 264.83L130.43 147.77C128.97 140.19 134.92 133.19 142.83 133.19Z" fill="black"/>
<path d="M239.92 220.15C242.47 233.99 229.7 243.64 211.38 244.04C192.14 244.46 176.33 235.54 172.04 218.73L183.21 217.56C186.49 230.34 195.07 235.94 210.36 235.61C224.86 235.3 230.8 230.19 228.86 219.7C227.03 209.78 216.98 204.79 201.69 205.12L195.23 205.26L193.68 196.84L200.27 196.7C214.64 196.39 220.23 190.83 218.72 182.64C217.02 173.42 209.49 169.18 197.1 169.45C183.79 169.74 176.47 173.83 179.79 188.93L168.53 188.13C164.53 169.35 177.1 161.44 195.42 161.04C211.5 160.69 226.72 168.58 229.02 181.03C230.53 189.22 226.62 196.71 214.32 200.33C229.47 202.09 238.14 210.35 239.95 220.15H239.92Z" fill="white"/>
<path d="M271.19 160.44L286.09 241.15H275.68L261.95 166.78L242.2 181.91L235.59 174.07L261.3 160.66L271.19 160.45V160.44Z" fill="white"/>
<path d="M367.58 169.15C369.49 176.32 365.08 182.14 357.71 182.14C350.34 182.14 342.82 176.33 340.91 169.16C339 161.99 343.41 156.17 350.78 156.17C358.14 156.17 365.67 161.98 367.58 169.15Z" fill="#FF0077" stroke="black" stroke-width="4" stroke-miterlimit="10"/>
<path d="M348.32 164.96L357.16 173.04L375.57 146.48" stroke="black" stroke-width="4" stroke-miterlimit="10" stroke-linecap="round"/>
<path d="M375.59 214.19C377.5 221.36 373.09 227.18 365.72 227.18C358.35 227.18 350.83 221.37 348.92 214.2C347.01 207.03 351.42 201.21 358.79 201.21C366.15 201.21 373.68 207.02 375.59 214.19Z" fill="#FF0077" stroke="black" stroke-width="4" stroke-miterlimit="10"/>
<path d="M356.33 209.99L365.16 218.07L383.58 191.51" stroke="black" stroke-width="4" stroke-miterlimit="10" stroke-linecap="round"/>
</svg>
