<svg width="840" height="569" viewBox="0 0 840 569" fill="none" xmlns="http://www.w3.org/2000/svg">
<path d="M630.175 160.7C640.668 160.7 649.175 152.193 649.175 141.7C649.175 131.207 640.668 122.7 630.175 122.7C619.681 122.7 611.175 131.207 611.175 141.7C611.175 152.193 619.681 160.7 630.175 160.7Z" fill="white" stroke="black" stroke-width="4"/>
<path d="M736.575 539.9H129.475" stroke="black" stroke-width="4" stroke-miterlimit="10" stroke-linecap="round"/>
<path d="M411.275 319.7L402.076 538.4L500.176 538.5L493.075 319.8C492.975 316.2 489.975 313.3 486.375 313.3H417.975C414.375 313.3 411.475 316.1 411.275 319.7Z" fill="black"/>
<path d="M481.975 433.1H420.275C417.175 433.1 414.675 430.5 414.775 427.4L417.975 335C418.075 332 420.475 329.7 423.475 329.7H480.575C483.575 329.7 486.075 332.1 486.075 335.1L487.375 427.5C487.375 430.6 484.975 433.1 481.875 433.1H481.975Z" fill="white"/>
<path d="M461.875 303.9H441.975V313.3H461.875V303.9Z" fill="black"/>
<path d="M404.875 177.9L496.975 172.7C499.875 172.5 502.375 174.9 502.275 177.8L501.175 264.7C500.875 286.4 483.175 303.9 461.475 303.9H441.075C419.375 303.9 401.775 286.5 401.375 264.9L400.075 183.1C400.075 180.4 402.175 178.1 404.875 178V177.9Z" fill="black"/>
<path d="M472.975 239C462.175 239 462.175 229.3 451.275 229.3C440.375 229.3 440.475 239 429.575 239C418.675 239 418.375 229.3 407.475 229.3L407.875 244.3L408.275 262.6C408.575 281.3 423.775 296.3 442.475 296.3H460.075C478.875 296.3 494.075 281.2 494.275 262.5L494.575 241.7V229.3C483.775 229.3 483.775 239 472.875 239H472.975Z" fill="white" stroke="black" stroke-width="4"/>
<path d="M125.975 168.4C125.875 168.3 124.675 167.6 124.575 167.5L114.875 160.4C113.775 159.5 112.075 159.7 111.175 160.9C110.275 162 110.475 163.7 111.575 164.6L115.475 167.5L100.875 173.3C98.775 174.1 96.475 174.2 94.375 173.4L83.975 169.8C83.275 169.5 82.375 169.4 81.675 169.9C80.775 170.6 80.775 171.9 81.675 172.7L90.975 178.3C92.975 179.5 95.275 180.2 97.675 180.3L119.475 180.6L127.075 195.7L140.675 187.1L125.975 168.4Z" fill="black"/>
<path d="M255.075 134.2H217.875V99.3L239.275 124L255.075 121.9V134.2Z" fill="black"/>
<path d="M237.075 57.4C249.875 55.9 261.475 65.1 262.975 77.9L267.275 114.4C267.675 117.9 265.175 121.1 261.675 121.5L240.575 124C230.675 125.2 219.575 116.5 218.475 106.5L216.575 82.4C215.575 69.9 224.675 58.8 237.175 57.4H237.075Z" fill="black"/>
<path d="M222.775 98.6001C220.275 90.2001 214.175 87.3001 210.975 89.9001C207.775 92.6001 209.275 99.8001 215.275 101C221.275 102.2 222.775 98.6001 222.775 98.6001Z" fill="black"/>
<path d="M343.375 196.2C343.975 183 344.375 174.2 344.375 174.2C344.375 174.2 343.975 163.3 339.175 156.9C337.375 154.5 333.575 155.3 332.875 158.3L324.875 194.8" fill="black"/>
<path d="M339.175 154.7L350.975 148.3C354.075 146.6 357.875 148.9 357.775 152.4L357.575 171.3C357.575 172.9 356.775 174.3 355.375 175.2L329.075 186.1L339.175 154.7Z" fill="black"/>
<path d="M338.775 135.8H361.975C362.375 135.8 362.675 136.1 362.675 136.6L359.875 171.9H340.875L338.075 136.6C338.075 136.2 338.375 135.8 338.775 135.8Z" fill="black"/>
<path d="M342.775 169.8L341.275 151.5H359.575L358.075 169.8H342.775Z" fill="white"/>
<path d="M357.375 153.5L356.175 167.9H344.575L343.375 153.5H357.275M361.675 149.5H339.075L340.875 171.9H359.875L361.675 149.5Z" fill="black"/>
<path d="M333.975 156.4L344.475 147.1C345.775 146 347.775 146.1 348.875 147.5C349.775 148.7 349.775 150.3 348.775 151.4L336.775 164.3L333.775 161.2C332.475 159.8 332.575 157.7 333.975 156.4Z" fill="black"/>
<path d="M323.475 486.7L299.675 486.2L307.775 521.4H330.675L323.475 486.7Z" fill="black"/>
<path d="M330.575 523.3L364.175 534.6L364.775 539.9H313.875L310.075 523.3H330.575Z" fill="#FF0077" stroke="black" stroke-width="4"/>
<path d="M221.475 523.3L207.575 530.9C204.375 532.6 202.775 536.3 203.675 539.8H240.775V532.6L237.875 523.5L221.475 523.3Z" fill="#FF0077" stroke="black" stroke-width="4"/>
<path d="M239.475 522.3V481.8L217.875 486.7L220.975 522.3H239.475Z" fill="black"/>
<path d="M321.475 188.9L310.675 224.5L297.575 165.7C293.075 151 279.575 140.9 264.175 140.9H253.175V134.2H219.875V140.9H210.375C192.275 141 183.975 153.6 180.075 166.9L161.975 216.7L133.675 181.3L115.475 200.1L152.575 251.5C162.675 263.2 179.475 262.7 185.775 248.5L201.675 215.6L206.275 246.4H285.475L287.075 254.3C289.875 268.7 304.575 277.4 318.575 272.9C326.875 270.2 333.175 263.3 334.975 254.8L349.275 188.8H321.675L321.475 188.9Z" fill="white" stroke="black" stroke-width="4"/>
<path d="M286.575 486.7H335.775L287.275 246.6H204.375C199.175 251.8 192.475 264.6 193.775 281.9C197.875 334.3 205.275 486.8 205.275 486.8H255.875L246.075 308.3" fill="black"/>
<path d="M238.875 143.6L234.775 221.6C234.775 222.2 234.875 222.8 235.175 223.3L243.875 236C244.775 237.4 246.775 237.5 247.775 236.2L256.075 223.5C256.575 222.8 256.775 221.9 256.575 221.1L241.675 143.6H238.775H238.875Z" fill="#FF0077" stroke="black" stroke-width="4"/>
<path d="M258.675 100.6L247.475 105L247.675 105.4C248.875 108.5 252.375 110 255.475 108.8C257.375 108 258.775 106.4 259.175 104.5C259.975 106.3 261.675 107.6 263.675 107.9C266.975 108.4 270.075 106.2 270.575 102.9V102.5L258.775 100.7L258.675 100.6Z" fill="white"/>
<path d="M672.275 192.8C699.775 200.9 711.775 181.2 713.175 166.7C715.675 139.8 690.775 129 690.775 129C690.775 129 709.375 114.7 695.075 100.6C687.775 93.2999 670.075 94.7999 670.075 94.7999C670.075 94.7999 664.475 75.6999 647.875 74.2999C631.275 72.9999 625.375 81.0999 622.875 86.6999C620.275 92.3999 621.575 102 621.575 102L636.775 117.4L672.575 192.8H672.275Z" fill="white" stroke="black" stroke-width="4"/>
<path d="M669.775 507.7L672.375 539.5H704.375L703.875 535.7C703.375 533.6 701.575 532.1 699.475 531.8L694.475 531.2L692.475 507.6H669.775V507.7Z" fill="#FF0077" stroke="black" stroke-width="4"/>
<path d="M604.275 511.2L598.275 539.5H561.875V535.1C561.875 533.3 563.175 531.9 564.775 531.6L576.175 529.9L581.375 511.1H604.275V511.2Z" fill="#FF0077" stroke="black" stroke-width="4"/>
<path d="M759.575 186.7C758.775 177.7 752.775 170 744.275 167.4L722.275 160.6L701.275 154.1L654.075 140.2L626.875 149.4C622.975 150.7 619.775 153.8 618.275 157.7L605.175 191.4C601.975 199.7 604.575 208.6 612.375 212.5L554.175 500L669.675 239.7C670.275 238.8 676.375 232.7 676.375 232.7L667.475 220.5C666.575 219.2 666.475 217.6 667.175 216.2L683.875 184.8L706.175 189.4L722.075 192.3C723.675 192.6 724.475 194.5 723.575 195.9L692.775 240.9L701.275 251.3L752.275 205.4C757.475 200.7 760.175 193.8 759.575 186.7Z" fill="#FF0077" stroke="black" stroke-width="4"/>
<path d="M636.775 136.6C636.775 136.6 636.775 158.2 636.775 159.1C636.775 160 637.475 166.5 648.275 164.4C659.075 162.3 662.175 151.4 662.175 151.4V118.5L645.575 136.6H636.775Z" fill="black"/>
<path d="M640.875 355.4L655.775 501.4H703.675V320.6C703.675 259.3 677.775 231.3 677.775 231.3L605.975 245.3L551.875 501.4C551.875 501.4 616.575 501.4 616.675 501.4" fill="black"/>
<path d="M628.875 88.8999L662.475 88.3999L662.175 124.5C662.175 131.6 656.475 137.4 649.275 137.4H633.275C626.475 137.4 621.075 132 621.075 125.2V96.7999C621.075 92.3999 624.575 88.7999 628.975 88.7999L628.875 88.8999Z" fill="black"/>
<path d="M623.275 95.4001C623.275 95.4001 623.275 100 631.275 96.3001C639.175 92.7001 639.275 88.7 639.275 88.7C639.275 88.7 639.575 91.7001 643.575 93.1001C645.875 93.9001 648.375 92.2 648.375 92.2C648.375 92.2 647.475 102.7 654.975 107.8C662.475 112.9 665.975 105 665.975 105C665.975 105 666.775 93.7001 662.475 87.0001C658.075 80.3001 638.675 81.4001 633.575 83.1001C626.475 85.5001 623.675 90.9001 623.675 90.9001L623.375 95.4001H623.275Z" fill="white"/>
<path d="M658.675 111.4C663.475 106 667.475 109.4 667.875 111.4C668.775 115.7 663.875 118 661.075 118.9C658.275 119.7 655.675 118.9 655.675 118.9L658.675 111.4Z" fill="black"/>
<path d="M621.875 121.4C618.475 121.4 616.075 117 616.075 111C616.075 105 618.575 100.6 621.875 100.6C625.175 100.6 627.675 105 627.675 111C627.675 117 625.175 121.4 621.875 121.4Z" fill="white"/>
<path d="M621.875 102.6C623.975 102.6 625.675 106.4 625.675 111C625.675 115.6 623.975 119.4 621.875 119.4C619.775 119.4 618.075 115.6 618.075 111C618.075 106.4 619.775 102.6 621.875 102.6ZM621.875 98.5999C617.275 98.5999 614.075 103.7 614.075 111C614.075 118.3 617.275 123.4 621.875 123.4C626.475 123.4 629.675 118.3 629.675 111C629.675 103.7 626.475 98.5999 621.875 98.5999Z" fill="black"/>
<path d="M694.375 242.9L692.775 240.9L690.075 244.7C688.775 246.6 687.775 248.7 687.075 250.9L684.075 260.6C683.675 261.7 684.075 262.9 685.075 263.5C686.175 264.1 687.675 263.7 688.175 262.5L691.475 255.4C691.475 255.4 693.175 259.2 694.975 264.1C696.775 269 698.975 278.2 698.975 278.2C698.975 278.2 701.975 278.2 701.375 273.5C700.775 268.8 698.975 254.8 698.975 254.8L701.275 251.4L694.375 243V242.9Z" fill="black" stroke="black" stroke-width="4"/>
<path d="M635.975 122.6C631.575 122.6 628.175 117.5 628.175 111C628.175 104.5 631.575 99.3999 635.975 99.3999C640.375 99.3999 643.775 104.5 643.775 111C643.775 117.5 640.375 122.6 635.975 122.6Z" fill="white"/>
<path d="M635.975 101.4C639.175 101.4 641.775 105.7 641.775 111C641.775 116.3 639.175 120.6 635.975 120.6C632.775 120.6 630.175 116.3 630.175 111C630.175 105.7 632.775 101.4 635.975 101.4ZM635.975 97.3999C630.375 97.3999 626.175 103.2 626.175 111C626.175 118.8 630.375 124.6 635.975 124.6C641.575 124.6 645.775 118.8 645.775 111C645.775 103.2 641.575 97.3999 635.975 97.3999Z" fill="black"/>
<path d="M683.975 184.8L676.375 183.1C672.975 182.4 669.375 183.6 667.075 186.2L666.075 187.3" fill="#FF0077"/>
<path d="M683.975 184.8L676.375 183.1C672.975 182.4 669.375 183.6 667.075 186.2L666.075 187.3" stroke="black" stroke-width="4" stroke-linecap="round"/>
<path d="M640.575 338.9L637.775 298.3C637.175 290.3 630.575 284.1 622.575 284.1" stroke="white" stroke-width="4" stroke-miterlimit="10" stroke-linecap="round"/>
<path d="M239.475 136.6L236.075 140.4C235.375 141.2 235.275 142.3 235.875 143.1L239.275 148.3C239.975 149.4 241.675 149.5 242.475 148.4L246.475 143.2C247.175 142.3 247.075 141.1 246.275 140.3L242.775 136.6C241.875 135.7 240.375 135.7 239.475 136.6Z" fill="#FF0077" stroke="black" stroke-width="4"/>
<path d="M310.175 523.4L307.075 509.3H326.175L329.075 523.4H310.175Z" fill="white"/>
<path d="M324.575 511.3L326.675 521.4H311.875L309.575 511.3H324.575ZM327.775 507.3H304.575L308.675 525.4H331.575L327.775 507.3Z" fill="black"/>
<path d="M222.975 523.4L221.775 509.3H237.475V523.4H222.975Z" fill="white"/>
<path d="M235.475 511.3V521.4H224.875L224.075 511.3H235.575M239.475 507.3H219.675L221.175 525.4H239.475V507.3Z" fill="black"/>
<path d="M285.375 246.6L272.375 181.3" stroke="black" stroke-width="4" stroke-linecap="round"/>
<path d="M439.675 376.8H462.875C463.275 376.8 463.575 377.1 463.575 377.6L460.775 412.9H441.775L438.975 377.6C438.975 377.2 439.275 376.8 439.675 376.8Z" fill="black"/>
<path d="M443.675 410.8L442.175 392.4H460.375L458.875 410.8H443.675Z" fill="white"/>
<path d="M458.175 394.4L456.975 408.8H445.375L444.175 394.4H458.075M462.575 390.4H439.975L441.775 412.8H460.775L462.575 390.4Z" fill="black"/>
<path d="M428.975 411H473.575" stroke="black" stroke-width="4" stroke-miterlimit="10" stroke-linecap="round"/>
<path d="M606.775 509.3L610.175 494.8L582.875 495.5L579.875 509.2L606.775 509.3Z" fill="black"/>
<path d="M667.875 507.7L666.275 493.1L692.975 493.9L694.475 507.8L667.875 507.7Z" fill="black"/>
</svg>
