<svg width="840" height="569" viewBox="0 0 840 569" fill="none" xmlns="http://www.w3.org/2000/svg">
<path d="M461.001 325.7L495.701 354.9L524.301 368.8C532.001 372.5 537.601 379.4 539.801 387.7L579.301 540.8L435.601 541.4L461.101 325.6L461.001 325.7Z" fill="black"/>
<path d="M335.601 199.7C335.501 201.8 334.901 203.9 333.901 205.8C333.101 207.3 332.001 208.7 330.501 209.4C329.101 210 327.501 210 326.001 209.7C323.501 209.2 321.101 208.1 319.201 206.4C318.701 206 318.301 205.5 317.701 205.3C317.101 205.1 316.301 205.1 315.901 205.6C315.601 205.9 315.601 206.4 315.501 206.9C315.201 209.2 313.901 211.2 312.301 212.8C310.401 214.7 307.601 216.1 305.001 215.3C304.301 215.1 296.301 221.3 289.801 222.6C284.701 223.6 280.701 219.9 280.301 219.5C277.401 216.6 293.401 203.9 293.501 199.8L298.801 178L318.701 167L335.501 199.7H335.601Z" fill="white"/>
<path d="M195.4 174.6C194.3 176.9 193.6 179.5 194.3 181.9C195.5 185.7 199.8 187.4 203.6 188.7C201.6 193.7 204.7 199.9 209.6 202.2C214.5 204.5 220.5 203.5 225.1 200.5C229.7 197.6 232.9 193 235.4 188.2C236 187.1 236.5 186 236.5 184.7C236.5 181.6 233.4 179.7 231.1 177.7C229 175.8 227.3 173.5 225.4 171.5C223.4 169.4 221.1 167.5 218.6 166C215.6 164.2 212 163 208.8 164.2C207.2 164.8 205.9 165.9 204.3 166.5C202.3 167.2 199.9 166.7 198.6 168.6C197.4 170.3 196.5 172.8 195.6 174.7L195.4 174.6Z" fill="white"/>
<path d="M293.501 178.7C311.501 164.5 318.901 147.7 312.401 122.3C305.901 96.8001 279.201 114.7 279.201 114.7C279.201 114.7 277.301 101.4 269.801 94.0001C262.401 86.7001 248.301 92.3001 234.901 83.4001C217.601 71.9001 203.201 71.7001 196.701 88.3001C188.001 110.7 209.301 123 209.301 123C209.301 123 200.001 120.7 190.701 127.5C180.701 134.8 178.501 144.7 182.101 153.8C186.801 165.8 198.401 168.9 206.701 167.1C206.701 167.1 207.401 171.6 213.401 175.8C217.801 178.9 231.401 181.1 242.601 172.9C253.801 164.7 293.501 178.6 293.501 178.6V178.7Z" fill="white"/>
<path d="M297.701 154.7C316.001 156.6 329.601 151 340.001 132.7C350.401 114.4 325.101 109.8 325.101 109.8C325.101 109.8 331.401 101.1 331.201 92.7C331.001 84.4 319.801 79.8 317.101 67.2C313.501 51 305.401 42.8 292.401 48.8C274.901 56.8 280.301 75.8 280.301 75.8C280.301 75.8 276.301 69.3 267.101 68C257.301 66.6 250.501 71.1 247.501 78.4C243.501 88 248.501 96.2 254.201 99.8C254.201 99.8 252.101 102.8 253.201 108.5C254.001 112.7 260.601 121.5 271.601 123.1C282.601 124.7 297.701 154.7 297.701 154.7Z" fill="white"/>
<path d="M611.7 110.6C602.4 110.1 600.8 104.5 602 99.3001C602.8 96.1001 607.8 87.1001 607.8 87.1001C607.8 87.1001 593.6 79.0001 596.6 61.2001C599.7 43.4001 617.7 40.1001 625.3 49.8001C631.2 57.3001 631.1 63.4001 638.1 65.7001C645.1 67.9001 648.8 65.7001 654.3 70.7001C659.3 75.3001 660.6 80.1001 660.6 80.1001C660.6 80.1001 674.8 76.2001 685.9 87.3001C692.3 93.7001 693.6 108.3 693 114.8C692.4 121.2 701.4 132.6 725.3 140.7C749.3 148.8 765.2 148.5 773 166.9C780.8 185.3 773 197.8 773 197.8C773 197.8 809.2 208.4 811.2 236.3C813.2 264.2 798.3 273.3 788.3 277.6C748.8 294.6 733 246.3 648.3 234.7C632.3 232.5 560.3 255.5 558.7 232.1C557.3 212.3 560.3 202.3 581.4 189.3C597 179.7 611.3 165.3 611.3 144.7C611.3 124.1 611.4 110.7 611.4 110.7L611.7 110.6Z" fill="#FF0077" stroke="black" stroke-width="4"/>
<path d="M638.4 189.1L642.6 243.6L679.4 201.2" fill="white"/>
<path d="M678.5 137.3H640.4V186H678.5V137.3Z" fill="white"/>
<path d="M640.4 169.3H658.1L640.4 185.5V169.3Z" fill="black"/>
<path d="M618.7 83.9L620.2 142.8C620.6 158.6 633.5 171.2 649.4 171.2C666.3 171.2 679.7 156.8 678.5 139.9L677.2 121.6L676.5 111.6L618.7 83.8V83.9Z" fill="white"/>
<path d="M676.5 132C682.5 123.5 688 127.6 689 131.2C690 134.7 688 139 684.6 139.5C681.2 140.1 677.601 139.6 676.401 139.1C675.301 138.5 676.401 132 676.401 132H676.5Z" fill="white"/>
<path d="M303 193.8L278.3 224.1C268.3 236.4 250.4 238.4 237.8 228.7C224.4 218.3 222.6 198.8 233.9 186.2L246.1 172.5L252.8 165L296.1 174.2C304.9 176.1 308.7 186.6 302.9 193.7L303 193.8Z" fill="black"/>
<path d="M677.6 128.1C677.6 128.1 672.8 125.6 671.7 122.3C670.6 118.9 671.1 114.4 671.1 114.4C671.1 114.4 651 111 640.7 103.2C630.4 95.4001 626.4 89.5001 626.4 89.5001C626.4 89.5001 625.8 97.7001 618.8 105.8C616.2 108.9 615.7 87.0001 615.4 86.3001C615.2 85.6001 616.5 79.6001 616.5 79.6001L646.5 94.6001L680.3 110.5V123.7L677.7 128.1H677.6Z" fill="#FF0077"/>
<path d="M419.601 321.5C415.901 321.5 404.401 327.5 404.401 327.5C404.401 327.5 401.601 337.4 401.301 347.9C400.601 369.6 395.601 538.3 395.601 538.3H455.301C455.301 538.3 463.201 355.6 462.001 342C460.801 328.4 455.001 323.4 446.201 321.5C437.501 319.5 419.601 321.5 419.601 321.5Z" fill="#FF0077" stroke="black" stroke-width="4"/>
<path d="M434.101 353.1L421.801 366.7L433.501 384.4L447.101 366.6L434.101 353.1Z" fill="black"/>
<path d="M429.8 376.4L402.9 538.3H456.8L437.3 372.2L429.8 376.4Z" fill="black"/>
<path d="M499.8 527.9C501 529.1 502.9 529.3 504.3 528.2C505.7 527.1 505.9 525 504.8 523.6L492.8 508.9C492.1 507.2 490.8 505.8 489.1 505L472.1 497.3C469.8 496.3 465.2 494.6 462.7 494.4L419.6 487.5L411.7 496.3L404.4 516L436.7 518L440.2 518.3L463.7 532.2C465.4 533.1 467.5 532.6 468.6 531.1C469.9 529.4 469.5 527 467.8 525.7L459.1 519.4C458.2 518.7 457.9 517.3 457.8 516.7C457.5 513.9 459 509.2 463.9 508.6C464.8 508.5 465.7 508.6 466.6 508.8L485.2 513.3L490 529.9C490.5 531.8 491.9 533 493.8 532.6C495.8 532.2 497.1 530.4 496.7 528.4" fill="white"/>
<path d="M411.1 274.9L406.7 329.5L434.1 353.1L459.6 330.6L459.4 301.1L427.4 270.1L411.1 274.9Z" fill="white" stroke="black" stroke-width="4" stroke-miterlimit="10"/>
<path d="M457.001 303.9L462.601 300L428.801 267.2L410.501 283.4" fill="#FF0077"/>
<path d="M427.101 222.6L471.001 226.1C478.201 226.7 482.901 240.5 482.301 247.7L479.401 283.7C478.001 300.8 463.101 313.5 446.001 312.1L420.101 310C412.901 309.4 407.601 303.2 408.201 296L413.101 234.4C413.701 227.2 419.901 221.9 427.101 222.5V222.6Z" fill="white"/>
<path d="M473.8 210.3L427.3 206.6C419.7 206 413.1 211.6 412.5 219.2L408.7 265.3C409.3 265.5 409.9 265.7 410.5 266C410.5 265.8 410.4 265.6 410.4 265.4C410.2 264.2 410.5 263 411.2 261.9C410.4 260.5 410.2 258.7 410.9 257.2C410.9 255.7 411.6 254.2 413.4 253.3C414.5 252.7 415.7 252.2 416.9 251.8C417.2 251.7 417.6 251.6 417.9 251.6C418.2 251.5 418.5 251.4 418.9 251.4C419.3 250.5 419.9 249.6 421.1 248.8C425.3 245.9 433.6 247.5 435.7 240.5C437 236.5 438 226.6 438 226.6C438 226.6 438.7 233.3 448.8 235.9C458.9 238.5 463.9 238.5 473.7 239.9C479.1 240.7 481.7 244.3 482.5 247V245.5C482.6 245.5 484.4 225.6 484.4 225.6C485 218 481.5 211 474 210.4L473.8 210.3Z" fill="black"/>
<path d="M443.301 285.3C423.501 285.3 417.901 271.3 417.901 271.3C417.301 271.2 416.701 270.3 416.101 270.1C415.901 270.1 417.701 270.6 417.501 270.7C415.001 271.6 413.001 270.3 412.001 268.4C411.401 267.9 411.001 267.2 410.701 266.5L406.801 303.4C406.001 310.7 411.501 317.2 418.801 317.7L451.601 319.6C465.801 320.4 478.001 309.6 478.801 295.4L479.301 287.3L471.901 286.9L443.401 285.3H443.301Z" fill="black"/>
<path d="M588.2 375.6L566 364.7C564.8 364.1 563.3 364.7 563 366.1C562.8 367 563.1 367.9 563.9 368.4C565.9 369.7 570.1 372.5 573.8 375L560.3 372.3C559 372 557.8 373 557.8 374.4C557.8 375.8 558.4 376.1 559.2 376.4C563.7 377.9 577.5 382.6 579.1 383.1L582.7 379.1L588.1 375.6H588.2Z" fill="black"/>
<path d="M556.3 315.3L582.2 324.2L608.1 347.6L589.7 383.8L559.9 388.6C559.9 388.6 556.4 384.2 566.8 381.5C571.3 380.3 581.3 377.8 581.3 377.8L583.3 362.6C583.6 360.2 582.7 357.8 580.8 356.3L564.5 342.7L556.3 315.3Z" fill="white" stroke="black" stroke-width="4"/>
<path d="M657 537.6C657 537.9 657 538.1 656.8 538.3H723C723 538.3 743.6 490.7 746.1 451.6C750.8 377.6 710.3 340.4 710.3 340.4H611.2C611.2 340.4 579.7 391.2 575.5 429C571.3 466.7 580.2 538.4 580.2 538.4H652.8C652.7 538.1 652.6 537.9 652.7 537.6" fill="black"/>
<path d="M680.6 209.8V186H632.6L629.4 209.8H680.6Z" fill="black"/>
<path d="M744.9 329.6L712.1 325.7L708.3 357.1L773.5 366.3C789.5 368.5 802 352.8 796.2 337.7C783.5 304.8 765.7 258.7 763.3 251.8C756.7 232.9 750.6 210.8 731.7 204.2C712.8 197.6 681.5 205.6 681.5 205.6H631.8C631.8 205.6 606.4 192.4 586.1 202.3C565.8 212.2 525.3 249 506.5 267.8C487.6 286.7 494.2 300.8 506.5 308.8C518.8 316.8 563.5 345.1 563.5 345.1L584.2 322.5L553.6 288.5L587.1 260.7L611.5 341.3L710.6 340.3L721.3 295.5" fill="black"/>
<path d="M696.2 369H643.1C640.8 369 638.9 367.5 638.2 365.3L613.9 281.2C613 278 615.4 274.7 618.8 274.7H671.9C674.2 274.7 676.1 276.2 676.8 278.4L701.1 362.5C702 365.7 699.6 369 696.2 369Z" fill="black" stroke="white" stroke-width="4"/>
<path d="M703.401 327.7C703.401 327.7 700.8 321.1 695.6 319.3C688.9 316.9 685.401 315.3 685.401 315.3L687.1 321.3L654.8 316C652.6 315.6 650.5 317.3 650.5 319.5C650.5 321.7 651.501 322.4 652.901 322.9C653.201 323 653.501 323.1 653.901 323.2C652.401 323.6 651.3 325 651.3 326.6C651.3 328.2 652.301 329.5 653.701 330C654.001 330.1 654.4 330.2 654.8 330.4C653 330.6 651.6 332.1 651.6 333.9C651.6 335.7 652.6 336.8 654 337.3C654.2 337.3 654.3 337.4 654.5 337.5C653.5 338.1 652.8 339.2 652.8 340.5C652.8 341.8 653.801 343.4 655.201 343.9C656.601 344.4 682.7 350.4 684.8 351.2L708.3 354.8L713.401 329.1L703.3 327.8L703.401 327.7Z" fill="white"/>
<path d="M554.401 433.8L514.401 530.3H469.101C465.801 530.3 463.101 533 463.101 536.3V539.3H683.401L716.901 450.6C719.501 443.6 714.401 436.1 707.001 436L554.301 433.8H554.401Z" fill="black"/>
<path d="M319.5 538.3H413L419.6 487.4L391.8 482.7" fill="black"/>
<path d="M276.101 452.5L267.201 470C254.901 496.3 274.601 526.5 300.801 537.6" fill="black"/>
<path d="M287.1 272.5C287.1 272.5 280.2 263.3 276.2 260.5C276.2 260.5 202 207.2 181 200.9C164.4 195.9 150.4 200.3 141 223.9C132.8 244.6 130.1 276.3 99 309.3L194.9 331.9L205.6 320.7C205.6 320.7 210.4 325 215.8 324.7C223.8 324.2 239.6 313.7 239.6 313.7L244.3 327.1C248.7 331.5 255.4 358.4 255.4 358.4L296.8 333L287.1 272.6V272.5Z" fill="white"/>
<path d="M132.101 538.3H232.001L167.001 319.6L99.1006 309.2C74.4006 309.2 54.5006 329.7 55.3006 354.4L61.4007 538.2H132.101V538.3Z" fill="white"/>
<path d="M56.2001 408.5C56.2001 394.4 55.3008 387 55.3008 386.4C69.4008 386.4 80.9008 397.9 80.9008 412C80.9008 426.1 70.4008 437.6 55.3008 437.6C56.2002 438.499 56.2001 422.6 56.2001 408.5Z" fill="black"/>
<path d="M112.301 372.1C126.44 372.1 137.901 360.639 137.901 346.5C137.901 332.362 126.44 320.9 112.301 320.9C98.1627 320.9 86.7012 332.362 86.7012 346.5C86.7012 360.639 98.1627 372.1 112.301 372.1Z" fill="black"/>
<path d="M157.901 458.8C172.039 458.8 183.501 447.339 183.501 433.2C183.501 419.062 172.039 407.6 157.901 407.6C143.762 407.6 132.301 419.062 132.301 433.2C132.301 447.339 143.762 458.8 157.901 458.8Z" fill="black"/>
<path d="M106.5 525.9C120.639 525.9 132.1 514.439 132.1 500.3C132.1 486.162 120.639 474.7 106.5 474.7C92.3619 474.7 80.9004 486.162 80.9004 500.3C80.9004 514.439 92.3619 525.9 106.5 525.9Z" fill="black"/>
<path d="M214.4 493C200.3 493 189.2 504.5 189.2 518.6C189.2 526.486 192.673 533.559 198.2 538.262L231.931 538.5V537.228L220.367 493.704C218.452 493.244 216.454 493 214.4 493Z" fill="black"/>
<path d="M192.001 289.7L199.501 345.1L274.601 308.1L283.401 327.6C283.401 327.6 212.901 387.9 192.201 395.9C171.501 403.9 155.201 390.4 151.901 370.6C148.601 350.8 141.101 305.4 141.101 305.4L192.001 289.8V289.7Z" fill="black"/>
<path d="M357.201 290.5C355.601 288.7 353.501 290.2 352.501 290.8L337.101 300.1C334.101 301.8 330.601 302.4 327.201 301.7L303.001 298.1L308.101 294.3C309.901 292.9 310.201 290.3 308.701 288.4C307.201 286.6 304.501 286.3 302.701 287.7L287.701 298.9C286.201 299.8 285.001 301 284.101 302.6C273.601 308.6 266.301 312.1 266.301 312.1L280.001 330.2L292.701 320.1L334.101 311.5C337.701 310.7 341.001 309 343.701 306.6L356.201 295.4C357.601 294.1 358.601 292.1 357.101 290.4L357.201 290.5Z" fill="black"/>
<path d="M382.4 537.4L359.6 529.7L326.1 517.9L296.9 336.4L254.2 360.3L304.2 532.7C305.8 537.8 310.6 541.2 315.9 541.2H381.2C383.2 541.2 384.1 538.6 382.5 537.4H382.4Z" fill="black"/>
<path d="M143.701 308.9L136.801 268.4" stroke="black" stroke-width="4" stroke-linecap="round"/>
<path d="M717.6 356.1L654.8 346.5" stroke="black" stroke-width="4" stroke-linecap="round"/>
<path d="M738.501 331.6L707.101 326.8L705.101 326.5" stroke="black" stroke-width="4" stroke-linecap="round"/>
<path d="M246.801 305.4L233.801 317.2C228.801 321.7 222.401 326.1 215.801 324.7C213.101 324.2 205.601 320.7 205.601 320.7L193.301 337.7" stroke="black" stroke-width="4" stroke-linecap="round"/>
<path d="M239.701 313.7L255.501 358.4L295.001 335.2L288.701 284.5C287.101 274.8 281.801 266 273.901 260L250.801 242.3L191.201 204.8C190.801 204.5 190.301 204.3 189.901 204C172.301 193.9 149.901 202.6 142.701 221.6L134.801 242.5C127.301 262.3 118.101 281.5 107.301 299.7L101.501 309.4C74.4008 309.4 52.7008 332 53.8008 359.1L61.3008 538.4" stroke="black" stroke-width="4" stroke-linecap="round"/>
<path d="M189.4 395.4L232 538.3" stroke="black" stroke-width="4" stroke-linecap="round"/>
<path d="M210.5 246.6C218.8 253.4 231.1 252.1 237.7 243.5L265.7 207.3L235.5 184L207.5 220.2C201.2 228.3 202.5 240 210.5 246.6Z" fill="black"/>
<path d="M476.7 295.5L481.7 230.1" stroke="black" stroke-width="4" stroke-miterlimit="10"/>
<path d="M640.401 186V172.3C640.401 172.1 640.301 171.9 640.101 171.8C637.301 170.8 619.301 163.8 620.201 142.8C621.101 122.3 620.201 105.9 620.201 105.9C620.201 105.9 628.001 98.5001 626.301 89.6001C624.701 80.9001 634.801 114.2 668.401 114.5C669.801 114.5 670.901 115.6 671.001 117C671.101 120.6 672.101 126.8 677.601 128.3C677.601 128.3 685.601 122.9 689.101 128.9C692.601 134.8 686.501 143.1 678.501 141.5V186.2" stroke="black" stroke-width="4" stroke-miterlimit="10"/>
<path d="M274.301 161.9C270.601 146.2 273.901 133.8 288.601 122.6C303.301 111.5 310.201 133 310.201 133C310.201 133 317.001 126.5 324.401 125.7C331.701 124.9 337.001 134.2 348.201 135.1C362.701 136.4 370.801 142.6 367.001 154.5C362.001 170.6 344.801 168.1 344.801 168.1C344.801 168.1 350.901 170.9 353.101 178.7C355.401 187.1 355.301 194.3 349.401 197.7C341.501 202.3 330.701 198.1 327.001 193.5C327.001 193.5 324.601 195.7 319.501 195.3C315.701 195.1 307.301 190.3 304.701 180.9C302.101 171.5 274.201 161.7 274.201 161.7L274.301 161.9Z" fill="white"/>
<path d="M242.101 173.3C242.101 173.3 248.501 181.4 257.501 182.6C266.501 183.9 276.001 176.1 289.201 176.4C302.401 176.7 306.501 182.7 306.501 182.7V162.3L292.901 150L256.001 142.6L242.101 173.3Z" fill="white"/>
<path d="M245.2 181.8C245.8 167.8 236.5 167.6 232.4 170.6C228.5 173.5 227 179.8 230.2 183.2C233.4 186.6 237.6 189.2 239.3 189.5C241 189.8 245.2 181.9 245.2 181.9V181.8Z" fill="black"/>
<path d="M203.7 215L202.1 217.2C194.5 227.3 195.8 241.6 205.1 250.2C215 259.3 230.5 258.8 239.8 249L245.7 241.2" stroke="#FF0077" stroke-width="4"/>
<path d="M225.1 203.8C214 205.5 203.3 200.6 204.9 187.6C204.7 189.1 197.7 185.9 196.9 185.3C194.5 183.3 193.1 179.9 193.2 176.8C193.3 173.7 195.9 169.2 199.5 167.6C191.4 167.6 183.7 161.7 181.1 154C178.3 145.8 181.2 136.3 187.3 130.4C193.5 124.4 200.1 124.6 207.8 123.8C204.9 122.4 202.8 119.7 200.7 117.3C198.6 114.9 197 112.5 195.8 109.7C192.9 103.1 193.2 95.9002 195.8 89.2002C202.3 72.6002 220.1 76.8002 234 84.3002L245.8 90.0002C245.3 87.0002 245.1 82.8002 246.6 79.3002C249.6 72.1002 256.4 67.6002 266.2 68.9002C275.4 70.2002 279.4 76.7002 279.4 76.7002C279.4 76.7002 274 57.7002 291.5 49.7002C304.5 43.7002 312.7 51.9002 316.2 68.1002C318.9 80.7002 330.1 85.3002 330.3 93.6002C330.5 102.1 324.2 110.7 324.2 110.7C324.2 110.7 349.1 115.2 339.3 133.2C341.8 134.5 344.7 135.6 348.1 135.8C362.6 137.1 370.7 143.3 366.9 155.2C365.4 160.1 362.2 164.1 357.5 166.4C353.6 168.3 349.2 168.9 344.9 168.8C347.2 169.7 349.1 171.1 350.8 172.8C354.7 176.9 356.9 182.7 355.9 188.3C354.1 197.6 345.5 199.4 337.5 199.7C337 199.7 336.3 199.7 336 200.2C335.8 200.4 335.8 200.7 335.8 201C335.5 203.5 335.8 206.9 334 208.8C332.7 210.1 330.8 210.5 329 210.2C325.8 209.7 323.2 207.5 320.2 206.5C319.2 206.2 318.1 206 317.1 206.3C313.8 207.4 314.1 212.5 311.3 214.5C308.6 216.4 304.7 214.4 301.5 215.1C298.3 215.8 296.4 219.1 293.6 220.8C288 224.3 280.9 220.3 277.3 215.6" stroke="black" stroke-width="4" stroke-linejoin="round"/>
<path d="M463.601 539.3V538.2C463.601 532.7 468.101 528.2 473.601 528.2H510.101C513.201 528.2 516.001 526.3 517.201 523.4L551.601 440.5C553.301 436.4 557.301 433.8 561.701 433.8H695.701C699.301 433.8 701.701 437.4 700.401 440.7L675.101 512.4" stroke="white" stroke-width="4" stroke-miterlimit="10" stroke-linecap="round"/>
<path d="M418.8 251.3L417.8 272.9L408.5 282.4L410 248.9L418.8 251.3Z" fill="black"/>
<path d="M409.6 255.6C403 255.4 399.8 258.3 399.6 264.9C399.4 271.5 402.3 274.7 408.9 274.9" fill="white"/>
<path d="M409.6 255.6C403 255.4 399.8 258.3 399.6 264.9C399.4 271.5 402.3 274.7 408.9 274.9" stroke="black" stroke-width="4"/>
<path d="M319.501 538.3L315.601 532.6L283.301 438.8L316.701 366.6C318.201 363.7 320.801 361.4 323.801 360.2L376.401 340.3L405.001 323.5L401.101 375.3L396.801 496.6" fill="black"/>
<path d="M310.101 409.5L326.101 517.9L369.701 529.7C373.801 530.8 377.201 533.7 379.001 537.5" stroke="white" stroke-width="4" stroke-miterlimit="10" stroke-linecap="round"/>
<path d="M429.9 313.9L451.6 337.7L459.6 330.6L462.1 315.3L429.9 313.9Z" fill="black"/>
<path d="M811.8 539.9H25.9004" stroke="black" stroke-width="4" stroke-miterlimit="10" stroke-linecap="round"/>
</svg>
