<svg width="661" height="370" viewBox="0 0 661 370" fill="none" xmlns="http://www.w3.org/2000/svg">
<path d="M394.6 271.4H291.9V331.2H394.6V271.4Z" fill="black"/>
<path d="M514.5 56.5H172.1C166.577 56.5 162.1 60.9772 162.1 66.5V261.5C162.1 267.023 166.577 271.5 172.1 271.5H514.5C520.022 271.5 524.5 267.023 524.5 261.5V66.5C524.5 60.9772 520.022 56.5 514.5 56.5Z" fill="black"/>
<path d="M627.6 340.2H33" stroke="black" stroke-width="4" stroke-miterlimit="10" stroke-linecap="round"/>
<path d="M511.8 239.8V70.6001H175.5L176.4 239.8H511.8Z" fill="white"/>
<path d="M291.9 213.6C323.601 213.6 349.3 187.901 349.3 156.2C349.3 124.499 323.601 98.8 291.9 98.8C260.199 98.8 234.5 124.499 234.5 156.2C234.5 187.901 260.199 213.6 291.9 213.6Z" fill="white" stroke="black" stroke-width="4"/>
<path d="M291.9 156.2V98.8C323.5 98.8 349.3 124.8 349.3 156.2C349.3 176.5 338.1 196.1 320 206.2L291.9 156.2Z" fill="#FF0077" stroke="black" stroke-width="4"/>
<path d="M291.9 190.4C310.788 190.4 326.1 175.088 326.1 156.2C326.1 137.312 310.788 122 291.9 122C273.012 122 257.7 137.312 257.7 156.2C257.7 175.088 273.012 190.4 291.9 190.4Z" fill="white" stroke="black" stroke-width="4"/>
<path d="M59.4 206.4C64.3153 206.4 68.3 202.415 68.3 197.5C68.3 192.585 64.3153 188.6 59.4 188.6C54.4847 188.6 50.5 192.585 50.5 197.5C50.5 202.415 54.4847 206.4 59.4 206.4Z" fill="black"/>
<path d="M161.6 309.1C166.516 309.1 170.5 305.115 170.5 300.2C170.5 295.285 166.516 291.3 161.6 291.3C156.685 291.3 152.7 295.285 152.7 300.2C152.7 305.115 156.685 309.1 161.6 309.1Z" fill="black"/>
<path d="M183.1 182.7C195.692 182.7 205.9 172.492 205.9 159.9C205.9 147.308 195.692 137.1 183.1 137.1C170.508 137.1 160.3 147.308 160.3 159.9C160.3 172.492 170.508 182.7 183.1 182.7Z" fill="white" stroke="black" stroke-width="4"/>
<path d="M166.1 115.4L151 100.4C143.4 92.8001 131 92.8001 123.4 100.4C115.8 108 115.8 120.4 123.4 128L138.5 143C130.5 162 134.2 184.8 149.7 200.3L223.4 126.4C207.9 110.9 185.1 107.3 166.1 115.4Z" fill="black" stroke="black" stroke-width="4"/>
<path d="M196.2 338.2H126.7L128.5 333.6C129.4 331.3 131.6 329.7 134.1 329.6L188.1 326.5C191.2 326.3 193.9 328.4 194.6 331.4L196.2 338.2Z" fill="black"/>
<path d="M626.1 86.5C626.1 86.5 603.5 87.5 588.1 103.8C572.7 120.1 574.1 140.3 574.1 140.3C574.1 140.3 595 143.2 610.9 124.9C626.8 106.6 626.1 86.5 626.1 86.5Z" fill="#FF0077" stroke="black" stroke-width="4"/>
<path d="M498.5 48.3C498.5 48.3 498.5 76.2001 517.9 95.9001C537.3 115.6 562.2 115 562.2 115C562.2 115 566.8 89.4 545.1 69C523.4 48.6 501 48.5 501 48.5L498.5 48.3Z" fill="#FF0077" stroke="black" stroke-width="4"/>
<path d="M524.5 339.1L495 235.8C493.9 232 496.8 228.2 500.8 228.3L617.8 231.2C621.5 231.2 624.3 234.8 623.4 238.5L599.5 339.2H524.5V339.1Z" fill="black"/>
<path d="M354.2 263.4C350.9 263.4 348.1 260.7 348.1 257.3C348.1 253.9 349.1 253.4 350.7 252.3C349.3 251.6 347.8 251.2 346.1 251.2C340.6 251.2 336.1 255.7 336.1 261.2C336.1 266.7 340.6 271.2 346.1 271.2C351.6 271.2 355.1 267.6 356 262.9C355.4 263.1 354.8 263.2 354.2 263.2V263.4Z" fill="white"/>
<path d="M274.8 327.9H411.7C415.1 327.9 417.8 330.6 417.8 334V339.2H268.8V334C268.8 330.6 271.5 327.9 274.9 327.9H274.8Z" fill="black"/>
<path d="M127.1 131.7L59.3999 197.5L161.6 300.2V328.6" stroke="black" stroke-width="4" stroke-miterlimit="10"/>
<path d="M46.5998 274.8C37.0998 274.8 32.7998 279.2 32.7998 288.6C32.7998 298.1 37.1998 302.4 46.5998 302.4" stroke="black" stroke-width="4"/>
<path d="M46.2998 310.1C46.2998 322.3 52.8998 332.9 62.5998 338.7H96.3998C106.2 332.9 112.7 322.3 112.7 310.1V263.7H46.2998V273.6C46.1998 273.6 46.2998 291.7 46.2998 291.7V310.2V310.1Z" fill="black"/>
<path d="M574.1 237.7V140.3L626.1 86.5" stroke="black" stroke-width="4" stroke-miterlimit="10"/>
<path d="M561.8 237.7V115L500 50" stroke="black" stroke-width="4" stroke-miterlimit="10"/>
<path d="M601.7 93.6001V110.6H621.1" stroke="black" stroke-width="4" stroke-miterlimit="10"/>
<path d="M589 102V125H610.5" stroke="black" stroke-width="4" stroke-miterlimit="10"/>
<path d="M549.6 73.8V100H520.9" stroke="black" stroke-width="4" stroke-miterlimit="10"/>
<path d="M384.9 123.2V208.1H488.9C488.9 208.1 485 164 447.2 164C409.4 164 425.8 144.2 414.9 132.5C404 120.9 384.8 123.2 384.8 123.2H384.9Z" fill="black"/>
<path d="M438.1 205.1V98.8" stroke="black" stroke-width="4" stroke-linecap="round"/>
<path d="M489 208.1V98.8" stroke="black" stroke-width="4"/>
<path d="M386.9 205.1V98.8" stroke="black" stroke-width="4" stroke-linecap="round"/>
<path d="M464.3 95.1C464.3 95.1 464.9 131.7 490.6 157.4C516.4 183 549.2 181.7 549.2 181.7C549.2 181.7 554.8 148 525.9 121.4C497 94.9 464.3 95 464.3 95V95.1Z" fill="#FF0077" stroke="black" stroke-width="4"/>
<path d="M549.2 232.8V181.7L465.2 97.7001" stroke="black" stroke-width="4" stroke-miterlimit="10"/>
<path d="M489 99.8V122.9H469.1" stroke="black" stroke-width="4" stroke-miterlimit="10"/>
<path d="M516.6 115.7V148.1C516.6 148.1 484.1 146.5 482.6 148.1" stroke="black" stroke-width="4" stroke-miterlimit="10"/>
<path d="M525.6 54.4V76.7H504.3" stroke="black" stroke-width="4" stroke-miterlimit="10"/>
</svg>
