<svg width="656" height="450" viewBox="0 0 656 450" fill="none" xmlns="http://www.w3.org/2000/svg">
<path d="M204.8 221.6L144.5 218.7L245.9 398.7L273.5 386.9L204.8 221.6Z" fill="black"/>
<path d="M212.8 64.5C224.4 63.8 229.2 68.9 223.1 79.1C217 89.3 209.5 83.7 209.5 83.7L212.7 64.5H212.8Z" fill="black"/>
<path d="M220.2 74.9001L225.2 122.2L189.9 110L205.4 71.4001L220.2 74.9001Z" fill="black"/>
<path d="M270.6 419.6L263.3 402.2L275.9 397.2L300.7 396.4C304.1 396.3 307.3 398.4 308.6 401.6L309.7 404.3L270.7 419.7L270.6 419.6Z" fill="#FF0077" stroke="black" stroke-width="4" stroke-miterlimit="10"/>
<path d="M270.7 385.4L275.9 397.1L263.3 402.2L258.1 389.9L270.7 385.4Z" fill="white" stroke="black" stroke-width="4" stroke-miterlimit="10"/>
<path d="M140.8 323.6L158.9 312.7L165.9 324.4L170.6 348.8C171.2 352.2 169.7 355.6 166.8 357.4L164.3 358.9L143.5 327.5L140.8 323.6Z" fill="#FF0077" stroke="black" stroke-width="4" stroke-miterlimit="10"/>
<path d="M178.4 316.3L165.8 324.4L158.9 312.8L170.1 305.6L178.4 316.3Z" fill="white" stroke="black" stroke-width="4" stroke-miterlimit="10"/>
<path d="M198.4 111.3L197.2 122.2L175.5 119.7L177.8 105.9" fill="black"/>
<path d="M123.5 144.1H111.4C111.4 144.1 93.3999 151.1 98.3999 163.4C101.8 171.8 109.3 176.8 109.3 176.8L127.7 167.6L123.5 144.1Z" fill="white" stroke="black" stroke-width="4" stroke-miterlimit="10"/>
<path d="M111.3 144.1C111.3 144.1 110.6 144.4 109.4 145.1L119.9 172L127.6 170V167.6L126.7 162.3L113.3 144.1H111.4H111.3Z" fill="black"/>
<path d="M355.6 156.9L552.6 106.4L620 156.9L458 273.5L355.6 156.9Z" fill="black"/>
<path d="M408.5 42.9L607.5 37.6C614.6 37.4 620.1 43.8 618.8 50.9L595.7 174.4L458 273.5L371.1 174.6L397.9 51.6C399.1 46.7 403.4 43.1 408.5 43V42.9Z" fill="white" stroke="black" stroke-width="4" stroke-miterlimit="10"/>
<path d="M384.7 109.1L388.2 90.1001H399.4C400.1 90.1001 406.9 96.1001 410.2 99.2001C413.5 102.3 410.7 101.4 409.6 101.7L384.6 109.1H384.7Z" fill="black"/>
<path d="M607.5 37.7001L408.5 43.0001C403.4 43.1001 399.1 46.7001 397.9 51.6001L395.6 62.2001L617.8 56.8001L618.9 51.0001C620.2 44.0001 614.7 37.6001 607.6 37.7001H607.5Z" fill="black"/>
<path d="M410 56.1C412.154 56.1 413.9 54.354 413.9 52.2001C413.9 50.0461 412.154 48.3 410 48.3C407.846 48.3 406.1 50.0461 406.1 52.2001C406.1 54.354 407.846 56.1 410 56.1Z" fill="white"/>
<path d="M423.6 56.1C425.754 56.1 427.5 54.354 427.5 52.2001C427.5 50.0461 425.754 48.3 423.6 48.3C421.446 48.3 419.7 50.0461 419.7 52.2001C419.7 54.354 421.446 56.1 423.6 56.1Z" fill="#FF0077"/>
<path d="M454.2 269.1L355.6 156.9L315.4 354.6C314.2 360.4 318.6 365.8 324.5 365.8H586.2C590.9 365.8 594.9 362.3 595.5 357.6L620 156.9L454.1 269.1H454.2Z" fill="black"/>
<path d="M345.3 90.2999C344 90.6999 343.4 92.0999 343.8 93.3999L357.7 130.2C358.2 131.4 359.5 132 360.7 131.6C362 131.2 362.6 129.8 362.1 128.5L348.2 91.6999C347.7 90.4999 346.4 89.8999 345.2 90.2999H345.3Z" fill="black"/>
<path d="M353.7 91.2L389.1 91.4L384.9 108.8L366.7 125.6L353.7 91.2Z" fill="white"/>
<path d="M356.6 93.2H386.6C386.6 93.3 383.1 107.7 383.1 107.7L367.5 122L356.6 93.1M350.8 89.2L365.9 129.1L386.7 109.9L391.7 89.4L350.8 89.2Z" fill="black"/>
<path d="M355.6 133.4L171.4 197.9L70.2 233.7C58.2 237.9 45.1 231.7 40.9 219.7C36.7 207.7 43 194.5 55.1 190.4L340 92.0999L355.6 133.4Z" fill="black"/>
<path d="M64 200.3L290.9 122.2" stroke="white" stroke-width="4" stroke-miterlimit="10" stroke-linecap="round"/>
<path d="M303.2 117.5L319.6 111.8" stroke="white" stroke-width="4" stroke-miterlimit="10" stroke-linecap="round"/>
<path d="M257.7 190.1L210.6 186.2C210 186.2 209.5 185.8 209.1 185.4L201.3 174.3C200.7 173.4 200.9 172.2 201.8 171.5L226.6 153.2C226.9 152.9 227.4 152.8 227.8 152.8C228.2 152.8 228.2 152.8 228.3 152.8C228.9 153 229.4 153.4 229.6 153.9L237.5 172.5L286.8 153.8L297.6 143.7C298 143.4 298.5 143.2 299 143.2H301.8C302.4 143.2 302.9 143.4 303.3 143.9C303.7 144.3 303.9 144.9 303.8 145.5L303.4 149.4L319.7 144.1C319.9 144.1 320.1 144.1 320.3 144.1C321.1 144.1 321.9 144.6 322.2 145.4L323.1 147.8C323.4 148.7 323.1 149.7 322.3 150.2L259 190C258.7 190.2 258.3 190.3 257.9 190.3C257.5 190.3 257.8 190.3 257.7 190.3V190.1Z" fill="white"/>
<path d="M301.8 145.2L301 152.2L320.3 145.9L321.2 148.3L257.9 188.1L210.8 184.2L203 173.1L227.8 154.8L236.4 175.1L287.9 155.6L299 145.3H301.8M301.8 141.2H299C298 141.2 297 141.6 296.3 142.3L285.8 152.1L238.7 170L231.6 153.2C231.1 152.1 230.2 151.2 229 150.9C228.7 150.9 228.3 150.8 227.9 150.8C227.1 150.8 226.2 151.1 225.5 151.6L200.7 169.9C199 171.2 198.6 173.6 199.8 175.4L207.6 186.5C208.3 187.5 209.4 188.1 210.5 188.2L257.6 192.1C257.7 192.1 257.8 192.1 257.9 192.1C258.7 192.1 259.4 191.9 260 191.5L323.3 151.7C324.9 150.7 325.6 148.7 324.9 146.9L324 144.5C323.4 142.9 321.9 141.9 320.3 141.9C318.7 141.9 319.5 141.9 319.1 142.1L305.7 146.5V145.7C305.9 144.6 305.6 143.4 304.8 142.6C304 141.8 303 141.3 301.8 141.3V141.2Z" fill="black"/>
<path d="M231.2 162.6L203 173.2L207.6 179.7L208.5 181L232.9 166.8L231.2 162.6Z" fill="black"/>
<path d="M233.6 163.4C233.6 163.4 225.8 143.2 216.1 133.4C206.4 123.5 196.7 120.4 196.7 120.4C191.2 118.2 183.6 117.2 177.1 116.7C169.4 116.2 162.5 118.1 154.6 121.1L112.4 136C110 136.8 109.1 139.7 110.6 141.8L127.2 165.3L142.8 160.6C138.1 181.1 139.7 196.8 139.7 196.8L194.7 177.7L233.6 163.4Z" fill="#FF0077" stroke="black" stroke-width="4" stroke-miterlimit="10"/>
<path d="M204.7 61.3999C214.6 63.1999 217.9 67.9999 219 74.2999L216.5 97.8999C215.5 109.5 205.2 114.3 195.3 112.5C185.4 110.7 178.9 101.2 180.7 91.2999L183.5 75.9999C185.3 66.0999 194.8 59.5999 204.7 61.3999Z" fill="white" stroke="black" stroke-width="4" stroke-miterlimit="10"/>
<path d="M220.2 73.4C220.2 73.4 214.7 78.1 208.7 80.4C204.1 82.1 191.6 82.8 191.6 82.8L194.3 112.4L159.4 99.7C159.4 99.7 169 84 175.6 69.6C185 49.1 203.7 53 213 60.3C219.4 65.3 220.1 73.4 220.1 73.4H220.2Z" fill="black"/>
<path d="M196 85C195.7 80 190.6 75 187.6 79.8C184.9 84.2 190.8 88.9 193.2 88.4C195.7 87.9 195.9 85 195.9 85H196Z" fill="white"/>
<path d="M228.9 67.4001C225.5 64.9001 222.5 64.1001 219.8 65.0001C217.8 65.7001 216.7 67.2001 216.7 67.2001L214.1 65.3001C214.1 65.2001 216.4 62.2001 220.5 61.6001C223.8 61.1001 227.3 62.2001 230.8 64.9001L228.9 67.5001V67.4001Z" fill="black"/>
<path d="M177.3 319.5L304.6 243.1C315.7 236.4 320.8 223 317 210.7C313.8 200.3 304.7 192.6 293.9 191.2L182.5 182L139.7 196.9C139.7 196.9 138.2 229.6 166.7 236.9C195.2 244.1 247.1 232.2 247.1 232.2L157.5 295.1L177.3 319.7V319.5Z" fill="black"/>
<path d="M399.4 102.5C410.8 100.4 423.9 101 434.1 110.3C459.5 133.4 434.7 179.1 447.2 205.5C452.9 217.5 466.9 222 479.7 219.8C488.6 218.3 496.8 213.8 503.8 208.1C526.3 190 543.5 162.7 543.8 133.1C543.8 131.5 543.8 129.8 543.7 128.2C543.2 119.7 541 110.8 534.8 104.9C524.7 95.3 504.3 96 496.5 108.3C490.3 118.2 492.1 133.5 498.5 142.8C504.3 151.3 514 156.2 523.8 159.4C533.9 162.7 544.5 164.6 555 164.1C565.5 163.6 576.1 160.4 584.8 154.4" stroke="black" stroke-width="4" stroke-miterlimit="10" stroke-linecap="round"/>
<path d="M324.1 355.6L585.7 175.6" stroke="white" stroke-width="4" stroke-miterlimit="10" stroke-linecap="round"/>
<path d="M461.7 272.7L581.8 356" stroke="white" stroke-width="4" stroke-miterlimit="10" stroke-linecap="round"/>
</svg>
