<svg width="505" height="337" viewBox="0 0 505 337" fill="none" xmlns="http://www.w3.org/2000/svg">
<path d="M216.114 82.949C216.114 82.949 197.868 83.7149 185.446 96.7537C173.024 109.793 174.12 125.895 174.12 125.895C174.12 125.895 191.005 128.193 203.824 113.622C216.644 99.0514 216.114 82.949 216.114 82.949Z" fill="#FF0077" stroke="black" stroke-width="4"/>
<path d="M112.991 52.5C112.991 52.5 113.048 74.7295 128.684 90.477C144.321 106.224 164.458 105.683 164.458 105.683C164.458 105.683 168.163 85.2465 150.617 68.9573C133.09 52.6681 112.991 52.5 112.991 52.5Z" fill="#FF0077" stroke="black" stroke-width="4"/>
<path d="M134.056 284.546L110.213 202.11C109.325 199.065 111.688 196.039 114.902 196.114L209.421 198.412C212.446 198.486 214.64 201.288 213.94 204.202L194.654 284.546H134.056Z" fill="black"/>
<path d="M174.119 203.624V125.895L216.113 82.949" stroke="black" stroke-width="4" stroke-miterlimit="10"/>
<path d="M164.193 203.623V105.683L112.991 52.5" stroke="black" stroke-width="4" stroke-miterlimit="10"/>
<path d="M196.43 88.5903V102.227H212.104" stroke="black" stroke-width="4" stroke-miterlimit="10"/>
<path d="M154.362 72.8242V93.7274H131.144" stroke="black" stroke-width="4" stroke-miterlimit="10"/>
<path d="M85.4053 89.8418C85.4053 89.8418 85.8591 119.076 106.695 139.55C127.531 160.024 154.002 158.978 154.002 158.978C154.002 158.978 158.521 132.041 135.189 110.894C111.857 89.7297 85.4053 89.8418 85.4053 89.8418Z" fill="#FF0077" stroke="black" stroke-width="4"/>
<path d="M154.003 199.738V158.959L86.0869 91.8779" stroke="black" stroke-width="4" stroke-miterlimit="10"/>
<path d="M127.683 106.225V132.059C127.683 132.059 101.458 130.808 100.191 132.059" stroke="black" stroke-width="4" stroke-miterlimit="10"/>
<path d="M134.944 57.3381V75.0844H117.682" stroke="black" stroke-width="4" stroke-miterlimit="10"/>
<path d="M214.714 140.465L360.378 103.59L410.275 140.465L290.458 225.61L214.714 140.465Z" fill="black"/>
<path d="M253.853 57.1886L401.011 57.2633C406.286 57.1139 410.351 61.8213 409.406 66.9397L392.332 153.205L290.477 225.591L226.191 153.336L246.007 63.4652C246.876 59.8599 250.109 57.2633 253.853 57.1699V57.1886Z" fill="white" stroke="black" stroke-width="4" stroke-miterlimit="10"/>
<path d="M401.011 57.2634L253.853 57.1887C250.09 57.2821 246.876 59.8787 246.006 63.484L244.305 71.2176H408.63L409.424 66.9585C410.37 61.8214 406.305 57.1327 401.029 57.2821L401.011 57.2634Z" fill="black"/>
<path d="M254.95 66.8277C256.537 66.8277 257.824 65.5565 257.824 63.9883C257.824 62.4202 256.537 61.1489 254.95 61.1489C253.363 61.1489 252.076 62.4202 252.076 63.9883C252.076 65.5565 253.363 66.8277 254.95 66.8277Z" fill="white"/>
<path d="M264.989 66.8277C266.576 66.8277 267.863 65.5565 267.863 63.9883C267.863 62.4202 266.576 61.1489 264.989 61.1489C263.402 61.1489 262.115 62.4202 262.115 63.9883C262.115 65.5565 263.402 66.8277 264.989 66.8277Z" fill="#FF0077"/>
<path d="M392.142 284.546L409.991 142.763C410.105 141.866 409.084 141.25 408.327 141.754L287.621 222.416L216.132 142.053C215.546 141.399 214.468 141.68 214.279 142.539L184.991 284.92" fill="#FF0077"/>
<path d="M392.142 284.546L409.991 142.763C410.105 141.866 409.084 141.25 408.327 141.754L287.621 222.416L216.132 142.053C215.546 141.399 214.468 141.68 214.279 142.539L184.991 284.92" stroke="black" stroke-width="4"/>
<path d="M247.122 100.695C255.536 99.1818 265.273 99.6302 272.817 106.392C291.574 123.242 273.252 156.624 282.517 175.939C286.733 184.737 297.095 187.969 306.586 186.344C313.166 185.223 319.198 181.935 324.397 177.788C341.055 164.525 353.799 144.612 353.988 122.999C353.988 121.804 353.988 120.589 353.893 119.394C353.534 113.192 351.87 106.673 347.313 102.395C339.826 95.3524 324.757 95.9128 319.009 104.898C314.395 112.109 315.794 123.298 320.521 130.116C324.813 136.3 331.998 139.886 339.202 142.24C346.633 144.668 354.479 146.069 362.288 145.658C370.097 145.247 377.906 142.987 384.334 138.579" stroke="black" stroke-width="4" stroke-miterlimit="10" stroke-linecap="round"/>
<path d="M197.5 283L408.328 141.754" stroke="black" stroke-width="4" stroke-miterlimit="10" stroke-linecap="round"/>
<path d="M309.5 237.5L371.5 283.5" stroke="black" stroke-width="4" stroke-miterlimit="10" stroke-linecap="round"/>
<path d="M79 284H425.5" stroke="black" stroke-width="4" stroke-linecap="round"/>
</svg>
