<svg width="730" height="552" viewBox="0 0 730 552" fill="none" xmlns="http://www.w3.org/2000/svg">
<path d="M507.49 140.14H101.64C95.8301 140.14 91.1201 144.85 91.1201 150.66V396.43C91.1201 402.24 95.8301 406.95 101.64 406.95H507.49C513.3 406.95 518.01 402.24 518.01 396.43V150.66C518.01 144.85 513.3 140.14 507.49 140.14Z" fill="black"/>
<path d="M101.93 146.21H507.2C509.86 146.21 512.01 148.37 512.01 151.02V386.76H97.1201V151.02C97.1201 148.36 99.2801 146.21 101.93 146.21Z" fill="white" stroke="black" stroke-width="4" stroke-miterlimit="10"/>
<path d="M271.68 145.49H337.44V152.21C337.44 154.39 335.67 156.16 333.49 156.16H275.63C273.45 156.16 271.68 154.39 271.68 152.21V145.49Z" fill="black"/>
<path d="M332.92 417.87V422.55C332.92 425.05 330.68 427.09 327.92 427.09H281.2C278.44 427.09 276.2 425.06 276.2 422.55V417.87H73.08C71.52 417.87 70.25 419.14 70.25 420.7V435.39C70.25 441.12 75.37 445.76 81.68 445.76H527.45C533.76 445.76 538.88 441.12 538.88 435.39V420.7C538.88 419.14 537.61 417.87 536.05 417.87H332.93H332.92Z" fill="black"/>
<path d="M247.15 179.24H56C53.2386 179.24 51 181.479 51 184.24V349.1C51 351.861 53.2386 354.1 56 354.1H247.15C249.911 354.1 252.15 351.861 252.15 349.1V184.24C252.15 181.479 249.911 179.24 247.15 179.24Z" fill="black"/>
<path d="M105.86 276.84C125.63 290.76 141.88 326.47 159.53 325.87C174.44 325.36 184.32 309.75 199.74 305.57C192.14 297.5 200.78 266.47 176.55 268.69C162.68 269.96 159.82 279.11 146.09 278.06C123.52 276.33 128.48 233.55 105.41 232.37C85.7 231.37 91.91 259.76 86.79 272.23C92.33 271.16 98.87 271.92 105.86 276.83V276.84Z" fill="#FF0077" stroke="black" stroke-width="4"/>
<path d="M222.18 309.45C216.62 304.5 209.55 301.15 200.93 301.66C195.65 301.97 190.4 304.97 186.25 307.56C178.49 312.39 169.83 321.39 159.53 321.74C141.87 322.35 125.63 286.63 105.86 272.71C98.8798 267.79 92.3398 267.04 86.7898 268.11C76.6398 270.07 69.8398 278.16 69.8398 278.16V333.19C69.8398 336.23 72.7098 338.69 76.2598 338.69H226.52C232.37 338.69 236.43 332.86 234.4 327.38C233.87 325.95 233.47 324.9 233.35 324.65C230.76 319.36 227.05 313.8 222.17 309.46L222.18 309.45Z" fill="white" stroke="black" stroke-width="4"/>
<path d="M66.2502 201.38C70.0057 201.38 73.0502 198.336 73.0502 194.58C73.0502 190.824 70.0057 187.78 66.2502 187.78C62.4947 187.78 59.4502 190.824 59.4502 194.58C59.4502 198.336 62.4947 201.38 66.2502 201.38Z" fill="#FF0077"/>
<path d="M86.0598 201.38C89.8153 201.38 92.8598 198.336 92.8598 194.58C92.8598 190.824 89.8153 187.78 86.0598 187.78C82.3042 187.78 79.2598 190.824 79.2598 194.58C79.2598 198.336 82.3042 201.38 86.0598 201.38Z" fill="white"/>
<path d="M661.72 443.83H491.06" stroke="black" stroke-width="4" stroke-miterlimit="10" stroke-linecap="round"/>
<path d="M577.75 443.83L550.28 350.25C549.26 346.69 551.99 343.17 555.69 343.26L664.61 343.37C668.1 343.46 670.62 346.73 669.81 350.12L647.58 443.84H577.75V443.83Z" fill="black"/>
<path d="M611.35 348.93C605.68 329.56 605.2 288.98 610.78 263.47" stroke="black" stroke-width="4" stroke-miterlimit="10"/>
<path d="M612.94 249.53C614.71 238.1 620.99 227.7 630.65 221.33C637.94 216.52 647.74 213.5 660.18 216.79C660.18 216.79 681.03 220.76 677.13 233.16C674.67 240.98 664.6 252.74 645.71 251.45C626.82 250.16 622.95 248.93 616.45 254.44C612.91 257.44 610.77 263.49 610.77 263.49L612.93 249.54L612.94 249.53Z" fill="#FF0077" stroke="black" stroke-width="4" stroke-miterlimit="10"/>
<path d="M606.89 301.1C607.1 287.25 617.46 276.24 630.34 271.42C634.55 269.84 639.18 268.32 644.13 269.08C655.73 270.86 661.98 279.33 660.06 285.29C658.91 288.87 654.81 291.54 647.17 291.32C627 290.75 619.49 282.02 609.49 289.77" fill="#FF0077"/>
<path d="M606.89 301.1C607.1 287.25 617.46 276.24 630.34 271.42C634.55 269.84 639.18 268.32 644.13 269.08C655.73 270.86 661.98 279.33 660.06 285.29C658.91 288.87 654.81 291.54 647.17 291.32C627 290.75 619.49 282.02 609.49 289.77" stroke="black" stroke-width="4" stroke-miterlimit="10"/>
<path d="M660.05 285.29C660.05 285.29 630.34 271.41 615.55 285.39" stroke="black" stroke-width="4" stroke-miterlimit="10"/>
<path d="M607.66 287.29C608.35 273.38 596.41 258.35 582.02 252.96C577.32 251.2 572.15 249.5 566.63 250.35C553.68 252.34 546.7 261.8 548.85 268.45C550.14 272.44 554.71 275.43 563.24 275.19C585.76 274.55 598.05 263.78 604.92 274.25" fill="#FF0077"/>
<path d="M607.66 287.29C608.35 273.38 596.41 258.35 582.02 252.96C577.32 251.2 572.15 249.5 566.63 250.35C553.68 252.34 546.7 261.8 548.85 268.45C550.14 272.44 554.71 275.43 563.24 275.19C585.76 274.55 598.05 263.78 604.92 274.25" stroke="black" stroke-width="4" stroke-miterlimit="10"/>
<path d="M548.85 268.45C548.85 268.45 582.03 252.95 598.54 268.56" stroke="black" stroke-width="4" stroke-miterlimit="10"/>
<path d="M607.66 321.44C606.32 310.75 598.34 298.5 586.82 294.19C583.06 292.78 578.92 291.42 574.5 292.1C564.13 293.69 558.55 301.26 560.26 306.59C561.29 309.79 564.95 312.18 571.78 311.98C589.81 311.47 599.73 303.14 604.25 310.66" fill="#FF0077"/>
<path d="M607.66 321.44C606.32 310.75 598.34 298.5 586.82 294.19C583.06 292.78 578.92 291.42 574.5 292.1C564.13 293.69 558.55 301.26 560.26 306.59C561.29 309.79 564.95 312.18 571.78 311.98C589.81 311.47 599.73 303.14 604.25 310.66" stroke="black" stroke-width="4" stroke-miterlimit="10"/>
<path d="M560.27 306.59C560.27 306.59 586.83 294.19 600.05 306.68" stroke="black" stroke-width="4" stroke-miterlimit="10"/>
<path d="M608.05 329.57C608.41 317.84 619.03 309.04 630.22 306.14C633.87 305.19 637.88 304.33 641.95 305.4C651.49 307.91 655.97 315.54 653.84 320.36C652.56 323.25 648.9 325.12 642.53 324.27C625.72 322.01 619.08 312.19 611.1 319.53" fill="#FF0077"/>
<path d="M608.05 329.57C608.41 317.84 619.03 309.04 630.22 306.14C633.87 305.19 637.88 304.33 641.95 305.4C651.49 307.91 655.97 315.54 653.84 320.36C652.56 323.25 648.9 325.12 642.53 324.27C625.72 322.01 619.08 312.19 611.1 319.53" stroke="black" stroke-width="4" stroke-miterlimit="10"/>
<path d="M653.84 320.35C653.84 320.35 630.22 306.13 616.63 316.51" stroke="black" stroke-width="4" stroke-miterlimit="10"/>
<path d="M677.13 233.15C677.13 233.15 635.45 218.64 613 254.71" stroke="black" stroke-width="4" stroke-miterlimit="10"/>
<path d="M254.85 342.48L270.69 358.81C271.36 359.52 271.72 360.46 271.69 361.44C271.66 362.41 271.25 363.34 270.55 364.01L265.08 369.38C264.37 370.04 263.44 370.39 262.47 370.38C261.5 370.36 260.58 369.97 259.9 369.29L244.11 352.95L232.92 365.37C230.91 367.6 227.23 366.8 226.34 363.93L210.16 311.8C209.97 311.14 209.96 310.44 210.14 309.78C210.32 309.12 210.67 308.52 211.17 308.04C211.67 307.57 212.28 307.24 212.96 307.09C213.63 306.94 214.33 306.99 214.98 307.21L266.02 325.48C268.83 326.49 269.5 330.17 267.21 332.09L254.86 342.49L254.85 342.48Z" fill="white" stroke="black" stroke-width="4" stroke-linecap="round" stroke-linejoin="round"/>
<path d="M315.287 193.093C315.287 186.814 310.197 181.723 303.917 181.723C297.638 181.723 292.547 186.814 292.547 193.093V342.63C292.547 348.91 297.638 354 303.917 354C310.197 354 315.287 348.91 315.287 342.63V193.093Z" fill="white" stroke="black" stroke-width="4" stroke-miterlimit="10"/>
<path d="M292.547 329.438H315.287V345.354C315.287 350.127 311.414 354 306.641 354H301.194C296.42 354 292.547 350.127 292.547 345.354V329.438Z" fill="black"/>
<path d="M303.917 336.718C311.603 336.718 317.834 330.487 317.834 322.8C317.834 315.114 311.603 308.883 303.917 308.883C296.231 308.883 290 315.114 290 322.8C290 330.487 296.231 336.718 303.917 336.718Z" fill="#FF0077" stroke="black" stroke-width="4" stroke-miterlimit="10"/>
<path d="M372.012 193.093C372.012 186.814 366.922 181.723 360.642 181.723C354.363 181.723 349.272 186.814 349.272 193.093V342.63C349.272 348.91 354.363 354 360.642 354C366.922 354 372.012 348.91 372.012 342.63V193.093Z" fill="white" stroke="black" stroke-width="4" stroke-miterlimit="10"/>
<path d="M351.996 199.669H369.289C370.79 199.669 372.012 200.891 372.012 202.392V342.63C372.012 348.905 366.917 354 360.642 354C354.367 354 349.272 348.905 349.272 342.63V202.392C349.272 200.891 350.494 199.669 351.996 199.669Z" fill="black"/>
<path d="M360.642 206.834C368.328 206.834 374.559 200.603 374.559 192.917C374.559 185.231 368.328 179 360.642 179C352.956 179 346.725 185.231 346.725 192.917C346.725 200.603 352.956 206.834 360.642 206.834Z" fill="#FF0077" stroke="black" stroke-width="4" stroke-miterlimit="10"/>
<path d="M428.747 193.093C428.747 186.814 423.657 181.723 417.377 181.723C411.098 181.723 406.007 186.814 406.007 193.093V342.63C406.007 348.91 411.098 354 417.377 354C423.657 354 428.747 348.91 428.747 342.63V193.093Z" fill="white" stroke="black" stroke-width="4" stroke-miterlimit="10"/>
<path d="M406.007 287.521H428.747V345.354C428.747 350.127 424.874 354 420.101 354H414.654C409.88 354 406.007 350.127 406.007 345.354V287.521Z" fill="black"/>
<path d="M417.378 306.15C425.064 306.15 431.295 299.919 431.295 292.232C431.295 284.546 425.064 278.315 417.378 278.315C409.691 278.315 403.46 284.546 403.46 292.232C403.46 299.919 409.691 306.15 417.378 306.15Z" fill="#FF0077" stroke="black" stroke-width="4" stroke-miterlimit="10"/>
<path d="M569.28 106H461.19C458.4 106 456.14 108.15 456.14 110.81V215.32C456.14 217.98 458.4 220.13 461.19 220.13H569.28C572.07 220.13 574.33 217.98 574.33 215.32V110.81C574.33 108.15 572.07 106 569.28 106Z" fill="white" stroke="black" stroke-width="4" stroke-miterlimit="10"/>
<path d="M514.73 136.12H474.03C472.926 136.12 472.03 137.016 472.03 138.12V151.15C472.03 152.255 472.926 153.15 474.03 153.15H514.73C515.835 153.15 516.73 152.255 516.73 151.15V138.12C516.73 137.016 515.835 136.12 514.73 136.12Z" fill="#FF0077" stroke="black" stroke-width="4" stroke-miterlimit="10"/>
<path d="M572.35 106.9H457.31V121.72H572.35V106.9Z" fill="black"/>
<path d="M537.25 161.45H474.03C472.926 161.45 472.03 162.345 472.03 163.45V176.48C472.03 177.585 472.926 178.48 474.03 178.48H537.25C538.355 178.48 539.25 177.585 539.25 176.48V163.45C539.25 162.345 538.355 161.45 537.25 161.45Z" fill="#FF0077" stroke="black" stroke-width="4" stroke-miterlimit="10"/>
<path d="M516.23 186.79H474.03C472.926 186.79 472.03 187.685 472.03 188.79V201.82C472.03 202.925 472.926 203.82 474.03 203.82H516.23C517.335 203.82 518.23 202.925 518.23 201.82V188.79C518.23 187.685 517.335 186.79 516.23 186.79Z" fill="#FF0077" stroke="black" stroke-width="4" stroke-miterlimit="10"/>
<path d="M463.92 116.79C465.98 116.79 467.65 115.12 467.65 113.06C467.65 111 465.98 109.33 463.92 109.33C461.86 109.33 460.19 111 460.19 113.06C460.19 115.12 461.86 116.79 463.92 116.79Z" fill="#FF0077"/>
<path d="M474.41 116.79C476.47 116.79 478.14 115.12 478.14 113.06C478.14 111 476.47 109.33 474.41 109.33C472.35 109.33 470.68 111 470.68 113.06C470.68 115.12 472.35 116.79 474.41 116.79Z" fill="white"/>
</svg>
