<svg width="730" height="500" viewBox="0 0 730 500" fill="none" xmlns="http://www.w3.org/2000/svg">
<path d="M481.79 36H150.5V50.82H481.79V36Z" fill="black"/>
<path d="M157.1 45.8899C159.16 45.8899 160.83 44.22 160.83 42.1599C160.83 40.0999 159.16 38.4299 157.1 38.4299C155.04 38.4299 153.37 40.0999 153.37 42.1599C153.37 44.22 155.04 45.8899 157.1 45.8899Z" fill="#FF0077"/>
<path d="M167.59 45.8899C169.65 45.8899 171.32 44.22 171.32 42.1599C171.32 40.0999 169.65 38.4299 167.59 38.4299C165.53 38.4299 163.86 40.0999 163.86 42.1599C163.86 44.22 165.53 45.8899 167.59 45.8899Z" fill="white"/>
<path d="M481.79 111.61H150.5V297.59H481.79V111.61Z" fill="white" stroke="black" stroke-width="4" stroke-miterlimit="10"/>
<path d="M481.49 50.8201H150.5V111.66H481.49V50.8201Z" fill="#FF0077" stroke="black" stroke-width="4"/>
<path d="M476.79 36H155.5C152.739 36 150.5 38.2386 150.5 41V293.06C150.5 295.821 152.739 298.06 155.5 298.06H476.79C479.551 298.06 481.79 295.821 481.79 293.06V41C481.79 38.2386 479.551 36 476.79 36Z" stroke="black" stroke-width="4"/>
<path d="M471.18 254.56L436.52 283.76L407.89 297.65C400.2 301.38 394.54 308.3 392.41 316.57L352.94 469.69L496.64 470.32L471.17 254.56H471.18Z" fill="black"/>
<path d="M512.65 250.43C516.36 250.43 527.88 256.4 527.88 256.4C527.88 256.4 530.67 266.28 531.03 276.82C531.77 298.49 536.69 467.21 536.69 467.21H476.96C476.96 467.21 469.05 284.55 470.24 270.95C471.43 257.35 477.26 252.37 486.01 250.42C494.75 248.47 512.66 250.42 512.66 250.42L512.65 250.43Z" fill="white"/>
<path d="M498.07 282.01L510.38 295.64L498.76 313.27L485.08 295.53L498.07 282.01Z" fill="black"/>
<path d="M502.39 305.33L529.28 467.22H475.37L494.95 301.06L502.39 305.33Z" fill="black"/>
<path d="M432.38 456.84C431.21 458.06 429.27 458.21 427.93 457.12C426.52 455.97 426.3 453.9 427.45 452.49L439.42 437.74C440.1 436.03 441.4 434.62 443.11 433.85L460.14 426.14C462.44 425.09 467.05 423.4 469.58 423.26L512.66 416.32L520.59 425.17L527.94 444.84L495.61 446.87L492.07 447.19L468.6 461.09C466.94 461.98 464.83 461.53 463.68 459.96C462.43 458.24 462.8 455.84 464.52 454.58L473.18 448.25C474.12 447.56 474.42 446.13 474.47 445.55C474.73 442.79 473.29 438.03 468.4 437.43C467.51 437.32 466.6 437.4 465.73 437.62L447.13 442.15L442.38 458.77C441.85 460.63 440.52 461.87 438.58 461.47C436.55 461.05 435.32 459.29 435.72 457.25" fill="white"/>
<path d="M521.15 203.81L525.56 258.4L498.07 282.01L472.6 259.55L472.84 230.01L504.79 198.99L521.15 203.81Z" fill="white" stroke="black" stroke-width="4" stroke-miterlimit="10"/>
<path d="M475.26 232.84L469.62 228.89L503.37 196.11L521.68 212.31" fill="#FF0077"/>
<path d="M505.07 151.54L461.16 155.06C454.01 155.63 449.29 169.48 449.86 176.63L452.75 212.63C454.12 229.7 469.07 242.43 486.14 241.06L512.08 238.98C519.23 238.41 524.56 232.15 523.99 224.99L519.06 163.44C518.49 156.29 512.23 150.96 505.07 151.53V151.54Z" fill="white"/>
<path d="M458.38 139.24L504.92 135.51C512.5 134.9 519.14 140.55 519.74 148.13L523.58 194.19C523 194.35 522.38 194.59 521.76 194.88C521.81 194.68 521.87 194.49 521.9 194.27C522.08 193.07 521.77 191.82 521.11 190.81C521.96 189.41 522.07 187.58 521.37 186.09C521.38 184.55 520.66 183.05 518.88 182.17C517.74 181.61 516.59 181.09 515.4 180.65C515.06 180.52 514.73 180.46 514.4 180.43C514.09 180.32 513.77 180.26 513.44 180.23C513.07 179.28 512.41 178.4 511.26 177.62C507.04 174.76 498.81 176.3 496.65 169.35C495.39 165.31 494.33 155.46 494.33 155.46C494.33 155.46 493.59 162.14 483.53 164.78C473.47 167.41 468.44 167.38 458.6 168.82C453.2 169.61 450.55 173.23 449.82 175.92L449.68 174.38L447.94 154.45C447.33 146.87 450.81 139.85 458.39 139.24H458.38Z" fill="black"/>
<path d="M488.92 214.18C508.75 214.26 514.35 200.21 514.35 200.21C515 200.11 515.57 199.19 516.2 198.99C516.41 199.09 514.56 199.48 514.79 199.56C517.25 200.46 519.29 199.17 520.32 197.26C520.91 196.76 521.36 196.11 521.65 195.31L525.5 232.23C526.26 239.52 520.83 245.99 513.52 246.51L480.69 248.43C466.49 249.26 454.31 238.41 453.5 224.2L453.04 216.13L460.45 215.73L488.93 214.18H488.92Z" fill="black"/>
<path d="M377.8 362.68L417.8 459.15H463.05C466.38 459.15 469.08 461.85 469.08 465.18V468.16H421.53H412.1H248.73L215.2 379.46C212.56 372.48 217.65 364.99 225.12 364.89L377.8 362.68Z" fill="black"/>
<path d="M612.67 467.22H519.24L512.65 416.32L540.44 411.6" fill="black"/>
<path d="M455.5 224.36L450.56 159.02" stroke="black" stroke-width="4" stroke-miterlimit="10"/>
<path d="M468.59 468.16V467.04C468.59 461.51 464.11 457.04 458.59 457.04H422.08C418.96 457.04 416.14 455.16 414.94 452.27L378.1 363.4" stroke="white" stroke-width="4" stroke-miterlimit="10" stroke-linecap="round"/>
<path d="M513.45 180.24L514.42 201.77L523.76 211.25L522.23 177.85L513.45 180.24Z" fill="black"/>
<path d="M522.63 184.52C529.22 184.27 532.39 187.22 532.64 193.81C532.89 200.4 529.94 203.57 523.35 203.82" fill="white"/>
<path d="M522.63 184.52C529.22 184.27 532.39 187.22 532.64 193.81C532.89 200.4 529.94 203.57 523.35 203.82" stroke="black" stroke-width="4"/>
<path d="M612.67 467.22H634.53C660.19 467.22 677.51 441 667.45 417.4L615.48 295.55C613.97 292.61 611.43 290.33 608.33 289.16L555.69 269.29L527.09 252.46L531.03 304.27L535.28 425.6" fill="black"/>
<path d="M489.29 246.13L516.61 264.74L525.56 258.4V241.17L489.29 246.13Z" fill="black"/>
<path d="M164.41 468.77H689.02" stroke="black" stroke-width="4" stroke-miterlimit="10" stroke-linecap="round"/>
<path d="M475.37 424.72L617.55 398.93" stroke="white" stroke-width="4" stroke-miterlimit="10" stroke-linecap="round"/>
<path fill-rule="evenodd" clip-rule="evenodd" d="M226.31 74.73C223.66 73.01 220.23 72.85 217.51 74.46C216.28 75.19 215.24 76.18 214.51 77.42C212.69 80.49 213.23 84.17 214.83 87.21C217.5 92.29 223.01 96.06 227.89 98.49C228.2 98.65 228.57 98.65 228.88 98.49C233.76 96.06 239.27 92.29 241.94 87.21C243.53 84.17 244.07 80.49 242.25 77.42C241.52 76.18 240.47 75.19 239.24 74.46C236.52 72.85 233.1 73.01 230.45 74.73L228.38 76.07L226.31 74.73Z" fill="white" stroke="black" stroke-width="4" stroke-miterlimit="10"/>
<path d="M413.4 75.72H395.28C392.005 75.72 389.35 78.3749 389.35 81.65V90.3C389.35 93.575 392.005 96.23 395.28 96.23H413.4C416.675 96.23 419.33 93.575 419.33 90.3V81.65C419.33 78.3749 416.675 75.72 413.4 75.72Z" fill="white" stroke="black" stroke-width="4"/>
<path d="M390.99 77.72L407.73 63.04" stroke="black" stroke-width="4" stroke-miterlimit="10" stroke-linecap="round"/>
<path d="M273.43 73.52H300.36C302.6 73.52 304.43 75.34 304.43 77.59V94.32C304.43 96.56 302.61 98.39 300.36 98.39H273.43C271.19 98.39 269.36 96.57 269.36 94.32V77.59C269.36 75.35 271.18 73.52 273.43 73.52Z" fill="white"/>
<path d="M300.35 75.52C301.49 75.52 302.42 76.44 302.42 77.59V94.32C302.42 95.46 301.5 96.39 300.35 96.39H273.42C272.28 96.39 271.35 95.47 271.35 94.32V77.59C271.35 76.45 272.27 75.52 273.42 75.52H300.35ZM300.35 71.52H273.42C270.08 71.52 267.35 74.24 267.35 77.59V94.32C267.35 97.66 270.07 100.39 273.42 100.39H300.35C303.69 100.39 306.42 97.67 306.42 94.32V77.59C306.42 74.25 303.7 71.52 300.35 71.52Z" fill="black"/>
<path d="M286.89 75.3101V97.5801" stroke="black" stroke-width="4" stroke-miterlimit="10" stroke-linecap="round"/>
<path d="M191.07 253.53H73C70.2386 253.53 68 255.769 68 258.53V359.86C68 362.621 70.2386 364.86 73 364.86H191.07C193.831 364.86 196.07 362.621 196.07 359.86V258.53C196.07 255.769 193.831 253.53 191.07 253.53Z" fill="white" stroke="black" stroke-width="4"/>
<path d="M102.93 315.67C115.52 324.53 125.86 347.27 137.1 346.89C146.59 346.56 152.88 336.62 162.7 333.97C157.86 328.83 163.36 309.08 147.93 310.49C139.1 311.3 137.28 317.12 128.53 316.46C114.16 315.36 117.32 288.12 102.63 287.37C90.0795 286.73 94.0295 304.81 90.7695 312.75C94.2995 312.07 98.4595 312.55 102.91 315.68L102.93 315.67Z" fill="#FF0077" stroke="black" stroke-width="4"/>
<path d="M176.99 336.43C173.45 333.28 168.95 331.15 163.46 331.47C160.1 331.67 156.76 333.58 154.12 335.22C149.18 338.3 143.66 344.02 137.11 344.25C125.87 344.64 115.53 321.9 102.94 313.03C98.4898 309.9 94.3298 309.42 90.7998 310.1C84.3398 311.35 80.0098 316.5 80.0098 316.5V351.54C80.0098 353.47 81.8398 355.04 84.0898 355.04H179.76C183.48 355.04 186.07 351.33 184.78 347.84C184.44 346.93 184.19 346.26 184.11 346.1C182.46 342.73 180.1 339.19 176.99 336.43Z" fill="black"/>
<path d="M196.07 253.53H68V270.93H196.07V253.53Z" fill="black"/>
<path d="M76.6298 265.84C79.0212 265.84 80.9598 263.901 80.9598 261.51C80.9598 259.119 79.0212 257.18 76.6298 257.18C74.2384 257.18 72.2998 259.119 72.2998 261.51C72.2998 263.901 74.2384 265.84 76.6298 265.84Z" fill="#FF0077"/>
<path d="M89.2499 265.84C91.6413 265.84 93.5799 263.901 93.5799 261.51C93.5799 259.119 91.6413 257.18 89.2499 257.18C86.8585 257.18 84.9199 259.119 84.9199 261.51C84.9199 263.901 86.8585 265.84 89.2499 265.84Z" fill="white"/>
<path d="M343.32 74.59L354.98 82.89C357.08 84.39 357.08 87.51 354.98 89L343.32 97.3C340.84 99.07 337.39 97.3 337.39 94.24V77.63C337.39 74.58 340.84 72.8 343.32 74.57V74.59Z" fill="white" stroke="black" stroke-width="4" stroke-miterlimit="10"/>
<path d="M238.12 140.54C238.12 135.161 233.759 130.8 228.38 130.8C223.001 130.8 218.64 135.161 218.64 140.54V268.65C218.64 274.029 223.001 278.39 228.38 278.39C233.759 278.39 238.12 274.029 238.12 268.65V140.54Z" fill="white" stroke="black" stroke-width="4" stroke-miterlimit="10"/>
<path d="M218.64 213.55H238.12V268.65C238.12 274.03 233.76 278.39 228.38 278.39C223 278.39 218.64 274.03 218.64 268.65V213.55Z" fill="black"/>
<path d="M228.38 225.48C234.969 225.48 240.31 220.139 240.31 213.55C240.31 206.961 234.969 201.62 228.38 201.62C221.791 201.62 216.45 206.961 216.45 213.55C216.45 220.139 221.791 225.48 228.38 225.48Z" fill="#FF0077" stroke="black" stroke-width="4" stroke-miterlimit="10"/>
<path d="M296.63 140.54C296.63 135.161 292.269 130.8 286.89 130.8C281.511 130.8 277.15 135.161 277.15 140.54V268.65C277.15 274.029 281.511 278.39 286.89 278.39C292.269 278.39 296.63 274.029 296.63 268.65V140.54Z" fill="white" stroke="black" stroke-width="4" stroke-miterlimit="10"/>
<path d="M277.15 257.34H296.63V268.65C296.63 274.03 292.27 278.39 286.89 278.39C281.51 278.39 277.15 274.03 277.15 268.65V257.34Z" fill="black"/>
<path d="M286.89 263.59C293.479 263.59 298.82 258.249 298.82 251.66C298.82 245.071 293.479 239.73 286.89 239.73C280.301 239.73 274.96 245.071 274.96 251.66C274.96 258.249 280.301 263.59 286.89 263.59Z" fill="#FF0077" stroke="black" stroke-width="4" stroke-miterlimit="10"/>
<path d="M355.14 140.54C355.14 135.161 350.779 130.8 345.4 130.8C340.021 130.8 335.66 135.161 335.66 140.54V268.65C335.66 274.029 340.021 278.39 345.4 278.39C350.779 278.39 355.14 274.029 355.14 268.65V140.54Z" fill="white" stroke="black" stroke-width="4" stroke-miterlimit="10"/>
<path d="M335.66 146.18H355.14V268.65C355.14 274.03 350.78 278.39 345.4 278.39C340.02 278.39 335.66 274.03 335.66 268.65V146.18Z" fill="black"/>
<path d="M345.4 154.66C351.989 154.66 357.33 149.319 357.33 142.73C357.33 136.141 351.989 130.8 345.4 130.8C338.811 130.8 333.47 136.141 333.47 142.73C333.47 149.319 338.811 154.66 345.4 154.66Z" fill="#FF0077" stroke="black" stroke-width="4" stroke-miterlimit="10"/>
<path d="M413.65 140.54C413.65 135.161 409.289 130.8 403.91 130.8C398.531 130.8 394.17 135.161 394.17 140.54V268.65C394.17 274.029 398.531 278.39 403.91 278.39C409.289 278.39 413.65 274.029 413.65 268.65V140.54Z" fill="white" stroke="black" stroke-width="4" stroke-miterlimit="10"/>
<path d="M394.17 221.43H413.65V268.64C413.65 274.02 409.29 278.38 403.91 278.38C398.53 278.38 394.17 274.02 394.17 268.64V221.43Z" fill="black"/>
<path d="M403.91 237.4C410.499 237.4 415.84 232.059 415.84 225.47C415.84 218.881 410.499 213.54 403.91 213.54C397.321 213.54 391.98 218.881 391.98 225.47C391.98 232.059 397.321 237.4 403.91 237.4Z" fill="#FF0077" stroke="black" stroke-width="4" stroke-miterlimit="10"/>
<path d="M344.73 296.7L366.4 319.04C367.31 320.01 367.8 321.3 367.77 322.63C367.73 323.96 367.17 325.23 366.21 326.15L358.72 333.5C357.75 334.4 356.47 334.89 355.15 334.86C353.83 334.84 352.57 334.3 351.63 333.37L330.03 311.01L314.72 328C311.97 331.05 306.94 329.95 305.72 326.02L283.58 254.69C283.32 253.79 283.31 252.83 283.55 251.92C283.79 251.01 284.28 250.19 284.96 249.54C285.64 248.89 286.48 248.44 287.4 248.24C288.32 248.04 289.27 248.1 290.16 248.4L360 273.4C363.85 274.78 364.76 279.81 361.63 282.45L344.73 296.68V296.7Z" fill="white" stroke="black" stroke-width="4" stroke-linecap="round" stroke-linejoin="round"/>
</svg>
