<svg width="500" height="500" viewBox="0 0 500 500" fill="none" xmlns="http://www.w3.org/2000/svg">
<path d="M410.258 228.72H45.3997C39.8379 228.72 35.3291 233.238 35.3291 238.812V447.627C35.3291 453.201 39.8379 457.72 45.3997 457.72H410.258C415.82 457.72 420.329 453.201 420.329 447.627V238.812C420.329 233.238 415.82 228.72 410.258 228.72Z" stroke="black" stroke-width="4"/>
<path d="M473.329 67.8999H137.129C131.606 67.8999 127.129 72.3771 127.129 77.8999V284.8C127.129 290.323 131.606 294.8 137.129 294.8H473.329C478.852 294.8 483.329 290.323 483.329 284.8V77.8999C483.329 72.3771 478.852 67.8999 473.329 67.8999Z" fill="black"/>
<path d="M167.429 82.5H147.229C144.467 82.5 142.229 84.7386 142.229 87.5V99.6C142.229 102.361 144.467 104.6 147.229 104.6H167.429C170.19 104.6 172.429 102.361 172.429 99.6V87.5C172.429 84.7386 170.19 82.5 167.429 82.5Z" fill="white"/>
<path d="M181.029 86.3001L174.929 92.4001C174.329 93.0001 174.329 94.1001 174.929 94.7001L181.029 100.8C182.029 101.8 183.829 101.1 183.829 99.6001V87.3001C183.829 85.9001 182.029 85.1001 181.029 86.1001V86.3001Z" fill="white"/>
<path d="M277.109 166.978C279.413 166.978 281.438 168.032 282.734 169.891H282.735L291.146 181.504L291.165 181.402L291.169 181.379L291.174 181.355C291.546 179.495 292.945 177.657 295.053 177.205L295.26 177.16H295.43C295.446 177.158 295.474 177.153 295.519 177.146C295.614 177.13 295.905 177.077 296.224 177.077L296.464 177.082C298.942 177.197 301.033 179.074 301.301 181.622C301.46 183.139 301.799 185.79 302.133 189.447C302.381 191.601 302.629 193.586 302.877 195.403C303.494 199.72 304.157 203.799 302.983 207.815L309.415 230.453L309.526 230.845L309.476 231.248C309.463 231.347 309.457 231.424 309.452 231.481C309.476 231.56 309.497 231.646 309.512 231.738C309.576 232.128 309.514 232.446 309.473 232.611C309.432 232.773 309.378 232.91 309.348 232.987C309.059 233.709 308.535 234.167 308.11 234.436C307.678 234.709 307.212 234.873 306.798 234.956L306.786 234.959L291.262 237.964L291.073 238H289.719L289.506 237.786C289.086 237.671 288.641 237.464 288.238 237.098C287.541 236.53 287.081 235.709 286.917 234.89L286.91 234.857L286.905 234.824L283.378 213.506C282.441 212.9 281.163 212.025 279.848 210.961C278.144 209.583 276.259 207.794 275.001 205.767V205.768C273.694 203.694 272.741 201.516 272.089 199.798C271.761 198.934 271.505 198.176 271.316 197.597C271.223 197.309 271.144 197.06 271.085 196.876C271.055 196.782 271.031 196.707 271.012 196.647C271.002 196.618 270.994 196.596 270.988 196.579C270.983 196.564 270.981 196.557 270.98 196.556L270.973 196.536L266.883 185.268L266.884 185.267C265.572 181.802 266.099 177.898 268.084 174.821L268.093 174.809L268.101 174.796L271.272 170.038C272.607 167.994 274.86 166.978 277.109 166.978ZM309.243 231.005C309.239 230.998 309.236 230.992 309.232 230.986C309.235 230.991 309.239 230.997 309.243 231.005Z" fill="black" stroke="white" stroke-width="4"/>
<path d="M436.129 46.6001C455.977 46.6001 475.029 63.9407 475.029 85.5005C475.029 96.335 469.963 106.316 462.578 113.804C455.2 121.286 445.363 126.433 435.543 127.489C435.092 127.537 434.856 127.616 434.677 127.703C434.471 127.802 434.23 127.965 433.795 128.327C432.927 129.048 431.565 130.325 428.976 132.138L428.952 132.155L428.929 132.17L425.128 134.67L422.029 136.709V126.176C421.815 125.017 421.718 124.142 421.645 123.45C421.564 122.695 421.518 122.292 421.411 121.9C421.242 121.277 420.871 120.509 419.407 118.649C419.104 118.672 418.733 118.7 418.329 118.7C413.353 118.7 409.005 116.841 405.769 113.505C402.84 110.487 400.902 106.348 400.134 101.479C398.467 101.17 396.954 101.001 395.529 101C391.225 101 389.178 102.409 388.17 103.557C387.637 104.164 387.325 104.776 387.143 105.249C387.052 105.484 386.993 105.683 386.955 105.829C386.936 105.902 386.922 105.965 386.909 106.02C386.906 106.033 386.901 106.051 386.896 106.071L386.612 108.259L386.315 110.533L384.103 109.929L381.902 109.33L381.869 109.32C378.896 108.453 373.629 104.95 373.629 97.6997C373.629 92.8503 375.358 88.3695 378.446 85.9165L378.749 85.6851C383.45 82.2142 389.903 80.187 397.764 79.439C400.691 60.7406 416.862 46.6001 436.129 46.6001Z" fill="#FF0077" stroke="black" stroke-width="4"/>
<path d="M403.776 39.2129L404.168 39.4092L404.599 39.624C413.568 44.2436 417.236 55.3382 412.737 64.4854L412.736 64.4863L409.604 70.8447C414.483 70.5615 419.601 71.0292 425.015 73.0713L426.795 73.7021L426.817 73.71L426.839 73.7178C435.855 77.1529 441.787 81.9979 445.438 87.7783C449.076 93.5409 450.328 100.044 450.328 106.6C450.328 113.538 447.291 118.598 444.308 121.877C442.819 123.514 441.331 124.722 440.212 125.524C439.651 125.926 439.179 126.229 438.84 126.436C438.67 126.539 438.533 126.618 438.435 126.674C438.386 126.701 438.346 126.723 438.316 126.739C438.302 126.747 438.289 126.754 438.279 126.759C438.275 126.761 438.271 126.764 438.268 126.766C438.266 126.767 438.264 126.768 438.263 126.769L438.261 126.77C438.26 126.77 438.251 126.754 437.328 125L438.259 126.771L434.735 128.623L435.353 124.691L435.354 124.685C435.355 124.677 435.356 124.665 435.358 124.647C435.364 124.612 435.372 124.555 435.382 124.479C435.402 124.325 435.432 124.091 435.464 123.785C435.529 123.172 435.606 122.269 435.656 121.137C435.756 118.868 435.741 115.693 435.281 112.084C434.358 104.841 431.67 96.0321 424.726 89.209L424.723 89.2051C415.849 80.4464 405.905 78.7119 398.111 79.1611C394.201 79.3865 390.842 80.1635 388.463 80.8848C387.275 81.2448 386.338 81.5892 385.705 81.8398C385.389 81.965 385.149 82.0665 384.993 82.1348C384.916 82.1687 384.859 82.1948 384.823 82.2109C384.806 82.2189 384.793 82.2244 384.786 82.2275L384.78 82.2295L383.372 82.8994L382.38 81.6943L383.925 80.4229L382.377 81.6904C382.376 81.6898 382.375 81.6869 382.374 81.6855C382.372 81.6829 382.369 81.6805 382.367 81.6777C382.363 81.6721 382.357 81.6662 382.353 81.6602C382.343 81.6481 382.333 81.635 382.322 81.6211C382.301 81.5931 382.278 81.5611 382.254 81.5254C382.205 81.454 382.15 81.3653 382.094 81.2607C381.982 81.0528 381.861 80.7692 381.787 80.4189C381.629 79.6685 381.723 78.7716 382.267 77.875C382.557 77.3962 382.964 76.9391 383.503 76.499C374.194 74.7595 367.487 66.0945 368.415 56.3721V53.8369L370.603 54.042L385.138 55.4072H385.139C388.022 55.6485 390.67 56.5953 392.979 58.0078C393.273 56.3828 393.803 54.7838 394.593 53.2549L401.086 40.1143L401.978 38.3096L403.776 39.2129Z" fill="white" stroke="black" stroke-width="4"/>
<path d="M478.429 283.9L478.629 181.8C478.629 173.5 471.929 166.8 463.629 166.8H428.529L429.629 156H397.229C397.229 156.1 394.129 166.8 394.129 166.8H369.829C358.529 166.8 348.429 173.6 344.129 184.1C337.729 199.7 324.429 235.6 319.929 247.6C319.529 248.7 317.929 248.6 317.729 247.4L310.029 226.2L284.729 233.6L290.629 290.4L472.929 289.6C476.129 289.6 478.629 287 478.629 283.9H478.429Z" fill="white"/>
<path d="M419.129 113.3C420.229 110 423.329 107.7 426.829 108.1C429.229 108.4 431.229 109.9 431.829 112.5C432.929 117.3 427.529 125.2 421.329 122.4C417.529 120.7 418.129 116.3 419.129 113.2V113.3Z" fill="black"/>
<path d="M372.229 199.7L362.629 214.4C358.129 221.3 356.329 229.6 357.429 237.7C357.929 241.4 357.629 245.2 356.529 248.8L349.829 270.3" fill="white"/>
<path d="M372.229 199.7L362.629 214.4C358.129 221.3 356.329 229.6 357.429 237.7C357.929 241.4 357.629 245.2 356.529 248.8L349.829 270.3" stroke="black" stroke-width="4" stroke-miterlimit="10" stroke-linecap="round"/>
<path d="M446.729 198.7L441.529 259.2C441.029 264.9 436.229 269.3 430.529 269.3H385.429" fill="white"/>
<path d="M446.729 198.7L441.529 259.2C441.029 264.9 436.229 269.3 430.529 269.3H385.429" stroke="black" stroke-width="4" stroke-miterlimit="10" stroke-linecap="round"/>
<path d="M431.028 128H431.229C432.503 128 433.798 128.321 434.934 128.889C438.434 130.639 440.976 134.766 441.213 139.659L441.229 140.135C441.315 147.278 436.669 152.533 431.483 152.7H431.328C426.389 152.7 421.72 147.927 421.351 141.229L421.328 140.574C421.335 135.99 423.227 131.867 426.299 129.621C427.797 128.539 429.394 128 431.028 128Z" stroke="#FF0077" stroke-width="4"/>
<path d="M401.029 148C389.829 148 383.629 141.5 383.329 132.1L382.929 112.1" fill="black"/>
<path d="M401.029 148C389.829 148 383.629 141.5 383.329 132.1L382.929 112.1" stroke="white" stroke-width="4" stroke-linecap="round"/>
<path d="M195.205 262.633L195.938 307.101L152.572 305.599L152.155 242.205L195.205 262.633Z" fill="white" stroke="black" stroke-width="3.32369"/>
<path d="M150.329 207.353C150.329 200.928 155.537 195.72 161.962 195.72H197.565C204.041 195.72 209.27 201.008 209.197 207.483L208.608 259.888C208.516 268.106 201.828 274.72 193.609 274.72H161.962C155.537 274.72 150.329 269.511 150.329 263.087V207.353Z" fill="white"/>
<path d="M270.337 448.886C275.075 454.229 281.828 457.353 288.985 457.353H289.309C302.009 457.353 312.673 447.374 313.681 434.674L323.357 317.848L369.019 282.972C370.632 281.863 371.45 279.659 370.845 278.047C369.839 275.362 367.298 274.5 364.08 276.219L360.648 278.047L363.677 273.9C364.584 272.388 364.685 270.775 363.979 269.465C363.274 268.255 361.862 267.449 360.149 267.449C358.536 267.449 357.024 268.155 356.117 269.465L347.792 277.603L349.162 269.767C349.565 267.953 348.456 266.038 346.743 265.433C346.34 265.231 346.944 265.231 345.533 265.231C344.122 265.231 342.812 266.038 342.207 267.348L335.554 281.057C333.639 281.863 328.7 284.182 326.079 287.81C325.273 288.919 324.365 290.431 323.458 292.245L308.137 292.548C300.98 292.649 297.956 297.084 297.351 299.705L296.948 301.217L276.83 395.5L263.33 368L242.315 416.631L270.337 448.886Z" fill="white" stroke="black" stroke-width="4" stroke-miterlimit="4.62023"/>
<path d="M104.798 364.145L105.705 459.04L249.343 458.153L246.218 334.409C245.815 317.576 232.512 302.863 215.679 302.561L176.263 306.613L136.953 304.17L104.798 364.145Z" fill="#FF0077"/>
<path d="M241.833 319.138L267.822 380.032L245.444 444.241L224.075 375.799L241.833 319.138Z" fill="#FF0077"/>
<path d="M103.758 389.609L73.7119 427.099C72.2275 428.952 73.3797 431.712 75.7402 431.959L133.325 437.975L133.341 437.977L133.357 437.978C136.455 438.252 139.382 439.155 142.15 440.613L165.116 457.483H41.3193C35.0376 457.483 29.9679 456.611 26.208 454.754C22.53 452.937 20.0445 450.154 18.8564 446.068C16.9868 439.638 18.4018 433.438 20.9551 427.954C23.5225 422.439 27.1224 417.879 29.4482 414.675L29.4561 414.664L29.4639 414.652L68.2949 359.568L103.758 389.609Z" fill="white" stroke="black" stroke-width="4"/>
<path d="M206.534 321.166L206.03 291.128L196.891 287.089L196.523 293.72L177.367 307.718L151.195 294.959L150.389 288.306H147.466L139.503 291.33L138.696 316.227L206.534 321.166Z" fill="#FF0077"/>
<path d="M184.109 162C184.659 162 185.15 162 185.587 162L185.588 162.001C185.66 162.024 185.721 162.039 185.761 162.048C185.839 162.065 185.905 162.076 185.943 162.081L185.966 162.084L185.989 162.087C193.6 162.993 196.248 167.299 196.873 170.11L197.333 172.18L199.372 171.601C207.887 169.183 213.037 170.143 216.274 172.416C219.556 174.719 221.396 178.725 222.472 183.609C222.862 187.258 222.347 190.287 220.799 192.741C219.238 195.216 216.457 197.374 211.801 198.926L210.218 199.454L210.453 201.106C210.682 202.708 210.685 204.451 210.278 205.924C209.883 207.358 209.145 208.413 207.93 209.004L207.91 209.014C207.147 209.395 206.342 209.608 205.479 209.608C203.542 209.608 201.77 208.544 200.549 207.604L199.487 206.787L198.327 207.459C196.603 208.457 193.323 209.911 189.25 209.911C186.131 209.911 183.18 209.027 180.362 207.211C176.21 204.503 174.543 201.125 173.841 198.578L173.025 195.623L170.649 197.56C167.939 199.768 163.795 203.018 160.774 204.971C156.767 207.413 153.92 208.534 152.326 208.977L150.826 209.393L150.862 210.949L151.333 231.501L147.362 232.983L142.434 204.714L142.432 204.701L142.333 204.093C141.46 197.996 143.962 191.791 148.825 187.891L149.319 187.509L170.367 172.201L170.808 171.881L171.025 171.381C171.999 169.143 175.855 162 184.109 162ZM186.467 162.062C186.449 162.065 186.446 162.064 186.466 162.062L186.467 162.062V162.062Z" fill="#FF0077" stroke="black" stroke-width="4"/>
<path d="M156.062 235.664C153.038 232.337 147.648 232.035 145.934 235.664C144.221 239.293 147.696 246.852 153.139 245.744C158.582 244.635 156.062 235.664 156.062 235.664Z" fill="white"/>
<path d="M151.949 231.465C140.53 229.623 142.74 245.831 151.949 245.463L151.949 287.826" stroke="black" stroke-width="4"/>
<path d="M180.791 247.875C186.799 247.77 191.571 242.09 191.45 235.188C191.33 228.286 186.362 222.776 180.355 222.881C174.347 222.986 169.575 228.666 169.696 235.568C169.816 242.47 174.784 247.98 180.791 247.875Z" fill="white" stroke="black" stroke-width="4" stroke-miterlimit="10"/>
<path d="M56.042 375.697L87.8526 410.863L125.895 365.516L136.782 302.114C136.782 302.114 106.34 305.037 90.1119 326.81C73.8833 348.481 56.042 375.697 56.042 375.697Z" fill="#FF0077"/>
<path d="M193.944 458.596L181.131 320.4L185.364 315.26L176.998 304.877L169.035 315.461L173.268 320.804L163.714 458.596H193.944Z" fill="black"/>
<path d="M166.91 276.467C166.205 276.023 166.519 274.933 167.353 274.933H195.196V294.286L166.91 276.467Z" fill="black"/>
<path d="M277.339 392.983L271.227 422.243" stroke="black" stroke-width="4" stroke-miterlimit="10" stroke-linecap="round"/>
<path d="M106.544 435.543V390.514C106.544 389.506 105.334 389.103 104.729 389.909L87.2913 409.968L56.4277 376.136L90.2145 326.809C97.0688 316.931 107.451 309.976 119.144 307.456L139.707 302.92V292.538C139.606 292.538 151.95 287.095 151.95 287.095V294.655L177.103 306.75L196.154 293.747V287.095" stroke="black" stroke-width="4" stroke-miterlimit="10"/>
<path d="M194.8 286.208L206.536 290.22L207.141 302.114H218.43C226.494 302.114 233.953 306.549 237.884 313.605L268.628 379.023L247.763 434.261V458.153" stroke="black" stroke-width="4" stroke-miterlimit="10"/>
<path d="M247.764 383.458V437.688" stroke="black" stroke-width="4" stroke-miterlimit="10" stroke-linecap="round"/>
<path d="M167.329 273.058C166.411 273.058 165.667 273.802 165.667 274.72C165.667 275.638 166.411 276.382 167.329 276.382V273.058ZM167.329 274.72V276.382H189.329V274.72V273.058H167.329V274.72ZM209.329 254.72H210.991V207.72H209.329H207.667V254.72H209.329ZM189.329 274.72V276.382C201.293 276.382 210.991 266.683 210.991 254.72H209.329H207.667C207.667 264.848 199.457 273.058 189.329 273.058V274.72Z" fill="black"/>
<path d="M207.457 247.381C212.967 247.285 217.337 241.612 217.216 234.71C217.096 227.808 212.531 222.291 207.02 222.387C201.51 222.483 197.141 228.156 197.261 235.058C197.382 241.96 201.946 247.478 207.457 247.381Z" fill="white" stroke="black" stroke-width="4" stroke-miterlimit="10"/>
<path d="M282.829 457.559L122.331 457.559" stroke="black" stroke-width="4"/>
</svg>
