<svg width="500" height="500" viewBox="0 0 500 500" fill="none" xmlns="http://www.w3.org/2000/svg">
<g clip-path="url(#clip0_6341_305)">
<path d="M349.83 349.47L330.78 358.53L352.53 391.41L370.03 395.72L349.84 349.47H349.83Z" fill="white" stroke="black" stroke-width="4"/>
<path d="M198.72 359.54L187.73 340.71L147.49 392.32L158.59 399.03L198.72 359.54Z" fill="white" stroke="black" stroke-width="4"/>
<path d="M387.77 220.92C377.58 190.46 350.07 176.87 350.07 176.87L306.29 206.47C306.29 206.47 274.43 225.77 271.61 227.14H270.47V227.71C259.91 233.05 250.52 240.62 242.85 249.72L168.95 330.5L192.4 368.55L275.52 287.7C286.91 308.07 316.68 372.44 316.68 372.44L353.09 351.55L320.87 279.97L349.45 272.56C367.17 272.39 383.07 260.89 388.2 243.89C390.27 237.13 390.64 229.39 387.78 220.94L387.77 220.92Z" fill="black"/>
<path d="M350.07 272.38C394.32 275.14 409.82 243.35 412.25 226.78L425.05 123.27C427.42 106.36 414.68 90.5798 396.7 88.0998C378.72 85.6198 362.2 97.2898 359.83 114.26L353.1 166.4" stroke="black" stroke-width="4"/>
<path d="M159.88 415.29L94.6602 414.73C93.7602 414.73 92.9702 414 92.9702 413.04V410.84C92.9702 410.16 93.3602 409.54 93.9802 409.26L148.09 388.8L161.68 397.03L162.58 412.48C162.69 414.06 161.45 415.35 159.87 415.3L159.88 415.29Z" fill="black"/>
<path d="M266.11 105.68C266.11 105.68 291.12 71.3302 328.42 85.3802C364.71 98.9702 355.51 146.91 355.51 146.91L352.37 158.52L290.44 140.83L266.11 105.67C260.73 95.5202 245.61 98.6802 245.61 98.6802C237.95 99.8202 231.16 106.88 231.16 114.54V137.66C231.16 143.31 235.73 147.88 241.38 147.88C252.81 147.88 262.02 138.6 262.02 127.24" fill="black"/>
<path d="M193.31 178.09C192.92 179.22 192.24 181.53 192.01 182.26C192.69 182.65 196.29 183.05 197.14 182.88C199.96 184.4 201.88 185.81 207.12 187.67C211.8 189.3 217.49 190.09 222.11 190.43C224.42 190.6 226.39 190.66 227.8 190.71C228.08 190.71 224.36 187.39 224.58 187.39L237.57 161.62L238.75 159.53C238.75 159.53 256.03 168.38 256.09 168.55C256.26 168.89 256.48 169.45 256.77 170.07C257.33 171.37 258.24 173.11 259.25 174.92C260.32 176.72 261.56 178.58 262.97 180.05C269.9 187.04 280.28 182.25 280.28 182.25L281.86 183.55L315.15 210.62L334.18 192.29C346.19 185.53 345.06 183.51 350.08 176.86C352.62 173.53 356.56 166.38 356.56 166.38C356.5 166.27 332.81 106.1 279.56 114.84C273.25 115.46 267.78 116.36 263.89 117.09C261.97 117.48 260.4 117.77 259.32 118.05C258.81 118.16 258.36 118.28 258.14 118.33C258.03 118.33 257.97 118.33 257.86 118.39L247.21 122.45L246.87 122.56H246.36C246.19 122.56 245.97 122.56 245.63 122.62C244.95 122.68 244.05 122.85 242.87 123.01C240.5 123.4 237.23 124.14 233.63 125.26C226.3 127.57 217.96 131.69 212.66 138.79C207.08 146.23 201.84 157.11 197.95 166.24C196.03 170.81 194.46 174.86 193.33 177.8V178.08L193.31 178.09Z" fill="#FF0077" stroke="black" stroke-width="4"/>
<path d="M237.61 144.73C231.96 144.73 227.39 140.16 227.39 134.51V114.55C227.39 106.82 231.83 99.0902 240.7 95.8002C249.57 92.5102 260.66 95.5302 266.04 105.68L258.24 127.19C258.24 138.62 248.96 147.83 237.6 147.83" fill="black"/>
<path d="M339.31 183.66C339.17 183.38 338.98 183.13 338.77 182.9C331.58 184.12 324.31 184.71 317.16 186.08C316.99 186.25 316.81 186.41 316.6 186.55C316.12 186.99 315.55 187.29 314.9 187.44C314.67 187.52 314.44 187.61 314.21 187.68C313.63 187.87 312.98 187.94 312.39 187.95C311.79 187.95 311.22 187.84 310.67 187.64L314.13 198.49C314.86 200.24 313.45 202.1 311.59 201.82C304.6 200.75 284.86 196.91 274.21 193.58C259.55 189.01 238.92 184.67 233 184.67C227.08 184.67 220.6 187.32 219.3 190.42C218 193.52 221.22 194.25 221.22 194.25C221.22 194.25 237.84 192.72 243.64 196.33C249 199.71 282.11 213.1 289.66 219.53C298.34 226.97 302.48 229.3 334.2 222.02C350.18 218.35 346.51 203.9 339.3 183.66H339.31Z" fill="white"/>
<path d="M357.26 224.48H308.56L392.47 414.9H405.6L321.75 224.48H357.26Z" fill="black"/>
<path d="M286.2 224.48H299.33L242.17 414.9H229.04L286.2 224.48Z" fill="black"/>
<path d="M239.79 157.85L227.39 151.54L233.25 169.63L239.79 157.91V157.85Z" fill="black"/>
<path d="M283.63 125.09L278.45 153.23C277.66 155.15 275.12 155.48 273.77 153.91C271.57 151.32 261.96 142.03 259.71 140C255.65 136.39 263.94 129 263.94 129L282.43 129.63" fill="white"/>
<path d="M283.63 125.09L278.45 153.23C277.66 155.15 275.12 155.48 273.77 153.91C271.57 151.32 261.96 142.03 259.71 140C255.65 136.39 263.94 129 263.94 129L282.43 129.63" stroke="black" stroke-width="4"/>
<path d="M255.37 132.65V151.48L249.23 145C248.89 144.72 248.67 144.38 248.5 144.04L255.43 132.65H255.37Z" fill="black"/>
<path d="M259.39 139V109.64H247.83C240.44 109.64 234.39 115.49 234.18 122.68V122.81V122.94V123.07V139.34C234.18 146.13 239.76 151.78 246.82 151.78C253.88 151.78 259.39 146.36 259.39 139.5V139.21V139Z" fill="white" stroke="black" stroke-width="4"/>
<path d="M231.15 123.62C231.15 123.62 240.83 119.92 244.86 114.28C249.03 121.54 254.61 129.54 262.88 137.14C271.82 145.48 281.3 151.19 284.32 133.11C287.34 115.03 291.58 106.22 294.47 103.8C297.36 101.38 266.1 105.68 266.1 105.68C266.1 105.68 253.19 103.87 246.54 104.87C236.79 106.42 233.57 110.18 232.22 114.82C231.14 118.52 231.08 123.56 231.08 123.56L231.15 123.63V123.62Z" fill="black"/>
<path d="M212.77 181.68L230.73 185.13L245.5 186.71L240.5 200C243.04 200 228.5 204.5 228.5 206.5C227.82 205.71 229.96 212.82 228.5 213.5L206.08 214.67L203.12 197.74L205.23 182.88L212.79 181.67L212.77 181.68Z" fill="white"/>
<path d="M201.54 161.35L123.07 161.53C120.25 161.42 117.83 163.9 117.55 167.17L116.2 216.82C115.97 219.53 117.78 221.89 120.09 221.89H202.9C205.94 221.89 208.42 218.96 208.31 215.35L206.84 167.38C206.73 164.05 204.47 161.4 201.65 161.29L201.54 161.35Z" fill="black"/>
<path d="M168.5 208.75L228.59 209.88C231.13 209.88 233.33 211.57 234.11 213.94L234.62 215.52H166.58L168.44 208.76H168.5V208.75Z" fill="black"/>
<path d="M96.7999 224.48H83.6699L121.16 414.9H134.29L96.7999 224.48Z" fill="black"/>
<path d="M162.2 194.59C158.98 194.59 156.35 191.96 156.35 188.74C156.35 185.52 158.98 182.89 162.2 182.89C165.42 182.89 168.05 185.52 168.05 188.74C168.05 191.96 165.42 194.59 162.2 194.59Z" fill="white"/>
<path d="M312.82 224.91C296.3 221.91 246.36 197.4 243.65 196.33C242.18 198.3 239.08 200.9 236.1 202.19C233.45 203.31 230.91 203.6 229.32 203.66C228.51 203.69 227.95 204.49 228.2 205.26C229.13 208.11 231.02 215.72 231.02 215.72" stroke="black" stroke-width="4"/>
<path d="M312.14 189.64L314.99 197.9C315.72 199.99 313.81 202.07 311.61 201.51C301.91 199.14 241.79 185.76 241.79 185.76C230.84 183.18 224.08 181.68 216.49 181.01C209.65 180.4 203.83 185.93 204.01 192.79L204.55 213.1" stroke="black" stroke-width="4" stroke-linecap="round"/>
<path d="M256.12 416.08C256.12 337.67 298.82 274.13 351.53 274.13C404.24 274.13 446.94 337.67 446.94 416.08" stroke="black" stroke-width="4"/>
<path d="M333.43 158.8L341.05 184.99C341.05 184.99 331.77 182.71 308.5 189.44C307.03 190 305.34 189.27 304.84 187.81L294.82 152.94C292.17 138.27 298.43 133.55 301.99 130.72" stroke="black" stroke-width="4" stroke-linecap="round"/>
<path d="M229.04 182.9C215.45 183.58 219.96 195.27 221.54 201.81" stroke="black" stroke-width="4" stroke-linecap="round"/>
<path d="M368 214.9H28.87L26 227.7H371.43L367.99 214.9H368Z" fill="black"/>
<path d="M28.27 415.41H471.76" stroke="black" stroke-width="4" stroke-linecap="round"/>
<path d="M262.88 144.64L273.03 140.64L270.05 131.49L262.88 129.63L259.45 135.39L262.88 144.64Z" fill="black"/>
<path d="M358.37 415.08L323.25 414.74C322.29 414.74 321.62 413.84 321.84 412.88L322.57 410.06C322.8 409.21 323.47 408.54 324.32 408.37L343.43 403.8L352.34 390.44L366.55 383.34L375.17 401.01L358.32 415.02L358.38 415.08H358.37Z" fill="black"/>
</g>
<defs>
<clipPath id="clip0_6341_305">
<rect width="447.76" height="335.41" fill="white" transform="translate(26 82)"/>
</clipPath>
</defs>
</svg>
