<svg width="500" height="500" viewBox="0 0 500 500" fill="none" xmlns="http://www.w3.org/2000/svg">
<path d="M43 305.109H456.5" stroke="black" stroke-width="4" stroke-linecap="round"/>
<path d="M210.9 380.709L233 378.109L232.5 397.509H210.6L210.9 380.709Z" fill="black"/>
<path d="M304.6 304.609H257.3C257.3 304.709 240 304.709 240 304.709L239.7 306.909L231 379.609H205.2L199.8 288.209C198.9 273.709 210.1 261.409 224.4 260.809H237.1" fill="white"/>
<path d="M304.6 304.609H257.3C257.3 304.709 240 304.709 240 304.709L239.7 306.909L231 379.609H205.2L199.8 288.209C198.9 273.709 210.1 261.409 224.4 260.809H237.1" stroke="black" stroke-width="4"/>
<path d="M263.5 212.209L303.4 248.109L324.7 182.109L321.7 154.509L263.5 212.309V212.209Z" fill="black"/>
<path d="M130.3 274.109L200.9 202.009C208.6 193.009 220.9 191.309 231.6 196.909L366.3 265.609C365.3 267.709 364.4 269.709 363.5 271.609C360.1 279.209 357.5 284.909 351.5 289.709C324.1 311.409 282.4 310.109 256.8 281.509L252.6 276.809L223.8 244.709L222.5 243.209L220.8 244.209L148.4 287.209L133.8 276.909L130.3 274.109Z" fill="white" stroke="black" stroke-width="4"/>
<path d="M366.3 130.109C364.2 130.309 362.5 130.809 361.3 132.009L356.4 132.409C349.2 132.909 342.4 136.009 337.3 141.009L310.8 168.209L322.2 179.409C309.3 198.509 301.5 230.509 311 250.609C322.9 275.709 337.7 285.509 350.5 290.509C409.7 243.509 402.2 187.009 383 140.509C380.2 133.809 373.5 129.609 366.3 130.109Z" fill="#FF0077" stroke="black" stroke-width="4" stroke-miterlimit="10"/>
<path d="M364.3 81.4087C362.2 71.5087 355.5 63.5087 339.5 67.1087C317.6 52.2087 293.8 56.6087 290.5 72.9087C285.7 96.9087 312.4 108.609 330.5 112.109C338.6 113.709 346.2 112.109 352.2 108.909C355.2 112.709 359.8 115.109 365 115.109C374.1 115.109 381.5 107.709 381.5 98.6087C381.5 89.5087 377.3 83.9087 367.3 81.9087L364.3 81.4087Z" fill="white" stroke="black" stroke-width="4"/>
<path d="M340 112.109L360.3 98.9087L373.7 132.409C373.7 132.409 370.3 143.809 355.3 142.909C346.7 142.409 345.1 133.309 345.1 133.309L339.9 112.109H340Z" fill="black"/>
<path d="M340.8 115.409L345.2 133.209C345.2 133.209 345.8 136.709 348.3 139.509L355.6 121.409L350.4 113.809L340.8 115.409Z" fill="black"/>
<path d="M315.9 91.1089L350.1 81.6089L357.6 108.509C360.2 118.009 354.7 127.709 345.2 130.409C335.7 133.009 326 127.509 323.3 118.009L315.8 91.1089H315.9Z" fill="black"/>
<path d="M354.9 98.9085L350.7 83.7085C350.1 83.0085 349.5 82.3085 348.8 81.7085L315.8 90.8085L319.1 102.808C336.6 111.308 352.4 105.308 354.9 98.7085V98.9085Z" fill="black"/>
<path d="M310.9 84.1086C311.7 77.6086 327.9 69.1087 341.5 70.2087C355.1 71.3087 360.8 81.5086 360.1 88.0086C359.3 94.5086 347.7 99.0086 334.1 97.9086C320.5 96.8086 310.1 90.6086 310.9 84.1086Z" fill="white"/>
<path d="M363.2 98.8087C363.8 94.7087 361.7 91.1087 358.7 90.7087C355.7 90.3087 352.8 93.2087 352.3 97.3087C351.7 101.409 353.8 105.009 356.8 105.409C359.8 105.809 362.7 102.909 363.2 98.8087Z" fill="black"/>
<path d="M321.7 120.809C324.1 120.109 324.9 115.309 323.5 109.909C322.1 104.509 319 100.609 316.5 101.309C314.1 102.009 313.3 106.809 314.7 112.209C316.1 117.609 319.2 121.509 321.7 120.809Z" fill="white" stroke="black" stroke-width="4"/>
<path d="M334.7 118.208C338.7 117.108 340.7 111.608 339.2 105.708C337.6 99.9085 333.2 96.0085 329.1 97.0085C325 98.0085 323.1 103.608 324.6 109.508C326.2 115.308 330.6 119.208 334.7 118.208Z" fill="white" stroke="black" stroke-width="4"/>
<path d="M361.3 117.709C360.9 117.709 360.5 117.709 360.1 117.709C355 117.109 351.2 112.409 351.9 107.209C352.2 104.709 353.5 102.509 355.4 100.909C357.4 99.3087 359.8 98.6087 362.4 98.9087C367.5 99.5087 371.3 104.209 370.6 109.409C370.3 111.909 369 114.109 367.1 115.709C365.4 117.009 363.4 117.709 361.3 117.709Z" stroke="#FF0077" stroke-width="4" stroke-miterlimit="10"/>
<path d="M360.8 202.409L334.5 179.409L313.5 206.509L264.7 184.109C263.4 183.509 262 183.109 260.6 182.909L240 180.609C237.7 180.409 235.4 180.909 233.3 181.809L223.7 186.309C222.8 186.909 222.7 188.209 223.4 189.009C224 189.609 224.9 189.609 225.6 189.409L236.1 187.109C238.2 186.609 240.3 187.209 242.8 187.809L256.6 192.309C259.8 193.809 260.9 196.809 262.8 194.809L303.7 235.909C311.5 243.809 324.3 243.509 331.8 235.309L360.8 202.909V202.409Z" fill="black"/>
<path d="M249.7 200.509C250.5 201.709 252.1 202.109 253.3 201.409L264.4 194.909L259.4 191.609L250.5 197.009C249.3 197.809 248.9 199.309 249.7 200.509Z" fill="black"/>
<path d="M135.4 304.709L134.8 297.409C134.5 294.209 133 291.309 130.5 289.209L121.4 281.809L81.5002 297.009C79.2002 297.909 77.7002 300.009 77.7002 302.509V304.709H135.4Z" fill="#FF0077" stroke="black" stroke-width="4" stroke-miterlimit="10"/>
<path d="M330 185.209L360.3 202.909L334.7 179.109L330 185.109V185.209Z" fill="black"/>
<path d="M234.6 410.009C236.2 408.909 236.6 406.809 235.6 405.209L230.2 397.609H211.9L186 432.409C184.6 434.409 184.5 437.009 185.9 439.009L187.6 441.609L234.6 410.009Z" fill="#FF0077" stroke="black" stroke-width="4" stroke-miterlimit="10"/>
<path d="M233.8 261.809L264.4 305.909H310.2L278.5 298.809L261.6 287.809L239.1 261.809H233.8Z" fill="black"/>
<path d="M342.8 165.661C349.3 158.161 360.6 157.261 368.1 163.761C375.6 170.261 376.5 181.561 370 189.061L359.2 201.761" stroke="black" stroke-width="4" stroke-miterlimit="10" stroke-linecap="round"/>
<path d="M130 271.609L120.1 280.909L134 294.109L142.8 284.609" fill="black"/>
<path d="M220.8 244.309L231.3 237.809" stroke="black" stroke-width="4" stroke-miterlimit="10" stroke-linecap="round"/>
<path d="M256.9 206.009L191.9 174.909C189.8 173.909 188.4 172.009 188 169.709L177.3 109.109" stroke="black" stroke-width="4" stroke-miterlimit="10" stroke-linecap="round"/>
</svg>
