<svg width="886" height="874" viewBox="0 0 886 874" fill="none" xmlns="http://www.w3.org/2000/svg">
<g clip-path="url(#clip0_6341_300)">
<path d="M784.913 125.765H215.917C210.393 125.765 205.915 129.956 205.915 135.127V514.403C205.915 519.574 210.393 523.765 215.917 523.765H784.913C790.437 523.765 794.915 519.574 794.915 514.403V135.127C794.915 129.956 790.437 125.765 784.913 125.765Z" fill="white" stroke="black" stroke-width="4" stroke-miterlimit="10"/>
<path d="M90.915 755.635H672.845" stroke="black" stroke-width="4" stroke-linecap="round"/>
<path d="M454.555 125.505L482.195 97.865C487.655 92.405 496.505 92.405 501.955 97.865L529.595 125.505" stroke="black" stroke-width="4" stroke-miterlimit="10"/>
<path d="M203.775 491.765H795.095V514.255C795.095 519.595 790.755 523.935 785.415 523.935H207.775C205.565 523.935 203.775 522.145 203.775 519.935V491.765Z" fill="black"/>
<path d="M491.516 540.015C500.396 540.015 507.596 532.816 507.596 523.935C507.596 515.054 500.396 507.855 491.516 507.855C482.635 507.855 475.436 515.054 475.436 523.935C475.436 532.816 482.635 540.015 491.516 540.015Z" fill="black"/>
<path d="M491.515 579.175C496.596 579.175 500.715 575.056 500.715 569.975C500.715 564.894 496.596 560.775 491.515 560.775C486.434 560.775 482.315 564.894 482.315 569.975C482.315 575.056 486.434 579.175 491.515 579.175Z" stroke="black" stroke-width="4" stroke-linecap="round"/>
<path d="M491.516 530.805V560.775" stroke="black" stroke-width="4" stroke-linecap="round"/>
<path d="M672.78 296.147L738.02 317.347C726.31 353.377 687.62 373.097 651.59 361.387C615.56 349.677 595.84 310.987 607.55 274.957C616.92 246.137 642.48 227.557 672.79 227.557V296.147H672.78Z" fill="black" stroke="black" stroke-width="4"/>
<path d="M672.85 296.167L627.8 348.007C640.29 358.867 656.3 364.847 672.85 364.847C710.53 364.847 741.53 333.847 741.53 296.167C741.53 258.487 710.53 227.487 672.85 227.487C672.67 227.487 672.5 227.487 672.32 227.487L672.85 296.167Z" fill="white" stroke="black" stroke-width="4"/>
<path d="M672.78 296.147V227.557C703.09 227.557 728.65 246.127 738.02 274.957L672.78 296.157V296.147Z" fill="#FF0077" stroke="black" stroke-width="4"/>
<path d="M672.85 324.637C688.573 324.637 701.32 311.891 701.32 296.167C701.32 280.444 688.573 267.697 672.85 267.697C657.126 267.697 644.38 280.444 644.38 296.167C644.38 311.891 657.126 324.637 672.85 324.637Z" fill="white" stroke="black" stroke-width="4"/>
<path d="M604.16 382.727H741.53" stroke="black" stroke-width="4"/>
<path d="M604.16 399.267H741.53" stroke="black" stroke-width="4"/>
<path d="M604.16 415.797H741.53" stroke="black" stroke-width="4"/>
<path d="M604.44 432.327H700.42" stroke="black" stroke-width="4"/>
<path d="M440.015 211.765H452.195C455.565 211.765 458.295 214.495 458.295 217.865V436.295H433.915V217.865C433.915 214.495 436.645 211.765 440.015 211.765Z" fill="#FF0077" stroke="black" stroke-width="4"/>
<path d="M481.105 338.275H493.285C496.655 338.275 499.385 341.005 499.385 344.375V436.295H475.005V344.375C475.005 341.005 477.735 338.275 481.105 338.275Z" fill="#FF0077" stroke="black" stroke-width="4"/>
<path d="M563.285 370.405H575.465C578.835 370.405 581.565 373.135 581.565 376.505V436.295H557.185V376.505C557.185 373.135 559.915 370.405 563.285 370.405Z" fill="#FF0077" stroke="black" stroke-width="4"/>
<path d="M522.195 304.515H534.375C537.745 304.515 540.475 307.245 540.475 310.615V436.295H516.095V310.615C516.095 307.245 518.825 304.515 522.195 304.515Z" fill="#FF0077" stroke="black" stroke-width="4"/>
<path d="M433.915 436.295H581.565" stroke="black" stroke-width="4"/>
<path d="M433.915 180.765H628.915" stroke="black" stroke-width="4" stroke-linecap="round"/>
<path d="M374.287 283.515L397.527 280.675C400.037 280.335 402.427 279.355 404.447 277.825L413.727 270.795C414.747 269.965 415.567 268.655 414.627 267.415C413.637 266.115 412.087 266.985 411.387 267.365L400.237 272.905C398.067 273.915 395.597 274.105 393.297 273.455L376.857 269.615L380.577 267.305C381.917 266.435 382.257 264.645 381.337 263.305C380.417 261.975 378.597 261.595 377.257 262.465L366.277 269.285C365.357 269.725 364.557 270.375 363.927 271.215L363.907 271.195L374.257 283.505L374.287 283.515Z" fill="black"/>
<path d="M280.597 279.595C293.791 279.595 304.487 268.899 304.487 255.705C304.487 242.511 293.791 231.815 280.597 231.815C267.403 231.815 256.707 242.511 256.707 255.705C256.707 268.899 267.403 279.595 280.597 279.595Z" fill="white" stroke="black" stroke-width="4"/>
<path d="M372.358 283.755C367.268 296.235 350.328 343.995 341.608 353.935C331.478 365.495 317.198 362.395 308.828 351.335C300.458 340.275 281.308 314.885 281.308 314.885L293.688 274.235L329.818 320.485L364.568 273.675L372.358 283.755Z" fill="#FF0077" stroke="black" stroke-width="4"/>
<path d="M227.767 319.845C193.197 330.075 178.107 305.295 176.417 287.045C173.287 253.245 204.627 239.715 204.627 239.715C204.627 239.715 181.307 221.695 199.277 203.965C208.507 194.855 230.727 196.705 230.727 196.705C230.727 196.705 237.717 172.695 258.627 170.995C279.537 169.305 286.887 179.485 290.107 186.605C293.327 193.725 291.767 205.775 291.767 205.775L272.717 225.085L227.767 319.845Z" fill="white" stroke="black" stroke-width="4"/>
<path d="M230.918 715.705L227.678 755.665H187.428L188.028 750.875C188.698 748.245 190.878 746.315 193.498 746.025L199.828 745.305L202.368 715.705H230.928H230.918Z" fill="#FF0077" stroke="black" stroke-width="4"/>
<path d="M313.167 720.085L320.727 755.675H366.487V750.195C366.487 747.995 364.917 746.125 362.797 745.825L348.407 743.755L341.897 720.095H315.915L313.167 720.085Z" fill="#FF0077" stroke="black" stroke-width="4"/>
<path d="M118.027 312.235C119.027 300.885 126.627 291.295 137.217 288.015L164.857 279.475L191.247 271.285L250.537 253.775L284.667 265.295C289.617 266.965 293.587 270.805 295.527 275.785L312.047 318.185C316.107 328.605 312.767 339.825 302.977 344.745L376.167 706.015L231.027 378.925C230.307 377.805 222.567 370.075 222.567 370.075L233.707 354.685C234.857 353.095 234.997 350.995 234.077 349.255L213.027 309.815L185.017 315.605L165.077 319.295C163.017 319.675 162.027 322.055 163.217 323.775L201.897 380.315L191.257 393.445L127.177 335.765C120.647 329.885 117.237 321.135 118.027 312.235Z" fill="#FF0077" stroke="black" stroke-width="4"/>
<path d="M272.327 249.315C272.327 249.315 272.327 276.495 272.327 277.615C272.327 278.735 271.417 286.925 257.837 284.315C244.257 281.705 240.327 267.925 240.327 267.925V226.585L261.207 249.325L272.317 249.305L272.327 249.315Z" fill="black"/>
<path d="M267.227 524.295L248.467 707.795H188.277C188.277 707.795 188.277 557.685 188.277 480.595C188.277 403.495 220.807 368.305 220.807 368.305L311.097 385.905L379.107 707.805C379.107 707.805 297.737 707.915 297.717 707.805" fill="black"/>
<path d="M282.277 189.335L240.107 188.765L240.497 234.095C240.477 243.045 247.717 250.315 256.667 250.335L276.797 250.375C285.277 250.395 292.177 243.525 292.187 235.045L292.257 199.365C292.267 193.835 287.797 189.345 282.267 189.335H282.277Z" fill="black"/>
<path d="M289.887 196.495C289.887 196.495 289.447 203.265 279.267 198.595C269.327 194.035 269.237 189.035 269.237 189.035C269.237 189.035 268.807 192.745 263.797 194.565C260.967 195.595 257.797 193.385 257.797 193.385C257.797 193.385 258.897 206.625 249.467 213.025C240.037 219.425 235.667 209.555 235.667 209.555C235.667 209.555 234.607 195.335 240.107 186.915C245.607 178.495 270.077 179.895 276.487 182.075C285.457 185.125 289.527 190.815 289.527 190.815L289.887 196.505V196.495Z" fill="white"/>
<path d="M244.807 217.655C238.747 210.895 233.707 215.105 233.187 217.655C232.107 223.055 238.237 225.975 241.777 227.025C245.317 228.065 248.597 227.025 248.597 227.025L244.807 217.655Z" fill="black"/>
<path d="M291.077 229.675C287.677 229.675 284.247 225.345 284.247 217.075C284.247 208.805 287.687 204.475 291.077 204.475C294.467 204.475 297.907 208.805 297.907 217.075C297.907 225.345 294.467 229.675 291.077 229.675Z" fill="white"/>
<path d="M291.077 206.475C293.747 206.475 295.907 211.215 295.907 217.075C295.907 222.935 293.747 227.675 291.077 227.675C288.407 227.675 286.247 222.935 286.247 217.075C286.247 211.215 288.417 206.475 291.077 206.475ZM291.077 202.475C285.877 202.475 282.247 208.475 282.247 217.075C282.247 225.675 285.877 231.675 291.077 231.675C296.277 231.675 299.907 225.675 299.907 217.075C299.907 208.475 296.277 202.475 291.077 202.475Z" fill="black"/>
<path d="M199.937 382.835L201.907 380.325L205.277 385.145C206.927 387.505 208.217 390.115 209.077 392.885L212.877 405.035C213.417 406.395 212.877 407.965 211.627 408.675C210.207 409.485 208.417 408.895 207.717 407.385L203.567 398.455C203.567 398.455 201.437 403.185 199.177 409.375C196.907 415.565 194.127 427.135 194.127 427.135C194.127 427.135 190.317 427.075 191.137 421.205C191.957 415.335 194.147 397.735 194.147 397.735L191.257 393.455L199.937 382.845V382.835Z" fill="black" stroke="black" stroke-width="4"/>
<path d="M273.297 231.145C268.077 231.145 263.997 224.965 263.997 217.075C263.997 209.185 268.087 203.005 273.297 203.005C278.507 203.005 282.597 209.185 282.597 217.075C282.597 224.965 278.507 231.145 273.297 231.145Z" fill="white"/>
<path d="M273.297 205.005C277.327 205.005 280.597 210.405 280.597 217.075C280.597 223.745 277.327 229.145 273.297 229.145C269.267 229.145 265.997 223.745 265.997 217.075C265.997 210.405 269.267 205.005 273.297 205.005ZM273.297 201.005C266.957 201.005 261.997 208.065 261.997 217.075C261.997 226.085 266.957 233.145 273.297 233.145C279.637 233.145 284.597 226.085 284.597 217.075C284.597 208.065 279.637 201.005 273.297 201.005Z" fill="black"/>
<path d="M235.847 310.955L234.627 309.535C231.737 306.175 227.227 304.665 222.897 305.605L213.287 307.695L221.997 324.015L235.847 310.955Z" fill="black"/>
<path d="M267.537 503.575L271.087 452.605C271.787 442.585 280.117 434.815 290.157 434.815" stroke="white" stroke-width="4" stroke-miterlimit="10" stroke-linecap="round"/>
<path d="M310.957 719.175L305.697 699.395H338.057L343.647 719.065L310.957 719.175Z" fill="black"/>
<path d="M232.915 716.265L235.415 695.435L202.355 696.385L200.465 713.845L232.915 716.265Z" fill="black"/>
</g>
<defs>
<clipPath id="clip0_6341_300">
<rect width="708.17" height="690.47" fill="white" transform="translate(88.915 91.765)"/>
</clipPath>
</defs>
</svg>
