<svg width="500" height="700" viewBox="0 0 500 700" fill="none" xmlns="http://www.w3.org/2000/svg">
<path d="M31.8008 675H269.001" stroke="black" stroke-width="4" stroke-linecap="round"/>
<path d="M168.401 106.5C168.101 93.8999 160.401 84.0999 152.801 80.7999C145.101 77.3999 119.101 81.6999 112.001 102.3C105.001 122.8 112.001 138.8 112.001 138.8V170.2L130.401 178.6L145.601 162.8L146.601 143.8L136.701 141.1L144.001 143.1L156.401 146.3C161.501 147.6 166.601 144 167.001 138.7C167.701 128.9 168.601 114.5 168.401 106.6V106.5Z" fill="black"/>
<path d="M143.601 627.2L119.601 630.9L120.501 650.6L143.901 649L143.601 627.2Z" fill="black"/>
<path d="M72.5 617.6L59.5 648.8L86.7 650.6L95.5 626.1L72.5 617.6Z" fill="black"/>
<path d="M149.601 634.7L110.801 635.8C109.401 635.8 108.201 634.7 108.201 633.3L97.5008 409.3L92.5008 393.9C89.3008 384 88.1008 373.5 89.6008 363.1C91.1008 352.7 97.0008 345.2 99.5008 338.2L106.801 329.2L152.201 340.8V632C152.201 633.4 151.101 634.5 149.701 634.6L149.601 634.7Z" fill="white" stroke="black" stroke-width="4" stroke-miterlimit="10"/>
<path d="M121.501 338.8L124.501 326.2L209.401 329.9L92.3009 628.9L46.4009 615.9C45.7009 615.7 45.4009 615 45.6009 614.3L119.101 395.5C114.301 385.5 113.101 374.2 115.701 363.5" fill="white"/>
<path d="M121.501 338.8L124.501 326.2L209.401 329.9L92.3009 628.9L46.4009 615.9C45.7009 615.7 45.4009 615 45.6009 614.3L119.101 395.5C114.301 385.5 113.101 374.2 115.701 363.5" stroke="black" stroke-width="4" stroke-miterlimit="10" stroke-linecap="round"/>
<path d="M186.401 669.8C186.301 667.2 184.501 665 182.001 664.2L142.101 649.1H122.501L121.801 675.1H186.701L186.401 669.9V669.8Z" fill="#FF0077" stroke="black" stroke-width="4" stroke-miterlimit="10"/>
<path d="M117.6 663.4L105.5 659.9C103.4 659.3 101.6 657.9 100.5 656L89 641.8L68.7 632L58.5 656L92 675.2H120.6L121.5 669.8C122 667 120.3 664.3 117.6 663.6V663.4Z" fill="#FF0077" stroke="black" stroke-width="4" stroke-miterlimit="10"/>
<path d="M260.401 156.9C258.801 156.9 257.301 156.2 256.101 154.9C254.501 153.2 254.301 151.4 254.501 150.3C254.801 147.4 257.301 145.5 258.401 144.7L298.301 118.3L305.901 117L302.901 124.6L266.201 154.5C264.201 156.1 262.301 156.9 260.601 156.9H260.401Z" fill="#FF0077"/>
<path d="M302.6 119.5L301.1 123.3L264.8 152.8C263.7 153.7 262.1 154.7 260.4 154.7C258.7 154.7 258.4 154.3 257.5 153.3C254.8 150.4 257.3 147.5 259.4 146.1L298.9 119.9L302.5 119.3M308.9 114.4L301.9 115.6L298.3 116.2H297.5C297.5 116.3 296.8 116.8 296.8 116.8L257.3 143C256 143.9 253 146.3 252.5 150C252.3 151.6 252.5 153.9 254.7 156.2C256.3 157.9 258.3 158.9 260.5 158.9C262.7 158.9 265 158 267.4 156.1L303.7 126.5L304.5 125.8L304.9 124.8L306.4 121L309 114.4H308.9Z" fill="black"/>
<path d="M125.8 298L108 318.3C106.4 320.1 104.2 321.1 101.8 321.1H101.4C99.7004 321.1 98.1004 320.6 96.7004 319.7L31.8004 277.5C26.8004 274.2 25.2004 267.6 28.2004 262.4L53.3004 210.2L86.7004 223.9L56.8004 264.3L104 304.8L118 295C119.4 294 121 293.6 122.7 293.8L124.2 294C126.2 294.2 127 296.6 125.7 298H125.8Z" fill="black"/>
<path d="M221.301 187.4L243.101 202.5L272.601 159.8C273.901 157.9 274.501 155.6 274.401 153.4L273.301 134.4C273.101 131.4 274.301 128.4 276.601 126.4C278.901 124.4 283.501 120.3 285.301 119.2C288.301 117.4 289.901 121.5 289.901 121.5C289.901 121.5 292.501 119.3 294.501 120.9C296.501 122.5 295.401 124.6 295.401 124.6C295.401 124.6 299.901 123.6 299.601 128C300.801 127.7 303.001 129.9 301.801 132C300.601 134.1 296.601 136.4 296.601 136.4L294.901 154.7C294.701 156.9 294.001 159.1 292.901 161.1L254.701 229.8C251.801 235 245.201 236.9 240.001 233.9L202.101 214.6L221.501 187.6L221.301 187.4Z" fill="black"/>
<path d="M156.8 79.7C144.3 67.5001 113.9 67 103.1 79.7C92.4003 92.4 93.6003 103.7 93.6003 103.7C93.6003 103.7 89.3003 124.8 104.3 135.6C114.2 142.7 117.5 143 120.2 140.8C122.4 139.1 132.5 123.9 136.7 117.5C135.9 113.7 137.3 110.1 140 109.3C143 108.4 146.4 110.9 147.6 115C147.8 115.7 147.9 116.3 148 116.9L149 117.1C151.8 115.8 153.6 113 153.6 109.9V104.9L159.6 97C162.9 92.7 162.8 87 159.6 83L156.8 79.7Z" fill="white" stroke="black" stroke-width="4" stroke-miterlimit="10"/>
<path d="M218.6 187.8L183.6 163.1C177.1 158.8 169.1 157.4 161.4 159.1L85.8 175.9C77.7 177.7 70.7 182.9 66.7 190.2L55.1 211.1C54.3 212.5 55.1 214.2 56.5 214.6L86.7 224L104.1 260.1C107.2 266.6 111.9 277 118 281C141.9 296.4 125.5 285.9 125.5 285.9C125.5 285.9 118.7 283.9 116.6 289.5C115.5 292.6 118.1 295.2 118.1 295.2L99 332.7C97.7 335.3 99.3 338.5 102.2 339C107.9 340 118.8 341.1 138.2 341.1C157.6 341.1 197.3 337.7 211.2 336.2C214.8 335.8 217.4 332.4 216.9 328.8L200.7 214.5L218.6 188V187.8Z" fill="#FF0077" stroke="black" stroke-width="4" stroke-miterlimit="10"/>
<path d="M79.7004 121.6C97.8153 121.6 112.5 106.915 112.5 88.8C112.5 70.6851 97.8153 56 79.7004 56C61.5854 56 46.9004 70.6851 46.9004 88.8C46.9004 106.915 61.5854 121.6 79.7004 121.6Z" fill="white" stroke="black" stroke-width="4" stroke-miterlimit="10"/>
<path d="M177.7 362.9L172.3 377.6C167.8 389.8 156.2 397.9 143.2 397.9H135.7" stroke="black" stroke-width="4" stroke-miterlimit="10" stroke-linecap="round"/>
<path d="M177.701 260.8C177.701 260.8 178.101 298.1 134.101 317.7L177.701 260.8Z" fill="#FF0077"/>
<path d="M177.701 260.8C177.701 260.8 178.101 298.1 134.101 317.7" stroke="black" stroke-width="4" stroke-miterlimit="10" stroke-linecap="round"/>
<path d="M312.801 113.2C318.601 124.2 325.701 135 335.701 142.7C345.101 150 357.301 152.8 369.001 152.5C377.101 152.3 385.301 150.7 392.301 146.5C406.501 138.1 413.701 121.1 419.201 106.3C425.401 89.4 429.901 71.6 440.401 56.7L440.701 56.3C445.701 49.2 452.601 43.6 461.501 43" stroke="black" stroke-width="4" stroke-linecap="round"/>
<path d="M462.9 52.2999C468.257 52.2999 472.6 47.9571 472.6 42.5999C472.6 37.2427 468.257 32.8999 462.9 32.8999C457.543 32.8999 453.2 37.2427 453.2 42.5999C453.2 47.9571 457.543 52.2999 462.9 52.2999Z" fill="white" stroke="black" stroke-width="4" stroke-miterlimit="10"/>
<path d="M378.301 161.4C383.658 161.4 388.001 157.057 388.001 151.7C388.001 146.343 383.658 142 378.301 142C372.943 142 368.601 146.343 368.601 151.7C368.601 157.057 372.943 161.4 378.301 161.4Z" fill="white" stroke="black" stroke-width="4" stroke-miterlimit="10"/>
</svg>
