<svg width="342" height="395" viewBox="0 0 342 395" fill="none" xmlns="http://www.w3.org/2000/svg">
<g clip-path="url(#clip0_6341_162)">
<path d="M216.42 249.453L216.543 402H86.0039L86.334 248.645L150.768 222.864L216.42 249.453Z" fill="#FF0077" stroke="black" stroke-width="4"/>
<path d="M118.583 237.075L86.6551 247.78C86.3965 247.867 86.1549 247.612 86.2558 247.358L149.265 89.268C149.934 87.588 152.313 87.5889 152.981 89.2695L216.217 248.289C216.322 248.553 216.057 248.813 215.795 248.703L188.509 237.196C187.832 236.91 187.072 236.894 186.384 237.15L154.529 248.998C153.881 249.239 153.169 249.239 152.521 248.998L120.503 237.106C119.885 236.877 119.208 236.866 118.583 237.075Z" fill="white" stroke="black" stroke-width="4"/>
<path d="M150.159 90.9442C150.495 90.1034 151.685 90.1051 152.018 90.9469L170.147 136.802H131.877L150.159 90.9442Z" fill="black"/>
<path d="M129.956 136.962H172.389" stroke="black" stroke-width="4"/>
<path d="M232.473 175.889C232.112 176.843 230.712 176.843 230.352 175.889C221.998 153.797 206.999 138.75 184.807 130.475C183.848 130.117 183.845 128.71 184.803 128.349C206.924 120.005 221.992 105.03 230.351 82.9469C230.712 81.9925 232.112 81.9925 232.473 82.947C240.826 105.039 255.825 120.085 278.017 128.361C278.976 128.719 278.979 130.125 278.022 130.487C255.901 138.831 240.832 153.805 232.473 175.889Z" fill="black"/>
<path d="M190.849 156.59C193.86 162.638 198.403 167.175 204.459 170.182C198.404 173.19 193.86 177.727 190.849 183.774C187.837 177.726 183.293 173.19 177.237 170.182C183.293 167.175 187.837 162.638 190.849 156.59Z" fill="white" stroke="black" stroke-width="4" stroke-linejoin="bevel"/>
<path d="M120 237.5V399.5" stroke="black" stroke-width="4"/>
<path d="M187 237.5V399.5" stroke="black" stroke-width="4"/>
<path d="M154 248.5V399.5" stroke="black" stroke-width="4"/>
</g>
<defs>
<clipPath id="clip0_6341_162">
<rect width="342" height="395" fill="white"/>
</clipPath>
</defs>
</svg>
