<svg width="342" height="400" viewBox="0 0 342 400" fill="none" xmlns="http://www.w3.org/2000/svg">
<path d="M230.51 62H62.41C52.2424 62 44 70.2424 44 80.41V320.34C44 330.508 52.2424 338.75 62.41 338.75H230.51C240.678 338.75 248.92 330.508 248.92 320.34V80.41C248.92 70.2424 240.678 62 230.51 62Z" fill="black"/>
<path d="M220.32 93.3096H75.1196C72.2312 93.3096 69.8896 95.6511 69.8896 98.5396V122.38C69.8896 125.268 72.2312 127.61 75.1196 127.61H220.32C223.208 127.61 225.55 125.268 225.55 122.38V98.5396C225.55 95.6511 223.208 93.3096 220.32 93.3096Z" fill="white"/>
<path d="M225.56 232.8C225.56 220.185 215.334 209.96 202.72 209.96C190.106 209.96 179.88 220.185 179.88 232.8V289.88C179.88 302.494 190.106 312.72 202.72 312.72C215.334 312.72 225.56 302.494 225.56 289.88V232.8Z" fill="#FF0077"/>
<path d="M115.57 175.86C115.57 163.245 105.344 153.02 92.7296 153.02C80.1155 153.02 69.8896 163.245 69.8896 175.86C69.8896 188.474 80.1155 198.7 92.7296 198.7C105.344 198.7 115.57 188.474 115.57 175.86Z" fill="white"/>
<path d="M115.57 232.94C115.57 220.325 105.344 210.1 92.7296 210.1C80.1155 210.1 69.8896 220.325 69.8896 232.94C69.8896 245.554 80.1155 255.78 92.7296 255.78C105.344 255.78 115.57 245.554 115.57 232.94Z" fill="white"/>
<path d="M171.75 175.86C171.75 163.245 161.524 153.02 148.91 153.02C136.296 153.02 126.07 163.245 126.07 175.86C126.07 188.474 136.296 198.7 148.91 198.7C161.524 198.7 171.75 188.474 171.75 175.86Z" fill="white"/>
<path d="M225.56 175.86C225.56 163.245 215.334 153.02 202.72 153.02C190.106 153.02 179.88 163.245 179.88 175.86C179.88 188.474 190.106 198.7 202.72 198.7C215.334 198.7 225.56 188.474 225.56 175.86Z" fill="white"/>
<path d="M171.889 232.8C171.889 220.185 161.664 209.96 149.049 209.96C136.435 209.96 126.209 220.185 126.209 232.8C126.209 245.414 136.435 255.64 149.049 255.64C161.664 255.64 171.889 245.414 171.889 232.8Z" fill="white"/>
<path d="M115.57 290.02C115.57 277.405 105.344 267.18 92.7296 267.18C80.1155 267.18 69.8896 277.405 69.8896 290.02C69.8896 302.634 80.1155 312.86 92.7296 312.86C105.344 312.86 115.57 302.634 115.57 290.02Z" fill="white"/>
<path d="M171.889 289.88C171.889 277.265 161.664 267.04 149.049 267.04C136.435 267.04 126.209 277.265 126.209 289.88C126.209 302.494 136.435 312.72 149.049 312.72C161.664 312.72 171.889 302.494 171.889 289.88Z" fill="white"/>
<path d="M292.6 311.62H275.37C274.011 311.62 272.91 312.722 272.91 314.08V336.28C272.91 337.639 274.011 338.74 275.37 338.74H292.6C293.958 338.74 295.06 337.639 295.06 336.28V314.08C295.06 312.722 293.958 311.62 292.6 311.62Z" stroke="black" stroke-width="4"/>
<path fill-rule="evenodd" clip-rule="evenodd" d="M295.05 99.1401V306.62H273V99.1401" fill="#FF0077"/>
<path d="M295.05 99.1401V306.62H273V99.1401" stroke="black" stroke-width="4" stroke-linejoin="round"/>
<path d="M297.02 306.62H270.97V325.74H297.02V306.62Z" fill="black"/>
<path fill-rule="evenodd" clip-rule="evenodd" d="M283.42 71.0101L273.12 99.1201C273.12 99.1201 273.14 99.2101 273.19 99.2101L294.81 99.2801C294.86 99.2801 294.89 99.2301 294.88 99.1801L283.43 71.0001L283.42 71.0101Z" fill="white" stroke="black" stroke-width="4"/>
<path d="M284.03 99.1401V310.42" stroke="black" stroke-width="4" stroke-linejoin="round"/>
<path fill-rule="evenodd" clip-rule="evenodd" d="M277.57 84.9601L282.61 69.8701L288.91 84.9601H277.57Z" fill="black"/>
</svg>
