<svg width="545" height="400" viewBox="0 0 545 400" fill="none" xmlns="http://www.w3.org/2000/svg">
<path d="M380.729 291.47C383.579 294.01 386.619 296.31 389.829 298.33L402.96 288.27L383.479 277.49L380.74 291.47H380.729Z" fill="black"/>
<path d="M135.839 123.41L176.289 252.21V309.7H128.879C125.089 309.7 122.069 306.53 122.259 302.74L131.039 123.25C131.079 122.6 135.649 122.79 135.839 123.41Z" fill="black"/>
<path d="M142.899 114.84H371.759C382.559 114.84 391.819 122.57 393.739 133.21L423.699 299.11C424.489 303.49 421.129 307.52 416.669 307.52H165.729L133.059 126.62C131.949 120.49 136.669 114.85 142.899 114.85V114.84Z" fill="white" stroke="black" stroke-width="4" stroke-miterlimit="10" stroke-linecap="round"/>
<path d="M379.529 114.84H141.659C136.069 114.84 131.849 119.9 132.839 125.39L137.719 152.39H397.199L392.349 125.56C391.229 119.36 385.829 114.84 379.519 114.84H379.529Z" fill="#FF0077" stroke="black" stroke-width="4" stroke-miterlimit="10"/>
<path d="M378.879 306.66H417.279C421.409 306.66 424.539 302.92 423.809 298.85L418.259 268.13" fill="black"/>
<path d="M378.879 306.66H417.279C421.409 306.66 424.539 302.92 423.809 298.85L418.259 268.13" stroke="black" stroke-width="4"/>
<path d="M418.259 268.99H376.879C374.579 268.99 372.819 271.06 373.199 273.33L378.879 307.52" fill="white"/>
<path d="M418.259 268.99H376.879C374.579 268.99 372.819 271.06 373.199 273.33L378.879 307.52" stroke="black" stroke-width="4" stroke-miterlimit="10" stroke-linecap="round"/>
<path d="M167.52 113.31C167.52 102.09 174.18 93 182.4 93C190.62 93 197.28 102.09 197.28 113.31C197.28 124.53 190.62 133.62 182.4 133.62" stroke="black" stroke-width="4"/>
<path d="M182.93 140.37C186.597 140.37 189.57 137.03 189.57 132.91C189.57 128.79 186.597 125.45 182.93 125.45C179.262 125.45 176.29 128.79 176.29 132.91C176.29 137.03 179.262 140.37 182.93 140.37Z" fill="black"/>
<path d="M225.74 113.31C225.74 102.09 232.4 93 240.62 93C248.84 93 255.5 102.09 255.5 113.31C255.5 124.53 248.84 133.62 240.62 133.62" stroke="black" stroke-width="4"/>
<path d="M241.15 140.37C244.817 140.37 247.79 137.03 247.79 132.91C247.79 128.79 244.817 125.45 241.15 125.45C237.483 125.45 234.51 128.79 234.51 132.91C234.51 137.03 237.483 140.37 241.15 140.37Z" fill="black"/>
<path d="M283.959 113.31C283.959 102.09 290.619 93 298.839 93C307.059 93 313.719 102.09 313.719 113.31C313.719 124.53 307.059 133.62 298.839 133.62" stroke="black" stroke-width="4"/>
<path d="M299.37 140.37C303.037 140.37 306.01 137.03 306.01 132.91C306.01 128.79 303.037 125.45 299.37 125.45C295.702 125.45 292.729 128.79 292.729 132.91C292.729 137.03 295.702 140.37 299.37 140.37Z" fill="black"/>
<path d="M342.18 113.31C342.18 102.09 348.84 93 357.06 93C365.28 93 371.94 102.09 371.94 113.31C371.94 124.53 365.28 133.62 357.06 133.62" stroke="black" stroke-width="4"/>
<path d="M357.59 140.37C361.257 140.37 364.23 137.03 364.23 132.91C364.23 128.79 361.257 125.45 357.59 125.45C353.923 125.45 350.95 128.79 350.95 132.91C350.95 137.03 353.923 140.37 357.59 140.37Z" fill="black"/>
<path d="M173.35 168.51H296.4C301.69 168.51 306.21 172.2 307.15 177.27L325.9 278.64C327.11 285.18 321.96 291.19 315.15 291.19H192.91C187.66 291.19 183.15 287.54 182.17 282.51L162.6 181.14C161.33 174.58 166.49 168.51 173.34 168.51H173.35Z" fill="black"/>
<path d="M257.43 243.81C259.64 255.79 248.58 264.15 232.71 264.5C216.04 264.86 202.36 257.14 198.64 242.58L208.31 241.57C211.15 252.64 218.58 257.49 231.82 257.2C244.38 256.93 249.52 252.51 247.84 243.42C246.26 234.83 237.55 230.51 224.31 230.8L218.72 230.92L217.37 223.63L223.08 223.51C235.52 223.24 240.36 218.42 239.05 211.33C237.58 203.34 231.05 199.67 220.32 199.91C208.79 200.16 202.45 203.71 205.33 216.78L195.58 216.09C192.12 199.82 203 192.97 218.87 192.63C232.8 192.33 245.97 199.16 247.97 209.94C249.28 217.03 245.89 223.52 235.24 226.66C248.36 228.18 255.87 235.34 257.43 243.82V243.81Z" fill="white"/>
<path d="M284.499 192.11L297.399 262H288.379L276.489 197.6L259.389 210.7L253.669 203.91L275.939 192.3L284.499 192.11Z" fill="white"/>
<path d="M367.979 199.65C369.639 205.86 365.809 210.9 359.429 210.9C353.049 210.9 346.539 205.87 344.879 199.66C343.219 193.45 347.049 188.41 353.429 188.41C359.809 188.41 366.319 193.44 367.979 199.65Z" fill="#FF0077" stroke="black" stroke-width="4" stroke-miterlimit="10"/>
<path d="M351.299 196.02L358.949 203.02L374.899 180.01" stroke="black" stroke-width="4" stroke-miterlimit="10" stroke-linecap="round"/>
<path d="M374.91 238.65C376.57 244.86 372.74 249.9 366.36 249.9C359.98 249.9 353.47 244.87 351.81 238.66C350.15 232.45 353.98 227.41 360.36 227.41C366.74 227.41 373.25 232.44 374.91 238.65Z" fill="#FF0077" stroke="black" stroke-width="4" stroke-miterlimit="10"/>
<path d="M358.24 235.02L365.89 242.02L381.83 219.01" stroke="black" stroke-width="4" stroke-miterlimit="10" stroke-linecap="round"/>
<path d="M451.45 307.52H94" stroke="black" stroke-width="4" stroke-miterlimit="10" stroke-linecap="round"/>
</svg>
