<svg width="400" height="400" viewBox="0 0 400 400" fill="none" xmlns="http://www.w3.org/2000/svg">
<path fill-rule="evenodd" clip-rule="evenodd" d="M69.9502 94.6801H224.38C243.63 94.6801 259.23 110.28 259.23 129.53V353.71H107.65C93.4702 353.71 81.9802 342.22 81.9802 328.04V140.9" fill="white"/>
<path d="M69.9502 94.6801H224.38C243.63 94.6801 259.23 110.28 259.23 129.53V353.71H107.65C93.4702 353.71 81.9802 342.22 81.9802 328.04V140.9" stroke="black" stroke-width="4" stroke-linecap="round"/>
<path fill-rule="evenodd" clip-rule="evenodd" d="M81.8999 327.55C81.8999 341.81 93.4599 353.38 107.73 353.38C122 353.38 133.56 341.82 133.56 327.55H287C287 341.81 275.44 353.38 261.17 353.38H114.87" fill="white"/>
<path d="M81.8999 327.55C81.8999 341.81 93.4599 353.38 107.73 353.38C122 353.38 133.56 341.82 133.56 327.55H287C287 341.81 275.44 353.38 261.17 353.38H114.87" stroke="black" stroke-width="4" stroke-linecap="round"/>
<path fill-rule="evenodd" clip-rule="evenodd" d="M81.96 120.51C81.96 106.25 72.01 94.6801 59.73 94.6801C47.45 94.6801 37.5 106.25 37.5 120.51V140.9L81.96 140.56V120.51Z" fill="black" stroke="black" stroke-width="4" stroke-linecap="round"/>
<path d="M164.59 270.49C164.59 254.78 157.3 247.49 141.59 247.49C125.88 247.49 118.59 254.78 118.59 270.49C118.59 286.2 125.88 293.49 141.59 293.49C157.3 293.49 164.59 286.2 164.59 270.49Z" fill="#FF0077" stroke="black" stroke-width="4"/>
<path d="M84.48 94.6801H59.73" stroke="black" stroke-width="4" stroke-linecap="round"/>
<path d="M118.6 140.9H232.03" stroke="black" stroke-width="4" stroke-linecap="round"/>
<path d="M118.6 159.2H232.03" stroke="black" stroke-width="4" stroke-linecap="round"/>
<path d="M118.6 177.49H232.03" stroke="black" stroke-width="4" stroke-linecap="round"/>
<path d="M118.6 195.78H232.03" stroke="black" stroke-width="4" stroke-linecap="round"/>
<path d="M118.6 214.07H205.28" stroke="black" stroke-width="4" stroke-linecap="round"/>
<path d="M333.351 69.9186L348.323 78.4449C349.504 79.1172 351.006 78.7052 351.678 77.5245L362.664 58.2333C363.336 57.0526 362.924 55.5506 361.744 54.8782L346.771 46.3519C345.591 45.6796 344.088 46.0917 343.416 47.2723L332.43 66.5636C331.758 67.7442 332.17 69.2463 333.351 69.9186Z" stroke="black" stroke-width="4"/>
<path fill-rule="evenodd" clip-rule="evenodd" d="M226.06 253.31L328.75 73.02L347.91 83.94L245.23 264.23" fill="#FF0077"/>
<path d="M226.06 253.31L328.75 73.02L347.91 83.94L245.23 264.23" stroke="black" stroke-width="4" stroke-linejoin="round"/>
<path d="M327.022 72.077L349.659 84.9679L359.121 68.3531L336.484 55.4622L327.022 72.077Z" fill="black"/>
<path fill-rule="evenodd" clip-rule="evenodd" d="M224.13 281.93L245.27 264.05C245.27 264.05 245.15 264.09 245.11 264.06C245.11 264.06 226.32 253.65 226.31 253.7L222.58 281.08C222.47 281.94 223.47 282.49 224.13 281.93Z" fill="white" stroke="black" stroke-width="4"/>
<path d="M235.64 258.77L340.21 75.1801" stroke="black" stroke-width="4" stroke-linejoin="round"/>
<path fill-rule="evenodd" clip-rule="evenodd" d="M234.24 274.29L225.25 282.35C224.26 283.24 222.7 282.42 222.86 281.1L224.39 268.67L234.24 274.28V274.29Z" fill="black"/>
<path d="M180.73 277.97C180.56 277.69 180.08 277.96 180.09 278.28C180.1 278.6 180.39 278.84 180.66 279.01C183.33 280.69 186.92 280.39 189.71 278.91C192.51 277.44 194.64 274.96 196.46 272.38C199.5 268.08 201.88 263.33 203.61 258.36C204.21 256.63 204.74 254.81 204.47 253C204.2 251.19 202.92 249.42 201.11 249.14C199.33 248.86 197.61 250.1 196.64 251.62C194.88 254.34 194.9 257.88 195.71 261.02C196.52 264.16 198.04 267.06 199.14 270.11C200.74 274.52 201.46 279.24 201.26 283.92C201.24 284.46 201.21 285.03 201.47 285.5C201.95 286.37 203.21 286.48 204.12 286.1C205.04 285.72 205.76 284.98 206.6 284.46C211.27 281.57 218.28 285.66 222.55 282.21" stroke="black" stroke-width="4" stroke-linecap="round"/>
</svg>
