<svg width="400" height="400" viewBox="0 0 400 400" fill="none" xmlns="http://www.w3.org/2000/svg">
<path d="M317.25 144.63H83.02C79.9714 144.63 77.5 147.101 77.5 150.15V194.84C77.5 197.889 79.9714 200.36 83.02 200.36H317.25C320.299 200.36 322.77 197.889 322.77 194.84V150.15C322.77 147.101 320.299 144.63 317.25 144.63Z" fill="white" stroke="black" stroke-width="4"/>
<path d="M90.46 200.36H309.81V322.68C309.81 328.18 305.34 332.65 299.84 332.65H100.43C94.93 332.65 90.46 328.18 90.46 322.68V200.36Z" fill="white" stroke="black" stroke-width="4"/>
<path d="M221.8 144.63H183.28V332.65H221.8V144.63Z" fill="#FF0077" stroke="black" stroke-width="4"/>
<path fill-rule="evenodd" clip-rule="evenodd" d="M294.6 65.14L269.57 68.1C271.88 85.04 269.79 108.49 245.05 119.99L243.1 146.63C324.98 142.78 294.6 65.14 294.6 65.14Z" fill="black"/>
<path fill-rule="evenodd" clip-rule="evenodd" d="M202.54 144.92C202.54 144.92 202.72 91.24 232.98 71.2C236.68 68.75 241.04 67.5 245.47 67.5H286.71C286.71 67.5 242.41 99.11 241.76 144.58" fill="#FF0077"/>
<path d="M202.54 144.92C202.54 144.92 202.72 91.24 232.98 71.2C236.68 68.75 241.04 67.5 245.47 67.5H286.71C286.71 67.5 242.41 99.11 241.76 144.58" stroke="black" stroke-width="4"/>
<path fill-rule="evenodd" clip-rule="evenodd" d="M110.49 65.14L135.52 68.1C133.21 85.04 135.3 108.49 160.04 119.99L161.99 146.63C80.1099 142.78 110.49 65.14 110.49 65.14Z" fill="black"/>
<path fill-rule="evenodd" clip-rule="evenodd" d="M202.54 144.92C202.54 144.92 202.36 91.24 172.1 71.2C168.4 68.75 164.04 67.5 159.61 67.5H118.37C118.37 67.5 162.67 99.11 163.32 144.58" fill="#FF0077"/>
<path d="M202.54 144.92C202.54 144.92 202.36 91.24 172.1 71.2C168.4 68.75 164.04 67.5 159.61 67.5H118.37C118.37 67.5 162.67 99.11 163.32 144.58" stroke="black" stroke-width="4"/>
<path fill-rule="evenodd" clip-rule="evenodd" d="M202.15 142.62C202.15 142.62 202.33 196.3 232.59 216.34C236.29 218.79 240.65 220.04 245.08 220.04H286.32C286.32 220.04 242.02 188.43 241.37 142.96" fill="#FF0077"/>
<path d="M202.15 142.62C202.15 142.62 202.33 196.3 232.59 216.34C236.29 218.79 240.65 220.04 245.08 220.04H286.32C286.32 220.04 242.02 188.43 241.37 142.96" stroke="black" stroke-width="4"/>
<path fill-rule="evenodd" clip-rule="evenodd" d="M202.54 142.62C202.54 142.62 202.36 196.3 172.1 216.34C168.4 218.79 164.04 220.04 159.61 220.04H118.37C118.37 220.04 162.67 188.43 163.32 142.96" fill="#FF0077"/>
<path d="M202.54 142.62C202.54 142.62 202.36 196.3 172.1 216.34C168.4 218.79 164.04 220.04 159.61 220.04H118.37C118.37 220.04 162.67 188.43 163.32 142.96" stroke="black" stroke-width="4"/>
<path d="M160.92 144.25H244.24" stroke="black" stroke-width="4"/>
</svg>
