<svg width="411" height="438" viewBox="0 0 411 438" fill="none" xmlns="http://www.w3.org/2000/svg">
<g clip-path="url(#clip0_6341_161)">
<path d="M296.736 102.439L302.034 129.764L129.486 160.809L92.2145 155.152C90.9625 154.967 90.6495 153.309 91.7276 152.671L124.188 133.497L296.736 102.451V102.439Z" fill="white" stroke="black" stroke-width="4"/>
<path d="M124.188 133.485L132.941 139.687L129.602 146.005L135.062 150.619L129.486 160.809L300.11 130.135L295.67 102.648L124.188 133.485Z" fill="black"/>
<path d="M103.332 155.941L101.64 147.223L89.0614 154.26C88.8875 154.352 88.9454 154.619 89.1425 154.642L103.332 155.941Z" fill="black" stroke="black" stroke-width="4"/>
<path d="M337.67 264.832L316.328 264.879C314.114 264.879 312.305 263.093 312.294 260.868L311.946 107.308L341.322 122.936L341.67 260.798C341.67 263.012 339.885 264.821 337.659 264.832H337.67Z" fill="white" stroke="black" stroke-width="4"/>
<path d="M341.357 113.997L333.114 114.009" stroke="black" stroke-width="4"/>
<path d="M341.369 122.936L333.138 122.959" stroke="black" stroke-width="4"/>
<path d="M341.415 140.835L333.172 140.847" stroke="black" stroke-width="4"/>
<path d="M341.438 149.773L333.195 149.796" stroke="black" stroke-width="4"/>
<path d="M341.392 131.885L326.704 131.92" stroke="black" stroke-width="4"/>
<path d="M341.473 167.661L333.23 167.684" stroke="black" stroke-width="4"/>
<path d="M341.496 176.611L333.253 176.634" stroke="black" stroke-width="4"/>
<path d="M341.45 158.723L326.762 158.758" stroke="black" stroke-width="4"/>
<path d="M341.507 185.56L326.819 185.583" stroke="black" stroke-width="4"/>
<path d="M341.531 195.043L333.3 195.066" stroke="black" stroke-width="4"/>
<path d="M341.554 203.993L333.312 204.005" stroke="black" stroke-width="4"/>
<path d="M341.577 212.931L326.889 212.966" stroke="black" stroke-width="4"/>
<path d="M341.589 222.147L333.358 222.171" stroke="black" stroke-width="4"/>
<path d="M341.612 231.097L333.381 231.12" stroke="black" stroke-width="4"/>
<path d="M341.659 249.124L333.416 249.147" stroke="black" stroke-width="4"/>
<path d="M341.67 258.074L333.439 258.085" stroke="black" stroke-width="4"/>
<path d="M341.635 240.047L326.947 240.07" stroke="black" stroke-width="4"/>
<path d="M241.657 326.432L245.358 303.038L143.998 287.003L140.298 310.396L241.657 326.432Z" fill="black"/>
<path d="M274.095 370.988C302.49 370.988 325.509 347.969 325.509 319.574C325.509 291.179 302.49 268.16 274.095 268.16C245.7 268.16 222.681 291.179 222.681 319.574C222.681 347.969 245.7 370.988 274.095 370.988Z" fill="black"/>
<path d="M274.095 360.265C296.568 360.265 314.786 342.047 314.786 319.574C314.786 297.101 296.568 278.883 274.095 278.883C251.622 278.883 233.404 297.101 233.404 319.574C233.404 342.047 251.622 360.265 274.095 360.265Z" fill="white" stroke="black" stroke-width="4"/>
<path d="M289.235 310.891C293.973 310.891 297.814 307.05 297.814 302.312C297.814 297.574 293.973 293.733 289.235 293.733C284.498 293.733 280.657 297.574 280.657 302.312C280.657 307.05 284.498 310.891 289.235 310.891Z" fill="white" stroke="black" stroke-width="4"/>
<path d="M292.029 69.6895V97.5239H115.632L92.9219 89.5596V78.3493L115.632 69.6895H292.029Z" fill="white" stroke="black" stroke-width="4"/>
<path d="M115.632 90.0001L95.3101 84.2501C94.6493 84.0762 94.6609 83.1487 95.3101 82.9748L115.632 76.9813L128.13 83.0676L115.632 90.0001Z" fill="white" stroke="black" stroke-width="4"/>
<path d="M326.672 155.073C346.289 135.457 346.289 103.652 326.672 84.0347C307.055 64.4179 275.25 64.4179 255.634 84.0347L115.778 223.891C96.161 243.507 96.161 275.312 115.778 294.929C135.395 314.546 167.2 314.546 186.816 294.929L326.672 155.073Z" fill="#FF0077" stroke="black" stroke-width="4"/>
<path d="M304.33 132.534C312.734 124.13 312.734 116.339 304.33 107.934C295.925 99.5295 288.123 99.5295 279.729 107.934C271.336 116.339 271.325 124.13 279.729 132.534C288.134 140.939 295.936 140.939 304.33 132.534Z" fill="white" stroke="black" stroke-width="4"/>
<path d="M116.903 293.07L113.23 289.397C111.945 288.111 109.86 288.111 108.574 289.397L96.6635 301.308C95.3777 302.594 95.3777 304.678 96.6635 305.964L100.336 309.637C101.622 310.922 103.706 310.922 104.992 309.637L116.903 297.726C118.189 296.44 118.189 294.355 116.903 293.07Z" fill="black"/>
<path d="M90.9043 336.963C102.826 336.963 112.49 327.299 112.49 315.377C112.49 303.456 102.826 293.792 90.9043 293.792C78.9827 293.792 69.3184 303.456 69.3184 315.377C69.3184 327.299 78.9827 336.963 90.9043 336.963Z" stroke="black" stroke-width="4" stroke-miterlimit="10"/>
<path d="M149.959 259.233L141.786 251.06L135.723 254.028L130.726 249.031L158.885 235.56L165.516 242.192L151.987 270.293L146.991 265.296L149.959 259.233ZM152.695 253.703L155.662 247.64L158.248 242.794L153.367 245.345L147.304 248.313L152.683 253.692L152.695 253.703Z" fill="black"/>
<path d="M175.475 252.15L180.286 256.961L159.477 277.77L154.666 272.959L175.475 252.15Z" fill="black"/>
</g>
<defs>
<clipPath id="clip0_6341_161">
<rect width="277" height="304" fill="white" transform="translate(67 67)"/>
</clipPath>
</defs>
</svg>
