<svg width="407" height="440" viewBox="0 0 407 440" fill="none" xmlns="http://www.w3.org/2000/svg">
<path d="M268.76 215.576L215.61 204.981L215.66 301.101C215.66 315.781 227.57 327.671 242.24 327.671C256.92 327.671 268.81 315.761 268.81 301.091L268.76 252.171V215.576Z" fill="#FF0077" stroke="black" stroke-width="4" stroke-miterlimit="10"/>
<path d="M267.725 254.076L215.345 206.076L269.345 215.797L267.725 254.076Z" fill="black"/>
<path d="M313.73 119.491C301.29 96.9113 277.34 84.6913 253.21 86.1113H253.15C250.76 86.2513 248.37 86.5313 245.99 86.9413L142.91 98.7813L130.75 100.181L121.8 168.351L131.22 171.951L236.02 211.971V211.901C252.69 217.621 271.62 216.551 288.27 207.381C319.57 190.141 330.97 150.791 313.73 119.491Z" fill="#FF0077" stroke="black" stroke-width="4" stroke-miterlimit="10"/>
<path d="M283.76 105.101C299.15 113.841 309.13 130.611 310.46 149.961" stroke="white" stroke-width="4" stroke-miterlimit="10" stroke-linecap="round"/>
<path d="M265.83 99.3811C269.02 99.6911 272.19 100.351 275.25 101.341" stroke="white" stroke-width="4" stroke-miterlimit="10" stroke-linecap="round"/>
<path d="M258.23 179.091C273.666 179.091 286.18 166.578 286.18 151.141C286.18 135.705 273.666 123.191 258.23 123.191C242.793 123.191 230.28 135.705 230.28 151.141C230.28 166.578 242.793 179.091 258.23 179.091Z" fill="black"/>
<path d="M57.4502 110C61.8595 110.778 63.6097 112.871 65.0112 114.551C66.4667 116.292 67.487 117.38 70.1066 117.848C72.7268 118.31 74.2879 117.675 76.6257 116.605C78.8806 115.571 81.6859 114.289 86.0952 115.067C90.5045 115.845 92.2547 117.938 93.6562 119.618C95.1117 121.359 96.132 122.447 98.7516 122.915C101.372 123.377 102.942 122.749 105.281 121.673C107.536 120.639 110.351 119.351 114.75 120.135" stroke="black" stroke-width="4" stroke-miterlimit="10" stroke-linecap="round"/>
<path d="M55.8481 126.924C60.2575 127.703 62.0076 129.795 63.4092 131.476C64.8646 133.216 65.8849 134.304 68.5046 134.772C71.1248 135.234 72.6859 134.599 75.0237 133.53C77.2786 132.495 80.0838 131.213 84.4932 131.991C88.9025 132.77 90.6526 134.862 92.0542 136.543C93.5096 138.283 94.5299 139.371 97.1496 139.839C99.7698 140.301 101.34 139.673 103.679 138.598C105.933 137.563 108.749 136.276 113.148 137.059" stroke="black" stroke-width="4" stroke-miterlimit="10" stroke-linecap="round"/>
<path d="M242.38 328.011C242.38 336.521 246.72 346.011 253.99 353.391C262.1 361.621 272.68 366.151 283.78 366.151C312.4 366.151 335.69 342.861 335.69 314.241C335.69 285.621 312.4 262.331 283.78 262.331C273.14 262.331 262.17 267.241 256.57 270.171C250.29 273.451 240.73 277.821 230.15 277.821C202.92 277.821 180.78 255.671 180.78 228.451C180.78 215.931 184.93 204.671 193.27 195.621" stroke="black" stroke-width="4" stroke-miterlimit="10" stroke-linecap="round"/>
<path d="M148.84 98.1013L138.88 174.871" stroke="black" stroke-width="4" stroke-miterlimit="10"/>
<path d="M242.2 312.491C246.464 312.491 249.92 309.035 249.92 304.771C249.92 300.508 246.464 297.051 242.2 297.051C237.936 297.051 234.48 300.508 234.48 304.771C234.48 309.035 237.936 312.491 242.2 312.491Z" fill="black"/>
</svg>
