<svg width="406" height="542" viewBox="0 0 406 542" fill="none" xmlns="http://www.w3.org/2000/svg">
<path d="M371.72 248.03H29.03C21.5576 248.03 15.5 254.088 15.5 261.56V469.72C15.5 477.192 21.5576 483.25 29.03 483.25H371.72C379.192 483.25 385.25 477.192 385.25 469.72V261.56C385.25 254.088 379.192 248.03 371.72 248.03Z" fill="white" stroke="black" stroke-width="4"/>
<path d="M217.66 264.83H183.1C178.814 264.83 175.34 268.304 175.34 272.59V272.6C175.34 276.886 178.814 280.36 183.1 280.36H217.66C221.946 280.36 225.42 276.886 225.42 272.6V272.59C225.42 268.304 221.946 264.83 217.66 264.83Z" fill="white" stroke="black" stroke-width="4"/>
<path d="M137.02 344.02V393.93H125.75V373.4H104.86V393.93H93.5898V344.02H104.86V363.06H125.75V344.02H137.02Z" fill="black"/>
<path d="M159.55 354.36V363.06H179.73V373.04H159.55V383.59H181.01V393.93H148.43V344.02H181.01V354.36H159.55Z" fill="black"/>
<path d="M223.01 383.59V393.93H191V344.02H202.34V383.59H223.02H223.01Z" fill="black"/>
<path d="M261.58 383.59V393.93H229.57V344.02H240.91V383.59H261.59H261.58Z" fill="black"/>
<path d="M315.41 369.05C315.41 384.38 303.79 394.65 289.46 394.65C275.13 394.65 263.51 384.38 263.51 369.05C263.51 353.72 275.13 343.31 289.46 343.31C303.79 343.31 315.41 353.58 315.41 369.05ZM303.71 368.98C303.71 357.29 300.29 353.58 289.45 353.58C278.61 353.58 275.19 357.29 275.19 368.98C275.19 380.67 278.61 384.38 289.45 384.38C300.29 384.38 303.71 380.67 303.71 368.98Z" fill="black"/>
<path d="M200 235.35C212.343 235.35 222.35 225.344 222.35 213C222.35 200.656 212.343 190.65 200 190.65C187.656 190.65 177.65 200.656 177.65 213C177.65 225.344 187.656 235.35 200 235.35Z" fill="white" stroke="black" stroke-width="4"/>
<path d="M207 232.1C207 228.234 203.866 225.1 200 225.1C196.134 225.1 193 228.234 193 232.1V265.6C193 269.466 196.134 272.6 200 272.6C203.866 272.6 207 269.466 207 265.6V232.1Z" fill="black"/>
<path d="M219.077 43H180.923C179.309 43 178 45.6597 178 48.9407V207.059C178 210.34 179.309 213 180.923 213H219.077C220.691 213 222 210.34 222 207.059V48.9407C222 45.6597 220.691 43 219.077 43Z" fill="#FF0077" stroke="black" stroke-width="4"/>
</svg>
