<svg width="545" height="547" viewBox="0 0 545 547" fill="none" xmlns="http://www.w3.org/2000/svg">
<g clip-path="url(#clip0_6341_160)">
<path d="M53 495.62H257.95" stroke="black" stroke-width="4" stroke-miterlimit="10" stroke-linecap="round"/>
<path d="M160.14 380.9L149.56 387.44L82.4102 495.62H162.6L195.86 426.46C195.86 426.46 219.13 413.96 226.5 396.28C234.45 377.21 222.28 384.84 222.28 384.84L211.03 361.65L160.15 380.9H160.14Z" fill="white" stroke="black" stroke-width="4" stroke-miterlimit="10" stroke-linecap="round"/>
<path d="M136.62 311.15L220.45 391.51C223.93 394.54 228.79 395.44 233.12 393.84L251.45 387.07C260.43 383.76 262.6 372.04 255.41 365.73L182.21 294.33" fill="black"/>
<path d="M96.87 185.64L143.5 154.96C146.93 152.71 145.92 147.44 141.9 146.61L100.18 138.02C97.55 137.48 95.02 139.29 94.69 141.96L89.78 181.23C89.29 185.13 93.6 187.8 96.88 185.64H96.87Z" fill="#FF0077" stroke="black" stroke-width="4" stroke-miterlimit="10"/>
<path d="M347.57 342.76L313.31 315.35C310.79 313.34 307.1 315.37 307.45 318.58L311.16 351.86C311.39 353.96 313.37 355.41 315.44 355.01L345.99 349.14C349.02 348.56 349.98 344.69 347.57 342.76Z" fill="#FF0077" stroke="black" stroke-width="4" stroke-miterlimit="10"/>
<path d="M136.03 409.19L137.47 406.87C144.39 395.75 155.26 362.76 161.58 344.69C163.27 339.85 166.16 335.52 169.97 332.09L207.52 298.31C207.57 298.26 207.66 298.28 207.7 298.34L212.34 307.09C212.34 307.09 212.34 307.11 212.35 307.12C213.33 311.78 211.93 316.62 208.61 320.03L190.29 338.86C190.29 338.86 190.24 338.97 190.29 339.01C191.04 339.77 200.66 346.55 203.88 358.74C207.61 372.89 203.34 385.22 184.05 392.07" fill="white"/>
<path d="M136.03 409.19L137.47 406.87C144.39 395.75 155.26 362.76 161.58 344.69C163.27 339.85 166.16 335.52 169.97 332.09L207.52 298.31C207.57 298.26 207.66 298.28 207.7 298.34L212.34 307.09C212.34 307.09 212.34 307.11 212.35 307.12C213.33 311.78 211.93 316.62 208.61 320.03L190.29 338.86C190.29 338.86 190.24 338.97 190.29 339.01C191.04 339.77 200.66 346.55 203.88 358.74C207.61 372.89 203.34 385.22 184.05 392.07" stroke="black" stroke-width="4" stroke-miterlimit="10" stroke-linecap="round"/>
<path d="M255.39 362.3L254.48 359.18C254.09 357.85 252.6 357.1 251.31 357.45C252.05 357.01 252.84 356.54 253.64 356.06C258.57 353.12 259.43 346.4 255.39 342.37L252.19 339.18L253.96 336.97C255.72 334.76 256.09 331.77 254.89 329.22L253.33 325.89C252.45 324.01 250.82 322.58 248.83 321.94C246.49 321.19 243.93 321.61 241.97 323.07L239.9 324.61C241.25 323.61 242.28 322.24 242.86 320.67C243.92 317.79 243.44 314.58 241.58 312.14L240.86 311.2C239 308.75 236 307.41 232.9 307.62C230.57 307.78 228.39 308.82 226.8 310.52L204.5 334.41C202.18 336.9 202.27 340.75 204.7 343.12L205.25 343.66C207.51 345.86 211.06 346.07 213.57 344.15C210.29 346.58 209.27 351 211.16 354.58C212.8 357.7 216.25 359.45 219.77 358.95L221.11 358.76C217.71 360.9 216.29 365.1 217.71 368.82L217.75 368.93C219.01 372.27 222.73 373.85 225.97 372.68L224.93 373.31C222.28 374.9 221.15 378.11 222.23 380.97C223.64 384.73 228.18 386.26 231.64 384.16L251.6 372.01C254.93 369.98 256.49 366.01 255.4 362.3H255.39Z" fill="white" stroke="black" stroke-width="4" stroke-miterlimit="10" stroke-linecap="round"/>
<path d="M213.57 344.14L241.96 323.06" stroke="black" stroke-width="4" stroke-miterlimit="10" stroke-linecap="round"/>
<path d="M221.11 358.75L252.18 339.17" stroke="black" stroke-width="4" stroke-miterlimit="10" stroke-linecap="round"/>
<path d="M224.93 373.3L253.64 356.05" stroke="black" stroke-width="4" stroke-miterlimit="10" stroke-linecap="round"/>
<path d="M159.38 307.31L124.56 327.28C114.76 332.9 102.27 329.51 96.6499 319.71L80.7099 291.9C75.0899 282.1 78.4799 269.61 88.2799 263.99L123.1 244.02C142.33 232.99 158.9 217.87 171.63 199.73L210.81 141.68C212.14 139.92 214.84 140.09 215.94 142L294.93 279.75C295.98 281.59 294.82 283.9 292.72 284.14L222.14 287.79C200.05 289.62 178.63 296.28 159.4 307.3L159.38 307.31Z" fill="#FF0077" stroke="black" stroke-width="4" stroke-miterlimit="10"/>
<path d="M298.406 282.885C311.711 275.256 303.803 236.47 280.743 196.253C257.683 156.037 228.203 129.619 214.898 137.248C201.593 144.877 209.502 183.664 232.562 223.88C255.622 264.097 285.102 290.514 298.406 282.885Z" fill="white" stroke="black" stroke-width="4" stroke-miterlimit="10" stroke-linecap="round"/>
<path d="M272.784 238.2C277.925 235.252 274.87 220.267 265.961 204.729C257.051 189.192 245.662 178.986 240.521 181.933C235.38 184.881 238.435 199.867 247.344 215.404C256.253 230.942 267.643 241.148 272.784 238.2Z" fill="black"/>
<path d="M241.74 183.59L220.38 194.7" stroke="black" stroke-width="4" stroke-miterlimit="10"/>
<path d="M272.69 236L251.82 252.55" stroke="black" stroke-width="4" stroke-miterlimit="10"/>
<path d="M192.45 437.4L169.73 424.11L178.26 425.24C184.48 426.06 190.8 425.68 196.87 424.11L192.45 437.4Z" fill="black"/>
<path d="M107.32 289.28C113.335 289.28 118.21 284.404 118.21 278.39C118.21 272.376 113.335 267.5 107.32 267.5C101.306 267.5 96.4302 272.376 96.4302 278.39C96.4302 284.404 101.306 289.28 107.32 289.28Z" fill="#FF0077" stroke="black" stroke-width="4" stroke-miterlimit="10"/>
<path d="M290.18 146.85C295.145 146.85 299.17 142.825 299.17 137.86C299.17 132.895 295.145 128.87 290.18 128.87C285.215 128.87 281.19 132.895 281.19 137.86C281.19 142.825 285.215 146.85 290.18 146.85Z" fill="white" stroke="black" stroke-width="4" stroke-miterlimit="10" stroke-linecap="round"/>
<path d="M345.39 312.18C350.355 312.18 354.38 308.155 354.38 303.19C354.38 298.225 350.355 294.2 345.39 294.2C340.425 294.2 336.4 298.225 336.4 303.19C336.4 308.155 340.425 312.18 345.39 312.18Z" fill="white" stroke="black" stroke-width="4" stroke-miterlimit="10" stroke-linecap="round"/>
<path d="M417.41 146.85C420.939 146.85 423.8 143.989 423.8 140.46C423.8 136.931 420.939 134.07 417.41 134.07C413.881 134.07 411.02 136.931 411.02 140.46C411.02 143.989 413.881 146.85 417.41 146.85Z" fill="black"/>
<path d="M262.04 134.07L311.52 72" stroke="black" stroke-width="4" stroke-miterlimit="10" stroke-linecap="round"/>
<path d="M291.37 172.08L452.22 72" stroke="black" stroke-width="4" stroke-miterlimit="10" stroke-linecap="round"/>
<path d="M288.64 224.82L314.77 175.83C319.41 167.21 331.31 164.5 341.49 169.75L418.37 209.38C428.6 214.65 433.28 225.99 428.86 234.78L403.37 285.2C398.83 294.22 386.5 297.06 376.09 291.48L308.97 256L293.8 260.54C291.27 261.3 289.02 258.72 290.11 256.31L294.18 247.37C287.24 241.36 284.71 232.13 288.64 224.82Z" fill="black"/>
<path d="M405.56 256.27C428.535 256.27 447.16 237.645 447.16 214.67C447.16 191.695 428.535 173.07 405.56 173.07C382.585 173.07 363.96 191.695 363.96 214.67C363.96 237.645 382.585 256.27 405.56 256.27Z" fill="white" stroke="black" stroke-width="4" stroke-miterlimit="10"/>
<path fill-rule="evenodd" clip-rule="evenodd" d="M408.21 202.81C406.08 199.4 402.23 197.39 398.24 197.78C396.43 197.96 394.7 198.54 393.2 199.57C389.46 202.12 388.1 206.64 388.3 210.99C388.64 218.27 392.95 225.56 397.25 230.97C397.53 231.32 397.95 231.51 398.39 231.5C405.31 231.33 413.66 229.96 419.46 225.55C422.92 222.92 425.52 218.97 425.08 214.47C424.9 212.66 424.24 210.95 423.21 209.45C420.95 206.14 416.93 204.48 412.96 205.03L409.86 205.46L408.2 202.81H408.21Z" fill="#FF0077" stroke="black" stroke-width="4" stroke-miterlimit="10"/>
<path d="M425.13 265.51L491.83 259.03" stroke="black" stroke-width="4" stroke-miterlimit="10" stroke-linecap="round"/>
</g>
<defs>
<clipPath id="clip0_6341_160">
<rect width="442.83" height="427.62" fill="white" transform="translate(51 70)"/>
</clipPath>
</defs>
</svg>
