<svg width="342" height="267" viewBox="0 0 342 267" fill="none" xmlns="http://www.w3.org/2000/svg">
<path d="M195 48H138V53.136L210 81V63C210 54.7157 203.284 48 195 48Z" fill="white" stroke="black" stroke-width="4"/>
<path d="M31 131.5C31 73.1113 58.271 46 117.065 46H134V217H117.065C58.2645 217 31 189.889 31 131.5Z" fill="black"/>
<path d="M137 48C194.389 48 221 74.5281 221 131.66V215.32H136.66V215.318C79.5055 215.214 53.0001 188.679 53 131.66C53 74.5281 79.6168 48 137 48Z" fill="#FF0077"/>
<path d="M137 48V46V46V48ZM221 215.32V217.32H223V215.32H221ZM136.66 215.32H134.66V217.32H136.66V215.32ZM136.66 215.318H138.66V213.322L136.664 213.318L136.66 215.318ZM53 131.66H51V131.66H53ZM137 48V50C165.426 50 185.809 56.5728 199.11 69.8225C212.408 83.0706 219 103.367 219 131.66H221H223C223 102.822 216.286 81.2876 201.933 66.9886C187.58 52.6912 165.964 46 137 46V48ZM221 131.66H219V215.32H221H223V131.66H221ZM221 215.32V213.32H136.66V215.32V217.32H221V215.32ZM136.66 215.32H138.66V215.318H136.66H134.66V215.32H136.66ZM136.66 215.318L136.664 213.318C108.357 213.267 88.058 206.668 74.8115 193.418C61.5657 180.169 55 159.898 55 131.66H53H51C51 160.442 57.6871 181.947 71.9827 196.246C86.2777 210.545 107.809 217.266 136.656 217.318L136.66 215.318ZM53 131.66H55C55 103.367 61.5931 83.0706 74.8928 69.8225C88.194 56.5728 108.577 50 137 50V48V46C108.04 46 86.4228 52.6913 72.0698 66.9886C57.7153 81.2875 51 102.822 51 131.66H53Z" fill="black"/>
<path d="M183 131.5C183 100.428 168.428 86 137 86C105.576 86 91 100.428 91 131.5C91 162.572 105.572 177 137 177C168.424 177 183 162.572 183 131.5Z" fill="black"/>
<path d="M183 131.5C183 100.428 168.428 86 137 86C105.576 86 91 100.428 91 131.5C91 162.572 105.572 177 137 177C168.424 177 183 162.572 183 131.5Z" fill="white" stroke="black" stroke-width="4"/>
<rect x="225" y="192" width="80" height="23" fill="black" stroke="black" stroke-width="4"/>
<rect x="306" y="190" width="5" height="34" fill="black"/>
<path d="M252 190V209" stroke="white" stroke-width="4"/>
<path d="M263.5 190V201" stroke="white" stroke-width="4"/>
<path d="M274.5 190V201" stroke="white" stroke-width="4"/>
<path d="M286.5 190V209" stroke="white" stroke-width="4"/>
</svg>
