<svg width="545" height="440" viewBox="0 0 545 440" fill="none" xmlns="http://www.w3.org/2000/svg">
<g clip-path="url(#clip0_6484_510)">
<path d="M103.437 120.617H117.879V353.579L113.747 365.348H107.931L103.437 353.579V120.617Z" fill="white" stroke="black" stroke-width="4"/>
<path d="M113.973 353.579L110.992 364.109C110.904 364.447 110.421 364.447 110.324 364.109L107.215 353.579L110.372 347.104L113.973 353.579Z" fill="black"/>
<path d="M133.996 88.4802V88.3998C133.295 79.5913 123.114 72.6008 110.654 72.6008C98.1934 72.6008 88.0446 79.3258 87.3438 88.1263C87.3438 88.1263 85.7329 121.767 87.2794 135.282C90.5979 164.241 98.4189 187.151 98.4189 193.337C98.4189 197.914 95.624 201.945 92.4263 205.058C91.1456 206.305 90.4046 207.994 90.4046 209.78V219.352C90.4046 221.42 92.088 223.101 94.1581 223.101H110.646H127.134C129.204 223.101 130.887 221.42 130.887 219.352V209.78C130.887 207.994 130.146 206.305 128.865 205.058C125.668 201.945 122.816 197.914 122.873 193.337C122.953 186.693 130.718 164.241 134.012 135.282C135.559 121.695 134.085 90.7728 133.98 88.4802H133.996Z" fill="#FF0077" stroke="black" stroke-width="4"/>
<path d="M238.328 76.6712L202.621 76.5264C201.131 76.5264 199.915 77.725 199.907 79.2132V79.2453C199.891 84.0317 192.964 87.8849 184.45 87.8527C179.142 87.8286 174.471 86.3002 171.708 83.9995C169.283 81.9723 166.295 80.7416 163.13 80.7255L153.279 80.6853C153.029 80.6853 152.828 80.8864 152.828 81.1277L152.675 117.206C152.675 117.456 152.876 117.657 153.118 117.657L162.969 117.697C166.134 117.713 169.13 116.506 171.571 114.495C174.35 112.211 179.038 110.723 184.346 110.747C191.869 110.779 197.378 111.591 198.723 115.605L205.731 137.325L238.07 137.462L238.15 118.011L238.183 110.972L238.199 106.926H239.383C251.336 107.022 262.862 111.406 271.835 119.29L293.872 138.636C295.209 139.811 297.287 138.62 296.949 136.874C286.792 84.0558 238.328 76.6712 238.328 76.6712Z" fill="black"/>
<path d="M229.79 367.383L212.464 367.311C209.235 367.295 206.689 364.551 206.923 361.334L204.523 328.143C203.822 317.75 203.806 307.333 204.49 296.939L208.437 213.383C209.235 201.14 209.073 188.857 207.962 176.637L207.922 176.179C206.963 165.665 206.705 155.103 207.165 144.557L207.454 137.928L236.491 138.049L236.757 142.168C237.474 153.317 237.393 164.506 236.524 175.648L236.371 177.651C235.46 189.267 235.412 200.931 236.234 212.547L239.89 290.608C240.921 305.297 240.575 320.059 238.851 334.683L235.396 361.68C235.468 364.817 232.939 367.391 229.798 367.375L229.79 367.383Z" fill="white" stroke="black" stroke-width="4"/>
<path d="M455.682 355.116L294.396 157.951C289.918 152.481 281.042 155.642 281.042 162.705V359.87C281.042 364.021 284.408 367.383 288.565 367.383H449.85C456.197 367.383 459.693 360.023 455.682 355.116ZM388.321 327.62H316.595C314.774 327.62 313.3 326.148 313.3 324.33V239.568C313.3 236.503 317.126 235.103 319.108 237.444L390.834 322.207C392.646 324.346 391.124 327.62 388.321 327.62Z" fill="#FF0077" stroke="black" stroke-width="4" stroke-linecap="round"/>
<path d="M313.3 354.375V367.391" stroke="black" stroke-width="4" stroke-linecap="round"/>
<path d="M343.875 354.375V367.391" stroke="black" stroke-width="4" stroke-linecap="round"/>
<path d="M374.451 354.375V367.391" stroke="black" stroke-width="4" stroke-linecap="round"/>
<path d="M405.026 354.375V367.391" stroke="black" stroke-width="4" stroke-linecap="round"/>
<path d="M295.83 227.067H282.797" stroke="black" stroke-width="4" stroke-linecap="round"/>
<path d="M295.83 257.603H282.797" stroke="black" stroke-width="4" stroke-linecap="round"/>
<path d="M295.83 288.139H282.797" stroke="black" stroke-width="4" stroke-linecap="round"/>
<path d="M295.83 318.675H282.797" stroke="black" stroke-width="4" stroke-linecap="round"/>
<path d="M122.124 94.0227C122.124 87.7051 116.996 82.5837 110.67 82.5837C104.344 82.5837 99.2163 87.7051 99.2163 94.0227V150.405C99.2163 156.723 104.344 161.844 110.67 161.844C116.996 161.844 122.124 156.723 122.124 150.405V94.0227Z" fill="#FF0077" stroke="black" stroke-width="4" stroke-linecap="round"/>
</g>
<defs>
<clipPath id="clip0_6484_510">
<rect width="374" height="298" fill="white" transform="translate(85 71)"/>
</clipPath>
</defs>
</svg>
