<svg width="342" height="395" viewBox="0 0 342 395" fill="none" xmlns="http://www.w3.org/2000/svg">
<path d="M232.039 353.614H60.0202C55.5946 353.614 52 350.02 52 345.594V135.04C52 127.503 61.4696 124.121 66.2431 129.958L238.262 340.512C242.552 345.749 238.822 353.614 232.039 353.614Z" fill="#FF0077" stroke="black" stroke-width="4"/>
<path d="M173.984 319.717H86.3999V216.092L173.984 319.717Z" fill="white" stroke="black" stroke-width="4"/>
<path d="M86.3999 339.719V353.614" stroke="black" stroke-width="4"/>
<path d="M119.021 339.719V353.614" stroke="black" stroke-width="4"/>
<path d="M151.624 339.719V353.614" stroke="black" stroke-width="4"/>
<path d="M184.227 339.719V353.614" stroke="black" stroke-width="4"/>
<path d="M67.7697 203.782H53.8745" stroke="black" stroke-width="4"/>
<path d="M67.7697 236.384H53.8745" stroke="black" stroke-width="4"/>
<path d="M67.7697 268.987H53.8745" stroke="black" stroke-width="4"/>
<path d="M67.7697 301.59H53.8745" stroke="black" stroke-width="4"/>
<path d="M216.148 124.773L145.783 147.635C158.403 186.5 200.147 207.758 239.011 195.138C277.875 182.518 299.133 140.775 286.513 101.911C276.406 70.8156 248.828 50.7941 216.148 50.7941V124.773Z" fill="black" stroke="black" stroke-width="4"/>
<path d="M216.148 124.773L145.783 101.911C140.739 117.449 140.739 132.098 145.783 147.635L216.148 124.773Z" fill="white" stroke="black" stroke-width="4"/>
<path d="M216.148 124.773V50.7941C183.468 50.7941 155.891 70.8349 145.783 101.911L216.148 124.773Z" fill="#FF0077" stroke="black" stroke-width="4"/>
<path d="M216.071 155.501C233.031 155.501 246.78 141.752 246.78 124.792C246.78 107.832 233.031 94.0837 216.071 94.0837C199.111 94.0837 185.362 107.832 185.362 124.792C185.362 141.752 199.111 155.501 216.071 155.501Z" fill="white" stroke="black" stroke-width="4"/>
<path d="M216.071 34C248.731 34 277.353 51.2386 293.354 77.1157" stroke="black" stroke-width="4" stroke-linecap="round"/>
<path d="M312.75 207.492C312.75 208.597 313.645 209.492 314.75 209.492C315.854 209.492 316.75 208.597 316.75 207.492H314.75H312.75ZM212.824 198.998V200.998H306.042V198.998V196.998H212.824V198.998ZM306.042 198.998V200.998C309.788 200.998 312.75 203.958 312.75 207.492H314.75H316.75C316.75 201.656 311.903 196.998 306.042 196.998V198.998Z" fill="black"/>
</svg>
