<svg width="419" height="547" viewBox="0 0 419 547" fill="none" xmlns="http://www.w3.org/2000/svg">
<path d="M152.85 391.803C192.615 391.803 224.85 359.567 224.85 319.803C224.85 280.038 192.615 247.803 152.85 247.803C113.086 247.803 80.8501 280.038 80.8501 319.803C80.8501 359.567 113.086 391.803 152.85 391.803Z" fill="black"/>
<path d="M139.05 329.903L152.95 343.703L174.25 322.403" stroke="white" stroke-width="4" stroke-linecap="round"/>
<path d="M126.15 348.403L152.95 375.203L181.75 346.403" stroke="white" stroke-width="4" stroke-linecap="round"/>
<path d="M152.85 348.903V442.403" stroke="black" stroke-width="4" stroke-linecap="round"/>
<path d="M152.85 309.703V388.003" stroke="white" stroke-width="4" stroke-linecap="round"/>
<path d="M303.55 277.203C302.15 269.403 298.05 262.903 292.15 258.203C287.05 254.003 284.95 246.303 286.85 239.203C291.55 222.403 297.35 194.703 288.05 185.203C284.55 181.703 280.45 179.503 275.85 178.603C268.55 177.203 263.35 169.603 263.35 160.803C263.35 160.803 263.35 160.703 263.35 160.603C263.35 130.503 248.85 106.303 230.95 106.003C213.05 105.703 199.85 129.903 198.55 160.803C198.15 169.603 193.35 177.203 186.05 178.603C181.55 179.503 177.35 181.603 173.85 185.203C164.55 194.603 170.35 222.403 175.05 239.203C177.05 246.203 174.85 254.003 169.75 258.203C163.95 263.003 159.85 269.503 158.35 277.203C154.55 298.103 184.95 343.303 230.85 383.903C276.75 343.303 305.25 302.103 303.75 279.603L303.55 277.203Z" fill="#FF0077" stroke="black" stroke-width="4"/>
<path d="M231.05 203.203V440.003" stroke="black" stroke-width="4" stroke-linecap="round"/>
<path d="M213.95 237.203L231.05 254.303L249.05 236.303" stroke="black" stroke-width="4" stroke-linecap="round"/>
<path d="M199.15 259.903L231.05 291.903L265.45 257.503" stroke="black" stroke-width="4" stroke-linecap="round"/>
<path d="M199.15 297.403L231.05 329.403L265.45 295.003" stroke="black" stroke-width="4" stroke-linecap="round"/>
<path d="M126.25 442.603H277.25" stroke="black" stroke-width="4" stroke-linecap="round"/>
<path d="M195.05 151.003C192.45 151.003 189.85 151.303 187.45 151.903C180.35 137.803 165.75 128.203 148.95 128.203C125.15 128.203 105.75 147.503 105.75 171.403V178.103H223.55C223.55 162.403 210.75 151.003 195.05 151.003Z" fill="white" stroke="black" stroke-width="4" stroke-miterlimit="10"/>
<path d="M315.05 262.603C320.877 262.603 325.768 265.575 328.462 270.304C334.927 270.365 340.05 275.649 340.05 282.003V286.003H287.047L287.153 283.903L287.25 281.947C287.281 275.455 292.577 270.303 298.95 270.303H301.438C302.439 267.5 304.24 265.574 306.522 264.362C309.105 262.989 312.162 262.603 315.05 262.603Z" fill="white" stroke="black" stroke-width="4"/>
</svg>
