<svg width="360" height="369" viewBox="0 0 360 369" fill="none" xmlns="http://www.w3.org/2000/svg">
<path d="M323.783 238.965C323.783 168.835 291.209 136.268 220.959 136.268C150.709 136.268 118.135 168.835 118.135 238.965C118.135 309.094 150.709 341.662 220.959 341.662C291.209 341.662 323.783 309.094 323.783 238.965Z" fill="black" stroke="black" stroke-width="4" stroke-miterlimit="10" stroke-linecap="round"/>
<path d="M102.413 236.597C102.413 236.597 102.328 236.538 102.295 236.496L86.7331 221.089H62.4672C47.8504 221.089 36 232.925 36 247.523H111.463C107.161 245.249 103.855 241.323 102.413 236.597Z" fill="white" stroke="black" stroke-width="4" stroke-miterlimit="10" stroke-linecap="round"/>
<path d="M100.675 197.956L76.6199 173.712C66.3467 163.334 49.5875 163.241 39.1963 173.501L44.5859 178.943L71.8122 206.406C71.8122 206.406 71.8375 206.422 71.8544 206.439L98.4397 232.756" fill="white"/>
<path d="M100.675 197.956L76.6199 173.712C66.3467 163.334 49.5875 163.241 39.1963 173.501L44.5859 178.943L71.8122 206.406C71.8122 206.406 71.8375 206.422 71.8544 206.439L98.4397 232.756" stroke="black" stroke-width="4" stroke-miterlimit="10" stroke-linecap="round"/>
<path d="M192.661 339.412L195.318 247.523H115.815C107.363 246.9 100.675 239.841 100.675 231.248V197.956V151.414C100.675 151.414 128.567 148.423 128.567 179.272V221.097H145.58C186.014 171.572 265.99 189.507 281.121 251.87L297.189 318.1C297.189 318.1 270.443 350.717 192.652 339.421L192.661 339.412Z" fill="white" stroke="black" stroke-width="4" stroke-miterlimit="10" stroke-linecap="round"/>
<path d="M102.033 163.839C109.658 163.839 115.832 170.014 115.832 177.621C115.832 185.227 109.649 191.402 102.033 191.402" fill="white"/>
<path d="M102.033 163.839C109.658 163.839 115.832 170.014 115.832 177.621C115.832 185.227 109.649 191.402 102.033 191.402" stroke="black" stroke-width="4" stroke-miterlimit="10"/>
<path d="M46.6357 178.632C52.0422 173.265 60.7803 173.299 66.153 178.699C71.5257 184.099 71.492 192.826 66.0855 198.192" fill="white"/>
<path d="M46.6357 178.632C52.0422 173.265 60.7803 173.299 66.153 178.699C71.5257 184.099 71.492 192.826 66.0855 198.192" stroke="black" stroke-width="4" stroke-miterlimit="10"/>
<path d="M47.792 246.108C47.8173 238.493 54.025 232.343 61.6413 232.377C69.2661 232.402 75.4232 238.602 75.3895 246.209" fill="white"/>
<path d="M47.792 246.108C47.8173 238.493 54.025 232.343 61.6413 232.377C69.2661 232.402 75.4232 238.602 75.3895 246.209" stroke="black" stroke-width="4" stroke-miterlimit="10"/>
<path d="M195.318 247.523H234.716L195.318 275.887V247.523Z" fill="black" stroke="black" stroke-width="4" stroke-miterlimit="10" stroke-linecap="round"/>
<path d="M131.771 75.188L172.051 66.6515C206.712 59.3057 240.827 81.4498 248.182 116.068L256.729 156.298L216.449 164.835C181.787 172.181 147.672 150.037 140.318 115.418L131.771 75.188Z" fill="#FF0077" stroke="black" stroke-width="4" stroke-miterlimit="10" stroke-linecap="round"/>
<path d="M254.157 153.849L138.158 80.4082C130.196 75.2948 113.841 63.5265 108.747 27" stroke="black" stroke-width="4" stroke-miterlimit="10" stroke-linecap="round"/>
<path d="M212.077 129.781C212.077 129.781 201.399 149.359 215.603 163.663L212.077 129.781Z" fill="#FF0077"/>
<path d="M212.077 129.781C212.077 129.781 201.399 149.359 215.603 163.663" stroke="black" stroke-width="4" stroke-miterlimit="10" stroke-linecap="round"/>
<path d="M167.611 101.906C167.611 101.906 144.838 135.619 173.768 159.13L167.611 101.906Z" fill="#FF0077"/>
<path d="M167.611 101.906C167.611 101.906 144.838 135.619 173.768 159.13" stroke="black" stroke-width="4" stroke-miterlimit="10" stroke-linecap="round"/>
<path d="M189.878 111.568C189.583 110.591 202.842 79.9701 231.443 84.6875L189.878 111.568Z" fill="#FF0077"/>
<path d="M189.878 111.568C189.583 110.591 202.842 79.9701 231.443 84.6875" stroke="black" stroke-width="4" stroke-miterlimit="10" stroke-linecap="round"/>
</svg>
