<svg width="360" height="369" viewBox="0 0 360 369" fill="none" xmlns="http://www.w3.org/2000/svg">
<path d="M37.0156 126.726L36.1303 139.916L25.5441 139.205C24.1073 139.109 23.0283 137.864 23.124 136.437L23.6605 128.445C23.7569 127.008 25.002 125.929 26.4288 126.025L37.015 126.736L37.0156 126.726Z" fill="black"/>
<path d="M270.88 239.84C270.88 164.87 236.1 130.06 161.1 130.06C86.1003 130.06 51.3203 164.87 51.3203 239.84C51.3203 314.81 86.1003 349.62 161.1 349.62C236.1 349.62 270.88 314.81 270.88 239.84Z" fill="#FF0077" stroke="black" stroke-width="4"/>
<path d="M102.87 104.98C102.78 105.47 102.69 105.96 102.6 106.44C88.9005 181.27 89.6605 267.01 106.79 341.07C106.79 341.07 127.8 350.84 170.46 349.52C203.43 348.5 222.48 338.01 222.48 338.01C217.52 326.41 213.45 272.02 213.66 257.3C214.13 223.02 226.3 189.78 249.11 164.19C254.47 158.18 259.29 153.78 263.18 151.43C266.96 149.15 269.24 145.05 268.96 140.65V140.44C268.47 133 261.38 127.86 254.13 129.62C241.56 132.67 225.58 149.32 220.26 155.19C219.17 156.39 217.46 156.81 215.95 156.22C168.43 137.7 152.49 183.14 152.49 183.14" fill="white"/>
<path d="M102.87 104.98C102.78 105.47 102.69 105.96 102.6 106.44C88.9005 181.27 89.6605 267.01 106.79 341.07C106.79 341.07 127.8 350.84 170.46 349.52C203.43 348.5 222.48 338.01 222.48 338.01C217.52 326.41 213.45 272.02 213.66 257.3C214.13 223.02 226.3 189.78 249.11 164.19C254.47 158.18 259.29 153.78 263.18 151.43C266.96 149.15 269.24 145.05 268.96 140.65V140.44C268.47 133 261.38 127.86 254.13 129.62C241.56 132.67 225.58 149.32 220.26 155.19C219.17 156.39 217.46 156.81 215.95 156.22C168.43 137.7 152.49 183.14 152.49 183.14" stroke="black" stroke-width="4" stroke-linecap="round"/>
<path d="M156.1 200.77C171.779 200.77 184.49 188.06 184.49 172.38C184.49 156.701 171.779 143.99 156.1 143.99C140.421 143.99 127.71 156.701 127.71 172.38C127.71 188.06 140.421 200.77 156.1 200.77Z" fill="white"/>
<path d="M250.8 186.2L251.87 172.9L252.52 164.88L254.75 137.14L255.4 129.12L256.51 115.37L186.59 121.36C176.19 122 165.75 121.9 155.37 121.06L41.9399 111.93C36.7399 111.51 32.1799 115.39 31.7599 120.59L29.7499 145.52C29.3299 150.72 33.2099 155.28 38.4099 155.7L151.84 164.83C162.23 165.67 172.54 167.24 182.71 169.53L250.81 186.19L250.8 186.2Z" fill="black"/>
<path d="M307.26 195.41C337.21 194.87 339.09 191.08 343.36 185.26C346.87 180.47 348.06 176.39 349.44 160.52H349.45C349.51 159.83 349.56 159.16 349.61 158.51C349.66 157.86 349.72 157.19 349.78 156.5H349.77C350.94 140.61 350.42 136.39 347.72 131.11C344.44 124.68 343.19 120.64 313.71 115.31C284.23 109.99 256.5 115.38 256.5 115.38L253.81 148.78L253.49 152.8L250.8 186.2C250.8 186.2 277.31 195.95 307.26 195.42V195.41Z" fill="black"/>
<path d="M276.9 190.74L282.97 115.26C283.06 114.14 283.98 113.28 285.1 113.26L292.86 113.1C294.15 113.07 295.18 114.17 295.08 115.45L288.86 192.78C288.75 194.1 287.51 195.02 286.22 194.73L278.61 193.04C277.55 192.8 276.82 191.82 276.91 190.74H276.9Z" fill="white" stroke="black" stroke-width="4" stroke-linecap="round"/>
<path d="M60.68 135.03L10 131.34" stroke="black" stroke-width="4" stroke-linecap="round"/>
<path d="M110.68 103.28C120.18 103.26 127.67 111.39 126.87 120.86L124.56 148.37C123.51 157.15 115.44 163.41 106.54 162.34C97.6402 161.27 91.2802 153.29 92.3302 144.5L94.1402 118.37C94.7302 109.88 101.78 103.28 110.3 103.27H110.68V103.28Z" fill="white" stroke="black" stroke-width="4" stroke-linecap="round"/>
<path d="M145.29 83.3701C154.1 84.0301 160.8 91.1301 160.36 99.3201L157.07 160.01C156.45 168.21 148.71 174.31 139.77 173.64C130.83 172.97 124.09 165.78 124.7 157.58L127.96 97.4801C128.42 89.0501 136.23 82.6901 145.28 83.3701H145.29Z" fill="white" stroke="black" stroke-width="4" stroke-linecap="round"/>
<path d="M178.08 74.3902C186.82 75.0502 193.38 83.6302 192.88 93.7802L190.41 144.04C189.64 154.26 181.77 162 172.84 161.32C163.9 160.65 157.28 151.82 158.05 141.6L160.46 92.4702C160.98 81.8902 168.95 73.7002 178.08 74.3902Z" fill="white" stroke="black" stroke-width="4" stroke-linecap="round"/>
<path d="M209.61 80.2601C218.35 80.9201 224.98 88.3901 224.59 97.1601L222.64 140.57C221.98 149.39 214.19 156 205.26 155.33C196.32 154.66 189.61 146.96 190.28 138.14L192.19 95.7101C192.6 86.5701 200.49 79.5801 209.61 80.2601Z" fill="white" stroke="black" stroke-width="4" stroke-linecap="round"/>
<path d="M155.17 211.01C155.17 211.01 165.82 167.77 204.81 171.27C204.81 171.27 196.17 161.72 181.33 141.33C181.33 141.33 165.01 116.42 187.68 105.19C187.68 105.19 227.36 147.19 237.64 160.02C242.08 165.56 242.82 173.18 239.54 179.48L227.02 203.5C222.1 212.94 218.77 218.86 216.05 233.32C216.05 233.32 214.67 243.61 213.92 250.41" fill="white"/>
<path d="M155.17 211.01C155.17 211.01 165.82 167.77 204.81 171.27C204.81 171.27 196.17 161.72 181.33 141.33C181.33 141.33 165.01 116.42 187.68 105.19C187.68 105.19 227.36 147.19 237.64 160.02C242.08 165.56 242.82 173.18 239.54 179.48L227.02 203.5C222.1 212.94 218.77 218.86 216.05 233.32C216.05 233.32 214.67 243.61 213.92 250.41" stroke="black" stroke-width="4" stroke-linecap="round"/>
<path fill-rule="evenodd" clip-rule="evenodd" d="M266.55 56.37C263.26 51.32 257.43 48.4 251.44 49.1C248.73 49.42 246.15 50.34 243.92 51.93C238.39 55.86 236.47 62.69 236.9 69.21C237.61 80.12 244.29 90.94 250.91 98.94C251.33 99.45 251.97 99.74 252.64 99.71C263.02 99.26 275.52 96.96 284.09 90.18C289.21 86.13 293 80.13 292.21 73.39C291.89 70.67 290.85 68.13 289.26 65.91C285.77 61.01 279.7 58.63 273.75 59.58L269.11 60.32L266.55 56.39V56.37Z" fill="#FF0077" stroke="black" stroke-width="4" stroke-miterlimit="10"/>
</svg>
