<svg width="360" height="369" viewBox="0 0 360 369" fill="none" xmlns="http://www.w3.org/2000/svg">
<g clip-path="url(#clip0_6795_73)">
<path d="M165.38 116.34L212.68 51.5601C248.46 77.6801 256.29 127.86 230.16 163.64C204.04 199.42 153.86 207.25 118.08 181.12C89.4697 160.22 78.1297 125.05 89.1597 91.3801L165.39 116.34H165.38Z" fill="black" stroke="black" stroke-width="4"/>
<path d="M165.43 116.27L206.64 185.2C223.25 175.27 235.73 159.66 241.75 141.26C255.46 99.3899 232.29 53.6599 190.42 39.9399C148.56 26.2399 102.82 49.4099 89.1099 91.2799C89.0499 91.4799 88.9799 91.6699 88.9199 91.8699L165.43 116.27Z" fill="white" stroke="black" stroke-width="4"/>
<path d="M165.38 116.34L89.1602 91.3801C100.19 57.7001 130.13 36.0501 165.57 36.1301L165.38 116.34Z" fill="#FF0077" stroke="black" stroke-width="4"/>
<path d="M165.43 149.56C183.815 149.56 198.72 134.656 198.72 116.27C198.72 97.8844 183.815 82.98 165.43 82.98C147.044 82.98 132.14 97.8844 132.14 116.27C132.14 134.656 147.044 149.56 165.43 149.56Z" fill="white" stroke="black" stroke-width="4"/>
<path fill-rule="evenodd" clip-rule="evenodd" d="M246.6 67.2501C253.3 67.5801 259.39 71.5501 262.07 77.7001C263.28 80.4801 263.84 83.4801 263.57 86.5201C262.9 94.0501 257.4 99.7201 250.89 102.98C239.99 108.42 225.84 108.08 214.42 106.21C213.69 106.09 213.06 105.64 212.71 104.98C207.31 94.7501 202.5 81.4301 204.21 69.3701C205.23 62.1701 208.87 55.1501 215.8 52.1301C218.59 50.9101 221.63 50.4901 224.65 50.7601C231.33 51.3601 237.02 55.8701 239.45 62.1201L241.35 67.0001L246.58 67.2501H246.6Z" fill="#FF0077" stroke="black" stroke-width="4" stroke-miterlimit="10"/>
<path fill-rule="evenodd" clip-rule="evenodd" d="M168.83 105.11C172.03 103.11 176.12 102.98 179.34 104.96C180.79 105.85 182.02 107.06 182.87 108.55C184.98 112.24 184.27 116.63 182.31 120.23C179.03 126.25 172.39 130.64 166.51 133.45C166.13 133.63 165.7 133.62 165.33 133.43C159.55 130.44 153.04 125.84 149.95 119.72C148.1 116.06 147.53 111.66 149.76 108.03C150.66 106.57 151.92 105.4 153.4 104.55C156.68 102.68 160.76 102.93 163.89 105.03L166.34 106.67L168.84 105.11H168.83Z" fill="#FF0077" stroke="black" stroke-width="4" stroke-miterlimit="10"/>
</g>
<path d="M104.74 253.12C104.74 253.12 104.64 253.05 104.6 253L86.15 234.71H57.38C40.05 234.71 26 248.76 26 266.09H115.47C110.37 263.39 106.45 258.73 104.74 253.12Z" fill="white" stroke="black" stroke-width="4" stroke-miterlimit="10" stroke-linecap="round"/>
<path d="M102.68 207.24L74.16 178.46C61.98 166.14 42.11 166.03 29.79 178.21L36.18 184.67L68.46 217.27C68.46 217.27 68.49 217.29 68.51 217.31L100.03 248.55" fill="white"/>
<path d="M102.68 207.24L74.16 178.46C61.98 166.14 42.11 166.03 29.79 178.21L36.18 184.67L68.46 217.27C68.46 217.27 68.49 217.29 68.51 217.31L100.03 248.55" stroke="black" stroke-width="4" stroke-miterlimit="10" stroke-linecap="round"/>
<path d="M316.62 271.23L333.42 345H211.74L214.89 266.06H120.63C110.61 265.33 102.68 256.95 102.68 246.74V207.23V151.98C102.68 151.98 135.75 148.43 135.75 185.05V234.7H155.92C203.85 175.91 298.68 197.21 316.62 271.23Z" fill="white" stroke="black" stroke-width="4" stroke-miterlimit="10" stroke-linecap="round"/>
<path d="M104.29 166.74C113.33 166.74 120.65 174.07 120.65 183.1C120.65 192.13 113.32 199.46 104.29 199.46" fill="white"/>
<path d="M104.29 166.74C113.33 166.74 120.65 174.07 120.65 183.1C120.65 192.13 113.32 199.46 104.29 199.46" stroke="black" stroke-width="4" stroke-miterlimit="10"/>
<path d="M38.6094 184.3C45.0194 177.93 55.3794 177.97 61.7494 184.38C68.1194 190.79 68.0794 201.15 61.6694 207.52" fill="white"/>
<path d="M38.6094 184.3C45.0194 177.93 55.3794 177.97 61.7494 184.38C68.1194 190.79 68.0794 201.15 61.6694 207.52" stroke="black" stroke-width="4" stroke-miterlimit="10"/>
<path d="M39.9805 264.4C40.0105 255.36 47.3705 248.06 56.4005 248.1C65.4405 248.13 72.7405 255.49 72.7005 264.52" fill="white"/>
<path d="M39.9805 264.4C40.0105 255.36 47.3705 248.06 56.4005 248.1C65.4405 248.13 72.7405 255.49 72.7005 264.52" stroke="black" stroke-width="4" stroke-miterlimit="10"/>
<path d="M214.891 266.08H252.308C255.22 266.08 256.425 269.811 254.063 271.514L214.891 299.75V266.08Z" fill="black" stroke="black" stroke-width="4" stroke-miterlimit="10" stroke-linecap="round"/>
<path d="M348 345H145" stroke="black" stroke-width="4" stroke-linecap="round"/>
<defs>
<clipPath id="clip0_6795_73">
<rect width="182.64" height="164.55" fill="white" transform="translate(83 34)"/>
</clipPath>
</defs>
</svg>
