<svg width="360" height="369" viewBox="0 0 360 369" fill="none" xmlns="http://www.w3.org/2000/svg">
<path d="M281.483 234.48C281.483 166.56 249.974 135.024 182.027 135.024C114.08 135.024 82.5713 166.56 82.5713 234.48C82.5713 302.399 114.08 333.936 182.027 333.936C249.974 333.936 281.483 302.399 281.483 234.48Z" fill="#FF0077" stroke="black" stroke-width="4"/>
<path d="M182.02 333.927C249.595 334.706 280.714 303.976 281.475 234.471" stroke="black" stroke-width="4"/>
<path d="M160.756 215.02C174.961 215.02 186.476 203.504 186.476 189.3C186.476 175.095 174.961 163.58 160.756 163.58C146.551 163.58 135.036 175.095 135.036 189.3C135.036 203.504 146.551 215.02 160.756 215.02Z" fill="white"/>
<path d="M236.884 127.169L37.4289 241.003C34.7292 242.543 31.051 241.293 29.1394 238.185C27.2369 235.096 27.7714 231.273 30.3353 229.542L221.012 101.087L236.893 127.16L236.884 127.169Z" fill="black" stroke="black" stroke-width="4"/>
<path d="M248.535 82.7952L221.012 101.096L236.893 127.169L266.907 109.684C269.109 108.407 269.734 105.517 268.266 103.433L254.478 83.9005C253.128 81.9799 250.492 81.4906 248.535 82.7862V82.7952Z" fill="white" stroke="black" stroke-width="4"/>
<path d="M264.905 91.6649C268.909 97.6351 273.783 102.69 281.483 102.962C288.188 103.207 294.538 99.6554 299.385 95.0169C307.774 86.9992 313.346 74.8956 311.915 63.1725C310.918 54.9555 305.836 46.4939 299.476 41.3118C296.396 38.8023 292.853 36.5284 288.994 35.4593C288.423 35.2963 286.693 34.6168 286.267 35.2963C285.841 35.9757 287.544 38.6483 287.789 39.3821C288.323 40.9404 288.704 42.562 288.867 44.2018C289.637 51.7575 275.305 59.9383 269.534 62.3934C249.349 70.9909 264.905 91.6649 264.905 91.6649Z" fill="white" stroke="black" stroke-width="4"/>
<path d="M286.476 57.8724C286.549 60.6718 286.703 63.444 285.416 66.026C283.622 69.6407 279.854 72.268 276.964 74.9768C276.311 75.5929 275.65 76.218 275.206 76.988C274.762 77.7581 274.563 78.7275 274.889 79.561C275.26 80.5031 276.221 81.092 277.199 81.3638C279.02 81.8711 280.995 81.5178 282.707 80.7025C285.244 79.4975 291.586 71.507 294.666 75.0583C295.101 75.5566 295.327 76.2089 295.518 76.8521C296.233 79.2529 296.641 81.7534 296.732 84.2629C296.759 85.0782 296.759 85.9117 296.985 86.6999C298.263 91.0847 303.463 88.0407 305.347 85.9751C311.037 79.724 312.486 71.2624 311.861 62.8279C311.299 55.2994 305.755 46.9556 299.459 41.3115C296.723 38.8473 291.704 35.2506 286.458 35.1147C286.286 35.1147 287.418 39.0828 287.527 39.3818C288.261 41.3749 288.931 43.1325 288.732 45.3158C288.524 47.6441 287.527 49.8184 286.92 52.0833C286.404 53.9949 286.422 55.9427 286.467 57.8814L286.476 57.8724Z" fill="#FF0077" stroke="black" stroke-width="4"/>
<path d="M225.414 94.3647L247.429 125.077" stroke="black" stroke-width="4" stroke-linecap="round"/>
<path d="M229.781 91.4565L251.805 122.168" stroke="black" stroke-width="4" stroke-linecap="round"/>
<path d="M104.923 149.247C104.832 148.803 105.004 149.691 104.923 149.247C118.141 216.886 141.605 277.159 180.57 333.945C180.57 333.945 218.847 335.63 244.177 320.419C262.804 309.23 272.987 285.376 272.987 285.376C264.96 277.241 246.85 236.763 242.039 215.926" fill="white"/>
<path d="M104.923 149.247C104.832 148.803 105.004 149.691 104.923 149.247ZM104.923 149.247C118.141 216.886 141.605 277.159 180.57 333.945C180.57 333.945 218.847 335.63 244.177 320.419C262.804 309.23 272.987 285.376 272.987 285.376C264.96 277.241 246.85 236.763 242.039 215.926" stroke="black" stroke-width="4" stroke-linecap="round"/>
<path d="M110.132 144.989C118.141 141.828 127.137 146.203 129.61 154.457L136.767 178.419C138.787 186.174 134.058 194.119 126.195 196.167C118.34 198.214 110.331 193.585 108.311 185.83L101.19 163.199C98.871 155.843 102.64 147.943 109.815 145.116L110.132 144.989Z" fill="white" stroke="black" stroke-width="4" stroke-linecap="round"/>
<path d="M183.559 210.69C202.617 210.69 218.067 195.24 218.067 176.182C218.067 157.124 202.617 141.674 183.559 141.674C164.5 141.674 149.051 157.124 149.051 176.182C149.051 195.24 164.5 210.69 183.559 210.69Z" fill="white"/>
<path d="M132.726 116.742C140.372 114.386 148.372 118.146 150.709 125.212L168.022 177.477C170.215 184.598 165.703 192.298 157.939 194.69C150.175 197.082 142.112 193.25 139.919 186.138L122.77 134.371C120.369 127.115 124.844 119.17 132.708 116.742H132.726Z" fill="white" stroke="black" stroke-width="4" stroke-linecap="round"/>
<path d="M157.405 98.3149C164.997 95.9775 173.368 101.042 176.303 109.766L190.853 152.962C193.589 161.831 189.512 170.964 181.757 173.355C173.993 175.747 165.486 170.492 162.759 161.623L148.535 119.396C145.473 110.301 149.487 100.761 157.405 98.3149Z" fill="white" stroke="black" stroke-width="4" stroke-linecap="round"/>
<path d="M185.924 92.8245C193.516 90.4872 201.597 94.6002 204.161 102.12L216.88 139.373C219.245 147.028 214.869 155.181 207.105 157.573C199.341 159.965 191.142 155.698 188.778 148.033L176.339 111.614C173.657 103.768 177.997 95.2615 185.915 92.8245H185.924Z" fill="white" stroke="black" stroke-width="4" stroke-linecap="round"/>
<path d="M242.038 215.926C239.547 202.835 240.39 196.738 241.413 187.144L244.022 162.737C244.702 156.35 240.661 147.563 235.081 144.365C222.162 136.945 175.695 117.258 175.695 117.258C160.303 134.236 182.309 149.836 182.309 149.836C201.578 162.121 212.024 167.312 212.024 167.312C177.987 177.269 183.314 217.258 183.314 217.258" fill="white"/>
<path d="M242.038 215.926C239.547 202.835 240.39 196.738 241.413 187.144L244.022 162.737C244.702 156.35 240.661 147.563 235.081 144.365C222.162 136.945 175.695 117.258 175.695 117.258C160.303 134.236 182.309 149.836 182.309 149.836C201.578 162.121 212.024 167.312 212.024 167.312C177.987 177.269 183.314 217.258 183.314 217.258" stroke="black" stroke-width="4" stroke-linecap="round"/>
</svg>
