<svg width="360" height="369" viewBox="0 0 360 369" fill="none" xmlns="http://www.w3.org/2000/svg">
<path d="M290 234.543C290 175.322 262.523 147.831 203.287 147.831C144.052 147.831 116.575 175.322 116.575 234.543C116.575 293.764 144.052 321.255 203.287 321.255C262.523 321.255 290 293.764 290 234.543Z" fill="#FF0077" stroke="black" stroke-width="4"/>
<path d="M210.225 171.669C212.402 151.404 197.391 133.174 176.698 130.951C156.005 128.729 137.466 143.356 135.29 163.621C133.113 183.887 148.124 202.117 168.817 204.339C189.51 206.561 208.049 191.935 210.225 171.669Z" fill="white"/>
<path d="M151.591 156.726L117.108 100.417C113.403 94.3766 115.306 86.491 121.347 82.7861C127.387 79.0812 135.273 80.9841 138.977 87.0244L173.46 143.333" fill="white"/>
<path d="M151.591 156.726L117.108 100.417C113.403 94.3766 115.306 86.491 121.347 82.7861C127.387 79.0812 135.273 80.9841 138.977 87.0244L173.46 143.333" stroke="black" stroke-width="4" stroke-linecap="round"/>
<path d="M176.214 147.975L145.768 98.2684C142.063 92.2281 143.966 84.3426 150.006 80.6377C156.046 76.9328 163.932 78.8357 167.637 84.876L210.337 153.309" fill="white"/>
<path d="M176.214 147.975L145.768 98.2684C142.063 92.2281 143.966 84.3426 150.006 80.6377C156.046 76.9328 163.932 78.8357 167.637 84.876L210.337 153.309" stroke="black" stroke-width="4" stroke-linecap="round"/>
<path d="M114.803 145.827C110.795 138.432 100.459 137.927 96.2207 145.193C93.4672 149.921 94.9088 154.75 96.9559 158.124C100.185 163.429 107.552 174.63 116.172 187.504C116.389 187.835 116.605 188.152 116.821 188.484C150.353 238.349 195.215 282.678 245.743 315.1C245.743 315.1 264.96 312.043 280.731 283.226C289.813 266.604 290 234.543 290 234.543C280.803 230.723 270.827 220.978 262.826 212.544C244.186 192.895 232.74 167.393 231.515 140.349C231.226 133.991 231.529 128.845 232.437 125.371C233.317 121.997 232.351 118.422 229.756 116.087L229.626 115.971C225.258 112.021 218.411 113.031 215.282 118.019C209.862 126.683 210.006 144.904 210.237 151.161C210.28 152.444 209.545 153.626 208.377 154.116C171.285 169.844 187.344 204.341 187.344 204.341" fill="white"/>
<path d="M114.803 145.827C110.795 138.432 100.459 137.927 96.2207 145.193C93.4672 149.921 94.9088 154.75 96.9559 158.124C100.185 163.429 107.552 174.63 116.172 187.504C116.389 187.835 116.605 188.152 116.821 188.484C150.353 238.349 195.215 282.678 245.743 315.1C245.743 315.1 264.96 312.043 280.731 283.226C289.813 266.604 290 234.543 290 234.543C280.803 230.723 270.827 220.978 262.826 212.544C244.186 192.895 232.74 167.393 231.515 140.349C231.226 133.991 231.529 128.845 232.437 125.371C233.317 121.997 232.351 118.422 229.756 116.087L229.626 115.971C225.258 112.021 218.411 113.031 215.282 118.019C209.862 126.683 210.006 144.904 210.237 151.161C210.28 152.444 209.545 153.626 208.377 154.116C171.285 169.844 187.344 204.341 187.344 204.341" stroke="black" stroke-width="4" stroke-linecap="round"/>
<path d="M132.389 174.558L97.9062 118.249C94.2013 112.209 96.1042 104.323 102.145 100.618C108.185 96.9132 116.07 98.8162 119.775 104.856L154.258 161.165" fill="white"/>
<path d="M132.389 174.558L97.9062 118.249C94.2013 112.209 96.1042 104.323 102.145 100.618C108.185 96.9132 116.07 98.8162 119.775 104.856L154.258 161.165" stroke="black" stroke-width="4" stroke-linecap="round"/>
<path d="M203.287 321.255C262.205 321.932 289.336 295.147 289.999 234.542" stroke="black" stroke-width="4"/>
<path d="M222.908 104.006C237.944 104.006 250.14 116.202 250.14 131.238" stroke="black" stroke-width="4" stroke-linecap="round"/>
<path d="M234.614 95.1689C242.111 97.9368 248.511 102.925 253.067 109.325C254.552 111.43 255.835 113.679 256.901 116.043" stroke="black" stroke-width="4" stroke-linecap="round"/>
<path d="M140.159 259.914C142.033 263.518 148.189 271.764 155.642 276.363" stroke="black" stroke-width="4" stroke-linecap="round"/>
<path d="M141.528 242.788C145.68 254.033 153.176 263.662 162.792 270.481C165.935 272.716 169.322 274.647 172.883 276.233" stroke="black" stroke-width="4" stroke-linecap="round"/>
</svg>
