<svg width="360" height="369" viewBox="0 0 360 369" fill="none" xmlns="http://www.w3.org/2000/svg">
<path d="M297.672 216.092C297.672 141.122 262.892 106.312 187.892 106.312C112.892 106.312 78.1123 141.122 78.1123 216.092C78.1123 291.062 112.892 325.872 187.892 325.872C262.892 325.872 297.672 291.062 297.672 216.092Z" fill="#FF0077" stroke="black" stroke-width="4"/>
<path d="M187.893 325.853C262.483 326.713 296.833 292.793 297.673 216.073" stroke="black" stroke-width="4"/>
<path d="M164.412 194.603C180.092 194.603 192.802 181.892 192.802 166.213C192.802 150.533 180.092 137.823 164.412 137.823C148.733 137.823 136.022 150.533 136.022 166.213C136.022 181.892 148.733 194.603 164.412 194.603Z" fill="white"/>
<path d="M102.793 122.003C102.693 121.513 102.883 122.493 102.793 122.003C117.383 196.663 143.283 263.193 186.293 325.873C186.293 325.873 228.543 327.733 256.503 310.943C277.063 298.593 288.303 272.263 288.303 272.263C279.443 263.283 259.453 218.603 254.143 195.603" fill="white"/>
<path d="M102.793 122.003C102.693 121.513 102.883 122.493 102.793 122.003ZM102.793 122.003C117.383 196.663 143.283 263.193 186.293 325.873C186.293 325.873 228.543 327.733 256.503 310.943C277.063 298.593 288.303 272.263 288.303 272.263C279.443 263.283 259.453 218.603 254.143 195.603" stroke="black" stroke-width="4" stroke-linecap="round"/>
<path d="M67.0324 204.669L57.0456 183.806C56.4589 182.581 54.99 182.063 53.7645 182.65L27.2192 195.357C25.9937 195.943 25.4758 197.412 26.0624 198.638L36.0493 219.5C36.6359 220.726 38.1049 221.244 39.3303 220.657L65.8757 207.95C67.1011 207.364 67.619 205.895 67.0324 204.669Z" stroke="black" stroke-width="4"/>
<path fill-rule="evenodd" clip-rule="evenodd" d="M310.823 90.6924L73.8129 204.152L61.7529 178.962L298.763 65.5024" fill="#FF0077"/>
<path d="M310.823 90.6924L73.8129 204.152L61.7529 178.962L298.763 65.5024" stroke="black" stroke-width="4" stroke-linejoin="round"/>
<path d="M74.8935 206.396L60.6494 176.639L38.8124 187.092L53.0565 216.849L74.8935 206.396Z" fill="black"/>
<path fill-rule="evenodd" clip-rule="evenodd" d="M333.503 62.3121L298.593 65.6521C298.533 65.6521 298.743 65.7021 298.773 65.7521C298.773 65.7521 310.813 90.1521 310.853 90.1021L334.503 64.3121C335.243 63.5021 334.593 62.2121 333.503 62.3121Z" fill="white" stroke="black" stroke-width="4"/>
<path d="M304.792 78.0923L63.4424 193.632" stroke="black" stroke-width="4" stroke-linejoin="round"/>
<path fill-rule="evenodd" clip-rule="evenodd" d="M317.463 62.9623L332.643 61.0623C334.313 60.8523 335.353 62.8323 334.223 64.0823L323.663 75.9123L317.463 62.9523V62.9623Z" fill="black"/>
<path d="M108.542 117.302C117.382 113.812 127.312 118.642 130.042 127.752L137.942 154.202C140.172 162.762 134.952 171.532 126.272 173.792C117.602 176.052 108.762 170.942 106.532 162.382L98.6722 137.402C96.1122 129.282 100.272 120.562 108.192 117.442L108.542 117.302Z" fill="white" stroke="black" stroke-width="4" stroke-linecap="round"/>
<path d="M189.582 189.823C210.619 189.823 227.672 172.769 227.672 151.733C227.672 130.696 210.619 113.643 189.582 113.643C168.546 113.643 151.492 130.696 151.492 151.733C151.492 172.769 168.546 189.823 189.582 189.823Z" fill="white"/>
<path d="M133.472 86.1225C141.912 83.5225 150.742 87.6725 153.322 95.4725L172.432 153.163C174.853 161.023 169.872 169.523 161.302 172.163C152.732 174.803 143.832 170.573 141.412 162.723L122.483 105.583C119.833 97.5725 124.772 88.8025 133.452 86.1225H133.472Z" fill="white" stroke="black" stroke-width="4" stroke-linecap="round"/>
<path d="M160.722 65.7827C169.102 63.2027 178.342 68.7927 181.582 78.4227L197.642 126.103C200.662 135.893 196.162 145.973 187.602 148.613C179.032 151.253 169.642 145.453 166.632 135.663L150.932 89.0527C147.552 79.0127 151.982 68.4827 160.722 65.7827Z" fill="white" stroke="black" stroke-width="4" stroke-linecap="round"/>
<path d="M193.456 59.7226C201.836 57.1426 210.756 61.6826 213.586 69.9826L227.626 111.103C230.236 119.553 225.406 128.553 216.836 131.193C208.266 133.833 199.216 129.123 196.606 120.663L182.876 80.4626C179.916 71.8026 184.706 62.4126 193.446 59.7226H193.456Z" fill="white" stroke="black" stroke-width="4" stroke-linecap="round"/>
<path d="M254.142 195.603C251.392 181.153 252.322 174.423 253.452 163.833L256.332 136.893C257.082 129.843 253.612 123.013 247.452 119.473C233.192 111.283 182.5 85.5 182.5 85.5C165.51 104.24 189.5 122.5 189.5 122.5C210.77 136.06 221.012 141.933 221.012 141.933C183.442 152.923 189.322 197.063 189.322 197.063" fill="white"/>
<path d="M254.142 195.603C251.392 181.153 252.322 174.423 253.452 163.833L256.332 136.893C257.082 129.843 253.612 123.013 247.452 119.473C233.192 111.283 182.5 85.5 182.5 85.5C165.51 104.24 189.5 122.5 189.5 122.5C210.77 136.06 221.012 141.933 221.012 141.933C183.442 152.923 189.322 197.063 189.322 197.063" stroke="black" stroke-width="4" stroke-linecap="round"/>
</svg>
