<svg width="360" height="360" viewBox="0 0 360 360" fill="none" xmlns="http://www.w3.org/2000/svg">
<g clip-path="url(#clip0_6484_530)">
<path d="M237.57 227.4C237.57 152.43 202.79 117.62 127.79 117.62C52.7898 117.62 18.0098 152.43 18.0098 227.4C18.0098 302.37 52.7898 337.18 127.79 337.18C202.79 337.18 237.57 302.37 237.57 227.4Z" fill="black" stroke="black" stroke-width="4"/>
<path d="M127.78 337.16C202.37 338.02 236.72 304.1 237.56 227.38" stroke="black" stroke-width="4"/>
<path d="M104.31 205.91C119.989 205.91 132.7 193.199 132.7 177.52C132.7 161.841 119.989 149.13 104.31 149.13C88.6306 149.13 75.9199 161.841 75.9199 177.52C75.9199 193.199 88.6306 205.91 104.31 205.91Z" fill="white"/>
<path d="M42.6804 133.31C42.5804 132.82 42.7704 133.8 42.6804 133.31C57.2704 207.97 83.1704 274.5 126.18 337.18C126.18 337.18 168.43 339.04 196.39 322.25C216.95 309.9 228.19 283.57 228.19 283.57C219.33 274.59 199.34 229.91 194.03 206.91" fill="white"/>
<path d="M42.6804 133.31C42.5804 132.82 42.7704 133.8 42.6804 133.31ZM42.6804 133.31C57.2704 207.97 83.1704 274.5 126.18 337.18C126.18 337.18 168.43 339.04 196.39 322.25C216.95 309.9 228.19 283.57 228.19 283.57C219.33 274.59 199.34 229.91 194.03 206.91" stroke="black" stroke-width="4" stroke-linecap="round"/>
<path d="M79.5099 164.3L71.8799 148.09L333.88 24.7301L349.3 23.1401L352.38 29.6701L341.52 40.9501L79.5099 164.3Z" fill="white" stroke="black" stroke-width="4"/>
<path d="M335.34 28.1701L349.37 26.8801C349.8 26.8001 350.05 27.3401 349.72 27.6301L339.83 37.4001L331.28 35.2001L335.34 28.1701Z" fill="black"/>
<path d="M27.2001 146.99L27.1101 147.03C17.5701 152.48 15.0901 167.62 21.6801 181.61C28.2701 195.6 41.5101 203.34 51.7901 199.46L51.8801 199.43C52.2201 199.3 90.0701 183.61 104.54 174.68C135.37 155.65 156.98 134.7 163.94 131.42C169.09 129 175.1 130 180.29 131.94C182.37 132.72 184.66 132.65 186.67 131.71L197.44 126.64C199.77 125.54 200.77 122.77 199.67 120.44L190.95 101.92L182.23 83.4002C181.13 81.0702 178.36 80.0702 176.03 81.1702L165.26 86.2402C163.25 87.1802 161.74 88.9102 161.02 91.0102C159.21 96.2502 156.18 101.59 151.01 103.95C143.49 107.38 114.13 110.54 79.8201 122.18C63.7201 127.64 27.5201 146.82 27.2001 147V146.99Z" fill="#FF0077" stroke="black" stroke-width="4"/>
<path d="M48.4299 128.61C57.2699 125.12 67.1999 129.95 69.9299 139.06L77.8299 165.51C80.0599 174.07 74.8399 182.84 66.1599 185.1C57.4899 187.36 48.6499 182.25 46.4199 173.69L38.5599 148.71C35.9999 140.59 40.1599 131.87 48.0799 128.75L48.4299 128.61Z" fill="white" stroke="black" stroke-width="4" stroke-linecap="round"/>
<path d="M129.48 201.13C150.516 201.13 167.57 184.077 167.57 163.04C167.57 142.004 150.516 124.95 129.48 124.95C108.443 124.95 91.3896 142.004 91.3896 163.04C91.3896 184.077 108.443 201.13 129.48 201.13Z" fill="white"/>
<path d="M73.37 97.4301C81.81 94.8301 90.64 98.9801 93.22 106.78L112.33 164.47C114.75 172.33 109.77 180.83 101.2 183.47C92.63 186.11 83.73 181.88 81.31 174.03L62.38 116.89C59.73 108.88 64.67 100.11 73.35 97.4301H73.37Z" fill="white" stroke="black" stroke-width="4" stroke-linecap="round"/>
<path d="M100.61 77.0898C108.99 74.5098 118.23 80.0998 121.47 89.7298L137.53 137.41C140.55 147.2 136.05 157.28 127.49 159.92C118.92 162.56 109.53 156.76 106.52 146.97L90.82 100.36C87.44 90.3198 91.87 79.7898 100.61 77.0898Z" fill="white" stroke="black" stroke-width="4" stroke-linecap="round"/>
<path d="M133.456 72.7226C141.836 70.1426 150.756 74.6826 153.586 82.9826L167.626 124.103C170.236 132.553 165.406 141.553 156.836 144.193C148.266 146.833 139.216 142.123 136.606 133.663L122.876 93.4625C119.916 84.8025 124.706 75.4126 133.446 72.7226H133.456Z" fill="white" stroke="black" stroke-width="4" stroke-linecap="round"/>
<path d="M194.03 206.91C191.28 192.46 192.21 185.73 193.34 175.14L196.22 148.2C196.97 141.15 193.5 134.32 187.34 130.78C173.08 122.59 122 97 122 97C105.01 115.74 128.1 133.95 128.1 133.95C149.37 147.51 160.9 153.24 160.9 153.24C123.33 164.23 129.21 208.37 129.21 208.37" fill="white"/>
<path d="M194.03 206.91C191.28 192.46 192.21 185.73 193.34 175.14L196.22 148.2C196.97 141.15 193.5 134.32 187.34 130.78C173.08 122.59 122 97 122 97C105.01 115.74 128.1 133.95 128.1 133.95C149.37 147.51 160.9 153.24 160.9 153.24C123.33 164.23 129.21 208.37 129.21 208.37" stroke="black" stroke-width="4" stroke-linecap="round"/>
</g>
<defs>
<clipPath id="clip0_6484_530">
<rect width="338.77" height="318.24" fill="white" transform="translate(16 21)"/>
</clipPath>
</defs>
</svg>
