<svg width="360" height="369" viewBox="0 0 360 369" fill="none" xmlns="http://www.w3.org/2000/svg">
<path d="M234.263 34.46C238.532 34.46 241.993 30.9992 241.993 26.73C241.993 22.4608 238.532 19 234.263 19C229.994 19 226.533 22.4608 226.533 26.73C226.533 30.9992 229.994 34.46 234.263 34.46Z" fill="black" stroke="black" stroke-width="4"/>
<path d="M236.303 253.38C236.303 187.72 205.843 157.23 140.153 157.23C74.4629 157.23 44.0029 187.72 44.0029 253.38C44.0029 319.04 74.4629 349.53 140.153 349.53C205.843 349.53 236.303 319.04 236.303 253.38Z" fill="black" stroke="black" stroke-width="4"/>
<path d="M76.6328 333.72L105.563 299.69L114.663 294.07L158.433 277.51L172.843 296.54C172.843 296.54 175.823 301.01 171.743 307.3C160.623 324.47 148.133 326.68 148.133 326.68L137.473 349.53C137.473 349.53 104.353 350.99 77.8428 334.53" fill="white"/>
<path d="M76.6328 333.72L105.563 299.69L114.663 294.07L158.433 277.51L172.843 296.54C172.843 296.54 175.823 301.01 171.743 307.3C160.623 324.47 148.133 326.68 148.133 326.68L137.473 349.53C137.473 349.53 104.353 350.99 77.8428 334.53" stroke="black" stroke-width="4" stroke-miterlimit="10" stroke-linecap="round"/>
<path d="M94.4326 234.07L166.543 303.2C169.533 305.81 173.713 306.58 177.443 305.2L193.213 299.38C200.943 296.53 202.803 286.45 196.613 281.02L133.643 219.6" fill="#FF0077"/>
<path d="M94.4326 234.07L166.543 303.2C169.533 305.81 173.713 306.58 177.443 305.2L193.213 299.38C200.943 296.53 202.803 286.45 196.613 281.02L133.643 219.6" stroke="black" stroke-width="4" stroke-miterlimit="10"/>
<path d="M82.0432 128.27L122.153 101.88C125.103 99.9399 124.233 95.4099 120.773 94.6999L84.8832 87.3099C82.6232 86.8399 80.4432 88.4099 80.1532 90.6999L75.9332 124.48C75.5132 127.83 79.2132 130.13 82.0332 128.28L82.0432 128.27Z" fill="white" stroke="black" stroke-width="4" stroke-miterlimit="10" stroke-linecap="round"/>
<path d="M264.893 199.45L292.073 225.64C294.073 227.56 297.393 226.11 297.343 223.34L296.793 194.54C296.763 192.73 295.183 191.33 293.373 191.5L266.743 194.11C264.103 194.37 262.973 197.61 264.883 199.45H264.893Z" fill="white" stroke="black" stroke-width="4" stroke-miterlimit="10" stroke-linecap="round"/>
<path d="M76.6328 333.72C108.433 290.4 110.043 279.96 115.373 264.45C117.143 259.3 120.203 254.7 124.253 251.06L149.833 228.05C152.723 225.45 157.293 226.26 159.113 229.69C159.473 230.37 159.713 231.11 159.783 231.88C160.153 235.47 158.913 239.07 156.363 241.7L140.603 257.9C140.603 257.9 140.563 257.99 140.603 258.03C141.253 258.68 149.523 264.51 152.293 275C155.503 287.17 151.823 297.78 135.233 303.67" fill="white"/>
<path d="M76.6328 333.72C108.433 290.4 110.043 279.96 115.373 264.45C117.143 259.3 120.203 254.7 124.253 251.06L149.833 228.05C152.723 225.45 157.293 226.26 159.113 229.69C159.473 230.37 159.713 231.11 159.783 231.88C160.153 235.47 158.913 239.07 156.363 241.7L140.603 257.9C140.603 257.9 140.563 257.99 140.603 258.03C141.253 258.68 149.523 264.51 152.293 275C155.503 287.17 151.823 297.78 135.233 303.67" stroke="black" stroke-width="4" stroke-miterlimit="10" stroke-linecap="round"/>
<path d="M196.612 278.06L195.832 275.37C195.502 274.23 194.212 273.58 193.102 273.88C193.742 273.5 194.412 273.1 195.102 272.69C199.342 270.16 200.082 264.38 196.602 260.91L193.852 258.16L195.372 256.25C196.892 254.35 197.202 251.77 196.172 249.58L194.832 246.72C194.072 245.1 192.672 243.88 190.962 243.33C188.952 242.69 186.752 243.05 185.052 244.31L183.272 245.63C184.432 244.77 185.322 243.59 185.812 242.24C186.722 239.76 186.312 237 184.712 234.9L184.092 234.09C182.492 231.98 179.912 230.83 177.252 231.01C175.242 231.15 173.372 232.04 172.002 233.5L152.812 254.05C150.812 256.19 150.892 259.5 152.982 261.54L153.462 262C155.402 263.89 158.462 264.07 160.622 262.42C157.802 264.51 156.922 268.31 158.542 271.4C159.952 274.08 162.922 275.59 165.952 275.16L167.102 275C164.182 276.84 162.962 280.45 164.172 283.65L164.212 283.75C165.292 286.62 168.492 287.98 171.282 286.98L170.382 287.52C168.102 288.88 167.132 291.65 168.052 294.11C169.262 297.34 173.172 298.66 176.142 296.85L193.312 286.4C196.182 284.66 197.512 281.24 196.582 278.05L196.612 278.06Z" fill="white" stroke="black" stroke-width="4" stroke-miterlimit="10" stroke-linecap="round"/>
<path d="M160.633 262.44L185.053 244.31" stroke="black" stroke-width="4" stroke-miterlimit="10" stroke-linecap="round"/>
<path d="M167.112 275.01L193.842 258.16" stroke="black" stroke-width="4" stroke-miterlimit="10" stroke-linecap="round"/>
<path d="M170.402 287.529L195.092 272.689" stroke="black" stroke-width="4" stroke-miterlimit="10" stroke-linecap="round"/>
<path d="M114.013 230.76L84.063 247.93C75.633 252.76 64.883 249.85 60.053 241.42L46.333 217.5C41.503 209.07 44.413 198.32 52.843 193.49L82.793 176.32C99.333 166.83 113.583 153.83 124.543 138.22L158.243 88.2798C159.383 86.7598 161.713 86.9098 162.653 88.5598L230.603 207.06C231.513 208.64 230.503 210.63 228.703 210.84L167.983 213.98C148.983 215.55 130.553 221.28 114.013 230.77V230.76Z" fill="#FF0077" stroke="black" stroke-width="4" stroke-miterlimit="10"/>
<path d="M233.609 209.75C245.055 203.187 238.252 169.821 218.415 135.224C198.577 100.628 173.217 77.902 161.771 84.4651C150.325 91.0282 157.128 124.395 176.965 158.991C196.803 193.588 222.163 216.313 233.609 209.75Z" fill="white" stroke="black" stroke-width="4" stroke-miterlimit="10" stroke-linecap="round"/>
<path d="M211.568 171.311C215.99 168.775 213.362 155.884 205.697 142.516C198.032 129.149 188.234 120.369 183.812 122.904C179.39 125.44 182.018 138.332 189.683 151.699C197.348 165.066 207.146 173.847 211.568 171.311Z" fill="black"/>
<path d="M187.973 41.7798C206.833 60.2198 226.993 86.6598 244.913 117.91C257.143 139.24 266.913 160.34 273.913 179.72" stroke="black" stroke-width="4" stroke-miterlimit="10" stroke-linecap="round"/>
<path d="M195.943 74.73C201.063 80.05 206.283 86.15 211.463 92.92C218.723 102.4 225.913 113.19 232.653 124.95C240.783 139.12 247.363 153.15 252.233 166.15" stroke="black" stroke-width="4" stroke-miterlimit="10" stroke-linecap="round"/>
<path d="M184.863 124.33L165.083 131.5" stroke="black" stroke-width="4" stroke-miterlimit="10"/>
<path d="M211.493 169.41L194.993 185.46" stroke="black" stroke-width="4" stroke-miterlimit="10"/>
<path d="M145.343 335.89L125.793 324.46L133.133 325.43C138.483 326.14 143.923 325.81 149.143 324.46L145.343 335.89Z" fill="black"/>
<path d="M69.2225 215.25C74.3974 215.25 78.5925 211.055 78.5925 205.88C78.5925 200.705 74.3974 196.51 69.2225 196.51C64.0476 196.51 59.8525 200.705 59.8525 205.88C59.8525 211.055 64.0476 215.25 69.2225 215.25Z" fill="white" stroke="black" stroke-width="4" stroke-miterlimit="10" stroke-linecap="round"/>
<path d="M282.562 139.45C285.6 139.45 288.062 136.987 288.062 133.95C288.062 130.912 285.6 128.45 282.562 128.45C279.525 128.45 277.062 130.912 277.062 133.95C277.062 136.987 279.525 139.45 282.562 139.45Z" fill="black"/>
<path fill-rule="evenodd" clip-rule="evenodd" d="M290.033 71.9696C286.743 66.9196 280.913 63.9996 274.923 64.6996C272.213 65.0196 269.633 65.9396 267.403 67.5296C261.873 71.4596 259.953 78.2896 260.383 84.8096C261.093 95.7196 267.773 106.54 274.393 114.54C274.813 115.05 275.453 115.34 276.123 115.31C286.503 114.86 299.003 112.56 307.573 105.78C312.693 101.73 316.483 95.7296 315.693 88.9896C315.373 86.2696 314.333 83.7296 312.743 81.5096C309.253 76.6096 303.183 74.2296 297.233 75.1796L292.593 75.9196L290.033 71.9896V71.9696Z" fill="#FF0077" stroke="black" stroke-width="4" stroke-miterlimit="10"/>
</svg>
