<svg width="360" height="369" viewBox="0 0 360 369" fill="none" xmlns="http://www.w3.org/2000/svg">
<g clip-path="url(#clip0_7353_237)">
<path d="M209.51 202.131L303.839 96.2019C308.964 90.4469 309.504 81.9942 305.098 75.6996C299.523 67.5166 288.102 66.0779 280.549 72.4624L122.105 207.256C107.358 218.676 96.0279 233.963 89.2837 251.408L24 495.907H203.485V312.915" fill="white"/>
<path d="M209.51 202.131L303.839 96.2019C308.964 90.4469 309.504 81.9942 305.098 75.6996C299.523 67.5166 288.102 66.0779 280.549 72.4624L122.105 207.256C107.358 218.676 96.0279 233.963 89.2837 251.408L24 495.907H203.485V312.915" stroke="black" stroke-width="4"/>
<path d="M257.349 40H136.044C128.147 40 121.746 46.4013 121.746 54.2977V298.527C121.746 306.424 128.147 312.825 136.044 312.825H257.349C265.246 312.825 271.647 306.424 271.647 298.527V54.2977C271.647 46.4013 265.246 40 257.349 40Z" fill="black"/>
<path d="M121.747 125.876C139.775 125.876 154.389 111.262 154.389 93.2341C154.389 75.2065 139.775 60.5923 121.747 60.5923C103.72 60.5923 89.1055 75.2065 89.1055 93.2341C89.1055 111.262 103.72 125.876 121.747 125.876Z" fill="white" stroke="black" stroke-width="4" stroke-miterlimit="10"/>
<path fill-rule="evenodd" clip-rule="evenodd" d="M124.518 82.8212C127.718 80.8212 131.808 80.6912 135.028 82.6712C136.478 83.5612 137.708 84.7712 138.558 86.2612C140.668 89.9512 139.958 94.3412 137.998 97.9412C134.718 103.961 128.078 108.351 122.198 111.161C121.818 111.341 121.388 111.331 121.018 111.141C115.238 108.151 108.728 103.551 105.638 97.4312C103.788 93.7712 103.218 89.3712 105.448 85.7412C106.348 84.2812 107.608 83.1112 109.088 82.2612C112.368 80.3912 116.37 80.9 119.5 83L122.028 84.3812L124.518 82.8212Z" fill="#FF0077" stroke="black" stroke-width="4" stroke-miterlimit="10"/>
<path d="M180.826 53.3984H212.569" stroke="white" stroke-width="4" stroke-miterlimit="10" stroke-linecap="round"/>
<path d="M150.881 312.825L203.486 330.81V312.825H150.881Z" fill="black"/>
<path d="M285.155 231.637L285.085 231.581C278.755 226.455 269.469 227.431 264.343 233.761L248.385 253.468C243.259 259.797 244.235 269.084 250.565 274.209L250.635 274.266C256.964 279.391 266.251 278.415 271.376 272.086L287.335 252.379C292.46 246.049 291.484 236.763 285.155 231.637Z" fill="white" stroke="black" stroke-width="4"/>
<path d="M284.549 190.458L284.479 190.401C278.15 185.276 268.863 186.252 263.738 192.581L252.759 206.139C247.634 212.468 248.61 221.755 254.939 226.88L255.009 226.937C261.339 232.062 270.625 231.086 275.751 224.757L286.729 211.2C291.855 204.87 290.879 195.584 284.549 190.458Z" fill="white" stroke="black" stroke-width="4"/>
<path d="M283.391 156.474L283.321 156.417C276.992 151.291 267.705 152.267 262.58 158.597L258.618 163.489C253.493 169.818 254.469 179.105 260.798 184.23L260.868 184.287C267.198 189.413 276.484 188.437 281.61 182.107L285.571 177.215C290.697 170.886 289.721 161.599 283.391 156.474Z" fill="white" stroke="black" stroke-width="4"/>
<path d="M267.24 268.403C263.823 271.82 258.338 271.82 255.011 268.403C251.594 264.986 251.594 259.5 255.011 256.173" stroke="black" stroke-width="4" stroke-miterlimit="10" stroke-linecap="round"/>
<path d="M271.376 221.014C267.959 224.431 262.474 224.431 259.147 221.014C255.73 217.597 255.73 212.111 259.147 208.784" stroke="black" stroke-width="4" stroke-miterlimit="10" stroke-linecap="round"/>
<path d="M276.593 178.93C273.176 182.347 267.691 182.347 264.364 178.93C260.947 175.513 260.947 170.028 264.364 166.701" stroke="black" stroke-width="4" stroke-miterlimit="10" stroke-linecap="round"/>
<path d="M149 313C147.895 313 147 313.895 147 315C147 316.105 147.895 317 149 317V315V313ZM206 315V313H149V315V317H206V315Z" fill="white"/>
<path d="M82.001 378.379C82.001 378.379 160.503 367.048 153.759 279.284L210.141 245.653C230.193 235.222 238.916 211.033 230.103 190.261C230.103 190.081 229.923 190.081 229.744 190.171L105.471 251.588" fill="white"/>
<path d="M82.001 378.379C82.001 378.379 160.503 367.048 153.759 279.284L210.141 245.653C230.193 235.222 238.916 211.033 230.103 190.261C230.103 190.081 229.923 190.081 229.744 190.171L105.471 251.588" stroke="black" stroke-width="4" stroke-linecap="round"/>
<path d="M220.031 198.354C224.618 207.975 220.481 219.485 210.859 223.981C201.238 228.567 189.728 224.431 185.231 214.809" stroke="black" stroke-width="4" stroke-linecap="round"/>
<path d="M227.472 147.137C238.347 154.626 237.036 171.08 225.113 176.753L180.045 198.196C168.121 203.869 154.528 194.507 155.576 181.344L159.54 131.593C160.589 118.43 175.493 111.339 186.368 118.828L227.472 147.137Z" fill="#FF0077"/>
<path d="M239.203 139.652C256.825 126.617 261.995 103.726 250.75 88.5246C239.505 73.323 216.104 71.5671 198.482 84.6024C180.86 97.6378 175.69 120.528 186.935 135.73C198.18 150.931 221.581 152.687 239.203 139.652Z" fill="white" stroke="black" stroke-width="4" stroke-miterlimit="10" stroke-linecap="round"/>
<mask id="mask0_7353_237" style="mask-type:alpha" maskUnits="userSpaceOnUse" x="178" y="73" width="81" height="78">
<path d="M239.203 139.652C256.825 126.617 261.995 103.726 250.75 88.5246C239.505 73.323 216.104 71.5671 198.482 84.6024C180.86 97.6378 175.69 120.528 186.935 135.73C198.18 150.931 221.581 152.687 239.203 139.652Z" fill="white" stroke="black" stroke-width="4" stroke-miterlimit="10" stroke-linecap="round"/>
</mask>
<g mask="url(#mask0_7353_237)">
<path d="M217.617 83.9976L218.276 97.9879L205.75 107.253L192.565 102.529L191.906 88.5383L204.432 79.2728L217.617 83.9976Z" stroke="black" stroke-width="4"/>
<path d="M243.24 79.4746L243.899 93.465L231.373 102.73L218.188 98.0056L217.529 84.0153L230.055 74.7498L243.24 79.4746Z" stroke="black" stroke-width="4"/>
<path d="M205.795 107.173L206.454 121.164L193.928 130.429L180.743 125.704L180.084 111.714L192.61 102.449L205.795 107.173Z" stroke="black" stroke-width="4"/>
<path d="M229.442 60.8213L230.101 74.8116L217.575 84.0771L204.39 79.3523L203.731 65.362L216.257 56.0965L229.442 60.8213Z" fill="black"/>
<path d="M191.996 88.5205L192.655 102.511L180.129 111.776L166.944 107.052L166.285 93.0612L178.811 83.7957L191.996 88.5205Z" fill="black"/>
<path d="M231.416 102.651L232.075 116.641L219.549 125.907L206.364 121.182L205.705 107.192L218.231 97.9261L231.416 102.651Z" fill="black"/>
<path d="M268.863 74.9517L269.522 88.942L256.996 98.2075L243.811 93.4827L243.152 79.4924L255.678 70.2269L268.863 74.9517Z" fill="black"/>
<path d="M193.971 130.35L194.63 144.34L182.105 153.605L168.92 148.881L168.261 134.89L180.786 125.625L193.971 130.35Z" fill="black"/>
<path d="M257.038 98.128L257.697 112.118L245.171 121.384L231.986 116.659L231.327 102.669L243.853 93.4031L257.038 98.128Z" stroke="black" stroke-width="4"/>
<path d="M219.593 125.827L220.252 139.818L207.727 149.083L194.542 144.358L193.883 130.368L206.409 121.102L219.593 125.827Z" stroke="black" stroke-width="4"/>
<path d="M245.214 121.304L245.874 135.294L233.348 144.56L220.163 139.835L219.504 125.844L232.03 116.579L245.214 121.304Z" stroke="black" stroke-width="4"/>
<path d="M270.837 116.781L271.496 130.772L258.97 140.037L245.785 135.312L245.126 121.322L257.652 112.056L270.837 116.781Z" fill="black"/>
<path d="M233.391 144.48L234.05 158.47L221.524 167.736L208.34 163.011L207.681 149.021L220.206 139.755L233.391 144.48Z" fill="black"/>
</g>
<path d="M239.203 139.652C256.825 126.617 261.995 103.726 250.75 88.5246C239.505 73.323 216.104 71.5671 198.482 84.6024C180.86 97.6378 175.69 120.528 186.935 135.73C198.18 150.931 221.581 152.687 239.203 139.652Z" stroke="white" stroke-width="4" stroke-miterlimit="10" stroke-linecap="round"/>
<path d="M184.558 149.124L136 206.674" stroke="white" stroke-width="4" stroke-linecap="round"/>
<path d="M191.327 157.217L163.451 190.488" stroke="white" stroke-width="4" stroke-linecap="round"/>
</g>
<defs>
<clipPath id="clip0_7353_237">
<rect width="360" height="369" fill="white"/>
</clipPath>
</defs>
</svg>
