<svg width="360" height="360" viewBox="0 0 360 360" fill="none" xmlns="http://www.w3.org/2000/svg">
<path d="M258.963 249.899C258.963 178.934 226.092 145.984 155.209 145.984C84.3267 145.984 51.4561 178.934 51.4561 249.899C51.4561 320.864 84.3267 353.815 155.209 353.815C226.092 353.815 258.963 320.864 258.963 249.899Z" fill="#FF0077" stroke="black" stroke-width="4"/>
<path d="M155.209 353.796C225.704 354.61 258.169 322.502 258.962 249.88" stroke="black" stroke-width="4"/>
<path d="M133.018 229.557C147.837 229.557 159.849 217.526 159.849 202.684C159.849 187.842 147.837 175.811 133.018 175.811C118.199 175.811 106.187 187.842 106.187 202.684C106.187 217.526 118.199 229.557 133.018 229.557Z" fill="white"/>
<path d="M74.7812 160.836C74.6867 160.372 74.8663 161.299 74.7812 160.836C88.5703 231.507 113.048 294.483 153.697 353.815C153.697 353.815 193.628 355.575 220.053 339.682C239.484 327.992 250.107 303.068 250.107 303.068C241.734 294.568 222.841 252.275 217.823 230.504" fill="white"/>
<path d="M74.7812 160.836C74.6867 160.372 74.8663 161.299 74.7812 160.836ZM74.7812 160.836C88.5703 231.507 113.048 294.483 153.697 353.815C153.697 353.815 193.628 355.575 220.053 339.682C239.484 327.992 250.107 303.068 250.107 303.068C241.734 294.568 222.841 252.275 217.823 230.504" stroke="black" stroke-width="4" stroke-linecap="round"/>
<path d="M329.07 82.9891L311.623 48.1929C310.895 46.7351 309.128 46.1483 307.673 46.8866H307.644C302.985 49.2436 295.83 44.416 291.663 36.1145C289.073 30.9462 288.251 25.6454 289.13 21.8212C289.905 18.4608 289.631 14.949 288.081 11.8632L283.27 2.26488C283.147 2.02824 282.854 1.92411 282.618 2.04717L247.47 19.7198C247.233 19.8428 247.129 20.1363 247.252 20.3729L252.063 29.9712C253.613 33.0571 256.259 35.3762 259.416 36.7582C263.007 38.339 266.759 42.1537 269.349 47.322C273.025 54.658 274.944 60.4132 271.702 63.6978L254.038 81.2379L269.84 112.75L288.789 103.218L295.641 99.772L299.583 97.7936L300.159 98.9484C305.962 110.62 307.38 123.985 304.138 136.613L296.19 167.594C295.708 169.478 297.881 170.907 299.422 169.715C345.751 133.745 329.051 82.9702 329.051 82.9702L329.07 82.9891Z" fill="black"/>
<path d="M40.0005 219.438L31.5324 202.551C29.9541 199.399 31.3717 195.566 34.6229 194.212L67.9472 174.343C77.7007 168.531 87.8322 163.363 98.2661 158.895L181.435 121.458C193.731 116.185 205.601 109.966 216.924 102.839L217.349 102.574C227.093 96.4493 237.244 90.9781 247.725 86.2168L254.303 83.2256L268.489 111.519L264.614 113.81C254.123 120.019 243.207 125.471 231.951 130.119L229.928 130.952C218.19 135.808 206.83 141.525 195.933 148.057L121.846 190.17C108.076 198.434 93.5595 205.382 78.4851 210.938L48.2985 222.051C45.2837 223.669 41.5316 222.486 40.0005 219.419V219.438Z" fill="white" stroke="black" stroke-width="4"/>
<path d="M80.2061 156.387C88.5608 153.084 97.9457 157.656 100.526 166.279L107.992 191.316C110.1 199.419 105.166 207.72 96.9628 209.859C88.7688 211.999 80.414 207.162 78.3065 199.059L70.878 175.413C68.4585 167.727 72.3901 159.473 79.8753 156.52L80.2061 156.387Z" fill="white" stroke="black" stroke-width="4" stroke-linecap="round"/>
<path d="M156.807 225.033C176.688 225.033 192.806 208.89 192.806 188.978C192.806 169.065 176.688 152.922 156.807 152.922C136.925 152.922 120.808 169.065 120.808 188.978C120.808 208.89 136.925 225.033 156.807 225.033Z" fill="white"/>
<path d="M103.777 126.873C111.754 124.412 120.099 128.34 122.537 135.723L140.598 190.331C142.886 197.771 138.179 205.817 130.079 208.316C121.98 210.815 113.568 206.811 111.281 199.381L93.3905 145.293C90.8859 137.711 95.5548 129.409 103.758 126.873H103.777Z" fill="white" stroke="black" stroke-width="4" stroke-linecap="round"/>
<path d="M129.522 107.619C137.442 105.177 146.175 110.468 149.237 119.584L164.415 164.717C167.269 173.984 163.016 183.525 154.926 186.024C146.827 188.523 137.952 183.033 135.107 173.766L120.269 129.646C117.075 120.142 121.262 110.175 129.522 107.619Z" fill="white" stroke="black" stroke-width="4" stroke-linecap="round"/>
<path d="M159.827 101.684C167.747 99.2418 176.178 103.539 178.852 111.396L192.122 150.319C194.588 158.318 190.024 166.837 181.924 169.336C173.824 171.835 165.271 167.377 162.805 159.368L149.828 121.316C147.031 113.119 151.558 104.23 159.818 101.684H159.827Z" fill="white" stroke="black" stroke-width="4" stroke-linecap="round"/>
<path d="M217.812 230.504C215.213 216.826 216.092 210.456 217.16 200.431L219.882 174.931C220.591 168.257 217.311 161.792 211.489 158.441C198.012 150.689 150.5 127.5 150.5 127.5C134.443 145.239 155.502 161.442 155.502 161.442C175.604 174.277 186.501 179.701 186.501 179.701C150.993 190.104 156.551 231.886 156.551 231.886" fill="white"/>
<path d="M217.812 230.504C215.213 216.826 216.092 210.456 217.16 200.431L219.882 174.931C220.591 168.257 217.311 161.792 211.489 158.441C198.012 150.689 150.5 127.5 150.5 127.5C134.443 145.239 155.502 161.442 155.502 161.442C175.604 174.277 186.501 179.701 186.501 179.701C150.993 190.104 156.551 231.886 156.551 231.886" stroke="black" stroke-width="4" stroke-linecap="round"/>
</svg>
