<svg width="360" height="369" viewBox="0 0 360 369" fill="none" xmlns="http://www.w3.org/2000/svg">
<path d="M183.5 224C228.511 224 265 187.511 265 142.5C265 97.4888 228.511 61 183.5 61C138.489 61 102 97.4888 102 142.5C102 187.511 138.489 224 183.5 224Z" fill="#FF0077" stroke="black" stroke-width="4" stroke-miterlimit="10"/>
<path d="M183.5 210.119C220.845 210.119 251.119 179.845 251.119 142.5C251.119 105.155 220.845 74.8809 183.5 74.8809C146.155 74.8809 115.881 105.155 115.881 142.5C115.881 179.845 146.155 210.119 183.5 210.119Z" fill="#FF0077" stroke="black" stroke-width="4" stroke-miterlimit="10"/>
<path d="M183.5 216.795C224.532 216.795 257.795 183.532 257.795 142.5C257.795 101.468 224.532 68.2051 183.5 68.2051C142.468 68.2051 109.205 101.468 109.205 142.5C109.205 183.532 142.468 216.795 183.5 216.795Z" stroke="white" stroke-width="4" stroke-miterlimit="10" stroke-dasharray="2.02 10.08"/>
<path d="M181.974 176.289V109.559H185.389V176.289H181.974ZM196.649 129.578C196.354 126.607 195.042 124.243 192.713 122.488C190.385 120.733 187.457 119.855 183.929 119.855C181.444 119.855 179.254 120.281 177.36 121.133C175.483 121.984 174.006 123.166 172.929 124.678C171.869 126.172 171.339 127.875 171.339 129.787C171.339 131.194 171.643 132.428 172.251 133.488C172.859 134.548 173.676 135.46 174.701 136.225C175.744 136.972 176.891 137.615 178.142 138.154C179.411 138.693 180.688 139.144 181.974 139.509L187.604 141.126C189.307 141.595 191.01 142.194 192.713 142.924C194.416 143.654 195.972 144.575 197.379 145.687C198.804 146.782 199.942 148.129 200.794 149.727C201.663 151.309 202.097 153.212 202.097 155.436C202.097 158.286 201.359 160.849 199.882 163.126C198.404 165.402 196.284 167.209 193.521 168.547C190.758 169.868 187.448 170.528 183.59 170.528C179.958 170.528 176.804 169.929 174.128 168.73C171.452 167.513 169.349 165.837 167.82 163.699C166.291 161.562 165.43 159.085 165.239 156.27H170.244C170.418 158.373 171.113 160.154 172.329 161.614C173.546 163.073 175.127 164.186 177.073 164.95C179.02 165.697 181.192 166.071 183.59 166.071C186.249 166.071 188.612 165.628 190.68 164.742C192.765 163.838 194.399 162.587 195.581 160.988C196.78 159.372 197.379 157.495 197.379 155.358C197.379 153.551 196.91 152.039 195.972 150.822C195.033 149.588 193.721 148.554 192.036 147.72C190.367 146.886 188.43 146.148 186.223 145.505L179.836 143.628C175.648 142.377 172.399 140.648 170.088 138.441C167.776 136.234 166.621 133.419 166.621 129.995C166.621 127.128 167.385 124.608 168.915 122.436C170.461 120.246 172.547 118.543 175.171 117.327C177.812 116.093 180.775 115.476 184.059 115.476C187.378 115.476 190.315 116.084 192.87 117.301C195.424 118.517 197.449 120.194 198.943 122.332C200.455 124.452 201.263 126.867 201.367 129.578H196.649Z" fill="black"/>
<path d="M104.74 253.12C104.74 253.12 104.64 253.05 104.6 253L86.15 234.71H57.38C40.05 234.71 26 248.76 26 266.09H115.47C110.37 263.39 106.45 258.73 104.74 253.12Z" fill="white" stroke="black" stroke-width="4" stroke-miterlimit="10" stroke-linecap="round"/>
<path d="M102.68 207.24L74.16 178.46C61.98 166.14 42.11 166.03 29.79 178.21L36.18 184.67L68.46 217.27C68.46 217.27 68.49 217.29 68.51 217.31L100.03 248.55" fill="white"/>
<path d="M102.68 207.24L74.16 178.46C61.98 166.14 42.11 166.03 29.79 178.21L36.18 184.67L68.46 217.27C68.46 217.27 68.49 217.29 68.51 217.31L100.03 248.55" stroke="black" stroke-width="4" stroke-miterlimit="10" stroke-linecap="round"/>
<path d="M316.62 271.23L333.42 345H211.74L214.89 266.06H120.63C110.61 265.33 102.68 256.95 102.68 246.74V207.23V151.98C102.68 151.98 135.75 148.43 135.75 185.05V234.7H155.92C203.85 175.91 298.68 197.21 316.62 271.23Z" fill="white" stroke="black" stroke-width="4" stroke-miterlimit="10" stroke-linecap="round"/>
<path d="M104.29 166.74C113.33 166.74 120.65 174.07 120.65 183.1C120.65 192.13 113.32 199.46 104.29 199.46" fill="white"/>
<path d="M104.29 166.74C113.33 166.74 120.65 174.07 120.65 183.1C120.65 192.13 113.32 199.46 104.29 199.46" stroke="black" stroke-width="4" stroke-miterlimit="10"/>
<path d="M38.6094 184.3C45.0194 177.93 55.3794 177.97 61.7494 184.38C68.1194 190.79 68.0794 201.15 61.6694 207.52" fill="white"/>
<path d="M38.6094 184.3C45.0194 177.93 55.3794 177.97 61.7494 184.38C68.1194 190.79 68.0794 201.15 61.6694 207.52" stroke="black" stroke-width="4" stroke-miterlimit="10"/>
<path d="M39.9805 264.4C40.0105 255.36 47.3705 248.06 56.4005 248.1C65.4405 248.13 72.7405 255.49 72.7005 264.52" fill="white"/>
<path d="M39.9805 264.4C40.0105 255.36 47.3705 248.06 56.4005 248.1C65.4405 248.13 72.7405 255.49 72.7005 264.52" stroke="black" stroke-width="4" stroke-miterlimit="10"/>
<path d="M214.891 266.08H252.308C255.22 266.08 256.425 269.811 254.063 271.514L214.891 299.75V266.08Z" fill="black" stroke="black" stroke-width="4" stroke-miterlimit="10" stroke-linecap="round"/>
<path d="M348 345H145" stroke="black" stroke-width="4" stroke-linecap="round"/>
</svg>
