<svg width="360" height="369" viewBox="0 0 360 369" fill="none" xmlns="http://www.w3.org/2000/svg">
<path d="M104.74 253.12C104.74 253.12 104.64 253.05 104.6 253L86.15 234.71H57.38C40.05 234.71 26 248.76 26 266.09H115.47C110.37 263.39 106.45 258.73 104.74 253.12Z" fill="white" stroke="black" stroke-width="4" stroke-miterlimit="10" stroke-linecap="round"/>
<path d="M102.68 207.24L74.16 178.46C61.98 166.14 42.11 166.03 29.79 178.21L36.18 184.67L68.46 217.27C68.46 217.27 68.49 217.29 68.51 217.31L100.03 248.55" fill="white"/>
<path d="M102.68 207.24L74.16 178.46C61.98 166.14 42.11 166.03 29.79 178.21L36.18 184.67L68.46 217.27C68.46 217.27 68.49 217.29 68.51 217.31L100.03 248.55" stroke="black" stroke-width="4" stroke-miterlimit="10" stroke-linecap="round"/>
<path d="M316.62 271.23L333.42 345H211.74L214.89 266.06H120.63C110.61 265.33 102.68 256.95 102.68 246.74V207.23V151.98C102.68 151.98 135.75 148.43 135.75 185.05V234.7H155.92C203.85 175.91 298.68 197.21 316.62 271.23Z" fill="white" stroke="black" stroke-width="4" stroke-miterlimit="10" stroke-linecap="round"/>
<path d="M104.29 166.74C113.33 166.74 120.65 174.07 120.65 183.1C120.65 192.13 113.32 199.46 104.29 199.46" fill="white"/>
<path d="M104.29 166.74C113.33 166.74 120.65 174.07 120.65 183.1C120.65 192.13 113.32 199.46 104.29 199.46" stroke="black" stroke-width="4" stroke-miterlimit="10"/>
<path d="M38.6094 184.3C45.0194 177.93 55.3794 177.97 61.7494 184.38C68.1194 190.79 68.0794 201.15 61.6694 207.52" fill="white"/>
<path d="M38.6094 184.3C45.0194 177.93 55.3794 177.97 61.7494 184.38C68.1194 190.79 68.0794 201.15 61.6694 207.52" stroke="black" stroke-width="4" stroke-miterlimit="10"/>
<path d="M39.9805 264.4C40.0105 255.36 47.3705 248.06 56.4005 248.1C65.4405 248.13 72.7405 255.49 72.7005 264.52" fill="white"/>
<path d="M39.9805 264.4C40.0105 255.36 47.3705 248.06 56.4005 248.1C65.4405 248.13 72.7405 255.49 72.7005 264.52" stroke="black" stroke-width="4" stroke-miterlimit="10"/>
<path d="M214.891 266.08H252.308C255.22 266.08 256.425 269.811 254.063 271.514L214.891 299.75V266.08Z" fill="black" stroke="black" stroke-width="4" stroke-miterlimit="10" stroke-linecap="round"/>
<path d="M348 345H145" stroke="black" stroke-width="4" stroke-linecap="round"/>
<path d="M266.943 166.961C265.388 166.961 263.952 166.363 262.875 165.286L250.671 153.56L165.477 154.398C157.819 154.398 150.64 151.526 145.734 146.5C141.666 142.313 139.393 137.048 139.393 131.544L139.871 67.7683C139.991 55.444 151.717 45.3931 165.956 45.3931H263.593C277.712 45.3931 289.438 55.3243 289.678 67.6487L290.515 130.347C290.635 140.039 283.695 148.774 273.165 152.005L272.687 161.338C272.567 164.449 269.935 166.961 266.824 166.961H266.943Z" fill="#FF0077"/>
<path d="M263.594 47.9058C276.516 47.9058 287.046 56.7602 287.285 67.7683L288.123 130.467C288.242 139.8 280.943 147.817 270.893 150.21L270.294 161.338C270.294 163.372 268.499 164.688 266.824 164.688C265.149 164.688 265.149 164.329 264.431 163.731L251.509 151.287L165.837 152.124C165.717 152.124 165.478 152.124 165.358 152.124C152.196 152.124 141.547 143.031 141.666 131.663L142.145 67.888C142.145 56.7602 152.794 47.7861 165.837 47.7861H263.474M263.594 43.1197H165.956C150.401 43.1197 137.598 54.2474 137.479 67.888L137 131.663C137 137.766 139.393 143.748 143.94 148.295C149.324 153.799 157.221 156.91 165.358 156.91C173.494 156.91 165.717 156.91 165.956 156.91L249.594 156.073L261.081 167.081C262.636 168.517 264.671 169.354 266.824 169.354C271.252 169.354 274.841 165.884 275.08 161.457L275.439 153.68C285.969 149.731 293.028 140.518 292.789 130.228L291.952 67.6487C291.712 54.0081 278.909 43 263.474 43L263.594 43.1197Z" fill="black"/>
<path d="M180.315 112.519C186.527 112.519 191.562 107.483 191.562 101.271C191.562 95.0596 186.527 90.0239 180.315 90.0239C174.103 90.0239 169.067 95.0596 169.067 101.271C169.067 107.483 174.103 112.519 180.315 112.519Z" fill="white"/>
<path d="M215.014 112.519C221.226 112.519 226.262 107.483 226.262 101.271C226.262 95.0596 221.226 90.0239 215.014 90.0239C208.802 90.0239 203.767 95.0596 203.767 101.271C203.767 107.483 208.802 112.519 215.014 112.519Z" fill="white"/>
<path d="M249.714 112.519C255.926 112.519 260.962 107.483 260.962 101.271C260.962 95.0596 255.926 90.0239 249.714 90.0239C243.502 90.0239 238.467 95.0596 238.467 101.271C238.467 107.483 243.502 112.519 249.714 112.519Z" fill="white"/>
</svg>
