<svg width="360" height="369" viewBox="0 0 360 369" fill="none" xmlns="http://www.w3.org/2000/svg">
<path d="M101.939 162.78C101.939 102.14 130.069 73.9902 190.729 73.9902C251.389 73.9902 279.519 102.15 279.519 162.78C279.519 223.42 251.389 251.57 190.729 251.57H101.939V162.78Z" fill="#FF0077" stroke="black" stroke-width="4"/>
<path d="M104.74 253.12C104.74 253.12 104.64 253.05 104.6 253L86.15 234.71H57.38C40.05 234.71 26 248.76 26 266.09H115.47C110.37 263.39 106.45 258.73 104.74 253.12Z" fill="white" stroke="black" stroke-width="4" stroke-miterlimit="10" stroke-linecap="round"/>
<path d="M102.68 207.24L74.16 178.46C61.98 166.14 42.11 166.03 29.79 178.21L36.18 184.67L68.46 217.27C68.46 217.27 68.49 217.29 68.51 217.31L100.03 248.55" fill="white"/>
<path d="M102.68 207.24L74.16 178.46C61.98 166.14 42.11 166.03 29.79 178.21L36.18 184.67L68.46 217.27C68.46 217.27 68.49 217.29 68.51 217.31L100.03 248.55" stroke="black" stroke-width="4" stroke-miterlimit="10" stroke-linecap="round"/>
<path d="M316.62 271.23L333.42 345H211.74L214.89 266.06H120.63C110.61 265.33 102.68 256.95 102.68 246.74V207.23V151.98C102.68 151.98 135.75 148.43 135.75 185.05V234.7H155.92C203.85 175.91 298.68 197.21 316.62 271.23Z" fill="white" stroke="black" stroke-width="4" stroke-miterlimit="10" stroke-linecap="round"/>
<path d="M104.29 166.74C113.33 166.74 120.65 174.07 120.65 183.1C120.65 192.13 113.32 199.46 104.29 199.46" fill="white"/>
<path d="M104.29 166.74C113.33 166.74 120.65 174.07 120.65 183.1C120.65 192.13 113.32 199.46 104.29 199.46" stroke="black" stroke-width="4" stroke-miterlimit="10"/>
<path d="M38.6094 184.3C45.0194 177.93 55.3794 177.97 61.7494 184.38C68.1194 190.79 68.0794 201.15 61.6694 207.52" fill="white"/>
<path d="M38.6094 184.3C45.0194 177.93 55.3794 177.97 61.7494 184.38C68.1194 190.79 68.0794 201.15 61.6694 207.52" stroke="black" stroke-width="4" stroke-miterlimit="10"/>
<path d="M39.9805 264.4C40.0105 255.36 47.3705 248.06 56.4005 248.1C65.4405 248.13 72.7405 255.49 72.7005 264.52" fill="white"/>
<path d="M39.9805 264.4C40.0105 255.36 47.3705 248.06 56.4005 248.1C65.4405 248.13 72.7405 255.49 72.7005 264.52" stroke="black" stroke-width="4" stroke-miterlimit="10"/>
<path d="M214.891 266.08H252.308C255.22 266.08 256.425 269.811 254.063 271.514L214.891 299.75V266.08Z" fill="black" stroke="black" stroke-width="4" stroke-miterlimit="10" stroke-linecap="round"/>
<path d="M235.06 24H261.51V50.45C261.51 74.96 241.61 94.85 217.11 94.85H190.66V68.4C190.66 43.89 210.56 24 235.06 24Z" fill="white" stroke="black" stroke-width="4" stroke-miterlimit="10" stroke-linecap="round"/>
<path d="M174.49 107.93H200.9" stroke="black" stroke-width="4" stroke-miterlimit="10" stroke-linecap="round"/>
<path d="M249.58 35.4902L197.41 85.7302C191.52 91.5702 188.21 99.5102 188.21 107.8V107.92" stroke="black" stroke-width="4" stroke-miterlimit="10" stroke-linecap="round"/>
<path d="M348 345H145" stroke="black" stroke-width="4" stroke-linecap="round"/>
</svg>
