<svg width="360" height="369" viewBox="0 0 360 369" fill="none" xmlns="http://www.w3.org/2000/svg">
<path d="M272.404 28.5019L272.395 28.4988C269.884 27.6813 267.187 29.0534 266.369 31.5636L249.82 82.3765C249.002 84.8866 250.375 87.5842 252.885 88.4018L252.894 88.4049C255.404 89.2224 258.102 87.8503 258.92 85.3401L275.469 34.5272C276.286 32.0171 274.914 29.3195 272.404 28.5019Z" fill="black" stroke="black" stroke-width="4"/>
<path d="M270.476 265.07C270.476 197.03 238.906 165.43 170.836 165.43C102.766 165.43 71.1963 197.03 71.1963 265.07C71.1963 333.11 102.766 364.71 170.836 364.71C238.486 365.18 270.476 333.11 270.476 265.07Z" fill="#FF0077" stroke="black" stroke-width="4"/>
<path d="M149.527 245.57C163.759 245.57 175.297 234.032 175.297 219.8C175.297 205.567 163.759 194.03 149.527 194.03C135.294 194.03 123.757 205.567 123.757 219.8C123.757 234.032 135.294 245.57 149.527 245.57Z" fill="white"/>
<path d="M172.367 241.23C191.459 241.23 206.937 225.752 206.937 206.66C206.937 187.567 191.459 172.09 172.367 172.09C153.274 172.09 137.797 187.567 137.797 206.66C137.797 225.752 153.274 241.23 172.367 241.23Z" fill="white"/>
<path d="M73.6565 204.4C73.4965 203.98 73.8165 204.82 73.6565 204.4C97.1265 265.08 125.627 317.28 169.637 364.29C169.637 364.29 177.087 364.68 183.547 364.45C183.547 364.45 215.787 363.55 237.857 347.55C257.727 333.14 263.677 309.67 263.677 309.67C254.337 303.05 228.997 265.82 220.597 246.12" fill="white"/>
<path d="M73.6565 204.4C73.4965 203.98 73.8165 204.82 73.6565 204.4ZM73.6565 204.4C97.1265 265.08 125.627 317.28 169.637 364.29C169.637 364.29 177.087 364.68 183.547 364.45C183.547 364.45 215.787 363.55 237.857 347.55C257.727 333.14 263.677 309.67 263.677 309.67C254.337 303.05 228.997 265.82 220.597 246.12" stroke="black" stroke-width="4" stroke-linecap="round"/>
<path fill-rule="evenodd" clip-rule="evenodd" d="M223.567 24.2399L226.487 27.0699L225.507 33.9299C223.547 47.5999 218.477 60.6399 210.667 72.0299L196.157 93.2099C192.687 98.2799 193.367 105.12 197.777 109.4L211.567 122.78L212.727 123.9L226.517 137.28C230.927 141.56 237.787 142.04 242.747 138.41L263.477 123.27C274.627 115.13 287.507 109.66 301.117 107.29L307.947 106.1L310.867 108.93C312.077 110.11 314.017 110.08 315.187 108.86L320.107 103.79C321.287 102.58 321.257 100.64 320.037 99.4699L232.747 14.7799C231.537 13.5999 229.597 13.6299 228.427 14.8499L223.507 19.9199C222.327 21.1299 222.357 23.0699 223.577 24.2399H223.567Z" fill="white" stroke="black" stroke-width="4" stroke-linecap="round"/>
<path fill-rule="evenodd" clip-rule="evenodd" d="M56.3265 250.32C46.1265 262.72 49.3765 273.38 58.2065 281.97C69.9665 293.41 81.0065 289.78 89.9065 282.9C98.0065 276.64 162.927 193.87 173.397 182.48C179.237 176.13 186.407 171.21 194.017 168.36C199.967 166.14 204.507 160.12 204.677 154.26C204.677 154.26 204.827 147.11 204.737 146.5C204.767 144.56 205.317 142.95 206.367 141.78C206.427 141.71 206.497 141.63 206.567 141.56C206.637 141.49 206.707 141.42 206.787 141.35C208.167 140.03 210.227 139.42 212.757 139.59C213.607 139.97 214.637 139.81 215.327 139.1L220.047 134.23C220.927 133.32 220.907 131.88 219.997 131L204.257 115.73C203.347 114.85 201.907 114.87 201.027 115.78L196.307 120.65C195.617 121.36 195.487 122.39 195.897 123.23C196.147 125.76 195.597 127.83 194.317 129.25C194.257 129.32 194.187 129.4 194.117 129.47C194.047 129.54 193.977 129.61 193.897 129.68C192.757 130.77 191.167 131.37 189.227 131.46C188.617 131.39 181.477 131.75 181.477 131.75C175.617 132.1 169.747 136.82 167.707 142.83C165.097 150.52 160.397 157.84 154.217 163.87C143.147 174.68 62.8265 242.4 56.3165 250.31L56.3265 250.32Z" fill="black"/>
<path d="M78.0468 199.28C85.3968 194.76 95.0368 197.49 98.9168 205.2L110.187 227.58C113.537 234.88 110.267 243.55 102.877 246.94C95.4868 250.34 86.7768 247.18 83.4168 239.88L72.4268 218.81C68.8568 211.96 71.1868 203.51 77.7668 199.46L78.0568 199.28H78.0468Z" fill="white" stroke="black" stroke-width="4" stroke-linecap="round"/>
<path d="M95.3759 167.46C102.506 163.79 111.056 166.1 114.606 172.66L140.856 221.18C144.266 227.81 141.166 236.21 133.936 239.93C126.706 243.65 118.066 241.29 114.656 234.65L88.6659 186.6C85.0259 179.86 88.0459 171.24 95.3759 167.47V167.46Z" fill="white" stroke="black" stroke-width="4" stroke-linecap="round"/>
<path d="M116.496 144.95C123.576 141.31 132.726 144.84 137.146 152.93L159.076 192.99C163.326 201.26 160.916 210.98 153.676 214.7C146.446 218.42 137.126 214.73 132.876 206.46L111.436 167.3C106.816 158.86 109.106 148.75 116.486 144.95H116.496Z" fill="white" stroke="black" stroke-width="4" stroke-linecap="round"/>
<path d="M144.75 134.85C151.83 131.21 160.52 133.85 164.37 140.82L183.45 175.33C187.12 182.47 184.23 191.28 177 195C169.77 198.72 160.92 195.95 157.25 188.81L138.6 155.07C134.58 147.8 137.37 138.65 144.75 134.85Z" fill="white" stroke="black" stroke-width="4" stroke-linecap="round"/>
<path d="M220.606 246.11C215.846 233.63 215.616 227.47 214.946 217.83L213.236 193.3C212.786 186.88 208.596 181.33 202.536 179.15C188.496 174.1 139.5 158.5 139.5 158.5C127.29 177.95 151 190.5 151 190.5C172.16 199.23 182.486 203.44 182.486 203.44C150.656 219.23 162.936 257.74 162.936 257.74" fill="white"/>
<path d="M220.606 246.11C215.846 233.63 215.616 227.47 214.946 217.83L213.236 193.3C212.786 186.88 208.596 181.33 202.536 179.15C188.496 174.1 139.5 158.5 139.5 158.5C127.29 177.95 151 190.5 151 190.5C172.16 199.23 182.486 203.44 182.486 203.44C150.656 219.23 162.936 257.74 162.936 257.74" stroke="black" stroke-width="4" stroke-linecap="round"/>
<path d="M225.967 26.5601L307.957 106.11" stroke="black" stroke-width="4"/>
<path d="M53.5669 227.47C46.9269 211.51 54.4869 193.19 70.4469 186.55" stroke="black" stroke-width="4" stroke-linecap="round"/>
<path d="M39.0364 218.97C38.6664 209.8 41.1264 200.8 45.9264 193.15C47.4964 190.65 49.3164 188.29 51.3664 186.12" stroke="black" stroke-width="4" stroke-linecap="round"/>
<path d="M274.606 5C290.326 12.2 297.226 30.77 290.036 46.49" stroke="black" stroke-width="4" stroke-linecap="round"/>
</svg>
