<svg width="360" height="369" viewBox="0 0 360 369" fill="none" xmlns="http://www.w3.org/2000/svg">
<path d="M104.74 253.12C104.74 253.12 104.64 253.05 104.6 253L86.15 234.71H57.38C40.05 234.71 26 248.76 26 266.09H115.47C110.37 263.39 106.45 258.73 104.74 253.12Z" fill="white" stroke="black" stroke-width="4" stroke-miterlimit="10" stroke-linecap="round"/>
<path d="M102.68 207.24L74.16 178.46C61.98 166.14 42.11 166.03 29.79 178.21L36.18 184.67L68.46 217.27C68.46 217.27 68.49 217.29 68.51 217.31L100.03 248.55" fill="white"/>
<path d="M102.68 207.24L74.16 178.46C61.98 166.14 42.11 166.03 29.79 178.21L36.18 184.67L68.46 217.27C68.46 217.27 68.49 217.29 68.51 217.31L100.03 248.55" stroke="black" stroke-width="4" stroke-miterlimit="10" stroke-linecap="round"/>
<path d="M316.62 271.23L333.42 345H211.74L214.89 266.06H120.63C110.61 265.33 102.68 256.95 102.68 246.74V207.23V151.98C102.68 151.98 135.75 148.43 135.75 185.05V234.7H155.92C203.85 175.91 298.68 197.21 316.62 271.23Z" fill="white" stroke="black" stroke-width="4" stroke-miterlimit="10" stroke-linecap="round"/>
<path d="M104.29 166.74C113.33 166.74 120.65 174.07 120.65 183.1C120.65 192.13 113.32 199.46 104.29 199.46" fill="white"/>
<path d="M104.29 166.74C113.33 166.74 120.65 174.07 120.65 183.1C120.65 192.13 113.32 199.46 104.29 199.46" stroke="black" stroke-width="4" stroke-miterlimit="10"/>
<path d="M38.6094 184.3C45.0194 177.93 55.3794 177.97 61.7494 184.38C68.1194 190.79 68.0794 201.15 61.6694 207.52" fill="white"/>
<path d="M38.6094 184.3C45.0194 177.93 55.3794 177.97 61.7494 184.38C68.1194 190.79 68.0794 201.15 61.6694 207.52" stroke="black" stroke-width="4" stroke-miterlimit="10"/>
<path d="M39.9805 264.4C40.0105 255.36 47.3705 248.06 56.4005 248.1C65.4405 248.13 72.7405 255.49 72.7005 264.52" fill="white"/>
<path d="M39.9805 264.4C40.0105 255.36 47.3705 248.06 56.4005 248.1C65.4405 248.13 72.7405 255.49 72.7005 264.52" stroke="black" stroke-width="4" stroke-miterlimit="10"/>
<path d="M214.891 266.08H252.308C255.22 266.08 256.425 269.811 254.063 271.514L214.891 299.75V266.08Z" fill="black" stroke="black" stroke-width="4" stroke-miterlimit="10" stroke-linecap="round"/>
<path d="M348 345H145" stroke="black" stroke-width="4" stroke-linecap="round"/>
<path d="M182.492 68.541L160.777 89.1197C158.644 91.14 158.402 94.4664 160.209 96.7779L222.188 176.02C224.441 178.905 228.771 178.905 231.024 176.02L293.003 96.7779C294.81 94.4664 294.568 91.14 292.435 89.1197L270.72 68.541C269.678 67.5544 268.299 67 266.865 67H186.347C184.913 67 183.535 67.5544 182.492 68.541Z" fill="#FF0077" stroke="black" stroke-width="4" stroke-linecap="round"/>
<path d="M159.035 92.6904H293.338" stroke="black" stroke-width="4" stroke-linecap="round"/>
<path d="M212.402 67L191.068 92.6904L226.602 178.181" stroke="black" stroke-width="4" stroke-linecap="round"/>
<path d="M240.811 67L262.144 92.6904L226.602 178.181" stroke="black" stroke-width="4" stroke-linecap="round"/>
<path d="M143.347 81.7612C143.238 82.0796 142.775 82.0796 142.653 81.7612C136.578 64.5286 125.258 52.9571 108.245 46.853C107.918 46.7422 107.918 46.2716 108.245 46.147C125.204 39.9737 136.591 28.4714 142.653 11.2388C142.762 10.9204 143.225 10.9204 143.347 11.2388C149.422 28.4714 160.742 40.0429 177.755 46.147C178.082 46.2578 178.082 46.7284 177.755 46.853C160.796 53.0263 149.409 64.5286 143.347 81.7612Z" fill="white" stroke="black" stroke-width="4" stroke-linecap="round"/>
<path d="M114.359 88.7618C114.235 89.0794 113.751 89.0794 113.641 88.7618C111.348 82.7676 107.232 78.6518 101.238 76.3591C100.921 76.2348 100.921 75.7514 101.238 75.6409C107.232 73.3482 111.348 69.2324 113.641 63.2382C113.765 62.9206 114.249 62.9206 114.359 63.2382C116.652 69.2324 120.768 73.3482 126.762 75.6409C127.079 75.7652 127.079 76.2486 126.762 76.3591C120.768 78.6518 116.652 82.7676 114.359 88.7618Z" fill="white" stroke="black" stroke-width="4" stroke-linecap="round"/>
</svg>
