<svg width="619" height="500" viewBox="0 0 619 500" fill="none" xmlns="http://www.w3.org/2000/svg">
<path d="M560.76 450.179H398.52L323.7 246.609H554.03C557.75 246.609 560.76 249.619 560.76 253.339V450.179Z" fill="black" stroke="black" stroke-width="4"/>
<path d="M553.17 435.66H510.26V449.16H553.17V435.66Z" fill="#FF0077" stroke="black" stroke-width="4" stroke-miterlimit="10"/>
<path d="M553.17 422.16H510.26V435.66H553.17V422.16Z" fill="#FF0077" stroke="black" stroke-width="4" stroke-miterlimit="10"/>
<path d="M553.17 408.66H510.26V422.16H553.17V408.66Z" fill="#FF0077" stroke="black" stroke-width="4" stroke-miterlimit="10"/>
<path d="M553.17 395.16H510.26V408.66H553.17V395.16Z" fill="#FF0077" stroke="black" stroke-width="4" stroke-miterlimit="10"/>
<path d="M553.17 381.66H510.26V395.16H553.17V381.66Z" fill="#FF0077" stroke="black" stroke-width="4" stroke-miterlimit="10"/>
<path d="M553.17 368.16H510.26V381.66H553.17V368.16Z" fill="#FF0077" stroke="black" stroke-width="4" stroke-miterlimit="10"/>
<path d="M553.17 354.66H510.26V368.16H553.17V354.66Z" fill="#FF0077" stroke="black" stroke-width="4" stroke-miterlimit="10"/>
<path d="M553.17 341.169H510.26V354.669H553.17V341.169Z" fill="#FF0077" stroke="black" stroke-width="4" stroke-miterlimit="10"/>
<path d="M553.17 327.669H510.26V341.169H553.17V327.669Z" fill="#FF0077" stroke="black" stroke-width="4" stroke-miterlimit="10"/>
<path d="M553.17 314.169H510.26V327.669H553.17V314.169Z" fill="#FF0077" stroke="black" stroke-width="4" stroke-miterlimit="10"/>
<path d="M510.26 435.66H467.35V449.16H510.26V435.66Z" fill="white" stroke="black" stroke-width="4" stroke-miterlimit="10"/>
<path d="M510.26 422.16H467.35V435.66H510.26V422.16Z" fill="white" stroke="black" stroke-width="4" stroke-miterlimit="10"/>
<path d="M510.26 408.66H467.35V422.16H510.26V408.66Z" fill="white" stroke="black" stroke-width="4" stroke-miterlimit="10"/>
<path d="M430.43 96.4395L400.73 55.7695C378.27 72.1695 373.35 103.68 389.75 126.14C406.15 148.6 437.66 153.52 460.12 137.12C478.09 124 485.21 101.92 478.28 80.7695L430.42 96.4395H430.43Z" fill="black" stroke="black" stroke-width="4"/>
<path d="M430.4 96.3996L404.52 139.68C394.09 133.44 386.26 123.64 382.48 112.09C373.87 85.7996 388.42 57.0896 414.71 48.4796C441 39.8696 469.71 54.4196 478.32 80.7096C478.36 80.8296 478.4 80.9596 478.44 81.0796L430.4 96.3996Z" fill="white" stroke="black" stroke-width="4"/>
<path d="M430.43 96.4397L478.29 80.7697C471.37 59.6197 452.56 46.0297 430.31 46.0797L430.43 96.4397Z" fill="#FF0077" stroke="black" stroke-width="4"/>
<path d="M430.399 126.149C446.83 126.149 460.149 112.83 460.149 96.3994C460.149 79.9689 446.83 66.6494 430.399 66.6494C413.969 66.6494 400.649 79.9689 400.649 96.3994C400.649 112.83 413.969 126.149 430.399 126.149Z" fill="white" stroke="black" stroke-width="4"/>
<path d="M430.479 116.959C441.834 116.959 451.039 107.754 451.039 96.3994C451.039 85.0444 441.834 75.8394 430.479 75.8394C419.124 75.8394 409.919 85.0444 409.919 96.3994C409.919 107.754 419.124 116.959 430.479 116.959Z" fill="white" stroke="black" stroke-width="4"/>
<path d="M428.769 75.8394C428.769 75.8394 436.289 82.2094 430.479 96.3994" stroke="black" stroke-width="4"/>
<path d="M450.119 90.0693C450.119 90.0693 445.619 98.8393 430.489 96.3993" stroke="black" stroke-width="4"/>
<path d="M442.829 112.919C442.829 112.919 433.079 111.509 430.479 96.3892" stroke="black" stroke-width="4"/>
<path d="M418.459 113.169C418.459 113.169 416.859 103.439 430.479 96.3994" stroke="black" stroke-width="4"/>
<path d="M410.959 89.7291C410.959 89.7291 419.809 85.3892 430.479 96.3992" stroke="black" stroke-width="4"/>
<path d="M430.729 104.619C435.252 104.619 438.919 100.952 438.919 96.4293C438.919 91.906 435.252 88.2393 430.729 88.2393C426.206 88.2393 422.539 91.906 422.539 96.4293C422.539 100.952 426.206 104.619 430.729 104.619Z" fill="white" stroke="black" stroke-width="4"/>
<path d="M399 172.08H463.37V442.17C463.37 446.59 459.79 450.17 455.37 450.17H399V172.08Z" fill="#FF0077" stroke="black" stroke-width="4"/>
<path d="M481.4 211.549C481.4 211.549 481.47 211.499 481.51 211.459L495.38 197.709H517.01C530.04 197.709 540.6 208.269 540.6 221.299H473.34C477.18 219.269 480.12 215.769 481.4 211.549Z" fill="white" stroke="black" stroke-width="4" stroke-miterlimit="10" stroke-linecap="round"/>
<path d="M482.949 177.06L504.389 155.42C513.549 146.16 528.479 146.07 537.749 155.23L532.939 160.08L508.669 184.59C508.669 184.59 508.649 184.61 508.639 184.62L484.939 208.11" fill="white"/>
<path d="M482.949 177.06L504.389 155.42C513.549 146.16 528.479 146.07 537.749 155.23L532.939 160.08L508.669 184.59C508.669 184.59 508.649 184.61 508.639 184.62L484.939 208.11" stroke="black" stroke-width="4" stroke-miterlimit="10" stroke-linecap="round"/>
<path d="M383.62 450.18H403.53L403.59 221.3H474.45C481.98 220.75 487.95 214.44 487.95 206.77V177.06V135.52C487.95 135.52 463.09 132.85 463.09 160.38V197.71H447.93C417.11 159.93 363.12 165.54 338.18 200.67C331.51 210.06 327.58 221.11 326.28 232.56L321.68 273.21L383.62 450.18Z" fill="white" stroke="black" stroke-width="4" stroke-miterlimit="10" stroke-linecap="round"/>
<path d="M486.3 146.61C479.51 146.61 474 152.12 474 158.91C474 165.7 479.51 171.21 486.3 171.21" fill="white"/>
<path d="M486.3 146.61C479.51 146.61 474 152.12 474 158.91C474 165.7 479.51 171.21 486.3 171.21" stroke="black" stroke-width="4" stroke-miterlimit="10"/>
<path d="M531.119 159.81C526.299 155.02 518.509 155.05 513.719 159.87C508.929 164.69 508.959 172.48 513.779 177.27" fill="white"/>
<path d="M531.119 159.81C526.299 155.02 518.509 155.05 513.719 159.87C508.929 164.69 508.959 172.48 513.779 177.27" stroke="black" stroke-width="4" stroke-miterlimit="10"/>
<path d="M530.08 220.03C530.06 213.24 524.53 207.75 517.73 207.77C510.94 207.79 505.45 213.32 505.47 220.12" fill="white"/>
<path d="M530.08 220.03C530.06 213.24 524.53 207.75 517.73 207.77C510.94 207.79 505.45 213.32 505.47 220.12" stroke="black" stroke-width="4" stroke-miterlimit="10"/>
<path d="M401.35 221.3H375.5C372.6 221.3 371.39 225.02 373.75 226.72L401.35 246.61V221.3Z" fill="black" stroke="black" stroke-width="4" stroke-miterlimit="10" stroke-linecap="round"/>
<path d="M256.89 450.18H572.05" stroke="black" stroke-width="4" stroke-miterlimit="10" stroke-linecap="round"/>
<path d="M547.94 264.049C550.828 264.049 553.17 261.708 553.17 258.819C553.17 255.931 550.828 253.589 547.94 253.589C545.051 253.589 542.71 255.931 542.71 258.819C542.71 261.708 545.051 264.049 547.94 264.049Z" fill="#FF0077"/>
<path d="M533.24 264.049C536.128 264.049 538.47 261.708 538.47 258.819C538.47 255.931 536.128 253.589 533.24 253.589C530.351 253.589 528.01 255.931 528.01 258.819C528.01 261.708 530.351 264.049 533.24 264.049Z" fill="white"/>
<path d="M301 389.78H198.31L179.49 444.76C178.38 448 175.34 450.17 171.92 450.17H122.21C116.69 450.17 112.83 444.71 114.67 439.51L207.14 177.42C208.27 174.22 211.29 172.08 214.68 172.08H291.94C295.34 172.08 298.37 174.23 299.49 177.44L394.95 450.18H333.93C330.51 450.18 327.47 448.01 326.36 444.77L309.39 395.2C308.28 391.96 305.24 389.79 301.82 389.79L301 389.78ZM277.69 334.57C283.18 334.57 287.04 329.17 285.26 323.98L268.21 274.18L260.69 249.4C258.4 241.86 247.74 241.82 245.4 249.34L237.65 274.18L220.6 323.98C218.82 329.17 222.68 334.57 228.17 334.57H277.69Z" fill="#FF0077" stroke="black" stroke-width="4"/>
<path d="M120.2 359.73C129.793 359.73 137.57 351.953 137.57 342.36C137.57 332.767 129.793 324.99 120.2 324.99C110.607 324.99 102.83 332.767 102.83 342.36C102.83 351.953 110.607 359.73 120.2 359.73Z" fill="white"/>
<path d="M80.5104 318.084C80.4304 317.794 80.5904 318.374 80.5104 318.084C92.9504 362.934 116.67 413.694 145.87 449.894H172.09C175.51 449.894 178.55 447.724 179.66 444.484L198.31 390.084C192.48 385.024 180.65 369.564 176.32 355.794" fill="white"/>
<path d="M80.5104 318.084C80.4304 317.794 80.5904 318.374 80.5104 318.084ZM80.5104 318.084C92.9504 362.934 116.67 413.694 145.87 449.894H172.09C175.51 449.894 178.55 447.724 179.66 444.484L198.31 390.084C192.48 385.024 180.65 369.564 176.32 355.794" stroke="black" stroke-width="4" stroke-linecap="round"/>
<path d="M178.22 298.35L38.83 383.12C36.94 384.27 34.31 383.45 32.89 381.28C31.48 379.12 31.78 376.4 33.57 375.12L166.43 280.14L178.22 298.34V298.35Z" fill="black" stroke="black" stroke-width="4"/>
<path d="M185.61 266.61L166.43 280.15L178.22 298.35L199.19 285.34C200.73 284.39 201.12 282.32 200.03 280.87L189.86 267.28C188.86 265.94 186.98 265.65 185.62 266.61H185.61Z" fill="white" stroke="black" stroke-width="4"/>
<path d="M197.41 272.59C200.37 276.75 203.93 280.24 209.41 280.29C214.17 280.33 218.61 277.68 221.96 274.29C227.76 268.43 231.47 259.73 230.23 251.43C229.36 245.62 225.59 239.71 220.96 236.15C218.72 234.43 216.16 232.89 213.4 232.2C212.99 232.1 211.75 231.65 211.46 232.14C211.17 232.63 212.43 234.5 212.62 235.01C213.03 236.11 213.33 237.25 213.48 238.41C214.18 243.76 204.16 249.85 200.11 251.71C185.94 258.21 197.4 272.59 197.4 272.59H197.41Z" fill="white" stroke="black" stroke-width="4"/>
<path d="M212.07 248.16C212.18 250.15 212.34 252.11 211.48 253.97C210.28 256.57 207.66 258.51 205.65 260.49C205.2 260.94 204.74 261.39 204.44 261.95C204.14 262.51 204.02 263.2 204.27 263.79C204.55 264.45 205.25 264.85 205.95 265.02C207.25 265.35 208.65 265.05 209.85 264.44C211.63 263.54 215.97 257.73 218.23 260.19C218.55 260.54 218.72 261 218.87 261.45C219.43 263.14 219.77 264.91 219.88 266.69C219.92 267.27 219.93 267.86 220.11 268.42C221.1 271.51 224.74 269.25 226.03 267.74C229.95 263.19 230.81 257.15 230.2 251.18C229.65 245.85 225.55 240.03 220.97 236.14C218.98 234.45 215.34 231.99 211.62 231.99C211.5 231.99 212.38 234.79 212.46 235C213.02 236.4 213.53 237.63 213.44 239.19C213.34 240.85 212.67 242.41 212.28 244.03C211.95 245.4 212 246.78 212.07 248.15V248.16Z" fill="#FF0077" stroke="black" stroke-width="4"/>
<path d="M169.42 275.28L185.67 296.66" stroke="black" stroke-width="4" stroke-linecap="round"/>
<path d="M83.7899 315.169C89.0199 312.619 95.3099 315.099 97.3999 320.519L103.48 336.279C105.25 341.399 102.48 346.999 97.2899 348.779C92.1099 350.569 86.4699 347.869 84.7099 342.759L78.7299 327.889C76.7899 323.059 78.9099 317.539 83.5899 315.259L83.7999 315.159L83.7899 315.169Z" fill="white" stroke="black" stroke-width="4" stroke-linecap="round"/>
<path d="M134.86 355.64C147.734 355.64 158.17 345.203 158.17 332.33C158.17 319.456 147.734 309.02 134.86 309.02C121.986 309.02 111.55 319.456 111.55 332.33C111.55 345.203 121.986 355.64 134.86 355.64Z" fill="white"/>
<path d="M97.5201 294.969C102.55 292.979 108.13 295.099 110.07 299.729L124.46 334.019C126.31 338.699 123.67 344.119 118.58 346.139C113.48 348.159 107.85 345.999 106 341.319L91.7401 307.359C89.7401 302.599 92.3401 297.009 97.5101 294.969H97.5201Z" fill="white" stroke="black" stroke-width="4" stroke-linecap="round"/>
<path d="M113.18 281.269C118.17 279.299 124.07 282.269 126.51 287.989L138.57 316.319C140.88 322.149 138.61 328.509 133.51 330.529C128.41 332.549 122.41 329.459 120.1 323.629L108.31 295.939C105.77 289.979 107.97 283.339 113.18 281.279V281.269Z" fill="white" stroke="black" stroke-width="4" stroke-linecap="round"/>
<path d="M132.09 276.079C137.08 274.109 142.73 276.459 144.86 281.379L155.38 305.799C157.37 310.829 154.85 316.549 149.75 318.569C144.65 320.589 138.9 318.139 136.91 313.109L126.63 289.239C124.42 284.099 126.89 278.139 132.1 276.079H132.09Z" fill="white" stroke="black" stroke-width="4" stroke-linecap="round"/>
<path d="M176.32 356.03C173.96 347.35 174.2 343.2 174.39 336.69L174.87 320.12C175 315.78 172.55 311.78 168.63 309.92C159.54 305.6 126.48 293.08 126.48 293.08C117 305.32 132.64 314.67 132.64 314.67C146.26 321.93 153.56 324.88 153.56 324.88C131.16 333.37 136.85 360.01 136.85 360.01" fill="white"/>
<path d="M176.32 356.03C173.96 347.35 174.2 343.2 174.39 336.69L174.87 320.12C175 315.78 172.55 311.78 168.63 309.92C159.54 305.6 126.48 293.08 126.48 293.08C117 305.32 132.64 314.67 132.64 314.67C146.26 321.93 153.56 324.88 153.56 324.88C131.16 333.37 136.85 360.01 136.85 360.01" stroke="black" stroke-width="4" stroke-linecap="round"/>
</svg>
