<svg width="500" height="500" viewBox="0 0 500 500" fill="none" xmlns="http://www.w3.org/2000/svg">
<path d="M305.56 163.09H281.53V141.52C281.53 137.91 284.46 134.97 288.08 134.97H299.02C302.63 134.97 305.57 137.9 305.57 141.52V163.09H305.56Z" fill="black"/>
<path d="M256.97 163.09H232.94V141.52C232.94 137.91 235.87 134.97 239.49 134.97H250.43C254.04 134.97 256.98 137.9 256.98 141.52V163.09H256.97Z" fill="black"/>
<path d="M209.761 163.09H185.731V141.52C185.731 137.91 188.661 134.97 192.281 134.97H203.221C206.831 134.97 209.771 137.9 209.771 141.52V163.09H209.761Z" fill="black"/>
<path d="M358.83 336.75V312.72H380.4C384.01 312.72 386.95 315.65 386.95 319.27V330.21C386.95 333.82 384.02 336.76 380.4 336.76H358.83V336.75Z" fill="black"/>
<path d="M358.83 288.18V264.15H380.4C384.01 264.15 386.95 267.08 386.95 270.7V281.64C386.95 285.25 384.02 288.19 380.4 288.19H358.83V288.18Z" fill="black"/>
<path d="M358.83 240.96V216.93H380.4C384.01 216.93 386.95 219.86 386.95 223.48V234.42C386.95 238.03 384.02 240.97 380.4 240.97H358.83V240.96Z" fill="black"/>
<path d="M133.08 216.92V240.95H111.51C107.9 240.95 104.96 238.02 104.96 234.4V223.46C104.96 219.85 107.89 216.91 111.51 216.91H133.08V216.92Z" fill="black"/>
<path d="M133.08 265.5V289.53H111.51C107.9 289.53 104.96 286.6 104.96 282.98V272.04C104.96 268.43 107.89 265.49 111.51 265.49H133.08V265.5Z" fill="black"/>
<path d="M133.09 312.72V336.75H111.52C107.91 336.75 104.97 333.82 104.97 330.2V319.26C104.97 315.65 107.9 312.71 111.52 312.71H133.09V312.72Z" fill="black"/>
<path d="M344 163.65H147.28C139.09 163.65 132.45 170.29 132.45 178.48V375.2C132.45 383.39 139.09 390.03 147.28 390.03H344C352.191 390.03 358.83 383.39 358.83 375.2V178.48C358.83 170.29 352.191 163.65 344 163.65Z" fill="#FF0077" stroke="black" stroke-width="4"/>
<mask id="mask0_7108_168" style="mask-type:luminance" maskUnits="userSpaceOnUse" x="50" y="81" width="401" height="310">
<path d="M338.86 390.02H87.81C79.62 390.02 53.5 386.83 50 347.75V95.8301C50 87.6401 79.62 81.0001 87.81 81.0001H450.18L450.65 242.53H353.69L358.83 375.19C358.83 383.38 347.05 390.02 338.86 390.02Z" fill="white"/>
</mask>
<g mask="url(#mask0_7108_168)">
<path d="M223.83 266.48C240.509 266.48 254.03 252.959 254.03 236.28C254.03 219.601 240.509 206.08 223.83 206.08C207.151 206.08 193.63 219.601 193.63 236.28C193.63 252.959 207.151 266.48 223.83 266.48Z" fill="white"/>
<path d="M244.03 294.04C266.408 294.04 284.55 275.899 284.55 253.52C284.55 231.141 266.408 213 244.03 213C221.651 213 203.51 231.141 203.51 253.52C203.51 275.899 221.651 294.04 244.03 294.04Z" fill="white"/>
<path d="M151.88 241.29C151.73 240.78 152.03 241.8 151.88 241.29C174.45 319 208.21 387 259.74 449.31C259.74 449.31 304.67 447.26 332.7 426.81C353.31 411.77 385.41 406.48 385.41 406.48C375.17 397.81 327.04 328.7 319.22 304.85" fill="white"/>
<path d="M151.88 241.29C151.73 240.78 152.03 241.8 151.88 241.29ZM151.88 241.29C174.45 319 208.21 387 259.74 449.31C259.74 449.31 304.67 447.26 332.7 426.81C353.31 411.77 385.41 406.48 385.41 406.48C375.17 397.81 327.04 328.7 319.22 304.85" stroke="black" stroke-width="4" stroke-linecap="round"/>
<path d="M317.855 198.29L86.2155 336.28C83.0755 338.15 78.7355 336.76 76.4255 333.15C74.1255 329.56 74.6655 325.07 77.6355 322.98L298.645 168.02L317.855 198.28V198.29Z" fill="black" stroke="black" stroke-width="4"/>
<path d="M330.556 145.95L298.646 168.03L317.855 198.29L352.706 177.11C355.256 175.56 355.935 172.15 354.165 169.74L337.556 147.12C335.926 144.9 332.816 144.38 330.556 145.95Z" fill="white" stroke="black" stroke-width="4"/>
<path d="M346.486 157.32C351.326 164.24 357.146 170.06 366.196 170.22C374.066 170.36 381.446 166.05 387.036 160.5C396.706 150.91 402.976 136.57 401.046 122.85C399.696 113.23 393.546 103.41 385.966 97.4597C382.296 94.5797 378.086 91.9897 373.536 90.8197C372.856 90.6497 370.816 89.8897 370.336 90.6897C369.856 91.4897 371.906 94.5997 372.216 95.4497C372.876 97.2697 373.356 99.1597 373.586 101.08C374.656 109.93 358.016 119.85 351.286 122.86C327.776 133.4 346.486 157.32 346.486 157.32Z" fill="white" stroke="black" stroke-width="4"/>
<path d="M371.075 117.179C371.225 120.469 371.465 123.719 370.015 126.779C367.985 131.059 363.625 134.219 360.285 137.469C359.535 138.199 358.765 138.949 358.265 139.869C357.765 140.789 357.545 141.929 357.945 142.899C358.405 143.999 359.545 144.669 360.695 144.969C362.845 145.529 365.155 145.059 367.145 144.079C370.095 142.609 377.365 133.09 381.065 137.189C381.585 137.77 381.865 138.529 382.105 139.27C382.995 142.08 383.535 145 383.695 147.939C383.745 148.899 383.765 149.88 384.045 150.799C385.635 155.92 391.685 152.229 393.845 149.77C400.395 142.31 401.905 132.339 400.985 122.459C400.165 113.639 393.465 103.969 385.965 97.4695C382.695 94.6395 376.735 90.5195 370.565 90.4795C370.365 90.4795 371.775 95.1195 371.915 95.4595C372.815 97.7895 373.645 99.8295 373.465 102.399C373.265 105.139 372.145 107.719 371.485 110.379C370.915 112.639 370.975 114.919 371.085 117.189L371.075 117.179Z" fill="#FF0077" stroke="black" stroke-width="4"/>
<path d="M157.52 235.76C166.55 231.22 177.54 235.39 181.29 244.78L192.18 272.05C195.36 280.91 190.66 290.7 181.68 293.92C172.71 297.14 162.86 292.57 159.68 283.71L148.97 257.99C145.49 249.63 149.06 240 157.16 235.94L157.52 235.76Z" fill="white" stroke="black" stroke-width="4" stroke-linecap="round"/>
<path d="M180.97 200.36C189.67 196.8 199.41 200.36 202.89 208.37L228.63 267.67C231.94 275.76 227.48 285.25 218.65 288.86C209.83 292.47 199.99 288.84 196.68 280.75L171.19 222.02C167.62 213.79 172.02 204.02 180.96 200.36H180.97Z" fill="white" stroke="black" stroke-width="4" stroke-linecap="round"/>
<path d="M207.89 176.22C216.52 172.69 226.84 177.74 231.19 187.62L252.75 236.61C256.88 246.7 253.07 257.8 244.25 261.41C235.43 265.02 224.93 259.77 220.8 249.69L199.73 201.8C195.19 191.48 198.88 179.9 207.89 176.22Z" fill="white" stroke="black" stroke-width="4" stroke-linecap="round"/>
<path d="M240.67 166.8C249.3 163.27 259.18 167.23 262.97 175.75L281.76 217.98C285.33 226.69 281.06 236.68 272.24 240.29C263.42 243.9 253.37 239.77 249.81 231.06L231.44 189.78C227.48 180.89 231.66 170.49 240.67 166.8Z" fill="white" stroke="black" stroke-width="4" stroke-linecap="round"/>
<path d="M319.22 304.85C314.93 289.8 315.28 282.59 315.47 271.26L315.96 242.45C316.09 234.91 311.75 228 304.9 224.84C289.01 217.53 231.29 196.44 231.29 196.44C215.07 217.91 242.44 233.84 242.44 233.84C266.26 246.18 279.02 251.15 279.02 251.15C240.27 266.37 250.7 312.57 250.7 312.57" fill="white"/>
<path d="M319.22 304.85C314.93 289.8 315.28 282.59 315.47 271.26L315.96 242.45C316.09 234.91 311.75 228 304.9 224.84C289.01 217.53 231.29 196.44 231.29 196.44C215.07 217.91 242.44 233.84 242.44 233.84C266.26 246.18 279.02 251.15 279.02 251.15C240.27 266.37 250.7 312.57 250.7 312.57" stroke="black" stroke-width="4" stroke-linecap="round"/>
</g>
<path d="M162.27 390.02H344.3C352.32 390.02 358.83 383.52 358.83 375.49V310.07" stroke="black" stroke-width="4"/>
<path d="M185.73 390.59H209.76V412.16C209.76 415.77 206.83 418.71 203.21 418.71H192.27C188.66 418.71 185.72 415.78 185.72 412.16V390.59H185.73Z" fill="black"/>
<path d="M234.3 390.59H258.33V412.16C258.33 415.77 255.4 418.71 251.78 418.71H240.84C237.23 418.71 234.29 415.78 234.29 412.16V390.59H234.3Z" fill="black"/>
<path d="M281.52 390.59H305.55V412.16C305.55 415.77 302.62 418.71 299 418.71H288.06C284.45 418.71 281.51 415.78 281.51 412.16V390.59H281.52Z" fill="black"/>
</svg>
