<svg width="466" height="354" viewBox="0 0 466 354" fill="none" xmlns="http://www.w3.org/2000/svg">
<g clip-path="url(#clip0_7108_167)">
<path d="M148.19 300.87H333.17" stroke="black" stroke-width="4"/>
<path d="M331.98 280.26V301.04" stroke="black" stroke-width="4" stroke-linecap="round"/>
<path d="M338.28 283.4V301.04" stroke="black" stroke-width="4" stroke-linecap="round"/>
<path d="M162.22 70.71H145.37V57.42C145.37 53.88 148.25 51 151.79 51H155.79C159.33 51 162.21 53.88 162.21 57.42V70.71H162.22Z" fill="black"/>
<path d="M128.17 70.71H111.32V57.42C111.32 53.88 114.2 51 117.74 51H121.74C125.28 51 128.16 53.88 128.16 57.42V70.71H128.17Z" fill="black"/>
<path d="M95.0703 70.71H78.2203V57.42C78.2203 53.88 81.1003 51 84.6403 51H88.6403C92.1803 51 95.0603 53.88 95.0603 57.42V70.71H95.0703Z" fill="black"/>
<path d="M179 170.3V153.45H192.29C195.83 153.45 198.71 156.33 198.71 159.87V163.87C198.71 167.41 195.83 170.29 192.29 170.29H179V170.3Z" fill="black"/>
<path d="M179 136.25V119.4H192.29C195.83 119.4 198.71 122.28 198.71 125.82V129.82C198.71 133.36 195.83 136.24 192.29 136.24H179V136.25Z" fill="black"/>
<path d="M179 103.16V86.3102H192.29C195.83 86.3102 198.71 89.1901 198.71 92.7301V96.7301C198.71 100.27 195.83 103.15 192.29 103.15H179V103.16Z" fill="black"/>
<path d="M61.71 86.3101V103.16H48.42C44.88 103.16 42 100.28 42 96.7401V92.7401C42 89.2001 44.88 86.3201 48.42 86.3201H61.71V86.3101Z" fill="black"/>
<path d="M61.71 120.36V137.21H48.42C44.88 137.21 42 134.33 42 130.79V126.79C42 123.25 44.88 120.37 48.42 120.37H61.71V120.36Z" fill="black"/>
<path d="M61.71 153.46V170.31H48.42C44.88 170.31 42 167.43 42 163.89V159.89C42 156.35 44.88 153.47 48.42 153.47H61.71V153.46Z" fill="black"/>
<path d="M169.04 69.5298H71.4102C65.9094 69.5298 61.4502 73.989 61.4502 79.4898V177.12C61.4502 182.621 65.9094 187.08 71.4102 187.08H169.04C174.541 187.08 179 182.621 179 177.12V79.4898C179 73.989 174.541 69.5298 169.04 69.5298Z" fill="#FF0077" stroke="black" stroke-width="4"/>
<path d="M78.2305 188.33H95.0805V201.62C95.0805 205.16 92.2005 208.04 88.6605 208.04H84.6605C81.1205 208.04 78.2405 205.16 78.2405 201.62V188.33H78.2305Z" fill="black"/>
<path d="M112.28 188.33H129.13V201.62C129.13 205.16 126.25 208.04 122.71 208.04H118.71C115.17 208.04 112.29 205.16 112.29 201.62V188.33H112.28Z" fill="black"/>
<path d="M145.37 188.33H162.22V201.62C162.22 205.16 159.34 208.04 155.8 208.04H151.8C148.26 208.04 145.38 205.16 145.38 201.62V188.33H145.37Z" fill="black"/>
<path d="M120.81 138.55H106.59L103.9 146.41H95.21L107.99 110.2H119.53L132.2 146.41H123.51L120.82 138.55H120.81ZM118.38 131.36L115.69 123.5L113.72 117.03L111.7 123.5L109.01 131.36H118.37H118.38Z" fill="white"/>
<path d="M136.86 110.2H145.24V146.41H136.86V110.2Z" fill="white"/>
<path d="M339.96 154.82H148.82C146.06 154.82 143.82 156.9 143.82 159.46V296.39C143.82 298.95 146.06 301.03 148.82 301.03H339.97C342.73 301.03 344.97 298.95 344.97 296.39V159.46C344.97 156.9 342.73 154.82 339.97 154.82H339.96Z" fill="white" stroke="black" stroke-width="4" stroke-miterlimit="10"/>
<path d="M343.841 154.82H143.891V180.23H343.841V154.82Z" fill="black"/>
<path d="M157.851 174.33C161.606 174.33 164.651 171.286 164.651 167.53C164.651 163.774 161.606 160.73 157.851 160.73C154.095 160.73 151.051 163.774 151.051 167.53C151.051 171.286 154.095 174.33 157.851 174.33Z" fill="#FF0077"/>
<path d="M177.66 174.33C181.416 174.33 184.46 171.286 184.46 167.53C184.46 163.774 181.416 160.73 177.66 160.73C173.905 160.73 170.86 163.774 170.86 167.53C170.86 171.286 173.905 174.33 177.66 174.33Z" fill="white"/>
<path d="M299.61 264.61C299.61 262.71 298.96 260.86 297.76 259.39L289.31 248.96C285.53 244.54 279.01 244.25 274.88 248.31L261.09 261.88C256.47 266.43 249.01 265.43 245.64 259.81L214.14 203.92C210.03 197.08 200.37 197.42 196.71 204.54L149.95 300.87H299.6V264.61H299.61Z" fill="#FF0077" stroke="black" stroke-width="4"/>
<path d="M340.75 178.47L414.8 125.63C416.58 124.21 419.38 124.7 421.11 126.74C422.83 128.76 422.88 131.58 421.21 133.12L354.61 195.55L340.75 178.48V178.47Z" fill="black" stroke="black" stroke-width="4"/>
<path d="M336.76 211.85L354.61 195.54L340.75 178.47L320.47 194.47C319.02 195.64 318.89 197.8 320.19 199.14L332.34 211.71C333.53 212.95 335.49 213.01 336.76 211.85Z" fill="white" stroke="black" stroke-width="4"/>
<path d="M325.97 206.17C322.4 202.3 318.32 199.2 312.72 199.86C307.85 200.43 303.66 203.71 300.67 207.61C295.51 214.34 292.83 223.72 295.18 232.03C296.82 237.86 301.44 243.41 306.62 246.44C309.13 247.91 311.94 249.15 314.85 249.5C315.28 249.55 316.61 249.85 316.84 249.31C317.07 248.77 315.54 247.03 315.28 246.53C314.72 245.46 314.26 244.34 313.96 243.17C312.56 237.79 322 230.28 325.9 227.85C339.53 219.37 325.97 206.17 325.97 206.17Z" fill="white" stroke="black" stroke-width="4"/>
<path d="M314.159 233.01C313.789 230.99 313.369 229.01 314.009 226.99C314.899 224.18 317.329 221.86 319.119 219.57C319.519 219.05 319.929 218.53 320.169 217.92C320.409 217.31 320.439 216.59 320.109 216.02C319.739 215.38 318.969 215.06 318.239 214.98C316.869 214.81 315.479 215.3 314.329 216.07C312.629 217.22 308.939 223.71 306.319 221.49C305.949 221.18 305.709 220.73 305.509 220.29C304.719 218.63 304.149 216.87 303.799 215.07C303.689 214.48 303.599 213.88 303.339 213.34C301.929 210.31 298.509 213.09 297.379 214.8C293.959 219.96 293.859 226.24 295.259 232.26C296.509 237.64 301.449 243.05 306.629 246.43C308.889 247.9 312.909 249.95 316.719 249.46C316.839 249.44 315.579 246.7 315.469 246.5C314.719 245.14 314.029 243.95 313.929 242.35C313.819 240.64 314.299 238.96 314.489 237.26C314.649 235.82 314.419 234.41 314.169 233.02L314.159 233.01Z" fill="#FF0077" stroke="black" stroke-width="4"/>
<path d="M306.77 267.26V301.04" stroke="black" stroke-width="4" stroke-linecap="round"/>
<path d="M313.08 270.73V301.04" stroke="black" stroke-width="4" stroke-linecap="round"/>
<path d="M319.38 272.79V301.04" stroke="black" stroke-width="4" stroke-linecap="round"/>
<path d="M325.68 276.14V301.04" stroke="black" stroke-width="4" stroke-linecap="round"/>
<path d="M272.97 215.64C276.946 215.64 280.17 212.417 280.17 208.44C280.17 204.464 276.946 201.24 272.97 201.24C268.993 201.24 265.77 204.464 265.77 208.44C265.77 212.417 268.993 215.64 272.97 215.64Z" stroke="black" stroke-width="4"/>
<path d="M235.93 144.22C219.9 144.22 206.87 131.18 206.87 115.16C206.87 99.1396 219.91 86.0996 235.93 86.0996C251.95 86.0996 265 99.1396 265 115.16C265 131.18 251.96 144.22 235.93 144.22ZM235.93 98.0196C226.48 98.0196 218.79 105.71 218.79 115.16C218.79 124.61 226.48 132.3 235.93 132.3C245.38 132.3 253.07 124.61 253.07 115.16C253.07 105.71 245.38 98.0196 235.93 98.0196Z" fill="white"/>
<path d="M235.93 88.0898C250.88 88.0898 263 100.21 263 115.16C263 130.11 250.88 142.23 235.93 142.23C220.98 142.23 208.87 130.11 208.87 115.16C208.87 100.21 220.99 88.0898 235.93 88.0898ZM235.93 134.29C246.5 134.29 255.07 125.72 255.07 115.15C255.07 104.58 246.5 96.0098 235.93 96.0098C225.36 96.0098 216.79 104.58 216.79 115.15C216.79 125.72 225.36 134.29 235.93 134.29ZM235.93 84.0898C218.8 84.0898 204.87 98.0298 204.87 115.16C204.87 132.29 218.81 146.23 235.93 146.23C253.05 146.23 267 132.29 267 115.16C267 98.0298 253.06 84.0898 235.93 84.0898ZM235.93 130.29C227.58 130.29 220.79 123.5 220.79 115.15C220.79 106.8 227.58 100.01 235.93 100.01C244.28 100.01 251.07 106.8 251.07 115.15C251.07 123.5 244.28 130.29 235.93 130.29Z" fill="black"/>
<path d="M235.929 144.22C227.109 144.22 218.869 140.29 213.329 133.43L212.069 131.87L221.349 124.37L222.609 125.92C225.879 129.97 230.739 132.29 235.929 132.29C245.379 132.29 253.069 124.6 253.069 115.15C253.069 105.7 245.389 98.0198 235.939 98.0198H233.939V86.0898H235.939C251.959 86.0898 264.999 99.1298 264.999 115.16C264.999 131.19 251.959 144.22 235.929 144.22Z" fill="#FF0077"/>
<path d="M235.94 88.0898C250.78 88.0898 263 100.31 263 115.16C263 130.01 250.78 142.23 235.93 142.23C227.76 142.23 220.02 138.53 214.88 132.18L221.05 127.19C224.56 131.52 229.92 134.3 235.93 134.3C246.5 134.3 255.07 125.73 255.07 115.16C255.07 104.59 246.51 96.0298 235.94 96.0198V88.0898ZM231.95 84.0898V88.0898V96.0198V100.02H235.95C244.29 100.02 251.08 106.81 251.08 115.16C251.08 123.51 244.29 130.3 235.94 130.3C231.35 130.3 227.06 128.25 224.17 124.68L221.65 121.57L218.54 124.08L212.37 129.07L209.26 131.58L211.77 134.69C217.7 142.02 226.5 146.23 235.93 146.23C253.06 146.23 267 132.29 267 115.16C267 98.0298 253.07 84.0998 235.95 84.0898H231.95Z" fill="black"/>
<path d="M234.6 115.37H257.45C260.09 115.37 262.62 116.42 264.49 118.29L280.18 133.98C282.27 136.07 283.44 138.9 283.44 141.86V157.15" stroke="black" stroke-width="4" stroke-miterlimit="10"/>
<path d="M235.93 118.6C237.83 118.6 239.37 117.06 239.37 115.16C239.37 113.26 237.83 111.72 235.93 111.72C234.03 111.72 232.49 113.26 232.49 115.16C232.49 117.06 234.03 118.6 235.93 118.6Z" fill="black"/>
</g>
<defs>
<clipPath id="clip0_7108_167">
<rect width="382.43" height="252.04" fill="white" transform="translate(42 51)"/>
</clipPath>
</defs>
</svg>
