<svg width="619" height="437" viewBox="0 0 619 437" fill="none" xmlns="http://www.w3.org/2000/svg">
<rect x="175" y="126" width="269" height="185" rx="8" fill="#FFD2DF"/>
<ellipse cx="362.765" cy="271.575" rx="1.77208" ry="1.77328" fill="black"/>
<path d="M366.301 277.71L401.087 338.002C403.709 342.551 408.565 345.352 413.819 345.344C429.989 345.308 463.287 345.344 463.287 345.344" stroke="black" stroke-width="4" stroke-linecap="round" stroke-linejoin="round" stroke-dasharray="2 7"/>
<ellipse cx="463.296" cy="345.344" rx="1.77208" ry="1.77328" fill="black"/>
<ellipse cx="365.441" cy="174.292" rx="1.77208" ry="1.77328" fill="black"/>
<path d="M368.977 168.157L403.762 107.865C406.385 103.317 411.241 100.515 416.495 100.524C432.665 100.559 465.962 100.524 465.962 100.524" stroke="black" stroke-width="4" stroke-linecap="round" stroke-linejoin="round" stroke-dasharray="2 7"/>
<ellipse cx="465.971" cy="100.524" rx="1.77208" ry="1.77328" fill="black"/>
<ellipse cx="160.314" cy="218.722" rx="1.77208" ry="1.77328" fill="black"/>
<path d="M167.331 218.722H468.788" stroke="black" stroke-width="4" stroke-linecap="round" stroke-linejoin="round" stroke-dasharray="2 7"/>
<ellipse cx="468.789" cy="218.722" rx="1.77208" ry="1.77328" fill="black"/>
<path d="M560.831 176.829H481.522C479.475 176.829 477.818 178.407 477.818 180.357V257.087C477.818 259.038 479.475 260.616 481.522 260.616H560.831C562.878 260.616 564.535 259.038 564.535 257.087V180.357C564.535 178.407 562.878 176.829 560.831 176.829Z" fill="white" stroke="black" stroke-width="4" stroke-miterlimit="10"/>
<path d="M563.082 177.485H478.678V188.364H563.082V177.485Z" fill="black"/>
<path d="M483.524 184.747C485.036 184.747 486.262 183.52 486.262 182.007C486.262 180.494 485.036 179.267 483.524 179.267C482.012 179.267 480.786 180.494 480.786 182.007C480.786 183.52 482.012 184.747 483.524 184.747Z" fill="#FF0077"/>
<path d="M491.223 184.747C492.735 184.747 493.961 183.52 493.961 182.007C493.961 180.494 492.735 179.267 491.223 179.267C489.711 179.267 488.485 180.494 488.485 182.007C488.485 183.52 489.711 184.747 491.223 184.747Z" fill="white"/>
<path d="M521.182 240.968C531.36 240.968 539.611 232.711 539.611 222.526C539.611 212.341 531.36 204.084 521.182 204.084C511.003 204.084 502.752 212.341 502.752 222.526C502.752 232.711 511.003 240.968 521.182 240.968Z" fill="#FF0077" stroke="black" stroke-width="4" stroke-miterlimit="10" stroke-linecap="round"/>
<path d="M560.831 300.648H481.522C479.475 300.648 477.818 302.226 477.818 304.177V380.907C477.818 382.857 479.475 384.436 481.522 384.436H560.831C562.878 384.436 564.535 382.857 564.535 380.907V304.177C564.535 302.226 562.878 300.648 560.831 300.648Z" fill="white" stroke="black" stroke-width="4" stroke-miterlimit="10"/>
<path d="M563.082 301.313H478.678V312.192H563.082V301.313Z" fill="black"/>
<path d="M483.524 308.575C485.036 308.575 486.262 307.348 486.262 305.835C486.262 304.322 485.036 303.095 483.524 303.095C482.012 303.095 480.786 304.322 480.786 305.835C480.786 307.348 482.012 308.575 483.524 308.575Z" fill="#FF0077"/>
<path d="M491.223 308.575C492.735 308.575 493.961 307.348 493.961 305.835C493.961 304.322 492.735 303.095 491.223 303.095C489.711 303.095 488.485 304.322 488.485 305.835C488.485 307.348 489.711 308.575 491.223 308.575Z" fill="white"/>
<path d="M515.333 333.223L502.007 356.32C499.544 360.594 502.627 365.94 507.553 365.94H534.214C539.15 365.94 542.233 360.594 539.761 356.32L526.435 333.223C523.972 328.95 517.805 328.95 515.333 333.223Z" fill="#FF0077" stroke="black" stroke-width="4" stroke-miterlimit="10" stroke-linecap="round"/>
<path d="M560.831 53H481.522C479.475 53 477.818 54.5782 477.818 56.5288V133.259C477.818 135.209 479.475 136.788 481.522 136.788H560.831C562.878 136.788 564.535 135.209 564.535 133.259V56.5288C564.535 54.5782 562.878 53 560.831 53Z" fill="white" stroke="black" stroke-width="4" stroke-miterlimit="10"/>
<path d="M563.082 53.665H478.678V64.5441H563.082V53.665Z" fill="black"/>
<path d="M483.524 60.9267C485.036 60.9267 486.262 59.7001 486.262 58.187C486.262 56.6739 485.036 55.4473 483.524 55.4473C482.012 55.4473 480.786 56.6739 480.786 58.187C480.786 59.7001 482.012 60.9267 483.524 60.9267Z" fill="#FF0077"/>
<path d="M491.223 60.9267C492.735 60.9267 493.961 59.7001 493.961 58.187C493.961 56.6739 492.735 55.4473 491.223 55.4473C489.711 55.4473 488.485 56.6739 488.485 58.187C488.485 59.7001 489.711 60.9267 491.223 60.9267Z" fill="white"/>
<path d="M534.843 81.2573H507.509C504.876 81.2573 502.742 83.393 502.742 86.0275V113.38C502.742 116.015 504.876 118.151 507.509 118.151H534.843C537.476 118.151 539.61 116.015 539.61 113.38V86.0275C539.61 83.393 537.476 81.2573 534.843 81.2573Z" fill="#FF0077" stroke="black" stroke-width="4" stroke-miterlimit="10" stroke-linecap="round"/>
<path d="M138.013 176.829H58.7036C56.6569 176.829 55 178.407 55 180.357V257.087C55 259.038 56.6569 260.616 58.7036 260.616H138.013C140.06 260.616 141.717 259.038 141.717 257.087V180.357C141.717 178.407 140.06 176.829 138.013 176.829Z" fill="white" stroke="black" stroke-width="4" stroke-miterlimit="10"/>
<path d="M140.255 177.485H55.8506V188.364H140.255V177.485Z" fill="black"/>
<path d="M60.6968 184.747C62.2089 184.747 63.4347 183.52 63.4347 182.007C63.4347 180.494 62.2089 179.267 60.6968 179.267C59.1848 179.267 57.959 180.494 57.959 182.007C57.959 183.52 59.1848 184.747 60.6968 184.747Z" fill="#FF0077"/>
<path d="M68.3961 184.747C69.9081 184.747 71.1339 183.52 71.1339 182.007C71.1339 180.494 69.9081 179.267 68.3961 179.267C66.884 179.267 65.6582 180.494 65.6582 182.007C65.6582 183.52 66.884 184.747 68.3961 184.747Z" fill="white"/>
<path d="M138.013 300.648H58.7036C56.6569 300.648 55 302.226 55 304.177V380.907C55 382.857 56.6569 384.436 58.7036 384.436H138.013C140.06 384.436 141.717 382.857 141.717 380.907V304.177C141.717 302.226 140.06 300.648 138.013 300.648Z" fill="white" stroke="black" stroke-width="4" stroke-miterlimit="10"/>
<path d="M140.255 301.313H55.8506V312.192H140.255V301.313Z" fill="black"/>
<path d="M60.6968 308.575C62.2089 308.575 63.4347 307.348 63.4347 305.835C63.4347 304.322 62.2089 303.095 60.6968 303.095C59.1848 303.095 57.959 304.322 57.959 305.835C57.959 307.348 59.1848 308.575 60.6968 308.575Z" fill="#FF0077"/>
<path d="M68.3961 308.575C69.9081 308.575 71.1339 307.348 71.1339 305.835C71.1339 304.322 69.9081 303.095 68.3961 303.095C66.884 303.095 65.6582 304.322 65.6582 305.835C65.6582 307.348 66.884 308.575 68.3961 308.575Z" fill="white"/>
<path d="M138.013 53H58.7036C56.6569 53 55 54.5782 55 56.5288V133.259C55 135.209 56.6569 136.788 58.7036 136.788H138.013C140.06 136.788 141.717 135.209 141.717 133.259V56.5288C141.717 54.5782 140.06 53 138.013 53Z" fill="white" stroke="black" stroke-width="4" stroke-miterlimit="10"/>
<path d="M140.255 53.665H55.8506V64.5441H140.255V53.665Z" fill="black"/>
<path d="M60.6968 60.9267C62.2089 60.9267 63.4347 59.7001 63.4347 58.187C63.4347 56.6739 62.2089 55.4473 60.6968 55.4473C59.1848 55.4473 57.959 56.6739 57.959 58.187C57.959 59.7001 59.1848 60.9267 60.6968 60.9267Z" fill="#FF0077"/>
<path d="M68.3961 60.9267C69.9081 60.9267 71.1339 59.7001 71.1339 58.187C71.1339 56.6739 69.9081 55.4473 68.3961 55.4473C66.884 55.4473 65.6582 56.6739 65.6582 58.187C65.6582 59.7001 66.884 60.9267 68.3961 60.9267Z" fill="white"/>
<path d="M314.556 160.617C334.801 160.617 349.199 165.32 358.561 174.689C367.922 184.058 372.62 198.467 372.62 218.722C372.62 238.973 367.924 253.382 358.563 262.752C349.203 272.122 334.805 276.828 314.556 276.828C294.311 276.828 279.912 272.122 270.551 262.752C261.189 253.382 256.491 238.973 256.491 218.722C256.491 198.471 261.187 184.062 270.548 174.692C279.908 165.322 294.306 160.617 314.556 160.617Z" fill="#FF0077" stroke="black" stroke-width="4"/>
<ellipse cx="257.779" cy="174.292" rx="1.77208" ry="1.77328" fill="black"/>
<path d="M254.244 168.157L219.458 107.865C216.835 103.317 211.98 100.515 206.725 100.524C190.555 100.559 157.258 100.524 157.258 100.524" stroke="black" stroke-width="4" stroke-linecap="round" stroke-linejoin="round" stroke-dasharray="2 7"/>
<ellipse cx="157.249" cy="100.524" rx="1.77208" ry="1.77328" fill="black"/>
<ellipse cx="255.103" cy="271.575" rx="1.77208" ry="1.77328" fill="black"/>
<path d="M251.568 277.71L216.782 338.002C214.159 342.551 209.304 345.352 204.05 345.344C187.879 345.308 154.582 345.344 154.582 345.344" stroke="black" stroke-width="4" stroke-linecap="round" stroke-linejoin="round" stroke-dasharray="2 7"/>
<ellipse cx="154.573" cy="345.344" rx="1.77208" ry="1.77328" fill="black"/>
<path d="M116.721 107.954V93.0936C116.721 91.3558 115.791 89.7509 114.293 88.882L101.428 81.452C99.9216 80.5831 98.0698 80.5831 96.5636 81.452L83.6983 88.882C82.192 89.7509 81.2705 91.3558 81.2705 93.0936V107.954C81.2705 109.692 82.2008 111.296 83.6983 112.165L96.5636 119.595C98.0698 120.464 99.9216 120.464 101.428 119.595L114.293 112.165C115.799 111.296 116.721 109.692 116.721 107.954Z" fill="#FF0077" stroke="black" stroke-width="4" stroke-miterlimit="10" stroke-linecap="round"/>
<path d="M98.9918 201.495L104.317 207.887L112.504 206.415L112.469 214.741L119.699 218.873L114.32 225.23L117.2 233.041L108.995 234.46L106.186 242.298L98.9918 238.104L91.8061 242.298L88.9884 234.46L80.7926 233.041L83.6633 225.23L78.2939 218.873L85.5152 214.741L85.4797 206.415L93.6667 207.887L98.9918 201.495Z" fill="#FF0077" stroke="black" stroke-width="4" stroke-miterlimit="10" stroke-linecap="round"/>
<path d="M104.565 327.327H93.4187C91.9744 327.327 90.6011 327.903 89.5821 328.914L81.6964 336.805C80.6774 337.825 80.1104 339.208 80.1104 340.645V351.798C80.1104 353.244 80.6863 354.618 81.6964 355.638L89.5821 363.529C90.6011 364.548 91.9833 365.116 93.4187 365.116H104.565C106.009 365.116 107.383 364.54 108.402 363.529L116.287 355.638C117.306 354.618 117.873 353.235 117.873 351.798V340.645C117.873 339.199 117.297 337.825 116.287 336.805L108.402 328.914C107.383 327.895 106 327.327 104.565 327.327Z" fill="#FF0077" stroke="black" stroke-width="4" stroke-miterlimit="10" stroke-linecap="round"/>
</svg>
