<svg width="619" height="496" viewBox="0 0 619 496" fill="none" xmlns="http://www.w3.org/2000/svg">
<g clip-path="url(#clip0_7124_778)">
<path d="M495.2 148.28H189.89C185.471 148.28 181.89 151.862 181.89 156.28V389.56C181.89 393.978 185.471 397.56 189.89 397.56H495.2C499.618 397.56 503.2 393.978 503.2 389.56V156.28C503.2 151.862 499.618 148.28 495.2 148.28Z" fill="#FFD2DF"/>
<path d="M294.74 244.74V351.78C294.74 358.81 290.99 365.3 284.91 368.81L192.21 422.33C186.12 425.84 178.63 425.84 172.54 422.33L79.8398 368.81C73.7498 365.3 70.0098 358.8 70.0098 351.78V244.74C70.0098 237.71 73.7598 231.22 79.8398 227.71L172.54 174.19C178.63 170.68 186.12 170.68 192.21 174.19L284.91 227.71C291 231.22 294.74 237.72 294.74 244.74Z" fill="#FF0077" stroke="black" stroke-width="4"/>
<path d="M150.63 246.68C157.23 247.66 163.07 253.74 163.07 260.34V280.25C163.07 285.11 159.13 289.05 154.27 289.05C144.43 289.05 136.5 281.06 136.5 271.28L132.97 252.7C137.6 243.96 150.62 246.68 150.62 246.68H150.63Z" fill="black"/>
<path d="M69.6895 240.59C72.3895 238.46 75.5695 236.62 79.3195 235.22C111.439 223.12 132.969 252.7 132.969 252.7L112.019 282.97L69.6895 295.06V240.59Z" fill="black"/>
<path d="M70.1594 281.5C80.9494 268.89 97.4794 256.65 121.399 260.58C126.839 261.11 131.539 261.89 134.889 262.52C136.539 262.86 137.899 263.1 138.819 263.35C139.259 263.45 139.649 263.54 139.839 263.59C139.939 263.59 139.989 263.59 140.079 263.64L149.249 267.13L149.539 267.23H149.979C150.129 267.23 150.319 267.23 150.609 267.28C151.189 267.33 151.969 267.47 152.989 267.62C155.029 267.96 157.839 268.59 160.949 269.56C167.259 271.55 174.439 275.09 179.009 281.21C183.809 287.62 188.329 296.98 191.679 304.85C193.329 308.78 194.689 312.28 195.659 314.8V315.04C195.999 316.01 196.579 318 196.779 318.63C196.199 318.97 193.089 319.31 192.359 319.16C189.929 320.47 188.279 321.68 183.769 323.29C179.739 324.7 174.839 325.38 170.859 325.67C168.869 325.82 167.169 325.86 165.959 325.91C165.719 325.91 168.919 323.05 168.729 323.05L157.539 300.86L156.519 299.06C156.519 299.06 141.639 306.68 141.589 306.83C141.439 307.12 141.249 307.61 141.009 308.14C140.519 309.26 139.749 310.76 138.869 312.31C137.949 313.86 136.879 315.46 135.669 316.73C129.699 322.75 120.769 318.62 120.769 318.62L119.409 319.74L90.7494 343.05L74.3694 327.27C72.4594 326.19 71.5494 325.67 70.2994 324.82L70.1494 281.5H70.1594Z" fill="#FF0077" stroke="black" stroke-width="4"/>
<path d="M157.52 286.32C162.38 286.32 166.32 282.38 166.32 277.52V260.33C166.32 253.67 162.5 247.02 154.86 244.18C147.22 241.34 137.67 243.95 133.04 252.69L139.75 271.21C139.75 281.05 147.74 288.98 157.52 288.98" fill="black"/>
<path d="M69.6897 320.57C69.7797 320.33 69.8597 320.09 69.9497 319.84C70.0697 319.6 70.2297 319.39 70.4197 319.19C76.6097 320.24 92.7597 324.88 92.7597 324.88C92.1297 326.38 88.7997 335.84 93.8097 335.48C99.8797 335.05 116.82 331.25 126 328.39C138.62 324.46 156.38 320.72 161.48 320.72C166.58 320.72 172.16 323 173.27 325.67C174.39 328.34 171.62 328.97 171.62 328.97C171.62 328.97 157.31 327.65 152.31 330.76C147.7 333.67 119.19 345.2 112.68 350.73C105.21 357.14 101.64 359.15 74.3297 352.87C72.4897 352.45 70.9497 351.85 69.6797 351.1V320.56L69.6897 320.57Z" fill="white"/>
<path d="M157 296.44L167.68 291L162.63 306.58L157 296.48V296.43V296.44Z" fill="black"/>
<path d="M117.89 269.41L122.35 293.64C123.03 295.29 125.21 295.58 126.38 294.22C128.27 291.99 136.55 283.99 138.49 282.25C141.98 279.14 134.85 272.77 134.85 272.77L118.93 273.31" fill="white"/>
<path d="M117.89 269.41L122.35 293.64C123.03 295.29 125.21 295.58 126.38 294.22C128.27 291.99 136.55 283.99 138.49 282.25C141.98 279.14 134.85 272.77 134.85 272.77L118.93 273.31" stroke="black" stroke-width="4"/>
<path d="M138.71 274.5L138.76 256.11H148.72C155.09 256.11 160.3 261.15 160.47 267.34V267.46V267.58V267.7V281.71C160.47 287.56 155.67 292.42 149.59 292.42C143.51 292.42 138.71 287.62 138.71 281.71L138.76 278.5L138.71 274.5Z" fill="white" stroke="black" stroke-width="4"/>
<path d="M163.069 268.15C163.069 268.15 154.739 264.97 151.259 260.1C147.669 266.35 142.869 273.24 135.749 279.78C128.049 286.96 119.889 291.88 117.289 276.31C114.689 260.74 111.039 253.16 108.549 251.07C106.059 248.99 132.979 252.69 132.979 252.69C132.979 252.69 144.089 251.13 149.819 252C158.209 253.33 160.989 256.57 162.149 260.57C163.079 263.75 163.129 268.09 163.129 268.09L163.069 268.15Z" fill="black"/>
<path d="M178.9 318.14L163.62 319.9L150.72 322.47L151.42 330.46L157.52 335.15C155.34 335.15 169.6 332.83 163.95 343.34C164.53 342.66 166.1 344.74 167.36 345.32L184.67 346.54L187.22 331.96L185.41 319.17L178.9 318.13V318.14Z" fill="white"/>
<path d="M184.833 300.63L252.393 300.79C254.823 300.69 256.903 302.83 257.153 305.64L258.313 348.39C258.503 350.72 256.953 352.76 254.963 352.76H183.663C181.043 352.76 178.903 350.24 179.003 347.13L180.263 305.83C180.363 302.97 182.303 300.69 184.733 300.59L184.833 300.64V300.63Z" fill="black"/>
<path d="M217.02 341.45L165.28 342.42C163.1 342.42 161.2 343.88 160.52 345.91L160.08 347.27H218.66L217.06 341.45H217.01H217.02Z" fill="black"/>
<path d="M218.04 330.08C220.81 330.08 223.08 327.81 223.08 325.04C223.08 322.27 220.81 320 218.04 320C215.27 320 213 322.27 213 325.04C213 327.81 215.27 330.08 218.04 330.08Z" fill="white"/>
<path d="M92.7598 355.36C106.98 352.78 149.99 331.68 152.32 330.76C153.58 332.46 156.25 334.69 158.82 335.81C161.1 336.78 163.29 337.03 164.66 337.07C165.36 337.09 165.84 337.78 165.62 338.44C164.82 340.9 163.19 347.45 163.19 347.45" stroke="black" stroke-width="4"/>
<path d="M93.3397 324.99L90.8797 332.1C90.2497 333.9 91.8997 335.69 93.7897 335.21C102.14 333.17 153.91 321.65 153.91 321.65C163.33 319.42 169.16 318.14 175.7 317.56C181.59 317.04 186.6 321.8 186.45 327.71L185.98 345.2" stroke="black" stroke-width="4" stroke-linecap="round"/>
<path d="M70.4199 319.19L97.5499 325.84C101.86 310.34 116.86 287.59 102.09 274.26" stroke="black" stroke-width="4" stroke-linecap="round"/>
<path d="M164.89 319.19C176.59 319.77 172.7 329.85 171.35 335.48" stroke="black" stroke-width="4" stroke-linecap="round"/>
<path d="M135.76 286.24L127.01 282.8L129.58 274.92L135.76 273.32L138.71 278.28L135.76 286.24Z" fill="black"/>
<path d="M294.74 347.27H70V355.72C70 360.69 72.7 365.27 77.05 367.68L175.8 424.22L183.9 426.78L287.17 366.7C291.84 364.06 294.72 359.11 294.72 353.75V347.27H294.74Z" fill="black"/>
<path d="M70.1602 350.5V243.09" stroke="black" stroke-width="4" stroke-linecap="round"/>
<circle cx="499.36" cy="235.43" r="2" fill="black"/>
<path d="M491.33 235.43H426.74C418.17 235.43 411.22 242.38 411.22 250.95V354.15C411.22 362.72 418.17 369.67 426.74 369.67H499.37" stroke="black" stroke-width="4" stroke-dasharray="2 7"/>
<circle cx="499.36" cy="369.67" r="2" fill="black"/>
<path d="M547.96 325.22H458.45C456.14 325.22 454.27 327 454.27 329.2V415.74C454.27 417.94 456.14 419.72 458.45 419.72H547.96C550.27 419.72 552.14 417.94 552.14 415.74V329.2C552.14 327 550.27 325.22 547.96 325.22Z" fill="white" stroke="black" stroke-width="4" stroke-miterlimit="10"/>
<path d="M550.499 325.97H455.239V338.24H550.499V325.97Z" fill="black"/>
<path d="M460.699 334.16C462.406 334.16 463.789 332.777 463.789 331.07C463.789 329.364 462.406 327.98 460.699 327.98C458.993 327.98 457.609 329.364 457.609 331.07C457.609 332.777 458.993 334.16 460.699 334.16Z" fill="#FF0077"/>
<path d="M469.39 334.16C471.096 334.16 472.48 332.777 472.48 331.07C472.48 329.364 471.096 327.98 469.39 327.98C467.683 327.98 466.3 329.364 466.3 331.07C466.3 332.777 467.683 334.16 469.39 334.16Z" fill="white"/>
<path d="M503.199 397.56C514.687 397.56 523.999 388.248 523.999 376.76C523.999 365.272 514.687 355.96 503.199 355.96C491.712 355.96 482.399 365.272 482.399 376.76C482.399 388.248 491.712 397.56 503.199 397.56Z" fill="black"/>
<path d="M547.96 189.85H458.45C456.14 189.85 454.27 191.63 454.27 193.83V280.37C454.27 282.57 456.14 284.35 458.45 284.35H547.96C550.27 284.35 552.14 282.57 552.14 280.37V193.83C552.14 191.63 550.27 189.85 547.96 189.85Z" fill="white" stroke="black" stroke-width="4" stroke-miterlimit="10"/>
<path d="M550.499 190.59H455.239V202.86H550.499V190.59Z" fill="black"/>
<path d="M460.699 198.79C462.406 198.79 463.789 197.406 463.789 195.7C463.789 193.993 462.406 192.61 460.699 192.61C458.993 192.61 457.609 193.993 457.609 195.7C457.609 197.406 458.993 198.79 460.699 198.79Z" fill="#FF0077"/>
<path d="M469.39 198.79C471.096 198.79 472.48 197.406 472.48 195.7C472.48 193.993 471.096 192.61 469.39 192.61C467.683 192.61 466.3 193.993 466.3 195.7C466.3 197.406 467.683 198.79 469.39 198.79Z" fill="white"/>
<path d="M518.629 221.72H487.779C484.808 221.72 482.399 224.129 482.399 227.1V257.95C482.399 260.922 484.808 263.33 487.779 263.33H518.629C521.601 263.33 524.009 260.922 524.009 257.95V227.1C524.009 224.129 521.601 221.72 518.629 221.72Z" fill="#FF0077" stroke="black" stroke-width="4" stroke-miterlimit="10" stroke-linecap="round"/>
<path d="M337 250V297C337 302.523 341.477 307 347 307H411" stroke="black" stroke-width="4" stroke-linejoin="bevel" stroke-dasharray="2 7"/>
<path d="M319 250V297C319 302.523 314.523 307 309 307H252" stroke="black" stroke-width="4" stroke-linejoin="bevel" stroke-dasharray="2 7"/>
<path d="M190.89 72.9702H359.88C364.24 72.9702 367.77 76.3402 367.77 80.4902V243.88C367.77 248.03 364.24 251.4 359.88 251.4H190.89C186.53 251.4 183 248.03 183 243.88V80.4902C183 76.3402 186.53 72.9702 190.89 72.9702Z" fill="white" stroke="black" stroke-width="4" stroke-miterlimit="10"/>
<path d="M192.56 72.01H358.06C362.35 72.01 365.84 75.5 365.84 79.79V99.74H184.79V79.78C184.79 75.49 188.28 72 192.57 72L192.56 72.01Z" fill="black"/>
<path d="M195.83 80.0402C192.61 80.0402 190 82.6504 190 85.8702C190 89.09 192.61 91.7002 195.83 91.7002C199.05 91.7002 201.66 89.09 201.66 85.8702C201.66 82.6504 199.05 80.0402 195.83 80.0402Z" fill="#FF0077"/>
<path d="M212.24 80.0402C209.02 80.0402 206.41 82.6504 206.41 85.8702C206.41 89.09 209.02 91.7002 212.24 91.7002C215.46 91.7002 218.07 89.09 218.07 85.8702C218.07 82.6504 215.46 80.0402 212.24 80.0402Z" fill="white"/>
<g clip-path="url(#clip1_7124_778)">
<path d="M302.39 129H214.73C213.222 129 212 130.222 212 131.73V149.72C212 151.228 213.222 152.45 214.73 152.45H302.39C303.898 152.45 305.12 151.228 305.12 149.72V131.73C305.12 130.222 303.898 129 302.39 129Z" fill="#FF0077" stroke="black" stroke-width="4" stroke-miterlimit="10"/>
<path d="M400.03 163.89H214.73C213.222 163.89 212 165.112 212 166.62V184.61C212 186.118 213.222 187.34 214.73 187.34H400.03C401.538 187.34 402.76 186.118 402.76 184.61V166.62C402.76 165.112 401.538 163.89 400.03 163.89Z" fill="#FF0077" stroke="black" stroke-width="4" stroke-miterlimit="10"/>
<path d="M346.88 198.78H214.73C213.222 198.78 212 200.002 212 201.51V219.5C212 221.008 213.222 222.23 214.73 222.23H346.88C348.388 222.23 349.61 221.008 349.61 219.5V201.51C349.61 200.002 348.388 198.78 346.88 198.78Z" fill="#FF0077" stroke="black" stroke-width="4" stroke-miterlimit="10"/>
</g>
</g>
<defs>
<clipPath id="clip0_7124_778">
<rect width="486.14" height="356.97" fill="white" transform="translate(68 70)"/>
</clipPath>
<clipPath id="clip1_7124_778">
<rect width="194.76" height="97.23" fill="white" transform="translate(210 127)"/>
</clipPath>
</defs>
</svg>
