<svg width="619" height="405" viewBox="0 0 619 405" fill="none" xmlns="http://www.w3.org/2000/svg">
<path d="M459.48 128.08H159.79C155.372 128.08 151.79 131.662 151.79 136.08V345.72C151.79 350.138 155.372 353.72 159.79 353.72H459.48C463.898 353.72 467.48 350.138 467.48 345.72V136.08C467.48 131.662 463.898 128.08 459.48 128.08Z" fill="#FFD2DF"/>
<path d="M273.49 105.9L253.38 124.79C251.41 126.64 251.18 129.69 252.86 131.82L310.24 204.52C312.33 207.16 316.33 207.16 318.42 204.52L375.8 131.82C377.48 129.7 377.25 126.65 375.28 124.79L355.17 105.9C354.2 104.99 352.93 104.49 351.6 104.49H277.05C275.72 104.49 274.45 105 273.48 105.9H273.49Z" fill="#FF0077" stroke="black" stroke-width="4"/>
<path d="M251.771 128.06H376.12" stroke="black" stroke-width="4"/>
<path d="M301.181 104.49L281.431 128.06L314.331 206.5" stroke="black" stroke-width="4"/>
<path d="M327.49 104.49L347.23 128.06L314.33 206.5" stroke="black" stroke-width="4"/>
<path d="M284.2 150.11C284.13 150.31 283.84 150.31 283.76 150.11C279.92 139.37 272.75 132.17 261.98 128.36C261.78 128.29 261.78 128 261.98 127.92C272.72 124.08 279.92 116.91 283.76 106.18C283.83 105.98 284.12 105.98 284.2 106.18C288.04 116.92 295.21 124.12 305.98 127.93C306.18 128 306.18 128.29 305.98 128.37C295.24 132.21 288.04 139.38 284.2 150.11Z" fill="white" stroke="black" stroke-width="4"/>
<path d="M314.681 92.96V31" stroke="black" stroke-width="4" stroke-linecap="round"/>
<path d="M328.98 92.9596L354.34 67.5996" stroke="black" stroke-width="4" stroke-linecap="round"/>
<path d="M299.69 92.9596L274.32 67.5996" stroke="black" stroke-width="4" stroke-linecap="round"/>
<path d="M171.5 254H470.5" stroke="black" stroke-width="4" stroke-linejoin="bevel" stroke-dasharray="2 7"/>
<path d="M227.51 174H76.07C72.17 174 69 177.02 69 180.74V327.16C69 330.88 72.17 333.9 76.07 333.9H227.51C231.41 333.9 234.58 330.88 234.58 327.16V180.74C234.58 177.02 231.41 174 227.51 174Z" fill="white" stroke="black" stroke-width="4" stroke-miterlimit="10"/>
<path d="M233.2 175.26H70.6396V196.02H233.2V175.26Z" fill="black"/>
<path d="M79.8804 189.13C82.7688 189.13 85.1104 186.788 85.1104 183.9C85.1104 181.011 82.7688 178.67 79.8804 178.67C76.9919 178.67 74.6504 181.011 74.6504 183.9C74.6504 186.788 76.9919 189.13 79.8804 189.13Z" fill="#FF0077"/>
<path d="M94.5904 189.13C97.4788 189.13 99.8204 186.788 99.8204 183.9C99.8204 181.011 97.4788 178.67 94.5904 178.67C91.7019 178.67 89.3604 181.011 89.3604 183.9C89.3604 186.788 91.7019 189.13 94.5904 189.13Z" fill="white"/>
<path d="M181.6 227.93H121.97C118.999 227.93 116.59 230.338 116.59 233.31V292.94C116.59 295.911 118.999 298.32 121.97 298.32H181.6C184.571 298.32 186.98 295.911 186.98 292.94V233.31C186.98 230.338 184.571 227.93 181.6 227.93Z" fill="#FF0077" stroke="black" stroke-width="4" stroke-miterlimit="10" stroke-linecap="round"/>
<path d="M542.86 174H391.42C387.52 174 384.35 177.02 384.35 180.74V327.16C384.35 330.88 387.52 333.9 391.42 333.9H542.86C546.76 333.9 549.93 330.88 549.93 327.16V180.74C549.93 177.02 546.76 174 542.86 174Z" fill="white" stroke="black" stroke-width="4" stroke-miterlimit="10"/>
<path d="M549.939 175.26H385.989V196.02H549.939V175.26Z" fill="black"/>
<path d="M395.23 189.13C398.118 189.13 400.46 186.788 400.46 183.9C400.46 181.011 398.118 178.67 395.23 178.67C392.342 178.67 390 181.011 390 183.9C390 186.788 392.342 189.13 395.23 189.13Z" fill="#FF0077"/>
<path d="M409.94 189.13C412.828 189.13 415.17 186.788 415.17 183.9C415.17 181.011 412.828 178.67 409.94 178.67C407.052 178.67 404.71 181.011 404.71 183.9C404.71 186.788 407.052 189.13 409.94 189.13Z" fill="white"/>
<path d="M467.139 296.41C486.58 296.41 502.339 280.65 502.339 261.21C502.339 241.769 486.58 226.01 467.139 226.01C447.699 226.01 431.939 241.769 431.939 261.21C431.939 280.65 447.699 296.41 467.139 296.41Z" fill="#FF0077" stroke="black" stroke-width="4" stroke-miterlimit="10" stroke-linecap="round"/>
</svg>
