<svg width="734" height="431" viewBox="0 0 734 431" fill="none" xmlns="http://www.w3.org/2000/svg">
<path d="M686.115 85.9081V152.485C686.115 156.806 683.803 160.803 680.059 162.959L622.325 196.243C618.58 198.408 613.957 198.408 610.213 196.243L552.478 162.959C548.734 160.794 546.422 156.806 546.422 152.485V85.9081C546.422 81.5866 548.734 77.5895 552.478 75.4336L610.213 42.15C613.957 39.9845 618.58 39.9845 622.325 42.15L680.059 75.4336C683.803 77.5991 686.115 81.5866 686.115 85.9081Z" fill="#FFD2DF"/>
<path d="M686.115 287.041V353.618C686.115 357.94 683.803 361.937 680.059 364.093L622.325 397.376C618.58 399.542 613.957 399.542 610.213 397.376L552.478 364.093C548.734 361.927 546.422 357.94 546.422 353.618V287.041C546.422 282.72 548.734 278.723 552.478 276.567L610.213 243.283C613.957 241.118 618.58 241.118 622.325 243.283L680.059 276.567C683.803 278.732 686.115 282.72 686.115 287.041Z" fill="#FFD2DF"/>
<path d="M510.63 139.043V290.961C510.63 295.283 508.319 299.28 504.574 301.436L372.839 377.39C369.094 379.555 364.471 379.555 360.726 377.39L228.991 301.436C225.246 299.27 222.935 295.283 222.935 290.961V139.043C222.935 134.722 225.246 130.725 228.991 128.569L360.726 52.6148C364.471 50.4494 369.094 50.4494 372.839 52.6148L504.574 128.569C508.319 130.734 510.63 134.722 510.63 139.043Z" fill="#FFD2DF"/>
<path d="M660.477 374.977L636.214 355.726H599.151L571.115 374.824C570.599 374.939 597.957 390.088 610.222 397.366C613.842 399.513 618.991 399.551 622.64 397.433C634.695 390.412 661.002 375.053 660.486 374.977H660.477Z" fill="#FF0077"/>
<path d="M616.135 171.564H575.423V77.6752C575.423 55.8773 593.649 38.21 616.135 38.21C638.621 38.21 656.847 55.8773 656.847 77.6752V169.828" fill="#FF0077"/>
<path d="M616.135 171.564H575.423V77.6752C575.423 55.8773 593.649 38.21 616.135 38.21C638.621 38.21 656.847 55.8773 656.847 77.6752V169.828" stroke="black" stroke-width="4"/>
<path d="M552.306 157.55C554.761 151.617 559.91 147.228 566.167 145.74L599.16 137.25H634.236C634.236 137.25 655.29 142.735 667.211 145.588C673.773 147.152 679.103 151.922 681.386 158.266L681.788 159.344L623.92 193.925C619.22 196.739 613.346 196.748 608.636 193.963L551.695 160.288C551.533 160.193 551.466 160.002 551.523 159.821L552.316 157.55H552.306Z" fill="black" stroke="black" stroke-width="4"/>
<path d="M633.156 136.955V123.189H599.102V137.26L591.317 139.463L595.243 165.573C596.208 171.965 602.303 176.744 609.524 176.744H622.601C629.87 176.744 636.003 171.898 636.91 165.449L640.588 139.044L633.156 136.964V136.955Z" fill="white" stroke="black" stroke-width="4"/>
<path d="M598.535 130.858L632.99 139.129V125.116L598.535 124V130.858Z" fill="black"/>
<path d="M590.21 103.147C590.21 117.437 601.825 129.008 616.125 128.97H616.259C630.511 128.932 642.05 117.38 642.05 103.147V84.9545L590.2 84.8496L590.21 103.147Z" fill="white" stroke="black" stroke-width="4"/>
<path d="M615.943 175.914V170.276" stroke="black" stroke-width="4" stroke-linecap="round"/>
<path d="M637.178 225.308C642.917 225.308 648.696 229.946 650.125 235.891V235.892C651.271 240.644 649.924 246.18 646.447 250.604L644.148 253.53L647.857 253.834C651.049 254.095 654.143 255.088 656.868 256.723C659.328 258.199 661.04 259.941 662.069 261.845C663.532 264.553 663.805 268.106 662.663 271.605C661.532 275.057 659.12 278.12 656.041 280.044L655.741 280.227C655.639 280.286 655.534 280.346 655.42 280.411C655.316 280.471 655.204 280.535 655.092 280.6C654.431 280.966 653.298 281.566 652.588 282.456L652.583 282.463L652.578 282.469C652.08 283.104 651.818 283.825 651.657 284.458C651.496 285.087 651.401 285.771 651.32 286.406L649.419 300.718C649.376 301.033 649.361 301.49 649.347 301.736L649.346 301.746C649.291 302.845 649.223 303.957 648.924 304.839C648.649 305.651 648.344 305.842 647.975 305.9L647.967 305.901L647.958 305.903C647.929 305.908 647.874 305.914 647.761 305.914C647.339 305.914 646.789 305.73 646.042 305.19C645.293 304.65 644.53 303.888 643.686 302.993H643.685C643.546 302.846 643.384 302.673 643.237 302.525H643.238L631.499 290.563C629.75 288.781 627.332 286.263 624.328 285.251C623.084 284.83 621.711 284.65 620.194 284.65C619.486 284.65 618.737 284.693 617.9 284.762L617.892 284.763C610.057 285.439 602.555 288.176 595.535 290.891L593.678 291.608L594.387 293.468C595.968 297.618 597.538 301.759 599.11 305.909L591.511 307.302L591.503 307.303C591.052 307.387 590.609 307.46 590.19 307.46H589.941C589.725 307.443 589.535 307.403 589.351 307.345C588.842 307.173 588.421 306.814 588.069 306.342C587.711 305.861 587.496 305.366 587.361 305.046L587.358 305.039C586.684 303.46 586.619 302.131 586.542 300.53H586.542C586.504 299.643 586.462 298.671 586.264 297.571C585.711 294.452 585.005 291.272 584.272 287.964L584.271 287.962C583.187 283.086 582.094 278.157 581.525 273.501L581.524 273.499L581.303 271.636C580.813 267.251 580.603 262.645 582.615 258.655V258.654C584.68 254.553 589.408 251.694 594.365 251.694C594.851 251.694 595.354 251.727 595.848 251.785L595.965 251.799H596.179C597.621 251.799 598.8 250.706 598.991 249.341L598.993 249.333C599.443 246.007 600.317 242.314 602.909 239.742C605.248 237.42 608.305 236.548 611.85 235.809L613.399 235.496C615.71 235.038 618.157 234.565 620.376 233.632L620.38 233.631C622.045 232.927 623.588 231.951 625.052 230.947L626.492 229.943C629.373 227.921 631.952 226.137 635.084 225.507L635.085 225.508C635.758 225.373 636.459 225.308 637.178 225.308Z" fill="#FF0077" stroke="black" stroke-width="4"/>
<path d="M635.191 326.125H599.686V349.573H635.191V326.125Z" fill="black" stroke="black" stroke-width="4"/>
<path d="M611.713 335.989L635.574 341.188V328.71L611.713 335.989Z" fill="black"/>
<path d="M660.477 374.977L635.192 354.924H599.686L571.937 373.813" stroke="black" stroke-width="4" stroke-linecap="round"/>
<path d="M617.778 335.235C602.781 335.34 590.573 323.215 590.592 308.238V281.108C590.592 279.257 592.092 277.759 593.945 277.759H641.391C643.254 277.759 644.753 279.276 644.744 281.127L644.581 308.439C644.495 323.196 632.545 335.13 617.768 335.235H617.778Z" fill="black" stroke="black" stroke-width="4"/>
<path d="M590.592 311.042C586.475 311.042 583.131 307.704 583.131 303.592C583.131 299.48 586.475 296.142 590.592 296.142V311.042Z" fill="black" stroke="black" stroke-width="4"/>
<path d="M644.649 296.142C648.766 296.142 652.119 299.461 652.128 303.582C652.128 307.694 648.804 311.042 644.678 311.052L644.649 296.151V296.142Z" fill="black" stroke="black" stroke-width="4"/>
<path d="M616.278 350.183V399.007" stroke="black" stroke-width="4" stroke-linecap="round"/>
<path d="M635.191 341.188H599.686V354.924H635.191V341.188Z" fill="white" stroke="black" stroke-width="4"/>
<path d="M616.737 366.611H624.828" stroke="black" stroke-width="4" stroke-linecap="round"/>
<path d="M602.57 314.572C609.16 314.572 614.501 309.238 614.501 302.657C614.501 296.077 609.16 290.742 602.57 290.742C595.981 290.742 590.64 296.077 590.64 302.657C590.64 309.238 595.981 314.572 602.57 314.572Z" stroke="white" stroke-width="4" stroke-miterlimit="10"/>
<path d="M632.765 314.572C639.354 314.572 644.696 309.238 644.696 302.657C644.696 296.077 639.354 290.742 632.765 290.742C626.176 290.742 620.834 296.077 620.834 302.657C620.834 309.238 626.176 314.572 632.765 314.572Z" stroke="white" stroke-width="4" stroke-miterlimit="10"/>
<path d="M614.511 302.658H620.835" stroke="white" stroke-width="4" stroke-miterlimit="10"/>
<path d="M186.702 85.9081V152.485C186.702 156.806 184.391 160.803 180.646 162.959L122.912 196.243C119.168 198.408 114.544 198.408 110.8 196.243L53.0657 162.959C49.3212 160.794 47 156.806 47 152.485V85.9081C47 81.5866 49.3117 77.5895 53.0562 75.4336L110.8 42.15C114.544 39.9845 119.168 39.9845 122.912 42.15L180.646 75.4336C184.391 77.5991 186.702 81.5866 186.702 85.9081Z" fill="#FFD2DF"/>
<path d="M109.969 195.909C114.506 198.504 120.075 198.495 124.603 195.89L180.293 163.894C184.276 161.366 186.693 156.978 186.693 152.266V148.86C186.693 147.343 186.558 148.477 185.058 148.239L141.052 138.958H93.5198L48.7854 150.024C47.5913 150.291 47.0001 150.224 47.0001 151.445V151.903C46.981 156.644 49.4073 161.061 53.4288 163.599L109.969 195.919V195.909Z" fill="#FF0077"/>
<path d="M141.262 57.1855C141.262 57.1855 159.517 48.9242 146.268 39.7662C130.249 30.0167 80.3475 40.7297 79.8222 60.7914C79.4401 75.4633 79.8222 94.7524 79.8222 94.7524L154.951 95.2389V72.8304C154.951 65.6471 151.159 59.122 141.253 57.1855H141.262Z" fill="black"/>
<path d="M185.654 148.834C185.654 148.834 141.115 138.969 140.428 138.969H94.3226L48.1904 150.619" fill="#FF0077"/>
<path d="M185.654 148.834C185.654 148.834 141.115 138.969 140.428 138.969H94.3226L48.1904 150.619" stroke="black" stroke-width="4" stroke-linecap="round"/>
<path d="M117.295 169.82C117.295 169.82 96.8818 156.989 96.8818 145.732V125.346H137.708V145.732C137.708 156.989 117.295 169.82 117.295 169.82Z" fill="white" stroke="black" stroke-width="4"/>
<path d="M110.674 135.778L138.108 141.759V127.412L110.674 135.778Z" fill="black"/>
<path d="M86.0213 108.012C81.2834 108.012 77.4434 104.178 77.4434 99.4459C77.4434 94.7143 81.2834 90.8794 86.0213 90.8794V108.012Z" fill="white" stroke="black" stroke-width="4"/>
<path d="M148.426 90.8696C153.164 90.8696 157.013 94.695 157.023 99.4266C157.032 104.158 153.192 108.003 148.454 108.012L148.426 90.8792V90.8696Z" fill="white" stroke="black" stroke-width="4"/>
<path d="M86.1836 80.3383C86.1836 65.9049 100.111 59.418 117.295 59.418C134.48 59.418 148.407 65.9049 148.407 80.3383L148.273 105.141C148.168 122.103 134.432 135.83 117.448 135.954C100.206 136.078 86.174 122.141 86.1931 104.922V80.3478L86.1836 80.3383Z" fill="white" stroke="black" stroke-width="4"/>
<path d="M86.2314 95.2476H148.36" stroke="black" stroke-width="4" stroke-miterlimit="10"/>
<path d="M103.234 106.381C109.391 106.381 114.382 101.396 114.382 95.2479C114.382 89.0995 109.391 84.1152 103.234 84.1152C97.0778 84.1152 92.0869 89.0995 92.0869 95.2479C92.0869 101.396 97.0778 106.381 103.234 106.381Z" fill="white" stroke="black" stroke-width="4" stroke-miterlimit="10"/>
<path d="M131.442 106.381C137.599 106.381 142.59 101.396 142.59 95.2479C142.59 89.0995 137.599 84.1152 131.442 84.1152C125.286 84.1152 120.295 89.0995 120.295 95.2479C120.295 101.396 125.286 106.381 131.442 106.381Z" fill="white" stroke="black" stroke-width="4" stroke-miterlimit="10"/>
<path d="M128.215 109.786H106.368C103.646 109.786 101.439 111.99 101.439 114.709V119.202H112.367C115.09 119.202 117.296 116.998 117.296 114.279C117.296 116.998 119.503 119.202 122.225 119.202H133.153V114.709C133.153 111.99 130.946 109.786 128.224 109.786H128.215Z" fill="black"/>
<path d="M117.296 169.82V195.777" stroke="black" stroke-width="4" stroke-linecap="round"/>
<path d="M117.296 169.819L103.236 163.847L92.7089 175.772L88.1143 147.439L95.8421 135.496L96.2719 138.357C97.4946 146.523 101.344 154.079 107.228 159.888L117.296 169.819Z" fill="#FF0077" stroke="black" stroke-width="4"/>
<path d="M116.856 169.819L130.917 163.847L141.444 175.772L146.039 147.439L138.311 135.496L137.881 138.357C136.658 146.523 132.809 154.079 126.925 159.888L116.856 169.819Z" fill="#FF0077" stroke="black" stroke-width="4"/>
<path d="M95.9844 43.162C95.9844 43.162 118.642 30.627 122.167 31.0085C125.692 31.3997 127.259 36.4843 125.176 38.1823" fill="black"/>
<path d="M186.702 285.161V351.738C186.702 356.06 184.391 360.057 180.646 362.213L122.912 395.496C119.168 397.662 114.544 397.662 110.8 395.496L53.0659 362.213C49.3214 360.047 47.0098 356.06 47.0098 351.738V285.161C47.0098 280.84 49.3214 276.843 53.0659 274.687L110.8 241.403C114.544 239.238 119.168 239.238 122.912 241.403L180.646 274.687C184.391 276.852 186.702 280.84 186.702 285.161Z" fill="#FFD2DF"/>
<path d="M117.229 321.269C111.145 321.269 105.05 320.106 99.3189 317.787C93.5875 315.469 88.2191 311.987 83.5767 307.351C78.9343 302.715 69.831 289.989 67.5098 284.275L71.9898 278.198C76.8232 271.654 80.9498 264.623 84.3313 257.221L89.7857 244.066C96.969 228.22 111.135 226.227 117.22 226.227" fill="#FF0077"/>
<path d="M118.07 321.269C124.155 321.269 130.249 320.106 135.981 317.787C141.712 315.469 147.081 311.987 151.723 307.351C156.365 302.715 165.469 289.989 167.79 284.275L163.31 278.198C158.476 271.654 154.35 264.623 150.968 257.221L145.514 244.066C138.331 228.22 124.165 226.227 118.08 226.227" fill="#FF0077"/>
<path d="M133.61 299.643H101.696V357.892H133.61V299.643Z" fill="white" stroke="black" stroke-width="4"/>
<path d="M112.195 308.506L133.64 313.18V301.962L112.195 308.506Z" fill="black"/>
<path d="M174.667 365.61L168.668 341.227C166.853 336.19 162.621 332.403 157.415 331.153C147.949 328.892 133.754 325.515 133.296 325.515H101.382L77.1666 331.277C72.1994 332.46 68.111 335.951 66.1624 340.654L59.0459 365.572L109.778 394.887C114.163 397.415 119.56 397.425 123.944 394.887L174.667 365.591V365.61Z" fill="black"/>
<path d="M117.649 286.126C134.215 286.126 147.644 272.715 147.644 256.172C147.644 239.628 134.215 226.217 117.649 226.217C101.084 226.217 87.6553 239.628 87.6553 256.172C87.6553 272.715 101.084 286.126 117.649 286.126Z" fill="#FF0077"/>
<path d="M117.744 307.828C104.266 307.923 93.3 297.029 93.3096 283.569V259.185C93.3096 257.526 94.6564 256.171 96.3281 256.171H138.97C140.641 256.171 141.998 257.526 141.988 259.204L141.845 283.75C141.768 297.01 131.032 307.742 117.754 307.828H117.744Z" fill="white" stroke="black" stroke-width="4"/>
<path d="M117.582 257.545C117.582 264.442 110.886 270.032 102.623 270.032C94.3602 270.032 87.6641 264.442 87.6641 257.545C87.6641 250.648 109.462 245.058 117.725 245.058C117.725 245.058 117.582 250.648 117.582 257.545Z" fill="#FF0077"/>
<path d="M117.372 257.545C117.372 264.442 124.068 270.032 132.331 270.032C140.593 270.032 147.29 264.442 147.29 257.545C147.29 250.648 125.491 245.058 117.229 245.058C117.229 245.058 117.372 250.648 117.372 257.545Z" fill="#FF0077"/>
<path d="M141.941 266.512C139.343 268.334 135.99 270.032 132.331 270.032C124.069 270.032 117.372 264.442 117.372 257.545H117.229C117.229 264.442 110.533 270.032 102.27 270.032C98.86 270.032 95.7269 268.477 93.2051 266.875" stroke="black" stroke-width="4" stroke-linecap="round" stroke-linejoin="round"/>
<path d="M93.2057 286.087C89.4994 286.087 86.5 283.092 86.5 279.391C86.5 275.689 89.4994 272.694 93.2057 272.694V286.087Z" fill="white" stroke="black" stroke-width="4"/>
<path d="M141.988 272.694C145.695 272.694 148.704 275.68 148.704 279.381C148.704 283.082 145.714 286.087 142.007 286.087L141.988 272.694Z" fill="white" stroke="black" stroke-width="4"/>
<path d="M133.639 316.91H101.696V334.806H133.639V316.91Z" fill="black"/>
<path d="M118.068 321.269C124.153 321.269 130.248 320.105 135.979 317.787C141.71 315.469 147.079 311.987 151.721 307.351C155.638 303.44 162.706 293.795 166.231 287.442C167.253 285.601 167.091 283.33 165.839 281.642L163.308 278.207C158.475 271.663 154.348 264.633 150.967 257.23L145.512 244.075C138.329 228.23 124.163 226.236 118.078 226.236H117.237C111.153 226.236 96.9866 228.22 89.8033 244.075L84.3489 257.23C80.9769 264.633 76.8408 271.663 72.0073 278.207L69.476 281.642C68.2246 283.34 68.0718 285.601 69.0843 287.442C72.6091 293.805 79.6778 303.449 83.5943 307.351C88.2367 311.987 93.6051 315.469 99.3364 317.787C105.068 320.105 111.153 321.269 117.247 321.269" stroke="black" stroke-width="4" stroke-miterlimit="10"/>
<path d="M438.863 214.998C438.863 165.84 416.024 143.012 366.782 143.012C317.54 143.012 294.7 165.84 294.7 214.998C294.7 264.155 317.54 286.984 366.782 286.984C416.024 286.984 438.863 264.155 438.863 214.998Z" fill="#FF0077" stroke="black" stroke-width="4"/>
<path d="M190.972 316.91H253.319L295.264 275.021" stroke="black" stroke-width="4" stroke-linecap="round" stroke-linejoin="round" stroke-dasharray="2 7"/>
<path d="M190.972 121.73H253.319L295.264 163.609" stroke="black" stroke-width="4" stroke-linecap="round" stroke-linejoin="round" stroke-dasharray="2 7"/>
<path d="M543.155 121.73H480.807L438.863 163.609" stroke="black" stroke-width="4" stroke-linecap="round" stroke-linejoin="round" stroke-dasharray="2 7"/>
<path d="M543.155 316.91H480.807L438.863 275.021" stroke="black" stroke-width="4" stroke-linecap="round" stroke-linejoin="round" stroke-dasharray="2 7"/>
</svg>
