<svg width="734" height="431" viewBox="0 0 734 431" fill="none" xmlns="http://www.w3.org/2000/svg">
<path d="M510.63 139.044V290.962C510.63 295.283 508.319 299.28 504.574 301.436L372.839 377.39C369.094 379.556 364.471 379.556 360.726 377.39L228.991 301.436C225.246 299.271 222.935 295.283 222.935 290.962V139.044C222.935 134.723 225.246 130.725 228.991 128.569L360.726 52.6153C364.471 50.4498 369.094 50.4498 372.839 52.6153L504.574 128.569C508.319 130.735 510.63 134.723 510.63 139.044Z" fill="#FFD2DF"/>
<path d="M186.702 85.9086V152.485C186.702 156.807 184.391 160.804 180.646 162.96L122.912 196.243C119.168 198.409 114.544 198.409 110.8 196.243L53.0657 162.96C49.3212 160.794 47 156.807 47 152.485V85.9086C47 81.5871 49.3117 77.59 53.0562 75.4341L110.8 42.1505C114.544 39.985 119.168 39.985 122.912 42.1505L180.646 75.4341C184.391 77.5996 186.702 81.5871 186.702 85.9086Z" fill="#FFD2DF"/>
<path d="M109.969 195.909C114.506 198.504 120.075 198.495 124.603 195.89L180.293 163.894C184.276 161.366 186.693 156.978 186.693 152.266V148.86C186.693 147.343 186.558 148.477 185.058 148.239L141.052 138.958H93.5198L48.7854 150.024C47.5913 150.291 47.0001 150.224 47.0001 151.445V151.903C46.981 156.644 49.4073 161.061 53.4288 163.599L109.969 195.919V195.909Z" fill="#FF0077"/>
<path d="M141.262 57.1855C141.262 57.1855 159.517 48.9242 146.268 39.7662C130.249 30.0167 80.3475 40.7297 79.8222 60.7914C79.4401 75.4633 79.8222 94.7524 79.8222 94.7524L154.951 95.2389V72.8304C154.951 65.6471 151.159 59.122 141.253 57.1855H141.262Z" fill="black"/>
<path d="M185.654 148.834C185.654 148.834 141.115 138.969 140.428 138.969H94.3226L48.1904 150.619" fill="#FF0077"/>
<path d="M185.654 148.834C185.654 148.834 141.115 138.969 140.428 138.969H94.3226L48.1904 150.619" stroke="black" stroke-width="4" stroke-linecap="round"/>
<path d="M117.295 169.819C117.295 169.819 96.8818 156.989 96.8818 145.732V125.346H137.708V145.732C137.708 156.989 117.295 169.819 117.295 169.819Z" fill="white" stroke="black" stroke-width="4"/>
<path d="M110.674 135.777L138.108 141.759V127.411L110.674 135.777Z" fill="black"/>
<path d="M86.0213 108.012C81.2834 108.012 77.4434 104.177 77.4434 99.4455C77.4434 94.7138 81.2834 90.8789 86.0213 90.8789V108.012Z" fill="white" stroke="black" stroke-width="4"/>
<path d="M148.426 90.8691C153.164 90.8691 157.013 94.6945 157.023 99.4261C157.032 104.158 153.192 108.002 148.454 108.012L148.426 90.8787V90.8691Z" fill="white" stroke="black" stroke-width="4"/>
<path d="M86.1836 80.3373C86.1836 65.9039 100.111 59.417 117.295 59.417C134.48 59.417 148.407 65.9039 148.407 80.3373L148.273 105.14C148.168 122.102 134.432 135.829 117.448 135.953C100.206 136.077 86.174 122.14 86.1931 104.921V80.3468L86.1836 80.3373Z" fill="white" stroke="black" stroke-width="4"/>
<path d="M86.2314 95.248H148.36" stroke="black" stroke-width="4" stroke-miterlimit="10"/>
<path d="M103.234 106.381C109.391 106.381 114.382 101.396 114.382 95.2479C114.382 89.0995 109.391 84.1152 103.234 84.1152C97.0778 84.1152 92.0869 89.0995 92.0869 95.2479C92.0869 101.396 97.0778 106.381 103.234 106.381Z" fill="white" stroke="black" stroke-width="4" stroke-miterlimit="10"/>
<path d="M131.442 106.381C137.599 106.381 142.59 101.396 142.59 95.2479C142.59 89.0995 137.599 84.1152 131.442 84.1152C125.286 84.1152 120.295 89.0995 120.295 95.2479C120.295 101.396 125.286 106.381 131.442 106.381Z" fill="white" stroke="black" stroke-width="4" stroke-miterlimit="10"/>
<path d="M128.215 109.786H106.368C103.646 109.786 101.439 111.99 101.439 114.709V119.202H112.367C115.09 119.202 117.296 116.998 117.296 114.279C117.296 116.998 119.503 119.202 122.225 119.202H133.153V114.709C133.153 111.99 130.946 109.786 128.224 109.786H128.215Z" fill="black"/>
<path d="M117.296 169.819V195.777" stroke="black" stroke-width="4" stroke-linecap="round"/>
<path d="M117.296 169.82L103.236 163.848L92.7089 175.772L88.1143 147.44L95.8421 135.496L96.2719 138.358C97.4946 146.524 101.344 154.079 107.228 159.889L117.296 169.82Z" fill="#FF0077" stroke="black" stroke-width="4"/>
<path d="M116.856 169.82L130.917 163.848L141.444 175.772L146.039 147.44L138.311 135.496L137.881 138.358C136.658 146.524 132.809 154.079 126.925 159.889L116.856 169.82Z" fill="#FF0077" stroke="black" stroke-width="4"/>
<path d="M95.9844 43.162C95.9844 43.162 118.642 30.627 122.167 31.0085C125.692 31.3997 127.259 36.4843 125.176 38.1823" fill="black"/>
<path d="M186.702 285.161V351.737C186.702 356.059 184.391 360.056 180.646 362.212L122.912 395.495C119.168 397.661 114.544 397.661 110.8 395.495L53.0659 362.212C49.3214 360.046 47.0098 356.059 47.0098 351.737V285.161C47.0098 280.839 49.3214 276.842 53.0659 274.686L110.8 241.402C114.544 239.237 119.168 239.237 122.912 241.402L180.646 274.686C184.391 276.852 186.702 280.839 186.702 285.161Z" fill="#FFD2DF"/>
<path d="M117.229 321.268C111.145 321.268 105.05 320.105 99.3189 317.786C93.5875 315.468 88.2191 311.986 83.5767 307.35C78.9343 302.714 69.831 289.988 67.5098 284.274L71.9898 278.197C76.8232 271.653 80.9498 264.622 84.3313 257.22L89.7857 244.065C96.969 228.219 111.135 226.226 117.22 226.226" fill="#FF0077"/>
<path d="M118.07 321.268C124.155 321.268 130.249 320.105 135.981 317.786C141.712 315.468 147.081 311.986 151.723 307.35C156.365 302.714 165.469 289.988 167.79 284.274L163.31 278.197C158.476 271.653 154.35 264.622 150.968 257.22L145.514 244.065C138.331 228.219 124.165 226.226 118.08 226.226" fill="#FF0077"/>
<path d="M133.61 299.643H101.696V357.891H133.61V299.643Z" fill="white" stroke="black" stroke-width="4"/>
<path d="M112.195 308.505L133.64 313.179V301.961L112.195 308.505Z" fill="black"/>
<path d="M174.667 365.61L168.668 341.226C166.853 336.189 162.621 332.402 157.415 331.153C147.949 328.892 133.754 325.515 133.296 325.515H101.382L77.1666 331.277C72.1994 332.459 68.111 335.951 66.1624 340.654L59.0459 365.571L109.778 394.886C114.163 397.414 119.56 397.424 123.944 394.886L174.667 365.59V365.61Z" fill="black"/>
<path d="M117.649 286.124C134.215 286.124 147.644 272.713 147.644 256.17C147.644 239.627 134.215 226.216 117.649 226.216C101.084 226.216 87.6553 239.627 87.6553 256.17C87.6553 272.713 101.084 286.124 117.649 286.124Z" fill="#FF0077"/>
<path d="M117.744 307.827C104.266 307.922 93.3 297.028 93.3096 283.568V259.184C93.3096 257.525 94.6564 256.17 96.3281 256.17H138.97C140.641 256.17 141.998 257.525 141.988 259.204L141.845 283.749C141.768 297.009 131.032 307.741 117.754 307.827H117.744Z" fill="white" stroke="black" stroke-width="4"/>
<path d="M117.582 257.544C117.582 264.441 110.886 270.031 102.623 270.031C94.3602 270.031 87.6641 264.441 87.6641 257.544C87.6641 250.647 109.462 245.057 117.725 245.057C117.725 245.057 117.582 250.647 117.582 257.544Z" fill="#FF0077"/>
<path d="M117.372 257.544C117.372 264.441 124.068 270.031 132.331 270.031C140.593 270.031 147.29 264.441 147.29 257.544C147.29 250.647 125.491 245.057 117.229 245.057C117.229 245.057 117.372 250.647 117.372 257.544Z" fill="#FF0077"/>
<path d="M141.941 266.511C139.343 268.333 135.99 270.031 132.331 270.031C124.069 270.031 117.372 264.441 117.372 257.544H117.229C117.229 264.441 110.533 270.031 102.27 270.031C98.86 270.031 95.7269 268.476 93.2051 266.874" stroke="black" stroke-width="4" stroke-linecap="round" stroke-linejoin="round"/>
<path d="M93.2057 286.086C89.4994 286.086 86.5 283.091 86.5 279.389C86.5 275.688 89.4994 272.692 93.2057 272.692V286.086Z" fill="white" stroke="black" stroke-width="4"/>
<path d="M141.988 272.692C145.695 272.692 148.704 275.678 148.704 279.38C148.704 283.081 145.714 286.086 142.007 286.086L141.988 272.692Z" fill="white" stroke="black" stroke-width="4"/>
<path d="M133.639 316.909H101.696V334.805H133.639V316.909Z" fill="black"/>
<path d="M118.068 321.268C124.153 321.268 130.248 320.104 135.979 317.786C141.71 315.468 147.079 311.986 151.721 307.349C155.638 303.438 162.706 293.794 166.231 287.44C167.253 285.599 167.091 283.329 165.839 281.64L163.308 278.206C158.475 271.662 154.348 264.631 150.967 257.228L145.512 244.073C138.329 228.228 124.163 226.234 118.078 226.234H117.237C111.153 226.234 96.9866 228.219 89.8033 244.073L84.3489 257.228C80.9769 264.631 76.8408 271.662 72.0073 278.206L69.476 281.64C68.2246 283.338 68.0718 285.599 69.0843 287.44C72.6091 293.803 79.6778 303.448 83.5943 307.349C88.2367 311.986 93.6051 315.468 99.3364 317.786C105.068 320.104 111.153 321.268 117.247 321.268" stroke="black" stroke-width="4" stroke-miterlimit="10"/>
<path d="M438.864 214.997C438.864 165.84 416.025 143.012 366.783 143.012C317.541 143.012 294.701 165.84 294.701 214.997C294.701 264.155 317.541 286.983 366.783 286.983C416.025 286.983 438.864 264.155 438.864 214.997Z" fill="#FF0077" stroke="black" stroke-width="4"/>
<path d="M190.972 316.909H253.319L295.264 275.021" stroke="black" stroke-width="4" stroke-linecap="round" stroke-linejoin="round" stroke-dasharray="2 7"/>
<path d="M190.972 121.729H253.319L295.264 163.608" stroke="black" stroke-width="4" stroke-linecap="round" stroke-linejoin="round" stroke-dasharray="2 7"/>
<path d="M543.155 121.729H480.807L438.863 163.608" stroke="black" stroke-width="4" stroke-linecap="round" stroke-linejoin="round" stroke-dasharray="2 7"/>
<path d="M543.155 316.909H480.807L438.863 275.021" stroke="black" stroke-width="4" stroke-linecap="round" stroke-linejoin="round" stroke-dasharray="2 7"/>
<path d="M558.895 55H685.125C688.382 55 691.02 57.5102 691.02 60.6127V182.654C691.02 185.757 688.382 188.267 685.125 188.267H558.895C555.637 188.267 553 185.757 553 182.654V60.6127C553 57.5102 555.637 55 558.895 55Z" fill="white" stroke="black" stroke-width="3.53837" stroke-miterlimit="10"/>
<path d="M552.999 56.1602H689.881V73.5604H552.999V56.1602Z" fill="black"/>
<path d="M563.358 59.9996C565.764 59.9996 567.715 61.9506 567.715 64.3572C567.715 66.7639 565.764 68.7148 563.358 68.7148C560.951 68.7148 559 66.7639 559 64.3572C559 61.9506 560.951 59.9996 563.358 59.9996Z" fill="#FF0077"/>
<path d="M575.613 59.9996C578.02 59.9996 579.971 61.9506 579.971 64.3572C579.971 66.7639 578.02 68.7148 575.613 68.7148C573.206 68.7148 571.255 66.7639 571.255 64.3572C571.255 61.9506 573.206 59.9996 575.613 59.9996Z" fill="white"/>
<path d="M651.897 111.412V145.91L622.021 163.159L592.146 145.91V111.412L622.021 94.1631L651.897 111.412Z" fill="#FFD2DF" stroke="black" stroke-width="3.53837"/>
<path d="M636.521 128.661C636.521 118.759 631.927 114.161 622.021 114.161C612.115 114.161 607.521 118.759 607.521 128.661C607.521 138.563 612.115 143.162 622.021 143.162C631.927 143.162 636.521 138.563 636.521 128.661Z" fill="#FF0077" stroke="black" stroke-width="3.53837"/>
<path d="M558.895 250H685.125C688.382 250 691.02 252.51 691.02 255.613V377.654C691.02 380.757 688.382 383.267 685.125 383.267H558.895C555.637 383.267 553 380.757 553 377.654V255.613C553 252.51 555.637 250 558.895 250Z" fill="white" stroke="black" stroke-width="3.53837" stroke-miterlimit="10"/>
<path d="M552.999 251.16H689.881V268.56H552.999V251.16Z" fill="black"/>
<path d="M562.358 255.001C564.764 255.001 566.715 256.952 566.715 259.358C566.715 261.765 564.764 263.716 562.358 263.716C559.951 263.716 558 261.765 558 259.358C558 256.952 559.951 255.001 562.358 255.001Z" fill="#FF0077"/>
<path d="M574.613 255.001C577.02 255.001 578.971 256.952 578.971 259.358C578.971 261.765 577.02 263.716 574.613 263.716C572.206 263.716 570.255 261.765 570.255 259.358C570.255 256.952 572.206 255.001 574.613 255.001Z" fill="white"/>
<path d="M628.234 288.114L658.997 318.877C661.96 321.84 661.96 326.644 658.997 329.607L628.234 360.37C625.271 363.333 620.467 363.333 617.504 360.37L586.741 329.607C583.778 326.644 583.778 321.84 586.741 318.877L617.504 288.114C620.467 285.151 625.271 285.151 628.234 288.114Z" fill="#FFD2DF" stroke="black" stroke-width="3.53837" stroke-miterlimit="10" stroke-linecap="round"/>
<path d="M636.521 324.822C636.521 314.92 631.927 310.321 622.021 310.321C612.115 310.321 607.521 314.92 607.521 324.822C607.521 334.723 612.115 339.322 622.021 339.322C631.927 339.322 636.521 334.723 636.521 324.822Z" fill="#FF0077" stroke="black" stroke-width="3.53837"/>
</svg>
