<svg width="758" height="504" viewBox="0 0 758 504" fill="none" xmlns="http://www.w3.org/2000/svg">
<path d="M331.894 345.559H456.29C461.221 345.559 465.219 341.561 465.219 336.63V177.302C465.219 172.371 469.216 168.373 474.148 168.373H542.764" stroke="black" stroke-width="4" stroke-dasharray="2 7"/>
<path d="M120.297 291.708L120.297 62.014" stroke="black" stroke-width="4" stroke-linecap="round" stroke-dasharray="2 7"/>
<path d="M272.763 323.859V177.08" stroke="black" stroke-width="4" stroke-linecap="round" stroke-dasharray="2 7"/>
<path d="M331.894 384.654C330.789 384.654 329.894 385.55 329.894 386.654C329.894 387.759 330.789 388.654 331.894 388.654L331.894 386.654L331.894 384.654ZM332.912 388.654C334.017 388.654 334.912 387.759 334.912 386.654C334.912 385.55 334.017 384.654 332.912 384.654L332.912 386.654L332.912 388.654ZM340.043 384.654C338.939 384.654 338.043 385.55 338.043 386.654C338.043 387.759 338.939 388.654 340.043 388.654L340.043 386.654L340.043 384.654ZM342.081 388.654C343.185 388.654 344.081 387.759 344.081 386.654C344.081 385.55 343.185 384.654 342.081 384.654L342.081 386.654L342.081 388.654ZM349.211 384.654C348.107 384.654 347.211 385.55 347.211 386.654C347.211 387.759 348.107 388.654 349.211 388.654L349.211 386.654L349.211 384.654ZM351.249 388.654C352.353 388.654 353.249 387.759 353.249 386.654C353.249 385.55 352.353 384.654 351.249 384.654L351.249 386.654L351.249 388.654ZM358.38 384.654C357.275 384.654 356.38 385.55 356.38 386.654C356.38 387.759 357.275 388.654 358.38 388.654L358.38 386.654L358.38 384.654ZM360.417 388.654C361.522 388.654 362.417 387.759 362.417 386.654C362.417 385.55 361.522 384.654 360.417 384.654L360.417 386.654L360.417 388.654ZM367.548 384.654C366.443 384.654 365.548 385.55 365.548 386.654C365.548 387.759 366.443 388.654 367.548 388.654L367.548 386.654L367.548 384.654ZM369.585 388.654C370.69 388.654 371.585 387.759 371.585 386.654C371.585 385.55 370.69 384.654 369.585 384.654L369.585 386.654L369.585 388.654ZM376.716 384.654C375.612 384.654 374.716 385.55 374.716 386.654C374.716 387.759 375.612 388.654 376.716 388.654L376.716 386.654L376.716 384.654ZM378.754 388.654C379.858 388.654 380.754 387.759 380.754 386.654C380.754 385.55 379.858 384.654 378.754 384.654L378.754 386.654L378.754 388.654ZM385.885 384.654C384.78 384.654 383.885 385.55 383.885 386.654C383.885 387.759 384.78 388.654 385.885 388.654L385.885 386.654L385.885 384.654ZM387.922 388.654C389.027 388.654 389.922 387.759 389.922 386.654C389.922 385.55 389.027 384.654 387.922 384.654L387.922 386.654L387.922 388.654ZM395.053 384.654C393.948 384.654 393.053 385.55 393.053 386.654C393.053 387.759 393.948 388.654 395.053 388.654L395.053 386.654L395.053 384.654ZM397.09 388.654C398.195 388.654 399.09 387.759 399.09 386.654C399.09 385.55 398.195 384.654 397.09 384.654L397.09 386.654L397.09 388.654ZM404.221 384.654C403.117 384.654 402.221 385.55 402.221 386.654C402.221 387.759 403.117 388.654 404.221 388.654L404.221 386.654L404.221 384.654ZM406.259 388.654C407.363 388.654 408.259 387.759 408.259 386.654C408.259 385.55 407.363 384.654 406.259 384.654L406.259 386.654L406.259 388.654ZM413.389 384.654C412.285 384.654 411.389 385.55 411.389 386.654C411.389 387.759 412.285 388.654 413.389 388.654L413.389 386.654L413.389 384.654ZM415.427 388.654C416.531 388.654 417.427 387.759 417.427 386.654C417.427 385.55 416.531 384.654 415.427 384.654L415.427 386.654L415.427 388.654ZM422.558 384.654C421.453 384.654 420.558 385.55 420.558 386.654C420.558 387.759 421.453 388.654 422.558 388.654L422.558 386.654L422.558 384.654ZM424.595 388.654C425.7 388.654 426.595 387.759 426.595 386.654C426.595 385.55 425.7 384.654 424.595 384.654L424.595 386.654L424.595 388.654ZM431.726 384.654C430.621 384.654 429.726 385.55 429.726 386.654C429.726 387.759 430.621 388.654 431.726 388.654L431.726 386.654L431.726 384.654ZM433.763 388.654C434.868 388.654 435.763 387.759 435.763 386.654C435.763 385.55 434.868 384.654 433.763 384.654L433.763 386.654L433.763 388.654ZM440.894 384.654C439.79 384.654 438.894 385.55 438.894 386.654C438.894 387.759 439.79 388.654 440.894 388.654L440.894 386.654L440.894 384.654ZM442.932 388.654C444.036 388.654 444.932 387.759 444.932 386.654C444.932 385.55 444.036 384.654 442.932 384.654L442.932 386.654L442.932 388.654ZM450.063 384.654C448.958 384.654 448.063 385.55 448.063 386.654C448.063 387.759 448.958 388.654 450.063 388.654L450.063 386.654L450.063 384.654ZM452.1 388.654C453.205 388.654 454.1 387.759 454.1 386.654C454.1 385.55 453.205 384.654 452.1 384.654L452.1 386.654L452.1 388.654ZM459.231 384.654C458.126 384.654 457.231 385.55 457.231 386.654C457.231 387.759 458.126 388.654 459.231 388.654L459.231 386.654L459.231 384.654ZM461.268 388.654C462.373 388.654 463.268 387.759 463.268 386.654C463.268 385.55 462.373 384.654 461.268 384.654L461.268 386.654L461.268 388.654ZM468.399 384.654C467.295 384.654 466.399 385.55 466.399 386.654C466.399 387.759 467.295 388.654 468.399 388.654L468.399 386.654L468.399 384.654ZM470.437 388.654C471.541 388.654 472.437 387.759 472.437 386.654C472.437 385.55 471.541 384.654 470.437 384.654L470.437 386.654L470.437 388.654ZM477.567 384.654C476.463 384.654 475.567 385.55 475.567 386.654C475.567 387.759 476.463 388.654 477.567 388.654L477.567 386.654L477.567 384.654ZM479.605 388.654C480.709 388.654 481.605 387.759 481.605 386.654C481.605 385.55 480.709 384.654 479.605 384.654L479.605 386.654L479.605 388.654ZM486.736 384.654C485.631 384.654 484.736 385.55 484.736 386.654C484.736 387.759 485.631 388.654 486.736 388.654L486.736 386.654L486.736 384.654ZM488.773 388.654C489.878 388.654 490.773 387.759 490.773 386.654C490.773 385.55 489.878 384.654 488.773 384.654L488.773 386.654L488.773 388.654ZM495.904 384.654C494.799 384.654 493.904 385.55 493.904 386.654C493.904 387.759 494.799 388.654 495.904 388.654L495.904 386.654L495.904 384.654ZM497.941 388.654C499.046 388.654 499.941 387.759 499.941 386.654C499.941 385.55 499.046 384.654 497.941 384.654L497.941 386.654L497.941 388.654ZM505.072 384.654C503.968 384.654 503.072 385.55 503.072 386.654C503.072 387.759 503.968 388.654 505.072 388.654L505.072 386.654L505.072 384.654ZM507.11 388.654C508.214 388.654 509.11 387.759 509.11 386.654C509.11 385.55 508.214 384.654 507.11 384.654L507.11 386.654L507.11 388.654ZM514.241 384.654C513.136 384.654 512.241 385.55 512.241 386.654C512.241 387.759 513.136 388.654 514.241 388.654L514.241 386.654L514.241 384.654ZM516.278 388.654C517.383 388.654 518.278 387.759 518.278 386.654C518.278 385.55 517.383 384.654 516.278 384.654L516.278 386.654L516.278 388.654ZM523.409 384.654C522.304 384.654 521.409 385.55 521.409 386.654C521.409 387.759 522.304 388.654 523.409 388.654L523.409 386.654L523.409 384.654ZM525.446 388.654C526.551 388.654 527.446 387.759 527.446 386.654C527.446 385.55 526.551 384.654 525.446 384.654L525.446 386.654L525.446 388.654ZM532.577 384.654C531.473 384.654 530.577 385.55 530.577 386.654C530.577 387.759 531.473 388.654 532.577 388.654L532.577 386.654L532.577 384.654ZM534.615 388.654C535.719 388.654 536.615 387.759 536.615 386.654C536.615 385.55 535.719 384.654 534.615 384.654L534.615 386.654L534.615 388.654ZM541.745 384.654C540.641 384.654 539.745 385.55 539.745 386.654C539.745 387.759 540.641 388.654 541.745 388.654L541.745 386.654L541.745 384.654ZM331.894 386.654L331.894 388.654L332.912 388.654L332.912 386.654L332.912 384.654L331.894 384.654L331.894 386.654ZM340.043 386.654L340.043 388.654L342.081 388.654L342.081 386.654L342.081 384.654L340.043 384.654L340.043 386.654ZM349.211 386.654L349.211 388.654L351.249 388.654L351.249 386.654L351.249 384.654L349.211 384.654L349.211 386.654ZM358.38 386.654L358.38 388.654L360.417 388.654L360.417 386.654L360.417 384.654L358.38 384.654L358.38 386.654ZM367.548 386.654L367.548 388.654L369.585 388.654L369.585 386.654L369.585 384.654L367.548 384.654L367.548 386.654ZM376.716 386.654L376.716 388.654L378.754 388.654L378.754 386.654L378.754 384.654L376.716 384.654L376.716 386.654ZM385.885 386.654L385.885 388.654L387.922 388.654L387.922 386.654L387.922 384.654L385.885 384.654L385.885 386.654ZM395.053 386.654L395.053 388.654L397.09 388.654L397.09 386.654L397.09 384.654L395.053 384.654L395.053 386.654ZM404.221 386.654L404.221 388.654L406.259 388.654L406.259 386.654L406.259 384.654L404.221 384.654L404.221 386.654ZM413.389 386.654L413.389 388.654L415.427 388.654L415.427 386.654L415.427 384.654L413.389 384.654L413.389 386.654ZM422.558 386.654L422.558 388.654L424.595 388.654L424.595 386.654L424.595 384.654L422.558 384.654L422.558 386.654ZM431.726 386.654L431.726 388.654L433.763 388.654L433.763 386.654L433.763 384.654L431.726 384.654L431.726 386.654ZM440.894 386.654L440.894 388.654L442.932 388.654L442.932 386.654L442.932 384.654L440.894 384.654L440.894 386.654ZM450.063 386.654L450.063 388.654L452.1 388.654L452.1 386.654L452.1 384.654L450.063 384.654L450.063 386.654ZM459.231 386.654L459.231 388.654L461.268 388.654L461.268 386.654L461.268 384.654L459.231 384.654L459.231 386.654ZM468.399 386.654L468.399 388.654L470.437 388.654L470.437 386.654L470.437 384.654L468.399 384.654L468.399 386.654ZM477.567 386.654L477.567 388.654L479.605 388.654L479.605 386.654L479.605 384.654L477.567 384.654L477.567 386.654ZM486.736 386.654L486.736 388.654L488.773 388.654L488.773 386.654L488.773 384.654L486.736 384.654L486.736 386.654ZM495.904 386.654L495.904 388.654L497.941 388.654L497.941 386.654L497.941 384.654L495.904 384.654L495.904 386.654ZM505.072 386.654L505.072 388.654L507.11 388.654L507.11 386.654L507.11 384.654L505.072 384.654L505.072 386.654ZM514.241 386.654L514.241 388.654L516.278 388.654L516.278 386.654L516.278 384.654L514.241 384.654L514.241 386.654ZM523.409 386.654L523.409 388.654L525.446 388.654L525.446 386.654L525.446 384.654L523.409 384.654L523.409 386.654ZM532.577 386.654L532.577 388.654L534.615 388.654L534.615 386.654L534.615 384.654L532.577 384.654L532.577 386.654ZM541.745 386.654L541.745 388.654L542.764 388.654L542.764 386.654L542.764 384.654L541.745 384.654L541.745 386.654Z" fill="black"/>
<path d="M535.651 41.4883H695.179C699.296 41.4883 702.628 44.6607 702.628 48.5816V202.816C702.628 206.737 699.296 209.91 695.179 209.91H535.651C531.534 209.91 528.201 206.737 528.201 202.816V48.5816C528.201 44.6607 531.534 41.4883 535.651 41.4883Z" fill="white" stroke="black" stroke-width="4" stroke-miterlimit="10"/>
<path d="M528.201 42.9541H701.191V64.9444H528.201V42.9541Z" fill="black"/>
<path d="M691.168 57.4214C688.127 57.4214 685.661 54.9558 685.661 51.9143C685.661 48.8728 688.127 46.4072 691.168 46.4072C694.21 46.4072 696.675 48.8728 696.675 51.9143C696.675 54.9558 694.21 57.4214 691.168 57.4214Z" fill="#FF0077"/>
<path d="M675.681 57.4214C672.639 57.4214 670.174 54.9558 670.174 51.9143C670.174 48.8728 672.639 46.4072 675.681 46.4072C678.722 46.4072 681.188 48.8728 681.188 51.9143C681.188 54.9558 678.722 57.4214 675.681 57.4214Z" fill="white"/>
<path d="M653.421 112.645V156.515L615.428 178.449L577.436 156.515V112.645L615.428 90.71L653.421 112.645Z" fill="#FFD2DF" stroke="black" stroke-width="4"/>
<path d="M633.753 134.581C633.753 122.067 627.947 116.256 615.428 116.256C602.909 116.256 597.103 122.067 597.103 134.581C597.103 147.095 602.909 152.906 615.428 152.906C627.947 152.906 633.753 147.095 633.753 134.581Z" fill="#FF0077" stroke="black" stroke-width="4"/>
<path d="M535.651 292.579H695.179C699.296 292.579 702.629 295.751 702.629 299.672V453.907C702.629 457.828 699.296 461 695.179 461H535.651C531.534 461 528.201 457.828 528.201 453.907V299.672C528.201 295.751 531.534 292.579 535.651 292.579Z" fill="white" stroke="black" stroke-width="4" stroke-miterlimit="10"/>
<path d="M528.201 294.045H701.191V316.035H528.201V294.045Z" fill="black"/>
<path d="M691.169 308.512C688.127 308.512 685.662 306.047 685.662 303.005C685.662 299.964 688.127 297.498 691.169 297.498C694.21 297.498 696.676 299.964 696.676 303.005C696.676 306.047 694.21 308.512 691.169 308.512Z" fill="#FF0077"/>
<path d="M675.681 308.512C672.64 308.512 670.174 306.047 670.174 303.005C670.174 299.964 672.64 297.498 675.681 297.498C678.723 297.498 681.188 299.964 681.188 303.005C681.188 306.047 678.723 308.512 675.681 308.512Z" fill="white"/>
<path d="M623.281 340.745L662.159 379.623C665.904 383.368 665.904 389.439 662.159 393.183L623.281 432.061C619.537 435.806 613.466 435.806 609.721 432.062L570.843 393.183C567.099 389.439 567.099 383.368 570.843 379.623L609.721 340.745C613.466 337.001 619.537 337.001 623.281 340.745Z" fill="#FFD2DF" stroke="black" stroke-width="4" stroke-miterlimit="10" stroke-linecap="round"/>
<path d="M633.755 387.137C633.755 374.623 627.948 368.812 615.43 368.812C602.911 368.812 597.104 374.623 597.104 387.137C597.104 399.651 602.911 405.462 615.43 405.462C627.948 405.462 633.755 399.651 633.755 387.137Z" fill="#FF0077" stroke="black" stroke-width="4"/>
<path d="M115.571 52.9033C118.406 51.2794 121.91 51.2795 124.744 52.9033L124.747 52.9053L177.945 83.2852V83.2861C180.783 84.9117 182.52 87.8948 182.52 91.1123V151.887C182.519 155.107 180.78 158.096 177.948 159.711H177.947L124.747 190.094L124.744 190.095C121.91 191.719 118.406 191.719 115.571 190.095L115.569 190.094L62.3682 159.711C59.5297 158.084 57.7873 155.1 57.7871 151.887V91.1123C57.7871 87.8924 59.5263 84.9035 62.3584 83.2881L62.3594 83.2871L115.569 52.9053L115.571 52.9033Z" fill="white" stroke="black" stroke-width="4"/>
<path d="M113.816 191.482C117.997 193.919 121.304 193.928 125.477 191.482L178.622 161.412C182.293 159.038 184.52 154.916 184.52 150.49V147.291C184.52 145.866 184.396 146.931 183.014 146.707L142.46 137.99H98.657L57.4324 148.384C56.3321 148.635 55.7872 148.572 55.7872 149.719V150.149C55.7696 154.602 58.0055 158.751 61.7115 161.134L113.816 191.491V191.482Z" fill="#FF0077"/>
<path d="M142.479 63.6475C142.479 63.6475 159.177 56.0907 147.058 47.7136C132.405 38.7956 86.759 48.595 86.2784 66.9459C85.9289 80.3667 86.2784 98.0108 86.2784 98.0108L155 98.4558V77.9583C155 71.3875 151.532 65.4189 142.471 63.6475H142.479Z" fill="black"/>
<path d="M180.911 147.92C180.911 147.92 142.344 138.457 141.714 138.457H99.541L57.3428 149.114" fill="#FF0077"/>
<path d="M180.911 147.92C180.911 147.92 142.344 138.457 141.714 138.457H99.541L57.3428 149.114" stroke="black" stroke-width="4" stroke-linecap="round"/>
<path d="M120.556 166.676C120.556 166.676 101.884 154.94 101.884 144.643V125.995H139.229V144.643C139.229 154.94 120.556 166.676 120.556 166.676Z" fill="white" stroke="black" stroke-width="4"/>
<path d="M114.498 135.538L139.593 141.009V127.885L114.498 135.538Z" fill="black"/>
<path d="M91.948 110.14C87.6141 110.14 84.1016 106.632 84.1016 102.304C84.1016 97.9757 87.6141 94.4678 91.948 94.4678V110.14Z" fill="white" stroke="black" stroke-width="4"/>
<path d="M149.031 94.459C153.365 94.459 156.886 97.9581 156.895 102.286C156.904 106.614 153.391 110.131 149.057 110.14L149.031 94.4677V94.459Z" fill="white" stroke="black" stroke-width="4"/>
<path d="M92.0957 84.8258C92.0957 71.6232 104.835 65.6895 120.554 65.6895C136.274 65.6895 149.013 71.6232 149.013 84.8258L148.891 107.514C148.795 123.029 136.23 135.585 120.694 135.699C104.923 135.812 92.087 123.063 92.1044 107.313V84.8345L92.0957 84.8258Z" fill="white" stroke="black" stroke-width="4"/>
<path d="M92.1387 98.4629H148.969" stroke="black" stroke-width="4" stroke-miterlimit="10"/>
<path d="M107.692 108.647C113.324 108.647 117.889 104.088 117.889 98.4636C117.889 92.8395 113.324 88.2803 107.692 88.2803C102.06 88.2803 97.4951 92.8395 97.4951 98.4636C97.4951 104.088 102.06 108.647 107.692 108.647Z" fill="white" stroke="black" stroke-width="4" stroke-miterlimit="10"/>
<path d="M133.495 108.647C139.126 108.647 143.692 104.088 143.692 98.4636C143.692 92.8395 139.126 88.2803 133.495 88.2803C127.863 88.2803 123.298 92.8395 123.298 98.4636C123.298 104.088 127.863 108.647 133.495 108.647Z" fill="white" stroke="black" stroke-width="4" stroke-miterlimit="10"/>
<path d="M130.544 111.763H110.56C108.07 111.763 106.052 113.778 106.052 116.265V120.375H116.048C118.538 120.375 120.556 118.36 120.556 115.873C120.556 118.36 122.575 120.375 125.065 120.375H135.061V116.265C135.061 113.778 133.043 111.763 130.552 111.763H130.544Z" fill="black"/>
<path d="M120.556 166.677V190.42" stroke="black" stroke-width="4" stroke-linecap="round"/>
<path d="M120.555 166.676L107.693 161.213L98.0642 172.121L93.8613 146.204L100.93 135.279L101.323 137.897C102.442 145.367 105.963 152.278 111.345 157.592L120.555 166.676Z" fill="#FF0077" stroke="black" stroke-width="4"/>
<path d="M120.154 166.676L133.016 161.213L142.645 172.121L146.848 146.204L139.779 135.279L139.386 137.897C138.268 145.367 134.746 152.278 129.364 157.592L120.154 166.676Z" fill="#FF0077" stroke="black" stroke-width="4"/>
<path d="M101.062 50.8202C101.062 50.8202 121.788 39.3541 125.013 39.7031C128.237 40.0609 129.67 44.7119 127.765 46.2651" fill="black"/>
<path d="M115.571 52.9033C118.406 51.2794 121.91 51.2795 124.744 52.9033L124.747 52.9053L177.945 83.2852V83.2861C180.783 84.9117 182.52 87.8948 182.52 91.1123V151.887C182.519 155.107 180.78 158.096 177.948 159.711H177.947L124.747 190.094L124.744 190.095C121.91 191.719 118.406 191.719 115.571 190.095L115.569 190.094L62.3682 159.711C59.5297 158.084 57.7873 155.1 57.7871 151.887V91.1123C57.7871 87.8924 59.5263 84.9035 62.3584 83.2881L62.3594 83.2871L115.569 52.9053L115.571 52.9033Z" stroke="black" stroke-width="4"/>
<path d="M268.349 52.6221C271.154 50.9995 274.62 50.9995 277.426 52.6221L277.428 52.624L330.238 83.0684C333.048 84.6939 334.777 87.683 334.777 90.917V151.816C334.777 155.054 333.045 158.05 330.239 159.665H330.238L277.428 190.11L277.426 190.112C274.62 191.735 271.154 191.735 268.349 190.112L268.347 190.11L215.536 159.665H215.535C212.726 158.039 210.997 155.05 210.997 151.816V90.917C210.997 87.6798 212.73 84.6845 215.535 83.0693H215.536L268.347 52.624L268.349 52.6221Z" fill="white" stroke="black" stroke-width="4"/>
<path d="M273.229 123.947C267.663 123.947 262.088 122.882 256.846 120.762C251.603 118.641 246.692 115.456 242.446 111.215C238.199 106.975 229.872 95.3339 227.749 90.107L231.847 84.5485C236.268 78.5624 240.043 72.1313 243.136 65.3598L248.125 53.3266C254.696 38.8325 267.654 37.0088 273.22 37.0088" fill="#FF0077"/>
<path d="M273.998 123.947C279.564 123.947 285.139 122.882 290.381 120.762C295.624 118.641 300.534 115.456 304.781 111.215C309.028 106.975 317.355 95.3339 319.478 90.107L315.38 84.5485C310.959 78.5624 307.184 72.1313 304.091 65.3598L299.101 53.3266C292.531 38.8325 279.573 37.0088 274.007 37.0088" fill="#FF0077"/>
<path d="M288.213 104.164H259.021V157.446H288.213V104.164Z" fill="white" stroke="black" stroke-width="4"/>
<path d="M268.625 112.271L288.241 116.547V106.285L268.625 112.271Z" fill="black"/>
<path d="M325.768 164.506L320.281 142.202C318.621 137.595 314.75 134.13 309.988 132.987C301.329 130.919 288.344 127.83 287.925 127.83H258.732L236.582 133.101C232.039 134.183 228.299 137.376 226.516 141.678L220.007 164.471L266.413 191.286C270.423 193.599 275.36 193.607 279.371 191.286L325.768 164.488V164.506Z" fill="black"/>
<path d="M273.614 91.7998C288.767 91.7998 301.051 79.5324 301.051 64.3999C301.051 49.2673 288.767 37 273.614 37C258.461 37 246.178 49.2673 246.178 64.3999C246.178 79.5324 258.461 91.7998 273.614 91.7998Z" fill="#FF0077"/>
<path d="M273.701 111.651C261.372 111.738 251.341 101.773 251.35 89.4607V67.1569C251.35 65.6385 252.582 64.3994 254.111 64.3994H293.116C294.645 64.3994 295.886 65.6385 295.877 67.1743L295.746 89.6265C295.676 101.756 285.855 111.573 273.709 111.651H273.701Z" fill="white" stroke="black" stroke-width="4"/>
<path d="M273.552 65.6558C273.552 71.9648 267.427 77.0783 259.869 77.0783C252.311 77.0783 246.186 71.9648 246.186 65.6558C246.186 59.3469 266.125 54.2334 273.683 54.2334C273.683 54.2334 273.552 59.3469 273.552 65.6558Z" fill="#FF0077"/>
<path d="M273.361 65.6558C273.361 71.9648 279.486 77.0783 287.044 77.0783C294.602 77.0783 300.727 71.9648 300.727 65.6558C300.727 59.3469 280.788 54.2334 273.229 54.2334C273.229 54.2334 273.361 59.3469 273.361 65.6558Z" fill="#FF0077"/>
<path d="M295.833 73.8588C293.456 75.5254 290.389 77.0787 287.043 77.0787C279.484 77.0787 273.359 71.9652 273.359 65.6562H273.228C273.228 71.9652 267.103 77.0787 259.545 77.0787C256.426 77.0787 253.56 75.6563 251.253 74.1904" stroke="black" stroke-width="4" stroke-linecap="round" stroke-linejoin="round"/>
<path d="M251.255 91.7651C247.865 91.7651 245.121 89.0251 245.121 85.6394C245.121 82.2537 247.865 79.5137 251.255 79.5137V91.7651Z" fill="white" stroke="black" stroke-width="4"/>
<path d="M295.878 79.5137C299.268 79.5137 302.021 82.2449 302.021 85.6306C302.021 89.0164 299.286 91.7651 295.895 91.7651L295.878 79.5137Z" fill="white" stroke="black" stroke-width="4"/>
<path d="M288.239 119.959H259.021V136.329H288.239V119.959Z" fill="black"/>
<path d="M273.997 123.947C279.563 123.947 285.137 122.882 290.38 120.762C295.622 118.641 300.533 115.456 304.78 111.215C308.362 107.638 314.828 98.8157 318.052 93.0041C318.987 91.32 318.839 89.2432 317.694 87.6987L315.378 84.5573C310.957 78.5712 307.182 72.1401 304.089 65.3686L299.1 53.3354C292.529 38.8413 279.571 37.0176 274.005 37.0176H273.236C267.671 37.0176 254.713 38.8326 248.142 53.3354L243.153 65.3686C240.068 72.1401 236.285 78.5712 231.863 84.5573L229.548 87.6987C228.403 89.2519 228.264 91.32 229.19 93.0041C232.414 98.8244 238.88 107.647 242.462 111.215C246.709 115.456 251.619 118.641 256.862 120.762C262.105 122.882 267.671 123.947 273.245 123.947" stroke="black" stroke-width="4" stroke-miterlimit="10"/>
<path d="M65.3456 239.642H321.369C327.086 239.642 331.715 243.607 331.715 248.509V441.318C331.715 446.22 327.086 450.186 321.369 450.186H65.3456C59.6281 450.186 54.9996 446.22 54.9996 441.318V248.509C54.9996 243.607 59.6281 239.642 65.3456 239.642Z" fill="white" stroke="black" stroke-width="4" stroke-miterlimit="10"/>
<path d="M62.1428 239.642H324.572C328.517 239.642 331.715 242.84 331.715 246.785V270.922H54.9996V246.785C54.9996 242.84 58.1977 239.642 62.1428 239.642Z" fill="black"/>
<path d="M72.4443 246.861C76.7632 246.861 80.2645 250.362 80.2645 254.681C80.2645 259 76.7632 262.501 72.4443 262.501C68.1253 262.501 64.624 259 64.624 254.681C64.624 250.362 68.1253 246.861 72.4443 246.861Z" fill="#FF0077"/>
<path d="M92.8974 246.861C97.2164 246.861 100.718 250.362 100.718 254.681C100.718 259 97.2164 262.501 92.8974 262.501C88.5784 262.501 85.0771 259 85.0771 254.681C85.0772 250.362 88.5784 246.861 92.8974 246.861Z" fill="white"/>
<path d="M251.106 358.149C251.106 317.481 232.236 298.595 191.552 298.595C150.868 298.595 131.998 317.481 131.998 358.149C131.998 398.817 150.868 417.703 191.552 417.703C232.236 417.703 251.106 398.817 251.106 358.149Z" fill="#FF0077" stroke="black" stroke-width="4"/>
</svg>
