<svg width="365" height="489" viewBox="0 0 365 489" fill="none" xmlns="http://www.w3.org/2000/svg">
<path d="M167.73 244.162V291.162C167.73 298.192 163.98 304.682 157.9 308.192L117.2 331.693C111.11 335.202 103.62 335.202 97.53 331.693L56.83 308.192C50.74 304.682 47 298.182 47 291.162V244.162C47 237.132 50.75 230.642 56.83 227.132L97.53 203.632C103.62 200.122 111.11 200.122 117.2 203.632L157.9 227.132C163.99 230.642 167.73 237.142 167.73 244.162Z" fill="black"/>
<path d="M121.33 235.792C121.64 235.512 122.01 235.062 122.26 234.722C122.66 234.192 122.75 233.522 123.65 233.632C123.95 233.672 124.79 234.172 125.11 234.352C125.94 234.802 127.79 235.762 128.44 236.332C129.35 237.122 128.52 237.952 128.21 238.782C126.38 243.662 131 248.422 135.95 246.892C137.15 246.522 137.89 245.432 138.87 246.852C139.85 248.272 140.49 249.752 141.32 251.162C141.61 252.262 140.52 252.502 139.86 253.062C136.15 256.212 137.16 262.252 141.79 263.792C142.66 264.082 143.4 263.992 144.21 264.142C144.78 264.242 145.01 264.802 145.06 265.322C145.18 266.482 145.15 268.652 145.06 269.832C144.94 271.462 144.12 271.082 142.92 271.252C137.86 271.982 135.72 278.352 139.45 281.902C139.88 282.312 140.88 282.822 141.16 283.172C141.39 283.462 141.39 283.832 141.29 284.172C141.06 284.962 139.52 287.432 139 288.212C137.95 289.792 137.67 289.062 136.3 288.542C131.43 286.672 126.58 291.202 128.07 296.192C128.27 296.842 128.89 297.632 128.83 298.262C128.78 298.832 128.21 299.112 127.78 299.392C127.06 299.852 124.49 301.442 123.82 301.612C122.71 301.902 122.49 300.832 121.92 300.152C118.61 296.192 112.17 297.682 111.03 302.712C110.89 303.312 110.94 303.932 110.85 304.492C110.76 305.052 110.26 305.292 109.74 305.342C108.64 305.462 106.13 305.452 105.01 305.342C104.42 305.292 103.91 305.062 103.82 304.422C103.71 303.622 103.76 303.012 103.5 302.192C102.03 297.512 95.8799 296.342 92.7599 300.132C92.1999 300.822 91.9599 301.912 90.8099 301.562C90.0499 301.332 87.6599 299.862 86.8999 299.362C86.4599 299.072 85.8999 298.812 85.8499 298.232C85.7999 297.652 86.1199 297.382 86.3199 296.882C88.4299 291.652 83.6499 286.482 78.3799 288.502C77.0099 289.032 76.7299 289.752 75.6799 288.172C74.8299 286.892 74.1199 285.422 73.3699 284.082C73.0699 282.952 74.4899 282.562 75.1999 281.902C78.9399 278.372 76.8799 271.922 71.7699 271.212C70.7099 271.062 69.7799 271.392 69.6299 269.932C69.5099 268.772 69.5399 266.592 69.6299 265.422C69.6699 264.812 69.8499 264.182 70.5499 264.082C71.3799 263.962 72.0499 264.032 72.9099 263.742C77.5199 262.192 78.5699 256.132 74.8399 253.012C74.1499 252.442 73.0599 252.212 73.4099 251.062C73.4999 250.772 73.9599 250.012 74.1399 249.682C74.5099 249.012 75.6999 246.802 76.1499 246.382C76.8699 245.712 77.4099 246.292 78.0799 246.562C83.1199 248.592 88.1999 244.272 86.6199 239.032C86.2599 237.832 85.1099 237.062 86.5599 236.062C87.3899 235.492 88.5499 234.842 89.4399 234.362C89.9799 234.072 90.8899 233.472 91.4699 233.592C92.0099 233.702 92.6399 235.012 93.0799 235.472C96.5899 239.162 102.97 237.112 103.73 232.072C103.92 230.842 103.5 229.992 105.15 229.862C106.31 229.772 108.43 229.762 109.59 229.862C111.17 230.002 110.77 230.892 110.95 232.072C111.7 236.952 117.66 239.072 121.31 235.722L121.33 235.792ZM114.26 275.212C119.69 270.232 118.25 261.272 111.51 258.292C103.3 254.662 94.7399 262.612 97.6899 271.092C100.08 277.972 108.88 280.142 114.26 275.212Z" fill="white"/>
<path d="M314.73 244.162V291.162C314.73 298.192 310.98 304.682 304.9 308.192L264.2 331.693C258.11 335.202 250.62 335.202 244.53 331.693L203.83 308.192C197.74 304.682 194 298.182 194 291.162V244.162C194 237.132 197.75 230.642 203.83 227.132L244.53 203.632C250.62 200.122 258.11 200.122 264.2 203.632L304.9 227.132C310.99 230.642 314.73 237.142 314.73 244.162Z" fill="#FF0077" stroke="black" stroke-width="4" stroke-miterlimit="10"/>
<path d="M254.31 267.663L287.72 278.523C281.37 298.063 259.51 308.243 240.2 299.853C223.82 292.733 215.4 273.963 220.85 256.963C225.61 242.113 238.74 232.543 254.31 232.543V267.673V267.663Z" fill="white" stroke="black" stroke-width="4"/>
<path d="M254.311 267.664L287.721 256.804C290.121 264.184 290.121 271.134 287.721 278.514L254.311 267.654V267.664Z" fill="black" stroke="black" stroke-width="4"/>
<path d="M254.311 267.663V232.533C269.831 232.533 282.931 242.043 287.721 256.813L254.311 267.673V267.663Z" fill="#FF0077" stroke="black" stroke-width="4"/>
<path d="M254.35 282.253C262.403 282.253 268.931 275.725 268.931 267.673C268.931 259.62 262.403 253.093 254.35 253.093C246.298 253.093 239.771 259.62 239.771 267.673C239.771 275.725 246.298 282.253 254.35 282.253Z" fill="#FF0077" stroke="black" stroke-width="4" stroke-miterlimit="10"/>
<path d="M167.73 92.1625V139.163C167.73 146.193 163.98 152.683 157.9 156.193L117.2 179.693C111.11 183.202 103.62 183.202 97.53 179.693L56.83 156.193C50.74 152.683 47 146.183 47 139.163V92.1625C47 85.1325 50.75 78.6425 56.83 75.1325L97.53 51.6325C103.62 48.1225 111.11 48.1225 117.2 51.6325L157.9 75.1325C163.99 78.6425 167.73 85.1425 167.73 92.1625Z" fill="#FF0077" stroke="black" stroke-width="4" stroke-miterlimit="10"/>
<path d="M151.661 137.063C151.661 137.063 151.661 136.993 151.661 136.963C151.661 129.463 146.501 123.173 139.531 121.443C139.761 119.913 139.881 118.343 139.881 116.743C139.881 99.2625 125.711 85.1025 108.241 85.1025C93.0608 85.1025 80.3807 95.7925 77.3107 110.053C66.9907 113.363 59.5107 123.033 59.5107 134.453C59.5107 135.333 59.5507 136.203 59.6407 137.063H151.661Z" fill="white" stroke="black" stroke-width="4" stroke-miterlimit="10"/>
<path d="M106.98 137.062C107.79 134.602 108.23 131.982 108.23 129.262C108.23 115.462 97.04 104.272 83.24 104.272C69.44 104.272 58.25 115.462 58.25 129.262C58.25 131.992 58.69 134.612 59.5 137.062H106.98Z" fill="white" stroke="black" stroke-width="4" stroke-miterlimit="10"/>
<g clip-path="url(#clip0_7158_474)">
<path d="M245.539 53.373C251.011 50.2195 257.739 50.2195 263.211 53.373V53.3721L303.91 76.8721L303.911 76.873C309.379 80.0246 312.74 85.8625 312.74 92.1699V94.1699H312.75V139.17C312.75 145.485 309.381 151.315 303.92 154.468V154.469L263.222 177.968C257.75 181.121 251.021 181.121 245.549 177.968H245.548L204.85 154.469L204.848 154.467L204.34 154.163C199.161 150.949 196 145.287 196 139.17V92.1699C196 85.8546 199.369 80.0248 204.83 76.8721L245.538 53.3721L245.539 53.373Z" fill="#FF0077" stroke="black" stroke-width="4"/>
<path d="M283.81 86C287.024 86 289.63 88.606 289.63 91.8203V100.75C289.63 103.964 287.024 106.57 283.81 106.57H223.95C220.736 106.57 218.13 103.964 218.13 100.75V91.8203C218.13 88.606 220.736 86 223.95 86H283.81Z" fill="white" stroke="black" stroke-width="4"/>
<path d="M229 96.9793C230.447 96.9793 231.62 95.8062 231.62 94.3593C231.62 92.9123 230.447 91.7393 229 91.7393C227.553 91.7393 226.38 92.9123 226.38 94.3593C226.38 95.8062 227.553 96.9793 229 96.9793Z" fill="black"/>
<path d="M283.81 107.61C287.024 107.61 289.63 110.216 289.63 113.431V122.36C289.63 125.575 287.024 128.181 283.81 128.181H223.95C220.736 128.181 218.13 125.575 218.13 122.36V113.431C218.13 110.216 220.736 107.61 223.95 107.61H283.81Z" fill="white" stroke="black" stroke-width="4"/>
<path d="M229 118.59C230.447 118.59 231.62 117.417 231.62 115.97C231.62 114.523 230.447 113.35 229 113.35C227.553 113.35 226.38 114.523 226.38 115.97C226.38 117.417 227.553 118.59 229 118.59Z" fill="#FF0077"/>
<path d="M283.81 129C287.024 129 289.63 131.606 289.63 134.82V143.75C289.63 146.964 287.024 149.57 283.81 149.57H223.95C220.736 149.57 218.13 146.964 218.13 143.75V134.82C218.13 131.606 220.736 129 223.95 129H283.81Z" fill="white" stroke="black" stroke-width="4"/>
<path d="M229 139.99C230.447 139.99 231.62 138.817 231.62 137.37C231.62 135.923 230.447 134.75 229 134.75C227.553 134.75 226.38 135.923 226.38 137.37C226.38 138.817 227.553 139.99 229 139.99Z" fill="black"/>
</g>
<g clip-path="url(#clip1_7158_474)">
<path d="M162.221 353H52.7779C51.2054 353 49.9307 354.281 49.9307 355.862V425.71C49.9307 427.29 51.2054 428.571 52.7779 428.571H162.221C163.794 428.571 165.069 427.29 165.069 425.71V355.862C165.069 354.281 163.794 353 162.221 353Z" fill="black"/>
<path d="M40.6904 431.541H174.31V437.883C174.31 440.335 172.329 442.326 169.89 442.326H45.1111C42.6718 442.326 40.6904 440.335 40.6904 437.883V431.541Z" fill="white" stroke="black" stroke-width="4" stroke-miterlimit="10"/>
<path d="M173.835 425.902L165.369 420.12H51.5794L41.6308 426.529C40.0074 427.391 39 429.081 39 430.922H176V430.018C176 428.37 175.184 426.83 173.827 425.902H173.835Z" fill="black"/>
<path d="M157.285 357.46H57.7066C55.6789 357.46 54.0352 359.112 54.0352 361.15V412.607C54.0352 414.645 55.6789 416.297 57.7066 416.297H157.285C159.312 416.297 160.956 414.645 160.956 412.607V361.15C160.956 359.112 159.312 357.46 157.285 357.46Z" fill="#FF0077" stroke="black" stroke-width="4"/>
<path d="M107.5 358.012C108.433 358.012 109.19 357.252 109.19 356.314C109.19 355.376 108.433 354.615 107.5 354.615C106.566 354.615 105.81 355.376 105.81 356.314C105.81 357.252 106.566 358.012 107.5 358.012Z" fill="white"/>
<path d="M126.29 389.84L115.284 400.901L118.19 403.821L129.196 392.76L132.101 389.84L129.196 386.92L118.19 375.858L115.284 378.778L126.29 389.84Z" fill="black"/>
<path d="M88.7104 389.84L99.7164 378.778L96.8109 375.858L85.8049 386.92L82.8994 389.84L85.8049 392.76L96.8109 403.821L99.7164 400.901L88.7104 389.84Z" fill="black"/>
<path d="M109.291 372.068L101.698 404.767H105.711L113.304 372.068H109.291Z" fill="black"/>
<path d="M98 431H117V435C117 436.105 116.105 437 115 437H100C98.8954 437 98 436.105 98 435V431Z" fill="black"/>
</g>
<path d="M212.083 355H297.833C301.147 355 303.833 357.686 303.833 361V428.417C303.833 431.731 301.147 434.417 297.833 434.417H212.083C208.769 434.417 206.083 431.731 206.083 428.417V361C206.083 357.686 208.769 355 212.083 355Z" fill="#FF0077" stroke="black" stroke-width="4"/>
<path d="M235.25 392.417C240.819 392.417 245.334 387.902 245.334 382.333C245.334 376.764 240.819 372.25 235.25 372.25C229.681 372.25 225.167 376.764 225.167 382.333C225.167 387.902 229.681 392.417 235.25 392.417Z" fill="white" stroke="black" stroke-width="4" stroke-miterlimit="10"/>
<path d="M273.75 392.417C279.319 392.417 283.834 387.902 283.834 382.333C283.834 376.764 279.319 372.25 273.75 372.25C268.181 372.25 263.667 376.764 263.667 382.333C263.667 387.902 268.181 392.417 273.75 392.417Z" fill="white" stroke="black" stroke-width="4" stroke-miterlimit="10"/>
<path d="M304.917 393.333C310.486 393.333 315 388.818 315 383.249C315 377.68 310.486 373.166 304.917 373.166" stroke="black" stroke-width="4" stroke-miterlimit="10"/>
<path d="M204.084 373.166C198.515 373.166 194.001 377.681 194.001 383.25C194.001 388.819 198.515 393.333 204.084 393.333" stroke="black" stroke-width="4" stroke-miterlimit="10"/>
<path d="M277.256 403.416H231.743C227.098 403.416 223.333 407.315 223.333 412.124C223.333 416.934 227.098 420.833 231.743 420.833H277.256C281.901 420.833 285.666 416.934 285.666 412.124C285.666 407.315 281.901 403.416 277.256 403.416Z" fill="black"/>
<defs>
<clipPath id="clip0_7158_474">
<rect width="120.75" height="133.34" fill="white" transform="translate(194 49)"/>
</clipPath>
<clipPath id="clip1_7158_474">
<rect width="137" height="91" fill="white" transform="translate(39 353)"/>
</clipPath>
</defs>
</svg>
