<svg width="500" height="452" viewBox="0 0 500 452" fill="none" xmlns="http://www.w3.org/2000/svg">
<rect x="180.894" y="143.564" width="138.213" height="87.2972" rx="5" fill="white" stroke="black" stroke-width="4"/>
<rect x="76.4287" y="76.8472" width="347.143" height="211.953" rx="10" stroke="black" stroke-width="4"/>
<path d="M347.319 178.189C384.098 178.189 413.913 148.373 413.913 111.594C413.913 74.8153 384.098 45 347.319 45C310.54 45 280.725 74.8153 280.725 111.594C280.725 148.373 310.54 178.189 347.319 178.189Z" fill="#FF0077" stroke="black" stroke-width="4" stroke-miterlimit="10"/>
<path d="M283.411 131.373C301.82 128.37 318.859 117.696 329.411 100.569C339.901 83.5381 341.806 63.6283 336.32 45.9131" stroke="black" stroke-width="4" stroke-miterlimit="10"/>
<path d="M410.928 91.8689C392.634 94.9414 375.709 105.59 365.218 122.629C354.737 139.651 352.832 159.534 358.301 177.241" stroke="black" stroke-width="4" stroke-miterlimit="10"/>
<path d="M382.24 54.8936L312.389 168.304" stroke="black" stroke-width="4" stroke-miterlimit="10"/>
<path d="M404.02 146.524L290.609 76.6731" stroke="black" stroke-width="4" stroke-miterlimit="10"/>
<path d="M261.281 262.366L325.979 300.035" stroke="black" stroke-width="4" stroke-miterlimit="10"/>
<path d="M204.246 262.366L317.332 328.197" stroke="black" stroke-width="4" stroke-miterlimit="10"/>
<path d="M164.909 272.672L308.456 356.236" stroke="black" stroke-width="4" stroke-miterlimit="10"/>
<path d="M179.851 314.564L301.759 385.539" stroke="black" stroke-width="4" stroke-miterlimit="10"/>
<path d="M194.388 356.236L297.062 416.009C298.914 417.089 301.232 415.754 301.232 413.612V406.186C301.232 381.887 305.402 357.763 313.566 334.869L337.347 268.151" stroke="black" stroke-width="4" stroke-miterlimit="10"/>
<path d="M239.256 262.366L174.558 300.035" stroke="black" stroke-width="4" stroke-miterlimit="10"/>
<path d="M296.29 262.366L183.204 328.197" stroke="black" stroke-width="4" stroke-miterlimit="10"/>
<path d="M335.626 272.672L192.079 356.236" stroke="black" stroke-width="4" stroke-miterlimit="10"/>
<path d="M320.685 314.564L198.777 385.539" stroke="black" stroke-width="4" stroke-miterlimit="10"/>
<path d="M306.139 356.236L203.509 415.983C201.648 417.062 199.321 415.711 199.339 413.56L199.409 406.186C199.409 381.887 195.239 357.763 187.075 334.869L163.294 268.151" stroke="black" stroke-width="4" stroke-miterlimit="10"/>
<path d="M301.118 392.36L260.903 415.877C254.407 419.679 246.357 419.687 239.852 415.895L199.409 392.351" stroke="black" stroke-width="4" stroke-miterlimit="10"/>
<path d="M339.594 254.123H160.809C156.252 254.123 152.558 257.816 152.558 262.371C152.558 266.926 156.252 270.618 160.809 270.618H339.594C344.151 270.618 347.846 266.926 347.846 262.371C347.846 257.816 344.151 254.123 339.594 254.123Z" fill="#FF0077" stroke="black" stroke-width="4" stroke-miterlimit="10"/>
</svg>
