<svg width="656" height="450" viewBox="0 0 656 450" fill="none" xmlns="http://www.w3.org/2000/svg">
<path d="M55 392.69H556.36" stroke="black" stroke-width="4" stroke-miterlimit="10" stroke-linecap="round"/>
<path d="M360.391 358.01L395 361.5C400.94 361.94 403.56 357.94 404 352L360.391 347.33V358V358.01Z" fill="#FF0077" stroke="black" stroke-width="4"/>
<path d="M419.19 163.81H395.16C395.69 164.58 396.3 165.28 397.01 165.9L406.67 174.34C406.67 174.34 406.3 177.52 407 179.08C407.7 180.64 409.89 180.29 410.19 179.47C412.58 181.45 413.84 178.52 413.84 178.52C413.84 178.52 414.59 180.05 416.31 179.53C418.03 179.01 417.84 176.65 417.84 176.65C417.84 176.65 420.8 177.4 421 174.99C421.12 173.56 420.78 169.9 420.49 167.14C420.36 165.92 419.91 164.78 419.21 163.81H419.19Z" fill="black"/>
<path d="M369.209 278.38C363.559 275.31 357.489 272.84 353.829 270.09L341.339 260.68C340.509 261.27 339.639 261.78 338.729 262.21V286.21L374.919 289.27L375.629 289.12C375.009 284.49 373.309 280.6 369.199 278.37L369.209 278.38Z" fill="black"/>
<path d="M369.209 278.38C363.559 275.31 357.489 272.84 353.829 270.09L341.339 260.68C340.509 261.27 339.639 261.78 338.729 262.21V286.21L374.919 289.27L375.629 289.12C375.009 284.49 373.309 280.6 369.199 278.37L369.209 278.38Z" stroke="black" stroke-width="4"/>
<path d="M353.739 272.22L351.539 277.84" stroke="black" stroke-width="4"/>
<path d="M348.5 266.93L346.31 272.56" stroke="black" stroke-width="4"/>
<path d="M374.09 288.69L338.74 286.74L347.41 297.48L365.08 298.74C370.48 299.14 374.43 295.5 375.44 290.38C375.61 289.54 374.96 288.75 374.1 288.7L374.09 288.69Z" fill="black" stroke="black" stroke-width="4"/>
<path d="M411 98.1L411.73 84.15C411.73 66.38 415.39 57.14 386.99 58.07C373.74 58.5 337.99 66.38 337.99 84.15H411.73" fill="#FF0077"/>
<path d="M411 98.1L411.73 84.15M411.73 84.15C411.73 66.38 415.39 57.14 386.99 58.07C373.74 58.5 337.99 66.38 337.99 84.15H411.73Z" stroke="black" stroke-width="4" stroke-linecap="round"/>
<path d="M311.649 332.495C327.62 287.594 307.238 239.34 266.125 224.716C225.013 210.093 178.737 234.638 162.766 279.539C146.796 324.44 167.177 372.693 208.29 387.317C249.403 401.94 295.678 377.396 311.649 332.495Z" fill="black"/>
<path d="M288.81 324.371C299.882 293.244 285.754 259.793 257.255 249.656C228.755 239.519 196.676 256.535 185.605 287.662C174.533 318.789 188.661 352.241 217.161 362.378C245.66 372.515 277.739 355.499 288.81 324.371Z" fill="white" stroke="black" stroke-width="4"/>
<path d="M267.029 170.82C259.199 170.82 259.449 181.68 267.029 184.71C274.609 187.74 288.489 187.74 301.369 182.94C314.249 178.14 318.539 170.82 309.959 170.82H267.029Z" fill="black"/>
<path d="M310.65 151.76C323.98 155.55 391.31 181.91 397 184.26C412.72 190.76 403.53 205.54 403.53 205.54L349.96 280.4L341.3 266.66L366.5 210.54L303.58 191.77L310.65 151.76Z" fill="black"/>
<path d="M270.709 59.6699H329.709" stroke="black" stroke-width="4" stroke-miterlimit="10" stroke-linecap="round"/>
<path d="M179.659 72.6699H316.719" stroke="black" stroke-width="4" stroke-miterlimit="10" stroke-linecap="round"/>
<path d="M84.5596 269.75H167.79" stroke="black" stroke-width="4" stroke-miterlimit="10" stroke-linecap="round"/>
<path d="M117.04 292.75H158.66" stroke="black" stroke-width="4" stroke-miterlimit="10" stroke-linecap="round"/>
<path d="M237.22 306.04L302.24 221.45H415.84C420.38 221.45 423.01 226.6 420.34 230.28L354.88 320.42" stroke="black" stroke-width="4" stroke-miterlimit="10" stroke-linecap="round"/>
<path d="M246.733 309.405C248.776 303.66 246.168 297.486 240.907 295.615C235.647 293.744 229.725 296.884 227.682 302.629C225.639 308.373 228.247 314.547 233.508 316.418C238.769 318.29 244.69 315.149 246.733 309.405Z" fill="black"/>
<path d="M548.636 332.49C564.607 287.589 544.225 239.335 503.113 224.712C462 210.088 415.725 234.633 399.754 279.534C383.783 324.435 404.164 372.689 445.277 387.312C486.39 401.935 532.665 377.391 548.636 332.49Z" stroke="black" stroke-width="4" stroke-miterlimit="10" stroke-linecap="round"/>
<path d="M378.677 328.572C383.606 314.715 377.317 299.824 364.631 295.311C351.945 290.799 337.666 298.374 332.737 312.231C327.808 326.088 334.097 340.979 346.783 345.492C359.469 350.004 373.748 342.429 378.677 328.572Z" fill="black"/>
<path d="M282.939 185.16L354.879 320.43" stroke="black" stroke-width="4" stroke-miterlimit="10" stroke-linecap="round"/>
<path d="M474.23 306.04L391.6 173.29C389.18 167.22 393.65 160.62 400.19 160.62H427.98C434.17 160.62 438.28 167.22 435.35 172.67C431.05 180.67 422.6 186.11 412.89 186.11" stroke="black" stroke-width="4" stroke-miterlimit="10" stroke-linecap="round"/>
<path d="M378.859 160.62H406.649C412.839 160.62 416.949 167.22 414.019 172.67C409.719 180.67 401.269 186.11 391.559 186.11" stroke="black" stroke-width="4" stroke-miterlimit="10" stroke-linecap="round"/>
<path d="M307.39 126.5C307.39 126.5 302.31 119.55 300.54 113.71C298.64 114.97 296.61 116.37 294.55 117.9C294.55 117.9 299.78 130.22 306.17 135.51C312.56 140.8 309.96 131.23 309.96 131.23L307.39 126.5Z" fill="black"/>
<path d="M322 164L337.5 150.5L346.31 145.16C346.31 145.16 410.67 134.32 409.5 107.98C407.81 92.6401 399.38 86.6301 380.12 79.9701C370.78 76.2301 358.85 72.5801 348.04 72.7801C342.73 72.8601 337.34 74.3201 332.23 76.4901C324.77 79.6601 318.07 84.3801 312.32 90.0901C298.95 103.36 274.5 128.5 274.5 128.5L322 164Z" fill="white" stroke="black" stroke-width="4" stroke-miterlimit="10" stroke-linecap="round"/>
<path d="M400.49 88.0202C400.49 88.0202 402.56 98.0302 398.69 99.8802C396.53 100.92 388.46 103.12 386.22 104.6L387.4 83.6802L396.34 84.2602" fill="black"/>
<path d="M340.53 104.73L329.56 129.88C335.17 130.03 363.85 140.52 363.85 140.52L381.25 111.34C388.6 100.18 391.61 84.61 380 80" stroke="black" stroke-width="4" stroke-linecap="round"/>
<path d="M237.77 297.12L355.72 296.73L347.73 343.8L234.81 314.57" stroke="black" stroke-width="4" stroke-miterlimit="10" stroke-linecap="round"/>
<path d="M308.529 233.91C308.529 233.91 318.529 257.41 329.869 275.79C340.049 292.29 362.179 330.6 362.179 330.6L372.479 327.33L371.749 323.12L344.409 253.54C342.899 249.69 342.029 245.61 341.829 241.48C341.699 238.78 341.349 235.64 340.509 233.34C338.719 228.44 336.809 220.8 336.809 220.8" fill="black"/>
<path d="M308.53 233.91L270.64 172.52C254.7 144.29 274.72 128.03 274.72 128.03L317.86 161.17L318.31 162.15C324.82 176.36 335.05 222.49 335.05 222.49L322.5 228L308.53 233.91Z" fill="#FF0077" stroke="black" stroke-width="4" stroke-linecap="round"/>
<path d="M413.679 80.4801L413.169 97.7401C412.879 103.35 408.029 107.78 402.199 107.48C396.369 107.18 391.989 102.34 392.279 96.6701L392.339 96.5601L393.399 84.2501C393.669 81.1401 396.419 78.8401 399.529 79.1401L413.699 80.4801" fill="black"/>
<path d="M362.759 329.31L351.279 308.24L362.939 301.74L371.029 324.55L370.259 329.67L365.089 331.32L362.759 329.31Z" fill="white"/>
<path d="M404.909 353.2C404.289 348.57 403.889 343.63 399.789 341.4C394.139 338.33 371.389 324.09 371.389 324.09C368.349 326.28 364.669 327.4 360.919 327.29L359.949 327.26L360.429 348.92L404.919 353.2H404.909Z" fill="white" stroke="black" stroke-width="4"/>
<path d="M385.19 334L383 339.63" stroke="black" stroke-width="4" stroke-linecap="round"/>
<path d="M378.54 330.49L376.35 336.12" stroke="black" stroke-width="4" stroke-linecap="round"/>
<path d="M442.46 168.63C442.23 166.52 441.06 164.62 439.27 163.49L434.12 160.22C430.25 157.77 425.99 156.02 421.51 155.06C406.17 151.76 370 143.42 365.42 143.54C363.93 143.58 365.7 139.16 366.44 137.86C366.44 137.86 334.1 119.59 330.86 122.1C323.2 137.24 310.91 169.23 336.61 169.23C363.61 169.23 415.19 163.66 415.19 163.66C415.86 165.08 417.81 166.35 418.99 167.38L428.65 175.82C428.65 175.82 428.28 179 428.98 180.56C429.68 182.12 431.87 181.77 432.17 180.95C434.56 182.93 435.82 180 435.82 180C435.82 180 436.57 181.53 438.29 181.01C440.01 180.49 439.82 178.13 439.82 178.13C439.82 178.13 442.78 178.88 442.98 176.47C443.1 175.04 442.76 171.38 442.47 168.62L442.46 168.63Z" fill="black"/>
<path d="M301.17 153.44C296.65 159.23 293.52 170.84 298.05 180.31L319.41 224.92" fill="#FF0077"/>
<path d="M301.17 153.44C296.65 159.23 293.52 170.84 298.05 180.31L319.41 224.92" stroke="white" stroke-width="4" stroke-miterlimit="10" stroke-linecap="square"/>
<path d="M78.9601 175.18C80.0301 175.18 81.0601 175.31 82.0501 175.55C84.9501 169.81 90.9001 165.86 97.7801 165.86C107.51 165.86 115.4 173.75 115.4 183.48V186.22H67.3301C67.3301 179.8 72.5401 175.17 78.9601 175.17V175.18Z" fill="white" stroke="black" stroke-width="4" stroke-miterlimit="10"/>
<path d="M142.22 123.91C144.17 123.91 146.05 124.15 147.84 124.59C153.12 114.14 163.95 106.96 176.46 106.96C194.16 106.96 208.52 121.31 208.52 139.02V144.01H121.06C121.06 132.32 130.53 123.91 142.22 123.91Z" fill="white" stroke="black" stroke-width="4" stroke-miterlimit="10"/>
</svg>
