<svg width="655" height="450" viewBox="0 0 655 450" fill="none" xmlns="http://www.w3.org/2000/svg">
<g clip-path="url(#clip0_6341_214)">
<path d="M163.17 218C142.12 214.49 116.62 205.37 110.94 203.28C110.17 203 109.35 202.91 108.54 203.01L104.87 203.49C103.65 203.64 102.47 203.99 101.36 204.52L85.4104 212.16C83.6604 213.06 82.1704 214.4 81.0904 216.05L76.1404 223.61C75.7704 224.46 76.2404 225.43 77.1604 225.67C77.8504 225.85 78.5204 225.41 78.9404 224.95L85.4604 218.56C86.7904 217.26 88.5204 216.76 90.6604 216.05L100.18 213.74L98.0704 215.96C97.2704 216.8 97.4104 218.16 98.3604 218.83C99.0704 219.33 100.03 219.29 100.69 218.73L110.06 210.81C110.06 210.81 150.28 246.57 210.13 236.14V221.99C210.13 221.99 187.04 221.99 163.2 218.02L163.17 218Z" fill="white" stroke="black" stroke-width="4" stroke-linecap="round" stroke-linejoin="round"/>
<path d="M537.41 121.71L576.67 100.08C578.52 102.75 578.47 106.31 576.54 108.92L571.76 115.42C568.37 120.03 563.58 123.43 558.11 125.1L541.12 130.3L537.42 121.71H537.41Z" fill="black" stroke="black" stroke-width="4" stroke-miterlimit="10" stroke-linecap="round"/>
<path d="M282.98 212.946C287.71 199.166 278.76 197.026 273.54 198.326C268.16 199.676 266 208.626 266 208.626L282.98 212.946Z" fill="black" stroke="black" stroke-width="4" stroke-miterlimit="10" stroke-linecap="round"/>
<path d="M280.96 206.77C277.64 208.15 274.27 207.03 274.27 207.03C274.27 207.03 275.98 224.97 274.98 225.61C273.98 226.25 257.03 241.03 245.86 239.26C234.69 237.49 233.3 227.86 233.3 227.86C233.3 227.86 229.18 230.82 219.93 232.68C210.68 234.54 205.2 230.89 195.69 224.87C186.19 218.85 177.47 203.2 183.15 189.66C188.83 176.12 203.2 176.37 205.04 180.98C208.51 189.67 214.97 196.19 223.2 192.77C231.43 189.34 234.47 186.45 245.1 191.01C255.74 195.57 254.34 206.26 254.34 206.26C254.34 206.26 256.92 202.97 260.26 201.08C265.66 198.04 269.51 200.99 269.51 200.99C269.51 200.99 270.89 206.9 275.43 203.29" fill="black"/>
<path d="M280.96 206.77C277.64 208.15 274.27 207.03 274.27 207.03C274.27 207.03 275.98 224.97 274.98 225.61C273.98 226.25 257.03 241.03 245.86 239.26C234.69 237.49 233.3 227.86 233.3 227.86C233.3 227.86 229.18 230.82 219.93 232.68C210.68 234.54 205.2 230.89 195.69 224.87C186.19 218.85 177.47 203.2 183.15 189.66C188.83 176.12 203.2 176.37 205.04 180.98C208.51 189.67 214.97 196.19 223.2 192.77C231.43 189.34 234.47 186.45 245.1 191.01C255.74 195.57 254.34 206.26 254.34 206.26C254.34 206.26 256.92 202.97 260.26 201.08C265.66 198.04 269.51 200.99 269.51 200.99C269.51 200.99 270.89 206.9 275.43 203.29" stroke="black" stroke-width="4" stroke-miterlimit="10" stroke-linecap="round"/>
<path d="M283.83 217.63C281.74 209.29 278.39 205.33 278.39 205.33C278.39 205.33 275 203.47 271.27 207.84C267.54 212.21 259.41 247.29 259.41 247.29L271.63 240.92L277.25 228.91C278.32 228.97 279.42 229 280.4 229.01C282.69 229.04 284.62 227.26 284.73 224.97C284.82 223.21 284.64 220.79 283.84 217.61L283.83 217.63Z" fill="white" stroke="black" stroke-width="4" stroke-miterlimit="10" stroke-linecap="round"/>
<path d="M264.48 216.8C269.5 217.56 272.8 214.72 273.75 212.7C275.42 209.13 271.84 203.93 271.33 203.62C270.82 203.31 265.91 205.09 264.84 208.71C263.77 212.32 264.48 216.8 264.48 216.8Z" fill="black" stroke="black" stroke-width="4" stroke-miterlimit="10" stroke-linecap="round"/>
<path d="M267.9 215.61C267.9 215.61 271.97 221.41 271.03 225.39C270.09 229.38 268.77 230.72 264.54 233.15C260.32 235.58 256.58 228.08 256.95 226.52C257.33 224.97 266.06 214.18 266.06 214.18L267.89 215.61H267.9Z" fill="black" stroke="black" stroke-width="4" stroke-miterlimit="10" stroke-linecap="round"/>
<path d="M278.95 202.97L279.24 207.28C279.24 207.28 276.64 208.22 272.46 205.83C268.29 203.44 278.94 202.96 278.94 202.96L278.95 202.97Z" fill="black" stroke="black" stroke-width="4" stroke-miterlimit="10" stroke-linecap="round"/>
<path d="M241 300L230.67 255.13C229.66 250.75 225.12 248.17 220.84 249.56L196.91 257.32C195.27 257.85 193.7 256.33 194.18 254.67L205.63 215.2L226.51 215.79C243.47 216.27 259.81 222.24 273.08 232.81L290.04 246.32L242.84 308.24L241 300Z" fill="black" stroke="black" stroke-width="4" stroke-miterlimit="10" stroke-linecap="round"/>
<path d="M536.85 121.85C536.85 121.85 326.63 219.51 310.49 226.73C288.92 236.38 266.94 250.91 253.31 269.66C229.47 302.44 257.28 332.73 257.28 332.73L340.99 271.48L440.79 193.03C440.79 193.03 455.29 195.31 476.42 183.45C500.95 169.67 540.57 130.43 540.57 130.43" fill="white"/>
<path d="M536.85 121.85C536.85 121.85 326.63 219.51 310.49 226.73C288.92 236.38 266.94 250.91 253.31 269.66C229.47 302.44 257.28 332.73 257.28 332.73L340.99 271.48L440.79 193.03C440.79 193.03 455.29 195.31 476.42 183.45C500.95 169.67 540.57 130.43 540.57 130.43" stroke="black" stroke-width="4" stroke-miterlimit="10" stroke-linecap="round"/>
<path d="M300.44 395.54C300.44 395.54 367.27 375.41 383.95 368.32C397.56 362.54 403.5 358.61 409.29 353.64C419.47 344.91 417.11 328.53 404.94 322.88L346.45 295.7L271.49 329.48L254.28 304.41L257.26 332.72C257.26 332.72 265.7 343.65 287.06 343.65H369.44C369.89 343.65 370.06 344.23 369.68 344.47L294.51 391.82" fill="white"/>
<path d="M300.44 395.54C300.44 395.54 367.27 375.41 383.95 368.32C397.56 362.54 403.5 358.61 409.29 353.64C419.47 344.91 417.11 328.53 404.94 322.88L346.45 295.7L271.49 329.48L254.28 304.41L257.26 332.72C257.26 332.72 265.7 343.65 287.06 343.65H369.44C369.89 343.65 370.06 344.23 369.68 344.47L294.51 391.82" stroke="black" stroke-width="4" stroke-miterlimit="10" stroke-linecap="round"/>
<path d="M300.44 395.54L264.77 406.98L260.9 404.76L283.48 388.15L300.44 395.54Z" fill="black" stroke="black" stroke-width="4" stroke-linejoin="round"/>
<path d="M359.67 350.79L294.52 391.82L300.44 395.54C300.44 395.54 367.27 375.41 383.95 368.32C385.21 367.79 386.4 367.27 387.53 366.76C375.33 363.06 365.11 355.44 359.66 350.78L359.67 350.79Z" fill="#FF0077" stroke="black" stroke-width="4"/>
<path d="M347.41 296.15L346.46 295.71L322.24 285.19L340.98 271.48C340.98 271.48 334.09 264.64 333.14 263.62C322.75 252.39 313.98 237.95 310.48 226.73C310.48 226.73 299.75 231.67 296.99 233.1C291.4 236 285.95 239.17 280.74 242.7C270.41 249.69 260.91 258.16 253.79 268.47C251.45 271.86 249.38 275.44 247.64 279.17C239.45 296.75 240.42 319.41 255.76 332.88C264.36 340.43 275.78 343.65 287.06 343.65H329.12C322.78 328.4 332.3 306.65 347.4 296.15H347.41Z" fill="#FF0077" stroke="black" stroke-width="4"/>
<path d="M453.31 161.39L466.92 188.08C469.9 186.85 473.07 185.33 476.4 183.45C500.94 169.67 540.55 130.43 540.55 130.43L535.37 122.66L453.31 161.39Z" fill="#FF0077" stroke="black" stroke-width="4"/>
<path d="M337.72 293.07L321.22 285.94L288.02 311.86L337.72 293.07Z" fill="black" stroke="black" stroke-width="4" stroke-linejoin="round"/>
<path d="M462.44 158.27L476.08 184.06" stroke="black" stroke-width="4" stroke-linejoin="round"/>
<path d="M350.95 356.28C350.95 356.28 360.48 366.5 374 372.09L350.95 356.28Z" fill="black"/>
<path d="M350.95 356.28C350.95 356.28 360.48 366.5 374 372.09" stroke="black" stroke-width="4" stroke-linejoin="round"/>
<path fill-rule="evenodd" clip-rule="evenodd" d="M518.5 57.02C533.64 70.59 539.23 89.05 530.97 98.26C522.72 107.47 503.75 103.93 488.61 90.37C473.47 76.8 467.88 58.34 476.14 49.13C484.39 39.92 503.36 43.46 518.5 57.02Z" fill="white" stroke="black" stroke-width="4" stroke-miterlimit="10" stroke-linecap="round"/>
</g>
<defs>
<clipPath id="clip0_6341_214">
<rect width="506.03" height="366.98" fill="white" transform="translate(74 42)"/>
</clipPath>
</defs>
</svg>
