<svg width="500" height="694" viewBox="0 0 500 694" fill="none" xmlns="http://www.w3.org/2000/svg">
<g clip-path="url(#clip0_7124_1272)">
<path d="M400.873 504.197C425.007 510.876 456.653 513.794 463.733 514.378C464.687 514.46 465.606 514.766 466.417 515.276L470.086 517.604C471.308 518.365 472.388 519.326 473.307 520.438L486.501 536.459C487.915 538.278 488.844 540.443 489.173 542.735L490.7 553.227C490.673 554.313 489.694 555.116 488.592 554.918C487.774 554.765 487.272 553.969 487.055 553.27L483.28 543.243C482.504 541.204 480.913 539.811 478.99 537.997L470.001 530.827L471.151 534.234C471.585 535.526 470.766 536.905 469.421 537.146C468.418 537.329 467.417 536.813 466.989 535.891L460.941 522.828C460.941 522.828 400.451 540.978 341.927 500.262L348.925 485.207C348.925 485.207 373.49 496.634 400.825 504.208L400.87 504.205L400.873 504.197Z" fill="white" stroke="black" stroke-width="4" stroke-linecap="round" stroke-linejoin="round"/>
<path d="M49.5579 215.566L19.2578 174.108C15.9661 176.03 14.2584 179.842 15.0233 183.583L16.8973 192.864C18.2219 199.442 21.6383 205.436 26.6344 209.914L42.1383 223.853L51.2867 219.208L51.861 218.248L49.5579 215.566Z" fill="black" stroke="black" stroke-width="4" stroke-miterlimit="10" stroke-linecap="round"/>
<path d="M293.669 452.784C287.957 451.108 285.843 446.452 285.837 443.833C285.823 439.208 292.207 435.442 292.902 435.372C293.598 435.303 297.945 439.62 297.292 444.001C296.642 448.373 293.669 452.784 293.669 452.784Z" fill="black" stroke="black" stroke-width="4" stroke-miterlimit="10" stroke-linecap="round"/>
<path d="M290.619 449.829C290.619 449.829 283.421 453.986 282.448 458.686C281.474 463.394 282.219 465.475 285.515 470.153C288.804 474.829 296.493 468.7 296.871 466.858C297.231 465.02 293.286 449.224 293.286 449.224L290.633 449.842L290.625 449.839L290.619 449.829Z" fill="black" stroke="black" stroke-width="4" stroke-miterlimit="10" stroke-linecap="round"/>
<path d="M285.119 430.909L282.68 435.348C282.68 435.348 284.981 437.631 290.615 437.164C296.235 436.684 285.137 430.906 285.137 430.906L285.121 430.901L285.119 430.909Z" fill="black" stroke="black" stroke-width="4" stroke-miterlimit="10" stroke-linecap="round"/>
<path d="M277.482 552.926L310.673 510.297C313.917 506.138 320.026 505.637 323.89 509.234L345.514 529.335C346.997 530.712 349.422 529.875 349.732 527.863L357.079 480.204L334.571 470.501C316.285 462.618 295.948 460.888 276.595 465.568L251.862 471.548L271.444 560.792L277.48 552.934L277.482 552.926Z" fill="black" stroke="black" stroke-width="4" stroke-miterlimit="10" stroke-linecap="round"/>
<path d="M50.849 216.978C50.849 216.978 226.199 424.917 239.802 440.585C257.976 461.526 274.171 487.865 279.401 514.559C288.547 561.231 243.971 579.7 243.971 579.7L185.21 473.107L117.844 340.254C117.844 340.254 101.285 335.504 84.6749 312.43C65.3968 285.628 42.6547 224.27 42.6547 224.27" fill="white"/>
<path d="M52 220C52 220 226.397 425.332 240 441C258.174 461.941 274.171 487.865 279.402 514.559C288.547 561.231 243.971 579.7 243.971 579.7L185.21 473.107L117.844 340.254C117.844 340.254 101.285 335.504 84.675 312.43C65.397 285.628 42.6548 224.27 42.6548 224.27" stroke="black" stroke-width="4" stroke-miterlimit="10" stroke-linecap="round"/>
<path d="M166.96 625.17C166.96 625.17 105.813 570.685 91.5694 554.884C79.9511 542.002 75.5706 534.874 71.87 526.725C65.3625 512.397 75.9781 496.136 91.7187 496.147L167.404 496.171L230.447 569.203L261.167 551.045L243.984 579.687C243.984 579.687 229.596 587.138 206.87 576.57L119.219 535.803C118.738 535.582 118.274 536.11 118.562 536.559L175.116 624.141" fill="white"/>
<path d="M166.96 625.17C166.96 625.17 105.813 570.685 91.5694 554.884C79.9511 542.002 75.5706 534.874 71.87 526.725C65.3625 512.397 75.9781 496.136 91.7187 496.147L167.404 496.171L230.447 569.203L261.167 551.045L243.984 579.687C243.984 579.687 229.596 587.138 206.87 576.57L119.219 535.803C118.738 535.582 118.274 536.11 118.562 536.559L175.116 624.141" stroke="black" stroke-width="4" stroke-miterlimit="10" stroke-linecap="round"/>
<path d="M166.961 625.17L199.256 654.993L204.473 654.544L188.667 625.693L166.964 625.162L166.961 625.17Z" fill="black" stroke="black" stroke-width="4" stroke-linejoin="round"/>
<path d="M126.083 548.248L175.098 624.144L166.96 625.17C166.96 625.17 105.813 570.685 91.5691 554.885C90.4905 553.696 89.484 552.557 88.5362 551.453C103.348 553.552 117.995 550.506 126.094 548.242L123.851 548.843L126.083 548.248Z" fill="#FF0077" stroke="black" stroke-width="4"/>
<path d="M166.169 496.176L167.394 496.177L198.37 496.968L185.211 473.107C185.211 473.107 195.923 469.242 197.439 468.626C214.048 461.821 230.525 450.792 239.803 440.586C239.803 440.586 248.774 451.147 251.006 454.037C255.518 459.886 259.749 465.962 263.549 472.295C271.08 484.844 277.001 498.558 279.475 513.051C280.286 517.813 280.715 522.648 280.725 527.482C280.736 550.239 268.491 573.873 245.505 580.612C232.616 584.387 218.874 582.17 206.876 576.581L162.126 555.771C176.417 542.679 177.055 514.831 166.185 496.181L166.177 496.179L166.169 496.176Z" fill="#FF0077" stroke="black" stroke-width="4"/>
<path d="M120.174 300.389L92.4879 322.058C89.9253 319.273 87.3057 316.085 84.6891 312.443C65.3951 285.636 42.6689 224.283 42.6689 224.283L52.0251 218.582L116 295.5L120.174 300.389Z" fill="#FF0077" stroke="black" stroke-width="4"/>
<path d="M178.002 497.696L199.086 498.278L221.585 542.285L178.002 497.696Z" fill="black" stroke="black" stroke-width="4" stroke-linejoin="round"/>
<path d="M112 292.547L84.7255 313.243" stroke="black" stroke-width="4" stroke-linejoin="round"/>
<path d="M132.644 558.408C132.644 558.408 117.447 564.563 100.298 563.829L132.644 558.408Z" fill="black"/>
<path d="M132.644 558.408C132.644 558.408 117.447 564.563 100.298 563.829" stroke="black" stroke-width="4" stroke-linejoin="round"/>
<path d="M323.984 420.482C314.024 414.2 302.933 415.274 293.989 420.032C285.163 424.728 278.84 432.787 277.791 440.278L289.056 463.164C289.13 463.241 289.223 463.339 289.336 463.454C289.654 463.777 290.121 464.24 290.706 464.789C291.88 465.889 293.515 467.32 295.374 468.66C297.244 470.009 299.272 471.215 301.233 471.926C303.209 472.643 304.91 472.783 306.281 472.31L307.144 472.013L307.934 472.469C318.705 478.686 327.539 480.128 334.036 478.689C340.457 477.266 344.873 472.977 346.876 467.015C350.919 454.982 345.118 435.621 323.984 420.482Z" fill="#FF0077" stroke="black" stroke-width="4"/>
<path d="M277.482 552.926L310.673 510.297C313.917 506.138 320.026 505.637 323.89 509.234L345.514 529.335C346.997 530.712 349.422 529.875 349.732 527.863L357.079 480.204L334.571 470.501C316.285 462.618 295.948 460.888 276.595 465.568L251.862 471.548L271.444 560.792L277.48 552.934L277.482 552.926Z" fill="black" stroke="black" stroke-width="4" stroke-miterlimit="10" stroke-linecap="round"/>
<path d="M166.96 625.17C166.96 625.17 105.813 570.685 91.5694 554.884C79.9511 542.002 75.5706 534.874 71.87 526.725C65.3625 512.397 75.9781 496.136 91.7187 496.147L167.404 496.171L230.447 569.203L261.167 551.045L243.984 579.687C243.984 579.687 229.596 587.138 206.87 576.57L119.219 535.803C118.738 535.582 118.274 536.11 118.562 536.559L175.116 624.141" fill="white"/>
<path d="M166.96 625.17C166.96 625.17 105.813 570.685 91.5694 554.884C79.9511 542.002 75.5706 534.874 71.87 526.725C65.3625 512.397 75.9781 496.136 91.7187 496.147L167.404 496.171L230.447 569.203L261.167 551.045L243.984 579.687C243.984 579.687 229.596 587.138 206.87 576.57L119.219 535.803C118.738 535.582 118.274 536.11 118.562 536.559L175.116 624.141" stroke="black" stroke-width="4" stroke-miterlimit="10" stroke-linecap="round"/>
<path d="M126.084 548.248L175.098 624.144L166.96 625.17C166.96 625.17 105.814 570.685 91.5696 554.885C90.491 553.696 89.4845 552.557 88.5367 551.453C103.349 553.552 117.995 550.506 126.094 548.242L126.875 547.174L126.084 548.248Z" fill="#FF0077" stroke="black" stroke-width="4"/>
<path d="M166.169 496.176L167.394 496.177L198.37 496.968L185.211 473.107C185.211 473.107 195.923 469.242 197.439 468.626C214.048 461.821 230.525 450.792 239.803 440.586C239.803 440.586 248.774 451.147 251.006 454.037C255.518 459.886 259.749 465.962 263.549 472.295C271.08 484.844 277.001 498.558 279.475 513.051C280.286 517.813 280.715 522.648 280.725 527.482C280.736 550.239 268.491 573.873 245.505 580.612C232.616 584.387 218.874 582.17 206.876 576.581L162.126 555.771C176.417 542.679 177.055 514.831 166.185 496.181L166.177 496.179L166.169 496.176Z" fill="#FF0077" stroke="black" stroke-width="4"/>
<path d="M120.5 300.5L92.4878 322.058C89.9252 319.273 87.3056 316.085 84.689 312.443C65.3951 285.637 42.6687 224.283 42.6687 224.283L50.9386 217.175L120.5 300.5Z" fill="#FF0077" stroke="black" stroke-width="4"/>
<path d="M178.002 497.696L199.086 498.278L221.585 542.285L178.002 497.696Z" fill="black" stroke="black" stroke-width="4" stroke-linejoin="round"/>
<path d="M112 292.547L84.7255 313.243" stroke="black" stroke-width="4" stroke-linejoin="round"/>
<path d="M132.644 558.408C132.644 558.408 117.447 564.563 100.298 563.829L132.644 558.408Z" fill="black"/>
<path d="M132.644 558.408C132.644 558.408 117.447 564.563 100.298 563.829" stroke="black" stroke-width="4" stroke-linejoin="round"/>
<path d="M300.452 67.321C300.452 67.321 211.081 84.9457 166.996 110.641" stroke="black" stroke-width="4" stroke-linecap="round"/>
<path d="M261.583 89.959C261.583 89.959 218.032 96.1399 176.681 117.847" stroke="black" stroke-width="4" stroke-linecap="round"/>
<path d="M275.375 465.858L275.36 459.902C274.193 459.439 273.007 458.925 271.959 458.447C269.506 457.342 268.337 454.497 269.348 452.006C270.127 450.09 271.506 447.627 273.935 444.637C280.296 436.803 285.818 434.245 285.818 434.245C285.818 434.245 290.341 433.945 292.156 440.441C292.936 443.242 291.753 452.531 290.167 462.184" fill="white"/>
<path d="M275.375 465.858L275.36 459.902C274.193 459.439 273.007 458.925 271.959 458.447C269.506 457.342 268.337 454.497 269.348 452.006C270.127 450.09 271.506 447.627 273.935 444.637C280.296 436.803 285.818 434.245 285.818 434.245C285.818 434.245 290.341 433.945 292.156 440.441C292.936 443.242 291.753 452.531 290.167 462.184" stroke="black" stroke-width="4" stroke-miterlimit="10" stroke-linecap="round"/>
<path d="M58.866 175.366C50.0104 159.211 64.9467 133.627 92.227 118.224C119.507 102.82 148.801 103.43 157.657 119.585C166.513 135.741 151.576 161.324 124.296 176.728C97.0157 192.131 67.7216 191.522 58.866 175.366Z" fill="white" stroke="black" stroke-width="4" stroke-miterlimit="10" stroke-linecap="round"/>
<mask id="mask0_7124_1272" style="mask-type:alpha" maskUnits="userSpaceOnUse" x="54" y="104" width="108" height="87">
<path d="M59.5964 174.7C50.4184 158.104 64.7658 132.461 91.6422 117.425C118.519 102.389 147.747 103.655 156.925 120.251C166.103 136.847 151.755 162.49 124.879 177.526C98.0025 192.562 68.7745 191.296 59.5964 174.7Z" fill="white" stroke="black" stroke-width="4" stroke-miterlimit="10" stroke-linecap="round"/>
</mask>
<g mask="url(#mask0_7124_1272)">
<path d="M134.639 116.742L121.38 131.891L127.919 143.708L147.716 140.375L160.975 125.225L154.437 113.409L134.639 116.742Z" stroke="black" stroke-width="4"/>
<path d="M108.293 108.612L95.0336 123.761L101.572 135.578L121.37 132.245L134.629 117.095L128.09 105.279L108.293 108.612Z" stroke="black" stroke-width="4"/>
<path d="M128.199 143.552L114.94 158.702L121.478 170.518L141.276 167.185L154.535 152.036L147.996 140.219L128.199 143.552Z" stroke="black" stroke-width="4"/>
<path d="M141.08 89.9315L127.821 105.081L134.359 116.897L154.157 113.565L167.416 98.4152L160.877 86.5986L141.08 89.9315Z" fill="black"/>
<path d="M160.986 124.872L147.727 140.021L154.265 151.838L174.063 148.505L187.322 133.356L180.784 121.539L160.986 124.872Z" fill="black"/>
<path d="M101.851 135.422L88.5922 150.571L95.1307 162.388L114.928 159.055L128.187 143.906L121.649 132.089L101.851 135.422Z" fill="black"/>
<path d="M81.945 100.481L68.686 115.63L75.2244 127.447L95.022 124.114L108.281 108.965L101.743 97.1482L81.945 100.481Z" fill="black"/>
<path d="M121.758 170.363L108.499 185.512L115.038 197.329L134.835 193.996L148.095 178.846L141.556 167.03L121.758 170.363Z" fill="black"/>
<path d="M75.5046 127.292L62.2455 142.441L68.784 154.258L88.5816 150.925L101.841 135.775L95.3022 123.959L75.5046 127.292Z" stroke="black" stroke-width="4"/>
<path d="M95.4108 162.232L82.1518 177.382L88.6903 189.198L108.488 185.865L121.747 170.716L115.208 158.899L95.4108 162.232Z" stroke="black" stroke-width="4"/>
<path d="M69.0642 154.102L55.8051 169.251L62.3436 181.068L82.1411 177.735L95.4002 162.586L88.8617 150.769L69.0642 154.102Z" stroke="black" stroke-width="4"/>
<path d="M42.7175 145.972L29.4584 161.121L35.9969 172.938L55.7945 169.605L69.0535 154.456L62.515 142.639L42.7175 145.972Z" fill="black"/>
<path d="M62.6237 180.912L49.3647 196.062L55.9032 207.878L75.7007 204.546L88.9598 189.396L82.4213 177.58L62.6237 180.912Z" fill="black"/>
</g>
<path d="M58.866 175.366C50.0104 159.211 64.9467 133.627 92.227 118.224C119.507 102.82 148.801 103.43 157.657 119.585C166.513 135.741 151.576 161.324 124.296 176.728C97.0157 192.131 67.7216 191.522 58.866 175.366Z" stroke="black" stroke-width="4" stroke-miterlimit="10" stroke-linecap="round"/>
</g>
<defs>
<clipPath id="clip0_7124_1272">
<rect width="500" height="694" fill="white"/>
</clipPath>
</defs>
</svg>
