<svg width="737" height="729" viewBox="0 0 737 729" fill="none" xmlns="http://www.w3.org/2000/svg">
<path d="M378.339 226.652L82.9128 228.41C74.1956 228.462 67.171 235.576 67.2229 244.299L69.8092 678.701C69.8611 687.425 76.9699 694.454 85.6871 694.402L381.114 692.643C389.831 692.591 396.855 685.478 396.803 676.755L394.217 242.352C394.165 233.629 387.056 226.6 378.339 226.652Z" fill="black"/>
<path d="M232.546 539.895C276.418 539.634 311.772 503.856 311.511 459.983C311.25 416.111 275.472 380.756 231.6 381.018C187.727 381.279 152.373 417.056 152.634 460.929C152.895 504.802 188.673 540.156 232.546 539.895Z" fill="black" stroke="white" stroke-width="4"/>
<path d="M312.899 692.901L312.534 631.622C312.515 628.492 309.96 625.967 306.83 625.986L159.303 626.864C156.173 626.882 153.648 629.438 153.667 632.567L154.031 693.846" stroke="white" stroke-width="4"/>
<path d="M274.41 693.13L274.225 662.06C274.206 658.93 271.651 656.405 268.521 656.424L197.973 656.844C194.843 656.863 192.318 659.418 192.336 662.548L192.521 693.617" stroke="white" stroke-width="4"/>
<path d="M192.771 626.664C199.862 611.592 215.14 601.111 232.909 601.005C250.679 600.899 266.081 611.198 273.35 626.185" stroke="white" stroke-width="4"/>
<path d="M151.249 228.004L151.614 289.283C151.632 292.413 154.187 294.938 157.317 294.919L304.845 294.041C307.975 294.022 310.5 291.467 310.481 288.337L310.116 227.058" stroke="white" stroke-width="4"/>
<path d="M189.737 227.785L189.922 258.854C189.941 261.984 192.496 264.509 195.626 264.49L266.175 264.07C269.305 264.052 271.83 261.497 271.811 258.367L271.626 227.297" stroke="white" stroke-width="4"/>
<path d="M271.374 294.24C264.284 309.312 249.006 319.794 231.237 319.899C213.467 320.005 198.065 309.707 190.796 294.72" stroke="white" stroke-width="4"/>
<path d="M70.625 461.419L396.699 459.477" stroke="white" stroke-width="4"/>
<path d="M164.347 540.292C169.914 541.519 173.613 548.077 171.493 552.98C169.372 557.883 162.043 559.766 157.294 556.625C152.545 553.483 151.712 546.188 155.68 542.514" fill="black"/>
<path d="M164.347 540.292C169.914 541.519 173.613 548.077 171.493 552.98C169.372 557.883 162.043 559.766 157.294 556.625C152.545 553.483 151.712 546.188 155.68 542.514" stroke="#FF0077" stroke-width="4" stroke-miterlimit="10" stroke-linecap="round"/>
<path d="M223.392 342.616C221.547 341.827 219.321 342.53 217.839 343.879C216.357 345.228 215.488 347.123 214.79 349.007C214.179 350.661 213.691 352.604 214.61 354.109C215.075 354.866 215.838 355.401 216.64 355.807C218.757 356.874 221.168 357.18 223.529 357.346C225.69 357.493 227.98 357.509 229.864 356.428C231.748 355.347 232.953 352.819 231.881 350.946" stroke="#FF0077" stroke-width="4" stroke-miterlimit="10" stroke-linecap="round"/>
<path d="M147.925 529.939C128.114 501.216 115.819 466.829 116.091 431.936C116.299 406.295 123.139 381.223 129.932 356.503" stroke="#FF0077" stroke-width="4" stroke-miterlimit="10" stroke-linecap="round"/>
<path d="M119.602 363.154C122.987 360.694 126.544 358.463 130.232 356.491C131.841 359.671 133.45 362.852 135.059 366.032" stroke="#FF0077" stroke-width="4" stroke-miterlimit="10" stroke-linecap="round"/>
<path d="M211.453 287.586C214.415 284.629 217.569 281.87 220.914 279.34C223.001 282.227 225.089 285.115 227.176 288.003" stroke="#FF0077" stroke-width="4" stroke-miterlimit="10" stroke-linecap="round"/>
<path d="M219.748 281.457C217.958 295.048 218.812 308.993 222.251 322.263" stroke="#FF0077" stroke-width="4" stroke-miterlimit="10" stroke-linecap="round"/>
<path d="M334.607 361.774C326.366 365.053 312.9 355.633 320.651 347.387C324.666 343.113 333.853 342.638 337.592 347.506C341.029 351.976 340.044 359.602 334.607 361.774Z" stroke="#FF0077" stroke-width="4" stroke-miterlimit="10" stroke-linecap="round"/>
<path d="M258.243 357.849C256.112 354.241 254.23 350.493 252.617 346.632C255.939 345.332 259.251 344.033 262.574 342.733" stroke="#FF0077" stroke-width="4" stroke-miterlimit="10" stroke-linecap="round"/>
<path d="M255.094 347.797C274.796 349.76 286.454 351.051 306.237 351.553" stroke="#FF0077" stroke-width="4" stroke-miterlimit="10" stroke-linecap="round"/>
<path d="M599.882 488.197C624.016 494.876 655.662 497.794 662.742 498.378C663.696 498.46 664.615 498.766 665.426 499.276L669.095 501.604C670.317 502.365 671.397 503.326 672.316 504.438L685.51 520.459C686.924 522.278 687.853 524.443 688.181 526.735L689.709 537.227C689.682 538.313 688.703 539.116 687.601 538.918C686.783 538.765 686.281 537.969 686.064 537.27L682.289 527.243C681.513 525.204 679.922 523.811 677.998 521.997L669.01 514.827L670.16 518.234C670.594 519.526 669.775 520.905 668.43 521.146C667.427 521.329 666.425 520.813 665.998 519.891L659.95 506.828C659.95 506.828 599.46 524.978 540.936 484.262L547.933 469.207C547.933 469.207 572.498 480.634 599.834 488.208L599.879 488.205L599.882 488.197Z" fill="white" stroke="black" stroke-width="4" stroke-linecap="round" stroke-linejoin="round"/>
<path d="M248.567 199.566L218.267 158.108C214.975 160.03 213.267 163.842 214.032 167.583L215.906 176.863C217.231 183.442 220.647 189.436 225.643 193.914L241.147 207.853L250.295 203.207L250.87 202.248L248.567 199.566Z" fill="white" stroke="black" stroke-width="4" stroke-miterlimit="10" stroke-linecap="round"/>
<path d="M492.678 436.784C486.966 435.108 484.852 430.452 484.845 427.833C484.831 423.208 491.215 419.442 491.911 419.372C492.607 419.303 496.954 423.62 496.301 428.001C495.651 432.373 492.678 436.784 492.678 436.784Z" fill="black" stroke="black" stroke-width="4" stroke-miterlimit="10" stroke-linecap="round"/>
<path d="M489.628 433.829C489.628 433.829 482.429 437.986 481.457 442.686C480.483 447.394 481.228 449.475 484.524 454.153C487.813 458.829 495.501 452.7 495.88 450.858C496.24 449.02 492.295 433.224 492.295 433.224L489.641 433.842L489.633 433.839L489.628 433.829Z" fill="black" stroke="black" stroke-width="4" stroke-miterlimit="10" stroke-linecap="round"/>
<path d="M484.128 414.909L481.689 419.348C481.689 419.348 483.989 421.631 489.624 421.164C495.244 420.684 484.146 414.906 484.146 414.906L484.13 414.901L484.128 414.909Z" fill="black" stroke="black" stroke-width="4" stroke-miterlimit="10" stroke-linecap="round"/>
<path d="M476.491 536.926L509.682 494.297C512.926 490.138 519.034 489.637 522.899 493.234L544.523 513.335C546.006 514.712 548.431 513.875 548.741 511.863L556.088 464.204L533.579 454.501C515.294 446.618 494.957 444.888 475.604 449.568L450.871 455.548L470.453 544.792L476.488 536.934L476.491 536.926Z" fill="black" stroke="black" stroke-width="4" stroke-miterlimit="10" stroke-linecap="round"/>
<path d="M249.858 200.978C249.858 200.978 425.208 408.917 438.811 424.585C456.985 445.526 473.18 471.865 478.41 498.559C487.555 545.231 442.98 563.7 442.98 563.7L384.219 457.107L316.853 324.254C316.853 324.254 300.293 319.504 283.684 296.43C264.406 269.628 241.663 208.27 241.663 208.27" fill="white"/>
<path d="M249.858 200.978C249.858 200.978 425.208 408.917 438.811 424.585C456.985 445.526 473.18 471.865 478.41 498.559C487.555 545.231 442.98 563.7 442.98 563.7L384.219 457.107L316.853 324.254C316.853 324.254 300.293 319.504 283.684 296.43C264.406 269.628 241.663 208.27 241.663 208.27" stroke="black" stroke-width="4" stroke-miterlimit="10" stroke-linecap="round"/>
<path d="M365.969 609.17C365.969 609.17 304.822 554.685 290.578 538.884C278.96 526.002 274.579 518.874 270.879 510.725C264.371 496.397 274.987 480.136 290.728 480.147L366.412 480.171L429.456 553.203L460.176 535.045L442.993 563.687C442.993 563.687 428.605 571.138 405.879 560.57L318.228 519.803C317.747 519.582 317.283 520.11 317.57 520.559L374.125 608.141" fill="white"/>
<path d="M365.969 609.17C365.969 609.17 304.822 554.685 290.578 538.884C278.96 526.002 274.579 518.874 270.879 510.725C264.371 496.397 274.987 480.136 290.728 480.147L366.412 480.171L429.456 553.203L460.176 535.045L442.993 563.687C442.993 563.687 428.605 571.138 405.879 560.57L318.228 519.803C317.747 519.582 317.283 520.11 317.57 520.559L374.125 608.141" stroke="black" stroke-width="4" stroke-miterlimit="10" stroke-linecap="round"/>
<path d="M365.97 609.17L398.264 638.993L403.482 638.544L387.675 609.693L365.973 609.162L365.97 609.17Z" fill="white" stroke="black" stroke-width="4" stroke-linejoin="round"/>
<path d="M325.092 532.248L374.107 608.144L365.968 609.17C365.968 609.17 304.822 554.685 290.578 538.885C289.499 537.696 288.493 536.557 287.545 535.453C302.357 537.552 317.003 534.506 325.102 532.242L322.859 532.843L325.092 532.248Z" fill="#FF0077" stroke="black" stroke-width="4"/>
<path d="M365.177 480.176L366.403 480.177L397.379 480.968L384.22 457.107C384.22 457.107 394.932 453.242 396.448 452.626C413.057 445.821 429.534 434.792 438.812 424.586C438.812 424.586 447.783 435.147 450.015 438.037C454.527 443.886 458.758 449.962 462.557 456.295C470.088 468.844 476.01 482.558 478.484 497.051C479.295 501.813 479.724 506.648 479.734 511.482C479.745 534.239 467.5 557.873 444.514 564.612C431.625 568.387 417.883 566.17 405.885 560.581L361.135 539.771C375.426 526.679 376.063 498.831 365.193 480.181L365.185 480.179L365.177 480.176Z" fill="#FF0077" stroke="black" stroke-width="4"/>
<path d="M319.183 284.389L291.497 306.057C288.934 303.273 286.314 300.085 283.698 296.443C264.404 269.636 241.678 208.283 241.678 208.283L251.034 202.582L319.18 284.396L319.183 284.389Z" fill="#FF0077" stroke="black" stroke-width="4"/>
<path d="M377.011 481.696L398.094 482.278L420.594 526.285L377.011 481.696Z" fill="black" stroke="black" stroke-width="4" stroke-linejoin="round"/>
<path d="M311.009 276.547L283.734 297.243" stroke="black" stroke-width="4" stroke-linejoin="round"/>
<path d="M331.652 542.408C331.652 542.408 316.456 548.563 299.307 547.829L331.652 542.408Z" fill="black"/>
<path d="M331.652 542.408C331.652 542.408 316.456 548.563 299.307 547.829" stroke="black" stroke-width="4" stroke-linejoin="round"/>
<path d="M522.993 404.482C513.033 398.2 501.942 399.274 492.998 404.032C484.172 408.728 477.849 416.787 476.8 424.278L488.065 447.164C488.138 447.241 488.232 447.339 488.345 447.454C488.663 447.777 489.129 448.24 489.715 448.789C490.889 449.889 492.524 451.32 494.383 452.66C496.253 454.009 498.281 455.215 500.242 455.926C502.218 456.643 503.919 456.783 505.29 456.31L506.152 456.013L506.943 456.469C517.713 462.686 526.548 464.128 533.045 462.689C539.466 461.266 543.881 456.977 545.885 451.015C549.928 438.982 544.127 419.621 522.993 404.482Z" fill="#FF0077" stroke="black" stroke-width="4"/>
<path d="M476.491 536.926L509.682 494.297C512.926 490.138 519.034 489.637 522.899 493.234L544.523 513.335C546.006 514.712 548.431 513.875 548.741 511.863L556.088 464.204L533.579 454.501C515.294 446.618 494.957 444.888 475.604 449.568L450.871 455.548L470.453 544.792L476.488 536.934L476.491 536.926Z" fill="black" stroke="black" stroke-width="4" stroke-miterlimit="10" stroke-linecap="round"/>
<path d="M249.858 200.978C249.858 200.978 425.208 408.917 438.811 424.585C456.985 445.526 473.18 471.865 478.41 498.559C487.555 545.231 442.98 563.7 442.98 563.7L384.219 457.107L316.853 324.254C316.853 324.254 300.293 319.504 283.684 296.43C264.406 269.628 241.663 208.27 241.663 208.27" stroke="black" stroke-width="4" stroke-miterlimit="10" stroke-linecap="round"/>
<path d="M365.969 609.17C365.969 609.17 304.822 554.685 290.578 538.884C278.96 526.002 274.579 518.874 270.879 510.725C264.371 496.397 274.987 480.136 290.728 480.147L366.412 480.171L429.456 553.203L460.176 535.045L442.993 563.687C442.993 563.687 428.605 571.138 405.879 560.57L318.228 519.803C317.747 519.582 317.283 520.11 317.57 520.559L374.125 608.141" fill="white"/>
<path d="M365.969 609.17C365.969 609.17 304.822 554.685 290.578 538.884C278.96 526.002 274.579 518.874 270.879 510.725C264.371 496.397 274.987 480.136 290.728 480.147L366.412 480.171L429.456 553.203L460.176 535.045L442.993 563.687C442.993 563.687 428.605 571.138 405.879 560.57L318.228 519.803C317.747 519.582 317.283 520.11 317.57 520.559L374.125 608.141" stroke="black" stroke-width="4" stroke-miterlimit="10" stroke-linecap="round"/>
<path d="M325.093 532.248L374.107 608.144L365.969 609.17C365.969 609.17 304.822 554.685 290.578 538.885C289.5 537.696 288.493 536.557 287.546 535.453C302.357 537.552 317.004 534.506 325.103 532.242L325.884 531.174L325.093 532.248Z" fill="#FF0077" stroke="black" stroke-width="4"/>
<path d="M365.177 480.176L366.403 480.177L397.379 480.968L384.22 457.107C384.22 457.107 394.932 453.242 396.448 452.626C413.057 445.821 429.534 434.792 438.812 424.586C438.812 424.586 447.783 435.147 450.015 438.037C454.527 443.886 458.758 449.962 462.557 456.295C470.088 468.844 476.01 482.558 478.484 497.051C479.295 501.813 479.724 506.648 479.734 511.482C479.745 534.239 467.5 557.873 444.514 564.612C431.625 568.387 417.883 566.17 405.885 560.581L361.135 539.771C375.426 526.679 376.063 498.831 365.193 480.181L365.185 480.179L365.177 480.176Z" fill="#FF0077" stroke="black" stroke-width="4"/>
<path d="M319.182 284.389L291.496 306.058C288.934 303.273 286.314 300.085 283.698 296.443C264.404 269.636 241.677 208.283 241.677 208.283L249.947 201.175L317.049 281.496L319.182 284.389Z" fill="#FF0077" stroke="black" stroke-width="4"/>
<path d="M377.011 481.696L398.094 482.278L420.594 526.285L377.011 481.696Z" fill="black" stroke="black" stroke-width="4" stroke-linejoin="round"/>
<path d="M311.009 276.547L283.734 297.243" stroke="black" stroke-width="4" stroke-linejoin="round"/>
<path d="M331.652 542.408C331.652 542.408 316.456 548.563 299.307 547.829L331.652 542.408Z" fill="black"/>
<path d="M331.652 542.408C331.652 542.408 316.456 548.563 299.307 547.829" stroke="black" stroke-width="4" stroke-linejoin="round"/>
<path d="M499.461 51.321C499.461 51.321 410.089 68.9457 366.004 94.6407" stroke="black" stroke-width="4" stroke-linecap="round"/>
<path d="M460.592 73.959C460.592 73.959 417.041 80.1399 375.69 101.847" stroke="black" stroke-width="4" stroke-linecap="round"/>
<path d="M474.384 449.858L474.369 443.902C473.202 443.439 472.016 442.925 470.968 442.447C468.515 441.342 467.345 438.497 468.357 436.006C469.136 434.09 470.515 431.627 472.944 428.637C479.305 420.803 484.827 418.245 484.827 418.245C484.827 418.245 489.35 417.945 491.164 424.441C491.945 427.242 490.762 436.531 489.176 446.184" fill="white"/>
<path d="M474.384 449.858L474.369 443.902C473.202 443.439 472.016 442.925 470.968 442.447C468.515 441.342 467.345 438.497 468.357 436.006C469.136 434.09 470.515 431.627 472.944 428.637C479.305 420.803 484.827 418.245 484.827 418.245C484.827 418.245 489.35 417.945 491.164 424.441C491.945 427.242 490.762 436.531 489.176 446.184" stroke="black" stroke-width="4" stroke-miterlimit="10" stroke-linecap="round"/>
<path d="M257.873 159.366C249.017 143.211 263.954 117.627 291.234 102.224C318.514 86.8204 347.808 87.43 356.664 103.585C365.519 119.741 350.583 145.324 323.303 160.728C296.023 176.131 266.728 175.522 257.873 159.366Z" fill="white" stroke="black" stroke-width="4" stroke-miterlimit="10" stroke-linecap="round"/>
<mask id="mask0_7124_1274" style="mask-type:alpha" maskUnits="userSpaceOnUse" x="253" y="88" width="108" height="87">
<path d="M258.603 158.7C249.425 142.104 263.773 116.461 290.649 101.425C317.525 86.3894 346.753 87.6547 355.931 104.251C365.11 120.847 350.762 146.49 323.886 161.526C297.009 176.562 267.781 175.296 258.603 158.7Z" fill="white" stroke="black" stroke-width="4" stroke-miterlimit="10" stroke-linecap="round"/>
</mask>
<g mask="url(#mask0_7124_1274)">
<path d="M333.646 100.742L320.387 115.891L326.926 127.708L346.723 124.375L359.982 109.225L353.444 97.4089L333.646 100.742Z" stroke="black" stroke-width="4"/>
<path d="M307.3 92.6116L294.04 107.761L300.579 119.578L320.376 116.245L333.636 101.095L327.097 89.2788L307.3 92.6116Z" stroke="black" stroke-width="4"/>
<path d="M327.206 127.552L313.947 142.702L320.485 154.518L340.283 151.185L353.542 136.036L347.003 124.219L327.206 127.552Z" stroke="black" stroke-width="4"/>
<path d="M340.087 73.9315L326.828 89.0808L333.366 100.897L353.164 97.5646L366.423 82.4152L359.884 70.5986L340.087 73.9315Z" fill="black"/>
<path d="M359.993 108.872L346.734 124.022L353.272 135.838L373.07 132.505L386.329 117.356L379.79 105.539L359.993 108.872Z" fill="black"/>
<path d="M300.858 119.422L287.599 134.571L294.138 146.388L313.935 143.055L327.194 127.906L320.656 116.089L300.858 119.422Z" fill="black"/>
<path d="M280.952 84.481L267.693 99.6304L274.231 111.447L294.029 108.114L307.288 92.9647L300.749 81.1482L280.952 84.481Z" fill="black"/>
<path d="M320.765 154.363L307.506 169.512L314.045 181.329L333.842 177.996L347.101 162.847L340.563 151.03L320.765 154.363Z" fill="black"/>
<path d="M274.511 111.292L261.252 126.441L267.791 138.258L287.588 134.925L300.847 119.775L294.309 107.959L274.511 111.292Z" stroke="black" stroke-width="4"/>
<path d="M294.418 146.232L281.159 161.382L287.697 173.198L307.495 169.865L320.754 154.716L314.215 142.899L294.418 146.232Z" stroke="black" stroke-width="4"/>
<path d="M268.071 138.102L254.812 153.251L261.35 165.068L281.148 161.735L294.407 146.586L287.869 134.769L268.071 138.102Z" stroke="black" stroke-width="4"/>
<path d="M241.724 129.972L228.465 145.121L235.004 156.938L254.801 153.605L268.06 138.456L261.522 126.639L241.724 129.972Z" fill="black"/>
<path d="M261.631 164.912L248.371 180.062L254.91 191.878L274.708 188.546L287.967 173.396L281.428 161.58L261.631 164.912Z" fill="black"/>
</g>
<path d="M257.873 159.366C249.017 143.211 263.954 117.627 291.234 102.224C318.514 86.8204 347.808 87.43 356.664 103.585C365.519 119.741 350.583 145.324 323.303 160.728C296.023 176.131 266.728 175.522 257.873 159.366Z" stroke="black" stroke-width="4" stroke-miterlimit="10" stroke-linecap="round"/>
<path d="M613.42 238.307L660.991 300.528C663.919 304.339 662.885 309.818 658.802 312.175C634.333 326.284 556.866 365.721 516.021 327.131C515.528 326.689 515.105 326.151 514.74 325.592L474.33 263.912C470.244 257.677 476.04 249.831 483.087 252.066C509.886 260.571 556.758 267.544 602.846 236.489C606.259 234.208 610.899 234.998 613.438 238.332L613.42 238.307Z" fill="#FF0077" stroke="black" stroke-width="4" stroke-miterlimit="10"/>
<path d="M463.882 658.616C463.317 661.074 462.273 663.302 460.795 665.28L460.611 665.532L432.237 689.708L436.637 679.057C436.637 679.057 437.228 677.615 437.767 675.262C439.312 668.565 440.317 655.684 429.843 644.696L427.956 642.713L449.267 621.661L451.194 623.98C451.855 624.778 467.34 643.578 463.898 658.618L463.882 658.616Z" fill="black" stroke="black" stroke-width="4" stroke-linejoin="round"/>
<path d="M434.342 200.729L421.274 224.874L441.031 224.336L445.086 205.898L434.342 200.729Z" fill="white" stroke="black" stroke-width="4" stroke-linejoin="round"/>
<path d="M170.08 143.749L163.132 161.529C163.132 161.529 140.728 150.577 143.828 137.229L152.513 119.063C152.513 119.063 153.061 136.793 170.08 143.749Z" fill="white" stroke="black" stroke-width="4" stroke-linejoin="round"/>
<path d="M487.927 527.586L496.337 544.723C496.337 544.723 473.125 553.836 465.381 542.53L457.861 523.852C457.861 523.852 471.299 535.43 487.927 527.586Z" fill="white" stroke="black" stroke-width="4" stroke-linejoin="round"/>
<path d="M87.1281 660.286L26.2262 636.513C26.2262 636.513 63.7016 559.774 109.42 570.373L171.644 600.092C171.644 600.092 110.926 601.993 87.1281 660.286Z" fill="white" stroke="black" stroke-width="4" stroke-linejoin="round"/>
</svg>
