<svg width="500" height="395" viewBox="0 0 500 395" fill="none" xmlns="http://www.w3.org/2000/svg">
<g clip-path="url(#clip0_7181_295)">
<path d="M375.754 58.0867C388.923 57.1156 398.205 70.7643 392.461 82.6543L283.559 308.106C277.815 319.996 261.354 321.21 253.929 310.291L113.133 103.253C105.708 92.3339 112.887 77.4714 126.056 76.5003L375.754 58.0867Z" fill="#FF0077"/>
<path d="M388.95 222.338C429.354 192.45 441.208 139.965 415.426 105.11C389.643 70.2554 335.987 66.2292 295.582 96.1173C255.177 126.005 243.324 178.49 269.106 213.345C294.889 248.199 348.545 252.226 388.95 222.338Z" fill="white" stroke="black" stroke-width="6" stroke-miterlimit="10" stroke-linecap="round"/>
<mask id="mask0_7181_295" style="mask-type:alpha" maskUnits="userSpaceOnUse" x="252" y="73" width="181" height="173">
<path d="M388.95 222.338C429.354 192.45 441.208 139.965 415.426 105.11C389.643 70.2554 335.987 66.2292 295.582 96.1173C255.177 126.005 243.324 178.49 269.106 213.345C294.889 248.199 348.545 252.226 388.95 222.338Z" fill="white" stroke="black" stroke-width="6" stroke-miterlimit="10" stroke-linecap="round"/>
</mask>
<g mask="url(#mask0_7181_295)">
<path d="M339.458 94.7296L340.969 126.807L312.249 148.052L282.019 137.218L280.508 105.141L309.227 83.8963L339.458 94.7296Z" stroke="black" stroke-width="6"/>
<path d="M398.205 84.3595L399.716 116.437L370.997 137.682L340.766 126.848L339.255 94.7706L367.974 73.5262L398.205 84.3595Z" stroke="black" stroke-width="6"/>
<path d="M312.349 147.869L313.86 179.947L285.14 201.191L254.909 190.358L253.398 158.28L282.118 137.036L312.349 147.869Z" stroke="black" stroke-width="6"/>
<path d="M366.568 41.5906L368.079 73.6683L339.36 94.9126L309.129 84.0793L307.618 52.0016L336.338 30.7573L366.568 41.5906Z" fill="black"/>
<path d="M280.711 105.1L282.222 137.178L253.502 158.422L223.272 147.589L221.761 115.511L250.48 94.2668L280.711 105.1Z" fill="black"/>
<path d="M371.095 137.499L372.606 169.577L343.886 190.821L313.655 179.988L312.144 147.91L340.864 126.666L371.095 137.499Z" fill="black"/>
<path d="M456.952 73.9894L458.463 106.067L429.744 127.311L399.513 116.478L398.002 84.4004L426.721 63.1561L456.952 73.9894Z" fill="black"/>
<path d="M285.238 201.008L286.749 233.086L258.03 254.33L227.799 243.497L226.288 211.419L255.008 190.175L285.238 201.008Z" fill="black"/>
<path d="M429.842 127.128L431.353 159.206L402.633 180.45L372.402 169.617L370.891 137.539L399.611 116.295L429.842 127.128Z" stroke="black" stroke-width="6"/>
<path d="M343.985 190.638L345.496 222.715L316.777 243.96L286.546 233.127L285.035 201.049L313.755 179.805L343.985 190.638Z" stroke="black" stroke-width="6"/>
<path d="M402.731 180.268L404.243 212.345L375.523 233.59L345.292 222.756L343.781 190.679L372.501 169.434L402.731 180.268Z" stroke="black" stroke-width="6"/>
<path d="M461.479 169.897L462.99 201.975L434.27 223.219L404.039 212.386L402.528 180.308L431.248 159.064L461.479 169.897Z" fill="black"/>
<path d="M375.622 233.407L377.133 265.484L348.414 286.729L318.183 275.895L316.672 243.818L345.391 222.573L375.622 233.407Z" fill="black"/>
</g>
<path d="M388.95 222.338C429.354 192.45 441.208 139.965 415.426 105.11C389.643 70.2554 335.987 66.2292 295.582 96.1173C255.177 126.005 243.324 178.49 269.106 213.345C294.889 248.199 348.545 252.226 388.95 222.338Z" stroke="black" stroke-width="6" stroke-miterlimit="10" stroke-linecap="round"/>
<path d="M34 337.008C119 309 233.997 242.073 257.048 223.231" stroke="black" stroke-width="6" stroke-linecap="round"/>
<path d="M269.48 242.328C258.467 251.33 224.99 273.107 184.465 295.591" stroke="black" stroke-width="6" stroke-linecap="round"/>
</g>
<defs>
<clipPath id="clip0_7181_295">
<rect width="500" height="395" fill="white"/>
</clipPath>
</defs>
</svg>
