<svg width="500" height="616" viewBox="0 0 500 616" fill="none" xmlns="http://www.w3.org/2000/svg">
<path d="M202.44 402.64L241.6 294.5L150.4 389.87C147.21 392.9 142.03 392.21 139.75 388.44L136.45 383.01L120.74 409.78L123.18 413.23C132.95 427.04 148.82 428.35 164.08 421.04L202.45 402.64H202.44Z" fill="white" stroke="black" stroke-width="4" stroke-miterlimit="10" stroke-linecap="round"/>
<path d="M336.37 165.86L371.04 112.24C372.56 111.74 376.09 109.74 377.5 109L386.62 104.51C388.25 103.7 388.93 101.7 388.15 100.04C387.37 98.3801 386 98.5601 383.28 98.5601L375.79 99.1901L379.88 81.7001C380.08 78.9201 381.28 76.2701 383.28 74.3101L392.99 64.5801C393.7 63.9801 394.38 62.9401 394.1 61.9001C393.91 60.8201 392.95 59.3001 390.99 60.3501L379.55 67.7401C377.07 69.3501 375.03 71.5601 373.64 74.1901L361.38 98.5601L338.89 126.34" fill="white"/>
<path d="M336.37 165.86L371.04 112.24C372.56 111.74 376.09 109.74 377.5 109L386.62 104.51C388.25 103.7 388.93 101.7 388.15 100.04C387.37 98.3801 386 98.5601 383.28 98.5601L375.79 99.1901L379.88 81.7001C380.08 78.9201 381.28 76.2701 383.28 74.3101L392.99 64.5801C393.7 63.9801 394.38 62.9401 394.1 61.9001C393.91 60.8201 392.95 59.3001 390.99 60.3501L379.55 67.7401C377.07 69.3501 375.03 71.5601 373.64 74.1901L361.38 98.5601L338.89 126.34" stroke="black" stroke-width="4"/>
<path d="M297.37 175.54C334.644 175.54 364.86 147.885 364.86 113.77C364.86 79.6554 334.644 52 297.37 52C260.096 52 229.88 79.6554 229.88 113.77C229.88 147.885 260.096 175.54 297.37 175.54Z" fill="black" stroke="black" stroke-width="4" stroke-miterlimit="10"/>
<path d="M461.59 583.53H324.54L325.97 577.3L315.4 583.53L314.86 578.42L307.54 583.53H297.37" stroke="black" stroke-width="4" stroke-miterlimit="10" stroke-linecap="round"/>
<path d="M204 402L307.82 365.07C307.82 365.07 322.046 332.208 313.5 315.5C309.233 307.157 275.5 297.5 275.5 297.5C264.965 282.934 255.733 282.585 242 283C221.5 294 174.95 364.49 174.95 364.49L199.33 404.07L204 402Z" fill="black" stroke="black" stroke-width="4" stroke-miterlimit="10"/>
<path d="M119.82 408.35L61.9404 344.46L70.0504 335.93C70.0504 335.93 95.3704 346.22 118.61 361.1C134.29 371.14 136.44 383.02 136.44 383.02L119.82 408.35Z" fill="black" stroke="black" stroke-width="4" stroke-miterlimit="10"/>
<path d="M373.34 397.71L313.92 314.87C313.92 314.87 258.59 306.29 266.27 341.92C273.72 376.48 338.31 428.41 338.31 428.41L373.34 397.71Z" fill="black" stroke="black" stroke-width="4" stroke-miterlimit="10"/>
<path d="M382 410L373.34 397.71L338.31 428.41L367 452.13C374 458 366.53 462.04 365 465L365.89 467L398.54 473.9L401.05 450.28C401.45 442.39 399.39 434.57 395.15 427.9L382 410Z" fill="white" stroke="black" stroke-width="4" stroke-miterlimit="10" stroke-linecap="round"/>
<mask id="path-10-outside-1_6341_216" maskUnits="userSpaceOnUse" x="132" y="182" width="144" height="173" fill="black">
<rect fill="white" x="132" y="182" width="144" height="173"/>
<path d="M151.817 350.722C152.217 350.907 152.645 351 153.092 351C153.612 350.981 154.884 350.628 155.819 349.361L167.5 327L168 337.265C168 339.265 169.818 340.58 171.028 340.58C171.586 340.58 172.135 340.441 172.628 340.173C173.69 339.589 174.35 338.478 174.35 337.265C174.341 334.125 174.313 326.521 174.257 323.622C174.192 320.621 175.02 312.897 175.225 311.044L211.915 251.148L262.5 193.5C263.114 192.87 272.171 187.519 271.669 186.797C271.315 186.287 270.738 186 270.142 186C269.891 186 269.649 186.046 269.407 186.148L203.352 214.443C203.026 214.582 202.738 214.814 202.542 215.11C200.467 218.185 190.098 233.624 189.205 235.486L157.802 301.023L147.396 316.731L136.627 330.865C135.734 332.032 135.799 333.68 136.795 334.773C137.305 335.333 139.078 335.295 139.769 334.653C140.7 333.727 148.593 326.78 148.611 326.78C148.611 326.78 139.741 337.339 139.304 337.894C138.373 339.071 137.833 340.951 138.839 342.062L139.304 342.525C139.304 342.525 139.853 342.988 140.7 342.988C142.027 342.609 142.441 341.757 143.027 341.136L154.196 328.633L144.888 343.452C144.19 344.98 144.157 346.73 145.758 347.481C146.177 347.675 146.624 347.777 147.08 347.777C148.113 347.777 148.965 347.082 149.542 346.23L159.315 330.948L151.404 346.23C150.873 347.74 150.007 349.009 151.817 350.722Z"/>
</mask>
<path d="M151.817 350.722C152.217 350.907 152.645 351 153.092 351C153.612 350.981 154.884 350.628 155.819 349.361L167.5 327L168 337.265C168 339.265 169.818 340.58 171.028 340.58C171.586 340.58 172.135 340.441 172.628 340.173C173.69 339.589 174.35 338.478 174.35 337.265C174.341 334.125 174.313 326.521 174.257 323.622C174.192 320.621 175.02 312.897 175.225 311.044L211.915 251.148L262.5 193.5C263.114 192.87 272.171 187.519 271.669 186.797C271.315 186.287 270.738 186 270.142 186C269.891 186 269.649 186.046 269.407 186.148L203.352 214.443C203.026 214.582 202.738 214.814 202.542 215.11C200.467 218.185 190.098 233.624 189.205 235.486L157.802 301.023L147.396 316.731L136.627 330.865C135.734 332.032 135.799 333.68 136.795 334.773C137.305 335.333 139.078 335.295 139.769 334.653C140.7 333.727 148.593 326.78 148.611 326.78C148.611 326.78 139.741 337.339 139.304 337.894C138.373 339.071 137.833 340.951 138.839 342.062L139.304 342.525C139.304 342.525 139.853 342.988 140.7 342.988C142.027 342.609 142.441 341.757 143.027 341.136L154.196 328.633L144.888 343.452C144.19 344.98 144.157 346.73 145.758 347.481C146.177 347.675 146.624 347.777 147.08 347.777C148.113 347.777 148.965 347.082 149.542 346.23L159.315 330.948L151.404 346.23C150.873 347.74 150.007 349.009 151.817 350.722Z" fill="white"/>
<path d="M153.092 351V355H153.163L153.235 354.997L153.092 351ZM151.817 350.722L149.067 353.627L149.543 354.077L150.137 354.352L151.817 350.722ZM151.404 346.23L147.851 344.391L147.723 344.64L147.63 344.904L151.404 346.23ZM159.315 330.948L162.867 332.787L155.945 328.793L159.315 330.948ZM149.542 346.23L152.854 348.473L152.884 348.43L152.912 348.385L149.542 346.23ZM145.758 347.481L144.061 351.103L144.073 351.108L145.758 347.481ZM144.888 343.452L141.501 341.324L141.36 341.549L141.25 341.79L144.888 343.452ZM154.196 328.633L157.583 330.76L151.213 325.968L154.196 328.633ZM143.027 341.136L145.934 343.883L145.973 343.843L146.01 343.801L143.027 341.136ZM140.7 342.988V346.988H141.261L141.801 346.834L140.7 342.988ZM139.304 342.525L136.482 345.361L136.599 345.477L136.725 345.583L139.304 342.525ZM138.839 342.062L135.872 344.745L135.943 344.823L136.017 344.898L138.839 342.062ZM139.304 337.894L142.441 340.377L142.447 340.369L139.304 337.894ZM148.611 326.78L151.674 329.353C152.674 328.163 152.894 326.5 152.237 325.091C151.58 323.681 150.166 322.78 148.611 322.78V326.78ZM139.769 334.653L142.491 337.584L142.542 337.537L142.591 337.488L139.769 334.653ZM136.795 334.773L133.838 337.467L133.838 337.467L136.795 334.773ZM136.627 330.865L139.803 333.296L139.809 333.289L136.627 330.865ZM147.396 316.731L150.578 319.155L150.658 319.05L150.731 318.94L147.396 316.731ZM157.802 301.023L161.136 303.232L161.289 303.001L161.409 302.752L157.802 301.023ZM189.205 235.486L185.599 233.755L185.598 233.758L189.205 235.486ZM202.542 215.11L205.858 217.348L205.87 217.33L205.882 217.312L202.542 215.11ZM203.352 214.443L204.921 218.123L204.927 218.12L203.352 214.443ZM269.407 186.148L267.855 182.462L267.843 182.466L267.832 182.471L269.407 186.148ZM271.669 186.797L268.383 189.078L268.385 189.081L271.669 186.797ZM262.5 193.5L259.637 190.707L259.563 190.783L259.493 190.862L262.5 193.5ZM211.915 251.148L208.908 248.51L208.683 248.767L208.504 249.059L211.915 251.148ZM175.225 311.044L171.814 308.955L171.348 309.717L171.249 310.605L175.225 311.044ZM174.257 323.622L178.257 323.545L178.256 323.535L174.257 323.622ZM174.35 337.265H178.35L178.35 337.253L174.35 337.265ZM172.628 340.173L174.541 343.686L174.549 343.682L174.556 343.678L172.628 340.173ZM168 337.265H172V337.167L171.995 337.07L168 337.265ZM167.5 327L171.495 326.805L170.778 312.085L163.955 325.148L167.5 327ZM155.819 349.361L159.038 351.736L159.222 351.487L159.365 351.213L155.819 349.361ZM153.092 351V347C153.212 347 153.358 347.028 153.497 347.092L151.817 350.722L150.137 354.352C151.077 354.787 152.079 355 153.092 355V351ZM151.817 350.722L154.567 347.818C154.404 347.663 154.488 347.694 154.589 347.928C154.639 348.046 154.681 348.186 154.705 348.339C154.728 348.49 154.728 348.619 154.721 348.713C154.714 348.802 154.701 348.849 154.703 348.839C154.707 348.826 154.72 348.777 154.758 348.67C154.799 348.555 154.847 348.432 154.923 348.235C154.993 348.057 155.087 347.815 155.177 347.556L151.404 346.23L147.63 344.904C147.588 345.023 147.539 345.151 147.466 345.338C147.401 345.505 147.308 345.743 147.222 345.986C147.05 346.468 146.814 347.208 146.745 348.087C146.577 350.233 147.46 352.105 149.067 353.627L151.817 350.722ZM151.404 346.23L154.956 348.069L162.867 332.787L159.315 330.948L155.763 329.109L147.851 344.391L151.404 346.23ZM159.315 330.948L155.945 328.793L146.172 344.075L149.542 346.23L152.912 348.385L162.685 333.103L159.315 330.948ZM149.542 346.23L146.23 343.987C146.157 344.095 146.141 344.077 146.241 344.009C146.364 343.927 146.659 343.777 147.08 343.777V347.777V351.777C150.019 351.777 151.93 349.837 152.854 348.473L149.542 346.23ZM147.08 347.777V343.777C147.228 343.777 147.354 343.812 147.443 343.853L145.758 347.481L144.073 351.108C144.999 351.538 146.019 351.777 147.08 351.777V347.777ZM145.758 347.481L147.455 343.859C147.62 343.936 147.876 344.108 148.096 344.414C148.31 344.711 148.393 345 148.42 345.185C148.444 345.355 148.422 345.43 148.431 345.387C148.438 345.347 148.464 345.252 148.527 345.114L144.888 343.452L141.25 341.79C140.708 342.976 140.251 344.595 140.502 346.331C140.787 348.297 141.962 350.119 144.061 351.103L145.758 347.481ZM144.888 343.452L148.276 345.579L157.583 330.76L154.196 328.633L150.808 326.505L141.501 341.324L144.888 343.452ZM154.196 328.633L151.213 325.968L140.044 338.471L143.027 341.136L146.01 343.801L157.179 331.297L154.196 328.633ZM143.027 341.136L140.12 338.389C139.972 338.545 139.846 338.691 139.749 338.807C139.66 338.913 139.561 339.035 139.51 339.097C139.378 339.258 139.342 339.295 139.332 339.306C139.331 339.306 139.344 339.293 139.368 339.274C139.392 339.255 139.423 339.233 139.459 339.211C139.495 339.189 139.529 339.172 139.557 339.159C139.585 339.147 139.601 339.143 139.6 339.143L140.7 342.988L141.801 346.834C144.52 346.056 146.104 343.704 145.934 343.883L143.027 341.136ZM140.7 342.988V338.988C141.01 338.988 141.251 339.073 141.404 339.145C141.484 339.183 141.558 339.227 141.631 339.276C141.669 339.301 141.708 339.329 141.749 339.36C141.769 339.376 141.791 339.392 141.813 339.41C141.824 339.419 141.836 339.428 141.847 339.438C141.853 339.443 141.859 339.448 141.865 339.453C141.868 339.455 141.871 339.457 141.874 339.46C141.875 339.461 141.877 339.462 141.878 339.464C141.879 339.464 141.88 339.465 141.88 339.466C141.882 339.467 141.883 339.468 139.304 342.525C136.725 345.583 136.726 345.584 136.728 345.585C136.728 345.585 136.729 345.586 136.73 345.587C136.731 345.588 136.733 345.59 136.734 345.591C136.738 345.594 136.741 345.596 136.744 345.599C136.75 345.604 136.757 345.61 136.764 345.616C136.778 345.627 136.792 345.639 136.808 345.651C136.838 345.676 136.872 345.702 136.91 345.731C136.984 345.787 137.073 345.851 137.175 345.92C137.377 346.055 137.642 346.215 137.965 346.368C138.604 346.673 139.543 346.988 140.7 346.988V342.988ZM139.304 342.525L142.125 339.69L141.66 339.227L138.839 342.062L136.017 344.898L136.482 345.361L139.304 342.525ZM138.839 342.062L141.805 339.379C142.07 339.672 142.209 339.998 142.265 340.259C142.317 340.497 142.294 340.642 142.291 340.659C142.288 340.678 142.293 340.641 142.329 340.563C142.364 340.486 142.407 340.419 142.441 340.377L139.304 337.894L136.167 335.412C135.337 336.462 134.65 337.842 134.399 339.347C134.148 340.859 134.288 342.994 135.872 344.745L138.839 342.062ZM139.304 337.894L142.447 340.369C142.44 340.377 142.469 340.341 142.566 340.224C142.65 340.122 142.764 339.985 142.905 339.815C143.186 339.477 143.566 339.023 144.011 338.489C144.902 337.424 146.051 336.054 147.186 334.699C148.322 333.346 149.444 332.009 150.282 331.011C150.701 330.512 151.049 330.097 151.292 329.808C151.414 329.663 151.509 329.549 151.574 329.472C151.607 329.433 151.632 329.403 151.649 329.383C151.657 329.373 151.663 329.366 151.668 329.361C151.67 329.358 151.671 329.356 151.672 329.355C151.673 329.354 151.673 329.354 151.674 329.354C151.674 329.353 151.674 329.353 151.674 329.353C151.674 329.353 151.674 329.353 148.611 326.78C145.549 324.207 145.549 324.207 145.549 324.207C145.548 324.208 145.548 324.208 145.548 324.208C145.548 324.208 145.548 324.209 145.547 324.209C145.546 324.211 145.544 324.212 145.542 324.215C145.538 324.22 145.532 324.228 145.523 324.238C145.506 324.258 145.481 324.287 145.449 324.326C145.384 324.404 145.288 324.518 145.166 324.662C144.923 324.952 144.575 325.367 144.155 325.867C143.317 326.865 142.194 328.203 141.057 329.559C138.828 332.216 136.431 335.078 136.161 335.42L139.304 337.894ZM148.611 326.78V322.78C147.856 322.852 146.904 323.163 146.686 323.274C146.584 323.332 146.426 323.43 146.369 323.468C146.271 323.534 146.198 323.59 146.178 323.605C146.123 323.647 146.081 323.682 146.07 323.691C146.037 323.718 146.01 323.741 145.998 323.751C145.968 323.777 145.934 323.806 145.902 323.834C145.835 323.891 145.743 323.971 145.632 324.069C145.408 324.264 145.092 324.542 144.712 324.876C143.951 325.545 142.93 326.445 141.881 327.375C139.856 329.167 137.521 331.248 136.948 331.817L139.769 334.653L142.591 337.488C142.949 337.132 145.025 335.276 147.184 333.364C148.227 332.441 149.24 331.547 149.994 330.884C150.371 330.552 150.681 330.28 150.896 330.092C151.005 329.998 151.085 329.928 151.137 329.883C151.149 329.872 151.159 329.864 151.166 329.858C151.174 329.851 151.177 329.848 151.176 329.849C151.176 329.849 151.173 329.852 151.168 329.856C151.164 329.859 151.154 329.868 151.14 329.879C151.133 329.885 151.093 329.917 151.041 329.958C151.022 329.972 150.949 330.028 150.853 330.093C150.796 330.131 150.639 330.228 150.537 330.286C150.319 330.398 149.366 330.708 148.611 330.78V326.78ZM136.795 334.773L139.752 332.079C140.064 332.421 140.083 332.932 139.803 333.296L136.627 330.865L133.451 328.433C131.385 331.132 131.535 334.939 133.838 337.467L136.795 334.773ZM136.627 330.865L139.809 333.289L150.578 319.155L147.396 316.731L144.214 314.307L133.446 328.441L136.627 330.865ZM147.396 316.731L150.731 318.94L161.136 303.232L157.802 301.023L154.467 298.814L144.061 314.522L147.396 316.731ZM157.802 301.023L161.409 302.752L192.812 237.215L189.205 235.486L185.598 233.758L154.195 299.295L157.802 301.023ZM189.205 235.486L192.811 237.217C192.796 237.249 192.823 237.192 192.938 236.993C193.04 236.817 193.179 236.586 193.356 236.298C193.709 235.725 194.179 234.982 194.738 234.113C195.854 232.378 197.288 230.194 198.766 227.961C201.721 223.497 204.825 218.879 205.858 217.348L202.542 215.11L199.227 212.872C198.185 214.416 195.067 219.055 192.095 223.545C190.61 225.789 189.154 228.006 188.01 229.786C186.953 231.429 185.958 233.007 185.599 233.755L189.205 235.486ZM202.542 215.11L205.882 217.312C205.615 217.716 205.267 217.975 204.921 218.123L203.352 214.443L201.783 210.764C200.786 211.189 199.861 211.911 199.203 212.908L202.542 215.11ZM203.352 214.443L204.927 218.12L270.982 189.825L269.407 186.148L267.832 182.471L201.777 210.766L203.352 214.443ZM269.407 186.148L270.959 189.835C270.696 189.946 270.409 190 270.142 190V186V182C269.373 182 268.602 182.147 267.855 182.462L269.407 186.148ZM270.142 186V190C269.465 190 268.798 189.676 268.383 189.078L271.669 186.797L274.954 184.515C273.832 182.898 272.011 182 270.142 182V186ZM271.669 186.797L268.385 189.081C267.119 187.261 267.931 185.493 268.066 185.218C268.189 184.968 268.311 184.796 268.373 184.713C268.441 184.623 268.492 184.567 268.51 184.548C268.537 184.518 268.433 184.627 268.078 184.903C267.421 185.415 266.427 186.099 265.296 186.847C264.177 187.587 263.044 188.311 262.086 188.932C261.621 189.234 261.186 189.519 260.839 189.755C260.664 189.874 260.058 190.275 259.637 190.707L262.5 193.5L265.363 196.293C265.095 196.568 264.907 196.664 265.342 196.367C265.607 196.187 265.976 195.944 266.439 195.645C267.336 195.063 268.551 194.286 269.71 193.519C270.857 192.76 272.072 191.932 272.991 191.217C273.424 190.88 273.949 190.448 274.378 189.985C274.568 189.779 274.95 189.348 275.244 188.749C275.457 188.317 276.281 186.422 274.952 184.512L271.669 186.797ZM262.5 193.5L259.493 190.862L208.908 248.51L211.915 251.148L214.922 253.786L265.507 196.138L262.5 193.5ZM211.915 251.148L208.504 249.059L171.814 308.955L175.225 311.044L178.636 313.134L215.326 253.237L211.915 251.148ZM175.225 311.044L171.249 310.605C171.06 312.32 170.186 320.375 170.258 323.709L174.257 323.622L178.256 323.535C178.198 320.867 178.981 313.474 179.201 311.484L175.225 311.044ZM174.257 323.622L170.258 323.699C170.313 326.557 170.341 334.12 170.35 337.277L174.35 337.265L178.35 337.253C178.341 334.13 178.313 326.485 178.257 323.545L174.257 323.622ZM174.35 337.265H170.35C170.35 337.012 170.49 336.784 170.701 336.668L172.628 340.173L174.556 343.678C176.889 342.395 178.35 339.944 178.35 337.265H174.35ZM172.628 340.173L170.716 336.66C170.811 336.608 170.92 336.58 171.028 336.58V340.58V344.58C172.252 344.58 173.459 344.275 174.541 343.686L172.628 340.173ZM171.028 340.58V336.58C171.416 336.58 171.641 336.676 171.698 336.701C171.773 336.736 171.806 336.764 171.824 336.781C171.861 336.817 172 336.985 172 337.265H168H164C164 339.544 165.048 341.371 166.296 342.564C167.45 343.667 169.15 344.58 171.028 344.58V340.58ZM168 337.265L171.995 337.07L171.495 326.805L167.5 327L163.505 327.195L164.005 337.459L168 337.265ZM167.5 327L163.955 325.148L152.274 347.509L155.819 349.361L159.365 351.213L171.045 328.852L167.5 327ZM153.092 351L153.235 354.997C154.834 354.94 157.3 354.092 159.038 351.736L155.819 349.361L152.601 346.986C152.552 347.052 152.517 347.068 152.516 347.068C152.512 347.07 152.526 347.063 152.569 347.051C152.591 347.045 152.629 347.036 152.684 347.027C152.735 347.019 152.825 347.007 152.95 347.003L153.092 351ZM136.795 334.773L133.838 337.467C134.702 338.415 135.753 338.79 136.365 338.951C137.056 339.131 137.742 339.182 138.348 339.162C139.353 339.128 141.119 338.858 142.491 337.584L139.769 334.653L137.047 331.722C137.45 331.348 137.807 331.23 137.887 331.205C138.001 331.169 138.061 331.167 138.08 331.166C138.093 331.166 138.198 331.161 138.391 331.211C138.505 331.241 139.143 331.411 139.752 332.079L136.795 334.773Z" fill="black" mask="url(#path-10-outside-1_6341_216)"/>
<path d="M158.85 299.791L175.752 309.294L184.836 294.123L166.054 283.713L158.85 299.791Z" fill="black" stroke="black" stroke-width="4" stroke-miterlimit="10"/>
<path d="M317.55 174.61L308.33 190.22C305.45 195.1 300.5 195.24 297.34 190.54L275.39 157.87C260.23 156.36 249.66 152.81 233.46 171.42L200.93 214.17L237.42 226.07L234.01 271.5C233.69 275.79 236.09 279.82 240.01 281.59L313.93 314.88C313.93 314.88 345.39 221.68 328.24 175.7L317.55 174.62V174.61Z" fill="#FF0077" stroke="black" stroke-width="4"/>
<path d="M13.5203 330.74L66 319L68.6403 318.49C69.6803 318.28 70.6903 318.94 70.9203 319.97L74.6103 336.48C74.8503 337.56 74.7603 338.5 73.6603 338.68L60.5 343.5L14.2903 337.32C13.5103 337.21 12.8803 336.65 12.6803 335.89L12.0503 333.06C11.8103 332.01 12.4703 330.97 13.5203 330.74Z" fill="#FF0077" stroke="black" stroke-width="4"/>
<path d="M301.68 167.2L303.33 169.37C311.1 179.62 326.57 179.44 334.1 169.01L348.81 148.62C355.17 137.39 353.49 122.43 341.62 113.19L338.04 110.52C324.13 101.44 306.29 104.97 298.37 118.96C291.57 130.98 295.49 143.83 295.49 143.83L285.67 157.58L275.38 157.86L296.02 188.58C297.76 191.17 300.36 193.06 303.35 193.92" fill="white"/>
<path d="M301.68 167.2L303.33 169.37C311.1 179.62 326.57 179.44 334.1 169.01L348.81 148.62C355.17 137.39 353.49 122.43 341.62 113.19L338.04 110.52C324.13 101.44 306.29 104.97 298.37 118.96C291.57 130.98 295.49 143.83 295.49 143.83L285.67 157.58L275.38 157.86L296.02 188.58C297.76 191.17 300.36 193.06 303.35 193.92" stroke="black" stroke-width="4" stroke-linecap="round" stroke-linejoin="round"/>
<path d="M299.68 167.33L303.36 193.93L315.4 178.25L299.68 167.33Z" fill="black"/>
<path d="M399.74 458.78L391.43 563.37L377.25 563.08C377.25 563.08 365.33 512.93 360.78 485.71C357.71 467.35 370.63 458.77 370.63 458.77L385.5 458.78H399.74Z" fill="black" stroke="black" stroke-width="4" stroke-miterlimit="10"/>
<path d="M379.2 583.45L435.61 583.52C436.68 583.52 437.55 582.65 437.55 581.58V578.68C437.52 577.9 437.02 577.21 436.29 576.93L393.28 562.77L378.65 562.65C377.54 562.59 377.24 563.48 377.24 564.59V581.51C377.24 582.57 378.08 583.43 379.14 583.45H379.2Z" fill="#FF0077" stroke="black" stroke-width="4"/>
<path d="M362.76 583.53C382.51 583.53 398.52 567.52 398.52 547.77C398.52 528.02 382.51 512.01 362.76 512.01C343.01 512.01 327 528.02 327 547.77C327 567.52 343.01 583.53 362.76 583.53Z" fill="white" stroke="black" stroke-width="4" stroke-miterlimit="10" stroke-linecap="round"/>
<path d="M289.58 159.82C309.086 159.82 324.9 144.007 324.9 124.5C324.9 104.993 309.086 89.1799 289.58 89.1799C270.073 89.1799 254.26 104.993 254.26 124.5C254.26 144.007 270.073 159.82 289.58 159.82Z" fill="black" stroke="black" stroke-width="4" stroke-miterlimit="10"/>
<path d="M285.89 173.51L264.74 171.89C257.53 171.34 250.54 174.47 246.15 180.22L216.71 218.82" stroke="black" stroke-width="4" stroke-linecap="round"/>
<path d="M313.92 314.87L240.14 281.64L223.43 298.23C219.24 302.39 215.42 306.91 212.01 311.73L174.67 364.49L199 403.5" stroke="black" stroke-width="4" stroke-miterlimit="10"/>
<path d="M234.99 227.57L254.25 208.58" stroke="black" stroke-width="4" stroke-linecap="round"/>
<path d="M255.99 209.44L237.23 248.36L237.41 226.06L255.99 209.44Z" fill="black"/>
<path d="M340.32 135.37C351.681 135.37 360.89 126.16 360.89 114.8C360.89 103.439 351.681 94.23 340.32 94.23C328.96 94.23 319.75 103.439 319.75 114.8C319.75 126.16 328.96 135.37 340.32 135.37Z" fill="black" stroke="black" stroke-width="4" stroke-miterlimit="10"/>
<path d="M290.53 373.3C298.16 371.34 306.19 371.68 313.63 374.27L313.92 374.37" stroke="white" stroke-width="4" stroke-miterlimit="10" stroke-linecap="round"/>
</svg>
