<svg width="655" height="570" viewBox="0 0 655 570" fill="none" xmlns="http://www.w3.org/2000/svg">
<mask id="path-1-outside-1_6341_219" maskUnits="userSpaceOnUse" x="270.189" y="342.095" width="179.808" height="180.614" fill="black">
<rect fill="white" x="270.189" y="342.095" width="179.808" height="180.614"/>
<path d="M284.647 415.925C284.769 415.624 284.953 415.359 285.193 415.134C285.482 414.883 286.344 414.433 287.484 414.644L305.012 420.796L300.119 415.024C299.113 413.948 299.429 412.326 300.08 411.718C300.38 411.437 300.745 411.235 301.146 411.132C302.01 410.912 302.924 411.177 303.534 411.83C305.109 413.523 308.918 417.627 310.346 419.214C311.82 420.861 316.15 424.599 317.192 425.492L357.427 437.743C363.495 439.591 369.916 439.969 376.159 438.846L429.035 429.336L427.063 457.375C427.857 457.719 389.227 459.133 371.658 459.756C366.043 459.956 360.469 458.962 355.262 456.85L312.861 439.645L299.364 436.43L286.464 434.244C285.397 434.066 284.603 433.146 284.589 432.058C284.582 431.5 285.554 430.629 286.249 430.626C287.215 430.657 294.954 430.423 294.964 430.414C294.964 430.414 284.883 429.196 284.368 429.117C283.276 428.953 282.04 428.213 282.022 427.109L282.039 426.626C282.039 426.626 282.102 426.101 282.557 425.675C283.462 425.212 284.113 425.462 284.74 425.501L297.036 426.609L284.577 423.32C283.433 422.849 282.535 421.924 283.019 420.715C283.146 420.4 283.335 420.121 283.58 419.891C284.136 419.372 284.944 419.317 285.683 419.485L298.625 422.789L286.684 418.549C285.639 418.003 284.536 417.756 284.647 415.925Z"/>
</mask>
<path d="M285.193 415.134L282.461 412.212L282.513 412.164L282.567 412.117L285.193 415.134ZM284.647 415.925L280.654 415.681L280.694 415.028L280.941 414.421L284.647 415.925ZM286.684 418.549L285.345 422.318L285.081 422.224L284.833 422.095L286.684 418.549ZM298.625 422.789L299.963 419.02L297.635 426.665L298.625 422.789ZM285.683 419.485L286.57 415.584L286.621 415.596L286.672 415.609L285.683 419.485ZM283.019 420.715L279.305 419.229L279.31 419.216L283.019 420.715ZM284.577 423.32L283.556 427.187L283.3 427.119L283.055 427.019L284.577 423.32ZM297.036 426.609L298.057 422.741L296.677 430.593L297.036 426.609ZM284.74 425.501L284.988 421.509L285.044 421.512L285.099 421.517L284.74 425.501ZM282.557 425.675L279.825 422.753L280.235 422.37L280.735 422.115L282.557 425.675ZM282.039 426.626L278.042 426.482L278.048 426.318L278.067 426.154L282.039 426.626ZM282.022 427.109L278.023 427.176L278.021 427.071L278.025 426.966L282.022 427.109ZM284.368 429.117L284.964 425.162L284.974 425.163L284.368 429.117ZM294.964 430.414L295.444 426.443C296.987 426.629 298.283 427.693 298.766 429.171C299.249 430.649 298.832 432.273 297.696 433.335L294.964 430.414ZM286.249 430.626L286.235 426.627L286.304 426.626L286.373 426.628L286.249 430.626ZM284.589 432.058L288.588 432.006L288.588 432.006L284.589 432.058ZM286.464 434.244L287.123 430.299L287.133 430.3L286.464 434.244ZM299.364 436.43L300.033 432.486L300.163 432.508L300.291 432.539L299.364 436.43ZM312.861 439.645L313.788 435.754L314.083 435.824L314.365 435.938L312.861 439.645ZM355.262 456.85L353.758 460.556V460.556L355.262 456.85ZM371.658 459.756L371.8 463.754V463.754L371.658 459.756ZM427.063 457.375L425.473 461.046L422.875 459.92L423.073 457.095L427.063 457.375ZM429.035 429.336L428.327 425.399L433.386 424.49L433.025 429.617L429.035 429.336ZM376.159 438.846L375.45 434.909V434.909L376.159 438.846ZM357.427 437.743L356.262 441.57V441.57L357.427 437.743ZM317.192 425.492L316.027 429.319L315.225 429.075L314.588 428.529L317.192 425.492ZM310.346 419.214L313.319 416.539L313.326 416.546L310.346 419.214ZM303.534 411.83L306.456 409.098L306.464 409.107L303.534 411.83ZM301.146 411.132L300.144 407.259L300.152 407.257L300.16 407.255L301.146 411.132ZM300.119 415.024L303.041 412.292L303.107 412.363L303.17 412.437L300.119 415.024ZM305.012 420.796L308.064 418.209L317.594 429.451L303.688 424.57L305.012 420.796ZM287.484 414.644L288.213 410.711L288.517 410.767L288.809 410.87L287.484 414.644ZM285.193 415.134L287.925 418.056C288.098 417.894 288.252 417.678 288.354 417.429L284.647 415.925L280.941 414.421C281.286 413.569 281.807 412.824 282.461 412.212L285.193 415.134ZM284.647 415.925L288.64 416.168C288.636 416.229 288.659 416.02 288.535 415.676C288.473 415.503 288.384 415.327 288.269 415.159C288.155 414.992 288.035 414.862 287.931 414.767C287.743 414.595 287.613 414.544 287.745 414.612C287.809 414.645 287.881 414.68 288.026 414.75C288.152 414.81 288.338 414.9 288.534 415.002L286.684 418.549L284.833 422.095C284.768 422.061 284.692 422.024 284.558 421.959C284.442 421.904 284.258 421.816 284.073 421.72C283.708 421.531 283.113 421.202 282.533 420.671C281.085 419.347 280.54 417.562 280.654 415.681L284.647 415.925ZM286.684 418.549L288.022 414.779L299.963 419.02L298.625 422.789L297.286 426.558L285.345 422.318L286.684 418.549ZM298.625 422.789L297.635 426.665L284.693 423.36L285.683 419.485L286.672 415.609L299.614 418.913L298.625 422.789ZM285.683 419.485L284.795 423.385C284.801 423.386 284.94 423.42 285.189 423.381C285.466 423.337 285.906 423.193 286.312 422.813L283.58 419.891L280.848 416.97C282.796 415.148 285.228 415.279 286.57 415.584L285.683 419.485ZM283.58 419.891L286.312 422.813C286.508 422.63 286.645 422.418 286.727 422.215L283.019 420.715L279.31 419.216C279.647 418.382 280.162 417.612 280.848 416.97L283.58 419.891ZM283.019 420.715L286.732 422.202C286.843 421.924 286.925 421.522 286.864 421.054C286.805 420.596 286.632 420.241 286.47 420.009C286.192 419.609 285.957 419.562 286.1 419.621L284.577 423.32L283.055 427.019C282.053 426.606 280.797 425.861 279.905 424.58C278.88 423.107 278.531 421.164 279.305 419.229L283.019 420.715ZM284.577 423.32L285.598 419.452L298.057 422.741L297.036 426.609L296.015 430.476L283.556 427.187L284.577 423.32ZM297.036 426.609L296.677 430.593L284.382 429.485L284.74 425.501L285.099 421.517L297.395 422.625L297.036 426.609ZM284.74 425.501L284.493 429.494C284.307 429.482 284.144 429.464 284.022 429.449C283.96 429.442 283.903 429.434 283.857 429.428C283.833 429.425 283.81 429.422 283.791 429.419C283.77 429.417 283.752 429.414 283.735 429.412C283.665 429.403 283.634 429.399 283.617 429.397C283.602 429.396 283.615 429.398 283.645 429.398C283.714 429.4 283.844 429.397 284.004 429.364C284.166 429.33 284.295 429.279 284.38 429.236L282.557 425.675L280.735 422.115C282.929 420.991 285.458 421.538 284.988 421.509L284.74 425.501ZM282.557 425.675L285.289 428.597C285.598 428.309 285.762 427.997 285.85 427.774C285.896 427.659 285.928 427.547 285.953 427.442C285.965 427.388 285.976 427.333 285.986 427.277C285.991 427.249 285.995 427.22 285.999 427.19C286.002 427.175 286.004 427.16 286.006 427.145C286.007 427.137 286.008 427.13 286.009 427.122C286.009 427.118 286.01 427.114 286.01 427.11C286.01 427.108 286.01 427.106 286.011 427.105C286.011 427.104 286.011 427.102 286.011 427.102C286.011 427.1 286.011 427.099 282.039 426.626C278.067 426.154 278.068 426.153 278.068 426.151C278.068 426.151 278.068 426.149 278.068 426.148C278.068 426.146 278.069 426.144 278.069 426.142C278.069 426.138 278.07 426.134 278.07 426.13C278.071 426.122 278.072 426.113 278.074 426.105C278.076 426.087 278.078 426.069 278.081 426.051C278.086 426.013 278.093 425.972 278.1 425.929C278.115 425.842 278.134 425.743 278.16 425.633C278.21 425.416 278.287 425.147 278.405 424.847C278.638 424.254 279.062 423.468 279.825 422.753L282.557 425.675ZM282.039 426.626L286.037 426.77L286.019 427.253L282.022 427.109L278.025 426.966L278.042 426.482L282.039 426.626ZM282.022 427.109L286.021 427.043C286.004 425.983 285.387 425.414 285.227 425.291C285.072 425.172 285 425.167 284.964 425.162L284.368 429.117L283.772 433.072C282.645 432.902 281.409 432.445 280.358 431.639C279.302 430.83 278.058 429.34 278.023 427.176L282.022 427.109ZM284.368 429.117L284.974 425.163C284.971 425.163 285.113 425.182 285.47 425.227C285.79 425.267 286.222 425.32 286.73 425.383C287.744 425.508 289.05 425.667 290.342 425.824C291.633 425.981 292.909 426.136 293.862 426.251C294.338 426.309 294.734 426.357 295.01 426.39C295.148 426.407 295.257 426.42 295.331 426.429C295.368 426.433 295.396 426.437 295.415 426.439C295.424 426.44 295.432 426.441 295.436 426.442C295.439 426.442 295.441 426.442 295.442 426.442C295.442 426.443 295.443 426.443 295.443 426.443C295.443 426.443 295.444 426.443 295.444 426.443C295.444 426.443 295.444 426.443 294.964 430.414C294.484 434.385 294.484 434.385 294.484 434.385C294.484 434.385 294.484 434.385 294.484 434.385C294.483 434.385 294.483 434.385 294.482 434.385C294.481 434.385 294.479 434.384 294.477 434.384C294.472 434.383 294.465 434.383 294.455 434.381C294.436 434.379 294.408 434.376 294.371 434.371C294.297 434.362 294.188 434.349 294.05 434.332C293.773 434.299 293.377 434.251 292.9 434.193C291.946 434.078 290.67 433.923 289.376 433.766C286.859 433.46 284.101 433.123 283.763 433.071L284.368 429.117ZM294.964 430.414L297.696 433.335C297.095 433.799 296.187 434.222 295.952 434.29C295.838 434.317 295.656 434.353 295.589 434.365C295.473 434.383 295.381 434.392 295.356 434.395C295.287 434.401 295.233 434.405 295.219 434.406C295.179 434.408 295.145 434.41 295.132 434.411C295.098 434.412 295.061 434.414 295.029 434.415C294.962 434.418 294.87 434.421 294.761 434.425C294.541 434.432 294.229 434.442 293.856 434.453C293.11 434.476 292.107 434.505 291.074 434.533C289.107 434.587 286.759 434.644 286.125 434.625L286.249 430.626L286.373 426.628C286.369 426.628 286.405 426.629 286.504 426.629C286.594 426.629 286.711 426.628 286.854 426.627C287.141 426.623 287.509 426.617 287.934 426.608C288.784 426.591 289.832 426.564 290.857 426.536C291.88 426.509 292.874 426.48 293.611 426.457C293.981 426.446 294.283 426.436 294.492 426.429C294.597 426.426 294.673 426.423 294.721 426.421C294.747 426.42 294.754 426.42 294.75 426.42C294.748 426.42 294.743 426.42 294.736 426.421C294.73 426.421 294.715 426.422 294.696 426.423C294.686 426.424 294.635 426.427 294.569 426.433C294.545 426.436 294.454 426.445 294.338 426.463C294.271 426.474 294.09 426.511 293.976 426.538C293.74 426.606 292.832 427.029 292.232 427.492L294.964 430.414ZM284.589 432.058L288.588 432.006C288.577 431.153 287.958 430.438 287.123 430.299L286.464 434.244L285.805 438.189C282.835 437.693 280.628 435.139 280.589 432.109L284.589 432.058ZM286.464 434.244L287.133 430.3L300.033 432.486L299.364 436.43L298.696 440.374L285.796 438.188L286.464 434.244ZM299.364 436.43L300.291 432.539L313.788 435.754L312.861 439.645L311.934 443.536L298.437 440.321L299.364 436.43ZM312.861 439.645L314.365 435.938L356.766 453.143L355.262 456.85L353.758 460.556L311.357 443.351L312.861 439.645ZM371.658 459.756L371.516 455.759C380.299 455.447 394.341 454.938 406.085 454.464C411.96 454.227 417.247 453.999 421.011 453.81C422.898 453.715 424.375 453.63 425.345 453.561C425.845 453.525 426.145 453.498 426.286 453.481C426.409 453.466 426.266 453.476 426.041 453.533C425.971 453.551 425.814 453.593 425.619 453.668C425.519 453.706 424.968 453.911 424.415 454.402C424.119 454.665 423.579 455.223 423.279 456.128C422.932 457.174 423.044 458.27 423.501 459.18C423.894 459.961 424.44 460.413 424.725 460.619C425.036 460.844 425.315 460.977 425.473 461.046L427.063 457.375L428.654 453.705C428.819 453.776 429.102 453.911 429.417 454.139C429.706 454.349 430.255 454.803 430.649 455.587C431.108 456.5 431.22 457.599 430.872 458.647C430.571 459.555 430.028 460.116 429.729 460.382C429.169 460.88 428.607 461.09 428.491 461.134C428.28 461.216 428.103 461.264 428.008 461.288C427.682 461.37 427.365 461.408 427.244 461.423C426.897 461.465 426.432 461.503 425.917 461.54C424.858 461.616 423.31 461.704 421.413 461.8C417.608 461.991 412.288 462.22 406.408 462.458C394.644 462.932 380.586 463.442 371.8 463.754L371.658 459.756ZM429.035 429.336L429.743 433.273L376.867 442.783L376.159 438.846L375.45 434.909L428.327 425.399L429.035 429.336ZM357.427 437.743L356.262 441.57L316.027 429.319L317.192 425.492L318.357 421.666L358.592 433.917L357.427 437.743ZM317.192 425.492L314.588 428.529C313.651 427.725 309.061 423.777 307.365 421.882L310.346 419.214L313.326 416.546C314.578 417.945 318.649 421.473 319.796 422.456L317.192 425.492ZM310.346 419.214L307.372 421.89C305.972 420.333 302.19 416.259 300.605 414.553L303.534 411.83L306.464 409.107C308.027 410.788 311.864 414.921 313.319 416.539L310.346 419.214ZM303.534 411.83L300.613 414.562C301.004 414.98 301.589 415.147 302.132 415.008L301.146 411.132L300.16 407.255C302.431 406.677 304.845 407.375 306.456 409.098L303.534 411.83ZM301.146 411.132L302.148 415.004C302.397 414.94 302.626 414.813 302.812 414.639L300.08 411.718L297.348 408.796C298.135 408.06 299.094 407.531 300.144 407.259L301.146 411.132ZM300.08 411.718L302.812 414.639C303.154 414.319 303.304 414.019 303.365 413.871C303.435 413.703 303.464 413.554 303.472 413.42C303.487 413.148 303.412 412.689 303.041 412.292L300.119 415.024L297.197 417.756C295.82 416.283 295.4 414.475 295.484 412.971C295.562 411.598 296.093 409.969 297.348 408.796L300.08 411.718ZM300.119 415.024L303.17 412.437L308.064 418.209L305.012 420.796L301.961 423.383L297.068 417.61L300.119 415.024ZM305.012 420.796L303.688 424.57L286.16 418.418L287.484 414.644L288.809 410.87L306.337 417.022L305.012 420.796ZM285.193 415.134L282.567 412.117C283.67 411.156 285.743 410.253 288.213 410.711L287.484 414.644L286.756 418.577C286.879 418.6 287.021 418.591 287.162 418.549C287.228 418.529 287.305 418.499 287.394 418.452C287.467 418.412 287.621 418.323 287.819 418.151L285.193 415.134ZM284.589 432.058L280.589 432.109C280.573 430.877 281.063 429.942 281.365 429.464C281.709 428.918 282.125 428.47 282.523 428.122C283.162 427.564 284.488 426.633 286.235 426.627L286.249 430.626L286.263 434.626C286.875 434.624 287.284 434.447 287.428 434.378C287.603 434.294 287.715 434.21 287.788 434.145C287.857 434.085 287.988 433.96 288.13 433.734C288.23 433.576 288.601 432.959 288.588 432.006L284.589 432.058ZM429.035 429.336L433.025 429.617L431.054 457.656L427.063 457.375L423.073 457.095L425.045 429.056L429.035 429.336ZM376.159 438.846L376.867 442.783C369.999 444.018 362.937 443.602 356.262 441.57L357.427 437.743L358.592 433.917C364.053 435.579 369.832 435.92 375.45 434.909L376.159 438.846ZM355.262 456.85L356.766 453.143C361.454 455.046 366.467 455.938 371.516 455.759L371.658 459.756L371.8 463.754C365.618 463.973 359.483 462.879 353.758 460.556L355.262 456.85Z" fill="black" mask="url(#path-1-outside-1_6341_219)"/>
<path d="M291.637 313.83L419.207 356.71C419.207 356.71 395.017 410.18 352.467 409.79C311.207 409.41 272.737 365.8 272.737 365.8L291.637 313.83Z" fill="black" stroke="black" stroke-width="4" stroke-miterlimit="10"/>
<path d="M127.997 395.5L125.067 399.06L134.737 408.82C134.737 408.82 174.577 383.27 201.337 365.33C219.387 353.23 221.987 329.43 221.987 329.43L201.027 314.41L127.997 395.5Z" fill="black" stroke="black" stroke-width="4" stroke-miterlimit="10"/>
<path d="M253.747 300.5L291.637 313.82L272.737 365.79L201.027 314.42C201.027 314.42 215.527 288.08 253.747 300.5Z" fill="white" stroke="black" stroke-width="4" stroke-miterlimit="10" stroke-linecap="round"/>
<path d="M522.827 358.87L503.727 385.82L464.207 380.01L491.157 354.07L522.827 358.87Z" fill="white" stroke="black" stroke-width="4" stroke-miterlimit="10" stroke-linecap="round"/>
<path d="M553.297 357.56C567.517 340.15 561.187 320.25 544.797 307.32C528.407 294.38 504.807 295.08 493.117 309.89C481.427 324.7 486.067 348.01 502.447 360.95C518.837 373.89 543.277 369.81 553.287 357.56H553.297Z" fill="black" stroke="black" stroke-width="4" stroke-miterlimit="10" stroke-linecap="round"/>
<path d="M503.727 385.82L536.427 346.02C541.977 338.99 540.777 328.8 533.747 323.25L516.727 311.96C509.697 306.41 499.507 307.61 493.957 314.64L482.467 331.66C476.247 339.54 477.587 350.97 485.467 357.19L500.307 368.47" fill="white"/>
<path d="M503.727 385.82L536.427 346.02C541.977 338.99 540.777 328.8 533.747 323.25L516.727 311.96C509.697 306.41 499.507 307.61 493.957 314.64L482.467 331.66C476.247 339.54 477.587 350.97 485.467 357.19L500.307 368.47" stroke="black" stroke-width="4" stroke-miterlimit="10" stroke-linecap="round"/>
<path d="M517.501 352.504L516.041 351.352C514.919 350.466 514.719 348.83 515.612 347.7L525.018 335.786L530.559 340.16L521.153 352.075C520.267 353.197 518.632 353.397 517.501 352.504Z" fill="black" stroke="black" stroke-width="4" stroke-miterlimit="10" stroke-linecap="round"/>
<path d="M524.917 335.69C532.157 326.52 530.447 311.02 523.357 306.25C516.267 301.48 524.447 301.53 529.587 302.48C534.727 303.44 550.307 307.88 550.227 328.49C550.147 349.1 536.127 355.86 536.127 355.86L520.807 341.13L524.917 335.68V335.69Z" fill="black" stroke="black" stroke-width="4" stroke-miterlimit="10" stroke-linecap="round"/>
<path d="M517.757 161.54C537.236 161.54 553.027 145.749 553.027 126.27C553.027 106.791 537.236 91 517.757 91C498.278 91 482.487 106.791 482.487 126.27C482.487 145.749 498.278 161.54 517.757 161.54Z" fill="white" stroke="black" stroke-width="4" stroke-miterlimit="10" stroke-linecap="round"/>
<path d="M407.947 428.55L413.027 435.76C413.027 435.76 426.337 454.65 429.297 458.87C470.807 450.16 496.627 418.84 504.897 385.56L375 341.5V419.27L404 423.5L407.947 428.55Z" fill="black" stroke="black" stroke-width="4" stroke-miterlimit="10"/>
<path d="M494.437 376.77C486.397 409.09 459.767 445.81 409.137 451.92" stroke="white" stroke-width="4"/>
<path d="M404.816 440C444.406 435.22 473.186 409.39 481.776 370.9" stroke="white" stroke-width="4"/>
<path d="M551.867 272.35C555.129 272.35 557.589 273.39 559.386 275.315V275.314C562.023 278.141 563.377 283.069 562.862 290.539C562.513 295.461 564.228 299.311 565.677 302.605L565.678 302.606C567.212 306.09 568.234 308.612 567.506 311.333L567.505 311.334C566.508 315.067 563.693 318.374 561.627 320.373L559.95 321.995L561.81 323.404C564.129 325.161 567.692 328.882 568.867 335.803C569.44 340.413 567.812 343.514 565.56 345.613C563.223 347.79 560.146 348.934 557.979 349.293L557.971 349.288C557.179 348.707 540.745 336.649 537.461 333.919L537.186 333.685C536.45 333.039 536.183 332.271 536.165 331.304C536.146 330.243 536.431 329.108 536.753 327.876V327.875C537.099 326.55 537.351 325.426 537.348 324.527C537.346 324.035 537.27 323.478 536.999 322.933C536.718 322.369 536.31 321.984 535.906 321.716H535.907C535.905 321.715 535.902 321.714 535.9 321.712C535.899 321.712 535.898 321.71 535.896 321.709H535.896C535.306 321.321 534.54 321.17 533.617 321.17C532.355 321.17 530.762 321.465 529.356 321.723H529.355C527.433 322.077 525.467 322.43 523.518 322.43C521.85 322.43 520.478 322.167 519.29 321.676L519.056 321.575C515.51 319.975 512.93 317.678 511.294 315.331C509.633 312.947 509.025 310.638 509.179 309.007L509.18 309.003C509.396 306.647 509.975 305.1 510.434 304.191L510.981 303.104L510.269 302.118C506.598 297.045 506.938 289.974 511.781 284L511.783 283.998C514.254 280.942 517.623 279.31 521.298 279.31C523.188 279.31 525.178 279.734 527.239 280.611L527.653 280.792C529.961 281.84 531.6 283.231 532.749 284.572L535.096 287.309L536.176 283.87C537.709 278.989 541.451 273.677 549.333 272.539C550.215 272.411 551.069 272.35 551.867 272.35Z" fill="#FF0077" stroke="black" stroke-width="4"/>
<path d="M413.027 428.55V435.76C413.027 435.76 426.337 454.65 429.297 458.87C470.807 450.16 496.627 418.84 504.897 385.56L376 341.5V419L405.5 423L413.027 428.55Z" stroke="black" stroke-width="4" stroke-miterlimit="10"/>
<path d="M84.5968 380.68L122.497 416.5L125.217 418.79C125.997 419.5 127.207 419.46 127.937 418.7L138.887 406.68C139.657 405.88 139.597 404.59 138.747 403.86L129.347 394.6L88.6668 375.44C87.9468 375.13 87.1068 375.29 86.5468 375.83L84.5368 377.93C83.7968 378.71 83.8268 379.94 84.5968 380.68Z" fill="#FF0077" stroke="black" stroke-width="4"/>
<path d="M372.816 208.39L372.366 285.55L317.066 284.79C329.036 254.48 344.606 208.38 344.606 208.38H372.806L372.816 208.39Z" fill="white" stroke="black" stroke-width="4" stroke-miterlimit="10" stroke-linecap="round"/>
<path d="M372.366 284.8L375.666 419.34C375.666 419.34 317.146 414.88 302.976 374.77C288.806 334.66 317.066 284.8 317.066 284.8H372.366Z" fill="black" stroke="black" stroke-width="4"/>
<path d="M309.949 304L371.949 304" stroke="white" stroke-width="4" stroke-miterlimit="10" stroke-linecap="round"/>
<path d="M304.949 316L371.949 316" stroke="white" stroke-width="4" stroke-miterlimit="10" stroke-linecap="round"/>
<path d="M372.816 207.73L373.596 110.86L367.476 106.7L360.206 107.97C360.206 107.97 343.966 153.35 337.996 173.6C332.836 191.1 344.606 208.38 344.606 208.38" fill="black"/>
<path d="M372.816 207.73L373.596 110.86L367.476 106.7L360.206 107.97C360.206 107.97 343.966 153.35 337.996 173.6C332.836 191.1 344.606 208.38 344.606 208.38" stroke="black" stroke-width="4" stroke-miterlimit="10"/>
<path d="M361.046 89.07L417.456 89C418.526 89 419.396 89.87 419.396 90.94V93.84C419.366 94.62 418.866 95.31 418.136 95.59L375.126 109.75L360.496 109.87C359.386 109.93 359.086 109.04 359.086 107.93V91.02C359.086 89.96 359.926 89.1 360.986 89.08H361.046V89.07Z" fill="#FF0077" stroke="black" stroke-width="4"/>
<path d="M372.366 284.8L375.666 419.34C375.666 419.34 317.146 414.88 302.976 374.77C288.806 334.66 317.066 284.8 317.066 284.8H372.366Z" stroke="black" stroke-width="4"/>
<path d="M469.417 374.31L500.777 370.34L485.737 358.77L469.417 374.31Z" fill="black"/>
<g clip-path="url(#clip0_6341_219)">
<path d="M527.09 347.6C527.09 347.6 528.36 345.75 530.33 344.73C532.42 343.65 535.27 343.46 537.11 346.37C539.86 350.73 534 355.09 530.42 354.63C526.84 354.17 523.99 351.56 523.99 351.56L527.08 347.6H527.09Z" fill="white"/>
</g>
<mask id="path-29-outside-2_6341_219" maskUnits="userSpaceOnUse" x="349.447" y="222.257" width="174.694" height="179.287" fill="black">
<rect fill="white" x="349.447" y="222.257" width="174.694" height="179.287"/>
<path d="M435.964 234.68C436.284 234.732 436.584 234.851 436.857 235.035C437.166 235.26 437.798 236 437.847 237.159L435.775 255.619L440.305 249.558C441.128 248.336 442.78 248.281 443.519 248.779C443.86 249.009 444.138 249.32 444.328 249.687C444.736 250.48 444.682 251.431 444.183 252.171C442.885 254.085 439.738 258.716 438.51 260.463C437.235 262.268 434.562 267.325 433.924 268.541L430.992 310.497C430.549 316.825 431.618 323.167 434.11 329L455.216 378.406L427.447 382.761C427.289 383.611 417.264 346.279 412.723 329.295C411.272 323.867 410.992 318.212 411.885 312.665L419.161 267.488L419.274 253.614L418.516 240.552C418.451 239.472 419.169 238.492 420.227 238.235C420.769 238.103 421.836 238.856 421.994 239.532C422.181 240.481 424.14 247.971 424.152 247.979C424.152 247.979 423.082 237.881 423.044 237.362C422.96 236.26 423.404 234.89 424.475 234.625L424.95 234.534C424.95 234.534 425.476 234.477 425.993 234.826C426.647 235.604 426.548 236.295 426.651 236.915L428.324 249.146L428.741 236.267C428.943 235.047 429.644 233.964 430.93 234.165C431.266 234.219 431.58 234.341 431.859 234.528C432.49 234.954 432.724 235.728 432.726 236.486L432.402 249.839L433.862 237.252C434.16 236.112 434.153 234.981 435.964 234.68Z"/>
</mask>
<path d="M436.857 235.035L439.092 231.718L439.152 231.758L439.209 231.8L436.857 235.035ZM435.964 234.68L435.307 230.734L435.953 230.627L436.6 230.731L435.964 234.68ZM433.862 237.252L429.889 236.792L429.921 236.514L429.992 236.243L433.862 237.252ZM432.402 249.839L436.376 250.3L428.404 249.743L432.402 249.839ZM432.726 236.486L436.726 236.478L436.726 236.53L436.725 236.583L432.726 236.486ZM430.93 234.165L431.547 230.213L431.561 230.215L430.93 234.165ZM428.741 236.267L424.743 236.138L424.751 235.873L424.795 235.612L428.741 236.267ZM428.324 249.146L432.322 249.276L424.361 249.688L428.324 249.146ZM426.651 236.915L430.597 236.262L430.607 236.317L430.614 236.373L426.651 236.915ZM425.993 234.826L428.229 231.509L428.694 231.823L429.055 232.253L425.993 234.826ZM424.95 234.534L424.195 230.606L424.357 230.575L424.521 230.557L424.95 234.534ZM424.475 234.625L423.515 230.742L423.617 230.717L423.72 230.697L424.475 234.625ZM423.044 237.362L427.032 237.057L427.033 237.067L423.044 237.362ZM424.152 247.979L428.13 247.557C428.293 249.103 427.546 250.605 426.214 251.406C424.881 252.208 423.205 252.165 421.916 251.295L424.152 247.979ZM421.994 239.532L425.889 238.624L425.905 238.691L425.918 238.759L421.994 239.532ZM420.227 238.235L421.173 242.121L421.173 242.121L420.227 238.235ZM418.516 240.552L422.509 240.311L422.509 240.321L418.516 240.552ZM419.274 253.614L423.267 253.382L423.274 253.514L423.273 253.646L419.274 253.614ZM419.161 267.488L423.161 267.52L423.159 267.824L423.111 268.124L419.161 267.488ZM411.885 312.665L407.936 312.028V312.028L411.885 312.665ZM412.723 329.295L408.859 330.328V330.328L412.723 329.295ZM427.447 382.761L423.514 382.033L424.029 379.248L426.827 378.81L427.447 382.761ZM455.216 378.406L458.894 376.834L460.913 381.561L455.835 382.357L455.216 378.406ZM434.11 329L437.788 327.429V327.429L434.11 329ZM430.992 310.497L427.001 310.218V310.218L430.992 310.497ZM433.924 268.541L429.934 268.262L429.993 267.425L430.382 266.683L433.924 268.541ZM438.51 260.463L441.783 262.762L441.778 262.77L438.51 260.463ZM444.183 252.171L447.499 254.407L447.493 254.417L444.183 252.171ZM444.328 249.687L447.878 247.843L447.882 247.851L447.886 247.858L444.328 249.687ZM440.305 249.558L443.622 251.793L443.568 251.874L443.509 251.952L440.305 249.558ZM435.775 255.619L438.979 258.014L430.156 269.819L431.8 255.173L435.775 255.619ZM437.847 237.159L441.843 236.988L441.856 237.297L441.822 237.605L437.847 237.159ZM436.857 235.035L434.621 238.352C434.817 238.484 435.062 238.586 435.328 238.629L435.964 234.68L436.6 230.731C437.507 230.877 438.35 231.218 439.092 231.718L436.857 235.035ZM435.964 234.68L436.62 238.626C436.56 238.636 436.769 238.611 437.076 238.414C437.231 238.314 437.383 238.189 437.521 238.039C437.658 237.89 437.758 237.744 437.827 237.621C437.952 237.4 437.973 237.261 437.936 237.406C437.918 237.475 437.9 237.554 437.865 237.71C437.834 237.846 437.789 238.048 437.733 238.262L433.862 237.252L429.992 236.243C430.01 236.172 430.03 236.089 430.062 235.944C430.091 235.819 430.135 235.62 430.187 235.418C430.289 235.02 430.477 234.366 430.864 233.682C431.83 231.974 433.448 231.044 435.307 230.734L435.964 234.68ZM433.862 237.252L437.836 237.713L436.376 250.3L432.402 249.839L428.429 249.379L429.889 236.792L433.862 237.252ZM432.402 249.839L428.404 249.743L428.727 236.389L432.726 236.486L436.725 236.583L436.401 249.936L432.402 249.839ZM432.726 236.486L428.726 236.495C428.726 236.5 428.724 236.643 428.818 236.878C428.923 237.137 429.161 237.534 429.623 237.845L431.859 234.528L434.095 231.212C436.306 232.702 436.723 235.101 436.726 236.478L432.726 236.486ZM431.859 234.528L429.623 237.845C429.845 237.995 430.082 238.081 430.299 238.115L430.93 234.165L431.561 230.215C432.449 230.357 433.315 230.686 434.095 231.212L431.859 234.528ZM430.93 234.165L430.313 238.117C430.608 238.163 431.018 238.153 431.461 237.989C431.894 237.829 432.201 237.581 432.391 237.371C432.718 237.011 432.712 236.771 432.687 236.923L428.741 236.267L424.795 235.612C424.972 234.543 425.417 233.152 426.467 231.995C427.672 230.667 429.488 229.892 431.547 230.213L430.93 234.165ZM428.741 236.267L432.739 236.397L432.322 249.276L428.324 249.146L424.326 249.017L424.743 236.138L428.741 236.267ZM428.324 249.146L424.361 249.688L422.688 237.457L426.651 236.915L430.614 236.373L432.287 248.604L428.324 249.146ZM426.651 236.915L422.705 237.568C422.674 237.384 422.655 237.22 422.642 237.098C422.636 237.037 422.63 236.979 422.626 236.932C422.624 236.909 422.621 236.886 422.62 236.866C422.618 236.846 422.616 236.828 422.614 236.811C422.608 236.74 422.604 236.709 422.602 236.692C422.6 236.677 422.601 236.69 422.607 236.72C422.621 236.788 422.653 236.913 422.721 237.062C422.79 237.212 422.869 237.326 422.931 237.4L425.993 234.826L429.055 232.253C430.641 234.14 430.674 236.727 430.597 236.262L426.651 236.915ZM425.993 234.826L423.757 238.143C424.107 238.379 424.447 238.47 424.684 238.505C424.807 238.524 424.923 238.531 425.031 238.531C425.086 238.531 425.142 238.529 425.199 238.526C425.228 238.524 425.257 238.522 425.287 238.52C425.302 238.519 425.317 238.517 425.332 238.516C425.34 238.515 425.347 238.514 425.355 238.514C425.359 238.513 425.363 238.513 425.367 238.512C425.369 238.512 425.371 238.512 425.373 238.512C425.374 238.512 425.375 238.511 425.376 238.511C425.377 238.511 425.379 238.511 424.95 234.534C424.521 230.557 424.522 230.557 424.524 230.557C424.524 230.557 424.526 230.557 424.527 230.557C424.529 230.556 424.531 230.556 424.533 230.556C424.537 230.556 424.541 230.555 424.545 230.555C424.553 230.554 424.562 230.553 424.57 230.552C424.588 230.551 424.606 230.549 424.625 230.547C424.663 230.544 424.704 230.541 424.748 230.539C424.835 230.534 424.937 230.531 425.049 230.531C425.272 230.531 425.552 230.546 425.87 230.594C426.5 230.688 427.362 230.925 428.229 231.509L425.993 234.826ZM424.95 234.534L425.704 238.462L425.23 238.554L424.475 234.625L423.72 230.697L424.195 230.606L424.95 234.534ZM424.475 234.625L425.435 238.508C426.465 238.254 426.881 237.526 426.965 237.342C427.046 237.164 427.035 237.093 427.032 237.057L423.044 237.362L419.055 237.666C418.968 236.529 419.138 235.222 419.688 234.018C420.241 232.808 421.414 231.262 423.515 230.742L424.475 234.625ZM423.044 237.362L427.033 237.067C427.033 237.063 427.046 237.207 427.082 237.565C427.114 237.886 427.159 238.319 427.212 238.827C427.317 239.844 427.454 241.153 427.59 242.447C427.726 243.74 427.861 245.018 427.962 245.972C428.012 246.45 428.054 246.846 428.084 247.123C428.098 247.261 428.11 247.37 428.118 247.444C428.121 247.481 428.124 247.509 428.126 247.528C428.127 247.538 428.128 247.545 428.129 247.55C428.129 247.552 428.129 247.554 428.129 247.555C428.129 247.556 428.129 247.556 428.129 247.557C428.129 247.557 428.13 247.557 428.13 247.557C428.13 247.557 428.13 247.557 424.152 247.979C420.174 248.4 420.174 248.4 420.174 248.4C420.174 248.4 420.174 248.4 420.174 248.4C420.174 248.399 420.174 248.399 420.174 248.398C420.174 248.397 420.174 248.395 420.173 248.393C420.173 248.388 420.172 248.381 420.171 248.371C420.169 248.352 420.166 248.323 420.162 248.286C420.154 248.212 420.143 248.103 420.128 247.965C420.099 247.687 420.057 247.291 420.006 246.813C419.905 245.858 419.77 244.579 419.634 243.283C419.369 240.761 419.08 237.998 419.055 237.656L423.044 237.362ZM424.152 247.979L421.916 251.295C421.33 250.814 420.714 250.024 420.595 249.809C420.543 249.704 420.467 249.535 420.441 249.472C420.397 249.363 420.368 249.275 420.36 249.251C420.338 249.187 420.322 249.135 420.318 249.121C420.307 249.083 420.297 249.05 420.294 249.037C420.285 249.004 420.275 248.969 420.267 248.938C420.249 248.873 420.225 248.784 420.197 248.679C420.141 248.466 420.061 248.164 419.967 247.803C419.777 247.081 419.524 246.11 419.266 245.109C418.774 243.205 418.192 240.929 418.069 240.306L421.994 239.532L425.918 238.759C425.917 238.754 425.924 238.79 425.946 238.886C425.967 238.974 425.994 239.087 426.027 239.227C426.095 239.506 426.183 239.863 426.287 240.275C426.494 241.099 426.755 242.115 427.011 243.108C427.267 244.099 427.518 245.061 427.705 245.775C427.799 246.132 427.876 246.424 427.93 246.626C427.957 246.728 427.976 246.802 427.989 246.848C427.996 246.873 427.997 246.88 427.996 246.876C427.996 246.874 427.995 246.869 427.993 246.862C427.991 246.856 427.987 246.843 427.981 246.824C427.979 246.815 427.964 246.766 427.943 246.703C427.935 246.68 427.906 246.593 427.862 246.484C427.836 246.422 427.76 246.253 427.708 246.148C427.589 245.933 426.973 245.143 426.388 244.662L424.152 247.979ZM420.227 238.235L421.173 242.121C422.002 241.92 422.56 241.156 422.509 240.311L418.516 240.552L414.523 240.793C414.342 237.787 416.337 235.065 419.281 234.348L420.227 238.235ZM418.516 240.552L422.509 240.321L423.267 253.382L419.274 253.614L415.28 253.846L414.523 240.784L418.516 240.552ZM419.274 253.614L423.273 253.646L423.161 267.52L419.161 267.488L415.162 267.456L415.274 253.582L419.274 253.614ZM419.161 267.488L423.111 268.124L415.834 313.301L411.885 312.665L407.936 312.028L415.212 266.852L419.161 267.488ZM412.723 329.295L416.587 328.262C418.857 336.752 422.497 350.324 425.588 361.664C427.134 367.336 428.54 372.438 429.567 376.064C430.082 377.882 430.495 379.303 430.78 380.232C430.926 380.712 431.021 380.998 431.069 381.132C431.111 381.248 431.068 381.111 430.962 380.904C430.929 380.84 430.854 380.697 430.737 380.523C430.677 380.435 430.355 379.943 429.751 379.514C429.429 379.285 428.764 378.883 427.815 378.793C426.719 378.689 425.675 379.044 424.891 379.693C424.217 380.251 423.899 380.884 423.762 381.209C423.612 381.562 423.545 381.863 423.514 382.033L427.447 382.761L431.38 383.489C431.347 383.666 431.279 383.972 431.127 384.33C430.988 384.659 430.668 385.296 429.992 385.855C429.205 386.507 428.159 386.862 427.059 386.758C426.107 386.667 425.439 386.264 425.113 386.033C424.503 385.598 424.172 385.097 424.103 384.994C423.976 384.806 423.89 384.645 423.845 384.557C423.691 384.258 423.583 383.958 423.542 383.843C423.424 383.515 423.282 383.07 423.131 382.577C422.82 381.561 422.388 380.072 421.87 378.245C420.831 374.579 419.417 369.445 417.87 363.768C414.773 352.408 411.13 338.821 408.859 330.328L412.723 329.295ZM455.216 378.406L451.537 379.977L430.432 330.572L434.11 329L437.788 327.429L458.894 376.834L455.216 378.406ZM430.992 310.497L427.001 310.218L429.934 268.262L433.924 268.541L437.915 268.82L434.982 310.776L430.992 310.497ZM433.924 268.541L430.382 266.683C430.955 265.59 433.776 260.233 435.243 258.156L438.51 260.463L441.778 262.77C440.695 264.304 438.168 269.061 437.467 270.399L433.924 268.541ZM438.51 260.463L435.237 258.164C436.441 256.45 439.565 251.853 440.872 249.926L444.183 252.171L447.493 254.417C446.204 256.316 443.034 260.982 441.783 262.762L438.51 260.463ZM444.183 252.171L440.866 249.935C440.546 250.41 440.515 251.017 440.771 251.516L444.328 249.687L447.886 247.858C448.957 249.943 448.818 252.451 447.499 254.407L444.183 252.171ZM444.328 249.687L440.779 251.531C440.897 251.759 441.071 251.954 441.283 252.096L443.519 248.779L445.754 245.463C446.648 246.065 447.378 246.881 447.878 247.843L444.328 249.687ZM443.519 248.779L441.283 252.096C441.671 252.358 441.998 252.437 442.156 252.463C442.334 252.494 442.486 252.489 442.619 252.466C442.888 252.42 443.318 252.244 443.622 251.793L440.305 249.558L436.989 247.322C438.115 245.65 439.783 244.836 441.268 244.581C442.624 244.349 444.33 244.502 445.754 245.463L443.519 248.779ZM440.305 249.558L443.509 251.952L438.979 258.014L435.775 255.619L432.571 253.224L437.101 247.163L440.305 249.558ZM435.775 255.619L431.8 255.173L433.872 236.712L437.847 237.159L441.822 237.605L439.75 256.065L435.775 255.619ZM436.857 235.035L439.209 231.8C440.392 232.661 441.736 234.478 441.843 236.988L437.847 237.159L433.85 237.329C433.856 237.454 433.897 237.591 433.969 237.718C434.003 237.778 434.049 237.846 434.115 237.923C434.17 237.986 434.292 238.116 434.504 238.27L436.857 235.035ZM420.227 238.235L419.281 234.348C420.479 234.057 421.5 234.325 422.033 234.512C422.642 234.726 423.172 235.031 423.6 235.34C424.287 235.838 425.492 236.922 425.889 238.624L421.994 239.532L418.098 240.441C418.237 241.037 418.501 241.396 418.601 241.521C418.722 241.673 418.829 241.763 418.909 241.821C418.982 241.874 419.134 241.973 419.386 242.062C419.562 242.123 420.246 242.347 421.173 242.121L420.227 238.235ZM455.216 378.406L455.835 382.357L428.067 386.713L427.447 382.761L426.827 378.81L454.596 374.454L455.216 378.406ZM434.11 329L430.432 330.572C427.691 324.155 426.515 317.179 427.001 310.218L430.992 310.497L434.982 310.776C434.584 316.471 435.546 322.179 437.788 327.429L434.11 329ZM411.885 312.665L415.834 313.301C415.03 318.295 415.282 323.381 416.587 328.262L412.723 329.295L408.859 330.328C407.261 324.352 406.954 318.128 407.936 312.028L411.885 312.665Z" fill="black" mask="url(#path-29-outside-2_6341_219)"/>
<defs>
<clipPath id="clip0_6341_219">
<rect width="13.82" height="10.66" fill="white" transform="translate(524 344)"/>
</clipPath>
</defs>
</svg>
