<svg width="737" height="670" viewBox="0 0 737 670" fill="none" xmlns="http://www.w3.org/2000/svg">
<g clip-path="url(#clip0_7124_1327)">
<path d="M530.339 93.9395C541.779 87.345 556.068 95.6075 556.059 108.812L555.724 603.33C555.715 616.535 541.415 624.778 529.984 618.168L101.886 370.619C90.4552 364.009 90.4663 347.503 101.906 340.909L530.339 93.9395Z" fill="black"/>
<path d="M485.381 343.636C484.169 308.01 434.058 280.18 373.454 281.478C312.85 282.775 264.703 312.709 265.915 348.335C267.126 383.962 317.238 411.791 377.842 410.494C438.446 409.196 486.593 379.263 485.381 343.636Z" fill="white" stroke="black" stroke-width="4" stroke-miterlimit="10" stroke-linecap="round"/>
<mask id="mask0_7124_1327" style="mask-type:alpha" maskUnits="userSpaceOnUse" x="265" y="277" width="221" height="138">
<path d="M483.506 343.25C482.396 306.571 433.205 278.062 373.637 279.573C314.068 281.084 266.678 312.043 267.788 348.722C268.899 385.401 318.089 413.91 377.657 412.399C437.226 410.888 484.616 379.929 483.506 343.25Z" fill="white" stroke="black" stroke-width="4" stroke-miterlimit="10" stroke-linecap="round"/>
</mask>
<g mask="url(#mask0_7124_1327)">
<path d="M301.409 320.883L338.43 333.004L339.214 359.123L302.978 373.121L265.958 361L265.174 334.881L301.409 320.883Z" stroke="black" stroke-width="4"/>
<path d="M337.23 281.343L374.25 293.464L375.034 319.583L338.798 333.581L301.778 321.46L300.994 295.341L337.23 281.343Z" stroke="black" stroke-width="4"/>
<path d="M338.595 359.14L375.615 371.262L376.399 397.381L340.164 411.378L303.144 399.257L302.359 373.138L338.595 359.14Z" stroke="black" stroke-width="4"/>
<path d="M264.226 282.624L301.246 294.746L302.03 320.865L265.795 334.862L228.774 322.741L227.99 296.622L264.226 282.624Z" fill="black"/>
<path d="M265.592 360.421L302.612 372.543L303.396 398.662L267.161 412.659L230.141 400.538L229.356 374.419L265.592 360.421Z" fill="black"/>
<path d="M374.413 319.601L411.433 331.723L412.218 357.842L375.982 371.839L338.962 359.718L338.178 333.599L374.413 319.601Z" fill="black"/>
<path d="M373.047 241.803L410.067 253.924L410.852 280.043L374.616 294.041L337.596 281.92L336.811 255.801L373.047 241.803Z" fill="black"/>
<path d="M375.779 397.398L412.799 409.52L413.583 435.638L377.347 449.636L340.327 437.515L339.543 411.396L375.779 397.398Z" fill="black"/>
<path d="M410.235 280.061L447.255 292.183L448.039 318.302L411.803 332.299L374.783 320.178L373.999 294.059L410.235 280.061Z" stroke="black" stroke-width="4"/>
<path d="M411.598 357.858L448.618 369.98L449.402 396.099L413.167 410.096L376.147 397.975L375.362 371.856L411.598 357.858Z" stroke="black" stroke-width="4"/>
<path d="M447.416 318.319L484.436 330.44L485.221 356.559L448.985 370.557L411.965 358.436L411.181 332.317L447.416 318.319Z" stroke="black" stroke-width="4"/>
<path d="M483.238 278.779L520.258 290.901L521.042 317.02L484.806 331.017L447.786 318.896L447.002 292.777L483.238 278.779Z" fill="black"/>
<path d="M484.601 356.577L521.621 368.698L522.405 394.817L486.17 408.815L449.149 396.694L448.365 370.575L484.601 356.577Z" fill="black"/>
</g>
<path d="M483.341 343.238C482.17 308.781 434.523 280.157 374.556 281.441C314.589 282.725 265.011 313.43 266.183 347.888C267.355 382.345 318.495 411.734 378.462 410.45C438.428 409.166 484.513 377.696 483.341 343.238Z" stroke="white" stroke-width="4" stroke-miterlimit="10" stroke-linecap="round"/>
<path d="M632.337 131.438C277.493 193.656 268.985 297.992 265.852 326.623C264.48 339.147 257.294 427.067 392.35 505.803" stroke="white" stroke-width="4" stroke-linecap="round"/>
<path d="M399.011 194.881C399.011 194.881 231.374 255.939 310.14 440.424" stroke="white" stroke-width="4" stroke-linecap="round"/>
<path d="M443.088 177.956C443.088 177.956 271.93 272.42 364.604 438.204" stroke="white" stroke-width="4" stroke-linecap="round"/>
<path d="M513.059 189.382C513.059 189.382 443.955 219.981 425.924 298.604" stroke="white" stroke-width="4" stroke-linecap="round"/>
<path d="M270.39 303.434C270.39 303.434 296.977 223.574 532.337 186.058" stroke="white" stroke-width="4" stroke-linecap="round"/>
<path d="M265.88 343.134C265.88 343.134 267.229 262.723 515.858 246.02" stroke="white" stroke-width="4" stroke-linecap="round"/>
<path d="M267.819 360.117C267.819 360.117 282.122 429.523 489.142 421.97" stroke="white" stroke-width="4" stroke-linecap="round"/>
<path d="M485.379 347.505C485.379 347.505 516.319 346.915 536.132 344.882" stroke="white" stroke-width="4" stroke-linecap="round"/>
<path d="M263.06 359.064C263.374 362.139 262.605 366.051 259.67 367.952C252.73 372.342 241.904 373.038 231.729 374.276C218.335 375.897 195.675 380.682 185.371 369.183C180.472 362.601 179.809 352.962 179.333 344.904C179.014 339.454 179.589 332.935 183.213 330.57C188.954 327.002 205.787 331.955 211.437 333.285C215.521 334.244 218.226 334.209 221.372 336.942C224.475 339.63 224.102 344.466 223.562 347.738C222.824 352.202 210.344 350.283 204.554 349.852C200.782 349.568 195 349 195.71 352.717C196.532 357.003 202.138 356.708 206.476 356.809C218.849 357.129 231.694 357.056 244.16 355.821C246.035 355.349 246.417 352.836 244.655 351.708C243.718 351.093 242.339 350.76 240.933 350.609C239.131 350.416 240.47 352.063 240.254 352.894C240.103 353.357 239.487 353.694 238.825 353.756C237.524 353.968 232.71 353.905 231.272 353.325C230.438 352.976 229.874 352.155 229.56 351.444C227.369 346.661 227.565 336.835 230.331 336.862C231.878 336.872 233.494 336.869 234.995 337.044C236.405 337.206 237.936 337.615 239.321 337.836C244.127 338.636 251.726 340.286 254.305 341.341C261.32 344.136 262.445 353.326 263.045 359.058L263.06 359.064Z" fill="#FF0077" stroke="black" stroke-width="4"/>
<path d="M258.634 320.917C258.334 323.924 258.358 327.357 256.324 329.434C254.777 331.028 251.765 331.661 248.702 331.627C237.479 331.62 225.926 330.92 214.829 329.284C207.373 328.191 199.942 326.721 193.14 324.002C189.527 322.553 185.912 320.346 183.458 316.965C181.78 314.825 180.867 311.848 180.086 309.114C178.781 304.563 178.973 299.736 179.465 295.27C179.957 290.804 181.167 286.45 183.432 283.046C184.901 280.809 186.945 278.948 189.41 278.357C192.011 277.737 195.086 278.685 197.803 279.624C206.39 282.617 215.243 286.547 224.059 290.222C232.76 293.856 241.565 297.535 249.663 301.759C254.563 304.311 258.445 308.497 258.862 313.001C259.118 315.707 258.872 318.411 258.625 320.896L258.634 320.917ZM232.942 309.28C228.105 307.584 223.209 305.924 218.283 304.595C212.495 303.036 206.481 301.114 200.764 300.177C193.627 299.022 194.922 304.556 200.757 306.867C210.791 310.84 222.106 313.384 232.805 315.384C241.665 317.033 241.389 312.228 232.952 309.275L232.942 309.28Z" fill="#FF0077" stroke="black" stroke-width="4"/>
<path d="M266.923 288.945C265.479 290.805 263.8 292.598 261.763 293.598C258.716 295.053 254.585 294.981 250.886 294.289C245.247 293.237 239.37 290.599 233.58 288.404C227.161 285.977 220.477 283.31 213.973 280.916C206.279 278.079 198.434 275.386 192.17 270.02C189.913 268.154 187.783 265.48 186.973 262.39C186.193 259.41 186.679 256.061 187.314 253.034C188.658 246.632 190.253 239.838 193.551 234.146C194.98 231.679 196.817 229.348 199.194 228.374C205.25 226.214 219.974 235.663 226.269 239.314C235.503 244.664 245.26 249.186 254.278 254.484C258.741 257.109 263.594 259.447 267.674 262.441C269.714 263.938 271.701 265.835 272.959 267.526C274.267 269.283 275.072 271.163 274.77 273.534C274.394 276.412 273.101 279.07 271.824 281.454C270.337 284.212 268.604 286.748 266.893 288.932L266.923 288.945ZM248.851 270.951C247.018 267.94 235.704 262.91 232.333 261.33C226.781 258.737 221.209 255.907 215.579 253.712C212.491 252.513 209.048 251.378 207.84 255.828C207.104 258.565 208.791 260.101 210.879 261.248C215.044 263.548 219.458 265.26 223.798 267.161C228.567 269.25 233.387 271.344 238.263 273.11C240.257 273.828 245.374 275.647 247.342 274.723C248.496 274.163 249.557 272.232 248.862 270.947L248.851 270.951Z" fill="#FF0077" stroke="black" stroke-width="4"/>
<path d="M288.162 257.962C286.643 258.908 284.708 259.759 282.388 259.902C278.931 260.083 274.321 258.814 270.298 257.255C264.192 254.878 258.201 251.317 252.243 248.122C245.616 244.563 238.805 240.782 232.073 237.203C224.1 232.955 215.86 228.775 209.69 222.172C207.455 219.857 205.483 216.741 205.1 213.583C204.724 210.507 205.852 207.423 207.056 204.725C209.619 199.001 212.454 193.096 216.76 188.862C218.628 187.02 220.931 185.414 223.589 185.225C234.113 187.562 242.709 196.908 250.454 203.719C259.094 211.321 268.475 218.402 277.201 226.068C281.383 229.733 285.903 233.168 289.5 236.999C291.301 238.92 292.96 241.202 293.919 243.131C294.911 245.146 295.411 247.156 295.291 248.832C295.142 250.874 294.133 252.467 292.994 253.853C291.671 255.458 289.968 256.843 288.151 257.966L288.162 257.962ZM270.723 238.509C269.013 235.561 257.817 227.876 254.46 225.482C248.94 221.554 243.398 217.353 237.678 213.637C234.534 211.602 231.052 209.514 229.226 213.164C228.105 215.413 229.715 217.286 231.83 218.913C236.034 222.164 240.568 224.908 244.982 227.785C249.836 230.943 254.707 234.083 259.648 236.962C261.676 238.145 266.861 241.114 268.959 240.996C270.187 240.91 271.368 239.728 270.733 238.505L270.723 238.509Z" fill="#FF0077" stroke="black" stroke-width="4"/>
<path d="M310.735 235.917C309.047 236.647 306.983 237.229 304.656 237.008C301.197 236.651 296.82 234.593 293.04 232.242C287.291 228.672 281.779 223.761 276.142 219.156C269.872 214.025 263.38 208.515 256.872 203.183C249.169 196.858 241.111 190.438 235.633 182.305C233.634 179.433 232.037 175.864 232.127 172.694C232.214 169.61 233.887 166.889 235.588 164.525C239.195 159.533 243.136 154.265 248.347 150.878C250.616 149.407 253.29 148.22 256.136 148.546C266.766 153.108 274.419 164.499 281.543 173.18C289.372 182.727 297.926 191.869 305.702 201.533C309.352 206.066 313.347 210.355 316.243 214.839C317.69 217.08 318.897 219.648 319.456 221.746C320.033 223.922 320.115 226.022 319.637 227.69C319.068 229.724 317.727 231.189 316.325 232.432C314.694 233.875 312.741 235.027 310.716 235.9L310.735 235.917ZM296.797 213.277C295.57 209.933 285.291 199.821 282.176 196.66C277.055 191.462 271.918 185.939 266.485 180.85C263.499 178.056 260.154 175.155 257.655 178.43C256.12 180.436 257.523 182.719 259.483 184.86C263.406 189.152 267.723 193.009 271.879 196.954C276.444 201.29 281.01 205.565 285.64 209.533C287.534 211.16 292.365 215.234 294.533 215.518C295.816 215.668 297.231 214.676 296.795 213.303L296.797 213.277Z" fill="#FF0077" stroke="black" stroke-width="4"/>
<path d="M337.808 216.592C335.948 217.131 333.767 217.477 331.493 216.953C328.107 216.151 324.139 213.445 320.765 210.47C315.634 205.938 310.87 199.927 305.832 194.121C300.233 187.663 294.353 180.482 288.369 173.82C281.51 166.199 273.819 157.26 269.294 147.801C267.642 144.401 266.531 140.35 267.121 136.985C267.701 133.722 269.899 131.091 272.068 128.826C276.663 124.014 281.595 118.776 287.674 115.762C290.313 114.454 293.364 113.512 296.344 114.276C306.857 120.206 313.191 134.474 319.085 144.43C325.731 155.661 333.128 166.931 339.543 178.289C342.563 183.63 345.911 188.93 347.997 194.292C349.044 196.984 349.757 200.014 349.852 202.463C349.962 204.98 349.539 207.325 348.65 209.104C347.578 211.26 345.897 212.637 344.195 213.74C342.23 215.019 340.01 215.956 337.797 216.596L337.808 216.592ZM328.33 191.029C327.69 187.272 318.771 174.831 316.042 170.931C311.548 164.51 307.03 157.681 302.096 151.295C299.386 147.793 296.318 144.124 293.165 147.322C291.23 149.275 292.353 151.974 294.077 154.611C297.528 159.895 301.469 164.768 305.185 169.692C309.272 175.096 313.318 180.43 317.441 185.392C319.124 187.42 323.389 192.497 325.573 193.105C326.87 193.446 328.523 192.595 328.338 191.05L328.33 191.029Z" fill="#FF0077" stroke="black" stroke-width="4"/>
<path d="M362.358 202.779C357.916 200.869 351.594 186.315 348.404 180.856C336.776 160.943 323.281 141.144 313.013 120.824C304.941 104.857 319.196 90.2723 335.114 87.645C337.698 86.9828 340.476 86.4412 343.221 86.9168C358.273 93.0533 364.225 116.227 369.776 129.648C375.126 142.584 381.433 155.65 386.983 168.532C388.64 172.383 392.653 182.385 391.507 185.893C390.688 188.416 382.289 192.173 379.842 191.3C376.631 190.16 373.865 179.49 372.026 175.392C371.148 173.418 369.962 170.621 368.533 167.294C368.431 167.346 368.241 167.457 368.143 167.519C366.048 168.873 363.904 170.099 361.748 171.011C362.418 172.514 362.972 173.561 363.386 174.343C368.379 183.902 376.541 195.817 370.203 199.52C368.577 200.471 364.216 203.588 362.377 202.797L362.358 202.779ZM361.552 148.465C356.633 138.937 350.472 127.885 342.231 120.52C339.257 118.48 335.86 120.548 337.162 124.023C340.931 134.12 347.05 143.963 352.317 153.6C354.929 152.033 357.664 150.626 360.286 148.957L361.552 148.465Z" fill="#FF0077" stroke="black" stroke-width="4"/>
<path d="M411.592 179.587C409.256 180.288 406.682 180.946 404.042 179.89C402.406 179.241 400.73 177.798 399.498 175.828C396.836 171.976 395.076 167.198 392.856 162.721C390.44 157.83 388.156 152.778 385.881 147.747C377.273 128.766 368.099 109.969 359.679 90.9026C358.002 87.0962 355.891 82.8342 356.15 78.5566C356.501 72.9083 364.708 70.8307 368.903 69.0519C374.15 66.8273 377.147 67.07 379.057 72.3901C387.743 96.5464 397.007 120.551 406.622 144.42C407.112 145.711 408.81 150.109 409.645 150.997C410.615 152.041 412.721 151.001 412.932 149.559C413.094 148.651 412.408 145.88 412.17 145.017C411.482 142.431 407.523 133.511 408.056 130.976C408.11 130.453 408.328 130.038 408.546 129.622C409.91 127.903 416.745 125.637 418.533 125.321C419.211 125.204 419.98 125.26 420.71 125.626C423.367 127.042 425.62 135.572 426.686 139.102C427.934 143.222 429.146 147.662 430.044 152.175C430.888 156.391 431.875 161.164 431.349 165.386C430.955 168.528 429.345 171.224 427.66 172.308C426.003 173.369 424.156 174.321 422.311 175.087C418.865 176.526 415.272 178.499 411.564 179.61L411.592 179.587Z" fill="#FF0077" stroke="black" stroke-width="4"/>
<path d="M432.408 129.722C431.1 129.068 429.899 127.71 428.953 126.13C425.819 121.188 423.43 115.332 421.108 109.866C417.278 100.871 413.937 91.367 411 81.2653C409.395 75.7531 407.905 69.9389 407.674 63.9289C407.575 61.6279 407.966 59.516 408.704 57.4773C411.089 51.6746 421.289 49.9976 426.397 50.5954C427.965 50.8181 429.545 52.3595 430.342 54.1563C431.512 56.7877 432.019 59.8854 432.578 62.8035C436.062 80.7646 439.125 99.2199 442.536 117.405C442.997 120.165 443.652 122.887 443.324 125.477C443.143 126.931 442.134 128.022 441.188 128.488C438.534 129.789 435.406 131.508 432.45 129.829L432.408 129.722ZM441.187 167.941C439.092 167.09 437.574 161.581 436.621 158.313C435.669 155.046 433.488 146.794 434.258 144.02C435.54 139.883 445.821 137.722 447.753 140.044C449.145 141.732 449.474 144.152 450.008 147.006C450.634 150.315 451.925 159.869 451.042 163.079C449.218 168.969 444.384 169.233 441.187 167.941Z" fill="#FF0077" stroke="black" stroke-width="4"/>
<path d="M303.058 144.313L262.519 147.414C260.035 147.617 257.94 145.603 258.069 143.166C258.881 128.522 263.697 83.648 292.047 76.7922C292.376 76.7021 292.729 76.6682 293.083 76.6686L331.35 76.5394C335.222 76.5217 336.991 81.2634 334.017 83.6973C322.725 92.9572 306.395 111.385 306.836 140.221C306.857 142.356 305.2 144.143 303.035 144.313L303.058 144.313Z" fill="white" stroke="black" stroke-width="4" stroke-miterlimit="10"/>
<path d="M170.817 251.908L172.428 266.496C172.534 267.39 171.827 268.169 170.949 268.149C165.662 268.036 149.403 266.832 146.599 256.687C146.558 256.569 146.548 256.439 146.543 256.32L146.038 242.507C145.986 241.111 147.676 240.412 148.586 241.46C152.061 245.422 158.903 251.098 169.304 250.587C170.076 250.547 170.738 251.126 170.828 251.905L170.817 251.908Z" fill="black"/>
<path d="M208.764 401.912L234.911 418.715C236.508 419.743 236.862 421.933 235.667 423.36C228.442 431.918 204.812 457.056 184.355 448.163C184.115 448.073 183.88 447.928 183.668 447.775L160.286 430.223C157.92 428.449 159.033 424.731 161.958 424.618C173.123 424.186 191.551 420.472 204.585 402.674C205.562 401.354 207.401 401.028 208.795 401.926L208.764 401.912Z" fill="white" stroke="black" stroke-width="4" stroke-miterlimit="10" stroke-linecap="round"/>
<path d="M427.424 228.177C424.373 228.731 422.121 225.291 423.964 222.767L424.156 222.526C427.387 218.761 431.632 211.796 429.83 202.405L429.829 202.396L429.827 202.387C429.499 200.592 430.622 198.858 432.383 198.402L432.387 198.401L446.6 194.758L446.6 194.757C448.619 194.233 450.672 195.588 450.928 197.686L450.928 197.69C451.251 200.384 451.707 205.979 450.81 211.5C449.933 216.9 447.64 222.893 441.909 225.444C441.537 225.629 441.16 225.699 441.089 225.715L441.054 225.723L441.018 225.729L427.424 228.178L427.424 228.177Z" fill="#FF0077" stroke="black" stroke-width="4"/>
<path d="M511.791 260.27L532.707 260.574C533.987 260.59 534.964 261.717 534.787 262.962C533.688 270.432 529.131 293.199 514.269 295.391C514.097 295.421 513.912 295.419 513.735 295.403L494.119 293.687C492.14 293.513 491.446 291.003 493.082 289.889C499.304 285.668 508.53 276.984 509.659 262.19C509.746 261.09 510.68 260.249 511.801 260.266L511.791 260.27Z" fill="black"/>
<path d="M542.722 453.877L546.053 436.744C546.275 435.616 547.431 434.934 548.5 435.29C554.926 437.482 574.344 445.239 573.853 458.744C573.853 458.903 573.818 459.064 573.783 459.225L569.062 476.311C568.583 478.04 566.247 478.238 565.538 476.604C562.822 470.409 556.643 460.821 543.727 457.405C542.771 457.153 542.174 456.184 542.379 455.199L542.722 453.877Z" fill="#FF0077" stroke="black" stroke-width="4" stroke-miterlimit="10"/>
<path d="M296.706 495.688C306.007 472.784 320.739 452.495 343.934 448.11L343.955 448.106L343.976 448.101C344.355 448.021 344.764 447.995 345.201 448.02L345.221 448.021L409.868 451.04L409.869 451.041C414.61 451.264 416.303 457.07 412.675 459.761L412.675 459.761C392.565 474.63 362.899 504.849 361.147 554.448C361.048 556.971 358.973 559.04 356.329 559.107L349.735 559.272L349.759 559.287L287.634 560.904L287.628 560.904L287.345 560.905C284.444 560.831 282.237 558.339 282.527 555.553C283.826 543.292 287.44 518.502 296.706 495.688Z" fill="#FF0077" stroke="black" stroke-width="4"/>
<path d="M567.091 262.854L592.683 276.224C594.253 277.035 594.758 279.031 593.76 280.458C587.774 288.971 567.998 314.2 548.338 307.663C548.106 307.603 547.878 307.484 547.666 307.346L524.562 293.033C522.226 291.585 522.944 288.068 525.645 287.711C535.925 286.384 552.689 281.416 563.273 263.875C564.059 262.582 565.737 262.123 567.105 262.846L567.094 262.843L567.091 262.854Z" fill="white" stroke="black" stroke-width="4" stroke-miterlimit="10" stroke-linecap="round"/>
</g>
<defs>
<clipPath id="clip0_7124_1327">
<rect width="737" height="670" fill="white"/>
</clipPath>
</defs>
</svg>
