<svg width="500" height="695" viewBox="0 0 500 695" fill="none" xmlns="http://www.w3.org/2000/svg">
<path d="M301.677 132.064C287.786 115.974 293.576 95.0259 310.772 82.8246C327.968 70.6234 352.42 76.7737 366.311 92.8639C380.202 108.954 377.357 123.081 360.161 135.27C342.965 147.471 315.568 148.155 301.677 132.064Z" fill="black"/>
<path d="M299.366 107.823C312.246 107.823 322.688 97.382 322.688 84.5019C322.688 71.6218 312.246 61.1804 299.366 61.1804C286.486 61.1804 276.045 71.6218 276.045 84.5019C276.045 97.382 286.486 107.823 299.366 107.823Z" fill="black"/>
<path d="M334.516 156.616C334.516 156.616 325.396 182.708 325.123 183.478L287.028 194.996L315.059 134.363C315.059 134.363 322.688 139.805 322.688 136.512L334.516 156.616Z" fill="white" stroke="black" stroke-width="4" stroke-miterlimit="10" stroke-linecap="round"/>
<path d="M325.272 154.28L339.337 159.275C348.295 162.455 358.148 155.634 361.316 146.676L370.387 120.124C363.242 123.789 351.041 120.211 351.041 120.211C351.041 120.211 331.795 145.682 313.717 137.27" fill="white"/>
<path d="M325.272 154.28L339.337 159.275C348.295 162.455 358.148 155.634 361.316 146.676L370.387 120.124C363.242 123.789 351.041 120.211 351.041 120.211C351.041 120.211 331.795 145.682 313.717 137.27" stroke="black" stroke-width="4" stroke-miterlimit="10" stroke-linecap="round"/>
<path d="M32.4805 625.157H368.598" stroke="black" stroke-width="4" stroke-miterlimit="10" stroke-linecap="round"/>
<path d="M246.448 380.102C245.329 385.643 236.098 416.879 235.066 421.079C233.252 428.385 228.518 434.609 222.033 438.424C214.255 442.996 194.164 447.718 163.363 502.524C149.347 527.46 124.609 556.261 124.609 556.261L126.784 575.222L314.213 396.527" fill="white"/>
<path d="M246.448 380.102C245.329 385.643 236.098 416.879 235.066 421.079C233.252 428.385 228.518 434.609 222.033 438.424C214.255 442.996 194.164 447.718 163.363 502.524C149.347 527.46 124.609 556.261 124.609 556.261L126.784 575.222L314.213 396.527" stroke="black" stroke-width="4" stroke-miterlimit="10" stroke-linecap="round"/>
<path d="M111.676 625.157L125.48 576.464L124.598 556.261L103.997 556.609C100.643 556.671 97.9838 559.479 98.1329 562.846L100.842 625.157H111.676Z" fill="#FF0077" stroke="black" stroke-width="4" stroke-miterlimit="10"/>
<path d="M245.715 383.233L246.249 380.798C247.268 376.113 247.678 370.609 248.1 364.794C248.585 358.184 249.082 351.363 250.523 344.803C256.537 317.592 279.038 295.451 300.682 295.451C310.287 295.451 319.22 299.85 326.538 308.174C328.514 310.423 330.676 312.573 332.751 314.66C345.35 327.234 358.371 340.23 333.583 377.679L333.434 377.903L313.144 397.745L245.702 383.245L245.715 383.233Z" fill="#FF0077"/>
<path d="M300.671 297.924C309.008 297.924 317.332 301.465 324.663 309.802C338.765 325.842 359.167 334.515 331.509 376.3L312.362 395.024L248.66 381.332C250.884 371.131 250.238 357.513 252.934 345.337C258.414 320.524 279.586 297.936 300.658 297.936M300.671 292.954C289.314 292.954 277.498 298.594 267.422 308.833C257.991 318.412 250.946 331.322 248.089 344.256C246.598 350.99 246.101 357.911 245.604 364.608C245.181 370.348 244.796 375.765 243.802 380.263L242.733 385.134L247.604 386.177L311.306 399.87L313.915 400.429L315.829 398.565L334.976 379.841L335.348 379.468L335.634 379.033C347.177 361.589 351.662 348.182 349.749 336.851C347.972 326.364 341.113 319.506 334.479 312.883C332.428 310.833 330.304 308.708 328.366 306.522C320.563 297.65 310.983 292.954 300.646 292.954H300.671Z" fill="black"/>
<path d="M301.516 63.8267C301.516 63.8267 276.902 60.6708 268.49 84.4893" stroke="black" stroke-width="4" stroke-miterlimit="10" stroke-linecap="round"/>
<path d="M313.381 602.382C315.431 600.73 316.251 597.959 315.469 595.35L302.733 551.49L292.222 536.493L273.56 549.216C271.683 550.496 271.224 553.081 272.553 554.919L309.219 605.762L313.381 602.395V602.382Z" fill="#FF0077" stroke="black" stroke-width="4" stroke-miterlimit="10"/>
<path d="M383.544 333.459C383.544 333.459 334.838 303.142 317.369 295.451C293.737 285.052 276.616 311.193 275.299 324.985C273.994 338.752 273.435 356.482 336.218 379.816L383.544 333.459Z" fill="#FF0077"/>
<path d="M383.11 334.204L339.511 307.764C339.511 307.764 328.018 302.049 327.993 294.78" stroke="black" stroke-width="4" stroke-miterlimit="10" stroke-linecap="round"/>
<path d="M338.417 380.748C338.417 380.748 363.043 391.421 370.685 394.626C371.53 394.987 371.654 396.13 370.896 396.652C367.181 399.211 350.233 410.48 343.313 422.383C327.409 449.755 339.548 455.222 293.39 537.239L303.578 549.303L422.67 388.339C430.61 377.182 427.479 361.626 415.824 354.419L382.103 333.546L338.417 380.748Z" fill="white" stroke="black" stroke-width="4" stroke-miterlimit="10" stroke-linecap="round"/>
<path d="M303.591 549.304L294.881 537.5L318.563 490.385L335.249 504.997L303.591 549.304Z" fill="black" stroke="black" stroke-width="4" stroke-miterlimit="10" stroke-linecap="round"/>
<path d="M402.803 166.183C402.654 164.145 405.325 163.263 406.406 164.99L408.332 167.214C408.705 165.152 409.537 163.462 410.854 162.108C412.134 160.803 414.197 160.679 415.65 161.797L424.522 168.68C427.864 171.265 429.293 175.638 428.075 179.689L422.495 193.5L404.654 189.691L402.803 166.183Z" fill="white" stroke="black" stroke-width="4" stroke-miterlimit="10" stroke-linecap="round"/>
<path d="M157.934 513.396L124.598 556.261L125.48 575.222C132.264 570.264 145.024 552.733 171.091 532.269L157.934 513.396Z" fill="black" stroke="black" stroke-width="4" stroke-miterlimit="10" stroke-linecap="round"/>
<path d="M338.417 380.748L277.523 359.936C261.371 353.997 256.624 338.516 260.464 321.754" stroke="black" stroke-width="4" stroke-miterlimit="10" stroke-linecap="round"/>
<path d="M403.201 187.603C401.598 193.915 386.576 228.394 386.576 228.394C376.462 211.235 356.235 179.838 356.235 179.838C354.421 176.21 351.526 173.489 348.134 171.811L339.163 167.065L342.555 157.597C342.555 157.597 308.25 145.272 307.616 145.694C303.33 155 295.639 162.306 286.121 166.108L208.081 197.245C201.495 199.978 198.414 207.558 201.21 214.118L238 300.508L257.643 288.071L237.44 219.622L257.283 214.553L258.178 226.568C258.687 232.37 276.753 291.065 272.951 303.366L259.209 326.066L253.481 339.907L350.507 314.399C351.078 295.762 357.502 239.85 358.583 237.7C362.012 241.863 371.182 255.368 374.425 259.32C385.172 272.378 406.17 267.868 410.606 251.554C417.7 225.449 424.484 195.891 425.665 192.287L403.201 187.603Z" fill="black"/>
<path d="M255.121 287.723L272.379 305.13C273.821 306.571 272.367 308.982 270.416 308.385L267.509 307.951C268.565 309.765 268.607 310.124 268.495 312C268.383 313.876 267.298 316.735 265.471 316.822L254.252 317.369C250.027 317.58 246.101 315.182 244.399 311.318C241.615 305.031 238.559 296.147 238.621 294.557L255.121 287.723Z" fill="white" stroke="black" stroke-width="4" stroke-miterlimit="10" stroke-linecap="round"/>
<path d="M332.59 155.907L326.453 171.762C325.384 174.532 325.769 177.688 327.583 180.037C347.861 206.241 349.538 215.596 347.861 228.854L338.418 319.406" stroke="white" stroke-width="4" stroke-miterlimit="10" stroke-linecap="square"/>
<path d="M332.901 318.922L344.345 315.952L342.555 325.954L333.833 328.476L332.901 318.922Z" fill="#FF0077"/>
<path d="M253.221 341.585L348.995 314.5" stroke="black" stroke-width="4" stroke-miterlimit="10" stroke-linecap="round"/>
<path d="M339.35 159.262L309.083 147.707" stroke="black" stroke-width="4" stroke-miterlimit="10" stroke-linecap="round"/>
<path d="M343.439 116.31C343.153 116.31 342.855 116.26 342.569 116.148L334.257 113.042C333.635 112.806 333.138 112.346 332.865 111.75C332.592 111.153 332.567 110.47 332.803 109.849L343.203 81.9548C344.209 79.2586 346.818 77.4446 349.688 77.4446C350.508 77.4446 351.328 77.5937 352.111 77.8795C355.69 79.2089 357.516 83.2097 356.174 86.7881L345.775 114.682C345.402 115.676 344.457 116.297 343.451 116.297L343.439 116.31Z" fill="#FF0077"/>
<path d="M349.688 79.9294C350.197 79.9294 350.732 80.0164 351.241 80.2152C353.54 81.0725 354.707 83.632 353.85 85.9182L343.451 113.812L335.138 110.706L345.538 82.812C346.209 81.0228 347.899 79.917 349.7 79.917M349.688 74.9595C345.774 74.9595 342.233 77.4196 340.866 81.0849L330.467 108.979C330.007 110.209 330.057 111.576 330.603 112.781C331.15 113.986 332.156 114.918 333.386 115.378L341.699 118.484C342.27 118.695 342.854 118.794 343.438 118.794C345.451 118.794 347.352 117.564 348.097 115.564L358.497 87.6701C359.379 85.3094 359.28 82.7623 358.236 80.4761C357.192 78.1899 355.316 76.4505 352.968 75.5683C351.912 75.1707 350.806 74.9719 349.688 74.9719V74.9595Z" fill="black"/>
<path d="M335.312 138.202C333.734 138.202 332.181 137.916 330.69 137.37C327.385 136.14 324.751 133.692 323.285 130.474C321.818 127.256 321.682 123.665 322.924 120.36L324.701 115.601C326.614 110.458 331.597 106.991 337.089 106.991C338.667 106.991 340.22 107.277 341.711 107.823C345.016 109.053 347.65 111.501 349.116 114.719C350.582 117.937 350.719 121.528 349.476 124.833L347.699 129.592C345.786 134.736 340.804 138.202 335.312 138.202Z" fill="#FF0077"/>
<path d="M337.088 109.463C338.331 109.463 339.598 109.687 340.841 110.147C346.395 112.222 349.227 118.409 347.152 123.963L345.376 128.722C343.76 133.046 339.673 135.717 335.312 135.717C334.069 135.717 332.802 135.493 331.559 135.034C326.005 132.959 323.173 126.771 325.247 121.217L327.024 116.459C328.639 112.135 332.727 109.463 337.088 109.463ZM337.088 104.493C330.565 104.493 324.651 108.606 322.365 114.719L320.588 119.478C319.122 123.404 319.271 127.678 321.023 131.493C322.762 135.307 325.894 138.214 329.82 139.681C331.584 140.339 333.435 140.675 335.312 140.675C341.835 140.675 347.749 136.562 350.035 130.449L351.812 125.69C353.278 121.764 353.129 117.49 351.377 113.675C349.637 109.861 346.506 106.954 342.58 105.487C340.816 104.829 338.965 104.493 337.088 104.493Z" fill="black"/>
<path d="M268.913 68.8837C268.913 68.8837 288.582 57.9498 306.25 64.6716" stroke="black" stroke-width="4" stroke-miterlimit="10" stroke-linecap="round"/>
</svg>
