<svg width="655" height="450" viewBox="0 0 655 450" fill="none" xmlns="http://www.w3.org/2000/svg">
<g clip-path="url(#clip0_6341_221)">
<path d="M601.88 85.8C601.3 85.34 600.45 85.41 599.96 85.97C597.86 88.38 592.68 94.31 592.32 94.77C591.93 95.26 597.97 84.15 599.77 80.84C600.06 80.31 599.92 79.65 599.45 79.27L599.1 78.99C598.53 78.54 597.69 78.67 597.29 79.27L587.8 93.51L592.48 76.45C592.66 75.79 592.28 75.11 591.62 74.92L591.54 74.9C590.95 74.73 590.32 75.02 590.06 75.58L582.75 91.72L585.86 74.07C585.97 73.43 585.58 72.82 584.96 72.65C584.33 72.48 583.67 72.83 583.46 73.45L578.25 88.83C576.36 89.52 570.85 92.27 569.32 101.5C568.72 105.1 570.49 115 570.49 115L570.69 115.14C568.69 118.4 564.43 124.64 559.05 131.97C551.02 142.9 534.47 156.01 534.47 156.01L505.64 115.89L481.75 151.92C481.75 151.92 520.82 182.79 529.29 185.72C537.76 188.65 541.04 189.07 554.42 172.95C567.81 156.83 583.38 122.41 583.38 122.41L593.85 103.51L602.26 87.54C602.57 86.95 602.42 86.22 601.9 85.8H601.88Z" fill="black"/>
<path d="M498.21 129.96L518.07 99.8099L502.86 77.4299L487.66 93.3799L498.21 129.96Z" fill="black"/>
<path d="M568.411 411.75C568.411 411.75 567.251 405.86 562.701 404C558.151 402.14 552.291 403.01 552.291 403.01C552.291 403.01 535.471 377.22 519.781 374.6C504.521 372.05 501.861 378.91 503.931 383.34C505.221 386.11 508.001 390.38 506.391 393.09C503.871 397.32 502.291 392.63 476.611 378.15C450.931 363.67 428.231 363.98 423.061 377.6C418.411 389.87 428.251 405.47 419.781 404.92C411.311 404.37 406.941 396.72 397.101 399.73C387.271 402.74 382.351 411.75 382.351 411.75H568.391H568.411Z" fill="white" stroke="black" stroke-width="4" stroke-miterlimit="10"/>
<path d="M100.97 376.1C66.9597 355.2 56.7097 377.74 58.7597 388.39C60.8097 399.04 69.4097 411.75 69.4097 411.75H123.5L100.96 376.1H100.97Z" fill="white" stroke="black" stroke-width="4" stroke-miterlimit="10"/>
<path d="M311.19 411.75C285.37 411.75 258.74 389.21 244.39 369.13C230.05 349.05 211.61 335.53 200.54 349.46C189.48 363.39 186.2 375.69 176.77 364.62C167.34 353.56 143.77 326.44 116.53 340.03C90.9997 352.77 100.96 380.19 100.96 380.19C100.96 380.19 78.8297 376.09 78.0097 388.39C77.1897 400.68 88.6597 411.75 88.6597 411.75H311.18H311.19Z" fill="white" stroke="black" stroke-width="4" stroke-miterlimit="10"/>
<path d="M279.66 251.5L268.61 263.65C263.49 267.13 250.25 269.18 233.25 291.72C217.98 311.95 181.82 357.08 181.82 357.08L190.7 368.08L195.48 365.19L275.87 298.48C275.87 298.48 290.83 295 295.95 290.49C301.07 285.98 305.44 279.88 305.44 279.88" fill="black"/>
<path d="M282.11 251.5C284.27 248.82 286.89 245.69 290.07 242.13C299.07 232.03 307.6 223.23 313.33 217.47C317.41 213.37 320.03 208.05 320.72 202.31C321.54 195.57 324.2 185.35 332.2 174.52C346.13 155.67 382.19 148.91 382.19 148.91C382.19 148.91 404.73 208.33 373.17 235.38C341.62 262.43 305.76 277.79 305.76 277.79L291.2 262L282.11 251.5Z" fill="#FF0077" stroke="black" stroke-width="4" stroke-miterlimit="10"/>
<path d="M349.01 176.98C339.58 199.52 350.79 226.15 357.62 238.04C358.99 240.42 360.39 242.59 361.77 244.56C361.77 244.56 371.3 240.23 375.07 237C379.61 233.11 381.15 226.92 383.67 221.97L349.01 176.99V176.98Z" fill="black"/>
<path d="M442.82 230.65C452.96 244.71 461.8 257.44 465.55 264.16C475.93 282.74 455.44 290.11 455.44 290.11L340.85 321.34L336.05 307.05C336.05 307.05 364.19 294.21 375.94 286.83C387.69 279.45 415.22 266.27 415.22 266.27L399.62 256.87L442.82 230.65Z" fill="black"/>
<path d="M507.05 123.25L502.41 115.15L485.83 109.93L491.45 93.0401C479.96 77.1501 463.85 59.8801 447.59 65.7801L434.53 83.1401L421.57 108.99C417.68 116.75 412.25 123.63 405.61 129.22L382.21 148.91L411.58 190.38C411.58 190.38 447.7 176.07 463.14 169.88C478.58 163.69 487.66 159.77 496.33 150.48C503.1 143.23 507.18 136.7 508.32 131.98C509.04 129.02 508.56 125.89 507.04 123.25H507.05Z" fill="white" stroke="black" stroke-width="4"/>
<path d="M529.109 51.3702C540.849 51.8602 549.979 61.7802 549.479 73.5302L548.389 99.4102C548.079 106.82 541.819 112.57 534.409 112.26L522.599 111.76C513.489 111.38 504.829 101.95 505.209 92.8502L506.989 70.9102C507.919 59.5202 517.679 50.8902 529.099 51.3702H529.109Z" fill="black"/>
<path d="M547.38 71.6001C547.38 71.6001 550.34 56.8101 532.28 47.1401C516.29 38.5701 495.41 44.3401 490.75 61.3701C488 71.4001 498.23 86.3201 498.23 86.3201C502.49 86.3101 506.36 83.8301 508.15 79.9701L510.33 75.2601L547.39 71.6001H547.38Z" fill="#FF0077" stroke="black" stroke-width="4" stroke-miterlimit="10"/>
<path d="M505.97 76.37C504.91 73.73 506.79 70.73 509.26 70.19C511.74 69.66 514.71 71.2 514.94 74.43C515.17 77.64 514.45 79.79 512.03 80.32C509.55 80.86 507.18 79.38 505.97 76.37Z" fill="black"/>
<path d="M402.361 40.2C393.571 36.67 384.061 35.33 374.641 36.3L311.941 42.75L292.551 42.06L274.471 40.22C273.881 40.16 273.321 40.53 273.151 41.1L273.071 41.35C272.881 41.99 273.221 42.66 273.851 42.88C276.771 43.89 284.441 46.55 285.011 46.72C285.611 46.9 273.051 45.46 269.301 45.03C268.701 44.96 268.141 45.33 267.971 45.91L267.841 46.34C267.631 47.04 268.071 47.77 268.781 47.91L285.541 51.39L267.971 53.43C267.291 53.51 266.801 54.12 266.881 54.8V54.89C266.951 55.5 267.461 55.98 268.071 56L285.771 56.74L268.231 60.46C267.601 60.59 267.171 61.19 267.251 61.83C267.331 62.48 267.901 62.96 268.561 62.92L291.231 61.63L285.961 70.84C285.551 71.56 285.801 72.47 286.511 72.88C286.981 73.15 287.571 73.14 288.031 72.86C290.341 71.45 297.301 67.18 299.851 65.55C302.931 63.59 311.931 59.41 311.931 59.41H377.551C381.901 59.41 386.161 60.6 389.881 62.84L437.011 91.26L464.511 65.16L402.351 40.2H402.361Z" fill="black"/>
<path d="M506.4 122.12L488.18 90.27C487.53 89.14 486.82 88.06 486.07 87.02C484.93 98.83 480.67 103.26 478.06 109.55C476.51 113.28 474.75 123.95 480.15 129.71C484.62 134.49 492.98 138.03 500.23 131.36C503.96 127.93 505.57 124.71 506.4 122.11V122.12Z" fill="black"/>
<path d="M440.2 230.48C422.3 205.67 382.2 148.91 382.2 148.91C382.2 148.91 341.63 155.26 341.9 189.96C342.09 214.12 377.91 240.66 399.65 254.55L440.2 230.48Z" fill="#FF0077" stroke="black" stroke-width="4" stroke-miterlimit="10"/>
<path d="M38.2002 412.13H600.46" stroke="black" stroke-width="4" stroke-miterlimit="10" stroke-linecap="round"/>
<path d="M443.01 101.41L434.75 116.83C430.99 123.86 425.8 130.02 419.52 134.94C419.52 134.94 406.81 146.04 390.69 157.45" stroke="#FF0077" stroke-width="4"/>
<path d="M454.811 109.55C467.651 109.55 478.061 99.1407 478.061 86.3C478.061 73.4594 467.651 63.05 454.811 63.05C441.97 63.05 431.561 73.4594 431.561 86.3C431.561 99.1407 441.97 109.55 454.811 109.55Z" fill="black"/>
<path d="M341.91 306.85L370.04 292.98L377.92 308.56L347.69 317.91L341.04 316.64L339.16 309.79L341.91 306.85Z" fill="white" stroke="black" stroke-width="4" stroke-miterlimit="10"/>
<path d="M183.661 357.17L203.881 333.19L217.331 344.31L193.391 364.99L186.781 366.49L182.311 360.96L183.661 357.17Z" fill="white" stroke="black" stroke-width="4" stroke-miterlimit="10"/>
<path d="M325.52 371.17L333.31 370.09L348.14 318.97C347.91 318.64 347.41 318.22 346.76 317.76C342.82 314.97 340.85 310.17 341.79 305.44L341.82 305.26L339.42 305.03C335.47 304.66 331.49 305.06 327.7 306.22L318.16 309.14L321.7 338L325.52 371.17Z" fill="white" stroke="black" stroke-width="4"/>
<path d="M343.11 331.75H335.21" stroke="black" stroke-width="4" stroke-linecap="round"/>
<path d="M341.04 342.16H333.15" stroke="black" stroke-width="4" stroke-linecap="round"/>
<path d="M388.23 159.3L383.46 163.35C369.37 175.31 367.35 196.32 378.92 210.74L409.63 249.01" stroke="black" stroke-width="4" stroke-miterlimit="10"/>
<path d="M195.48 411.99V407.41L195.37 407.31C188.94 401.79 186.29 393.04 188.59 384.88L194.12 365.2L189.14 363.57C186.33 362.65 184.49 359.98 184.63 357.03L184.83 352.77C178.92 352.77 173.13 354.45 168.14 357.62L158.67 363.63L169.38 402.54C169.84 404.22 170.64 405.79 171.71 407.15C174.21 410.32 178.04 412.16 182.08 412.12L195.48 411.98V411.99Z" fill="white" stroke="black" stroke-width="4"/>
<path d="M185.77 385.84H177.87" stroke="black" stroke-width="4" stroke-linecap="round"/>
<path d="M189.72 376.96H181.82" stroke="black" stroke-width="4" stroke-linecap="round"/>
</g>
<defs>
<clipPath id="clip0_6341_221">
<rect width="566.26" height="378.13" fill="white" transform="translate(36.2002 36)"/>
</clipPath>
</defs>
</svg>
