<svg width="500" height="535" viewBox="0 0 500 535" fill="none" xmlns="http://www.w3.org/2000/svg">
<path d="M106.5 487.5L99.8997 485.79C98.8397 484.78 98.2197 483.4 98.1797 481.94L97.5797 466.56L91.5097 451.57L70.9297 460.38L87.4297 495.68H112.26C112.45 495.43 112.58 495.08 112.67 494.67C113.34 491.64 111.3 488.66 108.29 487.9L106.5 487.5Z" fill="#FF0077" stroke="black" stroke-width="4" stroke-miterlimit="10"/>
<path d="M148.61 144.21C136.45 134.07 135.63 122.31 146.8 111.26C157.97 100.21 178.06 100.49 190.22 110.64C202.38 120.79 202.01 131.51 190.85 142.57C179.69 153.63 160.78 154.36 148.61 144.22V144.21Z" fill="black"/>
<path d="M131.81 132.68C140.105 132.68 146.83 125.955 146.83 117.66C146.83 109.365 140.105 102.64 131.81 102.64C123.515 102.64 116.79 109.365 116.79 117.66C116.79 125.955 123.515 132.68 131.81 132.68Z" fill="black"/>
<path d="M174.58 161.36C174.58 161.36 171.04 181.65 170.93 182.25L148.44 204.08L148.57 202.55C149.96 186.34 153.19 170.33 158.21 154.86C158.88 152.79 159.54 150.76 160.16 148.77C160.21 148.5 172.83 131.35 172.91 131.61L174.57 161.35L174.58 161.36Z" fill="white" stroke="black" stroke-width="4" stroke-miterlimit="10" stroke-linecap="round"/>
<path d="M167.25 159.2L178.2 161.16C185.18 162.41 191.84 157.77 193.09 150.79L196.54 130.17C197.07 127.2 169.44 131.99 169.44 131.99" fill="white"/>
<path d="M167.25 159.2L178.2 161.16C185.18 162.41 191.84 157.77 193.09 150.79L196.54 130.17C197.07 127.2 169.44 131.99 169.44 131.99" stroke="black" stroke-width="4" stroke-miterlimit="10" stroke-linecap="round"/>
<path d="M251.74 131.03L249.54 132.1C249.54 132.1 249.4 132.49 249.39 136.24C249.28 161.96 237.29 185.56 237.29 185.56L195.82 170.19C183.19 165.62 168.55 168.77 159.48 182.18C150.41 195.59 156.17 198.04 189.37 201.52C210.1 203.69 232.52 205.36 241.15 204.69C245 204.39 248.49 202.34 250.62 199.12C254.71 192.95 260.29 181.86 261.33 169.61C262.53 155.42 259.61 140.74 259.61 140.74L260 137.87" fill="white"/>
<path d="M251.74 131.03L249.54 132.1C249.54 132.1 249.4 132.49 249.39 136.24C249.28 161.96 237.29 185.56 237.29 185.56L195.82 170.19C183.19 165.62 168.55 168.77 159.48 182.18C150.41 195.59 156.17 198.04 189.37 201.52C210.1 203.69 232.52 205.36 241.15 204.69C245 204.39 248.49 202.34 250.62 199.12C254.71 192.95 260.29 181.86 261.33 169.61C262.53 155.42 259.61 140.74 259.61 140.74L260 137.87" stroke="black" stroke-width="4" stroke-miterlimit="10" stroke-linecap="round"/>
<path d="M268.73 150.78C267.83 150.78 266.95 150.47 266.26 149.9C259.46 144.39 236.47 125.98 225.86 120.26C219.19 116.66 211.3 115.06 202.43 113.47C199.83 113 197.09 112.67 194.44 112.35C189.73 111.78 184.86 111.19 180.25 109.81C166.38 105.67 154.23 95.27 147.75 82C142.85 71.95 140.48 56.61 149.95 46.49C152.97 43.26 156.99 40.97 161.6 39.85C163.91 39.29 166.35 39 168.85 39C177.3 39 184.86 42.17 189.73 44.83C200 50.45 208.47 59.19 213.56 69.44C215.79 73.93 217.15 78.75 218.46 83.41C218.78 84.55 219.1 85.69 219.44 86.82C222.04 95.67 224.99 105.69 231.91 112.08C231.94 112.11 231.98 112.14 232.01 112.18C235.28 115.66 255.44 129.22 273.22 140.74C274.16 141.35 274.8 142.34 274.97 143.45C275.14 144.56 274.82 145.7 274.1 146.56L271.78 149.34C271.03 150.24 269.92 150.76 268.75 150.76L268.73 150.78ZM169.93 46.36C164.03 46.36 159.12 48.28 155.74 51.9C146.92 61.33 151.02 79.55 164.87 92.51C172.86 99.98 182.93 104.44 191.81 104.44C197.71 104.44 202.62 102.52 206 98.9C214.82 89.46 210.72 71.25 196.87 58.29C188.88 50.82 178.81 46.36 169.93 46.36Z" fill="#FF0077" stroke="black" stroke-width="4"/>
<path d="M205.178 268C211.281 268 218.93 268.769 226.689 269.62L230.018 269.988C232.901 270.308 235.765 270.628 238.498 270.899V270.9C253.058 272.365 267.486 273.18 279.128 273.18C286.085 273.18 292.074 272.901 296.952 272.35C301.791 271.803 305.682 270.974 308.353 269.801L308.354 269.8C310.948 268.657 314.052 268.02 317.038 268.02C320.011 268.02 322.468 268.582 324.775 269.669L324.776 269.67C333.817 273.922 340.991 285.887 336.773 300.902L336.563 301.62C331.794 317.329 321.074 326.251 311.408 331.283C306.571 333.801 302.019 335.332 298.656 336.234C295.416 337.104 293.308 337.382 293.159 337.401L291.907 336.84L291.897 336.849C284.877 333.671 249.31 317.114 212.679 291.604L210.739 290.245L209.429 289.314C203.011 284.724 198.633 281.037 195.992 278.019C193.107 274.72 192.741 272.745 193.134 271.503C193.507 270.333 194.685 269.383 197.065 268.757C199.393 268.144 202.315 268 205.178 268Z" fill="white" stroke="black" stroke-width="4"/>
<path d="M250.4 334.41C243.8 313.39 227.35 290.39 214.6 273.97C201.85 257.55 178.76 268.15 172.55 277.41C165.71 287.61 164.03 308.61 202.56 356.5L253.27 343.97C252.41 340.97 251.46 337.77 250.4 334.41Z" fill="black" stroke="black" stroke-width="4" stroke-miterlimit="10" stroke-linecap="round"/>
<path d="M253.27 343.98L202.56 356.51C204.15 358.7 205.53 360.55 206.65 362.02C208.21 364.07 207.48 367.03 205.15 368.12C200.6 370.26 192.49 374.33 179.92 381.53C159.84 393.03 119.39 439.03 92.7197 451.14L98.7297 466.4C122.87 445.87 155.4 432.91 155.4 432.91C194.93 418.28 265.67 390.87 256.78 357.2L253.26 343.97L253.27 343.98Z" fill="white" stroke="black" stroke-width="4" stroke-miterlimit="10" stroke-linecap="round"/>
<path d="M255.13 349.02C259.55 350.12 263.57 351.24 266.91 352.22C272.73 353.94 277.56 357.95 280.4 363.31C283.81 369.72 289.37 378.91 296.77 386.86C309.72 400.78 332.91 412.95 352.06 425.72C371.21 438.49 391.47 464.02 391.47 464.02L412.49 474.28C406.79 465.73 387.53 434.04 357 396.22C332.81 366.25 308.75 337.33 284.19 316.35" fill="white"/>
<path d="M255.13 349.02C259.55 350.12 263.57 351.24 266.91 352.22C272.73 353.94 277.56 357.95 280.4 363.31C283.81 369.72 289.37 378.91 296.77 386.86C309.72 400.78 332.91 412.95 352.06 425.72C371.21 438.49 391.47 464.02 391.47 464.02L412.49 474.28C406.79 465.73 387.53 434.04 357 396.22C332.81 366.25 308.75 337.33 284.19 316.35" stroke="black" stroke-width="4" stroke-miterlimit="10" stroke-linecap="round"/>
<path d="M218.69 193.99C238.3 164.64 242.98 126.49 242.8 126.87L236.94 124.41L232.99 126.49C232.99 126.49 228.1 143.34 219.38 157.51C210.65 171.69 201.26 180.12 201.26 180.12L218.69 193.98V193.99Z" fill="white" stroke="black" stroke-width="4" stroke-miterlimit="10" stroke-linecap="round"/>
<path d="M243.5 124.5L242.23 131.03L230.3 122.95L232.47 113.18C232.84 112.41 233.74 112.03 234.55 112.31L243.28 118.58C244 119 244.5 120 244 121.5L243.5 124.5Z" fill="white" stroke="black" stroke-width="4" stroke-miterlimit="10" stroke-linecap="round"/>
<path d="M372.08 187.95L372.36 193.1C372.36 193.1 420.37 206.91 460.3 236.88C460.3 236.88 421.71 191.68 380.34 173.49C365.73 182.46 372.07 187.95 372.07 187.95H372.08Z" fill="#FF0077" stroke="black" stroke-width="4" stroke-miterlimit="10" stroke-linecap="round"/>
<path d="M381.113 190.704C385.983 187.008 387.314 180.563 384.086 176.309C380.858 172.054 374.293 171.601 369.422 175.297C364.552 178.992 363.22 185.437 366.449 189.692C369.677 193.946 376.242 194.399 381.113 190.704Z" fill="white" stroke="black" stroke-width="4" stroke-miterlimit="10" stroke-linecap="round"/>
<path d="M92.72 451.14L98.73 466.4C98.73 466.4 137.66 435.78 180.54 422.22C172.64 409.48 169.37 391.37 169.37 391.37C144.36 411.42 115.33 441.85 92.71 451.14H92.72Z" fill="black" stroke="black" stroke-width="4" stroke-miterlimit="10" stroke-linecap="round"/>
<path d="M332.3 411.75C342.63 418.57 341.88 418.92 352.07 425.72C371.22 438.49 396.22 474.28 396.22 474.28H412.49C406.79 465.73 385.21 431.19 354.68 393.37C354.68 393.37 339.34 400.54 332.29 411.75H332.3Z" fill="black" stroke="black" stroke-width="4" stroke-miterlimit="10" stroke-linecap="round"/>
<path d="M265.8 128.4L252 121.59C251.18 121.38 250.35 121.83 250.06 122.62L248.26 127.97C247.88 129.1 248.4 130.33 249.46 130.85L259.12 137.74C260.2 138.27 261.51 137.91 262.16 136.9L266.46 130.5C266.95 129.75 266.63 128.74 265.8 128.4Z" fill="white" stroke="black" stroke-width="4" stroke-miterlimit="10" stroke-linecap="round"/>
<path d="M22 495.8H478.25" stroke="black" stroke-width="4" stroke-miterlimit="10" stroke-linecap="round"/>
<path d="M449.2 491.5C449.08 489.39 447.66 487.54 445.59 486.83L412.49 474.29H396.22L395.65 495.81H449.44L449.2 491.51V491.5Z" fill="#FF0077" stroke="black" stroke-width="4" stroke-miterlimit="10"/>
<path d="M254.649 348.38C238.869 344.46 230.119 342.09 219.989 339.35C216.349 338.36 212.509 337.32 208.069 336.14C191.239 331.64 176.759 318.23 172.049 302.76C168.949 292.59 170.669 283.05 176.909 275.92C182.309 269.74 189.309 263.42 200.299 263.42C210.209 263.42 222.279 268.69 237.189 279.52C246.469 286.26 264.739 299.88 282.839 315.34L284.389 316.67L255.819 348.68L254.649 348.39V348.38Z" fill="#FF0077" stroke="black" stroke-width="4"/>
<path d="M204.36 358.97C148.82 302.43 124.48 188.45 172.52 170.89C190.44 164.34 225.67 181.92 225.67 181.92L192.85 237.3C192.85 237.3 210.08 257.94 258.35 264.43C306.62 270.92 309.54 267.03 318 268C305.87 267.62 295.66 278.53 267.82 282.69C215.42 290.53 203.46 268.08 181.54 276.38C148.12 289.03 204.28 357.44 204.36 358.97Z" fill="black" stroke="black" stroke-width="4" stroke-miterlimit="10" stroke-linecap="round"/>
<path d="M165.45 159.9L173.39 174.84L174.62 173L176.75 162.7L165.45 159.9Z" fill="black"/>
<path d="M160.92 149.58C160.63 149.58 160.34 149.52 160.08 149.39L158.23 148.53C155.28 147.15 152.54 145.37 150.08 143.23L149.4 142.63C148.85 142.15 148.61 141.42 148.76 140.71C148.91 140 149.44 139.43 150.13 139.22L194.64 125.65C194.83 125.59 195.03 125.56 195.22 125.56C195.7 125.56 196.18 125.74 196.55 126.07C197.07 126.53 197.31 127.24 197.19 127.92L195.44 137.46C195.31 138.18 194.79 138.78 194.09 139L161.53 149.49C161.33 149.55 161.12 149.59 160.92 149.59V149.58Z" fill="#FF0077" stroke="black" stroke-width="4"/>
<path d="M176.77 64.3801L160.74 86.2701" stroke="black" stroke-width="4" stroke-linecap="round" stroke-linejoin="round"/>
<path d="M201.26 64.1799L175.84 98.8999" stroke="black" stroke-width="4" stroke-linecap="round" stroke-linejoin="round"/>
<path d="M153.54 64.1799L192.29 92.3899" stroke="black" stroke-width="4" stroke-linecap="round" stroke-linejoin="round"/>
<path d="M130.69 105.48C130.69 105.48 116.79 105.33 114.25 122.22" stroke="black" stroke-width="4" stroke-miterlimit="10" stroke-linecap="round"/>
<path d="M268.96 132.28L271.22 139.23L264 134.87L267.14 130C267.14 130 268.62 131.27 268.96 132.28Z" fill="black" stroke="black" stroke-width="4" stroke-miterlimit="10" stroke-linecap="round"/>
</svg>
