<svg width="500" height="584" viewBox="0 0 500 584" fill="none" xmlns="http://www.w3.org/2000/svg">
<path d="M387 395C387 303.49 344.392 261 252.5 261C160.619 261 118 303.49 118 395C118 486.51 160.608 529 252.5 529C344.381 529 387 486.51 387 395Z" fill="#FF0077" stroke="black" stroke-width="4"/>
<path d="M252.49 106.28C266.374 106.28 277.63 95.0244 277.63 81.14C277.63 67.2556 266.374 56 252.49 56C238.605 56 227.35 67.2556 227.35 81.14C227.35 95.0244 238.605 106.28 252.49 106.28Z" fill="#FF0077" stroke="black" stroke-width="4"/>
<path d="M248.52 310.15L134.7 250.71C133.65 250.19 135.69 243.14 135.92 242.14C140.59 222.52 153.1 206.25 169.73 195.09C174.84 191.66 180.27 188.7 185.15 184.96C189.81 181.38 195.28 176.27 196.47 170.31C197.87 163.3 195.58 156.31 196.26 149.28C196.88 142.84 200.12 137.01 204.18 132.1C207.99 127.48 213.13 123.8 215.07 117.9C217.79 109.64 220.98 101.29 227.74 95.4599C234.18 89.8999 242.29 86.9899 250.53 86.6799H252.83C261.07 86.9899 269.18 89.8999 275.62 95.4599C282.37 101.29 285.57 109.64 288.29 117.9C290.23 123.8 295.37 127.48 299.18 132.1C303.24 137.01 306.48 142.84 307.1 149.28C307.78 156.31 305.49 163.31 306.89 170.31C308.08 176.28 313.55 181.38 318.21 184.96C323.09 188.71 328.52 191.67 333.63 195.09C350.27 206.25 362.78 222.52 367.44 242.14C367.68 243.14 369.71 250.18 368.66 250.71L254.84 310.15H248.51H248.52Z" fill="#FF0077" stroke="black" stroke-width="4"/>
<path d="M306.489 299.44L312.899 344.72H184.459L194.299 298.98" fill="black"/>
<path d="M306.489 299.44L312.899 344.72H184.459L194.299 298.98" stroke="black" stroke-width="4" stroke-miterlimit="10"/>
<path d="M301.37 280.63L201.93 280.59L194.3 301.69L306.49 302.15L301.37 280.63Z" fill="white" stroke="black" stroke-width="4" stroke-miterlimit="10" stroke-linecap="round"/>
<path d="M295.169 360.96L283.139 342.2L251.919 362.22L220.699 342.2L208.669 360.96L233.439 376.85L240.369 412.05C240.909 414.79 243.319 416.77 246.109 416.77C248.439 416.77 250.439 415.41 251.389 413.45C251.599 413.01 252.239 413.03 252.459 413.47C253.469 415.55 255.659 416.94 258.169 416.76C260.849 416.56 262.999 414.45 263.519 411.81L270.409 376.85L295.179 360.96H295.169Z" fill="white" stroke="black" stroke-width="4" stroke-miterlimit="10" stroke-linecap="round"/>
<path d="M220.689 342.2L223.609 344.08L217.669 366.74L208.659 360.96L220.689 342.2Z" fill="black" stroke="black" stroke-width="4" stroke-miterlimit="10"/>
<path d="M119.859 231.34C99.5794 219.17 73.2794 225.75 61.1094 246.03C48.9394 266.31 55.5194 292.61 75.7994 304.78L199.619 379.07L243.679 305.64L119.859 231.35V231.34Z" fill="black" stroke="black" stroke-width="4" stroke-miterlimit="10"/>
<path d="M282.079 342.88L279.629 344.45L285.889 366.91L294.109 361.64L282.079 342.88Z" fill="black" stroke="black" stroke-width="4" stroke-miterlimit="10"/>
<path d="M383.509 231.34C403.789 219.17 430.089 225.75 442.259 246.03C454.429 266.31 447.849 292.61 427.569 304.78L303.749 379.07L259.689 305.64L383.509 231.35V231.34Z" fill="black" stroke="black" stroke-width="4" stroke-miterlimit="10"/>
<path d="M174.499 192.15C146.509 209.39 135.319 207.95 118.279 236.9" stroke="black" stroke-width="4"/>
<path d="M329.26 192.15C357.25 209.39 368.44 207.95 385.48 236.9" stroke="black" stroke-width="4"/>
<path d="M274.91 335.8L402.03 261.46" stroke="white" stroke-width="4" stroke-miterlimit="10" stroke-linecap="round"/>
<path d="M228.45 335.8L101.34 261.46" stroke="white" stroke-width="4" stroke-miterlimit="10" stroke-linecap="round"/>
<path d="M387.94 366.81C387.72 363.21 386.92 359.68 385.58 356.34L318.59 209.49C313.24 197.75 301.52 190.22 288.63 190.22H268.31V175.7H236.69V190.22H215.45C202.57 190.22 190.87 197.73 185.5 209.44L120.58 351.23C118.33 356.85 117.02 362.8 116.7 368.85L115.18 397.23C115.18 400.43 117.77 403.02 120.97 403.02C132.19 403.02 141.29 393.92 141.29 382.7V378.59L144.93 382.79C146.3 384.37 148.76 384.37 150.13 382.79C151.14 381.62 151.25 379.93 150.4 378.64L141.08 364.52L200.1 258.71L201.95 280.58L215.05 288.44H288.34L301.38 280.62L303.58 257.02L363.46 365.77L353.94 380.18C353.09 381.47 353.2 383.16 354.21 384.33C355.58 385.91 358.04 385.91 359.41 384.33L363.71 379.37V386.45C363.71 395.61 371.13 403.03 380.29 403.03H384.03C387.23 403.03 389.82 400.44 389.82 397.24L387.95 366.82L387.94 366.81Z" fill="white" stroke="black" stroke-width="4" stroke-miterlimit="10" stroke-linecap="round"/>
<path d="M292.42 190.46C291.36 190.34 290.29 190.26 289.21 190.24C289.23 193.59 289.29 197.14 289.43 200.86C289.41 201.14 289.4 201.46 289.4 201.84C289.4 225.24 277.16 240.11 251.76 240.11C226.36 240.11 218.87 222.02 218.24 193.75C218.28 192.58 218.31 191.41 218.34 190.23H215.44C215.34 190.23 215.24 190.24 215.14 190.24C213.49 234.74 200.09 258.73 200.09 258.73L188.81 278.96C188.81 278.96 212.72 305.56 250.4 305.56C289.92 305.56 314.21 276.33 314.21 276.33L303.58 257.03C303.58 257.03 294.12 234.55 292.42 190.46Z" fill="black" stroke="black" stroke-width="4" stroke-miterlimit="10"/>
<path d="M236.119 171.24H267.979L267.859 178.23L238.529 192.08L236.119 171.24Z" fill="black"/>
<path d="M232.18 192.15C232.18 203.23 241.16 212.21 252.24 212.21C263.32 212.21 272.3 203.23 272.3 192.15" stroke="#FF0077" stroke-width="4" stroke-miterlimit="10"/>
<path d="M225.109 140.09V158.08C225.109 170.17 234.909 179.97 246.999 179.97H254.929C267.019 179.97 276.819 170.17 276.819 158.08V140.08C276.819 139 275.989 138.12 274.919 138.02C262.009 136.71 255.219 122.28 252.769 115.66C252.389 114.63 250.949 114.62 250.549 115.64C247.959 122.26 240.749 136.78 227.019 138.03C225.939 138.13 225.109 139.01 225.109 140.09Z" fill="white" stroke="black" stroke-width="4" stroke-miterlimit="10" stroke-linecap="round"/>
<path d="M251.91 362.23V413.47" stroke="black" stroke-width="4" stroke-miterlimit="10" stroke-linecap="round"/>
</svg>
