<svg width="500" height="604" viewBox="0 0 500 604" fill="none" xmlns="http://www.w3.org/2000/svg">
<path fill-rule="evenodd" clip-rule="evenodd" d="M429.127 371.004C429.127 257.444 376.436 204.706 262.829 204.706C149.221 204.706 96.5303 257.444 96.5303 371.004C96.5303 484.564 149.221 537.302 262.829 537.302C376.436 537.302 429.127 484.564 429.127 371.004Z" fill="black"/>
<path d="M105.852 363.412L116.293 372.139C116.934 372.671 116.948 373.501 116.322 373.897C112.574 376.271 100.532 383.017 92.0895 377.733C91.9872 377.672 91.8959 377.598 91.8132 377.518L82.636 368.793C81.7086 367.911 82.4353 366.678 83.7356 366.931C88.6838 367.894 97.0564 368.404 103.954 363.264C104.465 362.886 105.297 362.949 105.854 363.418L105.848 363.416L105.852 363.412Z" fill="white" stroke="black" stroke-width="5" stroke-miterlimit="10"/>
<path d="M209.389 64.0677L236.572 55.4308C238.235 54.8966 239.719 55.8082 239.713 57.3596C239.692 66.6594 238.063 95.5444 219.216 104.523C218.992 104.635 218.759 104.713 218.525 104.77L192.767 111.174C190.163 111.82 188.802 109.148 190.712 107.133C197.986 99.4686 208.313 85.2393 206.99 67.2574C206.897 65.9282 207.946 64.5282 209.402 64.0719L209.391 64.0805L209.389 64.0677Z" fill="white" stroke="black" stroke-width="4" stroke-miterlimit="10"/>
<path d="M215.265 417.137C200.222 413.353 171.477 398.281 165.662 385.125C159.847 371.969 161.428 356.625 169.77 345.259C180.58 330.529 200.506 323.769 219.726 319.528C240.801 314.865 262.468 312.232 283.646 307.9C304.823 303.568 325.796 297.412 343.491 286.433C361.186 275.455 369.437 249.211 325.5 228.714" stroke="white" stroke-width="4"/>
<path d="M415.584 265.497L454.51 274.405C456.895 274.939 458.269 277.421 457.432 279.668C452.394 293.085 434.739 333.556 406.14 331.686C405.809 331.686 405.461 331.608 405.13 331.498L369.203 320.469C365.571 319.353 365.303 314.42 368.793 313.006C382.089 307.664 402.792 295.221 410.83 268.183C411.431 266.188 413.515 264.994 415.6 265.481H415.584V265.497Z" fill="white" stroke="black" stroke-width="4" stroke-miterlimit="10"/>
<path d="M109 540L61.9989 532.269C59.0133 531.782 57.133 528.809 58.0168 525.978C63.2976 508.999 82.2209 457.638 117.707 457.822C118.131 457.814 118.552 457.877 118.961 457.979L164.15 468.956C168.718 470.067 169.407 476.151 165.187 478.151C149.123 485.755 124.427 502.669 116.42 536.702C115.819 539.213 113.337 540.848 110.73 540.4L109 540Z" fill="#FF0077" stroke="black" stroke-width="4" stroke-miterlimit="10"/>
<path d="M256.3 275.246L192.97 237.685C237.183 355.846 226.26 375.805 210.553 423.789C205.802 438.28 186.685 479.907 186.685 479.907C184.31 485.478 186.583 491.926 191.902 494.82C194.289 496.118 197.21 497.485 200.744 498.807H200.551C200.926 498.932 201.313 499.046 201.688 499.16C209.053 501.814 218.929 504.218 231.875 505.323C241.354 506.462 251.503 507.066 262.062 507.009C271.53 506.952 280.656 506.371 289.26 505.346C309.764 503.922 323.152 499.342 331.358 495.195C331.358 495.195 331.358 495.195 331.37 495.195C332.154 494.797 332.893 494.409 333.586 494.022C338.871 491.072 341.065 484.601 338.632 479.053C338.632 479.053 319.038 437.642 314.128 423.208C297.875 375.406 286.544 355.014 329.415 236.353L266.699 275.189" fill="black"/>
<path d="M256.3 275.246L192.97 237.685C237.183 355.846 226.26 375.805 210.553 423.789C205.802 438.28 186.685 479.907 186.685 479.907C184.31 485.478 186.583 491.926 191.902 494.82C194.289 496.118 197.21 497.485 200.744 498.807H200.551C200.926 498.932 201.313 499.046 201.688 499.16C209.053 501.814 218.929 504.218 231.875 505.323C241.354 506.462 251.503 507.066 262.062 507.009C271.53 506.952 280.656 506.371 289.26 505.346C309.764 503.922 323.152 499.342 331.358 495.195C331.358 495.195 331.358 495.195 331.37 495.195C332.154 494.797 332.893 494.409 333.586 494.022C338.871 491.072 341.065 484.601 338.632 479.053C338.632 479.053 319.038 437.642 314.128 423.208C297.875 375.406 286.544 355.014 329.415 236.353L266.699 275.189" stroke="black" stroke-width="4" stroke-linejoin="round"/>
<path d="M321.687 437.232C320.505 435.74 314.675 420.713 314.129 418.082C300.058 421.978 282.874 424.142 264.677 424.245C244.503 424.359 225.568 421.921 210.69 417.364C210.395 420.132 204.462 436.024 204.087 436.776C221.033 442.051 242.366 444.876 264.791 444.739C285.613 444.626 305.446 441.971 321.699 437.221L321.687 437.232Z" fill="white"/>
<path d="M328.982 455.254C327.232 456.075 325.073 457.089 323.038 457.829C307.683 463.457 287.043 466.624 264.914 466.749C242.785 466.875 222.1 463.947 206.688 458.49C202.642 457.066 199.403 455.596 196.8 454.184C194.913 458.422 189.401 470.93 188.412 472.947C191.72 474.644 195.516 476.285 199.88 477.834C217.463 484.054 240.603 487.403 265.028 487.267C289.464 487.13 312.559 483.519 330.062 477.093C332.722 476.114 335.154 475.1 337.404 474.074C336.325 471.58 329.937 459.322 328.982 455.266V455.254Z" fill="white"/>
<path d="M236.239 238.141C235.921 236.273 235.739 234.382 235.682 232.491C235.478 225.826 235.955 219.071 237.967 212.714C239.751 207.075 243.934 201.287 250.48 203.156C256.118 204.762 259.129 211.609 264.221 214.309C265.472 214.969 267.051 215.38 268.267 214.662C269.54 213.899 269.893 212.247 270.006 210.766C270.711 201.424 266.892 190.727 272.746 183.413C277.349 177.648 286.384 177.147 292.942 180.519C299.5 183.891 304.001 190.214 307.661 196.617C310.332 201.276 313.491 206.699 318.81 207.359C321.334 207.667 323.834 207.485 326.346 207.906C335.029 209.364 329.869 224.926 326.971 228.993C319.22 239.861 294.238 241.422 287.703 257.85C285.691 262.919 295.17 260.037 293.124 265.095C291.09 270.153 288.032 275.166 283.179 277.638C278.326 280.11 271.393 279.039 268.836 274.22C267.097 270.928 267.733 266.952 267.506 263.227C267.279 259.502 265.346 255.173 261.653 254.819C260.232 254.683 258.834 255.184 257.447 255.514C244.559 258.636 238.114 249.055 236.262 238.153L236.239 238.141Z" fill="#FF0077" stroke="black" stroke-width="4"/>
<path d="M259.221 181.545C262.824 180.257 266.097 178.07 268.791 174.459C271.178 171.235 279.725 148.222 268.086 143.973C263.87 142.435 248.458 143.153 238.149 146.741C212.963 155.513 192.8 177.01 189.573 208.943C188.868 215.949 189.993 236.467 199.586 236.41C202.154 236.398 204.314 234.302 205.439 232.001C206.564 229.7 206.871 227.079 207.246 224.539C208.621 215.266 211.576 205.81 215.77 197.414C220.464 188.015 227.988 182.684 238.627 183.083C245.628 183.345 252.936 183.812 259.221 181.567V181.545Z" fill="#FF0077" stroke="black" stroke-width="4"/>
<path d="M261.044 283.216C301.053 283.216 333.487 250.622 333.487 210.416C333.487 170.209 301.053 137.616 261.044 137.616C221.035 137.616 188.601 170.209 188.601 210.416C188.601 250.622 221.035 283.216 261.044 283.216Z" fill="black" stroke="white" stroke-width="4" stroke-linejoin="round"/>
<path d="M239.193 229.927C238.905 228.24 238.741 226.531 238.69 224.823C238.505 218.804 238.936 212.702 240.753 206.961C242.365 201.867 246.142 196.64 252.055 198.328C257.147 199.778 259.868 205.963 264.467 208.401C265.596 208.998 267.023 209.368 268.121 208.72C269.271 208.031 269.589 206.539 269.692 205.201C270.328 196.764 266.879 187.102 272.166 180.496C276.323 175.289 284.484 174.837 290.408 177.882C296.331 180.928 300.396 186.639 303.702 192.421C306.114 196.63 308.968 201.528 313.772 202.125C316.051 202.402 318.309 202.238 320.578 202.618C328.421 203.935 323.76 217.991 321.143 221.664C314.142 231.481 291.578 232.89 285.675 247.728C283.858 252.307 292.42 249.704 290.572 254.272C288.734 258.841 285.973 263.368 281.59 265.601C277.206 267.834 270.944 266.867 268.634 262.514C267.064 259.54 267.639 255.949 267.433 252.585C267.228 249.22 265.483 245.31 262.147 244.991C260.863 244.868 259.601 245.32 258.348 245.619C246.707 248.438 240.887 239.784 239.213 229.937L239.193 229.927Z" fill="#FF0077" stroke="black" stroke-width="4"/>
<path d="M259.95 178.808C263.204 177.646 266.16 175.67 268.593 172.408C270.749 169.496 278.469 148.711 267.957 144.873C264.148 143.484 250.228 144.132 240.917 147.374C218.169 155.297 199.958 174.713 197.042 203.555C196.406 209.883 197.422 228.415 206.086 228.363C208.406 228.353 210.357 226.46 211.373 224.381C212.389 222.303 212.667 219.936 213.005 217.641C214.247 209.266 216.916 200.725 220.704 193.142C224.944 184.653 231.74 179.837 241.349 180.198C247.672 180.434 254.273 180.856 259.95 178.829V178.808Z" fill="#FF0077" stroke="black" stroke-width="4"/>
<path d="M192.883 235.039C237.096 353.2 226.26 375.805 210.553 423.789C205.802 438.28 186.685 479.907 186.685 479.907C184.31 485.478 186.583 491.926 191.902 494.82C194.289 496.118 197.21 497.485 200.744 498.807H200.551C200.926 498.932 201.313 499.046 201.688 499.16C209.053 501.814 218.929 504.218 231.875 505.323C241.354 506.462 251.503 507.066 262.062 507.009C271.53 506.952 280.656 506.371 289.26 505.346C309.764 503.922 323.152 499.342 331.358 495.196C331.358 495.196 331.358 495.196 331.37 495.196C332.154 494.797 332.893 494.41 333.586 494.022C338.871 491.072 341.065 484.601 338.632 479.053C338.632 479.053 319.038 437.642 314.128 423.208C297.875 375.406 285.263 356.556 328.135 237.894" stroke="white" stroke-width="4" stroke-linejoin="round"/>
<path d="M297.8 272.153L251.25 228.981C246.601 223.251 238.02 222.829 232.826 228.07C228.507 232.433 228.018 239.291 231.667 244.224L246.942 264.901C266.264 291.046 276.606 329.141 262.32 358.351C253.813 375.742 223.48 409.338 217.473 415.909C216.982 416.447 217.2 417.28 217.9 417.48C225.553 419.663 262.511 428.829 312.579 418.491C312.579 418.491 297.652 381.567 302.083 338.53C307.402 305.629 319.212 264.901 319.212 264.901" fill="white"/>
<path d="M297.8 272.153L251.25 228.981C246.601 223.251 238.02 222.829 232.826 228.07C228.507 232.433 228.018 239.291 231.667 244.224L246.942 264.901C266.264 291.046 276.606 329.141 262.32 358.351C253.813 375.742 223.48 409.338 217.473 415.909C216.982 416.447 217.2 417.28 217.9 417.48C225.553 419.663 262.511 428.829 312.579 418.491C312.579 418.491 297.652 381.567 302.083 338.53C307.402 305.629 319.212 264.901 319.212 264.901" stroke="black" stroke-width="4"/>
<path d="M306.764 274.803C314.868 274.803 321.437 268.219 321.437 260.096C321.437 251.973 314.868 245.389 306.764 245.389C298.66 245.389 292.091 251.973 292.091 260.096C292.091 268.219 298.66 274.803 306.764 274.803Z" fill="white" stroke="black" stroke-width="4"/>
<path d="M316.004 417.397C316.004 417.397 343.482 411.584 381.667 396.699" stroke="white" stroke-width="4" stroke-linecap="round"/>
<path d="M329.204 230.142C329.204 230.142 201.535 170.447 201.535 137.357" stroke="white" stroke-width="4" stroke-linecap="round"/>
<path d="M352.283 143.111L344.565 152.596C344.092 153.181 343.223 153.22 342.721 152.684C339.692 149.478 330.907 139.137 335.29 131.525C335.332 131.434 335.406 131.35 335.477 131.273L343.369 122.891C344.17 122.045 345.571 122.641 345.484 123.792C345.166 128.175 345.8 135.554 352.18 141.428C352.653 141.865 352.695 142.6 352.286 143.104L352.283 143.111Z" fill="black"/>
<path d="M157.285 266.479L175.214 265.12C176.309 265.029 177.236 265.924 177.179 267.011C176.818 273.502 174.671 293.391 162.131 296.416C161.984 296.45 161.826 296.472 161.679 296.472L144.756 296.518C143.05 296.518 142.27 294.422 143.581 293.346C148.574 289.246 155.805 281.091 155.624 268.303C155.624 267.363 156.347 266.558 157.307 266.49L157.285 266.479Z" fill="white"/>
<path d="M285.529 317.155C285.471 316.051 286.727 315.544 287.453 316.219L287.521 316.289C295.368 324.845 310.879 337.138 334.1 335.633L334.101 335.634C334.695 335.597 335.24 336.032 335.322 336.656L339.327 367.682L339.328 367.689C339.422 368.402 338.872 369.007 338.189 369.003H338.188C332.551 368.975 321.152 368.475 310.421 365.365C299.593 362.227 290.108 356.636 287.193 346.893L287.188 346.874L287.181 346.854L287.153 346.738C287.146 346.693 287.14 346.643 287.138 346.588L287.137 346.575V346.562L285.529 317.155Z" fill="white" stroke="black" stroke-width="4"/>
<path d="M166.832 395.724C178.461 395.724 187.887 386.298 187.887 374.669C187.887 363.041 178.461 353.615 166.832 353.615C155.204 353.615 145.777 363.041 145.777 374.669C145.777 386.298 155.204 395.724 166.832 395.724Z" fill="white" stroke="black" stroke-width="4" stroke-linecap="round"/>
<path d="M201.447 140.926C206.572 140.926 210.726 136.612 210.726 131.291C210.726 125.969 206.572 121.655 201.447 121.655C196.323 121.655 192.169 125.969 192.169 131.291C192.169 136.612 196.323 140.926 201.447 140.926Z" fill="#FF0077" stroke="black" stroke-width="4" stroke-miterlimit="10"/>
<path d="M383.794 416.91L361.743 389.591C357.732 384.634 360.62 377.198 366.935 376.228L401.696 370.848C408.011 369.866 413.019 376.079 410.715 382.018L398.005 414.706C395.702 420.645 387.805 421.867 383.794 416.899V416.91Z" fill="#FF0077"/>
<path d="M202.161 140.828C203.589 145.824 206.443 150.82 211.083 155.459" stroke="black" stroke-width="4"/>
</svg>
