<svg width="500" height="524" viewBox="0 0 500 524" fill="none" xmlns="http://www.w3.org/2000/svg">
<path d="M312.698 191.725C354.998 211.481 347.055 236.774 330.019 247.355C312.982 257.936 292.791 263.869 272.402 268.044C252.013 272.219 231.153 274.758 210.863 279.251C192.359 283.339 173.175 289.854 162.767 304.05C154.736 315.005 153.213 329.794 158.812 342.473C164.41 355.153 192.085 369.678 206.568 373.326C235.127 379.014 299.895 387.236 357.497 353.016" stroke="black" stroke-width="4"/>
<path d="M376.789 238.015L403.795 244.245C405.45 244.619 406.403 246.355 405.822 247.926C402.327 257.309 390.079 285.613 370.238 284.306C370.007 284.306 369.766 284.251 369.536 284.174L344.612 276.46C342.092 275.68 341.906 272.23 344.327 271.241C353.552 267.506 367.915 258.804 373.491 239.894C373.908 238.499 375.354 237.664 376.8 238.004H376.789V238.015Z" fill="#FF0077" stroke="black" stroke-width="4" stroke-miterlimit="10"/>
<path d="M159.415 416.474L138.314 459.479C137.032 462.116 133.746 463.039 131.357 461.435C117.027 451.832 74.4965 420.045 84.5102 387.148C84.6197 386.753 84.795 386.379 85.0032 386.028L107.747 347.11C110.048 343.176 115.899 344.22 116.589 348.692C119.207 365.712 128.092 393.323 157.531 410.178C159.7 411.431 160.533 414.188 159.393 416.485V416.463L159.415 416.474Z" fill="white" stroke="black" stroke-width="4" stroke-miterlimit="10"/>
<path d="M246.262 236.268L185.216 200.042C227.834 314.005 217.305 333.255 202.164 379.534C197.585 393.51 179.157 433.658 179.157 433.658C176.867 439.031 179.059 445.25 184.186 448.041C186.487 449.294 189.302 450.612 192.71 451.887H192.523C192.885 452.007 193.257 452.117 193.619 452.227C200.718 454.787 210.239 457.106 222.718 458.171C231.855 459.27 241.638 459.853 251.816 459.798C260.942 459.743 269.74 459.182 278.034 458.193C297.798 456.82 310.704 452.403 318.614 448.404C318.614 448.404 318.614 448.404 318.625 448.404C319.381 448.019 320.093 447.645 320.761 447.272C325.856 444.426 327.97 438.185 325.626 432.834C325.626 432.834 306.738 392.895 302.005 378.974C286.338 332.87 275.415 313.203 316.741 198.757L256.286 236.213" fill="black"/>
<path d="M246.262 236.268L185.216 200.042C227.834 314.005 217.305 333.255 202.164 379.534C197.585 393.51 179.157 433.658 179.157 433.658C176.867 439.031 179.059 445.25 184.186 448.041C186.487 449.294 189.302 450.612 192.71 451.887H192.523C192.885 452.007 193.257 452.117 193.619 452.227C200.718 454.787 210.239 457.106 222.718 458.171C231.855 459.27 241.638 459.853 251.816 459.798C260.942 459.743 269.74 459.182 278.034 458.193C297.798 456.82 310.704 452.403 318.614 448.404C318.614 448.404 318.614 448.404 318.625 448.404C319.381 448.019 320.093 447.645 320.761 447.272C325.856 444.426 327.97 438.185 325.626 432.834C325.626 432.834 306.738 392.895 302.005 378.974C286.338 332.87 275.415 313.203 316.741 198.757L256.286 236.213" stroke="black" stroke-width="4" stroke-linejoin="round"/>
<path d="M309.291 392.499C308.151 391.06 302.531 376.567 302.005 374.029C288.442 377.787 271.877 379.875 254.336 379.973C234.89 380.083 216.637 377.732 202.296 373.337C202.011 376.007 196.292 391.335 195.931 392.06C212.266 397.147 232.83 399.872 254.446 399.74C274.517 399.63 293.635 397.07 309.302 392.488L309.291 392.499Z" fill="white"/>
<path d="M316.324 409.881C314.637 410.673 312.555 411.65 310.594 412.365C295.793 417.792 275.897 420.847 254.566 420.968C233.235 421.089 213.295 418.265 198.439 413.002C194.539 411.628 191.417 410.211 188.908 408.849C187.089 412.936 181.775 425 180.822 426.945C184.01 428.582 187.67 430.164 191.877 431.659C208.825 437.658 231.131 440.888 254.676 440.756C278.231 440.624 300.493 437.141 317.365 430.944C319.929 430 322.273 429.022 324.442 428.033C323.402 425.627 317.244 413.804 316.324 409.892V409.881Z" fill="white"/>
<path d="M250.742 247.387C288.88 247.387 319.797 216.381 319.797 178.133C319.797 139.885 288.88 108.879 250.742 108.879C212.604 108.879 181.688 139.885 181.688 178.133C181.688 216.381 212.604 247.387 250.742 247.387Z" fill="black" stroke="black" stroke-width="4" stroke-linejoin="round"/>
<path d="M226.924 200.482C226.618 198.68 226.442 196.856 226.388 195.032C226.19 188.604 226.651 182.089 228.59 175.958C230.31 170.519 234.342 164.937 240.652 166.739C246.086 168.288 248.99 174.892 253.898 177.496C255.103 178.133 256.626 178.529 257.798 177.837C259.025 177.1 259.365 175.507 259.474 174.079C260.154 165.069 256.472 154.752 262.115 147.698C266.552 142.138 275.262 141.655 281.583 144.907C287.905 148.159 292.243 154.257 295.771 160.432C298.346 164.926 301.391 170.156 306.519 170.794C308.951 171.09 311.361 170.914 313.782 171.321C322.153 172.727 317.179 187.736 314.385 191.659C306.913 202.141 282.832 203.646 276.532 219.49C274.593 224.38 283.73 221.6 281.758 226.478C279.797 231.357 276.85 236.191 272.172 238.575C267.494 240.96 260.811 239.927 258.346 235.279C256.67 232.104 257.283 228.269 257.064 224.676C256.845 221.083 254.982 216.908 251.422 216.567C250.052 216.436 248.705 216.919 247.368 217.238C234.944 220.248 228.732 211.008 226.946 200.493L226.924 200.482Z" fill="#FF0077" stroke="black" stroke-width="4"/>
<path d="M249.077 145.896C252.55 144.655 255.705 142.545 258.302 139.062C260.602 135.952 268.841 113.758 257.622 109.659C253.558 108.176 238.702 108.868 228.765 112.329C204.487 120.79 185.051 141.523 181.939 172.321C181.26 179.078 182.345 198.867 191.592 198.812C194.068 198.801 196.149 196.779 197.234 194.56C198.318 192.34 198.614 189.813 198.976 187.363C200.301 178.419 203.15 169.299 207.193 161.202C211.717 152.137 218.97 146.995 229.225 147.379C235.974 147.632 243.018 148.083 249.077 145.918V145.896Z" fill="#FF0077" stroke="black" stroke-width="4"/>
<path d="M185.216 200.042C227.834 314.005 217.305 333.255 202.164 379.534C197.585 393.51 179.157 433.658 179.157 433.658C176.867 439.031 179.059 445.25 184.186 448.041C186.487 449.294 189.302 450.612 192.71 451.887H192.523C192.885 452.007 193.257 452.117 193.619 452.227C200.718 454.787 210.239 457.106 222.718 458.171C231.855 459.27 241.638 459.853 251.816 459.798C260.942 459.743 269.74 459.182 278.034 458.193C297.798 456.82 310.704 452.403 318.614 448.404C318.614 448.404 318.614 448.404 318.625 448.404C319.381 448.019 320.093 447.645 320.761 447.272C325.856 444.426 327.97 438.185 325.626 432.834C325.626 432.834 306.738 392.895 302.005 378.974C286.338 332.87 275.415 313.203 316.741 198.757" stroke="black" stroke-width="4" stroke-linejoin="round"/>
<path d="M278.296 235.301L241.32 191.648C236.84 186.121 228.568 185.715 223.561 190.769C219.398 194.977 218.927 201.592 222.444 206.349L237.168 226.291C255.793 251.508 265.763 288.25 251.991 316.422C242.876 335.068 223.452 353.384 206.558 373.304C206.558 373.304 246.086 385.654 300.438 374.425C300.438 374.425 282.887 335.122 289.088 296.754C294.215 265.022 304.043 235.971 304.043 235.971" fill="white"/>
<path d="M278.296 235.301L241.32 191.648C236.84 186.121 228.568 185.715 223.561 190.769C219.398 194.977 218.927 201.592 222.444 206.349L237.168 226.291C255.793 251.508 265.763 288.25 251.991 316.422C242.876 335.068 223.452 353.384 206.558 373.304C206.558 373.304 246.086 385.654 300.438 374.425C300.438 374.425 282.887 335.122 289.088 296.754C294.215 265.022 304.043 235.971 304.043 235.971" stroke="black" stroke-width="4"/>
<path d="M289.044 240.267C296.856 240.267 303.188 233.917 303.188 226.083C303.188 218.248 296.856 211.898 289.044 211.898C281.233 211.898 274.9 218.248 274.9 226.083C274.9 233.917 281.233 240.267 289.044 240.267Z" fill="white" stroke="black" stroke-width="4"/>
<path d="M316.696 192.593C316.696 192.593 189.718 145.599 193.553 102.957" stroke="black" stroke-width="4" stroke-linecap="round"/>
<path d="M387.601 134.652L366.963 160.028C365.699 161.591 363.377 161.695 362.033 160.261C353.935 151.686 330.446 124.021 342.163 103.655C342.278 103.413 342.475 103.189 342.664 102.982L363.767 80.5582C365.907 78.2958 369.653 79.8902 369.422 82.9673C368.571 94.6949 370.266 114.435 387.324 130.151C388.589 131.319 388.703 133.285 387.609 134.633L387.601 134.652Z" fill="black"/>
<path d="M150.617 227.621L168.004 226.303C169.066 226.215 169.965 227.083 169.91 228.138C169.56 234.434 167.478 253.728 155.317 256.661C155.174 256.694 155.021 256.716 154.879 256.716L138.467 256.76C136.813 256.76 136.057 254.727 137.327 253.684C142.17 249.706 149.182 241.795 149.006 229.39C149.006 228.478 149.708 227.698 150.639 227.632L150.617 227.621Z" fill="black"/>
<path d="M317.858 321.322L321.682 351.351C321.923 353.197 320.51 354.823 318.691 354.812C307.801 354.757 274.342 352.867 268.196 332.035C268.119 331.793 268.075 331.53 268.064 331.266L266.53 302.808C266.377 299.93 269.828 298.435 271.745 300.556C279.031 308.61 293.317 320.059 314.681 318.652C316.259 318.553 317.65 319.718 317.858 321.322Z" fill="black"/>
<path d="M159.952 352.757C171.122 352.757 180.176 343.676 180.176 332.475C180.176 321.273 171.122 312.192 159.952 312.192C148.782 312.192 139.728 321.273 139.728 332.475C139.728 343.676 148.782 352.757 159.952 352.757Z" fill="#FF0077" stroke="black" stroke-width="4" stroke-linecap="round"/>
<path d="M193.378 106.385C198.376 106.385 202.427 102.322 202.427 97.3093C202.427 92.297 198.376 88.2336 193.378 88.2336C188.38 88.2336 184.328 92.297 184.328 97.3093C184.328 102.322 188.38 106.385 193.378 106.385Z" fill="#FF0077" stroke="black" stroke-width="4" stroke-miterlimit="10"/>
<path d="M365.491 368.161L344.412 341.879C340.577 337.11 343.338 329.957 349.375 329.023L382.604 323.848C388.64 322.903 393.428 328.881 391.226 334.594L379.076 366.04C376.874 371.754 369.325 372.929 365.491 368.15V368.161Z" fill="black"/>
</svg>
