<svg width="448" height="340" viewBox="0 0 448 340" fill="none" xmlns="http://www.w3.org/2000/svg">
<path d="M218.723 41H42.8752C40.1827 41 38 43.1872 38 45.8852V197.778C38 200.476 40.1827 202.663 42.8752 202.663H218.723C221.415 202.663 223.598 200.476 223.598 197.778V45.8852C223.598 43.1872 221.415 41 218.723 41Z" fill="white" stroke="black" stroke-width="4" stroke-miterlimit="10"/>
<path d="M44.8374 41H216.761C220.539 41 223.598 44.0655 223.598 47.8515V66.2564H38V47.8515C38 44.0655 41.0592 41 44.8374 41Z" fill="black"/>
<path d="M50.5048 58.8799C53.9714 58.8799 56.7816 56.0639 56.7816 52.5902C56.7816 49.1165 53.9714 46.3005 50.5048 46.3005C47.0382 46.3005 44.228 49.1165 44.228 52.5902C44.228 56.0639 47.0382 58.8799 50.5048 58.8799Z" fill="#FF0077"/>
<path d="M68.787 58.8799C72.2536 58.8799 75.0638 56.0639 75.0638 52.5902C75.0638 49.1165 72.2536 46.3005 68.787 46.3005C65.3205 46.3005 62.5103 49.1165 62.5103 52.5902C62.5103 56.0639 65.3205 58.8799 68.787 58.8799Z" fill="white"/>
<path d="M96.112 84.1851H63.3874C61.5497 84.1851 60.0601 85.6778 60.0601 87.5192V105.582C60.0601 107.424 61.5497 108.916 63.3874 108.916H96.112C97.9496 108.916 99.4393 107.424 99.4393 105.582V87.5192C99.4393 85.6778 97.9496 84.1851 96.112 84.1851Z" fill="#FF0077" stroke="black" stroke-width="4" stroke-miterlimit="10"/>
<path d="M137.393 120.97H63.3874C61.5497 120.97 60.0601 122.463 60.0601 124.305V142.368C60.0601 144.209 61.5497 145.702 63.3874 145.702H137.393C139.23 145.702 140.72 144.209 140.72 142.368V124.305C140.72 122.463 139.23 120.97 137.393 120.97Z" fill="#FF0077" stroke="black" stroke-width="4" stroke-miterlimit="10"/>
<path d="M123.681 157.768H63.3874C61.5497 157.768 60.0601 159.261 60.0601 161.102V179.165C60.0601 181.007 61.5497 182.499 63.3874 182.499H123.681C125.519 182.499 127.008 181.007 127.008 179.165V161.102C127.008 159.261 125.519 157.768 123.681 157.768Z" fill="#FF0077" stroke="black" stroke-width="4" stroke-miterlimit="10"/>
<path d="M132.396 220.176H42.8752C40.1827 220.176 38 222.363 38 225.061V304.946C38 307.644 40.1827 309.832 42.8752 309.832H132.396C135.088 309.832 137.271 307.644 137.271 304.946V225.061C137.271 222.363 135.088 220.176 132.396 220.176Z" fill="white" stroke="black" stroke-width="4"/>
<path d="M87.5807 265.914L114.711 274.743C109.848 289.753 93.7478 297.973 78.7688 293.087C63.7899 288.214 55.5874 272.081 60.4625 257.071C64.3627 245.066 74.9906 237.323 87.5929 237.323V265.901L87.5807 265.914Z" fill="black" stroke="black" stroke-width="4"/>
<path d="M87.5806 265.913L114.711 257.083C116.661 263.092 116.661 268.747 114.711 274.743L87.5806 265.913Z" fill="white" stroke="black" stroke-width="4"/>
<path d="M87.5806 265.914V237.335C100.183 237.335 110.811 245.078 114.711 257.084L87.5806 265.914Z" fill="#FF0077" stroke="black" stroke-width="4"/>
<path d="M87.6055 277.784C94.1415 277.784 99.44 272.475 99.44 265.926C99.44 259.376 94.1415 254.067 87.6055 254.067C81.0695 254.067 75.771 259.376 75.771 265.926C75.771 272.475 81.0695 277.784 87.6055 277.784Z" fill="white" stroke="black" stroke-width="4"/>
<path d="M384.089 79.874H159.612C156.919 79.874 154.736 82.0612 154.736 84.7592V279.018C154.736 281.716 156.919 283.904 159.612 283.904H384.089C386.782 283.904 388.964 281.716 388.964 279.018V84.7592C388.964 82.0612 386.782 79.874 384.089 79.874Z" fill="black"/>
<path d="M218.614 193.76C241.637 210.003 260.552 251.674 281.113 250.965C298.481 250.367 309.975 232.145 327.94 227.284C319.091 217.868 329.146 181.657 300.931 184.258C284.782 185.748 281.455 196.422 265.464 195.189C239.187 193.174 244.964 143.247 218.09 141.879C195.14 140.707 202.367 173.84 196.407 188.386C202.867 187.14 210.472 188.02 218.614 193.76Z" fill="#FF0077" stroke="black" stroke-width="4"/>
<path d="M354.058 231.803C347.586 226.026 339.347 222.118 329.317 222.717C323.162 223.083 317.056 226.588 312.229 229.593C303.198 235.223 293.106 245.726 281.113 246.141C260.552 246.85 241.637 205.179 218.614 188.936C210.484 183.196 202.867 182.316 196.407 183.562C184.585 185.846 176.675 195.286 176.675 195.286V259.502C176.675 263.044 180.014 265.914 184.146 265.914H359.116C365.929 265.914 370.658 259.111 368.294 252.712C367.684 251.051 367.221 249.817 367.075 249.524C364.065 243.357 359.738 236.859 354.058 231.803Z" fill="white" stroke="black" stroke-width="4"/>
<path d="M169.423 100.099C172.889 100.099 175.7 97.2826 175.7 93.809C175.7 90.3353 172.889 87.5193 169.423 87.5193C165.956 87.5193 163.146 90.3353 163.146 93.809C163.146 97.2826 165.956 100.099 169.423 100.099Z" fill="#FF0077"/>
<path d="M187.705 100.099C191.172 100.099 193.982 97.2826 193.982 93.809C193.982 90.3353 191.172 87.5193 187.705 87.5193C184.238 87.5193 181.428 90.3353 181.428 93.809C181.428 97.2826 184.238 100.099 187.705 100.099Z" fill="white"/>
</svg>
