<svg width="448" height="340" viewBox="0 0 448 340" fill="none" xmlns="http://www.w3.org/2000/svg">
<path d="M408.787 39H154.593C151.774 39 149.489 41.2836 149.489 44.1006V237.847C149.489 240.664 151.774 242.948 154.593 242.948H408.787C411.606 242.948 413.891 240.664 413.891 237.847V44.1006C413.891 41.2836 411.606 39 408.787 39Z" fill="white" stroke="black" stroke-width="4"/>
<path d="M413.891 67.8313H147.806V44.7638C147.806 41.7162 150.281 39.2551 153.317 39.2551H413.419L413.879 67.8313H413.891Z" fill="black"/>
<path d="M159.378 58.2802C162.478 58.2802 164.991 55.7682 164.991 52.6695C164.991 49.5708 162.478 47.0588 159.378 47.0588C156.277 47.0588 153.764 49.5708 153.764 52.6695C153.764 55.7682 156.277 58.2802 159.378 58.2802Z" fill="#FF0077"/>
<path d="M175.735 58.2802C178.835 58.2802 181.349 55.7682 181.349 52.6695C181.349 49.5708 178.835 47.0588 175.735 47.0588C172.635 47.0588 170.121 49.5708 170.121 52.6695C170.121 55.7682 172.635 58.2802 175.735 58.2802Z" fill="white"/>
<path d="M381.905 91.6895H179.805C174.654 91.6895 170.479 95.8628 170.479 101.011V105.423C170.479 110.571 174.654 114.744 179.805 114.744H381.905C387.056 114.744 391.232 110.571 391.232 105.423V101.011C391.232 95.8628 387.056 91.6895 381.905 91.6895Z" fill="#FF0077" stroke="black" stroke-width="4" stroke-linecap="round"/>
<path d="M173.885 151.201H392.903" stroke="black" stroke-width="4" stroke-miterlimit="10" stroke-linecap="round"/>
<path d="M173.885 187.683H392.903" stroke="black" stroke-width="4" stroke-miterlimit="10" stroke-linecap="round"/>
<path d="M344.547 91.6128V208.404" stroke="black" stroke-width="4" stroke-miterlimit="10" stroke-linecap="round"/>
<path d="M278.687 93.1814V209.985" stroke="black" stroke-width="4" stroke-miterlimit="10" stroke-linecap="round"/>
<path d="M217.163 91.6128V208.404" stroke="black" stroke-width="4" stroke-miterlimit="10" stroke-linecap="round"/>
<path d="M170.606 223.553H115.871C109.945 223.553 105.141 228.355 105.141 234.277C105.141 240.2 109.945 245.001 115.871 245.001H170.606C176.532 245.001 181.336 240.2 181.336 234.277C181.336 228.355 176.532 223.553 170.606 223.553Z" fill="black"/>
<path d="M64.7712 192.835C70.3468 167.625 95.3159 151.711 120.54 157.284L125.401 135.313C88.0434 127.05 51.0555 150.627 42.7878 187.976C34.52 225.313 58.1111 262.28 95.4818 270.543L100.343 248.572C75.1187 242.999 59.1956 218.045 64.7712 192.835Z" fill="black"/>
<path d="M41.8696 301.924H131.054V244.427C131.054 228.245 117.823 214.295 101.632 214.27C97.6385 214.27 93.8363 215.048 90.3532 216.476C85.1093 218.631 80.7713 222.533 77.6836 227.276L36.1153 291.327C33.1553 295.892 36.4343 301.924 41.8696 301.924Z" fill="white" stroke="black" stroke-width="4"/>
<path d="M137.052 82.765L86.4655 101.818C84.2237 102.663 83.0912 105.164 83.9361 107.404L113.106 184.761C113.951 187.002 116.454 188.134 118.696 187.289L169.282 168.236C171.523 167.391 172.656 164.89 171.811 162.65L142.641 85.293C141.796 83.0524 139.293 81.9205 137.052 82.765Z" fill="black"/>
<path d="M166.205 184.151L131.565 197.196C129.74 197.884 127.699 196.954 127.01 195.13L92.8926 103.51L134.129 87.979L168.259 179.624C168.935 181.448 168.017 183.462 166.192 184.151H166.205Z" fill="black"/>
<path d="M101.569 252.41C106.36 252.41 110.245 248.528 110.245 243.739C110.245 238.95 106.36 235.068 101.569 235.068C96.777 235.068 92.8926 238.95 92.8926 243.739C92.8926 248.528 96.777 252.41 101.569 252.41Z" stroke="black" stroke-width="4"/>
<path d="M101.198 164.832C111.873 164.832 120.527 156.183 120.527 145.514C120.527 134.844 111.873 126.195 101.198 126.195C90.5223 126.195 81.8682 134.844 81.8682 145.514C81.8682 156.183 90.5223 164.832 101.198 164.832Z" fill="white" stroke="black" stroke-width="4"/>
<path d="M126.576 62.667L80.4912 80.0218L84.6123 90.9499C88.0572 89.6492 91.9104 91.3962 93.199 94.8391L95.5211 100.985L129.128 88.3231L126.806 82.1768C125.504 78.7339 127.252 74.883 130.697 73.595L126.576 62.667Z" fill="#FF0077" stroke="black" stroke-width="4" stroke-linecap="round"/>
<path d="M131.054 301.924H210.159" stroke="black" stroke-width="4" stroke-linecap="round"/>
<path d="M171.492 219H139.508C137.018 219 135 221.141 135 223.781V224.219C135 226.859 137.018 229 139.508 229H171.492C173.982 229 176 226.859 176 224.219V223.781C176 221.141 173.982 219 171.492 219Z" fill="white" stroke="black" stroke-width="4"/>
</svg>
