<svg width="448" height="340" viewBox="0 0 448 340" fill="none" xmlns="http://www.w3.org/2000/svg">
<path d="M385.136 61.7209H75.3357C70.9057 61.7209 67.3057 65.321 67.3057 69.751V257.361C67.3057 261.791 70.9057 265.391 75.3357 265.391H385.136C389.566 265.391 393.166 261.791 393.166 257.361V69.751C393.166 65.321 389.566 61.7209 385.136 61.7209Z" fill="black"/>
<path d="M75.5653 66.3511H384.925C386.955 66.3511 388.595 68.0011 388.595 70.0211V249.971H71.8853V70.0311C71.8853 68.0011 73.5353 66.3611 75.5553 66.3611L75.5653 66.3511Z" fill="black"/>
<path d="M251.885 273.721V277.291C251.885 279.201 250.175 280.761 248.065 280.761H212.405C210.295 280.761 208.585 279.211 208.585 277.291V273.721H53.5355C52.3455 273.721 51.3755 274.691 51.3755 275.881V287.091C51.3755 291.461 55.2855 295.011 60.0955 295.011H400.365C405.185 295.011 409.085 291.471 409.085 287.091V275.881C409.085 274.691 408.116 273.721 406.926 273.721H251.865H251.885Z" fill="black"/>
<path d="M401.905 223.431L416.975 238.971C417.615 239.651 417.955 240.541 417.925 241.471C417.895 242.391 417.505 243.281 416.845 243.921L411.645 249.031C410.965 249.661 410.085 249.991 409.165 249.981C408.245 249.961 407.365 249.591 406.715 248.941L391.695 233.391L381.045 245.211C379.135 247.331 375.635 246.571 374.785 243.841L359.395 194.241C359.215 193.611 359.205 192.951 359.375 192.321C359.545 191.691 359.875 191.121 360.355 190.661C360.835 190.211 361.415 189.901 362.055 189.761C362.695 189.621 363.355 189.661 363.975 189.871L412.535 207.251C415.205 208.211 415.845 211.711 413.665 213.541L401.915 223.431H401.905Z" fill="white" stroke="black" stroke-width="4" stroke-linecap="round" stroke-linejoin="round"/>
<mask id="mask0_6454_1163" style="mask-type:luminance" maskUnits="userSpaceOnUse" x="131" y="134" width="199" height="61">
<path d="M329.266 134.211H131.206V194.641H329.266V134.211Z" fill="white"/>
</mask>
<g mask="url(#mask0_6454_1163)">
<mask id="mask1_6454_1163" style="mask-type:luminance" maskUnits="userSpaceOnUse" x="131" y="134" width="199" height="61">
<path d="M329.266 134.211H131.206V194.641H329.266V134.211Z" fill="white"/>
</mask>
<g mask="url(#mask1_6454_1163)">
<path fill-rule="evenodd" clip-rule="evenodd" d="M329.265 180.461C329.265 171.421 325.075 167.221 316.025 167.221C306.975 167.221 302.785 171.421 302.785 180.461C302.785 189.501 306.975 193.701 316.025 193.701C325.075 193.701 329.265 189.501 329.265 180.461Z" fill="#FF0077"/>
<path d="M296.215 135.461H283.065V193.381H296.215V135.461Z" fill="white"/>
<path fill-rule="evenodd" clip-rule="evenodd" d="M259.475 193.391H244.425L233.235 154.771L221.935 193.391H207.015L189.135 135.461H203.915L203.985 135.701L214.585 174.801L225.625 135.461H240.885L252.215 174.911L262.845 135.461H277.425L259.475 193.391Z" fill="white"/>
<path fill-rule="evenodd" clip-rule="evenodd" d="M159.265 194.641C150.765 194.641 143.885 191.921 138.815 186.561C133.765 181.131 131.215 173.771 131.215 164.661C131.215 155.551 133.975 148.251 139.415 142.671C144.875 137.061 152.125 134.211 160.945 134.211C172.375 134.211 181.485 139.351 186.595 148.671L187.085 149.561L177.345 157.491L176.605 156.371C172.705 150.421 167.415 147.411 160.875 147.411C155.925 147.411 151.955 148.971 149.075 152.061C146.135 155.211 144.705 159.311 144.705 164.591C144.705 169.871 146.115 173.931 148.885 176.891C151.685 179.871 155.525 181.381 160.295 181.381C165.825 181.381 170.775 178.701 174.295 173.821H161.215V161.341H188.825V193.551H177.765V186.241C175.625 188.841 173.035 190.881 170.065 192.301C166.815 193.861 163.185 194.651 159.275 194.651" fill="white"/>
</g>
</g>
<path fill-rule="evenodd" clip-rule="evenodd" d="M58.8354 185.761C49.9654 183.981 40.6954 187.181 35.1554 194.331C32.6554 197.571 30.9354 201.311 30.2854 205.371C28.6854 215.441 34.0054 224.671 41.4454 231.061C53.9054 241.761 72.5254 245.971 88.0754 247.281C89.0754 247.361 90.0454 246.981 90.7154 246.231C101.135 234.621 111.815 218.791 113.555 202.461C114.595 192.711 112.135 182.331 104.065 176.101C100.815 173.591 96.9854 172.041 92.9454 171.401C84.0154 169.991 75.0854 174.011 69.8454 181.381L65.7554 187.131L58.8354 185.741V185.761Z" fill="#FF0077" stroke="black" stroke-width="4" stroke-miterlimit="10"/>
<path d="M374.235 132.471C398.21 132.471 417.645 113.036 417.645 89.0609C417.645 65.0862 398.21 45.6509 374.235 45.6509C350.261 45.6509 330.825 65.0862 330.825 89.0609C330.825 113.036 350.261 132.471 374.235 132.471Z" fill="white" stroke="black" stroke-width="4"/>
<path d="M374.235 89.0609L337.835 65.4109C333.265 72.4509 330.825 80.6709 330.825 89.0609C330.825 112.871 350.425 132.471 374.235 132.471C398.045 132.471 417.645 112.871 417.645 89.0609C417.645 65.2509 398.045 45.6509 374.235 45.6509C374.145 45.6509 374.055 45.6509 373.965 45.6509L374.235 89.0609Z" fill="#FF0077" stroke="black" stroke-width="4"/>
<path d="M374.235 107.551C384.447 107.551 392.725 99.2725 392.725 89.0608C392.725 78.8491 384.447 70.5708 374.235 70.5708C364.023 70.5708 355.745 78.8491 355.745 89.0608C355.745 99.2725 364.023 107.551 374.235 107.551Z" fill="black"/>
</svg>
