<svg width="448" height="340" viewBox="0 0 448 340" fill="none" xmlns="http://www.w3.org/2000/svg">
<path d="M405.135 44H150.249C147.567 44 145.393 46.1716 145.393 48.8505V188.836C145.393 191.515 147.567 193.687 150.249 193.687H405.135C407.817 193.687 409.992 191.515 409.992 188.836V48.8505C409.992 46.1716 407.817 44 405.135 44Z" fill="#FF0077" stroke="black" stroke-width="4"/>
<path d="M408.874 66.5792H146.691V44.5942H408.534L408.874 66.5792Z" fill="black"/>
<path d="M155.616 59.2306C158.003 59.2306 159.938 57.2978 159.938 54.9136C159.938 52.5294 158.003 50.5967 155.616 50.5967C153.228 50.5967 151.293 52.5294 151.293 54.9136C151.293 57.2978 153.228 59.2306 155.616 59.2306Z" fill="#FF0077"/>
<path d="M168.196 59.2306C170.583 59.2306 172.518 57.2978 172.518 54.9136C172.518 52.5294 170.583 50.5967 168.196 50.5967C165.808 50.5967 163.873 52.5294 163.873 54.9136C163.873 57.2978 165.808 59.2306 168.196 59.2306Z" fill="white"/>
<path d="M424.137 91.5837C418.721 92.0809 413.865 95.4642 410.538 99.769C407.211 104.074 405.219 109.24 403.58 114.43C401.14 122.142 399.695 131.14 394.389 137.542C388.391 144.782 378.665 145.049 371.501 139.264C360.901 130.703 359.65 113.314 346.889 107.19C340.393 104.074 333.108 105.541 327.79 110.234C323.079 114.381 320.055 120.008 315.526 124.337C313.875 125.913 298.017 138.816 272.641 127.393" stroke="black" stroke-width="4" stroke-miterlimit="10"/>
<path d="M367.482 142.514C364.192 142.514 361.521 139.846 361.521 136.572C361.521 133.298 364.192 130.618 367.482 130.618C370.773 130.618 373.444 133.286 373.444 136.572C373.444 139.858 370.773 142.514 367.482 142.514Z" fill="white"/>
<path d="M367.482 132.437C369.765 132.437 371.623 134.28 371.623 136.572C371.623 138.864 369.777 140.707 367.482 140.707C365.187 140.707 363.342 138.864 363.342 136.572C363.342 134.28 365.187 132.437 367.482 132.437ZM367.482 128.799C363.196 128.799 359.699 132.28 359.699 136.572C359.699 140.865 363.184 144.345 367.482 144.345C371.781 144.345 375.265 140.865 375.265 136.572C375.265 132.28 371.781 128.799 367.482 128.799Z" fill="black"/>
<path d="M424.441 98.8717C421.162 98.8717 418.491 96.2039 418.491 92.9177C418.491 89.6315 421.162 86.9758 424.441 86.9758C427.719 86.9758 430.403 89.6436 430.403 92.9177C430.403 96.1918 427.731 98.8717 424.441 98.8717Z" fill="white"/>
<path d="M424.44 88.7946C426.723 88.7946 428.581 90.6378 428.581 92.9297C428.581 95.2216 426.735 97.0526 424.44 97.0526C422.145 97.0526 420.3 95.2094 420.3 92.9297C420.3 90.6499 422.145 88.7946 424.44 88.7946ZM424.44 85.1567C420.154 85.1567 416.657 88.637 416.657 92.9297C416.657 97.2224 420.142 100.691 424.44 100.691C428.739 100.691 432.223 97.2103 432.223 92.9297C432.223 88.6491 428.739 85.1567 424.44 85.1567Z" fill="black"/>
<path d="M313.643 130.206C310.353 130.206 307.682 127.538 307.682 124.252C307.682 120.966 310.353 118.31 313.643 118.31C316.934 118.31 319.593 120.978 319.593 124.252C319.593 127.526 316.922 130.206 313.643 130.206Z" fill="white"/>
<path d="M313.644 120.129C315.927 120.129 317.784 121.972 317.784 124.264C317.784 126.556 315.939 128.399 313.644 128.399C311.349 128.399 309.516 126.556 309.516 124.264C309.516 121.972 311.361 120.129 313.644 120.129ZM313.644 116.491C309.358 116.491 305.873 119.971 305.873 124.264C305.873 128.557 309.358 132.037 313.644 132.037C317.93 132.037 321.427 128.557 321.427 124.264C321.427 119.971 317.942 116.491 313.644 116.491Z" fill="black"/>
<path d="M384.735 163.638H291.205C288.449 163.638 286.215 165.712 286.215 168.27V278.268C286.215 280.827 288.449 282.9 291.205 282.9H384.735C387.492 282.9 389.726 280.827 389.726 278.268V168.27C389.726 165.712 387.492 163.638 384.735 163.638Z" fill="white" stroke="black" stroke-width="4"/>
<path d="M333.898 183.307H309.274C307.443 183.307 305.959 184.789 305.959 186.617V200.102C305.959 201.93 307.443 203.412 309.274 203.412H333.898C335.729 203.412 337.213 201.93 337.213 200.102V186.617C337.213 184.789 335.729 183.307 333.898 183.307Z" fill="#FF0077" stroke="black" stroke-width="4" stroke-miterlimit="10"/>
<path d="M366.657 213.222H309.274C307.443 213.222 305.959 214.704 305.959 216.533V230.017C305.959 231.845 307.443 233.328 309.274 233.328H366.657C368.488 233.328 369.972 231.845 369.972 230.017V216.533C369.972 214.704 368.488 213.222 366.657 213.222Z" fill="#FF0077" stroke="black" stroke-width="4" stroke-miterlimit="10"/>
<path d="M348.82 243.138H309.274C307.443 243.138 305.959 244.62 305.959 246.448V259.933C305.959 261.761 307.443 263.243 309.274 263.243H348.82C350.651 263.243 352.135 261.761 352.135 259.933V246.448C352.135 244.62 350.651 243.138 348.82 243.138Z" fill="#FF0077" stroke="black" stroke-width="4" stroke-miterlimit="10"/>
<mask id="mask0_6341_164" style="mask-type:luminance" maskUnits="userSpaceOnUse" x="26" y="50" width="262" height="247">
<path d="M26.0121 50.8755H287.758V296.748H37.2192C31.0268 296.748 26 291.728 26 285.543V50.8755H26.0121Z" fill="white"/>
</mask>
<g mask="url(#mask0_6341_164)">
<path d="M153.661 175.146L204.439 131.952C207.183 129.612 207.985 125.707 206.37 122.493C204.293 118.346 199.072 116.903 195.151 119.389L112.621 171.847C105.008 176.225 98.7428 182.603 94.4931 190.279L25.6113 314.792L61.3575 309.093L107.886 301.671L135.084 242.738" fill="white"/>
<path d="M153.661 175.146L204.439 131.952C207.183 129.612 207.985 125.707 206.37 122.493C204.293 118.346 199.072 116.903 195.151 119.389L112.621 171.847C105.008 176.225 98.7428 182.603 94.4931 190.279L25.6113 314.792L61.3575 309.093L107.886 301.671L135.084 242.738" stroke="black" stroke-width="4"/>
<path d="M125.844 249.225C123.792 249.225 121.813 248.364 120.429 246.848L119.822 246.181C118.486 244.738 117.806 242.859 117.879 240.907C117.964 238.942 118.802 237.135 120.247 235.801L156.515 202.442C157.875 201.193 159.648 200.502 161.506 200.502C163.558 200.502 165.525 201.363 166.921 202.866L167.528 203.533C168.864 204.976 169.544 206.856 169.471 208.808C169.398 210.761 168.548 212.579 167.103 213.913L130.835 247.273C129.475 248.522 127.702 249.213 125.857 249.213L125.844 249.225Z" fill="white"/>
<path d="M161.505 202.321C162.999 202.321 164.492 202.915 165.585 204.103L166.192 204.77C168.269 207.014 168.123 210.518 165.864 212.58L129.596 245.939C128.528 246.921 127.192 247.406 125.844 247.406C124.351 247.406 122.857 246.812 121.765 245.624L121.157 244.957C119.081 242.713 119.227 239.209 121.485 237.147L157.754 203.788C158.822 202.806 160.158 202.321 161.505 202.321ZM161.505 198.683C159.198 198.683 156.989 199.544 155.289 201.108L119.021 234.468C117.211 236.129 116.167 238.384 116.07 240.834C115.973 243.283 116.823 245.624 118.486 247.418L119.093 248.085C120.83 249.965 123.294 251.044 125.844 251.044C128.151 251.044 130.361 250.183 132.061 248.619L168.329 215.259C170.138 213.598 171.183 211.343 171.28 208.893C171.377 206.444 170.527 204.103 168.864 202.309L168.256 201.642C166.52 199.762 164.067 198.683 161.505 198.683Z" fill="black"/>
<path d="M135.011 263.28C132.959 263.28 130.992 262.419 129.595 260.903L128.988 260.236C127.652 258.793 126.972 256.913 127.045 254.961C127.13 252.997 127.968 251.19 129.413 249.856L149.848 231.06C151.208 229.811 152.981 229.12 154.826 229.12C156.878 229.12 158.857 229.981 160.242 231.484L160.849 232.151C163.593 235.135 163.399 239.791 160.424 242.532L139.989 261.327C138.629 262.576 136.856 263.268 135.011 263.268V263.28Z" fill="white"/>
<path d="M154.827 230.951C156.32 230.951 157.814 231.545 158.906 232.733L159.513 233.4C161.59 235.644 161.444 239.148 159.186 241.21L138.751 260.005C137.682 260.988 136.346 261.473 134.999 261.473C133.505 261.473 132.012 260.879 130.919 259.69L130.312 259.023C128.236 256.78 128.381 253.275 130.64 251.214L151.075 232.418C152.143 231.436 153.479 230.951 154.827 230.951ZM154.827 227.313C152.52 227.313 150.31 228.174 148.61 229.738L128.175 248.534C126.366 250.195 125.321 252.451 125.224 254.9C125.127 257.35 125.977 259.69 127.641 261.485L128.248 262.152C129.984 264.031 132.437 265.111 134.999 265.111C137.306 265.111 139.515 264.25 141.215 262.685L161.65 243.89C163.46 242.228 164.504 239.973 164.601 237.523C164.698 235.074 163.848 232.733 162.185 230.939L161.578 230.272C159.841 228.392 157.389 227.313 154.827 227.313Z" fill="black"/>
<path d="M100.976 246.085C98.9609 243.841 99.1187 240.398 101.341 238.348L187.877 158.666C190.135 156.581 193.669 156.75 195.721 159.042C197.736 161.286 197.578 164.729 195.356 166.779L108.82 246.461C106.562 248.546 103.028 248.377 100.976 246.085Z" fill="black" stroke="black" stroke-width="4"/>
<path d="M218.561 95.185C238.789 91.9594 257.804 105.723 261.033 125.925C264.263 146.128 250.482 165.117 230.253 168.343C210.025 171.568 191.01 157.805 187.781 137.603C184.551 117.4 198.332 98.4106 218.561 95.185ZM216.751 83.859C190.294 88.079 172.214 113.011 176.44 139.422C180.665 165.845 205.629 183.901 232.075 179.681C258.532 175.461 276.612 150.529 272.386 124.118C268.161 97.6951 243.197 79.6391 216.751 83.859Z" fill="black" stroke="black" stroke-width="4"/>
<path d="M97.5166 241.186C97.5166 241.186 134.817 240.979 137.33 199.726L165.791 187.709C174.849 184.483 180.289 175.485 179.232 166.221C179.038 164.56 177.338 163.517 175.748 164.038L116.64 183.683" fill="white"/>
<path d="M97.5166 241.186C97.5166 241.186 134.817 240.979 137.33 199.726L165.791 187.709C174.849 184.483 180.289 175.485 179.232 166.221C179.038 164.56 177.338 163.517 175.748 164.038L116.64 183.683" stroke="black" stroke-width="4" stroke-linecap="round"/>
<path d="M173.477 166.342C174.97 171.108 172.323 176.189 167.551 177.692C162.78 179.196 157.692 176.54 156.187 171.775" fill="white"/>
<path d="M173.477 166.342C174.97 171.108 172.323 176.189 167.551 177.692C162.78 179.196 157.692 176.54 156.187 171.775" stroke="black" stroke-width="4"/>
</g>
<path d="M224.412 168.755C244.865 168.755 261.445 152.196 261.445 131.77C261.445 111.344 244.865 94.7849 224.412 94.7849C203.959 94.7849 187.379 111.344 187.379 131.77C187.379 152.196 203.959 168.755 224.412 168.755Z" fill="white" stroke="black" stroke-width="4" stroke-linecap="round"/>
<path d="M224.376 131.77L247.118 139.155C242.795 152.445 227.921 159.357 214.771 153.646C203.625 148.808 197.894 136.051 201.597 124.482C204.839 114.393 213.776 107.881 224.376 107.881V131.77Z" fill="black" stroke="black" stroke-width="4"/>
<path d="M224.376 131.77L247.118 124.385C248.745 129.406 248.745 134.123 247.118 139.143L224.376 131.758V131.77Z" fill="white" stroke="black" stroke-width="4"/>
<path d="M224.376 131.77V107.881C234.94 107.881 243.852 114.345 247.118 124.385L224.376 131.77Z" fill="#FF0077" stroke="black" stroke-width="4"/>
<path d="M224.401 141.677C229.879 141.677 234.321 137.242 234.321 131.77C234.321 126.298 229.879 121.863 224.401 121.863C218.922 121.863 214.48 126.298 214.48 131.77C214.48 137.242 218.922 141.677 224.401 141.677Z" fill="white" stroke="black" stroke-width="4"/>
<path d="M15 297H203" stroke="black" stroke-width="4" stroke-linecap="round"/>
</svg>
