<svg width="448" height="340" viewBox="0 0 448 340" fill="none" xmlns="http://www.w3.org/2000/svg">
<path d="M305.07 232.889H224.841V279.549H305.07V232.889Z" fill="black"/>
<path d="M401.746 65.3018H128.165C125.566 65.3018 123.458 67.4055 123.458 70.0007V228.272C123.458 230.867 125.566 232.971 128.165 232.971H401.746C404.345 232.971 406.452 230.867 406.452 228.272V70.0007C406.452 67.4055 404.345 65.3018 401.746 65.3018Z" fill="black"/>
<path d="M396.523 208.22V76.3562H133.954L134.612 208.22H396.523Z" fill="white"/>
<path d="M38.8651 179.251C42.7249 179.251 45.8538 176.127 45.8538 172.273C45.8538 168.419 42.7249 165.295 38.8651 165.295C35.0054 165.295 31.8765 168.419 31.8765 172.273C31.8765 176.127 35.0054 179.251 38.8651 179.251Z" fill="black"/>
<path d="M118.635 262.34C122.494 262.34 125.623 259.215 125.623 255.362C125.623 251.508 122.494 248.384 118.635 248.384C114.775 248.384 111.646 251.508 111.646 255.362C111.646 259.215 114.775 262.34 118.635 262.34Z" fill="black"/>
<path d="M135.436 163.803C145.287 163.803 153.272 155.83 153.272 145.994C153.272 136.159 145.287 128.185 135.436 128.185C125.585 128.185 117.6 136.159 117.6 145.994C117.6 155.83 125.585 163.803 135.436 163.803Z" fill="white" stroke="black" stroke-width="4"/>
<path d="M122.117 111.246L110.34 99.522C104.375 93.5897 94.7273 93.6014 88.7857 99.5573C82.8442 105.513 82.856 115.146 88.821 121.078L100.598 132.802C94.3155 147.627 97.2333 165.413 109.352 177.477L166.885 119.857C154.766 107.792 136.942 104.938 122.117 111.246Z" fill="black" stroke="black" stroke-width="4"/>
<path d="M145.684 285.658H91.4097L92.7862 282.098C93.4922 280.289 95.1864 279.056 97.1159 278.95L139.307 276.542C141.695 276.401 143.848 277.998 144.401 280.324L145.672 285.658H145.684Z" fill="black"/>
<path d="M91.7268 123.957L38.8647 172.273L118.634 255.362V278.68" stroke="black" stroke-width="4" stroke-miterlimit="10"/>
<path d="M354.167 65.49L344.272 55.6457C343.437 54.8117 342.296 54.3418 341.107 54.3418H311.388C308.917 54.3418 306.905 56.3388 306.905 58.8175V131.416C306.905 133.883 308.905 135.892 311.388 135.892H411.641C414.112 135.892 416.124 133.894 416.124 131.416V69.0259C416.124 67.7925 415.124 66.7939 413.888 66.7939H357.332C356.144 66.7939 355.014 66.324 354.167 65.49Z" fill="#FF0077" stroke="black" stroke-width="4"/>
<path d="M220.146 187.826C244.89 187.826 264.949 167.798 264.949 143.093C264.949 118.387 244.89 98.3589 220.146 98.3589C195.403 98.3589 175.344 118.387 175.344 143.093C175.344 167.798 195.403 187.826 220.146 187.826Z" fill="white" stroke="black" stroke-width="4"/>
<path d="M220.147 143.093L220.252 98.3589C244.795 98.4176 264.949 118.599 264.949 143.093C264.949 159.233 256.196 174.176 242.101 182.094L220.135 143.093H220.147Z" fill="#FF0077" stroke="black" stroke-width="4"/>
<path d="M220.146 143.093L241.807 182.258C235.171 185.912 227.723 187.827 220.146 187.827C212.57 187.827 205.487 186.006 198.98 182.517L220.146 143.081V143.093Z" fill="black"/>
<path d="M220.147 169.771C234.903 169.771 246.866 157.827 246.866 143.093C246.866 128.359 234.903 116.415 220.147 116.415C205.39 116.415 193.427 128.359 193.427 143.093C193.427 157.827 205.39 169.771 220.147 169.771Z" fill="white" stroke="black" stroke-width="4"/>
<path d="M284.951 98.3589V189.765" stroke="black" stroke-width="4" stroke-linecap="round"/>
<path d="M328.036 160.479V151.574H309.341C308.694 151.574 308.164 152.103 308.164 152.749V188.59C308.164 189.236 308.694 189.765 309.341 189.765H336.436C337.083 189.765 337.613 189.236 337.613 188.59V160.479H328.036Z" fill="white" stroke="black" stroke-width="4" stroke-linecap="round"/>
<path d="M329.718 149.777V159.927L339.354 158.764L329.718 149.777Z" fill="black"/>
<path d="M373.756 160.479V151.574H355.061C354.414 151.574 353.884 152.103 353.884 152.749V188.59C353.884 189.236 354.414 189.765 355.061 189.765H382.157C382.804 189.765 383.333 189.236 383.333 188.59V160.479H373.756Z" fill="white" stroke="black" stroke-width="4" stroke-linecap="round"/>
<path d="M375.427 149.777V159.927L385.075 158.764L375.427 149.777Z" fill="black"/>
<path d="M213.888 276.906H316.035C319.965 276.906 323.153 280.09 323.153 284.013V285.658H206.77V284.013C206.77 280.09 209.958 276.906 213.888 276.906Z" fill="black"/>
<path d="M51.8765 285.658L406.876 285.658" stroke="black" stroke-width="4" stroke-linecap="round"/>
</svg>
