<svg width="448" height="340" viewBox="0 0 448 340" fill="none" xmlns="http://www.w3.org/2000/svg">
<path d="M376.765 247.923V93.2262C376.765 87.4017 372.285 82.6785 366.748 82.6785H84.652C79.1034 82.6785 74.6121 87.4357 74.6349 93.283L75.2943 247.98C75.3171 253.782 79.7969 258.482 85.3115 258.482H366.748C372.274 258.482 376.765 253.759 376.765 247.934V247.923Z" fill="white" stroke="black" stroke-width="4"/>
<path d="M104.244 167.992V227.554C104.244 229.266 105.633 230.654 107.348 230.654H123.039C124.753 230.654 126.143 229.266 126.143 227.554V167.992C126.143 166.28 124.753 164.892 123.039 164.892H107.348C105.633 164.892 104.244 166.28 104.244 167.992Z" fill="#FF0077" stroke="black" stroke-width="4" stroke-miterlimit="10"/>
<path d="M136.808 132.42V227.565C136.808 229.277 138.197 230.665 139.912 230.665H155.603C157.317 230.665 158.707 229.277 158.707 227.565V132.42C158.707 130.708 157.317 129.32 155.603 129.32H139.912C138.197 129.32 136.808 130.708 136.808 132.42Z" fill="#FF0077" stroke="black" stroke-width="4" stroke-miterlimit="10"/>
<path d="M169.406 199.748V227.565C169.406 229.277 170.796 230.665 172.51 230.665H188.201C189.916 230.665 191.305 229.277 191.305 227.565V199.748C191.305 198.036 189.916 196.649 188.201 196.649H172.51C170.796 196.649 169.406 198.036 169.406 199.748Z" fill="#FF0077" stroke="black" stroke-width="4" stroke-miterlimit="10"/>
<path d="M376.765 107.226H74.6465V95.1339C74.6465 88.6054 79.945 83.3145 86.4829 83.3145H364.735C371.194 83.3145 376.469 88.4918 376.572 94.9408L376.776 107.226H376.765Z" fill="black"/>
<path d="M301.278 228.405C291.102 228.405 280.914 226.464 271.34 222.592C261.766 218.709 252.795 212.896 245.029 205.141C237.263 197.386 222.05 176.121 218.173 166.561L225.666 156.399C233.739 145.454 240.652 133.702 246.291 121.338L255.41 99.3456C267.429 72.857 291.102 69.5303 301.278 69.5303" fill="#FF0077"/>
<path d="M302.688 228.405C312.865 228.405 323.053 226.464 332.626 222.592C342.2 218.709 351.171 212.896 358.937 205.141C366.703 197.386 381.916 176.12 385.794 166.56L378.301 156.399C370.228 145.453 363.315 133.702 357.675 121.338L348.556 99.3453C336.538 72.8567 312.865 69.53 302.688 69.53" fill="#FF0077"/>
<path d="M328.658 192.254H275.309V285.606H328.658V192.254Z" fill="white" stroke="black" stroke-width="4"/>
<path d="M291.033 205.936L328.714 214.882V196.137L291.033 205.936Z" fill="black"/>
<path d="M397.299 288.468L387.282 261.775C384.258 253.35 377.186 247.026 368.465 244.948C352.637 241.167 328.907 235.524 328.134 235.524H274.785L234.296 245.153C225.995 247.128 219.151 252.964 215.899 260.832L204.005 288.434L397.299 288.479V288.468Z" fill="black"/>
<path d="M301.983 169.649C329.67 169.649 352.114 147.237 352.114 119.59C352.114 91.9426 329.67 69.5303 301.983 69.5303C274.296 69.5303 251.852 91.9426 251.852 119.59C251.852 147.237 274.296 169.649 301.983 169.649Z" fill="#FF0077"/>
<path d="M302.142 205.936C279.618 206.095 261.278 187.883 261.3 165.391V124.631C261.3 121.849 263.563 119.601 266.337 119.601H337.617C340.414 119.601 342.677 121.872 342.654 124.665L342.416 165.687C342.279 187.849 324.326 205.788 302.131 205.947L302.142 205.936Z" fill="white" stroke="black" stroke-width="4"/>
<path d="M301.858 121.883C301.858 133.407 290.658 142.751 276.855 142.751C263.051 142.751 251.852 133.407 251.852 121.883C251.852 110.359 288.293 101.014 302.108 101.014C302.108 101.014 301.869 110.359 301.869 121.883H301.858Z" fill="#FF0077"/>
<path d="M301.517 121.883C301.517 133.407 312.716 142.751 326.52 142.751C340.335 142.751 351.523 133.407 351.523 121.883C351.523 110.359 315.081 101.014 301.267 101.014C301.267 101.014 301.505 110.359 301.505 121.883H301.517Z" fill="#FF0077"/>
<path d="M342.586 136.87C338.243 139.913 332.637 142.752 326.531 142.752C312.717 142.752 301.528 133.407 301.528 121.883H301.289C301.289 133.407 290.09 142.752 276.286 142.752C270.59 142.752 265.337 140.151 261.141 137.483" stroke="black" stroke-width="4" stroke-linecap="round" stroke-linejoin="round"/>
<path d="M261.118 169.603C254.922 169.603 249.907 164.596 249.907 158.409C249.907 152.221 254.922 147.214 261.118 147.214V169.603Z" fill="white" stroke="black" stroke-width="4"/>
<path d="M342.666 147.214C348.862 147.214 353.888 152.209 353.899 158.386C353.899 164.574 348.896 169.592 342.711 169.603L342.677 147.214H342.666Z" fill="white" stroke="black" stroke-width="4"/>
<path d="M328.715 221.116H275.309V251.033H328.715V221.116Z" fill="black"/>
<path d="M302.688 228.405C312.864 228.405 323.052 226.463 332.626 222.592C342.199 218.709 351.17 212.895 358.936 205.141C365.474 198.612 377.299 182.49 383.189 171.851C384.895 168.774 384.633 164.982 382.541 162.155L378.3 156.41C370.227 145.465 363.314 133.713 357.674 121.349L348.555 99.3566C336.537 72.8679 312.864 69.5413 302.688 69.5413H301.289C291.113 69.5413 267.44 72.8679 255.422 99.3566L246.303 121.349C240.663 133.713 233.75 145.465 225.677 156.41L221.436 162.155C219.344 164.993 219.082 168.774 220.788 171.851C226.678 182.49 238.503 198.601 245.041 205.141C252.807 212.895 261.778 218.709 271.351 222.592C280.925 226.475 291.101 228.405 301.289 228.405" stroke="black" stroke-width="4" stroke-miterlimit="10"/>
<path d="M75.1123 113.288C75.01 113.572 74.6006 113.572 74.4983 113.288C69.0974 98.2104 59.0234 88.1054 43.8782 82.7577C43.594 82.6555 43.594 82.2468 43.8782 82.1446C58.9779 76.7515 69.0974 66.692 74.4983 51.614C74.6006 51.3302 75.01 51.3302 75.1123 51.614C80.5131 66.692 90.5872 76.7969 105.732 82.1446C106.017 82.2468 106.017 82.6555 105.732 82.7577C90.6327 88.1508 80.5131 98.2104 75.1123 113.288Z" fill="#FF0077" stroke="black" stroke-width="4"/>
<path d="M49.0971 119.805C48.9834 120.089 48.5741 120.089 48.4604 119.805C46.4478 114.548 42.8321 110.938 37.5677 108.928C37.2834 108.815 37.2834 108.406 37.5677 108.292C42.8321 106.283 46.4478 102.672 48.4604 97.4153C48.5741 97.1314 48.9834 97.1314 49.0971 97.4153C51.1096 102.672 54.7254 106.283 59.9898 108.292C60.2741 108.406 60.2741 108.815 59.9898 108.928C54.7254 110.938 51.1096 114.548 49.0971 119.805Z" fill="white" stroke="black" stroke-width="4"/>
<path d="M163.5 289H404" stroke="black" stroke-width="4" stroke-linecap="round"/>
</svg>
