<svg width="448" height="340" viewBox="0 0 448 340" fill="none" xmlns="http://www.w3.org/2000/svg">
<path d="M291.913 88.147V90.147C291.913 96.5747 291.907 102.354 291.901 106.527C291.899 108.613 291.896 110.297 291.894 111.46C291.893 112.042 291.892 112.494 291.892 112.799C291.891 112.952 291.891 113.069 291.891 113.147V113.265C291.893 114.354 292.776 115.232 293.853 115.232H321.725V274.681C321.724 278.852 318.347 282.243 314.175 282.243H131.329C127.157 282.243 123.779 278.852 123.779 274.681V95.7085C123.779 91.5381 127.157 88.147 131.329 88.147H291.913Z" fill="#FF0077" stroke="black" stroke-width="4"/>
<path d="M222.752 249.175H171.396V130.335C171.396 102.749 194.394 80.3918 222.752 80.3918C251.11 80.3918 274.107 102.749 274.107 130.335V246.973" fill="black"/>
<path d="M222.752 249.175H171.396V130.335C171.396 102.749 194.394 80.3918 222.752 80.3918C251.11 80.3918 274.107 102.749 274.107 130.335V246.973" stroke="black" stroke-width="4"/>
<path d="M201.331 205.739L159.709 216.484C159.276 216.584 158.832 216.707 158.41 216.829C149.22 219.554 142.694 227.763 141.484 237.296L136.234 278.663H309.247L305.551 237.974C304.685 228.508 298.581 220.155 289.624 217.007C288.825 216.729 288.003 216.484 287.16 216.284C272.121 212.68 245.572 205.739 245.572 205.739" fill="black"/>
<path d="M201.331 205.739L159.709 216.484C159.276 216.584 158.832 216.707 158.41 216.829C149.22 219.554 142.694 227.763 141.484 237.296L136.234 278.663H309.247L305.551 237.974C304.685 228.508 298.581 220.155 289.624 217.007C288.825 216.729 288.003 216.484 287.16 216.284C272.121 212.68 245.572 205.739 245.572 205.739" stroke="black" stroke-width="4"/>
<path d="M244.228 205.361V187.931H201.275V205.739L191.452 208.531L196.402 241.578C197.612 249.676 205.315 255.716 214.416 255.716H230.909C240.077 255.716 247.813 249.587 248.957 241.422L253.596 207.997L244.228 205.361Z" fill="white" stroke="black" stroke-width="4"/>
<path d="M199.744 195.584L253 210L244.262 189.355L200.798 187.942L199.744 195.584Z" fill="black"/>
<path d="M190.043 139.412V162.57C190.043 180.656 204.694 195.295 222.741 195.25H222.907C240.888 195.206 255.439 180.59 255.439 162.57V139.534L190.043 139.412Z" fill="white" stroke="black" stroke-width="4"/>
<path d="M222.519 254.681V247.54" stroke="black" stroke-width="4" stroke-linecap="round"/>
<path d="M149.498 157.075H102.06C99.6083 157.075 97.6206 159.067 97.6206 161.524V186.007C97.6206 188.464 99.6083 190.456 102.06 190.456H149.498C151.95 190.456 153.937 188.464 153.937 186.007V161.524C153.937 159.067 151.95 157.075 149.498 157.075Z" fill="white"/>
<path d="M296.006 150.657H343.444C345.896 150.657 347.883 152.648 347.883 155.107V179.589C347.883 182.047 345.896 184.038 343.444 184.038H291.566V155.107C291.566 152.648 293.553 150.657 296.006 150.657Z" fill="white"/>
<path d="M291.566 184.038H343.444C345.896 184.038 347.883 186.029 347.883 188.487V212.97C347.883 215.428 345.896 217.419 343.444 217.419H296.006C293.553 217.419 291.566 215.428 291.566 212.97V184.038Z" fill="white"/>
<path d="M290.756 304.013V256.472C290.756 254.015 288.768 252.023 286.316 252.023H261.887C259.435 252.023 257.447 254.015 257.447 256.472V304.013C257.447 306.47 259.435 308.462 261.887 308.462H286.316C288.768 308.462 290.756 306.47 290.756 304.013Z" fill="white"/>
<path d="M114.979 159.075C116.257 159.075 117.309 160.122 117.309 161.413V186.118C117.308 187.409 116.257 188.456 114.979 188.456H88V159.075H114.979Z" fill="#FF0077" stroke="black" stroke-width="4"/>
<path d="M261.887 289.619H286.316C288.769 289.619 290.756 291.61 290.756 294.068V323H257.448V294.068C257.448 291.61 259.434 289.619 261.887 289.619Z" fill="black"/>
<path d="M177.789 251.111H123.748C121.296 251.111 119.308 253.103 119.308 255.56V280.042C119.308 282.5 121.296 284.492 123.748 284.492H177.789C180.241 284.492 182.229 282.5 182.229 280.042V255.56C182.229 253.103 180.241 251.111 177.789 251.111Z" fill="white"/>
<path d="M331.198 150H359.802C361.568 150 363 151.432 363 153.198V181.802C363 183.568 361.568 185 359.802 185H331.198C329.432 185 328 183.568 328 181.802V153.198L328.004 153.033C328.087 151.398 329.398 150.087 331.033 150.004L331.198 150Z" fill="#FF0077" stroke="black" stroke-width="4"/>
<path d="M127.219 49H151.648C152.992 49.0002 154.088 50.0926 154.088 51.4492V75.9316C154.088 77.2882 152.991 78.3806 151.648 78.3809H127.219C125.876 78.3808 124.779 77.2883 124.779 75.9316V51.4492C124.779 50.0925 125.876 49.0001 127.219 49Z" fill="#FF0077" stroke="black" stroke-width="4"/>
<path d="M321.5 150.5H296.5C293.739 150.5 291.5 152.739 291.5 155.5V213.5C291.5 216.261 293.739 218.5 296.5 218.5H321.5" stroke="black" stroke-width="4" stroke-linecap="square"/>
<path d="M124 192L149 192C151.761 192 154 189.761 154 187L154 161C154 158.239 151.761 156 149 156L124 156" stroke="black" stroke-width="4" stroke-linecap="square"/>
<path d="M124 250.5H175.5C178.261 250.5 180.5 252.739 180.5 255.5V282.5" stroke="black" stroke-width="4" stroke-linecap="square"/>
</svg>
