<svg width="448" height="340" viewBox="0 0 448 340" fill="none" xmlns="http://www.w3.org/2000/svg">
<path d="M378 90.6509H33V72.4879C33 64.8435 39.0523 58.6509 46.5116 58.6509H364.257C371.63 58.6509 377.884 64.7151 378 72.2608V86.641V83.1842V90.6509Z" fill="black"/>
<path d="M52.93 80.5109C56.76 80.5109 59.86 77.4109 59.86 73.5809C59.86 69.7509 56.76 66.6509 52.93 66.6509C49.1 66.6509 46 69.7509 46 73.5809C46 77.4109 49.1 80.5109 52.93 80.5109Z" fill="#FF0077"/>
<path d="M72.5 79.6509C76.0924 79.6509 79 76.7432 79 73.1509C79 69.5585 76.0924 66.6509 72.5 66.6509C68.9076 66.6509 66 69.5585 66 73.1509C66 76.7432 68.9076 79.6509 72.5 79.6509Z" fill="white"/>
<path d="M37.9739 88.2588H374.081C375.284 88.2588 376.273 89.2383 376.273 90.451V270.403C376.273 275.598 372.056 279.815 366.861 279.815H45.194C39.9981 279.815 35.7817 275.598 35.7817 270.403V90.4417C35.7817 89.2383 36.7612 88.2495 37.9739 88.2495V88.2588Z" fill="white" stroke="black" stroke-width="4"/>
<path d="M36 86.3362L138 88.3362V279.336H46.7364C40.8077 279.336 36 274.5 36 268.556V86.3362Z" fill="black" stroke="black" stroke-width="4"/>
<path d="M55.1289 113.007H114.457" stroke="white" stroke-width="4" stroke-miterlimit="10" stroke-linecap="round"/>
<path d="M55.1289 127.503H114.457" stroke="white" stroke-width="4" stroke-miterlimit="10" stroke-linecap="round"/>
<path d="M56.8169 229.395H114.447" stroke="white" stroke-width="4" stroke-miterlimit="10" stroke-linecap="round"/>
<path d="M56.8169 240.692H114.447" stroke="white" stroke-width="4" stroke-miterlimit="10" stroke-linecap="round"/>
<path d="M56.8169 251.988H114.447" stroke="white" stroke-width="4" stroke-miterlimit="10" stroke-linecap="round"/>
<path d="M267.262 191.438H163.028C161.735 191.438 160.687 192.486 160.687 193.779V201.69C160.687 202.983 161.735 204.031 163.028 204.031H267.262C268.556 204.031 269.604 202.983 269.604 201.69V193.779C269.604 192.486 268.556 191.438 267.262 191.438Z" fill="#FF0077" stroke="black" stroke-width="4" stroke-miterlimit="10"/>
<path d="M314.678 214.18H163.028C161.735 214.18 160.687 215.228 160.687 216.522V224.432C160.687 225.725 161.735 226.773 163.028 226.773H314.678C315.971 226.773 317.019 225.725 317.019 224.432V216.522C317.019 215.228 315.971 214.18 314.678 214.18Z" fill="#FF0077" stroke="black" stroke-width="4" stroke-miterlimit="10"/>
<path d="M230.406 238.583H163.028C161.735 238.583 160.687 239.631 160.687 240.924V248.835C160.687 250.128 161.735 251.176 163.028 251.176H230.406C231.7 251.176 232.748 250.128 232.748 248.835V240.924C232.748 239.631 231.7 238.583 230.406 238.583Z" fill="#FF0077" stroke="black" stroke-width="4" stroke-miterlimit="10"/>
<path d="M184.941 167.595C198.753 167.595 209.95 156.398 209.95 142.586C209.95 128.774 198.753 117.577 184.941 117.577C171.129 117.577 159.932 128.774 159.932 142.586C159.932 156.398 171.129 167.595 184.941 167.595Z" stroke="black" stroke-width="4"/>
<path d="M184.941 142.586H209.95C209.95 128.873 198.663 117.577 184.941 117.577C184.895 117.577 184.839 117.577 184.792 117.577L184.941 142.576V142.586Z" fill="#FF0077" stroke="black" stroke-width="4"/>
<path d="M184.94 153.238C190.824 153.238 195.593 148.469 195.593 142.585C195.593 136.702 190.824 131.932 184.94 131.932C179.057 131.932 174.288 136.702 174.288 142.585C174.288 148.469 179.057 153.238 184.94 153.238Z" fill="white" stroke="black" stroke-width="4"/>
<path d="M250.956 167.595C264.768 167.595 275.965 156.398 275.965 142.586C275.965 128.774 264.768 117.577 250.956 117.577C237.144 117.577 225.947 128.774 225.947 142.586C225.947 156.398 237.144 167.595 250.956 167.595Z" stroke="black" stroke-width="4"/>
<path d="M250.957 142.586L228.69 153.966C232.963 162.315 241.582 167.595 250.957 167.595C264.67 167.595 275.966 156.308 275.966 142.586C275.966 128.864 264.679 117.577 250.957 117.577C250.91 117.577 250.854 117.577 250.808 117.577L250.957 142.576V142.586Z" fill="#FF0077" stroke="black" stroke-width="4"/>
<path d="M250.956 153.238C256.84 153.238 261.609 148.469 261.609 142.585C261.609 136.702 256.84 131.932 250.956 131.932C245.073 131.932 240.303 136.702 240.303 142.585C240.303 148.469 245.073 153.238 250.956 153.238Z" fill="white" stroke="black" stroke-width="4"/>
<path d="M316.973 167.595C330.785 167.595 341.982 156.398 341.982 142.586C341.982 128.774 330.785 117.577 316.973 117.577C303.161 117.577 291.964 128.774 291.964 142.586C291.964 156.398 303.161 167.595 316.973 167.595Z" stroke="black" stroke-width="4"/>
<path d="M316.973 142.586L296.003 128.966C293.372 133.024 291.964 137.754 291.964 142.586C291.964 156.298 303.251 167.595 316.973 167.595C330.695 167.595 341.982 156.308 341.982 142.586C341.982 128.864 330.695 117.577 316.973 117.577C316.926 117.577 316.87 117.577 316.824 117.577L316.973 142.576V142.586Z" fill="#FF0077" stroke="black" stroke-width="4"/>
<path d="M316.973 153.238C322.856 153.238 327.626 148.469 327.626 142.585C327.626 136.702 322.856 131.932 316.973 131.932C311.089 131.932 306.32 136.702 306.32 142.585C306.32 148.469 311.089 153.238 316.973 153.238Z" fill="white" stroke="black" stroke-width="4"/>
<path d="M379.743 236.755H258.886C249.705 236.755 242.263 244.197 242.263 253.378V289.618C242.263 298.799 249.705 306.241 258.886 306.241H379.743C388.923 306.241 396.366 298.799 396.366 289.618V253.378C396.366 244.197 388.923 236.755 379.743 236.755Z" fill="black"/>
<path d="M295.247 255.319V288.695H285.471L273.932 268.378L272.029 264.134V288.695H264.539V255.319H274.697L285.471 274.246L287.757 278.919V255.319H295.247Z" fill="white"/>
<path d="M310.322 262.231V268.051H323.82V274.73H310.322V281.792H324.679V288.704H302.888V255.328H324.679V262.24H310.322V262.231Z" fill="white"/>
<path d="M377.607 255.319L369.165 288.695H359.389L353.615 269.526L352.57 264.134L351.525 269.526L345.751 288.695H335.975L327.533 255.319H336.115L340.117 276.447L340.835 280.925L341.833 276.447L347.551 255.319H357.56L363.279 276.447L364.277 280.925L364.995 276.447L368.997 255.319H377.579H377.607Z" fill="white"/>
</svg>
