<svg width="500" height="582" viewBox="0 0 500 582" fill="none" xmlns="http://www.w3.org/2000/svg">
<path d="M211.201 543.5H200.941L199.821 538.33L193.111 543.5H152.951C151.801 543.5 150.871 542.74 150.871 541.81V539.64C150.871 538.9 151.411 538.22 152.281 537.84L194.911 520.45L211.171 520.25C211.731 520.25 212.201 520.6 212.221 521.05L213.281 541.73C213.331 542.69 212.381 543.49 211.201 543.49V543.5Z" fill="black"/>
<path d="M434.82 543.82H393.98C392.84 543.82 391.92 543.04 391.92 542.07V539.25C391.92 538.83 392.08 538.43 392.38 538.08L408.87 517.93H426.99L436.18 536.76C436.27 536.94 436.32 537.13 436.35 537.32L436.87 541.9C436.99 542.93 436.04 543.81 434.82 543.81V543.82Z" fill="black"/>
<path d="M342.37 73.46L313.84 106.69L317.68 136.16L349.79 131.27L342.37 73.46Z" fill="black"/>
<path d="M223.101 201.88L216.331 170.55L248.741 172.06L258.961 205.85L223.101 201.88Z" fill="black"/>
<path d="M234.61 143.04C227.5 143.04 220.95 139.19 217.5 132.98C214.07 126.8 202.27 123.09 202.15 123.05L197.69 121.67C197.69 121.67 223.58 107.22 225.09 106.38C227.99 104.77 231.27 103.91 234.58 103.91C241.69 103.91 248.24 107.76 251.69 113.97C254.23 118.54 254.84 123.82 253.4 128.84C251.97 133.86 248.66 138.03 244.09 140.57C241.19 142.18 237.91 143.04 234.6 143.04H234.61Z" fill="white"/>
<path d="M293.28 76.43C286.84 76.43 281.37 71.61 280.55 65.21C279.65 58.18 284.63 51.73 291.66 50.83L302.83 49.4L303.52 50.43C305.73 53.74 307.11 57.42 307.62 61.38L309.3 74.48L294.93 76.32C294.38 76.39 293.83 76.43 293.28 76.43Z" fill="white" stroke="black" stroke-width="4"/>
<path d="M330.697 106.45L312.556 108.781C301.547 110.195 291.452 102.408 290.037 91.3882L285.885 59.0638C284.582 48.9271 291.757 39.6373 301.894 38.3351L318.706 36.1755C328.843 34.8734 338.132 42.0482 339.435 52.1849L344.164 89.0024C345.26 97.5323 339.227 105.355 330.687 106.452L330.697 106.45Z" fill="black"/>
<path d="M322.009 90.2684L296.737 93.5149L296.198 89.3193C295.957 87.4447 297.28 85.7323 299.154 85.4915L317.642 83.1165C319.517 82.8757 321.23 84.1983 321.47 86.0729L322.009 90.2684Z" fill="white"/>
<path d="M327.731 72.01C321.291 72.01 315.821 67.19 315.001 60.79C314.561 57.39 315.481 54.01 317.581 51.3C319.681 48.58 322.711 46.85 326.111 46.41L332.441 45.34C332.931 45.26 333.441 45.21 333.931 45.21C338.341 45.21 342.131 48.51 342.751 52.88L344.311 63.95C344.531 65.53 344.121 67.09 343.161 68.36C342.201 69.63 340.791 70.44 339.211 70.64L329.381 71.9C328.831 71.97 328.281 72.01 327.731 72.01Z" fill="white" stroke="black" stroke-width="4"/>
<path d="M336.89 72.21C336.89 72.21 336.25 62.55 342.89 63.89C348 64.92 347.1 72.26 344.26 74.55C341.42 76.84 337.52 77.1 337.52 77.1L336.89 72.2V72.21Z" fill="black"/>
<path d="M334.712 65.4817L332.936 65.7097C331.863 65.8477 331.104 66.8298 331.242 67.9035L332.096 74.5489C332.233 75.6226 333.216 76.3811 334.289 76.2432L336.065 76.0151C337.138 75.8772 337.897 74.895 337.759 73.8214L336.905 67.176C336.767 66.1023 335.785 65.3438 334.712 65.4817Z" fill="white"/>
<path d="M346.331 309.62L387.841 520.21H443.181L411.281 277.67L346.331 309.62Z" fill="black"/>
<path d="M296.841 275.15C296.841 275.15 288.861 314.34 306.111 321.48C323.361 328.62 367.641 328.03 377.761 325.65C387.881 323.27 402.961 309.79 407.511 301.4C417.531 282.95 406.911 264.36 406.911 264.36L296.831 275.15H296.841Z" fill="black"/>
<path d="M413.811 84.49L400.771 72.56L415.121 56.24L429.011 67.24L413.811 84.49Z" fill="black"/>
<path d="M179.4 438.73L68.3604 383.03L78.6703 375.22C78.6703 375.22 110.4 374.84 138.17 379.42C169.59 384.61 183.82 396.89 191.32 407.2C198.82 417.51 179.4 438.73 179.4 438.73Z" fill="black"/>
<path d="M476.39 98.19L427.75 57.89L403.95 85.86L432.51 110.85C432.51 110.85 310.53 128.1 298.04 131.68C291.6 133.52 285.63 137.9 281.85 145.54L242.11 220.34L305.51 283.49L406.92 264.37C406.92 264.37 415.7 262.98 414.89 256.11C414.12 249.61 408.44 249.23 408.44 249.23C408.44 249.23 415 245.53 414.06 232.04C413.4 222.53 408.09 187.22 404.37 163.69C405.31 163.4 406.25 163.05 407.19 162.64L471.09 135.12C486.1 128.66 488.98 108.62 476.39 98.19Z" fill="#FF0077" stroke="black" stroke-width="4"/>
<path d="M90.5005 514.68L262.34 379.77L208.12 341L167.83 406.62C167.83 406.62 149.21 414.65 129.38 433.86C109.55 453.07 87.2905 491.97 87.2905 491.97L81.5005 499.9L89.1705 514.68H90.5005Z" fill="black"/>
<path d="M205.471 312.09L179.401 313.15L176.671 320.58C175.021 325.06 172.991 329.38 170.591 333.5L169.291 335.73C160.101 347.49 148.051 356.69 134.301 362.45L133.521 362.78L214.741 452.23L274.641 358.41L205.481 312.09H205.471Z" fill="#FF0077" stroke="black" stroke-width="4"/>
<path d="M290.97 134.32L300.18 221.45L316.58 218.24L307.06 129.81" fill="black"/>
<path d="M317.041 222.16L300.801 225.33C300.751 225.34 300.691 225.33 300.641 225.35L307.471 283.11L323.841 280.02L317.031 222.16H317.041Z" fill="black"/>
<path d="M319.15 137.65C317.17 137.65 315.49 136.17 315.26 134.2L313.93 123.11C313.8 122 314.14 120.89 314.88 120.05C315.63 119.21 316.69 118.73 317.81 118.73C318.3 118.73 318.79 118.82 319.25 119.01L330.53 123.48L343.14 112.26C343.86 111.62 344.78 111.27 345.73 111.27C347.69 111.27 349.32 112.67 349.61 114.61L351.88 129.93C352.05 131.06 351.72 132.2 350.98 133.05C350.23 133.92 349.15 134.41 348.02 134.41C347.53 134.41 347.04 134.32 346.57 134.13L331.35 128.1L322.5 136C321.78 136.64 320.1 137.65 319.15 137.65Z" fill="white" stroke="black" stroke-width="4"/>
<path d="M181.69 312.09L173.98 328.91L274.63 358.41L181.69 312.09Z" fill="black"/>
<path d="M189.19 128.67L212.7 115.6C224.43 109.08 239.22 113.3 245.73 125.03L254.77 141.29C261.29 153.02 257.07 167.83 245.33 174.35L220.85 188.9L214.9 165.97L189.19 128.67Z" fill="black"/>
<path d="M277.1 359.78C274.69 359.78 272.28 359.2 270.12 358.1L179.76 311.99L180.3 310.36C185.18 295.64 199.48 291.61 201.61 291.09C203.01 290.4 213.29 285.01 216.81 274.38C219.26 266.99 217.97 258.61 212.98 249.49C199.86 225.51 208.5 206.04 214.82 196.57C217.55 192.48 221.97 189.9 226.94 189.5L237.96 188.61C247.54 187.83 256.82 185.39 265.54 181.36L330.1 151.47L351.86 176.29C352.76 177.31 353.16 178.67 352.98 180.02C352.8 181.37 352.04 182.56 350.9 183.31L293.92 220.55C300.04 230.18 308.99 250.68 308.69 287.84C308.49 313.19 297.37 338.58 290.77 351.45C288.13 356.6 282.89 359.8 277.1 359.8V359.78Z" fill="white" stroke="black" stroke-width="4"/>
<path d="M73.3404 383.23L15.8704 353.33C15.0904 352.92 14.7704 351.96 15.1604 351.17L16.0904 349.28C16.3804 348.69 17.0104 348.33 17.6604 348.38L70.9604 352.27C71.6804 352.32 72.2804 352.84 72.4304 353.55L77.7004 375.2L73.3304 383.24L73.3404 383.23Z" fill="white" stroke="black" stroke-width="4"/>
<path d="M215.32 272.41L197.43 292.65L223.56 294.85C225.7 294.94 228.2 293.53 229.34 292.12L240.35 278.44C241.1 277.51 240.59 276.12 239.42 275.88L215.32 272.41Z" fill="black"/>
<path d="M229.73 121.32C227.82 117.89 225.01 112.97 222.16 110.62C222.16 110.62 214.61 112.27 211.5 114L186 128.5C186 128.5 178.08 134.31 182.22 149.81C187.78 170.61 206.93 184.29 219.87 181.55L214.54 162.33C229.52 154.63 237.59 135.44 229.73 121.31V121.32Z" fill="white"/>
<path d="M197 123.041L227.5 107C227.5 107 249 93.5 254 126" stroke="black" stroke-width="4"/>
<path d="M218.821 161.08C213.201 155.51 205.301 160.09 206.851 165.92C207.931 170 212.731 171.66 216.331 170.55C225.381 167.74 224.451 166.65 218.821 161.08Z" fill="black"/>
<path d="M253.891 139.901C251.357 140.783 247.954 139.31 245.228 136.153C241.385 131.702 240.052 125.314 242.246 121.922C242.823 121.022 243.592 120.409 244.53 120.083C247.064 119.201 250.467 120.675 253.193 123.831C257.036 128.282 258.369 134.671 256.176 138.063C255.598 138.963 254.829 139.575 253.891 139.901Z" fill="white" stroke="black" stroke-width="4"/>
<path d="M235.84 149.94C231.79 149.94 227.67 147.24 225.35 143.07C222.08 137.19 223.35 130.23 228.16 127.56C229.43 126.85 230.83 126.5 232.33 126.5C236.38 126.5 240.5 129.2 242.82 133.37C246.09 139.25 244.82 146.21 240.01 148.88C238.74 149.59 237.34 149.94 235.84 149.94Z" fill="white" stroke="black" stroke-width="4"/>
<path d="M380.061 49.98L380.411 50.49C381.011 51.38 382.171 51.72 383.161 51.29L393.71 46.73L389.671 40.76L380.671 46.85C379.641 47.54 379.381 48.94 380.071 49.96L380.061 49.98Z" fill="black"/>
<path d="M372.65 206.67L388.11 203.85C388.31 203.81 388.51 203.82 388.7 203.85L377.72 120.47C377.12 115.89 372.91 112.67 368.34 113.27C363.76 113.87 360.54 118.07 361.14 122.65L372.23 206.8C372.36 206.74 372.5 206.7 372.65 206.67Z" fill="black"/>
<path d="M389.19 207.61C389.07 207.66 388.94 207.7 388.81 207.72L373.35 210.54C373.23 210.56 373.11 210.57 373 210.57C372.91 210.57 372.81 210.56 372.72 210.55L380.47 269.35L396.91 266.25L389.19 207.61Z" fill="black"/>
<path d="M328.581 151.9L382.001 75.21C382.001 75.21 382.131 60.67 381.741 57.89C381.341 55.11 400.981 50.75 400.981 50.75L406.561 67.34L408.191 79.34L350.401 172.92L328.581 151.9Z" fill="black"/>
<path d="M378.731 54.6008L389.558 40.561C390.639 39.1594 392.645 38.9004 394.047 39.9813L415.134 56.2442L402.352 72.8179C401.082 74.465 398.705 74.779 397.05 73.5027L379.416 59.9024C377.769 58.6322 377.454 56.2557 378.731 54.6008Z" fill="black"/>
<path d="M60.3804 544.58H439.78" stroke="black" stroke-width="4" stroke-linecap="round"/>
<path d="M110.74 544.58L102.59 531.91C100.62 528.84 99.5903 525.26 99.6503 521.61L98.3903 507.41L87.4203 495.36L69.5903 511.99L94.7903 544.58H110.75H110.74Z" fill="white" stroke="black" stroke-width="4"/>
<path d="M174.5 112C187.975 112 199 123.178 199 137C199 150.822 187.975 162 174.5 162C161.024 162 150 150.822 150 137C150 123.178 161.024 112 174.5 112Z" fill="white" stroke="black" stroke-width="4"/>
<path d="M403.521 163.92L390.101 169.88" stroke="black" stroke-width="4" stroke-linecap="round"/>
<path d="M219.86 181.56C219.86 181.56 201.83 187.08 186 160.62L219.86 181.56Z" fill="white"/>
<path d="M219.86 181.56C219.86 181.56 201.83 187.08 186 160.62" stroke="black" stroke-width="4"/>
<path d="M234.48 522.59L360.51 320.89L310.5 281.5L169.51 523.18L234.48 522.59Z" fill="black"/>
<path d="M291.9 219.59L279.96 227.93C278.55 228.91 278.97 231.09 280.64 231.49L302.06 236.53L291.9 219.6V219.59Z" fill="black"/>
<path d="M404.37 163.68L388.7 171.5L407.07 177.55L404.37 163.68Z" fill="black"/>
<path d="M216.4 270.25C217.44 270.25 227.34 266.44 227.34 266.44V267.91C227.34 269.89 226.22 271.7 224.45 272.58L219.21 275.2" fill="black"/>
</svg>
