<svg width="448" height="430" viewBox="0 0 448 430" fill="none" xmlns="http://www.w3.org/2000/svg">
<g clip-path="url(#clip0_6341_171)">
<path d="M268.81 381.44C268.81 381.44 170.01 359.47 85.0999 265.53C0.199879 171.59 77.0099 95.64 145.83 96.07C191.06 96.35 215.42 119.47 215.42 119.47C215.42 119.47 249.65 32.04 333.72 50.59C417.8 69.14 419.93 152.08 414.84 184.7C398.16 291.75 268.81 381.44 268.81 381.44Z" fill="black"/>
<path d="M219.31 226.2C226.15 217.1 233.13 183.04 222.76 155.42C207.1 113.72 165.35 117.8 164.71 117.85C128.94 120.75 117.71 157.15 117.71 157.15C117.71 157.15 84.34 145.08 63.91 169.57C39.08 199.35 62.11 232.54 62.11 232.54C62.11 232.54 49.18 237.78 39.45 248.79C28.61 260.67 22 276.48 22 293.83C22 330.75 51.93 360.68 88.85 360.68C89.41 360.68 89.97 360.65 90.53 360.64C114.06 361.38 145.88 340.07 150.78 317.34C150.78 317.34 174.95 270.85 191.43 281.62C200.65 287.64 211.84 287.46 212.03 287.46C229.18 287.46 243.09 273.55 243.09 256.4C243.09 241.75 232.95 229.48 219.3 226.21L219.31 226.2Z" fill="white" stroke="black" stroke-width="4"/>
<path d="M162.13 133.03L171.98 132.06C191.87 130.1 209.58 144.64 212.41 165.51L216.23 204.3C217.32 223.22 202.78 240.93 182.88 242.89L137.01 247.4L129.65 172.59C127.69 152.7 142.23 134.99 162.12 133.03H162.13Z" fill="black"/>
<path d="M292.91 234.68L289.18 313.1L345.3 271.61L339.31 215.67" fill="white"/>
<path d="M292.91 234.68L289.18 313.1L345.3 271.61L339.31 215.67" stroke="black" stroke-width="4" stroke-miterlimit="10"/>
<path d="M344.24 250.84C334.98 280.88 303.18 303.49 292.92 288.8C289.18 283.45 291.16 259.08 291.16 259.08C291.16 259.08 253.16 265.55 238.92 282.9C222.12 303.37 220.26 362.79 220.26 362.79L268.81 381.45L383.98 261.23C377.03 254.42 364.62 252.52 344.24 250.86V250.84Z" fill="white" stroke="black" stroke-width="4"/>
<path d="M168.25 266.37C168.25 266.37 178.04 265.49 183.15 272.58L224.94 318.6C255.51 349.72 313.63 331.88 333.23 292.91L343.04 273.41C349.29 260.98 359.44 251.62 373.09 254.32C378.08 255.31 385.61 258.89 385.61 260.81C385.61 260.81 375.1 278.63 360.12 295.22C347.33 309.4 339.61 319.73 323.57 335.26C298.53 359.5 268.82 381.43 268.82 381.43L210.3 361.39L170.39 333.34L143.49 305.34C138.17 298.48 146.32 286.01 148.72 277.67L140.08 264.42C143.43 252.77 156.13 266.38 168.26 266.38L168.25 266.37Z" fill="black"/>
<path d="M214.68 161.47C214.68 161.47 212.48 166.73 196.29 158.87C180.49 151.2 162.1 150.25 162.1 150.25C162.1 150.25 167.83 175.04 152.71 186.09C137.59 197.15 126.58 178.16 126.58 178.16C126.58 178.16 125.07 153.87 133.96 139.41C142.85 124.95 181.87 127.03 192.07 130.67C206.35 135.76 211.88 147.21 211.88 147.21L214.67 161.48L214.68 161.47Z" fill="white"/>
<path d="M159.86 211.68L175.43 243.63L177.12 247.76C178.78 251.83 180.61 255.82 182.6 259.74L189.6 273.52L146.12 265.86L159.85 211.68H159.86Z" fill="black"/>
<path d="M342.58 246.19L290.49 274.37V234.48L345.3 239.36L342.58 246.19Z" fill="black"/>
<path d="M216.33 312.26L183.2 267.26C182.98 267.03 182.76 266.78 182.54 266.53C172.6 255.37 155.18 255.16 145.26 266.34C145.21 266.39 145.17 266.45 145.12 266.5C130.4 282.95 130.51 311.84 149.18 323.6C165.83 334.09 183.36 345.14 183.36 345.14L216.33 312.26Z" fill="#FF0077" stroke="black" stroke-width="4"/>
<path d="M139.39 273.52C182.03 217.52 134.26 181.95 134.26 181.95L115.25 182.94" fill="white"/>
<path d="M259.08 132.09C233.16 134.1 224 147.02 240.69 167.68C257.38 188.34 272.3 173.77 272.3 173.77L259.08 132.09Z" fill="#FF0077"/>
<path d="M245.8 157.33L249 251C249.21 257.11 255.7 260.92 261.14 258.14L324.02 225.95L277.7 145.08L245.81 157.32L245.8 157.33Z" fill="#FF0077"/>
<path d="M276.009 122.68C254.629 129.79 248.679 141.42 248.149 155.71L261.169 207.39C266.969 232.95 291.369 240.35 312.749 233.24C334.129 226.13 345.709 203.04 338.599 181.66L327.589 148.53C320.479 127.15 297.389 115.57 276.009 122.68Z" fill="white" stroke="black" stroke-width="4" stroke-miterlimit="10"/>
<path d="M245.34 154.03C245.34 154.03 259.05 162.85 273.19 166.08C283.85 168.51 311.9 166.12 311.9 166.12L306.63 231.32C306.6 231.69 306.58 232.06 306.58 232.42C306.36 244.63 319.67 252.42 330.55 246.88L394.19 214.46C398.26 212.39 399.61 207.23 397.07 203.44C386.63 187.82 361.47 150.08 346.5 126.73C319.22 84.2 275.64 103.7 257.16 122.74C244.46 135.83 245.37 154.02 245.37 154.02L245.34 154.03Z" fill="#FF0077"/>
<path d="M255.15 134.23C255.15 134.23 241.31 124.07 222.75 139.59" stroke="#FF0077" stroke-width="4"/>
<path d="M154.31 294.04C154.31 315.25 144.21 332.44 133.95 332.44C123.69 332.44 117.18 315.25 117.18 294.04C117.18 272.83 125.49 255.64 135.74 255.64C145.99 255.64 154.3 272.83 154.3 294.04H154.31Z" fill="white"/>
<path d="M149.18 323.6C158.17 304.27 158.39 281.21 148.54 262.92L151.62 259.18" stroke="black" stroke-width="4"/>
<path d="M248.78 158.22C248.78 158.22 270.37 172.64 311.89 166.11L304 245.14" stroke="black" stroke-width="4" stroke-miterlimit="10"/>
<path d="M61.47 232.9C18.3 154.04 85.24 93.01 145.83 96.07C190.96 98.35 215.42 119.47 215.42 119.47C215.42 119.47 249.65 32.04 333.72 50.59C417.8 69.14 419.93 152.08 414.84 184.7C398.16 291.75 268.81 381.44 268.81 381.44C268.81 381.44 213.23 369.08 149.63 323.27" stroke="black" stroke-width="4"/>
</g>
<defs>
<clipPath id="clip0_6341_171">
<rect width="398.45" height="337.78" fill="white" transform="translate(20 46)"/>
</clipPath>
</defs>
</svg>
