<svg width="448" height="430" viewBox="0 0 448 430" fill="none" xmlns="http://www.w3.org/2000/svg">
<g clip-path="url(#clip0_6341_169)">
<path d="M178.26 134.48C178.15 139.92 171.94 67.2701 220.07 59.5601C253.97 54.1201 224 96.0801 234.49 82.6701C267.64 42.6101 322.68 60.1001 296.43 98.4201C238.8 182.56 241.48 228.11 241.56 228.19L170.56 208.54C170.56 208.54 122.39 150.76 160.49 119.05C178.02 104.46 178.27 134.47 178.27 134.47" fill="black"/>
<path d="M75.23 176.85C65.63 170.07 25.01 139.32 52.27 98.92C71.47 70.46 81.62 121.01 79 104.19C72.41 52.61 122.8 24.38 132.83 69.74C154.85 169.32 196.34 185.88 196.45 185.88C196.45 185.88 229.86 157.31 280.23 154.2C280.8 154.16 281.37 154.2 281.95 154.2C303.37 154.69 320.97 172.07 321.72 193.48C322.39 212.71 309.73 229.09 292.27 234.1C285.91 280.15 246.4 315.6 198.6 315.6C166.53 315.6 141.97 294.74 127.63 274.09C126.62 272.64 124.55 272.5 123.32 273.78C117.56 279.75 110.42 298.29 114.2 364.33C114.75 373.86 107.24 384.47 95.58 382.65C82.2 379.96 81.11 363.26 81.09 363.19C81.09 363.19 75.38 370.82 68.65 373.13C60.77 375.84 45.67 370.46 46.06 358.12C48.51 280.21 113.12 243.88 129.44 231.48C130.39 230.75 129.89 229.23 128.69 229.23C112.84 229.16 52.46 226.09 54.98 183.09C56.31 160.33 75.99 177.79 81.44 181.56C96.12 191.72 110.71 203.68 136.5 210.74" fill="white"/>
<path d="M75.23 176.85C65.63 170.07 25.01 139.32 52.27 98.92C71.47 70.46 81.62 121.01 79 104.19C72.41 52.61 122.8 24.38 132.83 69.74C154.85 169.32 196.34 185.88 196.45 185.88C196.45 185.88 229.86 157.31 280.23 154.2C280.8 154.16 281.37 154.2 281.95 154.2C303.37 154.69 320.97 172.07 321.72 193.48C322.39 212.71 309.73 229.09 292.27 234.1C285.91 280.15 246.4 315.6 198.6 315.6C166.53 315.6 141.97 294.74 127.63 274.09C126.62 272.64 124.55 272.5 123.32 273.78C117.56 279.75 110.42 298.29 114.2 364.33C114.75 373.86 107.24 384.47 95.58 382.65C82.2 379.96 81.11 363.26 81.09 363.19C81.09 363.19 75.38 370.82 68.65 373.13C60.77 375.84 45.67 370.46 46.06 358.12C48.51 280.21 113.12 243.88 129.44 231.48C130.39 230.75 129.89 229.23 128.69 229.23C112.84 229.16 52.46 226.09 54.98 183.09C56.31 160.33 75.99 177.79 81.44 181.56C96.12 191.72 110.71 203.68 136.5 210.74" stroke="black" stroke-width="4" stroke-miterlimit="10" stroke-linecap="round"/>
<path d="M381.339 209.741L226.728 239.402C223.224 240.075 220.929 243.46 221.601 246.964L240.515 345.556C241.188 349.06 244.573 351.355 248.077 350.683L402.687 321.022C406.191 320.349 408.487 316.964 407.815 313.46L388.9 214.868C388.228 211.364 384.842 209.069 381.339 209.741Z" fill="black"/>
<path fill-rule="evenodd" clip-rule="evenodd" d="M348.516 147.659C352.251 148.256 355.416 150.831 356.517 154.381C357.024 155.992 357.147 157.676 356.813 159.347C355.973 163.459 352.535 166.266 348.689 167.657C342.259 169.987 334.345 168.926 328.076 167.193C327.68 167.071 327.346 166.802 327.198 166.4C324.811 160.421 322.957 152.771 324.663 146.219C325.689 142.302 328.175 138.654 332.243 137.422C333.888 136.921 335.607 136.885 337.288 137.214C340.986 137.958 343.904 140.801 344.868 144.389L345.623 147.207L348.541 147.671H348.529L348.516 147.659Z" fill="#FF0077" stroke="black" stroke-width="4" stroke-miterlimit="10"/>
<path fill-rule="evenodd" clip-rule="evenodd" d="M313.188 81.6778C321.453 80.031 330.079 83.0251 335.228 89.712C337.559 92.7311 339.155 96.2367 339.741 100.004C341.212 109.386 336.25 117.982 329.306 123.932C317.688 133.888 300.335 137.793 285.862 138.99C284.939 139.065 284.029 138.703 283.406 138.005C273.72 127.176 263.797 112.393 262.201 97.1848C261.254 88.1027 263.56 78.4217 271.077 72.6205C274.106 70.2751 277.672 68.8405 281.436 68.2541C289.751 66.9566 298.079 70.7118 302.941 77.5983L306.743 82.9752L313.188 81.6902V81.6778Z" fill="#FF0077" stroke="black" stroke-width="4" stroke-miterlimit="10"/>
<path d="M282.92 186.18C286.81 182.67 292.8 182.98 296.31 186.87C299.82 190.76 299.51 196.75 295.62 200.26" stroke="black" stroke-width="5" stroke-miterlimit="10" stroke-linecap="round"/>
<path d="M78.9902 104.18C78.9902 104.18 83.5102 155.38 171.98 201.23" stroke="black" stroke-width="4" stroke-miterlimit="10" stroke-linecap="round"/>
<path d="M233.16 246.49L313.36 281.5L377.91 222.22" stroke="white" stroke-width="4" stroke-miterlimit="10" stroke-linecap="round"/>
<path fill-rule="evenodd" clip-rule="evenodd" d="M315.08 259.38C320.05 254.87 327.16 253.38 333.41 255.83C336.23 256.94 338.75 258.67 340.71 261C345.56 266.8 345.68 274.7 343.38 281.6C339.53 293.15 329.28 302.92 319.87 309.67C319.27 310.1 318.5 310.23 317.79 310.01C306.74 306.59 293.92 300.58 286.6 290.84C282.23 285.02 279.85 277.49 282.61 270.46C283.72 267.62 285.57 265.18 287.9 263.23C293.04 258.93 300.26 258.1 306.4 260.79L311.19 262.89L315.07 259.37L315.08 259.38Z" fill="#FF0077" stroke="black" stroke-width="4" stroke-miterlimit="10"/>
<path d="M291.72 217.43C294.34 216.93 298.12 216.46 302.68 216.58C307.18 216.71 310.23 217.5 312.08 218.2C313.01 218.55 313.65 218.89 314.03 219.11C314.03 219.11 314.03 219.11 314.04 219.11C314.16 219.4 314.32 219.83 314.5 220.43C314.88 221.7 315.36 223.7 315.72 226.64L315.87 227.95C316.23 231.5 315.99 235.23 315.64 238.12C315.57 238.73 315.49 239.3 315.41 239.82C314.54 239.41 313.51 238.9 312.37 238.29C308.87 236.42 304.4 233.65 300.41 230.05C296.43 226.46 293.62 222.67 291.81 219.78C291.32 219 290.9 218.28 290.55 217.66C290.91 217.58 291.29 217.5 291.71 217.42L291.72 217.43Z" fill="white" stroke="black" stroke-width="4"/>
</g>
<defs>
<clipPath id="clip0_6341_169">
<rect width="366.94" height="339.85" fill="white" transform="translate(41 45)"/>
</clipPath>
</defs>
</svg>
