<svg width="662" height="582" viewBox="0 0 662 582" fill="none" xmlns="http://www.w3.org/2000/svg">
<g clip-path="url(#clip0_6341_170)">
<path d="M240.94 84.09H78.8896C73.3668 84.09 68.8896 88.5671 68.8896 94.09V401.66C68.8896 407.183 73.3668 411.66 78.8896 411.66H240.94C246.462 411.66 250.94 407.183 250.94 401.66V94.09C250.94 88.5671 246.462 84.09 240.94 84.09Z" fill="black"/>
<path d="M582.24 169.82H420.19C414.668 169.82 410.19 174.297 410.19 179.82V487.39C410.19 492.913 414.668 497.39 420.19 497.39H582.24C587.763 497.39 592.24 492.913 592.24 487.39V179.82C592.24 174.297 587.763 169.82 582.24 169.82Z" fill="black"/>
<path d="M309.999 235.619L286.938 244.067C285.216 244.698 284.332 246.605 284.962 248.326L285.509 249.819C286.14 251.541 288.047 252.425 289.769 251.795L312.83 243.346C314.552 242.716 315.436 240.809 314.805 239.087L314.258 237.594C313.628 235.872 311.721 234.988 309.999 235.619Z" fill="black"/>
<path d="M292.94 241.71C288.61 243.17 282.82 245.53 280.12 249.22C272.66 259.43 261.43 275.74 261.43 275.74L280.75 292.33C286.5 276.48 290.06 268.14 290.06 268.14L297.95 240.02L292.95 241.71H292.94Z" fill="black"/>
<path d="M293.64 246.49L306.88 241.16C310.37 239.76 314.08 242.62 313.61 246.35L311.1 266.31C310.89 267.97 309.86 269.41 308.36 270.13L279.25 278.58L293.63 246.48L293.64 246.49Z" fill="black"/>
<path d="M161.26 192.87L189.38 170.49L199.56 230.26L170.97 273.34L136.62 231.82L161.26 192.87Z" fill="black"/>
<path d="M224.07 160.59L180.83 155.64C175.7 155.05 171.08 158.6 170.51 163.55L162.98 229.33C162.41 234.29 166.11 238.78 171.24 239.37L212.18 244.06C217.31 244.65 221.93 241.1 222.5 236.15L224.49 218.75L230.29 168.14C230.72 164.41 227.93 161.03 224.08 160.59H224.07Z" fill="black"/>
<path d="M329.89 211.13L328.29 196.64C328.23 196.13 327.84 195.72 327.34 195.64L300.95 191.42C300.47 191.34 299.99 191.58 299.76 192.01L292.91 204.85C292.03 206.49 291.42 208.21 291.06 209.97C289.72 216.47 291.86 223.38 297.01 227.99C302.64 233.02 310.7 234.26 317.57 231.13L318.86 230.54C324.47 227.99 328.38 222.95 329.6 217.14C330.01 215.2 330.12 213.18 329.89 211.14V211.13Z" fill="white" stroke="black" stroke-width="4"/>
<path d="M297 227.97C302.63 233 310.69 234.24 317.56 231.11L318.85 230.52C324.46 227.97 328.37 222.93 329.59 217.12C330 215.18 330.11 213.16 329.88 211.12L329.82 210.56C329.82 210.56 324.2 216.47 310.33 210.56C296.45 204.65 290.95 210.56 290.95 210.56C289.86 216.88 292.02 223.5 297 227.97Z" fill="#FF0077" stroke="black" stroke-width="4"/>
<path d="M222.48 218.52L190.38 213.98C186.44 213.42 183.68 209.78 184.21 205.84L188.34 169.15L227.65 173.35C227.65 173.35 237.11 174.31 239.09 161.14C242.37 139.25 224.22 150.47 210.48 151.94C203.44 152.69 196.33 151.67 189.8 148.92C183.27 146.17 174.43 143.88 166.1 146.75C150.92 151.98 147.88 169.62 150.56 178.19C153.24 186.77 157.31 195.82 157.31 195.82L162.27 199.74L159.78 234.15C159.41 238.89 162.7 243.13 167.38 243.96L204.63 250.53C211.87 251.81 218.72 246.79 219.69 239.5L222.48 218.53V218.52Z" fill="white" stroke="black" stroke-width="4"/>
<path d="M165.3 202.24C167.94 201.15 170.47 197.36 168.8 192.76C167.13 188.16 162.8 185.52 159.12 186.86C155.44 188.19 152.49 193.71 155.46 197.59C158.75 201.89 162.64 203.33 165.29 202.24H165.3Z" fill="black"/>
<path d="M147.78 409.69H196.27V382.99L161.73 381.77L147.78 409.69Z" fill="black"/>
<path d="M138.63 292.37L130.89 295.94C132.11 297.47 133.36 298.99 134.63 300.5L138.63 292.37Z" fill="white"/>
<path d="M290.38 295.18L257.05 273.24C247.22 288.7 236 305.82 225.09 322.25C214.52 309.37 201.91 294.82 191.74 283.54C196.1 295.28 193.42 306.8 189.45 323.72C189.45 323.75 189.44 323.78 189.43 323.81L182.21 348.32C187.5 352.98 192.78 357.61 197.99 362.23C199.71 363.75 203.94 367.77 206.45 369.92C219.68 381.27 237.93 383.22 246.63 369.05C260.55 347.48 276.9 322.46 291.52 300.88C292.8 299 292.28 296.44 290.38 295.18Z" fill="white" stroke="black" stroke-width="4"/>
<path d="M184.22 349.49L189.92 330.15L191.01 326.45C191.01 326.45 191.03 326.38 191.03 326.35C196.47 303.11 199.1 291.71 186.09 275.84C184.77 274.45 183.57 273.19 182.52 272.13C181.31 270.82 180.02 269.48 178.61 268.1L151.57 241.16L151.53 241.13C149.01 238.5 145.93 236.06 142.32 233.87C126.18 226.21 106.93 233.87 100.47 250.53L52.0699 361.7C43.1199 384.8 54.2299 409.69 79.0099 409.69H184.12C184.12 409.69 177.99 405.47 177.99 386.31C177.99 372.16 180.59 364.9 182.41 361.56C182.94 360.59 182.46 359.39 181.41 359.06L184.23 349.5L184.22 349.49Z" fill="white" stroke="black" stroke-width="4"/>
<path d="M152.76 207.79L135.05 236.53" stroke="white" stroke-width="4" stroke-linecap="round"/>
<path d="M184.12 408.83C191.012 408.83 196.6 397.516 196.6 383.56C196.6 369.604 191.012 358.29 184.12 358.29C177.227 358.29 171.64 369.604 171.64 383.56C171.64 397.516 177.227 408.83 184.12 408.83Z" fill="black"/>
<path d="M139.23 294.27L108.48 356.76C107.88 357.98 108.76 359.4 110.12 359.4L182.55 360.23" stroke="black" stroke-width="4" stroke-linecap="round"/>
<path d="M224.67 324.49V309.79C224.67 308.8 223.87 308 222.88 308H214.19C213.2 308 212.4 308.8 212.4 309.79V324.49C205.39 326.74 200.32 333.3 200.32 341.06V408.49L236.76 408.94V341.07C236.76 333.32 231.69 326.75 224.68 324.5L224.67 324.49Z" fill="#FF0077" stroke="black" stroke-width="4"/>
<path d="M222.35 386.26H220.02L219.92 386.93H221.59C223.43 386.93 224.91 388.41 224.91 390.25C224.91 392.09 223.42 393.57 221.59 393.57H218.91L218.81 394.24L220.31 394.27C222.15 394.27 223.63 395.76 223.63 397.59C223.63 399.43 222.14 400.92 220.3 400.92L217.79 400.89L216.99 401.55H217.06C218.96 401.55 220.58 403.02 220.64 404.92C220.71 406.9 219.12 408.53 217.15 408.53H205.13H192.4H191.38L191 381.86L198.14 375.6C199.17 374.69 200.97 374.19 202.35 374.18L202.37 379.3L222.35 379.27C224.28 379.27 225.84 380.83 225.84 382.76C225.84 384.69 224.28 386.25 222.35 386.25V386.26Z" fill="black"/>
<path d="M224.221 203.99C223.851 203.99 223.491 203.95 223.131 203.89C218.671 203.03 216.191 197.09 217.491 190.38C218.671 184.28 222.531 179.84 226.671 179.84C227.041 179.84 227.401 179.88 227.761 179.94C232.221 180.8 234.701 186.74 233.401 193.45C232.221 199.55 228.361 203.99 224.221 203.99Z" fill="white"/>
<path d="M226.67 181.84C226.91 181.84 227.14 181.86 227.38 181.91C230.69 182.55 232.51 187.55 231.44 193.08C230.45 198.21 227.31 202 224.22 202C223.98 202 223.75 201.98 223.51 201.93C220.2 201.29 218.38 196.29 219.45 190.76C220.44 185.63 223.58 181.84 226.67 181.84ZM226.68 177.84C221.5 177.84 216.92 182.84 215.53 190C213.99 197.94 217.1 204.76 222.75 205.86C223.23 205.95 223.73 206 224.22 206C229.4 206 233.98 201 235.37 193.84C236.91 185.9 233.8 179.08 228.15 177.98C227.67 177.89 227.17 177.84 226.68 177.84Z" fill="black"/>
<path d="M206.459 200.08C205.839 200.08 205.219 200.02 204.619 199.9C198.769 198.77 195.049 192.47 196.329 185.87C197.459 180.02 202.119 175.78 207.409 175.78C208.029 175.78 208.649 175.84 209.249 175.96C215.099 177.09 218.819 183.38 217.539 189.99C216.409 195.84 211.749 200.08 206.459 200.08Z" fill="white"/>
<path d="M207.41 177.78C207.89 177.78 208.38 177.83 208.87 177.92C213.65 178.84 216.65 184.08 215.58 189.6C214.62 194.56 210.7 198.07 206.46 198.07C205.98 198.07 205.49 198.02 205 197.93C200.22 197.01 197.22 191.78 198.29 186.25C199.25 181.29 203.17 177.78 207.41 177.78ZM207.41 173.78C201.16 173.78 195.68 178.71 194.36 185.49C192.87 193.17 197.3 200.52 204.24 201.86C204.97 202 205.72 202.07 206.46 202.07C212.71 202.07 218.19 197.14 219.51 190.36C221 182.68 216.57 175.33 209.63 173.99C208.9 173.85 208.15 173.78 207.41 173.78Z" fill="black"/>
<path d="M476.26 384.01C368.8 377.94 365.21 280.08 365.21 280.08L384.63 284.33C386.15 291.66 415.88 348.24 482.35 324.23L476.26 384V384.01Z" fill="black"/>
<path d="M434.52 385.66C448.17 389.08 462.45 389.42 476.26 386L482.35 326.23C463.48 333.05 447.63 333.53 434.58 330.57L434.52 385.66Z" fill="white" stroke="black" stroke-width="4"/>
<path d="M495.13 489.47L469.72 372.83C463.36 345.68 470.67 328.02 492.33 321.34L520.83 312.56L601.62 482.14L495.13 489.47Z" fill="white" stroke="black" stroke-width="4"/>
<path d="M485.78 305C516.28 315.38 525.17 303.21 531.1 287.24C537.03 271.27 525.91 251.26 510.72 249.41C495.53 247.56 472.73 249.41 472.73 249.41L485.78 305Z" fill="#FF0077"/>
<path d="M458.55 280.28C448.33 287.94 430.58 270.33 435.3 258.82C439.39 248.86 455.47 241.87 455.47 241.87C455.47 241.87 467.77 211.37 500.71 232.59C524.08 247.65 513.92 271.45 506.66 276.38C498.64 281.84 458.56 280.28 458.56 280.28H458.55Z" fill="#FF0077"/>
<path d="M517.45 357.25L515.59 334.27L503.25 250.55L475.21 256.61L465.03 316.37L508.45 350.97L517.45 357.25Z" fill="black"/>
<path d="M476.22 249.05C491.22 251.75 501.19 266.1 498.49 281.1L494.03 305.87C491.33 320.87 476.98 330.84 461.98 328.14C446.98 325.44 442.49 312.07 442.49 300.09C442.49 288.11 444.17 271.33 444.17 271.33C446.87 256.33 461.22 246.36 476.22 249.06V249.05Z" fill="black"/>
<path d="M462.12 326.62C448.65 324.19 444.61 312.19 444.61 301.42C444.61 295.22 445.11 287.59 445.54 282.23" fill="black"/>
<path d="M462.12 326.62C448.65 324.19 444.61 312.19 444.61 301.42C444.61 295.22 445.11 287.59 445.54 282.23" stroke="white" stroke-width="4" stroke-linecap="round"/>
<path d="M458.43 241.87C458.43 241.87 448.84 249.12 464.15 269.06C478.52 287.78 514.82 288.86 514.82 288.86C514.82 288.86 524.89 246.18 490.84 234.13C470.17 226.82 458.43 241.87 458.43 241.87Z" fill="#FF0077"/>
<path d="M508.23 351.75C530.7 363.75 546.72 369.97 562.29 370.92C574.37 371.66 574.38 441.12 584.79 433.11C619.23 406.6 614.41 356.28 581.32 334.09C549.82 312.96 537.48 320.27 527.63 279.04C520.99 251.28 504.79 271.05 504.79 271.05C504.79 271.05 472.28 332.55 508.23 351.76V351.75Z" fill="#FF0077"/>
<path d="M504.167 293.889C508.154 289.902 508.793 284.077 505.595 280.878C502.397 277.68 496.572 278.32 492.584 282.307C488.597 286.294 487.958 292.119 491.156 295.318C494.354 298.516 500.179 297.876 504.167 293.889Z" fill="black"/>
<path d="M343.244 240.374L361.159 257.174C362.497 258.428 364.598 258.361 365.852 257.023L366.94 255.863C368.194 254.526 368.126 252.425 366.789 251.171L348.874 234.371C347.536 233.116 345.435 233.184 344.181 234.521L343.093 235.681C341.839 237.019 341.907 239.12 343.244 240.374Z" fill="black"/>
<path d="M385.37 286.41L378.06 265.76C376.48 261.29 373.79 257.29 370.25 254.13L363.49 248.1L362.04 271.16C362.04 271.16 366.29 279.54 368.28 295.94" fill="black"/>
<path d="M360.89 249.23L348.33 242.46C345.02 240.68 341.01 243.11 341.06 246.87L341.32 266.99C341.34 268.66 342.21 270.2 343.62 271.1L371.6 282.75L360.88 249.25L360.89 249.23Z" fill="black"/>
<path d="M370.57 211.31L365.83 197.55C365.67 197.09 365.24 196.78 364.75 196.78H338.02C337.51 196.78 337.06 197.12 336.92 197.62L333.05 211.68C332.51 213.66 332.29 215.67 332.39 217.65L345.42 226.15L371.58 216.66C371.5 214.87 371.17 213.07 370.56 211.32L370.57 211.31Z" fill="white" stroke="black" stroke-width="4"/>
<path d="M371.59 216.65C371.59 216.65 362.79 212.25 352.01 217.15C345.58 220.07 336.91 218.64 333.68 217.95C333.03 217.81 332.44 218.36 332.52 219.03C333.18 224.44 336.15 229.44 340.89 232.58L342.07 233.36C348.36 237.53 356.52 237.59 362.87 233.51C368.68 229.78 371.89 223.29 371.59 216.66V216.65Z" fill="#FF0077" stroke="black" stroke-width="4"/>
<path d="M536.51 334.23L571.77 457.51L485.41 466.17C485.41 466.17 515.2 431.21 509.91 378.15C509.91 378.15 501.21 337.58 536.51 334.23Z" fill="white" stroke="black" stroke-width="4"/>
<path d="M592.78 383.41L563.71 343.98C556.13 333.62 542.1 331.22 531.33 335.89C519.78 340.9 514.51 354.34 519.58 365.86L538.56 407.4" fill="white"/>
<path d="M592.78 383.41L563.71 343.98C556.13 333.62 542.1 331.22 531.33 335.89C519.78 340.9 514.51 354.34 519.58 365.86L538.56 407.4" stroke="black" stroke-width="4"/>
<path d="M567.869 400.421C583.885 393.42 595.856 385.427 594.606 382.568C593.357 379.709 579.36 383.066 563.343 390.067C547.326 397.068 535.355 405.061 536.605 407.92C537.855 410.779 551.852 407.422 567.869 400.421Z" fill="black"/>
<path d="M455.58 259.12C458.076 259.12 460.1 256.134 460.1 252.45C460.1 248.766 458.076 245.78 455.58 245.78C453.083 245.78 451.06 248.766 451.06 252.45C451.06 256.134 453.083 259.12 455.58 259.12Z" fill="white" stroke="black" stroke-width="4"/>
<path d="M449.81 493.01C449.81 493.01 449.26 491.48 448.45 493.01C447.93 494 447.07 498.13 447.07 498.13H451.51L449.81 493.01Z" fill="black"/>
<path d="M588.04 336.53C588.04 336.53 634.17 373.87 591.95 428.56" stroke="black" stroke-width="4"/>
<path d="M455.3 498.01H499.97H590.52C607.43 498.01 619.15 481.12 613.22 465.28L584.81 385.01C574.87 387.51 542.59 402.3 544.83 407.84L565.7 459.33L478.94 467.43C442.68 469.18 428.91 498.47 428.91 498.47" fill="black"/>
<path d="M427.39 499.02C427.39 499.02 442.66 468.17 478.93 466.43L562.28 457.15C563.46 457.02 564.15 455.76 563.63 454.69L549.03 424.62" stroke="white" stroke-width="4" stroke-linecap="round"/>
<path d="M422.27 166.33H580.15C585.67 166.33 590.15 170.81 590.15 176.33V202.27H412.27V176.33C412.27 170.81 416.75 166.33 422.27 166.33Z" fill="white" stroke="black" stroke-width="4"/>
<path d="M514.98 180.24H487.45C485.207 180.24 483.39 182.058 483.39 184.3C483.39 186.542 485.207 188.36 487.45 188.36H514.98C517.222 188.36 519.04 186.542 519.04 184.3C519.04 182.058 517.222 180.24 514.98 180.24Z" fill="black"/>
<path d="M80.9697 82H238.85C244.37 82 248.85 86.48 248.85 92V117.94H70.9697V92C70.9697 86.48 75.4497 82 80.9697 82Z" fill="white" stroke="black" stroke-width="4"/>
<path d="M173.68 95.91H146.15C143.908 95.91 142.09 97.7278 142.09 99.97C142.09 102.212 143.908 104.03 146.15 104.03H173.68C175.922 104.03 177.74 102.212 177.74 99.97C177.74 97.7278 175.922 95.91 173.68 95.91Z" fill="black"/>
<path d="M351.98 236.53V277.53" stroke="black" stroke-width="4"/>
<path d="M359.46 276.26H344.5" stroke="black" stroke-width="4" stroke-linecap="round"/>
<path d="M305.51 233.19L296.71 273.24" stroke="black" stroke-width="4"/>
<path d="M304.29 273.6L289.68 270.39" stroke="black" stroke-width="4" stroke-linecap="round"/>
<path d="M329.91 184.39L319.37 164.25" stroke="black" stroke-width="4" stroke-linecap="round"/>
<path d="M341.06 185.42L345.58 174.13" stroke="black" stroke-width="4" stroke-linecap="round"/>
<path d="M334.99 178.08L334.34 165.28" stroke="black" stroke-width="4" stroke-linecap="round"/>
<path d="M495 297C489.5 310.5 484.9 340.8 510.5 354" stroke="black" stroke-width="4"/>
</g>
<defs>
<clipPath id="clip0_6341_170">
<rect width="567.77" height="421.02" fill="white" transform="translate(47 80)"/>
</clipPath>
</defs>
</svg>
