<svg width="419" height="500" viewBox="0 0 419 500" fill="none" xmlns="http://www.w3.org/2000/svg">
<path d="M157.65 129.818L267.15 136.918C292.75 138.618 312.35 161.018 310.95 186.718C309.65 212.118 288.25 231.418 263.15 230.118L155.85 224.418C129.85 223.018 108.85 200.918 109.05 174.818C109.25 148.418 131.15 128.118 157.65 129.818Z" fill="black"/>
<path d="M296.05 138.018H296.15C301.949 138.018 306.65 133.317 306.65 127.518V108.018C306.65 102.219 301.949 97.5182 296.15 97.5182H296.05C290.251 97.5182 285.55 102.219 285.55 108.018V127.518C285.55 133.317 290.251 138.018 296.05 138.018Z" fill="#FF0077" stroke="black" stroke-width="4" stroke-miterlimit="10" stroke-linecap="round"/>
<path d="M235.25 218.918V224.818C235.25 231.618 240.75 237.118 247.55 237.118C254.35 237.118 259.85 231.618 259.85 224.818V218.918" fill="#FF0077"/>
<path d="M235.25 218.918V224.818C235.25 231.618 240.75 237.118 247.55 237.118C254.35 237.118 259.85 231.618 259.85 224.818V218.918" stroke="black" stroke-width="4" stroke-linecap="round" stroke-linejoin="bevel"/>
<path d="M235.25 120.518V223.718H259.75V135.918C250.05 133.518 241.45 128.018 235.25 120.518Z" fill="white" stroke="black" stroke-width="4" stroke-miterlimit="10"/>
<path d="M268.55 79.0182C278.85 78.7182 289.15 82.1182 296.15 90.3182V145.318C296.15 145.318 291.35 156.518 269.85 156.518C248.35 156.518 231.05 139.118 231.05 117.618C231.15 96.9182 247.85 79.7182 268.55 79.0182Z" fill="white" stroke="black" stroke-width="4" stroke-miterlimit="10"/>
<path d="M163.05 185.318V271.018H187.55V169.918C181.25 177.418 172.75 182.818 163.05 185.318Z" fill="white" stroke="black" stroke-width="4" stroke-miterlimit="10"/>
<path d="M126.65 181.618H126.75C132.549 181.618 137.25 176.917 137.25 171.118V151.618C137.25 145.819 132.549 141.118 126.75 141.118H126.65C120.851 141.118 116.15 145.819 116.15 151.618V171.118C116.15 176.917 120.851 181.618 126.65 181.618Z" fill="#FF0077" stroke="black" stroke-width="4" stroke-miterlimit="10" stroke-linecap="round"/>
<path d="M112.75 251.918H306.75C308.95 251.918 310.75 253.718 310.75 255.918V320.718C310.75 376.418 265.55 421.718 209.75 421.718C154.05 421.718 108.75 376.518 108.75 320.718V255.918C108.75 253.718 110.55 251.918 112.75 251.918Z" fill="white" stroke="black" stroke-width="4" stroke-miterlimit="10"/>
<path d="M209.95 301.318C215.859 301.318 220.65 296.528 220.65 290.618C220.65 284.709 215.859 279.918 209.95 279.918C204.041 279.918 199.25 284.709 199.25 290.618C199.25 296.528 204.041 301.318 209.95 301.318Z" fill="#FF0077" stroke="black" stroke-width="4" stroke-miterlimit="10" stroke-linecap="round"/>
<path d="M156.8 200.118C146.5 200.418 136.2 197.018 129.2 188.818L129.2 133.818C129.2 133.818 134 122.618 155.5 122.618C177 122.618 194.3 140.018 194.3 161.518C194.2 182.218 177.5 199.418 156.8 200.118Z" fill="white" stroke="black" stroke-width="4" stroke-miterlimit="10"/>
</svg>
