<svg width="730" height="450" viewBox="0 0 730 450" fill="none" xmlns="http://www.w3.org/2000/svg">
<path d="M30 389H538" stroke="black" stroke-width="4" stroke-linecap="round"/>
<path d="M513.282 129.825L596.366 204.863L575.716 226.256L512.054 287.799C507.962 291.7 501.483 296.683 501.483 296.683C483.134 310.94 463.652 316.771 438.617 316.771C378.761 316.771 330.229 268.248 330.229 208.384C330.229 148.528 378.752 99.9966 438.617 99.9966C467.324 99.9966 492.742 110.268 513.282 129.825Z" fill="white" stroke="black" stroke-width="4"/>
<path d="M657.312 181.765H594.255C592.257 181.765 590.631 183.391 590.631 185.389V199.819L574.367 183.616C573.277 182.837 571.754 183.616 571.754 184.966V228.48C571.754 229.82 573.268 230.599 574.367 229.829L590.631 213.626V228.869C590.631 229.993 591.539 230.902 592.664 230.902H657.303C659.301 230.902 660.928 229.275 660.928 227.277V185.381C660.928 183.382 659.301 181.756 657.303 181.756L657.312 181.765Z" fill="black"/>
<path d="M630.554 167.205C630.554 156.158 621.591 147.196 610.544 147.196C599.497 147.196 590.535 156.158 590.535 167.205C590.535 178.253 596.789 187.215 610.544 187.215C621.591 187.215 630.554 178.253 630.554 167.205Z" fill="black"/>
<path d="M610.545 179.022C617.071 179.022 622.362 173.732 622.362 167.205C622.362 160.679 617.071 155.388 610.545 155.388C604.018 155.388 598.728 160.679 598.728 167.205C598.728 173.732 604.018 179.022 610.545 179.022Z" stroke="white" stroke-width="4" stroke-miterlimit="10"/>
<path d="M699.9 152.499C699.9 131.806 683.126 115.041 662.441 115.041C639.049 115.041 624.983 131.815 624.983 152.499C624.983 173.192 641.757 189.957 662.441 189.957C683.134 189.957 699.9 173.183 699.9 152.499Z" fill="black"/>
<path d="M679.276 167.205C684.006 167.205 687.84 163.371 687.84 158.641C687.84 153.911 684.006 150.077 679.276 150.077C674.546 150.077 670.711 153.911 670.711 158.641C670.711 163.371 674.546 167.205 679.276 167.205Z" fill="white"/>
<path d="M669.034 144.393C673.764 144.393 677.598 140.559 677.598 135.829C677.598 131.099 673.764 127.264 669.034 127.264C664.304 127.264 660.469 131.099 660.469 135.829C660.469 140.559 664.304 144.393 669.034 144.393Z" fill="white"/>
<path d="M655.841 177.733C660.571 177.733 664.405 173.899 664.405 169.169C664.405 164.439 660.571 160.605 655.841 160.605C651.111 160.605 647.276 164.439 647.276 169.169C647.276 173.899 651.111 177.733 655.841 177.733Z" fill="white"/>
<path d="M645.589 154.921C650.319 154.921 654.153 151.087 654.153 146.357C654.153 141.627 650.319 137.792 645.589 137.792C640.859 137.792 637.024 141.627 637.024 146.357C637.024 151.087 640.859 154.921 645.589 154.921Z" fill="white"/>
<path d="M473.341 131.019C473.341 118.959 463.566 109.175 451.498 109.175C439.43 109.175 429.654 118.951 429.654 131.019C429.654 138.208 433.132 144.583 438.487 148.563C429.386 155.388 427.491 165.813 420.389 170.432C334.217 226.507 386.772 247.252 386.772 247.252L508.04 243.152V157.707C506.933 137.507 488.108 136.142 473.341 135C473 135 473.341 132.413 473.341 131.019Z" fill="#FF0077" stroke="black" stroke-width="4"/>
<path d="M452.51 227.286L476.828 198.357L460.27 178.192L431.765 211.792L452.51 227.286Z" fill="white"/>
<path d="M465.153 141.105L488.152 144.031C496.596 145.105 502.572 152.833 501.499 161.269L497.35 193.879C496.264 202.418 488.449 208.461 479.919 207.376L469.449 206.044C462.566 205.169 457.69 198.871 458.566 191.989L465.026 141.211C465.034 141.142 465.093 141.097 465.161 141.106L465.153 141.105Z" fill="white"/>
<path d="M497.157 148.459C497.157 148.459 486.733 166.626 460.711 169.783C434.689 172.941 435.027 163.589 435.027 163.589C435.027 163.589 441.446 138.467 464.829 137.567C488.204 136.668 495.548 146.166 495.548 146.166L497.166 148.459H497.157Z" fill="#FF0077"/>
<path d="M462.216 168.987C459.725 167.058 455.789 166.678 453.02 169.645C451.896 170.856 451.316 172.586 451.558 174.455C452.233 179.663 458.047 182.509 461.204 181.272C464.517 179.974 463.453 170.086 463.254 169.801C463.246 169.783 462.208 168.987 462.208 168.987H462.216Z" fill="white"/>
<path d="M449.716 190.762L440.961 201.454C444.015 208.124 463.168 210.105 464.284 213.643L469.37 207.207L449.716 190.753V190.762Z" fill="black"/>
<path d="M106.17 102.981C85.5291 87.4355 62.4312 70.0559 56.54 65.618C55.6835 64.9691 55.3202 63.8618 55.6316 62.8324C56.0036 61.578 57.2667 60.8081 58.5643 61.0416L100.616 68.8707C105.374 69.7531 112.226 72.9626 114.129 77.4178L119.83 90.7834" fill="black"/>
<path d="M118.291 89.8058L154.4 109.305C153.673 110.905 145.117 129.738 145.117 129.738C145.117 129.738 125.437 115.508 107.495 101.995L118.291 89.8144V89.8058Z" fill="white" stroke="black" stroke-width="4"/>
<path d="M149.192 388.365H83.4104C80.7632 388.365 78.6265 386.22 78.6265 383.581C78.6265 382.526 79.2753 381.583 80.2528 381.194L132.582 363.927C137.176 362.119 142.375 362.776 146.38 365.665L150.784 368.858" fill="black"/>
<path d="M365.871 293.171C401.746 308.293 432.786 287.349 438.149 274.693C447.146 253.455 454.811 223.177 454.811 223.177L417.007 203.159L401.495 236.153C400.509 238.247 397.957 239.068 395.942 237.935L383.32 230.876L365.871 293.171Z" fill="black"/>
<path d="M150.783 370.371L181.97 366.461V388.365H150.783V370.371Z" fill="white" stroke="black" stroke-width="4"/>
<path d="M431.92 268.836L461.134 388.365H501.482L499.735 385.649C498.1 383.106 495.453 381.393 492.468 380.943L474.111 377.085L466.42 265.765L431.929 268.845L431.92 268.836Z" fill="white" stroke="black" stroke-width="4"/>
<path d="M181.971 388.365H311.57C322.669 388.365 332.885 382.336 338.258 372.629C349.789 351.764 369.574 315.56 377.671 298.215C389.428 273.014 383.606 230.911 383.606 230.911L152.004 106.156L135.005 123.778L315.514 266.855L287.148 343.338C284.933 349.298 279.509 353.476 273.177 354.073L183.536 364.593L181.979 388.365H181.971Z" fill="black"/>
<path d="M548.068 278.62L599.999 243.939L643.409 236.577C647.051 235.149 647.294 235.374 647.302 232.208H643.409L599.212 230.902L546.588 255.799L455.036 218.964L447.449 258.619L542.384 279.684C544.348 280.117 546.398 279.736 548.068 278.62Z" fill="white" stroke="black" stroke-width="4"/>
<path d="M464.292 213.643C462.839 194.732 441.878 184.083 425.744 194.049C416.531 199.741 411.963 210.667 414.377 221.221L444 319C452.72 318.74 462.161 317.078 470.5 314.5L464.301 213.643H464.292Z" fill="black"/>
<path d="M547.367 257.114L455.589 218.323L460.771 262.452L526.752 276.189" fill="black"/>
<path d="M598.788 232.926L612.508 226.455C613.373 226.014 614.187 226.455 614.187 226.455C615.614 227.052 616.012 228.895 614.956 230.02L606.306 239.241L598.779 232.909L598.788 232.926Z" fill="white"/>
<path d="M376.564 104.158C385.829 98.4653 395.907 93.9755 406.591 90.9131" stroke="black" stroke-width="4" stroke-linecap="round"/>
<path d="M323.94 171.764C330.688 150.077 343.327 130.993 359.997 116.381" stroke="black" stroke-width="4" stroke-linecap="round"/>
<path d="M438 312L429.676 271.786L420.397 230.911" stroke="white" stroke-width="4" stroke-miterlimit="10" stroke-linecap="round"/>
<path d="M461.473 206.082L478.169 207.294C487.244 208.548 495.626 202.233 496.924 193.167L501.483 161.314C501.483 161.314 502.677 152.11 497.158 148.468C497.158 148.468 485.695 166.375 463.255 169.809C463.255 169.809 456.853 164.541 453.012 169.654C448.964 175.043 453.272 179.654 457.528 181.246L446.957 193.383" stroke="black" stroke-width="4"/>
</svg>
