<svg width="499" height="438" viewBox="0 0 499 438" fill="none" xmlns="http://www.w3.org/2000/svg">
<path d="M226.68 144H291.75C295.74 144 298.98 147.24 298.98 151.23V164.21C298.98 165.05 298.3 165.72 297.47 165.72H220.96C220.12 165.72 219.45 165.04 219.45 164.21V151.23C219.45 147.24 222.69 144 226.68 144Z" fill="white" stroke="black" stroke-width="4"/>
<path d="M324.74 153.5H160.82V258.97H324.74V153.5Z" fill="#FF0077"/>
<path d="M160.2 294.1C120.88 294.1 89 262.22 89 222.9C89 183.58 120.88 151.71 160.2 151.71H174.67V294.1H160.2Z" fill="black"/>
<path d="M325.01 294.1C285.69 294.1 253.81 262.22 253.81 222.9C253.81 183.58 285.69 151.71 325.01 151.71H339.48V294.1H325.01Z" fill="black"/>
<path d="M341.44 153.5H177.52C139.19 153.5 108.12 184.57 108.12 222.9C108.12 261.23 139.19 292.3 177.52 292.3C202.64 292.3 224.64 278.95 236.82 258.97H282.13C294.31 278.96 316.31 292.3 341.43 292.3C379.76 292.3 410.83 261.23 410.83 222.9C410.83 184.57 379.77 153.5 341.44 153.5Z" fill="white" stroke="black" stroke-width="4"/>
<path d="M341.44 273.34C313.63 273.34 291 250.71 291 222.9C291 195.09 313.63 172.46 341.44 172.46C369.25 172.46 391.88 195.09 391.88 222.9C391.88 250.71 369.25 273.34 341.44 273.34Z" fill="white" stroke="black" stroke-width="4"/>
<path d="M341.44 254.46C347.482 254.46 352.38 249.562 352.38 243.52C352.38 237.478 347.482 232.58 341.44 232.58C335.398 232.58 330.5 237.478 330.5 243.52C330.5 249.562 335.398 254.46 341.44 254.46Z" fill="#FF0077" stroke="black" stroke-width="4"/>
<path d="M341.44 213.13C347.482 213.13 352.38 208.232 352.38 202.19C352.38 196.148 347.482 191.25 341.44 191.25C335.398 191.25 330.5 196.148 330.5 202.19C330.5 208.232 335.398 213.13 341.44 213.13Z" fill="#FF0077" stroke="black" stroke-width="4"/>
<path d="M320.77 233.8C326.812 233.8 331.71 228.902 331.71 222.86C331.71 216.818 326.812 211.92 320.77 211.92C314.728 211.92 309.83 216.818 309.83 222.86C309.83 228.902 314.728 233.8 320.77 233.8Z" fill="#FF0077" stroke="black" stroke-width="4"/>
<path d="M362.1 233.8C368.142 233.8 373.04 228.902 373.04 222.86C373.04 216.818 368.142 211.92 362.1 211.92C356.058 211.92 351.16 216.818 351.16 222.86C351.16 228.902 356.058 233.8 362.1 233.8Z" fill="#FF0077" stroke="black" stroke-width="4"/>
<path d="M177.52 273.34C149.71 273.34 127.08 250.71 127.08 222.9C127.08 195.09 149.71 172.46 177.52 172.46C205.33 172.46 227.96 195.09 227.96 222.9C227.96 250.71 205.33 273.34 177.52 273.34Z" fill="white" stroke="black" stroke-width="4"/>
<path d="M200.68 213.37H187.05V199.74C187.05 198.15 185.76 196.86 184.17 196.86H170.87C169.28 196.86 167.99 198.15 167.99 199.74V213.37H154.36C152.77 213.37 151.48 214.66 151.48 216.25V229.55C151.48 231.14 152.77 232.43 154.36 232.43H167.99V246.06C167.99 247.65 169.28 248.94 170.87 248.94H184.17C185.76 248.94 187.05 247.65 187.05 246.06V232.43H200.68C202.27 232.43 203.56 231.14 203.56 229.55V216.25C203.56 214.66 202.27 213.37 200.68 213.37Z" fill="#FF0077" stroke="black" stroke-width="4"/>
<path d="M250.341 228.441L240.687 235.032C239.045 236.153 238.622 238.393 239.743 240.035C240.864 241.677 243.104 242.099 244.746 240.978L254.401 234.387C256.043 233.266 256.465 231.026 255.344 229.384C254.223 227.742 251.983 227.32 250.341 228.441Z" fill="#FF0077" stroke="black" stroke-width="4"/>
<path d="M274.197 228.438L264.543 235.029C262.9 236.15 262.478 238.39 263.599 240.032C264.72 241.674 266.96 242.096 268.602 240.975L278.257 234.384C279.899 233.263 280.321 231.024 279.2 229.382C278.079 227.739 275.839 227.317 274.197 228.438Z" fill="#FF0077" stroke="black" stroke-width="4"/>
<path d="M282.18 173.83H236.26C232.792 173.83 229.98 176.642 229.98 180.11C229.98 183.578 232.792 186.39 236.26 186.39H282.18C285.648 186.39 288.46 183.578 288.46 180.11C288.46 176.642 285.648 173.83 282.18 173.83Z" fill="#FF0077" stroke="black" stroke-width="4"/>
</svg>
