<svg width="500" height="570" viewBox="0 0 500 570" fill="none" xmlns="http://www.w3.org/2000/svg">
<path d="M339.8 205.3L444.7 87.5C450.4 81.1 451 71.7 446.1 64.7C439.9 55.6 427.2 54 418.8 61.1L242.6 211C226.2 223.7 213.6 240.7 206.1 260.1L133.5 532H333.1V328.5" fill="white"/>
<path d="M339.8 205.3L444.7 87.5C450.4 81.1 451 71.7 446.1 64.7C439.9 55.6 427.2 54 418.8 61.1L242.6 211C226.2 223.7 213.6 240.7 206.1 260.1L133.5 532H333.1V328.5" stroke="black" stroke-width="4"/>
<path d="M393 25H258.1C249.318 25 242.2 32.1187 242.2 40.9V312.5C242.2 321.281 249.318 328.4 258.1 328.4H393C401.781 328.4 408.9 321.281 408.9 312.5V40.9C408.9 32.1187 401.781 25 393 25Z" fill="black"/>
<path d="M344.8 114.2L299.5 142.2C298.9 142.6 298.3 142.7 297.6 142.7C295.1 142.7 288.6 142.7 283.2 145.9C278 149 276.2 153.9 275.5 156.4C274.8 158.9 275.5 158.4 276.1 159.2L278 161.8C278.6 162.7 279.6 163.2 280.7 163.2L372.4 164.8C374.3 164.8 375.9 163.3 375.9 161.4V129.6C375.9 127.7 374.4 126.2 372.5 126.2C363 126.2 354.1 121.4 349.3 115.1C348.2 113.7 346.3 113.3 344.8 114.2Z" fill="#FF0077" stroke="black" stroke-width="4" stroke-miterlimit="10"/>
<path d="M372.6 170.6H278.6C276.8 170.6 275.3 169.1 275.3 167.3V158.1H345.2L367.1 150.6H375.9V167.4C375.9 169.2 374.4 170.7 372.6 170.7V170.6Z" fill="white" stroke="black" stroke-width="4" stroke-linecap="round"/>
<path d="M306.6 144.7C305.5 144.7 304.5 144.2 304 143.2L301.6 139.3C301.2 138.6 301 137.8 301.2 137C301.4 136.2 301.9 135.5 302.6 135.1L304.2 134.1C304.7 133.8 305.3 133.6 305.9 133.6C307 133.6 308 134.1 308.5 135.1L310.9 139C311.3 139.7 311.5 140.5 311.3 141.3C311.1 142.1 310.6 142.8 309.9 143.2L308.3 144.2C307.8 144.5 307.2 144.7 306.6 144.7Z" fill="white"/>
<path d="M305.7 135.6C306.1 135.6 306.4 135.8 306.6 136.1L309 140C309.3 140.5 309.2 141.2 308.6 141.5L307 142.5C306.8 142.6 306.6 142.7 306.4 142.7C306 142.7 305.7 142.5 305.5 142.2L303.1 138.3C302.8 137.8 302.9 137.1 303.5 136.8L305.1 135.8C305.3 135.7 305.5 135.6 305.7 135.6ZM305.7 131.6C304.7 131.6 303.8 131.9 303 132.4L301.4 133.4C299 134.9 298.3 138.1 299.8 140.4L302.2 144.3C303.1 145.8 304.8 146.7 306.5 146.7C308.2 146.7 308.4 146.4 309.2 145.9L310.8 144.9C313.2 143.4 313.9 140.2 312.4 137.9L310 134C309.1 132.5 307.4 131.6 305.7 131.6Z" fill="black"/>
<path d="M321.9 135.1C320.8 135.1 319.8 134.6 319.3 133.6L316.9 129.7C316 128.2 316.4 126.3 317.9 125.4L319.5 124.4C320 124.1 320.6 123.9 321.2 123.9C322.3 123.9 323.3 124.4 323.8 125.4L326.2 129.3C327.1 130.8 326.7 132.7 325.2 133.6L323.6 134.6C323.1 134.9 322.5 135.1 321.9 135.1Z" fill="white"/>
<path d="M321 126C321.4 126 321.7 126.2 321.9 126.5L324.3 130.4C324.6 130.9 324.5 131.6 323.9 131.9L322.3 132.9C322.1 133 321.9 133.1 321.7 133.1C321.3 133.1 321 132.9 320.8 132.6L318.4 128.7C318.1 128.2 318.2 127.5 318.8 127.2L320.4 126.2C320.6 126.1 320.8 126 321 126ZM321 122C320 122 319.1 122.3 318.3 122.8L316.7 123.8C314.3 125.3 313.6 128.5 315.1 130.8L317.5 134.7C318.4 136.2 320.1 137.1 321.8 137.1C323.5 137.1 323.7 136.8 324.5 136.3L326.1 135.3C328.5 133.8 329.2 130.6 327.7 128.3L325.3 124.4C324.4 122.9 322.7 122 321 122Z" fill="black"/>
<path d="M337.3 125.5C336.2 125.5 335.2 125 334.7 124L332.3 120.1C331.4 118.6 331.8 116.7 333.3 115.8L334.9 114.8C335.4 114.5 336 114.3 336.6 114.3C337.7 114.3 338.7 114.8 339.2 115.8L341.6 119.7C342 120.4 342.2 121.2 342 122C341.8 122.8 341.3 123.5 340.6 123.9L339 124.9C338.5 125.2 337.9 125.4 337.3 125.4V125.5Z" fill="white"/>
<path d="M336.4 116.4C336.8 116.4 337.1 116.6 337.3 116.9L339.7 120.8C340 121.3 339.9 122 339.3 122.3L337.7 123.3C337.5 123.4 337.3 123.5 337.1 123.5C336.7 123.5 336.4 123.3 336.2 123L333.8 119.1C333.5 118.6 333.6 117.9 334.2 117.6L335.8 116.6C336 116.5 336.2 116.4 336.4 116.4ZM336.4 112.4C335.4 112.4 334.5 112.7 333.7 113.2L332.1 114.2C329.7 115.7 329 118.9 330.5 121.2L332.9 125.1C333.8 126.6 335.5 127.5 337.2 127.5C338.9 127.5 339.1 127.2 339.9 126.7L341.5 125.7C343.9 124.2 344.6 121 343.1 118.7L340.7 114.8C339.8 113.3 338.1 112.4 336.4 112.4Z" fill="black"/>
<path d="M266.5 142.6V158.4C266.5 159 265.8 159.3 265.3 158.9L257.4 151C257.1 150.7 257.1 150.3 257.4 150L265.3 142.1C265.7 141.7 266.5 142 266.5 142.6Z" fill="white"/>
<path d="M384.7 142.6V158.4C384.7 159 385.4 159.3 385.9 158.9L393.8 151C394.1 150.7 394.1 150.3 393.8 150L385.9 142.1C385.5 141.7 384.7 142 384.7 142.6Z" fill="white"/>
<path d="M242.2 120.5C262.248 120.5 278.5 104.248 278.5 84.2C278.5 64.1521 262.248 47.9 242.2 47.9C222.152 47.9 205.9 64.1521 205.9 84.2C205.9 104.248 222.152 120.5 242.2 120.5Z" fill="white" stroke="black" stroke-width="4" stroke-miterlimit="10"/>
<path fill-rule="evenodd" clip-rule="evenodd" d="M239.9 73.9C237 72 233.2 71.8 230.2 73.6C227.2 75.4 227.7 75.5 226.9 76.9C224.9 80.3 225.5 84.4 227.2 87.7C230.2 93.3 236.2 97.5 241.6 100.2C241.9 100.4 242.4 100.4 242.7 100.2C248.1 97.5 254.2 93.3 257.1 87.7C258.9 84.3 259.5 80.3 257.4 76.9C256.6 75.5 255.4 74.4 254.1 73.6C251.1 71.8 247.3 72 244.4 73.9L242.1 75.4L239.8 73.9H239.9Z" fill="#FF0077" stroke="black" stroke-width="4" stroke-miterlimit="10"/>
<path d="M91.8999 531.9H384.7" stroke="black" stroke-width="4" stroke-linecap="round"/>
<path d="M344.3 257.3H306.9C293.534 257.3 282.7 268.135 282.7 281.5C282.7 294.865 293.534 305.7 306.9 305.7H344.3C357.665 305.7 368.5 294.865 368.5 281.5C368.5 268.135 357.665 257.3 344.3 257.3Z" fill="#FF0077" stroke="black" stroke-width="4" stroke-miterlimit="10"/>
<path d="M307.9 39.9H343.2" stroke="white" stroke-width="4" stroke-miterlimit="10" stroke-linecap="round"/>
<path d="M274.6 328.4L333.1 348.4V328.4H274.6Z" fill="black"/>
<path d="M423.923 238.114L423.845 238.051C416.806 232.351 406.479 233.436 400.779 240.475L383.032 262.391C377.332 269.43 378.418 279.757 385.457 285.457L385.534 285.52C392.573 291.22 402.9 290.134 408.601 283.095L426.347 261.18C432.047 254.141 430.962 243.814 423.923 238.114Z" fill="white" stroke="black" stroke-width="4"/>
<path d="M423.249 192.319L423.171 192.256C416.132 186.556 405.805 187.642 400.105 194.681L387.896 209.757C382.196 216.796 383.281 227.123 390.32 232.823L390.398 232.886C397.437 238.586 407.764 237.501 413.464 230.462L425.673 215.385C431.373 208.346 430.288 198.019 423.249 192.319Z" fill="white" stroke="black" stroke-width="4"/>
<path d="M421.962 154.527L421.884 154.464C414.845 148.764 404.518 149.849 398.818 156.888L394.413 162.328C388.713 169.367 389.798 179.694 396.837 185.394L396.915 185.457C403.954 191.157 414.281 190.072 419.981 183.033L424.386 177.593C430.086 170.554 429.001 160.227 421.962 154.527Z" fill="white" stroke="black" stroke-width="4"/>
<path d="M314.7 277.2H336.4C337.2 277.2 337.9 278 337.7 278.8L335.2 291C335.1 291.6 334.5 292.1 333.9 292.1H317.1C316.5 292.1 315.9 291.7 315.8 291L313.3 278.8C313.1 278 313.8 277.2 314.6 277.2H314.7Z" fill="white" stroke="black" stroke-width="4" stroke-miterlimit="10" stroke-linecap="round"/>
<path d="M317.4 276.5L322.9 271" stroke="black" stroke-width="4" stroke-miterlimit="10" stroke-linecap="round"/>
<path d="M333.8 276.5L328.3 271" stroke="black" stroke-width="4" stroke-miterlimit="10" stroke-linecap="round"/>
<path d="M404 279C400.2 282.8 394.1 282.8 390.4 279C386.6 275.2 386.6 269.1 390.4 265.4" stroke="black" stroke-width="4" stroke-miterlimit="10" stroke-linecap="round"/>
<path d="M408.6 226.3C404.8 230.1 398.7 230.1 395 226.3C391.2 222.5 391.2 216.4 395 212.7" stroke="black" stroke-width="4" stroke-miterlimit="10" stroke-linecap="round"/>
<path d="M414.4 179.5C410.6 183.3 404.5 183.3 400.8 179.5C397 175.7 397 169.6 400.8 165.9" stroke="black" stroke-width="4" stroke-miterlimit="10" stroke-linecap="round"/>
<path d="M276 328C274.895 328 274 328.895 274 330C274 331.105 274.895 332 276 332L276 328ZM336 330L336 328L276 328L276 330L276 332L336 332L336 330Z" fill="white"/>
<path d="M198 401.3C198 401.3 285.3 388.7 277.8 291.1L340.5 253.7C362.8 242.1 372.5 215.2 362.7 192.1C362.7 191.9 362.5 191.9 362.3 192L224.1 260.3" fill="white"/>
<path d="M198 401.3C198 401.3 285.3 388.7 277.8 291.1L340.5 253.7C362.8 242.1 372.5 215.2 362.7 192.1C362.7 191.9 362.5 191.9 362.3 192L224.1 260.3" stroke="black" stroke-width="4" stroke-linecap="round"/>
<path d="M351.5 201.1C356.6 211.8 352 224.6 341.3 229.6C330.6 234.7 317.8 230.1 312.8 219.4" stroke="black" stroke-width="4" stroke-linecap="round"/>
</svg>
