<svg width="730" height="500" viewBox="0 0 730 500" fill="none" xmlns="http://www.w3.org/2000/svg">
<g clip-path="url(#clip0_6341_244)">
<path d="M318.61 157.1H292.25V124.72L328.82 124.74V146.9C328.82 152.54 324.25 157.11 318.61 157.11V157.1Z" fill="black"/>
<path d="M234.27 128.19C224.62 118.84 224.92 103.03 240.26 100.18C253.12 97.79 273.78 107.95 286.54 115.26C293.53 119.27 297.83 126.71 297.83 134.77V139.92" fill="white"/>
<path d="M234.27 128.19C224.62 118.84 224.92 103.03 240.26 100.18C253.12 97.79 273.78 107.95 286.54 115.26C293.53 119.27 297.83 126.71 297.83 134.77V139.92" stroke="black" stroke-width="4"/>
<path d="M583.46 469.42H146" stroke="black" stroke-width="4" stroke-linecap="round"/>
<path d="M360.32 412.38L363.7 451.47L385.64 450.15V416.42L360.32 412.38Z" fill="white" stroke="black" stroke-width="4"/>
<path d="M262.94 161.88H167.29C162.93 161.88 159.67 165.93 160.64 170.17L190.77 306.29C191.98 311.73 196.76 315.61 202.33 315.61H307.72L262.95 161.88H262.94Z" fill="#FF0077" stroke="black" stroke-width="4"/>
<path d="M202.68 315.54L168.68 161.82H272.8L304.44 305.02" fill="#FF0077"/>
<path d="M202.68 315.54L168.68 161.82H272.8L304.44 305.02" stroke="black" stroke-width="4"/>
<path d="M297.67 145.7C297.67 131.43 286.11 119.87 271.84 119.87H266.46C238.22 119.87 220.79 130.74 209.25 169.83L196.23 221.52C194.9 226.8 197.38 232.27 202.18 234.84C214.22 241.27 228.57 242.87 242.55 243.21L297.66 244.54V145.7H297.67Z" fill="white" stroke="black" stroke-width="4"/>
<path d="M284.9 205.05C285.2 204.75 285.44 204.45 285.75 204.2C285.45 204.44 285.21 204.8 284.9 205.05Z" fill="#FF0077"/>
<path d="M289.74 201.42C289.44 201.6 289.07 201.78 288.77 201.96C289.07 201.78 289.37 201.6 289.74 201.42Z" fill="#FF0077"/>
<path d="M322.53 298.16C293.91 297.8 249.39 297.43 244.18 298.28C250.59 294.53 315.69 242.56 315.69 242.56L322.53 298.16Z" fill="black"/>
<path d="M243.64 298.47C243.64 298.41 243.82 298.35 244.18 298.29C243.82 298.47 243.64 298.53 243.64 298.47Z" fill="black"/>
<path d="M222.7 298.53L187.27 469.42" stroke="black" stroke-width="4" stroke-miterlimit="10"/>
<path d="M266.42 298.53L246.86 398.38" stroke="black" stroke-width="4" stroke-miterlimit="10"/>
<path d="M317.54 298.53V469.42" stroke="black" stroke-width="4" stroke-miterlimit="10"/>
<path d="M322.42 90.79C337.69 90.79 350.08 87.85 350.08 103.13V129.45C350.08 144.72 337.7 157.11 322.42 157.11C307.15 157.11 294.76 144.73 294.76 129.45V100.73C294.76 85.46 307.14 90.79 322.42 90.79Z" fill="black"/>
<path d="M283.84 101.62V111.64C283.84 115.22 286.74 118.12 290.32 118.12L294.76 118.15L307.54 110.11C307.99 110.11 308.42 110.11 308.85 110.11H322.47C327.88 110.11 332.27 103.4 332.27 97.99C332.27 97.99 299.46 101.63 283.84 101.63V101.62Z" fill="white" stroke="black" stroke-width="4"/>
<path d="M320.46 62.54C305.19 62.54 292.8 74.92 292.8 90.2V101.2H348.11V90.2C348.11 74.93 335.73 62.54 320.45 62.54H320.46Z" fill="#FF0077" stroke="black" stroke-width="4"/>
<path d="M299.76 113.12C299.76 113.12 299.31 104.88 292.75 107.1C287.69 108.81 289.57 116.16 292.75 118.11C295.93 120.07 299.93 119.82 299.93 119.82L299.77 113.11L299.76 113.12Z" fill="black"/>
<path d="M299.76 107.78H308.08V119.37C308.08 121.67 306.22 123.53 303.92 123.53C301.62 123.53 299.76 121.67 299.76 119.37V107.78Z" fill="white"/>
<path d="M338.071 130.74C333.631 130.74 330.271 124.96 330.271 117.3C330.271 109.64 333.621 103.86 338.071 103.86C342.521 103.86 345.87 109.64 345.87 117.3C345.87 124.96 342.521 130.74 338.071 130.74Z" fill="white"/>
<path d="M338.071 105.86C341.271 105.86 343.87 110.98 343.87 117.3C343.87 123.62 341.281 128.74 338.071 128.74C334.861 128.74 332.271 123.62 332.271 117.3C332.271 110.98 334.861 105.86 338.071 105.86ZM338.071 101.86C332.391 101.86 328.271 108.35 328.271 117.3C328.271 126.25 332.391 132.74 338.071 132.74C343.751 132.74 347.87 126.25 347.87 117.3C347.87 108.35 343.751 101.86 338.071 101.86Z" fill="black"/>
<path d="M353.14 130.74C348.49 130.74 348.13 120.45 348.13 117.3C348.13 114.15 348.49 103.86 353.14 103.86C357.79 103.86 358.15 114.15 358.15 117.3C358.15 120.45 357.79 130.74 353.14 130.74Z" fill="white"/>
<path d="M353.14 105.86C354.8 105.86 356.15 110.98 356.15 117.3C356.15 123.62 354.8 128.74 353.14 128.74C351.48 128.74 350.13 123.62 350.13 117.3C350.13 110.98 351.48 105.86 353.14 105.86ZM353.14 101.86C350.52 101.86 346.13 103.87 346.13 117.3C346.13 123.07 347.04 132.74 353.14 132.74C355.76 132.74 360.15 130.73 360.15 117.3C360.15 111.53 359.24 101.86 353.14 101.86Z" fill="black"/>
<path d="M302.27 101.2H270.66" stroke="black" stroke-width="4" stroke-linecap="round"/>
<path d="M385.64 446.18L429.3 463.3L430.07 468.94H364.98L363.33 446.52L385.64 446.18Z" fill="#FF0077" stroke="black" stroke-width="4"/>
<path d="M257.16 204.08L298.14 176.99L329.93 207.66C336.64 214.14 345.51 217.92 354.83 218.27L426.81 221.02C430 221.21 433.05 222.29 435.74 224.02L447.91 232.04C449.02 233.04 448.9 234.77 447.72 235.72C446.78 236.42 445.55 236.24 444.64 235.75L427.78 239.54C425.01 238.43 419.86 234.16 416.25 234.46L402.82 236.76C398.15 238.1 343.61 245.52 343.61 245.52C335.94 247.05 327.97 245.71 321.23 241.74L257.11 203.99L257.17 204.07L257.16 204.08Z" fill="black"/>
<path d="M270.02 152.3C258.19 145.54 243.12 149.59 236.35 161.42C229.59 173.25 233.64 188.32 245.47 195.09L265.28 206.6" stroke="black" stroke-width="4" stroke-miterlimit="10" stroke-linecap="round"/>
<path d="M291.27 298.53V469.42" stroke="black" stroke-width="4" stroke-miterlimit="10"/>
<path d="M253.3 469.42L243.15 453.63C240.69 449.8 239.41 445.34 239.48 440.79L239.73 423.95L224.23 408.07L202 428.8L233.41 469.42H253.3Z" fill="#FF0077" stroke="black" stroke-width="4"/>
<path d="M251.94 380.38L224.22 408.07L239.72 423.95L264.14 400.68L251.94 380.38Z" fill="white" stroke="black" stroke-width="4"/>
<path d="M359.84 244.19C375.5 244.19 388.24 256.93 388.24 272.59L387.58 418.5L332.89 418L326.49 308.45C326.49 308.45 314.73 308.24 298.64 308.03L290.77 244.06H359.76L359.83 244.2L359.84 244.19Z" fill="black"/>
<path d="M252.72 414.53L378.12 294.56C397.69 275.84 384.34 242.82 357.25 242.96L245.39 243.55C234.86 243.61 224.44 243.31 214.77 239.14L212.6 238.2L213.53 243.71L214 292.86C214.07 299.68 217.79 306.1 223.94 309.07C226.33 310.23 229.22 310.98 232.67 310.93L285.02 310.4L214.26 378.53L252.71 414.53H252.72Z" fill="black"/>
<path d="M190.6 261.11H262.55C274.04 261.11 283.36 270.43 283.36 281.92V315.61H202.68L190.6 261.11Z" fill="#FF0077" stroke="black" stroke-width="4"/>
<path d="M472.22 254.12H459.09L501.22 469.42H514.35L472.22 254.12Z" fill="black"/>
<path d="M515.58 49.15L488.23 188.1C487.74 190.57 489.64 192.87 492.16 192.87H497.14C499.05 192.87 500.7 191.52 501.07 189.64L528.42 50.69C528.91 48.22 527.01 45.92 524.49 45.92H519.51C517.6 45.92 515.95 47.27 515.58 49.15Z" fill="black"/>
<path d="M240.96 242.54L240.8 255.34H588.79C590.39 255.34 591.69 254.04 591.69 252.44V245.43C591.69 243.83 590.39 242.53 588.79 242.53H240.96V242.54Z" fill="black"/>
<path d="M512.85 111.18L550.39 160.37V251.97" stroke="black" stroke-width="4" stroke-miterlimit="10"/>
<path d="M549.88 166.23C553.116 166.23 555.74 163.606 555.74 160.37C555.74 157.134 553.116 154.51 549.88 154.51C546.644 154.51 544.02 157.134 544.02 160.37C544.02 163.606 546.644 166.23 549.88 166.23Z" fill="black" stroke="black" stroke-width="4"/>
<path d="M477.57 360.49H562.42C565.5 360.49 568 362.99 568 366.07V469.43H467.58V370.49C467.58 364.97 472.06 360.49 477.58 360.49H477.57Z" fill="white" stroke="black" stroke-width="4"/>
<path d="M537.89 254.12H552.29V470.1H537.89V254.12Z" fill="black"/>
<path d="M410.79 238.74L460.23 229.05C463.79 228.58 467.07 231.05 467.61 234.6L469.62 242.54C469.62 242.54 411.46 244.73 410.79 244.54C410.12 244.35 410.79 238.74 410.79 238.74Z" fill="white" stroke="black" stroke-width="4"/>
<path d="M486.17 30H400.52C395.94 30 392.23 33.71 392.23 38.29V65.28C392.23 69.86 395.94 73.57 400.52 73.57H463.85L480.84 87.19C482.51 88.86 485.37 87.68 485.37 85.31V73.57H486.17C490.75 73.57 494.46 69.86 494.46 65.28V38.29C494.46 33.71 490.75 30 486.17 30Z" fill="white" stroke="black" stroke-width="4"/>
<path fill-rule="evenodd" clip-rule="evenodd" d="M441.88 45.91C439.96 44.66 437.48 44.55 435.51 45.72C434.62 46.25 433.87 46.97 433.34 47.86C432.02 50.08 432.41 52.75 433.57 54.95C435.5 58.63 439.49 61.36 443.03 63.12C443.26 63.23 443.52 63.23 443.75 63.12C447.29 61.36 451.27 58.63 453.21 54.95C454.36 52.75 454.75 50.08 453.44 47.86C452.91 46.97 452.15 46.24 451.26 45.72C449.29 44.55 446.81 44.67 444.89 45.91L443.39 46.88L441.89 45.91H441.88Z" fill="#FF0077" stroke="black" stroke-width="4" stroke-miterlimit="10"/>
<path fill-rule="evenodd" clip-rule="evenodd" d="M468.63 45.91C466.71 44.66 464.23 44.55 462.26 45.72C461.37 46.25 460.62 46.97 460.09 47.86C458.77 50.08 459.16 52.75 460.32 54.95C462.25 58.63 466.24 61.36 469.78 63.12C470.01 63.23 470.27 63.23 470.5 63.12C474.04 61.36 478.02 58.63 479.96 54.95C481.11 52.75 481.5 50.08 480.19 47.86C479.66 46.97 478.9 46.24 478.01 45.72C476.04 44.55 473.56 44.67 471.64 45.91L470.14 46.88L468.64 45.91H468.63Z" fill="white" stroke="black" stroke-width="4" stroke-miterlimit="10"/>
<path fill-rule="evenodd" clip-rule="evenodd" d="M415.49 45.91C413.57 44.66 411.09 44.55 409.12 45.72C408.23 46.25 407.48 46.97 406.95 47.86C405.63 50.08 406.02 52.75 407.18 54.95C409.11 58.63 413.1 61.36 416.64 63.12C416.87 63.23 417.13 63.23 417.36 63.12C420.9 61.36 424.88 58.63 426.82 54.95C427.97 52.75 428.36 50.08 427.05 47.86C426.52 46.97 425.76 46.24 424.87 45.72C422.9 44.55 420.42 44.67 418.5 45.91L417 46.88L415.5 45.91H415.49Z" fill="#FF0077" stroke="black" stroke-width="4" stroke-miterlimit="10"/>
<path d="M499.59 407.45C508.841 407.45 516.34 399.951 516.34 390.7C516.34 381.449 508.841 373.95 499.59 373.95C490.339 373.95 482.84 381.449 482.84 390.7C482.84 399.951 490.339 407.45 499.59 407.45Z" fill="white" stroke="black" stroke-width="4"/>
<path d="M498.19 373.96C498.19 373.96 504.32 379.15 499.59 390.71" stroke="black" stroke-width="4"/>
<path d="M515.58 385.55C515.58 385.55 511.92 392.69 499.59 390.71" stroke="black" stroke-width="4"/>
<path d="M509.65 404.16C509.65 404.16 501.7 403.01 499.59 390.7" stroke="black" stroke-width="4"/>
<path d="M489.79 404.36C489.79 404.36 488.49 396.44 499.58 390.7" stroke="black" stroke-width="4"/>
<path d="M483.68 385.27C483.68 385.27 490.89 381.73 499.58 390.7" stroke="black" stroke-width="4"/>
<path d="M499.78 397.4C503.464 397.4 506.45 394.414 506.45 390.73C506.45 387.046 503.464 384.06 499.78 384.06C496.096 384.06 493.11 387.046 493.11 390.73C493.11 394.414 496.096 397.4 499.78 397.4Z" fill="white" stroke="black" stroke-width="4"/>
<path d="M499.59 452.27C508.841 452.27 516.34 444.771 516.34 435.52C516.34 426.269 508.841 418.77 499.59 418.77C490.339 418.77 482.84 426.269 482.84 435.52C482.84 444.771 490.339 452.27 499.59 452.27Z" fill="white" stroke="black" stroke-width="4"/>
<path d="M498.19 418.77C498.19 418.77 504.32 423.96 499.59 435.52" stroke="black" stroke-width="4"/>
<path d="M515.58 430.36C515.58 430.36 511.92 437.5 499.59 435.52" stroke="black" stroke-width="4"/>
<path d="M509.65 448.98C509.65 448.98 501.7 447.83 499.59 435.52" stroke="black" stroke-width="4"/>
<path d="M489.79 449.18C489.79 449.18 488.49 441.26 499.58 435.52" stroke="black" stroke-width="4"/>
<path d="M483.68 430.09C483.68 430.09 490.89 426.55 499.58 435.52" stroke="black" stroke-width="4"/>
<path d="M499.78 442.22C503.464 442.22 506.45 439.234 506.45 435.55C506.45 431.866 503.464 428.88 499.78 428.88C496.096 428.88 493.11 431.866 493.11 435.55C493.11 439.234 496.096 442.22 499.78 442.22Z" fill="white" stroke="black" stroke-width="4"/>
</g>
<defs>
<clipPath id="clip0_6341_244">
<rect width="447.68" height="443.42" fill="white" transform="translate(144 28)"/>
</clipPath>
</defs>
</svg>
