<svg width="662" height="570" viewBox="0 0 662 570" fill="none" xmlns="http://www.w3.org/2000/svg">
<path d="M392.79 192.55L393.68 129.15C393.88 117.97 404.54 109 417.61 109H516.37C529.51 109 540.19 118.06 540.31 129.29L540.82 193.8C540.94 205.33 529.9 214.67 516.42 214.44L429.74 213.55L416.72 226.1C414.55 228.2 410.91 226.76 410.76 223.74L410.21 212.54C400.02 210.08 392.62 202.02 392.79 192.55Z" fill="white" stroke="black" stroke-width="4"/>
<path d="M501.9 174.43C508.169 174.43 513.25 169.348 513.25 163.08C513.25 156.812 508.169 151.73 501.9 151.73C495.632 151.73 490.55 156.812 490.55 163.08C490.55 169.348 495.632 174.43 501.9 174.43Z" fill="black"/>
<path d="M466.8 174.43C473.069 174.43 478.15 169.348 478.15 163.08C478.15 156.812 473.069 151.73 466.8 151.73C460.532 151.73 455.45 156.812 455.45 163.08C455.45 169.348 460.532 174.43 466.8 174.43Z" fill="black"/>
<path d="M431.7 174.43C437.969 174.43 443.05 169.348 443.05 163.08C443.05 156.812 437.969 151.73 431.7 151.73C425.432 151.73 420.35 156.812 420.35 163.08C420.35 169.348 425.432 174.43 431.7 174.43Z" fill="black"/>
<path d="M346.5 459C334.54 433.19 318.85 396.54 298.96 378.1C307.79 363.48 311.88 345.86 309.38 327.62C308.32 319.9 306.14 312.61 303.06 305.87C343.62 289.28 362.84 251.04 361.82 207.54C360.58 154.77 317.01 125.56 271.15 131.85C254.21 134.17 239.16 141.41 227.22 151.92C211.22 164.01 199.3 181.17 193.76 201.35C184.52 235.04 200.77 251.35 215.24 265.2C189.09 277.49 150.87 317.04 158.39 360.87C108.21 390.92 100.253 434.71 101.943 460L346.5 459Z" fill="black"/>
<path d="M239.83 457.81L217.45 320.92L269.49 299.95L341.74 274.04L359.07 268.17L367.82 265.18L429.53 457.8H239.79H239.84L239.83 457.81Z" fill="#FF0077"/>
<path d="M260.85 251.39L333.15 271.71L339.23 303C342.54 320.11 332.44 336.95 315.76 342.06C296.42 347.98 276.21 335.92 272.3 316.09L267.85 293.49L260.84 251.34V251.39H260.85Z" fill="white"/>
<path d="M294.17 288.11L339.26 320.87L338.17 291.26L294.17 288.06V288.11Z" fill="black"/>
<path d="M279.81 178.27C303.77 166.54 330.71 172.77 342.44 196.72C342.44 196.72 349.26 210.81 353.36 239.27C355.15 261.38 357.41 283.84 335.54 291.8C324.35 295.71 282.69 293.7 270.95 269.75L257.75 242.86C246.02 218.9 255.85 190.01 279.8 178.27H279.81Z" fill="white"/>
<path d="M164.1 457.81C164.1 457.81 165.19 374.26 184.09 348.84C193.76 335.8 205.44 325.64 217.44 320.92L238.35 326.3L239.82 457.81H164.1Z" fill="#FF0077"/>
<path d="M419.39 267.98C447.09 279.6 450.63 353.33 461.12 376.37C489.02 444.17 491.4 457.81 491.4 457.81L415.2 458.43L367.34 265.81C367.34 265.81 388.29 254.54 405.94 262.74L419.39 267.97V267.98Z" fill="#FF0077"/>
<path d="M262.32 241.39C262.32 241.39 276.5 227.81 271.12 194.29C263.19 144.75 235.87 224.71 235.87 224.71L241.74 249.86L262.33 241.39H262.32Z" fill="black"/>
<path d="M247.59 243.57C251.39 237.65 259.27 235.91 265.19 239.71C271.11 243.51 272.85 251.39 269.05 257.31C269.05 257.31 263.51 261.55 253.57 258.89C246.78 257.04 243.74 249.55 247.54 243.63L247.59 243.58V243.57Z" fill="white"/>
<path d="M343.53 196.52L341.95 193.26C330.22 169.3 301.26 159.47 277.36 171.21C271.28 174.2 263.56 181.75 259.43 186.58C278.93 203.47 320.65 200.59 343.57 196.52H343.52H343.53Z" fill="black"/>
<path d="M164.7 458.02C165.3 441.61 167.42 402.89 170.89 387.14C175.29 367.48 182.19 341.56 207.34 326.25C227.44 314.03 255.32 304.92 267.33 301.28C267.33 301.28 270.1 316.36 272.6 322.55C274.12 326.3 280.13 344.88 307.84 342.98C331.09 341.4 338.2 323.89 338.75 312.94C338.75 302.08 338.58 292.74 338.58 292.74C338.58 292.74 343.05 290.11 343.55 289.74C345.19 288.51 346.7 287.1 348.05 285.55C350.79 282.38 352.79 278.65 354.2 274.72C354.51 273.86 355.26 271.33 355.26 271.33C355.26 271.33 356.87 270.54 358.04 270.08C360.66 269.04 363.29 268.01 365.94 267.04C371.23 265.11 376.62 263.41 382.15 262.34C393.9 260.06 406.25 261.04 416.77 267.05C425.78 272.2 432.8 280.25 437.74 289.29C439.79 293.03 441.49 296.95 442.89 300.97C446.1 310.24 448.19 319.88 450.22 329.46C454.48 349.6 457.82 370.52 466.42 389.38C486.46 433.31 491.39 457.82 491.39 457.82" stroke="black" stroke-width="4"/>
<path d="M241.94 395.12L247.94 457.3" stroke="black" stroke-width="4" stroke-linecap="round"/>
<path d="M461.81 428.41L494.4 303.47C495.11 300.75 496.08 298.04 497.22 295.48L506.24 275.38C507.49 272.45 510.91 271.03 513.9 272.23C516.89 273.43 518.3 276.74 517.05 279.67L512.65 289.39L546.87 284.72C551.7 284.07 556.21 281.68 559.42 277.98L575.39 259.95C576.37 258.65 578.11 257.34 579.95 257.72C581.85 257.94 584.62 259.46 582.99 262.99L571.31 283.8C568.76 288.31 565.12 292.11 560.66 294.83L519.38 318.89L535.95 428.46" fill="white"/>
<path d="M461.81 428.41L494.4 303.47C495.11 300.75 496.08 298.04 497.22 295.48L506.24 275.38C507.49 272.45 510.91 271.03 513.9 272.23C516.89 273.43 518.3 276.74 517.05 279.67L512.65 289.39L546.87 284.72C551.7 284.07 556.21 281.68 559.42 277.98L575.39 259.95C576.37 258.65 578.11 257.34 579.95 257.72C581.85 257.94 584.62 259.46 582.99 262.99L571.31 283.8C568.76 288.31 565.12 292.11 560.66 294.83L519.38 318.89L535.95 428.46" stroke="black" stroke-width="4"/>
<path d="M607.62 355.3C606.34 353.66 604.42 352.72 602.34 352.72H459.42C456.37 352.72 453.71 354.79 452.96 357.75L430.78 445.28H375.73C373.75 445.28 371.94 446.39 371.04 448.15L366.15 457.73H584L608.84 361.06C609.35 359.04 608.91 356.95 607.63 355.31L607.62 355.3Z" fill="black"/>
<path d="M423.33 374.73V350.88C423.33 339.96 414.48 331.1 403.55 331.1C392.63 331.1 383.77 339.95 383.77 350.88V374.73V398.58C383.77 409.5 392.62 418.36 403.55 418.36C414.47 418.36 423.33 409.51 423.33 398.58V374.73Z" fill="white" stroke="black" stroke-width="4"/>
<path d="M383.78 374.73V398.58C383.78 409.5 392.63 418.36 403.56 418.36C414.48 418.36 423.34 409.51 423.34 398.58V374.73" fill="black"/>
<path d="M377.02 374.73V399.02C377.02 413.67 388.9 425.55 403.55 425.55C418.2 425.55 430.08 413.67 430.08 399.02V374.73" stroke="black" stroke-width="4"/>
<path d="M403.55 418.36V457.3" stroke="black" stroke-width="4"/>
<path d="M228.39 458.37L246.86 441.96C250.12 439.08 254.9 438.76 258.54 441.15L262.94 444.08L265.22 442.45C268.59 440.01 273.75 439.57 277.06 442.07C279.18 443.7 281.03 445.38 281.03 445.38C281.03 445.38 282.01 444.78 283.31 443.97C287 441.58 292.44 441.47 296.18 445L310.58 458.31H228.39V458.36V458.37Z" fill="white"/>
<path d="M298.3 451.04C315.95 440.99 319.49 439.74 322.15 441.64C324.81 443.54 322.42 447.34 318.18 452.23C313.94 457.12 310.3 459.02 310.3 459.02L298.29 451.03L298.3 451.04Z" fill="white"/>
<path d="M279.5 443.87L294.82 458.27" stroke="black" stroke-width="4"/>
<path d="M261.85 443.16L277.17 457.56" stroke="black" stroke-width="4" stroke-linecap="round"/>
<path d="M310.19 458.48C310.19 458.48 314.16 455.82 318.39 450.93C322.63 446.04 325.02 442.24 322.36 440.34C319.81 438.49 316.38 439.58 300.31 448.71L296.29 444.96C292.49 441.43 287.11 441.54 283.42 443.93C282.17 444.74 281.14 445.34 281.14 445.34C281.14 445.34 279.29 443.6 277.17 442.03C273.8 439.53 268.7 439.91 265.33 442.41L263.05 444.04L258.65 441.11C255.01 438.67 250.23 438.99 246.97 441.92L228.5 458.33" stroke="black" stroke-width="4"/>
<path d="M604.1 459.03H52" stroke="black" stroke-width="4" stroke-linecap="round"/>
<path d="M201.96 187.54C201.96 187.54 168.26 245.19 203.81 274.39" stroke="black" stroke-width="4" stroke-miterlimit="10"/>
<path d="M355.25 271.31C355.25 271.31 357.29 259.76 355.62 239" stroke="black" stroke-width="4" stroke-miterlimit="10"/>
<path d="M375.07 374.73H369.73V382.27H375.07V374.73Z" fill="black"/>
<path d="M437.21 374.73H431.87V382.27H437.21V374.73Z" fill="black"/>
</svg>
