<svg width="509" height="500" viewBox="0 0 509 500" fill="none" xmlns="http://www.w3.org/2000/svg">
<path d="M353.294 133.2H176.694C167.913 133.2 160.794 140.319 160.794 149.1V411.8C160.794 420.581 167.913 427.7 176.694 427.7H353.294C362.075 427.7 369.194 420.581 369.194 411.8V149.1C369.194 140.319 362.075 133.2 353.294 133.2Z" fill="black"/>
<path d="M323.194 135.1H141.994C133.213 135.1 126.094 142.219 126.094 151V410.1C126.094 418.881 133.213 426 141.994 426H323.194C331.976 426 339.094 418.881 339.094 410.1V151C339.094 142.219 331.976 135.1 323.194 135.1Z" fill="white" stroke="black" stroke-width="4" stroke-miterlimit="10"/>
<path d="M424.8 303.3C424.8 318.104 412.805 330.1 398 330.1C383.195 330.1 371.2 318.104 371.2 303.3C371.2 288.495 383.196 276.5 398 276.5C404.553 276.5 409.771 278.421 414.1 281.817V241.913L350.5 253.956V324C350.5 338.804 338.505 350.8 323.7 350.8H323C308.1 350.8 297 338.607 297 323.9C297 309.096 308.995 297.1 323.8 297.1C329.891 297.1 335.406 299.032 339.9 302.472V218.643L341.528 218.335L422.429 203.035L424.8 202.586V303.3Z" fill="#FF0077" stroke="black" stroke-width="4"/>
<path d="M293.994 336C293.994 294 274.494 274.5 232.494 274.5C190.494 274.5 170.994 294 170.994 336C170.994 378 190.494 397.5 232.494 397.5C274.494 397.5 293.994 378 293.994 336Z" fill="#FF0077" stroke="black" stroke-width="4" stroke-miterlimit="10" stroke-linecap="round"/>
<path d="M264.394 210.6C264.394 188.9 254.294 178.8 232.594 178.8C210.894 178.8 200.794 188.9 200.794 210.6C200.794 232.3 210.894 242.4 232.594 242.4C254.294 242.4 264.394 232.3 264.394 210.6Z" fill="black"/>
<path d="M253.094 210.6C253.094 196.6 246.594 190.1 232.594 190.1C218.594 190.1 212.094 196.6 212.094 210.6C212.094 224.6 218.594 231.1 232.594 231.1C246.594 231.1 253.094 224.6 253.094 210.6Z" fill="black" stroke="white" stroke-width="4" stroke-miterlimit="10"/>
<path d="M177.494 282.6C177.294 283.1 177.194 283.6 177.094 284.1L172.494 282.4L134.494 268.3L114.394 272.1L142.194 306.3L118.194 323.1C119.694 322.2 124.094 320.6 128.694 328.3C135.794 340.2 153.994 347.6 153.994 347.6L272.794 390.3C280.294 381 288.394 371.7 292.794 360.4C293.294 359.2 293.694 358 294.094 356.7C294.794 353.1 295.194 349.5 295.294 345.8C295.294 339.3 294.694 332.9 295.294 326.4L201.894 292.5C201.894 292.3 202.094 292.1 202.194 291.8" fill="black"/>
<path d="M170.394 322.1L158.694 327.2C157.994 327.5 157.194 327.2 156.894 326.5L85.9943 164.5C85.6943 163.8 85.9943 163 86.6943 162.7L98.3943 157.6C99.0943 157.3 99.8943 157.6 100.194 158.3L171.094 320.3C171.394 321 171.094 321.8 170.394 322.1Z" fill="#FF0077" stroke="black" stroke-width="4" stroke-miterlimit="10" stroke-linecap="round"/>
<path d="M159.794 302.4C156.894 295.4 148.994 292.1 141.994 294.9C148.694 291.9 151.894 284.1 149.094 277.3C146.294 270.3 138.294 267 131.294 269.8C138.094 266.8 141.294 259 138.494 252.1C135.594 245.1 127.694 241.8 120.694 244.6L101.794 252.3L119.594 237.7C125.394 232.9 126.294 224.3 121.494 218.5C116.694 212.7 108.094 211.8 102.294 216.6L82.9941 232.4C77.1941 237.2 76.2941 245.8 81.0941 251.6C84.2941 255.5 89.0941 257.2 93.6941 256.5C89.3941 260.2 87.7941 266.4 90.0941 271.9C92.8941 278.9 100.894 282.2 107.894 279.4C101.094 282.4 97.8941 290.2 100.694 297.1C103.594 304.1 111.494 307.4 118.494 304.6C111.794 307.6 108.594 315.4 111.394 322.2C114.294 329.2 122.194 332.5 129.194 329.7L152.294 320.3C159.294 317.4 162.594 309.5 159.794 302.5V302.4Z" fill="black"/>
<path d="M403 199.55L428.3 195.05C429.7 194.75 431 195.85 431 197.35V216.05" stroke="black" stroke-width="4" stroke-miterlimit="10" stroke-linecap="round"/>
<path d="M222.4 105.857L220.771 106.165L188.5 112.258V172.3C188.5 185.404 177.904 196 164.8 196H163.972L163.854 195.883C151.143 195.439 141 185.022 141 172.2C141 159.096 151.596 148.5 164.7 148.5C168.759 148.5 173.921 149.966 178.1 152.707V80.9424L179.729 80.6348L220.029 73.0342L222.4 72.5879V105.857Z" fill="#FF0077" stroke="black" stroke-width="4"/>
<path d="M171 87.7V77.5C171 76.1 172 74.9 173.3 74.7L186.5 72" stroke="black" stroke-width="4" stroke-miterlimit="10" stroke-linecap="round"/>
<path d="M197.194 328.3C197.194 328.3 158.694 315.2 170.294 271.7L144.994 249.5C136.694 243 134.194 231.9 138.494 222.6C139.294 220.9 141.394 220.5 142.894 221.5L204.794 266.6C210.094 270.4 214.094 275.8 216.394 281.9L217.894 286C221.294 295.2 228.494 302.4 237.694 305.7L244.494 308.2" fill="black"/>
<path d="M169.017 291C169.017 291 167.217 319 201.017 331.4" stroke="white" stroke-width="4" stroke-miterlimit="10" stroke-linecap="round"/>
</svg>
