<svg width="662" height="564" viewBox="0 0 662 564" fill="none" xmlns="http://www.w3.org/2000/svg">
<path d="M142.11 273.68C142.11 169.32 226.71 84.71 331.08 84.71C435.44 84.71 520.05 169.31 520.05 273.68C520.05 378.04 435.45 462.65 331.08 462.65C226.72 462.65 142.11 378.05 142.11 273.68Z" fill="black" stroke="black" stroke-width="4" stroke-miterlimit="10"/>
<path d="M212.771 360.491C217.309 346.593 230.332 335.052 248.21 337.398C248.245 337.416 248.283 337.436 248.324 337.457C248.599 337.598 249.005 337.805 249.526 338.073C250.567 338.609 252.066 339.385 253.896 340.345C257.556 342.264 262.536 344.915 267.815 347.844C273.096 350.774 278.662 353.974 283.5 356.993C288.071 359.844 291.887 362.47 294.215 364.517L294.662 364.918C302.791 372.449 305.354 383.959 306.111 391.188L306.226 392.292L307.223 392.778C321.061 399.523 334.507 407.13 349.176 415.868H349.177C370.991 428.854 383.753 450.356 391.069 468.792C394.719 477.991 396.991 486.373 398.35 492.452C399.029 495.49 399.479 497.949 399.758 499.642C399.779 499.767 399.796 499.887 399.815 500.003L75.8882 500.496C75.907 500.182 75.9267 499.835 75.9507 499.456C76.0788 497.43 76.2815 494.499 76.5796 490.892C77.1759 483.674 78.1533 473.752 79.6763 462.936C81.1999 452.116 83.2661 440.428 86.0347 429.668C88.8107 418.879 92.2611 409.154 96.4995 402.179L96.7896 401.7V401.694C105.442 387.531 115.621 374.38 131.665 366.155C147.871 357.847 170.36 354.419 203.869 360.577L203.872 360.578C206.112 360.986 208.312 361.404 210.483 361.832L212.221 362.175L212.771 360.491Z" fill="#FF0077" stroke="black" stroke-width="4"/>
<path d="M315.09 341L295.77 401.33C295.77 401.33 270.93 389.66 258.71 372.55C246.49 355.44 244.52 345.74 244.52 345.74L271.33 279.11L296.96 285.42L315.1 341.01L315.09 341Z" fill="white" stroke="black" stroke-width="4" stroke-miterlimit="10"/>
<path d="M279.8 301.77C279.66 315.23 283.76 343.31 307.9 363.45L314.96 341.4L279.8 301.77Z" fill="black"/>
<mask id="path-5-inside-1_6341_257" fill="white">
<path fill-rule="evenodd" clip-rule="evenodd" d="M214.842 198.479C225.652 191.889 240.633 194.489 247.873 207.749C250.399 212.377 251.875 216.708 252.673 219.532C268.291 211.77 285.149 212.569 302.899 215.005C321.773 218.48 328.601 236.864 328.62 236.915L337.402 252.5L320.39 254.665L229.9 285.215C227.524 278.877 225.735 265.394 228.146 252.223C217.208 253.745 205.126 250.122 201.512 237.889C196.292 220.219 205.532 204.159 214.842 198.479Z"/>
</mask>
<path d="M214.842 198.479L212.76 195.064L212.759 195.065L214.842 198.479ZM247.873 207.749L251.384 205.833L251.384 205.832L247.873 207.749ZM252.673 219.532L248.823 220.619L250.133 225.261L254.453 223.114L252.673 219.532ZM302.899 215.005L303.624 211.071L303.534 211.054L303.443 211.042L302.899 215.005ZM328.62 236.915L324.869 238.305L324.979 238.602L325.135 238.879L328.62 236.915ZM337.402 252.5L337.907 256.468L343.806 255.717L340.887 250.536L337.402 252.5ZM320.39 254.665L319.885 250.697L319.489 250.747L319.111 250.875L320.39 254.665ZM229.9 285.215L226.155 286.619L227.513 290.242L231.18 289.004L229.9 285.215ZM228.146 252.223L232.081 252.944L233.077 247.499L227.595 248.262L228.146 252.223ZM201.512 237.889L197.676 239.023L197.676 239.023L201.512 237.889ZM214.842 198.479L216.925 201.895C225.914 196.415 238.288 198.541 244.362 209.666L247.873 207.749L251.384 205.832C242.978 190.437 225.391 187.364 212.76 195.064L214.842 198.479ZM247.873 207.749L244.362 209.665C246.706 213.961 248.082 217.995 248.823 220.619L252.673 219.532L256.522 218.445C255.668 215.421 254.091 210.794 251.384 205.833L247.873 207.749ZM252.673 219.532L254.453 223.114C268.911 215.928 284.708 216.546 302.355 218.968L302.899 215.005L303.443 211.042C285.59 208.592 267.67 207.611 250.892 215.95L252.673 219.532ZM302.899 215.005L302.175 218.939C310.388 220.451 316.04 225.204 319.718 229.758C323.412 234.331 324.941 238.499 324.869 238.305L328.62 236.915L332.37 235.524C332.28 235.28 330.385 230.231 325.942 224.731C321.483 219.211 314.284 213.034 303.624 211.071L302.899 215.005ZM328.62 236.915L325.135 238.879L333.917 254.463L337.402 252.5L340.887 250.536L332.105 234.951L328.62 236.915ZM337.402 252.5L336.897 248.532L319.885 250.697L320.39 254.665L320.895 258.633L337.907 256.468L337.402 252.5ZM320.39 254.665L319.111 250.875L228.621 281.425L229.9 285.215L231.18 289.004L321.67 258.455L320.39 254.665ZM229.9 285.215L233.645 283.81C231.548 278.216 229.787 265.473 232.081 252.944L228.146 252.223L224.212 251.503C221.683 265.315 223.5 279.539 226.155 286.619L229.9 285.215ZM228.146 252.223L227.595 248.262C217.579 249.655 208.148 246.234 205.348 236.756L201.512 237.889L197.676 239.023C202.104 254.009 216.837 257.835 228.697 256.185L228.146 252.223ZM201.512 237.889L205.349 236.756C200.677 220.942 209.055 206.696 216.926 201.894L214.842 198.479L212.759 195.065C202.01 201.623 191.908 219.496 197.676 239.023L201.512 237.889Z" fill="white" mask="url(#path-5-inside-1_6341_257)"/>
<path d="M520.04 273.68C520.04 232.82 507.07 195 485.03 164.09L302.05 253.97V296.06L478.46 391.94C504.47 359.56 520.04 318.45 520.04 273.69V273.68Z" fill="white" stroke="black" stroke-width="4" stroke-miterlimit="10"/>
<path d="M278.12 287.48C278.12 287.48 275.94 308.38 290.15 329.27C305.38 351.68 335.89 349.32 346.13 348.62C348.52 348.46 350.26 346.26 349.88 343.89L336.9 261.65C335.63 253.61 333.1 245.82 329.39 238.57L328.59 237L281.67 238.38L278.12 287.47V287.48Z" fill="white"/>
<path d="M345 307.71C340.45 307.71 330.37 307.71 326.03 307.71C320.12 307.71 316.96 315 316.96 315C316.96 315 306.12 314.01 299.61 302.78C293.1 291.54 292.13 274 292.13 274L279.09 275.03L278.12 288.39C278.12 288.39 275.94 309.29 290.15 330.18C305.38 352.59 335.89 350.23 346.13 349.53C348.52 349.37 351.38 347.87 351 345.5L344.03 307.7L345 307.71Z" fill="black"/>
<path d="M227.63 261.06H284.93V260.8C284.93 256.43 288.48 252.88 292.85 252.88H352.91C357.28 252.88 360.83 256.42 360.83 260.8V288.14C360.83 292.51 357.28 296.06 352.91 296.06H292.85C288.48 296.06 284.93 292.52 284.93 288.14V287.88H227.63C223.26 287.88 219.71 284.34 219.71 279.96V268.99C219.71 264.62 223.25 261.07 227.63 261.07V261.06Z" fill="white" stroke="black" stroke-width="4" stroke-miterlimit="10"/>
<path d="M355.05 252.88H307.1C303.908 252.88 301.32 255.468 301.32 258.66V290.27C301.32 293.462 303.908 296.05 307.1 296.05H355.05C358.242 296.05 360.83 293.462 360.83 290.27V258.66C360.83 255.468 358.242 252.88 355.05 252.88Z" fill="black"/>
<path d="M433.56 216.07L457.76 234.76C461.96 238 461.03 244.59 456.09 246.54L425.28 258.7C420.2 260.7 414.94 256.24 416.08 250.9L422.69 220.06C423.74 215.14 429.58 213 433.56 216.08V216.07Z" fill="#FF0077" stroke="black" stroke-width="4" stroke-miterlimit="10"/>
<path d="M571.06 190.67L528.22 198.85C520.78 200.27 514.63 193.04 517.22 185.93L533.37 141.53C536.03 134.21 545.78 132.81 550.4 139.08L577.09 175.3C581.35 181.08 578.12 189.33 571.06 190.67Z" fill="black"/>
<path d="M580.774 302.881L544.084 342.201C537.714 349.031 526.334 346.311 523.734 337.351L507.494 281.401C504.814 272.181 513.494 263.691 522.654 266.571L575.584 283.191C584.034 285.841 586.814 296.401 580.774 302.881Z" fill="#FF0077" stroke="black" stroke-width="4" stroke-miterlimit="10"/>
<path d="M423.7 294.73L431.61 314.32C432.98 317.72 430.13 321.32 426.51 320.76L403.9 317.26C400.17 316.68 398.59 312.19 401.13 309.4L415.83 293.32C418.18 290.75 422.4 291.51 423.7 294.74V294.73Z" fill="black"/>
<path d="M614.67 220.4L622.58 239.99C623.95 243.39 621.1 246.99 617.48 246.43L594.87 242.93C591.14 242.35 589.56 237.86 592.1 235.07L606.8 218.99C609.15 216.42 613.37 217.17 614.67 220.4Z" fill="#FF0077" stroke="black" stroke-width="4" stroke-miterlimit="10"/>
<path d="M360.83 288.13V260.79C360.83 256.42 357.28 252.87 352.91 252.87H344.94L358 293.5C359.67 292.05 360.83 290.51 360.83 288.13Z" fill="#FF0077" stroke="black" stroke-width="4" stroke-miterlimit="10"/>
<path d="M343 318L340.5 292" stroke="black" stroke-width="4"/>
<path d="M39 500H517" stroke="black" stroke-width="4" stroke-miterlimit="10" stroke-linecap="round"/>
<path d="M511.04 370.68L552.9 383.19C560.17 385.36 562.3 394.62 556.71 399.75L521.85 431.76C516.1 437.04 506.8 433.79 505.58 426.08L498.58 381.56C497.46 374.45 504.14 368.62 511.03 370.68H511.04Z" fill="black"/>
<path d="M532.22 414.98L545.98 400.56C551.73 394.75 561.1 394.69 566.91 400.44L563.89 403.49L548.66 418.87C548.66 418.87 548.65 418.88 548.64 418.89L533.77 433.63" fill="white"/>
<path d="M532.22 414.98L545.98 400.56C551.73 394.75 561.1 394.69 566.91 400.44L563.89 403.49L548.66 418.87C548.66 418.87 548.65 418.88 548.64 418.89L533.77 433.63" stroke="black" stroke-width="4" stroke-miterlimit="10"/>
<path d="M480.06 499.89H422L432.44 445.07C434.64 433.52 441.21 423.13 451.04 416.68C468.21 405.4 492.22 406.91 507.97 426.22H517.49V402.8C517.49 394.18 524.47 387.2 533.09 387.2V413.27V431.91C533.09 436.72 529.35 440.68 524.62 441.03H480.15H459.05L480.15 449.53L480.06 499.89Z" fill="white" stroke="black" stroke-width="4" stroke-miterlimit="10"/>
<path d="M532.94 434.59C532.94 434.59 532.99 434.56 533.01 434.53L541.71 425.9H555.28C563.46 425.9 570.08 432.53 570.08 440.7H527.87C530.28 439.43 532.12 437.23 532.93 434.58L532.94 434.59Z" fill="white" stroke="black" stroke-width="4" stroke-miterlimit="10"/>
<path d="M561.52 403.44C558.13 400.81 553.23 401.13 550.22 404.31C547.42 407.27 547.18 411.74 549.43 414.95L549.78 415.5" fill="white"/>
<path d="M561.52 403.44C558.13 400.81 553.23 401.13 550.22 404.31C547.42 407.27 547.18 411.74 549.43 414.95L549.78 415.5" stroke="black" stroke-width="4" stroke-miterlimit="10"/>
<path d="M564.21 439.33C563.51 435.37 560.05 432.36 555.89 432.36C551.73 432.36 548.4 435.25 547.62 439.1" fill="white"/>
<path d="M564.21 439.33C563.51 435.37 560.05 432.36 555.89 432.36C551.73 432.36 548.4 435.25 547.62 439.1" stroke="black" stroke-width="4" stroke-miterlimit="10"/>
<path d="M532.98 394.69C528.71 395.11 525.37 398.71 525.37 403.09C525.37 407.17 528.26 410.58 532.11 411.36" stroke="black" stroke-width="4" stroke-miterlimit="10"/>
<path d="M482.23 440.71V451.84L459.2 440.41L482.23 440.71Z" fill="black"/>
<path d="M159 434C156.667 445.167 152 473.6 152 498" stroke="black" stroke-width="4" stroke-linecap="round"/>
<path d="M296 399C296 399 290.5 422.5 294 451C297.5 479.5 296 499 296 499" stroke="black" stroke-width="4" stroke-linecap="round"/>
<ellipse cx="282.5" cy="461.5" rx="4.5" ry="6.5" fill="black"/>
<ellipse cx="282.5" cy="494.5" rx="4.5" ry="6.5" fill="black"/>
</svg>
