<svg width="662" height="564" viewBox="0 0 662 564" fill="none" xmlns="http://www.w3.org/2000/svg">
<path d="M142.11 273.68C142.11 169.32 226.71 84.71 331.08 84.71C435.44 84.71 520.05 169.31 520.05 273.68C520.05 378.04 435.45 462.65 331.08 462.65C226.72 462.65 142.11 378.05 142.11 273.68Z" fill="#FF0077" stroke="black" stroke-width="4" stroke-miterlimit="10"/>
<path d="M328.65 236.91C328.65 236.91 328.43 219.49 309.53 216.01C285.02 211.5 260.49 211.48 241.96 226.46C223.43 241.44 225.79 274.17 229.93 285.21C234.07 296.25 249.25 314.58 253.19 328.98C257.13 343.37 320.42 254.66 320.42 254.66L328.65 236.92V236.91Z" fill="black"/>
<path d="M94.79 401.13C112.35 372.23 136.65 346.19 204.23 358.61C206.48 359.02 208.69 359.44 210.87 359.87C215.67 345.17 229.61 332.77 248.81 335.46C248.81 335.46 286.34 354.49 296.02 363.45C304.7 371.49 307.33 383.62 308.1 390.98C322.01 397.76 335.51 405.4 350.2 414.15C394.9 440.76 402.13 499.91 402.13 499.91H74.04C74.04 499.91 77.23 430.04 94.79 401.14V401.13Z" fill="black"/>
<path d="M315.09 341L295.77 401.33C295.77 401.33 270.93 389.66 258.71 372.55C246.49 355.44 244.52 345.74 244.52 345.74L271.33 279.11L296.96 285.42L315.1 341.01L315.09 341Z" fill="white" stroke="black" stroke-width="4" stroke-miterlimit="10"/>
<path d="M279.8 301.77C279.66 315.23 283.76 343.31 307.9 363.45L314.96 341.4L279.8 301.77Z" fill="black"/>
<path d="M520.04 273.68C520.04 232.82 507.07 195 485.03 164.09L302.05 253.97V296.06L478.46 391.94C504.47 359.56 520.04 318.45 520.04 273.69V273.68Z" fill="white" stroke="black" stroke-width="4" stroke-miterlimit="10"/>
<path d="M276.26 287.38C276.26 287.38 274.08 308.28 288.29 329.17C303.52 351.58 334.03 349.22 344.27 348.52C346.66 348.36 348.4 346.16 348.02 343.79L335.04 261.55C333.77 253.51 331.24 245.72 327.53 238.47L326.73 236.9L279.81 238.28L276.26 287.37V287.38Z" fill="white" stroke="black" stroke-width="4" stroke-miterlimit="10"/>
<path d="M342.16 306.7C337.61 306.7 328.5 306.7 324.16 306.7C318.25 306.7 315.09 313.99 315.09 313.99C315.09 313.99 304.25 313 297.74 301.77C291.23 290.53 290.26 272.99 290.26 272.99L277.22 274.02L276.25 287.38C276.25 287.38 274.07 308.28 288.28 329.17C303.51 351.58 334.02 349.22 344.26 348.52C346.65 348.36 348.39 346.16 348.01 343.79L342.16 306.69V306.7Z" fill="black"/>
<path d="M227.63 261.06H284.93V260.8C284.93 256.43 288.48 252.88 292.85 252.88H352.91C357.28 252.88 360.83 256.42 360.83 260.8V288.14C360.83 292.51 357.28 296.06 352.91 296.06H292.85C288.48 296.06 284.93 292.52 284.93 288.14V287.88H227.63C223.26 287.88 219.71 284.34 219.71 279.96V268.99C219.71 264.62 223.25 261.07 227.63 261.07V261.06Z" fill="white" stroke="black" stroke-width="4" stroke-miterlimit="10"/>
<path d="M355.05 252.88H307.1C303.908 252.88 301.32 255.468 301.32 258.66V290.27C301.32 293.462 303.908 296.05 307.1 296.05H355.05C358.242 296.05 360.83 293.462 360.83 290.27V258.66C360.83 255.468 358.242 252.88 355.05 252.88Z" fill="black"/>
<path d="M237.64 247.63C226.05 255.45 203.16 255.74 197.94 238.07C192.72 220.4 201.96 204.34 211.27 198.66C222.08 192.07 237.06 194.67 244.3 207.93C248.66 215.92 249.9 223.02 249.9 223.02L237.64 247.62V247.63Z" fill="black"/>
<path d="M433.56 216.07L457.76 234.76C461.96 238 461.03 244.59 456.09 246.54L425.28 258.7C420.2 260.7 414.94 256.24 416.08 250.9L422.69 220.06C423.74 215.14 429.58 213 433.56 216.08V216.07Z" fill="#FF0077" stroke="black" stroke-width="4" stroke-miterlimit="10"/>
<path d="M571.06 190.67L528.22 198.85C520.78 200.27 514.63 193.04 517.22 185.93L533.37 141.53C536.03 134.21 545.78 132.81 550.4 139.08L577.09 175.3C581.35 181.08 578.12 189.33 571.06 190.67Z" fill="black"/>
<path d="M558.21 313.43L521.52 352.75C515.15 359.58 503.77 356.86 501.17 347.9L484.93 291.95C482.25 282.73 490.93 274.24 500.09 277.12L553.02 293.74C561.47 296.39 564.25 306.95 558.21 313.43Z" fill="#FF0077" stroke="black" stroke-width="4" stroke-miterlimit="10"/>
<path d="M423.7 294.73L431.61 314.32C432.98 317.72 430.13 321.32 426.51 320.76L403.9 317.26C400.17 316.68 398.59 312.19 401.13 309.4L415.83 293.32C418.18 290.75 422.4 291.51 423.7 294.74V294.73Z" fill="black"/>
<path d="M614.67 220.4L622.58 239.99C623.95 243.39 621.1 246.99 617.48 246.43L594.87 242.93C591.14 242.35 589.56 237.86 592.1 235.07L606.8 218.99C609.15 216.42 613.37 217.17 614.67 220.4Z" fill="#FF0077" stroke="black" stroke-width="4" stroke-miterlimit="10"/>
<path d="M360.83 288.13V260.79C360.83 256.42 357.28 252.87 352.91 252.87H344.94L358.1 294.1C359.77 292.65 360.83 290.51 360.83 288.13Z" fill="#FF0077" stroke="black" stroke-width="4" stroke-miterlimit="10"/>
<path d="M75.1802 500.22C75.1802 500.22 78.3702 430.35 95.9302 401.45C113.49 372.55 137.79 346.51 205.37 358.93C207.62 359.34 209.83 359.76 212.01 360.19" stroke="black" stroke-width="4" stroke-miterlimit="10"/>
<path d="M39 500.22H549.19" stroke="black" stroke-width="4" stroke-miterlimit="10" stroke-linecap="round"/>
<path d="M505.04 370.68L546.9 383.19C554.17 385.36 556.3 394.62 550.71 399.75L515.85 431.76C510.1 437.04 500.8 433.79 499.58 426.08L492.58 381.56C491.46 374.45 498.14 368.62 505.03 370.68H505.04Z" fill="black"/>
<path d="M526.22 414.98L539.98 400.56C545.73 394.75 555.1 394.69 560.91 400.44L557.89 403.49L542.66 418.87C542.66 418.87 542.65 418.88 542.64 418.89L527.77 433.63" fill="white"/>
<path d="M526.22 414.98L539.98 400.56C545.73 394.75 555.1 394.69 560.91 400.44L557.89 403.49L542.66 418.87C542.66 418.87 542.65 418.88 542.64 418.89L527.77 433.63" stroke="black" stroke-width="4" stroke-miterlimit="10"/>
<path d="M474.06 499.89H416L426.44 445.07C428.64 433.52 435.21 423.13 445.04 416.68C462.21 405.4 486.22 406.91 501.97 426.22H511.49V402.8C511.49 394.18 518.47 387.2 527.09 387.2V413.27V431.91C527.09 436.72 523.35 440.68 518.62 441.03H474.15H453.05L474.15 449.53L474.06 499.89Z" fill="white" stroke="black" stroke-width="4" stroke-miterlimit="10"/>
<path d="M526.94 434.59C526.94 434.59 526.99 434.56 527.01 434.53L535.71 425.9H549.28C557.46 425.9 564.08 432.53 564.08 440.7H521.87C524.28 439.43 526.12 437.23 526.93 434.58L526.94 434.59Z" fill="white" stroke="black" stroke-width="4" stroke-miterlimit="10"/>
<path d="M555.52 403.44C552.13 400.81 547.23 401.13 544.22 404.31C541.42 407.27 541.18 411.74 543.43 414.95L543.78 415.5" fill="white"/>
<path d="M555.52 403.44C552.13 400.81 547.23 401.13 544.22 404.31C541.42 407.27 541.18 411.74 543.43 414.95L543.78 415.5" stroke="black" stroke-width="4" stroke-miterlimit="10"/>
<path d="M558.21 439.33C557.51 435.37 554.05 432.36 549.89 432.36C545.73 432.36 542.4 435.25 541.62 439.1" fill="white"/>
<path d="M558.21 439.33C557.51 435.37 554.05 432.36 549.89 432.36C545.73 432.36 542.4 435.25 541.62 439.1" stroke="black" stroke-width="4" stroke-miterlimit="10"/>
<path d="M526.98 394.69C522.71 395.11 519.37 398.71 519.37 403.09C519.37 407.17 522.26 410.58 526.11 411.36" stroke="black" stroke-width="4" stroke-miterlimit="10"/>
<path d="M476.23 440.71V451.84L453.2 440.41L476.23 440.71Z" fill="black"/>
</svg>
