<svg width="458" height="564" viewBox="0 0 458 564" fill="none" xmlns="http://www.w3.org/2000/svg">
<g clip-path="url(#clip0_8331_278)">
<path d="M281.83 172.03H294.83C311.87 172.03 327.56 181.33 335.73 196.29L359.68 240.11L330.23 275L317.7 268.39L320.6 375.84L175.15 378.39L189.21 269.6L160.44 265.47C160.44 265.47 124.69 236.52 124.68 236.51C127.7 232.26 138.29 215.19 147.82 199.68C158.37 182.51 177.08 172.05 197.24 172.05H225.82" fill="black"/>
<path d="M281.83 172.03H294.83C311.87 172.03 327.56 181.33 335.73 196.29L359.68 240.11L330.23 275L317.7 268.39L320.6 375.84L175.15 378.39L189.21 269.6L160.44 265.47C160.44 265.47 124.69 236.52 124.68 236.51C127.7 232.26 138.29 215.19 147.82 199.68C158.37 182.51 177.08 172.05 197.24 172.05H225.82" stroke="black" stroke-width="4" stroke-linecap="round" stroke-linejoin="round"/>
<path d="M320.49 375.84L268.31 377.2H175.17L157.01 420.4C153.66 429.35 152.35 438.87 153.18 448.34L157.41 496.75H323.99L320.5 375.84H320.49Z" fill="white" stroke="black" stroke-width="4" stroke-linecap="round" stroke-linejoin="round"/>
<path d="M260.09 435.38C260.09 435.38 253.14 444.37 252.65 497.43L260.09 435.38Z" fill="white"/>
<path d="M260.09 435.38C260.09 435.38 253.14 444.37 252.65 497.43" stroke="black" stroke-width="4" stroke-linecap="round" stroke-linejoin="round"/>
<path d="M36 497.44H412.18" stroke="black" stroke-width="4" stroke-linecap="round" stroke-linejoin="round"/>
<path d="M190.81 256.1L194.12 233.63" stroke="black" stroke-width="4" stroke-linecap="round" stroke-linejoin="round"/>
<path d="M313.4 223.29L314.58 244.01" stroke="black" stroke-width="4" stroke-linecap="round" stroke-linejoin="round"/>
<path d="M285.26 122.4L295.86 122.42L295.88 87.9898C296.41 68.8298 281 53.0098 261.82 53.0098C252.8 53.0098 244.55 56.5298 238.42 62.3098C232.31 68.0898 228.33 76.1198 227.81 85.1298L226.67 105.01C226.67 115.09 226 181.05 226 181.05C226 196.01 238.33 208.08 253.38 207.67C268.43 207.26 279.26 195.01 279.26 180.49V128.38C279.26 125.08 281.94 122.41 285.24 122.41L285.26 122.4Z" fill="white" stroke="black" stroke-width="4" stroke-linecap="round" stroke-linejoin="round"/>
<path d="M229.19 118.59C229.19 118.59 225.21 119.75 220.49 115.2C217.28 112.08 217.42 106.38 220.86 103.64L220.9 103.62C224.35 100.88 228.99 102 231.27 106.13" fill="white"/>
<path d="M229.19 118.59C229.19 118.59 225.21 119.75 220.49 115.2C217.28 112.08 217.42 106.38 220.86 103.64L220.9 103.62C224.35 100.88 228.99 102 231.27 106.13" stroke="black" stroke-width="4" stroke-miterlimit="10" stroke-linecap="round"/>
<path d="M110.66 422.391H208.26V446.911H110.66C107.53 446.911 105 444.371 105 441.251V428.061C105 424.931 107.54 422.401 110.66 422.401V422.391Z" fill="#FF0077" stroke="black" stroke-width="4" stroke-linecap="round" stroke-linejoin="round"/>
<path d="M206.7 434.641H133" stroke="black" stroke-width="4" stroke-linecap="round" stroke-linejoin="round"/>
<path d="M202.601 471.59H105.001V447.07H202.601C205.731 447.07 208.261 449.61 208.261 452.73V465.92C208.261 469.05 205.721 471.58 202.601 471.58V471.59Z" fill="#FF0077" stroke="black" stroke-width="4" stroke-linecap="round" stroke-linejoin="round"/>
<path d="M106.551 459.33H180.261" stroke="black" stroke-width="4" stroke-linecap="round" stroke-linejoin="round"/>
<path d="M202.601 422.21H105.001V397.69H202.601C205.731 397.69 208.261 400.23 208.261 403.35V416.54C208.261 419.67 205.721 422.2 202.601 422.2V422.21Z" fill="#FF0077" stroke="black" stroke-width="4" stroke-linecap="round" stroke-linejoin="round"/>
<path d="M106.551 409.95H180.261" stroke="black" stroke-width="4" stroke-linecap="round" stroke-linejoin="round"/>
<path d="M110.66 472.23H208.26V496.75H110.66C107.53 496.75 105 494.21 105 491.09V477.9C105 474.77 107.54 472.24 110.66 472.24V472.23Z" fill="#FF0077" stroke="black" stroke-width="4" stroke-linecap="round" stroke-linejoin="round"/>
<path d="M206.7 484.49H133" stroke="black" stroke-width="4" stroke-linecap="round" stroke-linejoin="round"/>
<path d="M323.75 496.809L306.28 437.309C305.63 435.049 307.37 432.809 309.72 432.869L378.98 432.939C381.2 432.999 382.8 435.079 382.29 437.229L368.16 496.819H323.76L323.75 496.809Z" fill="black"/>
<path d="M345.121 436.47C341.511 424.15 341.211 398.35 344.761 382.13" stroke="black" stroke-width="4" stroke-miterlimit="10"/>
<path d="M346.131 373.27C347.261 366 351.251 359.39 357.391 355.34C362.031 352.28 368.261 350.36 376.171 352.45C376.171 352.45 389.431 354.97 386.951 362.86C385.391 367.83 378.981 375.31 366.971 374.49C354.961 373.67 352.501 372.89 348.371 376.39C346.121 378.3 344.761 382.14 344.761 382.14L346.131 373.27Z" fill="#FF0077" stroke="black" stroke-width="4" stroke-miterlimit="10"/>
<path d="M342.28 406.06C342.41 397.25 349 390.25 357.19 387.19C359.87 386.19 362.81 385.22 365.96 385.7C373.34 386.83 377.31 392.22 376.09 396.01C375.36 398.29 372.75 399.98 367.89 399.84C355.07 399.48 350.29 393.93 343.93 398.85" fill="#FF0077"/>
<path d="M342.28 406.06C342.41 397.25 349 390.25 357.19 387.19C359.87 386.19 362.81 385.22 365.96 385.7C373.34 386.83 377.31 392.22 376.09 396.01C375.36 398.29 372.75 399.98 367.89 399.84C355.07 399.48 350.29 393.93 343.93 398.85" stroke="black" stroke-width="4" stroke-miterlimit="10"/>
<path d="M376.08 396.01C376.08 396.01 357.19 387.18 347.79 396.07" stroke="black" stroke-width="4" stroke-miterlimit="10"/>
<path d="M342.77 397.28C343.21 388.44 335.62 378.88 326.47 375.45C323.48 374.33 320.19 373.25 316.68 373.79C308.45 375.06 304.01 381.07 305.37 385.3C306.19 387.84 309.1 389.74 314.52 389.59C328.84 389.18 336.65 382.34 341.02 388.99" fill="#FF0077"/>
<path d="M342.77 397.28C343.21 388.44 335.62 378.88 326.47 375.45C323.48 374.33 320.19 373.25 316.68 373.79C308.45 375.06 304.01 381.07 305.37 385.3C306.19 387.84 309.1 389.74 314.52 389.59C328.84 389.18 336.65 382.34 341.02 388.99" stroke="black" stroke-width="4" stroke-miterlimit="10"/>
<path d="M305.381 385.3C305.381 385.3 326.481 375.44 336.971 385.37" stroke="black" stroke-width="4" stroke-miterlimit="10"/>
<path d="M342.77 418.99C341.92 412.19 336.84 404.4 329.52 401.66C327.13 400.76 324.5 399.9 321.69 400.33C315.1 401.34 311.55 406.15 312.64 409.54C313.29 411.57 315.62 413.09 319.96 412.97C331.42 412.65 337.73 407.35 340.61 412.13" fill="#FF0077"/>
<path d="M342.77 418.99C341.92 412.19 336.84 404.4 329.52 401.66C327.13 400.76 324.5 399.9 321.69 400.33C315.1 401.34 311.55 406.15 312.64 409.54C313.29 411.57 315.62 413.09 319.96 412.97C331.42 412.65 337.73 407.35 340.61 412.13" stroke="black" stroke-width="4" stroke-miterlimit="10"/>
<path d="M312.641 409.55C312.641 409.55 329.531 401.67 337.931 409.61" stroke="black" stroke-width="4" stroke-miterlimit="10"/>
<path d="M343.021 424.159C343.251 416.699 350.001 411.109 357.121 409.259C359.441 408.659 361.991 408.109 364.581 408.789C370.651 410.389 373.491 415.239 372.141 418.299C371.331 420.139 369.001 421.329 364.951 420.789C354.261 419.349 350.041 413.109 344.971 417.779" fill="#FF0077"/>
<path d="M343.021 424.159C343.251 416.699 350.001 411.109 357.121 409.259C359.441 408.659 361.991 408.109 364.581 408.789C370.651 410.389 373.491 415.239 372.141 418.299C371.331 420.139 369.001 421.329 364.951 420.789C354.261 419.349 350.041 413.109 344.971 417.779" stroke="black" stroke-width="4" stroke-miterlimit="10"/>
<path d="M372.131 418.3C372.131 418.3 357.111 409.26 348.471 415.86" stroke="black" stroke-width="4" stroke-miterlimit="10"/>
<path d="M386.94 362.86C386.94 362.86 360.44 353.63 346.16 376.57" stroke="black" stroke-width="4" stroke-miterlimit="10"/>
<path d="M354.27 303.91C372.94 303.91 380.63 283.2 374.42 268.91C367.3 252.52 356.92 235.93 356.92 235.93L315.31 255.35L321.76 265.46L259.38 275.71C259.38 275.71 248.22 272.23 245.78 272.03C244.15 271.9 242.68 271.79 241.58 271.71C240.25 271.61 238.94 272.11 237.99 273.06L233.19 277.89L227.97 280.68C227.1 281.16 226.6 282.19 226.83 283.19C227.16 284.64 227.84 286.5 228.67 288.43C230.81 293.33 233.7 297.84 237.34 301.62C237.36 301.64 237.38 301.66 237.4 301.68C239.87 304.24 243.36 304.09 246.92 303.9C268.8 302.72 354.27 303.9 354.27 303.9V303.91Z" fill="white" stroke="black" stroke-width="4" stroke-miterlimit="10"/>
<path d="M127.94 306.36C109.27 306.36 98.2403 288.82 107.79 268.91C115.52 252.8 125.29 235.93 125.29 235.93L166.9 255.35L160.45 265.46L222.83 275.71C222.83 275.71 233.99 272.23 236.43 272.03C238.06 271.9 239.53 271.79 240.63 271.71C241.96 271.61 243.27 272.11 244.22 273.06L249.02 277.89L254.24 280.68C255.11 281.16 255.61 282.19 255.38 283.19C255.05 284.64 254.37 286.5 253.54 288.43C251.4 293.33 248.51 297.84 244.87 301.62C244.85 301.64 244.83 301.66 244.81 301.68C242.34 304.24 238.85 306.54 235.29 306.35H127.94V306.36Z" fill="white" stroke="black" stroke-width="4" stroke-miterlimit="10"/>
<path d="M139.301 261.069L159.481 265.259" stroke="black" stroke-width="4" stroke-miterlimit="10" stroke-linecap="round"/>
<path d="M222.83 275.71C227.32 263.87 240.41 263.65 247.57 263.65H315.25C320.58 263.65 324.91 267.91 324.97 273.24L325.07 280.49L326.02 348.62C326.08 352.79 322.72 356.19 318.55 356.19H246.91C242.74 356.18 239.38 352.77 239.44 348.6C239.71 330.26 240.37 284.79 240.37 281.93C240.37 280 240.1 278.21 239.68 276.65C238.76 273.19 235.01 271.34 231.74 272.79C228.47 274.24 222.16 276.58 222.82 275.71H222.83Z" fill="#FF0077" stroke="black" stroke-width="4" stroke-linecap="round" stroke-linejoin="round"/>
<path d="M270.22 164.8C256.04 164.8 244.54 153.3 244.54 139.12V120.5L254.01 118.93C265.31 117.06 276.84 117.13 288.11 119.12L295.89 120.5V139.12C295.89 153.3 284.39 164.8 270.21 164.8H270.22Z" fill="black" stroke="black" stroke-width="4" stroke-linecap="round" stroke-linejoin="round"/>
<path d="M248.34 93.9102H248.33C246.237 93.9102 244.54 95.607 244.54 97.7002V122.56C244.54 124.653 246.237 126.35 248.33 126.35H248.34C250.433 126.35 252.13 124.653 252.13 122.56V97.7002C252.13 95.607 250.433 93.9102 248.34 93.9102Z" fill="black" stroke="black" stroke-width="4" stroke-linecap="round" stroke-linejoin="round"/>
</g>
<defs>
<clipPath id="clip0_8331_278">
<rect width="380.18" height="448.44" fill="white" transform="translate(34 51)"/>
</clipPath>
</defs>
</svg>
