<svg width="375" height="555" viewBox="0 0 375 555" fill="none" xmlns="http://www.w3.org/2000/svg">
<g clip-path="url(#clip0_8331_344)">
<path d="M254.419 175.94C244.819 164.45 248.749 127.57 230.309 118.22C239.509 111.39 245.249 100.15 244.409 87.6305C243.239 70.3205 229.219 56.2805 211.909 55.0905C191.419 53.6805 174.369 69.8805 174.369 90.0605C174.369 92.1805 175.249 96.5804 175.619 98.6004L162.489 98.7205C139.819 98.7205 122.719 116.97 122.719 139.64V146.44C122.719 161.34 118.659 176.07 110.429 188.49C103.059 199.62 98.6094 214 98.6094 229.71C98.6094 265 121.039 293.61 148.719 293.61C160.139 293.61 170.659 288.73 179.079 280.53L229.529 337.34C229.529 337.34 369.469 313.58 254.419 175.93V175.94Z" fill="black"/>
<path d="M202.319 207.38C202.039 206.37 200.369 204.19 197.039 204.63C193.709 205.06 199.679 217.6 199.679 217.6L202.909 213.25L202.319 207.38Z" fill="black"/>
<path d="M204.14 169.99C204.14 169.99 203.13 229.77 198.34 244.56C157.03 269.35 149.83 244.46 149.83 244.46L154.76 208.97C155.64 188.52 204.14 170 204.14 170V169.99Z" fill="white"/>
<path d="M204.139 169.99L202.779 247.85L154.319 211.81L154.759 208.96C155.639 188.51 204.139 169.99 204.139 169.99Z" fill="black"/>
<path d="M226.43 236.371L249.25 318.241C251.89 327.721 258.94 335.521 268.3 338.541C274.79 340.631 281.91 340.441 288.24 337.231C300.48 331.021 306.05 316.881 301.88 304.241C301.23 302.261 300.28 300.391 299.2 298.601L254.74 225.161L226.25 235.681C224.33 228.591 217.89 223.661 210.54 223.671C198.61 223.691 182.46 223.711 182.46 223.711C175.94 238.061 167.03 240.711 161.47 240.411C149.82 239.801 149.82 227.071 149.82 227.071C149.82 227.071 116.44 222.541 100.97 258.421C93.6898 275.311 77.2998 324.211 69.3498 352.361C66.6798 361.811 71.7198 371.711 80.9198 375.121C93.9798 379.951 110.34 385.931 111.46 385.931C110.23 397.981 107.9 418.871 107.26 430.341H257.5C257.5 430.341 258.76 402.55 257.5 375C256.13 345.08 254.74 329.049 254.74 329.049" fill="#FF0077"/>
<path d="M226.43 236.371L249.25 318.241C251.89 327.721 258.94 335.521 268.3 338.541C274.79 340.631 281.91 340.441 288.24 337.231C300.48 331.021 306.05 316.881 301.88 304.241C301.23 302.261 300.28 300.391 299.2 298.601L254.74 225.161L226.25 235.681C224.33 228.591 217.89 223.661 210.54 223.671C198.61 223.691 182.46 223.711 182.46 223.711C175.94 238.061 167.03 240.711 161.47 240.411C149.82 239.801 149.82 227.071 149.82 227.071C149.82 227.071 116.44 222.541 100.97 258.421C93.6898 275.311 77.2998 324.211 69.3498 352.361C66.6798 361.811 71.7198 371.711 80.9198 375.121C93.9798 379.951 110.34 385.931 111.46 385.931C110.23 397.981 107.9 418.871 107.26 430.341H257.5C257.5 430.341 258.76 402.55 257.5 375C256.13 345.08 254.74 329.049 254.74 329.049" stroke="black" stroke-width="4" stroke-linejoin="round"/>
<path d="M152.89 243.511C152.89 243.511 146.16 258.361 149.83 271.911" stroke="black" stroke-width="4" stroke-linecap="round"/>
<path d="M169.899 245.311C169.899 245.311 162.879 260.351 166.539 273.891" stroke="black" stroke-width="4" stroke-linecap="round"/>
<path d="M168.861 208.375C151.066 208.804 136.282 194.706 135.854 176.921L135.079 144.78C134.653 127.065 148.692 112.333 166.407 111.906L176.134 111.672C187.351 111.401 196.677 120.289 196.948 131.506L198.062 177.753C198.459 194.258 185.376 207.987 168.871 208.385L168.861 208.375Z" fill="white"/>
<path d="M136.06 122.351C136.06 122.351 152.79 151.521 194.57 156.581C236.35 161.641 235.8 146.641 235.8 146.641C235.8 146.641 225.49 106.311 187.96 104.861C150.43 103.411 138.65 118.661 138.65 118.661L136.05 122.341L136.06 122.351Z" fill="black"/>
<path d="M195.4 155.761C199.4 152.671 205.72 152.061 210.16 156.821C211.97 158.761 212.9 161.541 212.51 164.541C211.42 172.911 202.09 177.481 197.02 175.491C191.7 173.411 193.41 157.541 193.72 157.081C193.74 157.051 195.39 155.771 195.39 155.771L195.4 155.761Z" fill="white"/>
<path d="M127.33 320.141L116.29 359.121" stroke="black" stroke-width="4" stroke-linecap="round" stroke-linejoin="round"/>
<path d="M193.82 192.46C193.94 191.25 211.18 175.36 212.12 173.4C212.71 172.13 231.99 174.2 231.99 174.2C232.21 174.91 256.48 226.06 256.48 226.06L226.85 237.45L223.65 224.38C222.48 219.62 219.96 215.29 216.37 211.95C214.55 210.26 206.06 206.46 200.54 203.94C197.53 202.56 195.36 199.84 194.68 196.6L193.82 192.46Z" fill="white" stroke="black" stroke-width="4" stroke-linecap="round" stroke-linejoin="round"/>
<path d="M231.99 187.11H175.96V193.39H231.99V187.11Z" fill="white" stroke="black" stroke-width="4" stroke-linecap="round" stroke-linejoin="round"/>
<path d="M170.57 183.2H159.87C156.015 183.2 152.89 186.325 152.89 190.18C152.89 194.035 156.015 197.16 159.87 197.16H170.57C174.425 197.16 177.55 194.035 177.55 190.18C177.55 186.325 174.425 183.2 170.57 183.2Z" fill="white" stroke="black" stroke-width="4" stroke-linecap="round" stroke-linejoin="round"/>
<path d="M123.771 418.601H107.531V429.841H123.771V418.601Z" fill="#FF0077"/>
<path d="M121.771 420.601V427.841H109.531V420.601H121.771ZM125.771 416.601H105.531V431.841H125.771V416.601Z" fill="black"/>
<path d="M116.221 353.99H95.381C91.851 353.99 89.281 357.33 90.181 360.74L104.881 416.59C105.501 418.95 107.641 420.6 110.081 420.6H121.171C123.611 420.6 125.751 418.95 126.371 416.59L141.071 360.74C141.971 357.33 139.391 353.99 135.871 353.99H116.221Z" fill="white" stroke="black" stroke-width="4" stroke-linecap="round" stroke-linejoin="round"/>
<path d="M91.1914 364.59H139.701" stroke="black" stroke-width="4" stroke-linecap="round" stroke-linejoin="round"/>
<path d="M231.989 186.161H218.199L215.049 193.411H192.439L196.959 179.901C198.769 174.211 202.709 171.671 207.029 171.691L223.719 171.671C228.039 171.671 231.969 174.161 233.799 178.071L236.089 182.951" fill="white"/>
<path d="M231.989 186.161H218.199L215.049 193.411H192.439L196.959 179.901C198.769 174.211 202.709 171.671 207.029 171.691L223.719 171.671C228.039 171.671 231.969 174.161 233.799 178.071L236.089 182.951" stroke="black" stroke-width="4" stroke-linecap="round" stroke-linejoin="round"/>
<path d="M259.97 430.54L259.99 375.6C259.99 364.03 251.64 354.65 241.33 354.65H234.67C224.36 354.65 216 364.02 216 375.58" stroke="black" stroke-width="14" stroke-linejoin="round"/>
<path d="M249.18 416.15C249.18 411.63 245.52 407.96 240.99 407.96C236.47 407.96 232.8 411.62 232.8 416.15V430.54H249.18C249.18 430.54 249.18 415.93 249.18 416.16V416.15Z" fill="black"/>
<path d="M286.49 416.17C286.49 411.65 282.83 407.98 278.3 407.98C273.78 407.98 270.11 411.64 270.11 416.17V430.56H286.49C286.49 430.56 286.49 415.95 286.49 416.18V416.17Z" fill="black"/>
<path d="M62 430.35H303.26V467.41C303.26 479.13 293.75 488.64 282.03 488.64H83.23C71.51 488.64 62 479.13 62 467.41V430.35Z" fill="white" stroke="black" stroke-width="4" stroke-linejoin="round"/>
</g>
<defs>
<clipPath id="clip0_8331_344">
<rect width="245.33" height="435.64" fill="white" transform="translate(60 55)"/>
</clipPath>
</defs>
</svg>
