<svg width="525" height="383" viewBox="0 0 525 383" fill="none" xmlns="http://www.w3.org/2000/svg">
<g clip-path="url(#clip0_8332_123)">
<path d="M340.65 201.96C337 198.02 317.51 185.96 316.96 180.62C316.06 171.74 319.77 163.1 323.49 154.99C328.23 144.66 329.12 138.56 329.01 132.75C328.53 108.62 309.44 89.0498 285.31 89.0498C261.18 89.0498 241.61 108.62 241.61 132.75C241.61 156.88 261.18 176.45 285.31 176.45C285.61 176.45 285.9 176.43 286.2 176.43V221.04C270.77 232.02 260.7 250.03 260.7 270.4C260.7 303.84 287.81 330.96 321.26 330.96C354.71 330.96 381.82 303.85 381.82 270.4C381.82 244.04 343.09 204.59 340.65 201.96Z" fill="black"/>
<path d="M300.91 195.939H257.25V232.089H300.91V195.939Z" fill="white" stroke="black" stroke-width="4"/>
<path d="M255.43 204.38L270.16 219.71L300.91 200.91V191.26H254.99L255.43 204.38Z" fill="black"/>
<path d="M313.29 126.829C313.29 106.754 297.015 90.4795 276.94 90.4795C256.864 90.4795 240.59 106.754 240.59 126.829V165.939C240.59 186.015 256.864 202.289 276.94 202.289C297.015 202.289 313.29 186.015 313.29 165.939V126.829Z" fill="white" stroke="black" stroke-width="4"/>
<path d="M273.9 93.9197L302.49 63.2097C301 60.5797 298.39 58.2397 294.05 56.7597C278.06 51.3297 263.83 49.5897 244.98 56.6597C225.19 64.0797 205.29 88.2997 207.73 124.58C209.39 149.32 212.85 162.3 194.59 175.64C173.64 190.94 161.64 201.34 165.39 220.23C167.6 231.34 165.07 242.98 150.5 251.66C77.1002 295.43 75.9002 326.29 79.5202 338.56H192.39C193.34 319.45 200.11 255.49 248.58 268.8C258.23 244.11 286.86 210.3 272.08 181.62C254 146.53 256.05 132.1 252.56 115.34C249.07 98.5697 260.6 95.0497 273.9 93.9297V93.9197Z" fill="black"/>
<path d="M146.54 337.18C146.63 328.76 148.73 282.8 183.21 244.63C206.98 218.31 234 207.24 261.89 217.92C269.55 220.85 277.58 223.55 285.73 223.55H302.85V229.79C302.85 241.9 311.44 253.31 320.54 260.62C347.9 282.6 382.32 309.98 402.17 325.74V336.71" fill="#FF0077"/>
<path d="M146.54 337.18C146.63 328.76 148.73 282.8 183.21 244.63C206.98 218.31 234 207.24 261.89 217.92C269.55 220.85 277.58 223.55 285.73 223.55H302.85V229.79C302.85 241.9 311.44 253.31 320.54 260.62C347.9 282.6 382.32 309.98 402.17 325.74V336.71" stroke="black" stroke-width="4"/>
<path d="M370.8 173.27H362.47C360.107 173.27 358.19 175.186 358.19 177.55C358.19 179.913 360.107 181.83 362.47 181.83H370.8C373.164 181.83 375.08 179.913 375.08 177.55C375.08 175.186 373.164 173.27 370.8 173.27Z" fill="white"/>
<path d="M231.18 284.63C231.18 284.63 214.64 302.71 212.41 337.18" stroke="black" stroke-width="4" stroke-linecap="round"/>
<path d="M66.9697 336.71C70.7897 323.34 85.9297 287.58 142.98 255.75C142.98 255.75 158.56 247.41 158.6 230.07C158.64 212.73 152.02 197.26 173.11 186.44C194.2 175.62 207.87 169.8 210.45 155.91" stroke="black" stroke-width="4" stroke-linecap="round"/>
<path d="M272.1 84.4397L273.9 84.2897C276.95 84.0297 280.03 84.2297 283.02 84.8997L286.85 85.7497L287.06 90.9997L282.58 90.6297C280.16 90.4297 277.72 90.4097 275.29 90.5797L272.1 90.7997C272.1 90.7997 272.06 84.4397 272.1 84.4397Z" fill="#FF0077" stroke="black" stroke-width="4" stroke-miterlimit="10"/>
<path d="M291.6 92.7895C291.6 92.7895 291.5 132.469 246.96 133.099C202.42 133.729 258.11 94.0095 258.11 94.0095L261.14 93.1595C269.7 90.7495 278.7 90.3495 287.43 92.0095L291.59 92.7995L291.6 92.7895Z" fill="black"/>
<path d="M279.57 93.9199C279.57 93.9199 278.06 129.85 308.35 130.28C338.64 130.71 301.34 95.8499 301.34 95.8499L279.57 93.9199Z" fill="black"/>
<path d="M270.27 140.17C274.25 140.17 277.48 143.7 277.48 148.05" stroke="white" stroke-width="4" stroke-linecap="round"/>
<path d="M53 337.18H68.83" stroke="black" stroke-width="4" stroke-linecap="round"/>
<path d="M425.7 336.77L380.09 217.44L348.56 228.01L366.63 336.71" fill="#FF0077"/>
<path d="M425.7 336.77L380.09 217.44L348.56 228.01L366.63 336.71" stroke="black" stroke-width="4" stroke-linejoin="round"/>
<path d="M317.18 178.47C317.39 177.21 336.61 161.8 337.74 159.8C338.15 159.07 344.82 159.9 350.5 160.76C355.4 161.5 359.54 164.79 361.34 169.41C367.4 184.97 380.1 217.44 380.1 217.44L348.57 228.01L346.15 214.08C345.27 209 342.94 204.28 339.41 200.52C337.63 198.61 328.99 194.02 323.39 190.98C320.33 189.32 318.26 186.31 317.78 182.86L317.17 178.46L317.18 178.47Z" fill="white" stroke="black" stroke-width="4" stroke-linecap="round" stroke-linejoin="round"/>
<path d="M357.833 176.861L299.145 171.995L298.599 178.573L357.288 183.439L357.833 176.861Z" fill="white" stroke="black" stroke-width="4" stroke-linecap="round" stroke-linejoin="round"/>
<path d="M301.249 168.035L289.34 167.047C285.498 166.729 282.126 169.585 281.807 173.427L281.748 174.134C281.43 177.976 284.286 181.349 288.128 181.667L300.037 182.655C303.879 182.973 307.251 180.117 307.57 176.275L307.628 175.568C307.947 171.726 305.091 168.354 301.249 168.035Z" fill="white" stroke="black" stroke-width="4" stroke-linecap="round" stroke-linejoin="round"/>
<path d="M357.9 175.9L343.46 174.7L339.53 182.02L315.85 180.03L321.76 166.29C324.15 160.49 328.5 158.17 333.02 158.58L350.5 160.02C355.02 160.39 358.92 163.35 360.5 167.61L362.47 172.92" fill="white"/>
<path d="M357.9 175.9L343.46 174.7L339.53 182.02L315.85 180.03L321.76 166.29C324.15 160.49 328.5 158.17 333.02 158.58L350.5 160.02C355.02 160.39 358.92 163.35 360.5 167.61L362.47 172.92" stroke="black" stroke-width="4" stroke-linecap="round" stroke-linejoin="round"/>
<path d="M68.8301 337.18H456.07" stroke="black" stroke-width="4" stroke-linecap="round"/>
<path d="M285.71 107.96C300.174 107.96 311.9 96.2344 311.9 81.7701C311.9 67.3057 300.174 55.5801 285.71 55.5801C271.245 55.5801 259.52 67.3057 259.52 81.7701C259.52 96.2344 271.245 107.96 285.71 107.96Z" fill="black"/>
</g>
<defs>
<clipPath id="clip0_8332_123">
<rect width="407.07" height="287.18" fill="white" transform="translate(51 52)"/>
</clipPath>
</defs>
</svg>
