<svg width="230" height="71" viewBox="0 0 230 71" fill="none" xmlns="http://www.w3.org/2000/svg">
<path fill-rule="evenodd" clip-rule="evenodd" d="M230 53.7055C230 43.2052 225.129 38.3289 214.623 38.3289C204.119 38.3289 199.248 43.2052 199.248 53.7055C199.248 64.2057 204.119 69.0821 214.623 69.0821C225.129 69.0821 230 64.2057 230 53.7055Z" fill="#FF0077"></path>
<path fill-rule="evenodd" clip-rule="evenodd" d="M176.341 68.7185H191.612V1.45435H176.341V68.7185Z" fill="white"></path>
<path fill-rule="evenodd" clip-rule="evenodd" d="M148.954 68.7185H131.472L118.484 23.8774L105.359 68.7185H88.0286L67.2642 1.45435H84.4376L84.5125 1.72983L96.8212 47.1293L109.642 1.45435H127.359L140.518 47.2637L152.864 1.45435H169.797L148.954 68.7185Z" fill="white"></path>
<path fill-rule="evenodd" clip-rule="evenodd" d="M32.5803 70.1729C22.7079 70.1729 14.7182 67.0157 8.83175 60.7895C2.96903 54.489 0 45.9359 0 35.3598C0 24.8915 3.20293 16.3001 9.52069 9.82484C15.8664 3.30579 24.2783 0 34.5232 0C47.7936 0 58.3726 5.96382 64.3131 16.7926L64.8781 17.8227L53.5652 27.0296L52.7116 25.728C48.1861 18.8217 42.0415 15.3199 34.4491 15.3199C28.6982 15.3199 24.0876 17.1347 20.7467 20.7145C17.3287 24.3758 15.6671 29.1372 15.6671 35.2691C15.6671 41.3145 17.3002 46.1179 20.5195 49.5473C23.7692 53.0084 28.2291 54.7629 33.7753 54.7629C40.2 54.7629 45.9467 51.6526 50.0281 45.9858H34.8379V31.4884H66.9006V68.895H54.0524V60.409C51.5634 63.428 48.5603 65.7932 45.112 67.4467C41.3416 69.2561 37.1253 70.1729 32.5803 70.1729Z" fill="white"></path>
</svg>