<svg width="431" height="369" viewBox="0 0 431 369" fill="none" xmlns="http://www.w3.org/2000/svg">
<path d="M171.24 94.4802L170.46 58.1602H116.44L115.66 94.4802C114.79 111.28 108.78 127.41 98.4604 140.69C87.2404 155.12 81.1504 172.88 81.1504 191.16V330.28C81.1504 336.92 86.5304 342.31 93.1804 342.31H193.73C200.37 342.31 205.76 336.93 205.76 330.28V191.16C205.76 172.88 199.67 155.12 188.45 140.69C178.12 127.41 172.12 111.28 171.25 94.4802H171.24Z" fill="#FF0077" stroke="black" stroke-width="4"/>
<path d="M135.03 188.28H205.76V323.61H135.03C128.8 323.61 123.74 318.55 123.74 312.32V199.58C123.74 193.35 128.8 188.29 135.03 188.29V188.28Z" fill="white" stroke="black" stroke-width="4" stroke-miterlimit="10" stroke-linecap="round"/>
<path d="M115.36 98.47H170.97" stroke="black" stroke-width="4" stroke-miterlimit="10" stroke-linecap="round"/>
<path d="M170.97 58.74H117.15V98.47H170.97V58.74Z" fill="black"/>
<path d="M34 342.27H389.03" stroke="black" stroke-width="4" stroke-miterlimit="10" stroke-linecap="round"/>
<path d="M174.65 58.16H111.67C110.29 58.16 109.22 56.96 109.37 55.6L111.641 44.03C111.891 41.74 113.831 40 116.141 40H170.17C172.48 40 174.41 41.74 174.671 44.03L176.94 55.6C177.09 56.97 176.021 58.16 174.641 58.16H174.65Z" fill="black"/>
<path d="M115.591 58.1599C115.591 54.1399 118.851 50.8799 122.871 50.8799C126.891 50.8799 130.151 54.1399 130.151 58.1599" fill="white"/>
<path d="M135.881 58.1599C135.881 54.1399 139.141 50.8799 143.161 50.8799C147.181 50.8799 150.441 54.1399 150.441 58.1599" fill="white"/>
<path d="M156.181 58.1599C156.181 54.1399 159.441 50.8799 163.461 50.8799C167.481 50.8799 170.741 54.1399 170.741 58.1599" fill="white"/>
<path d="M355.525 226C361.921 226 367.396 230.914 368.545 237.678L379.852 304.206C380.564 308.372 379.515 312.628 377 315.884C374.475 319.14 370.773 321 366.832 321H343.07V226H355.525Z" stroke="black" stroke-width="4"/>
<path d="M320.68 179.99C331.38 179.99 341.47 189.13 343.07 198.5L342.07 203C343.73 212.65 335.98 209.21 324.78 209.21C315.42 209.21 307.35 207.22 304.32 200.95C301.55 201.49 298.49 201.75 295.26 201.75C291.09 201.75 287.14 201.32 283.62 200.41C282.28 210.2 271.84 214.33 258.86 214.33C244.36 214.33 232.21 211.24 232.61 198.2C233.01 185.16 243.67 175.37 257.31 175.37C260.69 175.37 263.96 175.95 266.97 177C268.56 177.55 270.26 176.86 271.09 175.4C274.76 168.96 282.49 164.65 291.68 164.65C302.15 164.65 311.8 170.23 316.17 178.19C316.83 179.4 318.1 180.1 319.48 180.02C319.88 180 320.28 179.99 320.68 179.99Z" fill="white" stroke="black" stroke-width="4" stroke-miterlimit="10" stroke-linecap="round"/>
<path d="M261.16 167.03C265.623 167.03 269.24 163.413 269.24 158.95C269.24 154.488 265.623 150.87 261.16 150.87C256.698 150.87 253.08 154.488 253.08 158.95C253.08 163.413 256.698 167.03 261.16 167.03Z" fill="white" stroke="black" stroke-width="4" stroke-miterlimit="10" stroke-linecap="round"/>
<path d="M272.59 142.21C274.44 142.21 275.94 140.71 275.94 138.86C275.94 137.01 274.44 135.51 272.59 135.51C270.74 135.51 269.24 137.01 269.24 138.86C269.24 140.71 270.74 142.21 272.59 142.21Z" fill="white" stroke="black" stroke-width="4" stroke-miterlimit="10" stroke-linecap="round"/>
<path d="M295.87 156.91C298.753 156.91 301.09 154.573 301.09 151.69C301.09 148.807 298.753 146.47 295.87 146.47C292.987 146.47 290.65 148.807 290.65 151.69C290.65 154.573 292.987 156.91 295.87 156.91Z" fill="white" stroke="black" stroke-width="4" stroke-miterlimit="10" stroke-linecap="round"/>
<path d="M343.13 199.95H232.5V321.04H343.13V199.95Z" fill="#FF0077" stroke="black" stroke-width="4"/>
<path d="M232.5 200.01V219.92H242.01C248.4 219.92 253.73 225.06 253.91 231.51C254.16 240.31 261.56 247.61 270.43 247.61C279.3 247.61 285.95 240.31 285.29 231.51C285.05 228.25 287.48 225.63 290.72 225.63H343.14V200H232.51L232.5 200.01Z" fill="white" stroke="black" stroke-width="4"/>
<path d="M232.5 321.04H343.13V332.99C343.13 337.7 339.3 341.53 334.59 341.53H241.03C236.32 341.53 232.49 337.7 232.49 332.99V321.04H232.5Z" fill="white" stroke="black" stroke-width="4" stroke-miterlimit="10" stroke-linecap="round"/>
</svg>
