<svg width="530" height="426" viewBox="0 0 530 426" fill="none" xmlns="http://www.w3.org/2000/svg">
<path d="M47 380.55H482.08" stroke="black" stroke-width="4" stroke-linecap="round" stroke-linejoin="round"/>
<path d="M254.571 123.42H237.771V79.55C237.771 70.03 243.491 61.62 252.351 58.13L282.321 46.31C284.551 45.43 287.071 46.53 287.951 48.76L290.931 56.31C291.811 58.54 290.711 61.06 288.481 61.94L258.511 73.76C256.131 74.7 254.561 77 254.561 79.56V123.43L254.571 123.42Z" fill="white" stroke="black" stroke-width="4" stroke-miterlimit="10"/>
<path d="M180 259L176 203.5C176 203.5 148.377 205.298 127.5 205.5C104.128 205.726 62.5 216.5 62.5 216.5L70.5 257L180 259Z" fill="black"/>
<path d="M156.841 174.444C157.082 172.883 158.493 171.777 160.066 171.914L171.282 172.893C172.959 173.039 174.188 174.538 174.002 176.211L164.946 258.089C164.831 259.132 164.178 260.04 163.226 260.481L147.083 267.964C144.91 268.971 142.491 267.15 142.857 264.783L156.841 174.444Z" fill="white" stroke="black" stroke-width="4" stroke-miterlimit="10"/>
<path d="M108.999 160.752C108.923 159.049 107.445 157.751 105.747 157.896L90.4101 159.204C88.755 159.345 87.5297 160.804 87.6769 162.459L96.217 258.471C96.3461 259.922 97.4984 261.07 98.9496 261.195L110.106 262.149C111.91 262.303 113.439 260.836 113.359 259.027L108.999 160.752Z" fill="white" stroke="black" stroke-width="4" stroke-miterlimit="10"/>
<path d="M184.032 203.521C184.21 201.705 182.739 200.151 180.915 200.231L168.924 200.755C167.418 200.821 166.194 201.995 166.066 203.497L161.424 257.992C161.284 259.642 162.508 261.094 164.158 261.235L175.288 262.187C176.925 262.327 178.369 261.126 178.53 259.492L184.032 203.521Z" fill="white" stroke="black" stroke-width="4" stroke-miterlimit="10"/>
<path d="M118.008 165.282C117.843 163.518 119.235 161.996 121.007 162.003L134.474 162.058C136.049 162.065 137.351 163.288 137.456 164.859L143.507 255.919C143.619 257.594 142.333 259.035 140.656 259.115L129.703 259.634C128.101 259.71 126.723 258.513 126.573 256.917L118.008 165.282Z" fill="white" stroke="black" stroke-width="4" stroke-miterlimit="10"/>
<path d="M105.319 197.177C105.162 195.127 107.066 193.531 109.057 194.043L120.419 196.965C121.663 197.285 122.566 198.361 122.663 199.642L127.075 257.499C127.196 259.083 126.061 260.487 124.486 260.7L113.462 262.193C111.752 262.425 110.199 261.169 110.068 259.448L105.319 197.177Z" fill="white" stroke="black" stroke-width="4" stroke-miterlimit="10"/>
<path d="M86.7378 186.512C86.0634 184.185 83.0515 183.576 81.5259 185.458L72.9874 195.992C72.3688 196.755 72.163 197.773 72.4364 198.716L87.405 250.369C87.8661 251.96 89.5301 252.876 91.1214 252.415L101.818 249.315C103.41 248.854 104.326 247.19 103.865 245.598L86.7378 186.512Z" fill="white" stroke="black" stroke-width="4" stroke-miterlimit="10"/>
<path d="M157.069 199.902C157.357 197.641 155.119 195.897 152.997 196.729L140.603 201.593C139.547 202.008 138.814 202.983 138.711 204.114L134.042 255.336C133.891 256.985 135.104 258.443 136.753 258.596L146.544 259.503C148.153 259.652 149.592 258.499 149.796 256.895L157.069 199.902Z" fill="white" stroke="black" stroke-width="4" stroke-miterlimit="10"/>
<path d="M215.18 218.83C210.19 240.26 181.34 256.7 146.48 256.7C111.62 256.7 82.7699 240.26 77.7799 218.83H64.6699L89.0399 380.68H214.57L228.28 218.83H215.17H215.18Z" fill="#FF0077" stroke="black" stroke-width="4"/>
<path d="M217.18 176.12L231.44 191.35L218.83 250.35L202.08 246.77L217.18 176.12Z" fill="white"/>
<path d="M183.89 144.63L200.45 157.33L196.4 244.87L179.29 244.08L183.89 144.63Z" fill="white"/>
<path d="M276.731 310.38L447.031 307.34C454.341 307.21 460.251 313.29 459.901 320.59L458.991 339.93C458.671 346.68 453.101 352 446.341 352H278.611C272.121 352 266.671 347.09 266.011 340.63L264.341 324.32C263.591 316.95 269.301 310.51 276.711 310.37L276.731 310.38Z" fill="#FF0077" stroke="black" stroke-width="4"/>
<path d="M294.84 379.5L430.66 382.76C445.65 383.23 459.17 373.82 463.94 359.59C465.19 355.86 462.41 352 458.48 352H270.93C266.74 352 263.95 356.34 265.69 360.16L266.58 361.68C272.48 371.78 283.16 379.14 294.86 379.51L294.84 379.5Z" fill="black"/>
<path d="M336.56 215.18L401.23 219.15C434.22 221.18 461.15 246.29 465.48 279.06C466.31 285.37 461.57 291.03 455.21 291.32L273.47 299.6C266.72 299.91 261.33 294.04 262.22 287.34L263.84 275.08C268.6 239.12 300.35 212.97 336.56 215.19V215.18Z" fill="black"/>
<path d="M454.2 296.8C454.14 293.63 451.48 291.14 448.32 291.28L281.02 298.95C277.98 299.09 275.6 301.63 275.66 304.67C275.72 307.78 278.28 310.25 281.39 310.19L365.74 308.65L389.28 333.8C394.25 339.13 402.71 339.1 407.65 333.75L431.99 307.44L448.77 307.13C451.88 307.07 454.35 304.51 454.29 301.4L454.21 296.78L454.2 296.8Z" fill="white" stroke="black" stroke-width="4"/>
<path d="M171.73 159.36L188.93 375.32C189.15 378.05 191.42 380.15 194.16 380.15H293.43C296.12 380.15 298.37 378.11 298.65 375.44L320.57 159.39" fill="white"/>
<path d="M171.73 159.36L188.93 375.32C189.15 378.05 191.42 380.15 194.16 380.15H293.43C296.12 380.15 298.37 378.11 298.65 375.44L320.57 159.39" stroke="black" stroke-width="4" stroke-miterlimit="10"/>
<path d="M176.5 223.89C177.35 223.85 178.2 223.82 179.06 223.82C208 223.82 231.47 247.27 231.47 276.21C231.47 303.18 211.1 325.39 184.91 328.29L176.5 223.88V223.89Z" fill="black"/>
<path d="M188.821 149.23L307.391 145.56L307.071 135.31C306.831 127.44 300.251 121.25 292.371 121.5L202.151 119.12C194.281 119.36 188.251 131.12 188.501 138.99L188.821 149.24V149.23Z" fill="black"/>
<path d="M160.07 161.36L330.99 159.02C332.09 158.99 332.96 158.06 332.93 156.96L332.76 151.62C332.5 143.24 325.5 136.66 317.12 136.92L172.55 138.44C164.17 138.7 157.59 145.7 157.85 154.08L158.02 159.42C158.05 160.52 158.98 161.39 160.08 161.36H160.07Z" fill="white" stroke="black" stroke-width="4" stroke-miterlimit="10"/>
<path d="M334.56 256.16L331.29 263.38" stroke="white" stroke-width="4" stroke-miterlimit="10" stroke-linecap="round"/>
<path d="M421.521 247.82L423.681 255.44" stroke="white" stroke-width="4" stroke-miterlimit="10" stroke-linecap="round"/>
<path d="M360.9 229.06L366.8 234.35" stroke="white" stroke-width="4" stroke-miterlimit="10" stroke-linecap="round"/>
<path d="M388.301 270.32L385.931 277.88" stroke="white" stroke-width="4" stroke-miterlimit="10" stroke-linecap="round"/>
<path d="M188.49 367.39H298.64" stroke="black" stroke-width="4" stroke-miterlimit="10"/>
</svg>
