<svg width="360" height="369" viewBox="0 0 360 369" fill="none" xmlns="http://www.w3.org/2000/svg">
<path d="M316.165 262.72C316.165 256.68 307.417 251.22 292.006 246.839C287.319 245.503 282.022 244.279 276.163 243.167C253.32 238.819 222.002 236.209 185.756 236.209C152.174 236.209 102.203 236.838 95.4932 240.316C83.6946 246.437 104.081 252.879 83.4539 254.216C33.8359 257.437 43.1624 272.142 48.0423 275.717C58.4442 283.335 93.5348 287.185 154.582 289.987C156.781 290.084 157.247 293.144 155.192 293.901C150.328 295.672 147.583 297.718 147.583 299.876C147.583 306.85 176.156 313.405 211.375 312.487C262.021 311.182 279.116 303.435 279.116 296.478C279.116 294.915 277.688 293.434 275.071 292.049C270.143 289.439 267.494 285.413 272.984 284.527C303.837 279.534 316.181 271.224 316.181 262.72H316.165Z" fill="#FF0077" stroke="black" stroke-width="4"/>
<path d="M140.456 213.403C142.671 208.781 144.903 204.191 146.829 199.44C151.227 188.6 230.654 220.087 247.317 226.82C249.693 227.786 251.779 229.413 253.096 231.619C254.813 234.486 255.841 239.06 252.197 247.999C248.007 258.307 270.593 264.668 257.013 269.742C251.555 271.787 212.451 277.714 186.029 276.345C155.722 274.783 119.813 269.5 115.077 261.415C110.968 254.393 129.284 257.292 129.396 247.886C129.605 230.331 132.751 230.588 136.058 223.937C136.283 223.486 136.395 222.986 136.555 222.551" fill="#FF0077"/>
<path d="M140.456 213.403C142.671 208.781 144.903 204.191 146.829 199.44C151.227 188.6 230.654 220.087 247.317 226.82C249.693 227.786 251.779 229.413 253.096 231.619C254.813 234.486 255.841 239.06 252.197 247.999C248.007 258.307 270.593 264.668 257.013 269.742C251.555 271.787 212.451 277.714 186.029 276.345C155.722 274.783 119.813 269.5 115.077 261.415C110.968 254.393 129.284 257.292 129.396 247.886C129.605 230.331 132.751 230.588 136.058 223.937C136.283 223.486 136.395 222.986 136.555 222.551" stroke="black" stroke-width="4"/>
<path d="M135.945 211.052C134.966 211.567 133.922 212.147 133.441 213.146C133.136 213.79 133.601 214.628 133.2 215.223C131.499 217.8 132.735 221.972 134.966 222.519C136.844 222.987 142.222 223.244 143.955 222.342C145.689 221.44 146.395 216.931 147.968 215.787C148.739 215.223 149.574 214.676 150.521 214.628C151.468 214.579 152.527 215.223 152.559 216.174C152.559 216.512 152.463 216.834 152.559 217.156C152.72 217.752 153.442 217.994 154.052 218.09C158.659 218.718 163.491 215.755 165.032 211.358C165.225 210.794 165.385 210.182 165.241 209.603C165.016 208.685 164.133 208.089 163.266 207.67C160.072 206.124 156.428 201.952 152.88 201.662C149.862 201.421 151.082 199.037 148.37 200.648C145.785 202.194 138.61 209.667 135.929 211.068L135.945 211.052Z" fill="#FF0077"/>
<path d="M147.038 195.623C147.038 195.623 138.835 207.46 135.432 211.745C134.003 213.548 132.575 215.449 132.414 217.849C132.27 220.103 133.923 222.874 135.93 223.888C136.459 224.162 137.037 224.339 137.695 224.388C148.45 225.29 151.179 212.985 153.876 211.519C154.855 210.988 156.236 210.504 156.974 211.358C158.066 212.614 156.717 217.865 161.967 220.216C166.108 222.068 170.137 217.124 174.118 213.275" stroke="black" stroke-width="4" stroke-linecap="round"/>
<path d="M197.459 234.76C197.459 234.76 196.078 237.723 195.356 239.189C194.633 240.655 194.2 242.442 194.906 243.924C195.853 245.905 198.55 246.469 200.637 245.76C202.724 245.051 204.329 243.441 205.918 241.927C206.625 241.25 207.588 240.88 208.454 241.347C209.996 242.168 208.743 246.195 208.294 248.047C207.427 251.655 205.437 255.375 206.721 258.838C207.443 260.787 209.209 262.301 211.232 262.72C213.254 263.138 215.469 262.43 216.898 260.932C219.001 258.709 219.161 255.327 219.194 252.267C219.226 250.044 219.258 247.806 219.274 245.583C219.306 243.65 219.386 241.54 220.654 240.075C222.308 238.174 226.754 235.774 226.754 235.774" stroke="black" stroke-width="4" stroke-linecap="round"/>
<path d="M248.119 180.419L255.263 66.3085C255.824 57.3376 244.138 53.456 239.258 61.0097L177.055 157.258C161.42 161.671 150.312 174.814 142.992 197.056L143.169 197.12C146.636 193.094 164.759 196.686 199.882 208.314C235.021 219.959 251.699 227.899 252.084 233.214L252.277 233.278C259.709 210.714 258.441 193.368 248.103 180.419H248.119Z" fill="black"/>
</svg>
