<svg width="401" height="426" viewBox="0 0 401 426" fill="none" xmlns="http://www.w3.org/2000/svg">
<path d="M331.63 156.977C343.284 178.194 349.937 202.551 350 228.452C350.19 310.332 283.605 377.583 201.702 378.206C118.635 378.829 51.1025 311.695 51.1025 228.795C51.1025 147.583 115.926 81.4956 196.674 79.438C198.796 79.3839 200.556 81.0805 200.556 83.2103V227.802L326.439 155.506C328.272 154.45 330.61 155.118 331.63 156.977Z" fill="#FF0077" stroke="black" stroke-width="4" stroke-miterlimit="10"/>
<path d="M200.555 92.6499C125.341 92.6499 64.3721 153.602 64.3721 228.795C64.3721 303.988 125.341 364.94 200.555 364.94C275.77 364.94 336.739 303.988 336.739 228.795C336.739 203.995 330.104 180.739 318.513 160.713L200.555 228.795" fill="white"/>
<path d="M200.555 92.6499C125.341 92.6499 64.3721 153.602 64.3721 228.795C64.3721 303.988 125.341 364.94 200.555 364.94C275.77 364.94 336.739 303.988 336.739 228.795C336.739 203.995 330.104 180.739 318.513 160.713L200.555 228.795" stroke="black" stroke-width="4" stroke-miterlimit="10"/>
<path d="M173.383 189.375C181.808 189.375 188.639 182.547 188.639 174.124C188.639 165.701 181.808 158.872 173.383 158.872C164.957 158.872 158.127 165.701 158.127 174.124C158.127 182.547 164.957 189.375 173.383 189.375Z" fill="#FF0077" stroke="black" stroke-width="4" stroke-miterlimit="10"/>
<path d="M111.269 296.651C119.694 296.651 126.524 289.822 126.524 281.399C126.524 272.976 119.694 266.147 111.269 266.147C102.843 266.147 96.0127 272.976 96.0127 281.399C96.0127 289.822 102.843 296.651 111.269 296.651Z" fill="#FF0077" stroke="black" stroke-width="4" stroke-miterlimit="10"/>
<path d="M161.45 338.886C169.876 338.886 176.706 332.057 176.706 323.634C176.706 315.211 169.876 308.383 161.45 308.383C153.025 308.383 146.194 315.211 146.194 323.634C146.194 332.057 153.025 338.886 161.45 338.886Z" fill="#FF0077" stroke="black" stroke-width="4" stroke-miterlimit="10"/>
<path d="M301.236 258.305C309.662 258.305 316.492 251.477 316.492 243.054C316.492 234.631 309.662 227.802 301.236 227.802C292.811 227.802 285.98 234.631 285.98 243.054C285.98 251.477 292.811 258.305 301.236 258.305Z" fill="#FF0077" stroke="black" stroke-width="4" stroke-miterlimit="10"/>
<path d="M232.16 210.34C235.004 215.249 240.492 218.371 246.531 217.911C254.936 217.261 261.218 209.933 260.569 201.532C260.379 199.113 259.63 196.866 258.465 194.907C249.799 200.223 240.962 205.259 232.16 210.34Z" fill="#FF0077" stroke="black" stroke-width="4" stroke-miterlimit="10"/>
<path d="M237.232 307.327C245.658 307.327 252.488 300.498 252.488 292.075C252.488 283.652 245.658 276.824 237.232 276.824C228.807 276.824 221.977 283.652 221.977 292.075C221.977 300.498 228.807 307.327 237.232 307.327Z" fill="#FF0077" stroke="black" stroke-width="4" stroke-miterlimit="10"/>
<path d="M221.978 331.088C216.859 331.088 212.716 335.231 212.716 340.348C212.716 345.465 216.859 349.607 221.978 349.607C227.096 349.607 231.24 345.465 231.24 340.348C231.24 335.231 227.096 331.088 221.978 331.088ZM221.978 343.669C220.145 343.669 218.656 342.18 218.656 340.348C218.656 338.516 220.145 337.027 221.978 337.027C223.81 337.027 225.3 338.516 225.3 340.348C225.3 342.18 223.81 343.669 221.978 343.669Z" fill="black"/>
<path d="M176.706 272.14C171.588 272.14 167.444 276.282 167.444 281.399C167.444 286.516 171.588 290.658 176.706 290.658C181.825 290.658 185.968 286.516 185.968 281.399C185.968 276.282 181.825 272.14 176.706 272.14ZM176.706 284.72C174.874 284.72 173.384 283.231 173.384 281.399C173.384 279.567 174.874 278.078 176.706 278.078C178.539 278.078 180.028 279.567 180.028 281.399C180.028 283.231 178.539 284.72 176.706 284.72Z" fill="black"/>
<path d="M140.868 213.354C135.75 213.354 131.606 217.496 131.606 222.613C131.606 227.73 135.75 231.872 140.868 231.872C145.987 231.872 150.13 227.73 150.13 222.613C150.13 217.496 145.987 213.354 140.868 213.354ZM140.868 225.925C139.036 225.925 137.546 224.436 137.546 222.604C137.546 220.772 139.036 219.283 140.868 219.283C142.701 219.283 144.19 220.772 144.19 222.604C144.19 224.436 142.701 225.925 140.868 225.925Z" fill="black"/>
<path d="M146.193 131.718C141.075 131.718 136.932 135.86 136.932 140.977C136.932 146.094 141.075 150.236 146.193 150.236C151.312 150.236 155.455 146.094 155.455 140.977C155.455 135.86 151.312 131.718 146.193 131.718ZM146.193 144.298C144.361 144.298 142.871 142.809 142.871 140.977C142.871 139.145 144.361 137.656 146.193 137.656C148.026 137.656 149.515 139.145 149.515 140.977C149.515 142.809 148.026 144.298 146.193 144.298Z" fill="black"/>
<path d="M265.263 225.925C260.144 225.925 256.001 230.067 256.001 235.184C256.001 240.301 260.144 244.443 265.263 244.443C270.381 244.443 274.525 240.301 274.525 235.184C274.525 230.067 270.381 225.925 265.263 225.925ZM265.263 238.505C263.43 238.505 261.941 237.016 261.941 235.184C261.941 233.352 263.43 231.863 265.263 231.863C267.095 231.863 268.585 233.352 268.585 235.184C268.585 237.016 267.095 238.505 265.263 238.505Z" fill="black"/>
<path d="M99.7412 221.683C108.167 221.683 114.997 214.855 114.997 206.432C114.997 198.009 108.167 191.18 99.7412 191.18C91.3156 191.18 84.4854 198.009 84.4854 206.432C84.4854 214.855 91.3156 221.683 99.7412 221.683Z" fill="#FF0077" stroke="black" stroke-width="4" stroke-miterlimit="10"/>
<path d="M200.555 228.795V94.6985" stroke="black" stroke-width="4" stroke-miterlimit="10" stroke-linecap="round"/>
<path d="M200.555 228.795L71.124 154.089" stroke="black" stroke-width="4" stroke-miterlimit="10" stroke-linecap="round"/>
<path d="M200.555 228.795L71.124 303.5" stroke="black" stroke-width="4" stroke-miterlimit="10" stroke-linecap="round"/>
<path d="M200.555 228.795V378.206" stroke="black" stroke-width="4" stroke-miterlimit="10" stroke-linecap="round"/>
<path d="M200.555 228.795L329.977 303.5" stroke="black" stroke-width="4" stroke-miterlimit="10" stroke-linecap="round"/>
<path d="M343.828 116.134C318.164 74.2234 274.109 49.1335 221.67 47.852C219.639 47.8069 217.96 49.4223 217.96 51.4528V188.55C217.96 192.398 222.126 194.804 225.46 192.88L344.241 124.317C346.001 123.307 346.57 121.041 345.513 119.309L343.828 116.134Z" fill="#FF0077" stroke="black" stroke-width="4" stroke-miterlimit="10"/>
<path d="M335.918 129.127C312.366 88.4353 268.358 61.0637 217.96 61.0637V188.55C217.96 192.398 222.126 194.804 225.459 192.88L335.918 129.127Z" fill="white" stroke="black" stroke-width="4" stroke-miterlimit="10"/>
<path d="M274.957 164.224C272.24 160.064 267.546 157.32 262.211 157.32C253.789 157.32 246.955 164.152 246.955 172.572C246.955 174.963 247.515 177.21 248.499 179.223L274.957 164.224Z" fill="#FF0077" stroke="black" stroke-width="4" stroke-miterlimit="10"/>
<path d="M273.549 122.873C281.974 122.873 288.805 116.045 288.805 107.622C288.805 99.1985 281.974 92.3701 273.549 92.3701C265.123 92.3701 258.293 99.1985 258.293 107.622C258.293 116.045 265.123 122.873 273.549 122.873Z" fill="#FF0077" stroke="black" stroke-width="4" stroke-miterlimit="10"/>
<path d="M246.387 125.779C241.268 125.779 237.125 129.922 237.125 135.039C237.125 140.155 241.268 144.298 246.387 144.298C251.505 144.298 255.649 140.155 255.649 135.039C255.649 129.922 251.505 125.779 246.387 125.779ZM246.387 138.351C244.554 138.351 243.065 136.861 243.065 135.029C243.065 133.198 244.554 131.708 246.387 131.708C248.219 131.708 249.709 133.198 249.709 135.029C249.709 136.861 248.219 138.351 246.387 138.351Z" fill="black"/>
</svg>
