<svg width="401" height="426" viewBox="0 0 401 426" fill="none" xmlns="http://www.w3.org/2000/svg">
<g clip-path="url(#clip0_8018_614)">
<path d="M358.56 193.28V201.11C358.56 207.18 353.86 212.16 347.9 212.62C347.6 212.64 347.3 212.65 347.01 212.65H53.5398C53.2398 212.65 52.9398 212.64 52.6598 212.62C46.6998 212.17 42.0098 207.19 42.0098 201.11V193.28C42.0098 188.28 45.1998 184.02 49.6398 182.43C50.8598 181.99 52.1698 181.75 53.5398 181.75H347.03C348.22 181.75 349.38 181.93 350.47 182.26C355.17 183.72 358.58 188.1 358.58 193.28H358.56Z" fill="white" stroke="black" stroke-width="4" stroke-linecap="round" stroke-linejoin="round"/>
<path d="M161.75 181.75H157.96C158.97 181.34 159.86 180.85 160.44 180.4C160.85 180.87 161.29 181.32 161.75 181.75Z" fill="#FF0077" stroke="black" stroke-width="4" stroke-linecap="round" stroke-linejoin="round"/>
<path d="M137.91 165.35C135.65 165.35 133.83 167.18 133.83 169.44C133.83 171.7 135.66 177.05 137.91 177.05C140.16 177.05 141.99 171.69 141.99 169.44C141.99 167.19 140.16 165.35 137.91 165.35Z" fill="#FF0077" stroke="black" stroke-width="4" stroke-linecap="round" stroke-linejoin="round"/>
<path d="M155.09 180.4C154.51 180.85 153.61 181.34 152.61 181.75H146.61C145.59 179.85 148.39 175.37 150.04 174C150.31 173.78 150.6 173.6 150.9 173.46C151.85 175.96 153.28 178.37 155.09 180.41V180.4Z" fill="#FF0077" stroke="black" stroke-width="4" stroke-linecap="round" stroke-linejoin="round"/>
<path d="M130.51 181.55C130.48 181.62 130.43 181.68 130.38 181.75H122.21C122.09 181.7 121.97 181.65 121.87 181.59C119.88 180.53 119.12 178.06 120.18 176.07C121.24 174.09 123.71 173.33 125.7 174.38C127.69 175.44 131.57 179.57 130.52 181.56L130.51 181.55Z" fill="#FF0077" stroke="black" stroke-width="4" stroke-linecap="round" stroke-linejoin="round"/>
<path d="M156.2 156.51C162.6 154.28 170.83 158.38 171.03 158.47C170.86 158.23 166.84 152.66 164.7 146.17C164.67 146.07 164.63 145.96 164.6 145.86C162.37 138.87 162.41 130.92 171.78 127.44C171.16 125.64 169.9 123.96 167.6 122.75C165.62 121.7 163.76 121.17 162.03 120.98C160.58 120.83 159.23 120.92 157.99 121.2C152.39 122.41 148.95 127.02 148.7 127.34C148.87 126.83 152.41 116.68 153.02 107.62C153.19 104.96 153.12 102.38 152.63 100.17C152.03 97.46 150.82 95.3 148.69 94.18C135.25 87.12 123.44 113.8 123.44 113.8C123.44 113.8 111.81 94.91 98.9099 107.44C89.1999 116.87 92.7799 126.11 95.1299 130.09" fill="white"/>
<path d="M156.2 156.51C162.6 154.28 170.83 158.38 171.03 158.47C170.86 158.23 166.84 152.66 164.7 146.17C164.67 146.07 164.63 145.96 164.6 145.86C162.37 138.87 162.41 130.92 171.78 127.44C171.16 125.64 169.9 123.96 167.6 122.75C165.62 121.7 163.76 121.17 162.03 120.98C160.58 120.83 159.23 120.92 157.99 121.2C152.39 122.41 148.95 127.02 148.7 127.34C148.87 126.83 152.41 116.68 153.02 107.62C153.19 104.96 153.12 102.38 152.63 100.17C152.03 97.46 150.82 95.3 148.69 94.18C135.25 87.12 123.44 113.8 123.44 113.8C123.44 113.8 111.81 94.91 98.9099 107.44C89.1999 116.87 92.7799 126.11 95.1299 130.09" stroke="black" stroke-width="4" stroke-linecap="round" stroke-linejoin="round"/>
<path d="M177.74 104.6C169.43 100.33 159.67 101.82 153.04 107.63C152.43 116.69 148.9 126.85 148.72 127.35C148.96 127.02 152.41 122.42 158.01 121.21C156.59 120.41 155.22 119.19 154.62 118.34C153.47 116.7 153.88 114.43 155.53 113.29C157.17 112.14 159.43 112.55 160.58 114.19C161.53 115.57 162.66 119.17 162.04 120.98C163.77 121.16 165.63 121.7 167.61 122.75C169.91 123.96 171.18 125.64 171.79 127.44C171.85 127.41 171.91 127.39 171.96 127.37C173.06 126.97 174.15 126.69 175.21 126.52C176.54 125.22 178.72 124.07 179.97 123.8C181.92 123.38 183.86 124.61 184.29 126.57C184.37 126.94 184.39 127.3 184.36 127.65C185.96 128.32 187.48 129.19 188.91 130.22C191.69 120.32 187.25 109.49 177.74 104.6ZM175.47 116.92C174.56 118.7 170.93 122.19 169.15 121.28C167.37 120.37 168.11 115.38 169.03 113.6C169.95 111.82 172.13 111.12 173.92 112.04C175.7 112.96 176.4 115.14 175.48 116.93L175.47 116.92Z" fill="#FF0077" stroke="black" stroke-width="4" stroke-linecap="round" stroke-linejoin="round"/>
<path d="M175.47 116.92C176.39 115.14 175.69 112.95 173.91 112.03C172.13 111.11 169.94 111.81 169.02 113.59C168.1 115.37 167.36 120.35 169.14 121.27C170.92 122.19 174.55 118.7 175.46 116.91L175.47 116.92Z" fill="#FF0077" stroke="black" stroke-width="4" stroke-linecap="round" stroke-linejoin="round"/>
<path d="M184.36 127.65C181.56 126.49 178.5 125.98 175.21 126.52C176.54 125.22 178.72 124.07 179.97 123.8C181.92 123.38 183.86 124.61 184.29 126.57C184.37 126.94 184.39 127.3 184.36 127.65Z" fill="#FF0077" stroke="black" stroke-width="4" stroke-linecap="round" stroke-linejoin="round"/>
<path d="M160.58 114.19C159.44 112.55 157.17 112.14 155.53 113.29C153.89 114.43 153.47 116.69 154.62 118.34C155.22 119.19 156.58 120.41 158.01 121.21C159.25 120.93 160.6 120.84 162.05 120.99C162.66 119.17 161.54 115.57 160.59 114.2L160.58 114.19Z" fill="#FF0077" stroke="black" stroke-width="4" stroke-linecap="round" stroke-linejoin="round"/>
<path d="M307.02 175.25C306.82 177.58 306.6 179.77 306.35 181.75H293.81C294.14 180.58 294.42 179.37 294.65 178.12C295.57 173.19 295.61 168.43 294.91 164.32C294.36 161.03 293.33 158.15 291.91 155.92C290.27 153.31 288.08 151.58 285.48 151.09C277.89 149.67 269.68 159.47 267.16 172.98C266.59 176.01 266.36 178.97 266.42 181.76H243.58C247.2 172.4 266.94 124.91 292.95 130.27C299.98 131.72 303.83 137.99 305.78 146.01C306.28 148.05 306.65 150.21 306.93 152.43C307.87 159.98 307.62 168.25 307.03 175.25H307.02Z" fill="white" stroke="black" stroke-width="4" stroke-linecap="round" stroke-linejoin="round"/>
<path d="M294.64 178.12C294.4 179.36 294.13 180.58 293.8 181.75H266.41C266.35 178.97 266.58 176.01 267.15 172.97C269.68 159.47 277.88 149.67 285.47 151.08C288.07 151.57 290.25 153.3 291.9 155.91C293.32 158.14 294.35 161.02 294.9 164.31C295.61 168.43 295.57 173.18 294.64 178.11V178.12Z" fill="#FF0077" stroke="black" stroke-width="4" stroke-linecap="round" stroke-linejoin="round"/>
<path d="M345.76 181.74C345.9 181.74 332.85 181.74 332.85 181.74C333.08 180.12 333.19 178.54 333.19 177.03C333.19 170.05 330.8 164.55 326.35 162.82C320.3 160.47 312.36 165.84 307.03 175.23C307.63 168.23 307.86 159.96 306.93 152.41C316.43 144.58 327.19 139.6 337.37 143.67C337.42 143.68 337.46 143.7 337.51 143.72H337.52C349.41 148.58 349.1 166.22 345.77 181.73L345.76 181.74Z" fill="white" stroke="black" stroke-width="4" stroke-linecap="round" stroke-linejoin="round"/>
<path d="M333.19 177.04C333.19 178.55 333.08 180.13 332.85 181.75H306.35C306.6 179.77 306.83 177.58 307.02 175.25C312.35 165.86 320.29 160.49 326.34 162.84C330.8 164.57 333.18 170.06 333.18 177.05L333.19 177.04Z" fill="#FF0077" stroke="black" stroke-width="4" stroke-linecap="round" stroke-linejoin="round"/>
<path d="M241.44 164.64C237.38 171.84 234.34 177.42 232.06 181.75H156.4C155.94 181.32 155.5 180.87 155.09 180.4C153.28 178.37 151.84 175.96 150.9 173.45C149.09 168.7 149.03 163.6 151.55 160.02C151.83 159.6 152.16 159.22 152.52 158.84C153.61 157.72 154.87 156.97 156.21 156.51C162.61 154.28 170.84 158.38 171.04 158.47C170.87 158.23 166.85 152.65 164.71 146.17C164.68 146.07 164.64 145.96 164.61 145.86C162.38 138.87 162.42 130.92 171.79 127.44C171.84 127.41 171.91 127.39 171.96 127.37C173.06 126.97 174.15 126.69 175.21 126.52C178.5 125.99 181.55 126.49 184.36 127.65C185.96 128.32 187.48 129.19 188.91 130.22C189.56 130.67 190.17 131.16 190.78 131.68C193.17 133.71 195.27 136.09 197.01 138.42C200.87 143.58 203.02 148.43 203.02 148.43C203.02 148.43 205.2 138.15 220.64 142.23C231.92 145.21 238.65 158 241.45 164.66H241.44V164.64Z" fill="white" stroke="black" stroke-width="4" stroke-linecap="round" stroke-linejoin="round"/>
<path d="M118.63 181.76C118.96 181.25 140.59 133.4 125.68 129.11C121.94 128.04 118.61 128.55 115.72 129.93C106.97 134.09 102.24 146.2 102.24 146.2C102.24 146.2 89.8901 100.39 67.8701 111.47C46.1601 122.4 66.4301 145.27 66.9901 145.9C66.4701 145.68 53.9501 140.64 46.8401 145.9C31.9401 156.94 55.3101 168.39 64.7301 181.75C65.9501 181.31 114.42 181.75 115.79 181.75" fill="white"/>
<path d="M118.63 181.76C118.96 181.25 140.59 133.4 125.68 129.11C121.94 128.04 118.61 128.55 115.72 129.93C106.97 134.09 102.24 146.2 102.24 146.2C102.24 146.2 89.8901 100.39 67.8701 111.47C46.1601 122.4 66.4301 145.27 66.9901 145.9C66.4701 145.68 53.9501 140.64 46.8401 145.9C31.9401 156.94 55.3101 168.39 64.7301 181.75C65.9501 181.31 114.42 181.75 115.79 181.75" stroke="black" stroke-width="4" stroke-linecap="round" stroke-linejoin="round"/>
<path d="M269.7 133.42C261.46 137.69 252 146.04 242.98 161.92C242.45 162.86 241.94 163.76 241.45 164.63C237.39 171.83 234.35 177.41 232.07 181.74H243.58C247.2 172.38 266.94 124.89 292.94 130.25C292.94 130.25 282.9 126.59 269.7 133.41V133.42Z" fill="black" stroke="black" stroke-width="4" stroke-linecap="round" stroke-linejoin="round"/>
<path d="M337.36 143.65C337.36 143.65 337.35 143.67 337.35 143.68C327.18 139.61 316.42 144.6 306.91 152.42C306.64 150.2 306.26 148.04 305.77 146C323.46 136.71 335.91 142.87 337.36 143.65Z" fill="black" stroke="black" stroke-width="4" stroke-linecap="round" stroke-linejoin="round"/>
<path d="M337.36 143.65C335.91 142.87 323.46 136.71 305.76 146C303.81 137.97 299.95 131.71 292.93 130.26C292.93 130.26 282.89 126.6 269.69 133.42C270.98 129.71 271.54 124.86 267.01 122.37C268.4 115.66 272.65 102.75 284.76 103.44C294.39 103.98 291.11 114.86 291.11 114.86C291.11 114.86 315.09 87.47 326.71 101.27C336.18 112.51 313.57 126.99 312.98 127.36C313.57 127.18 331.41 121.57 337.5 132.15C339.55 135.72 338.88 139.92 337.36 143.65Z" fill="white" stroke="black" stroke-width="4" stroke-linecap="round" stroke-linejoin="round"/>
<path d="M269.7 133.42C261.46 137.69 252 146.04 242.98 161.92C242.45 162.86 241.94 163.76 241.45 164.63C238.65 157.97 231.92 145.19 220.64 142.2C205.2 138.12 203.02 148.4 203.02 148.4C203.02 148.4 200.87 143.55 197.01 138.39C197.42 129.4 200.17 112.61 215.01 112.61C225.34 112.61 224.09 126.32 224.09 126.32C224.09 126.32 229.91 93.6301 246.97 95.9901C263.48 98.2701 246.88 127.25 245.77 129.16C246.59 128 254.87 116.78 266.4 122.05C266.62 122.15 266.82 122.26 267.02 122.36C271.55 124.85 271 129.7 269.7 133.41V133.42Z" fill="white" stroke="black" stroke-width="4" stroke-linecap="round" stroke-linejoin="round"/>
<path d="M75.3398 133.72C75.3398 133.72 96.0498 154.57 105.33 181.75" stroke="black" stroke-width="4" stroke-linecap="round" stroke-linejoin="round"/>
<path d="M143.09 108.4C143.09 108.4 135.91 120.3 130.97 133.74" stroke="black" stroke-width="4" stroke-linecap="round" stroke-linejoin="round"/>
<path d="M187.7 150.06C187.7 150.06 200.51 160.98 208.84 181.75" stroke="black" stroke-width="4" stroke-linecap="round" stroke-linejoin="round"/>
<path d="M240.02 113.41C240.02 113.41 231.58 125.03 227.39 145.41" stroke="black" stroke-width="4" stroke-linecap="round" stroke-linejoin="round"/>
<path d="M311.63 112.63C311.63 112.63 295.63 122.88 291.36 129.84" stroke="black" stroke-width="4" stroke-linecap="round" stroke-linejoin="round"/>
<path d="M347.91 212.62C347.61 212.64 347.31 212.65 347.02 212.65H53.5402C53.2402 212.65 52.9402 212.64 52.6602 212.62L344.88 238.92L347.92 212.62H347.91Z" fill="black" stroke="black" stroke-width="4" stroke-linecap="round" stroke-linejoin="round"/>
<path d="M52.6504 212.62L58.5404 263.65C63.1604 303.66 96.6704 333.84 136.49 333.84H264.08C303.91 333.84 337.42 303.66 342.03 263.65L344.88 238.93L52.6504 212.62Z" fill="#FF0077" stroke="black" stroke-width="4" stroke-linecap="round" stroke-linejoin="round"/>
<path d="M151.55 160.02C147.64 157.45 142.95 155.95 137.91 155.95C124.17 155.95 113.03 167.09 113.03 180.82C113.03 181.13 113.03 181.44 113.05 181.76H122.2C122.08 181.71 121.96 181.66 121.86 181.6C119.87 180.54 119.11 178.07 120.17 176.08C121.23 174.1 123.7 173.34 125.69 174.39C127.68 175.45 131.56 179.58 130.51 181.56C130.48 181.63 130.43 181.69 130.38 181.76H146.61C145.59 179.86 148.39 175.38 150.04 174.01C150.31 173.79 150.6 173.61 150.9 173.47C149.09 168.72 149.03 163.62 151.55 160.04V160.02ZM137.91 177.05C135.65 177.05 133.83 171.69 133.83 169.44C133.83 167.19 135.66 165.35 137.91 165.35C140.16 165.35 141.99 167.18 141.99 169.44C141.99 171.7 140.16 177.05 137.91 177.05Z" fill="#FF0077" stroke="black" stroke-width="4" stroke-linecap="round" stroke-linejoin="round"/>
</g>
<defs>
<clipPath id="clip0_8018_614">
<rect width="320.56" height="244.84" fill="white" transform="translate(40 91)"/>
</clipPath>
</defs>
</svg>
