<svg width="415" height="556" viewBox="0 0 415 556" fill="none" xmlns="http://www.w3.org/2000/svg">
<g clip-path="url(#clip0_8020_138)">
<path d="M76 488.1H338.17" stroke="black" stroke-width="4" stroke-linecap="round" stroke-linejoin="round"/>
<path d="M250.3 412.66L250.21 412.43C248.84 409.11 247.29 405.35 245.72 401.11C233.61 368.57 240.72 348.15 246.99 330.13C250.06 321.32 252.95 313.01 253.43 304.1V302.15H253.55V280.87H253.59V276.59V193.15L253.57 192.21C253.13 171.99 240.55 157.99 229.39 145.57C224.88 140.56 220.63 135.82 217.5 131.06C214.02 125.76 212.38 121.1 212.36 116.39C214.71 114.84 216.12 112.25 216.12 109.44C216.12 106.63 214.66 103.94 212.21 102.4V75.6001C212.21 70.0901 207.73 65.6101 202.22 65.6101H162.35C156.84 65.6101 152.35 70.0901 152.35 75.6101V102.39C149.9 103.92 148.44 106.55 148.44 109.43C148.44 112.31 149.85 114.83 152.2 116.38C152.18 121.09 150.54 125.75 147.06 131.05C143.94 135.81 139.69 140.53 135.19 145.54L135.1 145.64C124.32 157.64 112.1 171.24 111.06 190.63L110.93 193L111.1 193.02V302.16H111.18C111.3 311.81 114.4 320.72 117.68 330.15C123.95 348.16 131.06 368.58 118.95 401.12C117.34 405.44 115.77 409.25 114.39 412.61L114.36 412.67C110.13 422.94 107.07 430.36 107.37 440.62H107.38C107.53 443.06 109.24 463.66 121.73 476.45C128.25 483.13 136.48 486.52 146.17 486.52C151.82 486.52 158.91 484.62 163.86 476.68C168.09 481.17 173.78 484.62 182.32 484.62C190.86 484.62 196.55 481.16 200.78 476.68C205.73 484.62 212.82 486.52 218.47 486.52C228.17 486.52 236.39 483.13 242.92 476.45C255.42 463.66 257.12 443.06 257.27 440.62H257.28C257.59 430.36 254.53 422.94 250.3 412.67V412.66Z" fill="black"/>
<path d="M212.25 103.78V76.99C212.25 71.48 207.77 67 202.26 67H162.39C156.88 67 152.39 71.48 152.39 77V103.78" fill="#FF0077"/>
<path d="M212.25 103.78V76.99C212.25 71.48 207.77 67 202.26 67H162.39C156.88 67 152.39 71.48 152.39 77V103.78" stroke="black" stroke-width="4" stroke-linecap="round" stroke-linejoin="round"/>
<path d="M113.31 277.07V299.35H169.48C160.91 294.39 153.8 286.25 144.62 280.22C130.15 270.71 117.52 274.53 113.31 277.08V277.07Z" fill="#FF0077" stroke="black" stroke-width="4" stroke-linecap="round" stroke-linejoin="round"/>
<path d="M113.31 232.65C113.36 236.1 113.31 268.41 113.31 277.07C117.52 274.52 130.15 270.7 144.62 280.21C153.81 286.25 160.91 294.38 169.48 299.34H203.35C204.37 299.25 228.3 299.34 238.92 299.34H251.04V242.64C229.61 246.63 209.9 268.02 182.18 272.59C156.35 276.84 120.72 240.83 113.32 232.64L113.31 232.65Z" fill="white" stroke="black" stroke-width="4" stroke-linecap="round" stroke-linejoin="round"/>
<path d="M113.31 232.66C120.71 240.85 156.34 276.86 182.17 272.61C209.89 268.05 229.6 246.66 251.03 242.66C251.03 242.66 251.03 190.81 251.03 190.63H113.31C113.31 190.35 113.31 232.66 113.31 232.66Z" fill="#FF0077" stroke="black" stroke-width="4" stroke-linecap="round" stroke-linejoin="round"/>
<path d="M164.55 479.32L156.58 463.37" stroke="white" stroke-width="4" stroke-linecap="round" stroke-linejoin="round"/>
<path d="M200.7 479.32L208.68 463.37" stroke="white" stroke-width="4" stroke-linecap="round" stroke-linejoin="round"/>
<path d="M310.78 289.9V481.24C310.78 485.02 307.72 488.08 303.94 488.08H198.15C194.37 488.08 191.31 485.02 191.31 481.24V289.9C191.31 286.13 194.37 283.06 198.15 283.06H303.94C307.72 283.06 310.78 286.12 310.78 289.9Z" fill="white" stroke="black" stroke-width="4" stroke-linecap="round" stroke-linejoin="round"/>
<path d="M292.53 340.21C289.99 335.88 288.94 330.86 289.22 325.86C289.34 323.58 288.71 321.72 287.29 320.81C285.84 319.89 283.84 320.12 281.79 321.24C277.4 323.64 272.44 324.86 267.45 324.58C251.68 323.68 234.99 334.51 226.68 352.53C216.39 374.89 222.91 399.85 241.25 408.29C259.59 416.72 282.8 405.44 293.1 383.08C300.04 368.02 299.33 351.79 292.53 340.22V340.21Z" fill="#FF0077" stroke="black" stroke-width="4" stroke-linecap="round" stroke-linejoin="round"/>
<path d="M254.599 417.32C233.649 417.32 216.669 400.35 216.669 379.41C216.669 368.58 221.219 358.81 228.509 351.91L221.829 344.73C212.619 353.43 206.869 365.75 206.869 379.41C206.869 405.76 228.239 427.12 254.609 427.12C267.039 427.12 278.349 422.37 286.849 414.6L280.179 407.43C273.439 413.58 264.459 417.33 254.619 417.33L254.599 417.32Z" fill="#FF0077" stroke="black" stroke-width="4" stroke-linecap="round" stroke-linejoin="round"/>
<path d="M228.499 351.91C221.209 358.81 216.659 368.58 216.659 379.41C216.659 382.31 216.999 385.12 217.609 387.83L252.359 377.55L228.499 351.91Z" fill="white" stroke="black" stroke-width="4" stroke-linecap="round" stroke-linejoin="round"/>
<path d="M280.16 407.42L252.36 377.55L244.8 416.04C247.92 416.87 251.2 417.32 254.59 417.32C264.44 417.32 273.41 413.57 280.15 407.42H280.16Z" fill="white" stroke="black" stroke-width="4" stroke-linecap="round" stroke-linejoin="round"/>
<path d="M252.369 377.55L217.619 387.83C220.739 401.54 231.279 412.44 244.819 416.04L252.379 377.55H252.369Z" fill="white" stroke="black" stroke-width="4" stroke-linecap="round" stroke-linejoin="round"/>
<path d="M202.31 280.06C202.31 277.85 204.1 276.06 206.31 276.06H295.31C297.52 276.06 299.31 277.85 299.31 280.06V283.06H202.31V280.06Z" fill="black"/>
</g>
<defs>
<clipPath id="clip0_8020_138">
<rect width="266.17" height="425.1" fill="white" transform="translate(74 65)"/>
</clipPath>
</defs>
</svg>
