<svg width="752" height="556" viewBox="0 0 752 556" fill="none" xmlns="http://www.w3.org/2000/svg">
<g clip-path="url(#clip0_8020_355)">
<g clip-path="url(#clip1_8020_355)">
<path d="M640.89 413.54H128.7C125 413.54 122 416.537 122 420.235C122 423.933 125 426.93 128.7 426.93H640.89C644.59 426.93 647.59 423.933 647.59 420.235C647.59 416.537 644.59 413.54 640.89 413.54Z" fill="black"/>
<path d="M640.89 232.49H128.7C125 232.49 122 235.487 122 239.185C122 242.883 125 245.88 128.7 245.88H640.89C644.59 245.88 647.59 242.883 647.59 239.185C647.59 235.487 644.59 232.49 640.89 232.49Z" fill="black"/>
<path d="M317.16 333.56C317.16 310.19 331.93 286.93 342.88 269.8C358.14 245.93 340.58 189.52 367.4 189.52C413.47 189.52 480.86 256.77 480.86 312.7C480.86 368.63 443.51 413.96 397.44 413.96C351.37 413.96 317.16 389.49 317.16 333.57V333.56Z" fill="black" stroke="black" stroke-width="4" stroke-linecap="round" stroke-linejoin="round"/>
<path d="M203.9 152.8H197.04C195.57 152.8 194.38 153.99 194.38 155.46V185.3C196.5 180.34 199.97 176.23 202.55 170.92C206.61 162.55 204.98 155.24 203.89 152.8H203.9Z" fill="#FF0077" stroke="black" stroke-width="4" stroke-linecap="round" stroke-linejoin="round"/>
<path d="M222.88 152.8C221.41 152.83 207.61 152.8 203.9 152.8C204.99 155.23 206.62 162.54 202.56 170.92C199.98 176.23 196.51 180.35 194.39 185.3V204.9C194.43 205.49 194.39 219.33 194.39 225.48V229.84C194.39 231.31 195.58 232.5 197.05 232.5H218.61C216.91 220.1 207.77 208.7 205.82 192.65C204 177.71 219.39 157.09 222.88 152.81V152.8Z" fill="white" stroke="black" stroke-width="4" stroke-linecap="round" stroke-linejoin="round"/>
<path d="M238.17 152.8H222.88C219.38 157.08 204 177.7 205.82 192.65C207.77 208.69 216.91 220.09 218.61 232.5H238.18C239.65 232.5 240.84 231.31 240.84 229.84V155.46C240.84 154 239.65 152.8 238.18 152.8H238.17Z" fill="#FF0077" stroke="black" stroke-width="4" stroke-linecap="round" stroke-linejoin="round"/>
<path d="M199.99 147.93H234.93C236.2 147.93 237.24 148.96 237.24 150.24C237.24 151.51 236.21 152.55 234.93 152.55H199.99C198.72 152.55 197.68 151.52 197.68 150.24C197.68 148.97 198.71 147.93 199.99 147.93Z" fill="black"/>
<path d="M149.09 152.8H142.23C140.76 152.8 139.57 153.99 139.57 155.46V185.3C141.69 180.34 145.16 176.23 147.74 170.92C151.8 162.55 150.17 155.24 149.08 152.8H149.09Z" fill="#FF0077" stroke="black" stroke-width="4" stroke-linecap="round" stroke-linejoin="round"/>
<path d="M168.06 152.8C166.59 152.83 152.79 152.8 149.08 152.8C150.17 155.23 151.8 162.54 147.74 170.92C145.16 176.23 141.69 180.35 139.57 185.3V204.9C139.61 205.49 139.57 219.33 139.57 225.48V229.84C139.57 231.31 140.76 232.5 142.23 232.5H163.79C162.09 220.1 152.95 208.7 151 192.65C149.18 177.71 164.57 157.09 168.06 152.81V152.8Z" fill="white" stroke="black" stroke-width="4" stroke-linecap="round" stroke-linejoin="round"/>
<path d="M183.351 152.8H168.061C164.561 157.08 149.181 177.7 151.001 192.65C152.951 208.69 162.091 220.09 163.791 232.5H183.361C184.831 232.5 186.021 231.31 186.021 229.84V155.46C186.021 154 184.831 152.8 183.361 152.8H183.351Z" fill="#FF0077" stroke="black" stroke-width="4" stroke-linecap="round" stroke-linejoin="round"/>
<path d="M145.17 147.93H180.11C181.38 147.93 182.42 148.96 182.42 150.24C182.42 151.51 181.39 152.55 180.11 152.55H145.17C143.9 152.55 142.86 151.52 142.86 150.24C142.86 148.97 143.89 147.93 145.17 147.93Z" fill="black"/>
<path d="M352.68 366.15C335.29 365.8 319.37 357.59 308.99 343.63L235.3 234.3C232.47 230.85 230.43 226.92 229.21 222.63L220.18 190.66C217.76 189.75 211.93 187.33 209.26 184.19C207.47 182.08 207.12 179.25 208.34 176.62C209.01 175.16 210.06 174 211.22 173.35C211.02 171.27 211.48 169.5 212.58 168.08C213.79 166.52 215.52 165.76 217.02 165.38C216.55 163.42 216.75 160.93 218.88 158.59C220.27 157.06 222.16 156.25 224.35 156.25C225.63 156.25 226.84 156.52 227.81 156.84C228.88 154.23 231.03 151.43 234.63 151.43C235.52 151.43 236.45 151.61 237.4 151.97C240.37 153.09 246.65 156.59 256.08 162.36C261.47 165.66 265 171.15 265.77 177.42L270.08 212.71C270.54 216.49 272.28 220.06 274.97 222.76L275.03 222.82L340.06 300.46C342.23 303.05 345.4 304.53 348.78 304.53C349.02 304.53 349.26 304.53 349.51 304.51L427.07 299.55L417.33 365.26L352.74 366.16H352.71L352.68 366.15Z" fill="white"/>
<path d="M234.62 153.44C235.24 153.44 235.93 153.56 236.68 153.85C240.26 155.2 248.71 160.21 255.02 164.07C259.86 167.03 263.08 172.03 263.77 177.66L268.08 212.95C268.6 217.2 270.52 221.14 273.54 224.17L338.51 301.74C341.06 304.78 344.82 306.53 348.76 306.53C349.04 306.53 349.33 306.53 349.61 306.5L424.7 301.7L415.57 363.28L352.71 364.15C336.07 363.81 320.52 355.79 310.58 342.43L236.89 233.1C234.23 229.87 232.26 226.12 231.12 222.08L221.81 189.12C221.81 189.12 213.73 186.37 210.76 182.89C207.86 179.49 211.02 174.74 213.32 174.74C213.37 174.74 213.42 174.74 213.47 174.74C211.57 167.3 218.73 167.02 219.8 167.02C219.89 167.02 219.93 167.02 219.93 167.02C219.93 167.02 217.1 163.47 220.32 159.92C221.48 158.65 222.93 158.24 224.31 158.24C226.77 158.24 229.02 159.54 229.02 159.54C229.02 159.54 230.24 153.42 234.59 153.42M234.62 149.44C230.75 149.44 228.22 151.86 226.73 154.51C225.98 154.36 225.18 154.26 224.35 154.26C221.58 154.26 219.18 155.29 217.4 157.25C215.34 159.52 214.72 161.91 214.81 164.02C213.45 164.58 212.08 165.47 211 166.86C210.11 168.01 209.21 169.79 209.18 172.32C208.1 173.18 207.18 174.37 206.52 175.79C204.97 179.15 205.42 182.78 207.74 185.5C210.41 188.63 215.56 191 218.53 192.18L227.29 223.18C228.57 227.71 230.72 231.85 233.69 235.5L307.28 344.67L307.33 344.75L307.38 344.82C317.97 359.07 334.89 367.79 352.63 368.15H352.7H352.77L415.63 367.28L419.03 367.23L419.53 363.86L428.66 302.28L429.39 297.39L424.45 297.71L349.36 302.51C349.16 302.52 348.96 302.53 348.76 302.53C345.98 302.53 343.36 301.31 341.58 299.18L276.61 221.61L276.5 221.48L276.38 221.36C274 218.98 272.46 215.82 272.06 212.48L267.75 177.19C266.91 170.32 263.04 164.29 257.12 160.67C247.6 154.84 241.2 151.29 238.11 150.12C236.94 149.68 235.77 149.45 234.63 149.45L234.62 149.44Z" fill="black"/>
<path d="M405.74 343.21C406.62 349.86 406.37 351.33 409.48 365.78L362.36 366.25L361.62 304.34L416.63 300L418.09 301.69C413.69 306.7 402.87 321.5 405.75 343.21H405.74Z" fill="#FF0077" stroke="black" stroke-width="4" stroke-linecap="round" stroke-linejoin="round"/>
<path d="M527.8 86.66L524.71 77.2H494.47L491.39 86.66C489.96 91.0499 487.16 94.87 483.4 97.54C477.72 101.59 474.35 108.15 474.35 115.13V235.67H544.84V115.13C544.84 108.15 541.46 101.59 535.79 97.54C532.03 94.86 529.24 91.04 527.8 86.66Z" fill="#FF0077" stroke="black" stroke-width="4" stroke-linecap="round" stroke-linejoin="round"/>
<path d="M493.77 114.47H525.43C527.511 114.47 529.2 116.16 529.2 118.25V200.27C529.2 202.36 527.511 204.05 525.43 204.05H493.77C491.689 204.05 490 202.36 490 200.27V118.25C490 116.16 491.689 114.47 493.77 114.47Z" fill="white" stroke="black" stroke-width="4"/>
<path d="M524.319 60H494.869V77.2H524.319V60Z" fill="black" stroke="black" stroke-width="4" stroke-linecap="round" stroke-linejoin="round"/>
<path d="M346.85 487.37H645.3" stroke="black" stroke-width="4" stroke-linecap="round" stroke-linejoin="round"/>
<path d="M442.24 235.41C437.11 244.07 428.95 242.17 428.95 242.17C428.95 242.17 418.92 279.52 428.74 308.05L411.27 316.53L400.97 304.58L401.05 304.48L401.1 304.42L401.21 304.28C401.51 303.9 402.09 303.19 402.81 302.26C402.88 302.17 402.95 302.09 403.02 301.99C403.61 301.24 404.29 300.37 405.03 299.44C405.18 299.24 405.34 299.04 405.49 298.84C407.5 296.27 409.77 293.33 411.39 291.13C411.47 291.03 411.54 290.93 411.61 290.83C413.08 288.84 413.94 287.54 413.44 287.88C409.51 290.54 404.97 292.43 399.98 293.29C398.63 293.54 397.29 293.67 395.95 293.76C395.67 293.77 395.39 293.79 395.1 293.8H394.93C394.13 293.82 393.34 293.82 392.54 293.79C392.2 293.77 391.85 293.75 391.51 293.73C391.17 293.71 390.82 293.67 390.48 293.64C389.55 293.55 388.62 293.41 387.71 293.24C387.3 293.17 386.27 292.95 386.17 292.91C385.79 292.82 381.85 291.64 380.34 291C377.2 289.65 374.29 287.85 371.69 285.67C370.42 284.6 369.23 283.44 368.11 282.2C363.9 277.5 360.92 271.61 359.75 264.96L354.88 220.65L354.51 217.29C352.97 204.16 361.24 191.61 367.39 187.35C367.39 187.35 381.43 224.92 423.88 228.71C426.16 223.53 430.5 219.38 435.92 220.62H435.99C442.7 222.16 445.7 229.49 442.22 235.43L442.24 235.41Z" fill="white" stroke="black" stroke-width="4" stroke-linecap="round" stroke-linejoin="round"/>
<path d="M394.93 293.8C394.13 293.83 393.33 293.82 392.54 293.79C393.34 293.82 394.13 293.83 394.93 293.8Z" fill="white" stroke="black" stroke-width="4" stroke-linecap="round" stroke-linejoin="round"/>
<path d="M622.95 486.09L536.92 487.37L496.07 408.37L557.88 375.23L622.95 486.09Z" fill="white"/>
<path d="M561.5 383.29L507.29 432.93L493.4 409.57L556.58 376.9L561.51 383.29H561.5Z" fill="black" stroke="black" stroke-width="4" stroke-linecap="round" stroke-linejoin="round"/>
<path d="M418.31 487.37C418.31 487.37 402.01 420.75 392.48 376.4C389.37 361.95 386.98 349.87 386.1 343.22C383.22 321.5 394.05 306.71 398.44 301.7L400.96 304.59L405.28 309.59C408.81 313.69 414.66 314.89 419.52 312.53L428.74 308.05C433.39 321.55 447.37 344.18 460.22 346.43C458.58 344.79 538.78 487.36 538.78 487.36H418.32L418.31 487.37Z" fill="#FF0077" stroke="black" stroke-width="4" stroke-linecap="round" stroke-linejoin="round"/>
<path d="M437.713 280C445.471 289.312 444.212 303.142 434.9 310.9C425.588 318.658 411.758 317.399 404 308.087" fill="white"/>
<path d="M437.713 280C445.471 289.312 444.212 303.142 434.9 310.9C425.588 318.658 411.758 317.399 404 308.087" stroke="black" stroke-width="4" stroke-linecap="round" stroke-linejoin="round"/>
<path d="M411.61 290.83C411.54 290.93 411.46 291.03 411.38 291.13C409.76 293.33 407.49 296.27 405.48 298.84C405.33 299.04 405.17 299.24 405.02 299.44C404.29 300.37 403.61 301.24 403.01 301.99C402.94 302.08 402.87 302.17 402.8 302.26C402.08 303.2 401.5 303.91 401.2 304.28L413.43 287.88C413.93 287.53 413.07 288.83 411.6 290.82L411.61 290.83Z" fill="white" stroke="black" stroke-width="4" stroke-linecap="round" stroke-linejoin="round"/>
<path d="M413.43 287.89L402.41 306.38L398.45 301.7L396.99 300.01L391.52 293.72C391.86 293.74 392.2 293.76 392.55 293.78C393.34 293.81 394.14 293.82 394.94 293.79H395.11C395.39 293.79 395.68 293.77 395.96 293.75C397.3 293.66 398.63 293.52 399.99 293.28C404.97 292.42 409.51 290.53 413.45 287.89H413.43Z" fill="black" stroke="black" stroke-width="4" stroke-linecap="round" stroke-linejoin="round"/>
<path d="M605.91 86.66L602.83 77.2H572.59L569.51 86.66C568.08 91.0499 565.28 94.87 561.52 97.54C555.84 101.59 552.47 108.15 552.47 115.13V235.67H622.96V115.13C622.96 108.15 619.58 101.59 613.91 97.54C610.15 94.86 607.36 91.04 605.92 86.66H605.91Z" fill="#FF0077" stroke="black" stroke-width="4" stroke-linecap="round" stroke-linejoin="round"/>
<path d="M571.88 114.47H603.539C605.62 114.47 607.31 116.16 607.31 118.25V200.27C607.31 202.36 605.62 204.05 603.539 204.05H571.88C569.799 204.05 568.109 202.36 568.109 200.27V118.25C568.109 116.16 569.799 114.47 571.88 114.47Z" fill="white" stroke="black" stroke-width="4"/>
<path d="M602.429 60H572.979V77.2H602.429V60Z" fill="black" stroke="black" stroke-width="4" stroke-linecap="round" stroke-linejoin="round"/>
<path d="M194.61 385.98V414.05H139.57V385.98C141.6 387.02 144.67 387.93 148.49 388.63C152.26 395.36 159.18 399.87 167.08 399.87C174.98 399.87 181.9 395.36 185.67 388.63C189.49 387.93 192.57 387.02 194.59 385.98H194.61Z" fill="#FF0077" stroke="black" stroke-width="4" stroke-linecap="round" stroke-linejoin="round"/>
<path d="M194.61 337.93V385.98C192.58 387.02 189.51 387.93 185.69 388.63C187.43 385.53 188.49 381.97 188.68 378.15C188.71 377.73 188.71 377.33 188.71 376.91C188.71 364.23 179.03 353.95 167.09 353.95C155.15 353.95 145.47 364.23 145.47 376.91C145.47 377.33 145.47 377.75 145.5 378.15C145.69 381.97 146.76 385.53 148.49 388.63C144.67 387.93 141.59 387.02 139.57 385.98V337.94H194.61V337.93Z" fill="black" stroke="black" stroke-width="4" stroke-linecap="round" stroke-linejoin="round"/>
<path d="M188.71 376.91C188.71 377.32 188.7 377.74 188.68 378.15C188.49 381.97 187.42 385.54 185.69 388.63C181.92 395.36 175 399.87 167.1 399.87C159.2 399.87 152.28 395.36 148.51 388.63C146.77 385.54 145.71 381.96 145.52 378.15C145.5 377.74 145.49 377.32 145.49 376.91C145.49 364.23 155.17 353.95 167.11 353.95C179.05 353.95 188.73 364.23 188.73 376.91H188.71Z" fill="white" stroke="black" stroke-width="4" stroke-linecap="round" stroke-linejoin="round"/>
<path d="M262.57 385.98V414.05H207.53V385.98C209.56 387.02 212.63 387.93 216.45 388.63C220.22 395.36 227.14 399.87 235.04 399.87C242.94 399.87 249.86 395.36 253.63 388.63C257.45 387.93 260.53 387.02 262.56 385.98H262.57Z" fill="#FF0077" stroke="black" stroke-width="4" stroke-linecap="round" stroke-linejoin="round"/>
<path d="M262.57 337.93V385.98C260.54 387.02 257.47 387.93 253.64 388.63C255.38 385.53 256.44 381.97 256.63 378.15C256.66 377.73 256.66 377.33 256.66 376.91C256.66 364.23 246.98 353.95 235.04 353.95C223.1 353.95 213.42 364.23 213.42 376.91C213.42 377.33 213.42 377.75 213.45 378.15C213.64 381.97 214.71 385.53 216.44 388.63C212.62 387.93 209.54 387.02 207.52 385.98V337.94H262.56L262.57 337.93Z" fill="black" stroke="black" stroke-width="4" stroke-linecap="round" stroke-linejoin="round"/>
<path d="M256.68 376.91C256.68 377.32 256.67 377.74 256.65 378.15C256.46 381.97 255.39 385.54 253.66 388.63C249.89 395.36 242.97 399.87 235.07 399.87C227.17 399.87 220.25 395.36 216.48 388.63C214.74 385.54 213.67 381.96 213.49 378.15C213.47 377.74 213.46 377.32 213.46 376.91C213.46 364.23 223.14 353.95 235.08 353.95C247.02 353.95 256.7 364.23 256.7 376.91H256.68Z" fill="white" stroke="black" stroke-width="4" stroke-linecap="round" stroke-linejoin="round"/>
<path d="M229.61 306.98V335.05H174.57V306.98C176.6 308.02 179.67 308.93 183.49 309.63C187.26 316.36 194.18 320.87 202.08 320.87C209.98 320.87 216.91 316.36 220.67 309.63C224.49 308.93 227.57 308.02 229.6 306.98H229.61Z" fill="#FF0077" stroke="black" stroke-width="4" stroke-linecap="round" stroke-linejoin="round"/>
<path d="M229.61 258.93V306.98C227.58 308.02 224.51 308.93 220.68 309.63C222.42 306.53 223.48 302.97 223.67 299.15C223.7 298.74 223.7 298.33 223.7 297.91C223.7 285.23 214.02 274.95 202.08 274.95C190.14 274.95 180.46 285.23 180.46 297.91C180.46 298.33 180.46 298.75 180.49 299.15C180.68 302.97 181.75 306.53 183.48 309.63C179.66 308.93 176.58 308.02 174.56 306.98V258.93H229.6H229.61Z" fill="black" stroke="black" stroke-width="4" stroke-linecap="round" stroke-linejoin="round"/>
<path d="M223.71 297.91C223.71 298.33 223.7 298.74 223.68 299.15C223.49 302.97 222.42 306.54 220.69 309.63C216.92 316.36 210 320.87 202.1 320.87C194.2 320.87 187.27 316.36 183.51 309.63C181.77 306.54 180.71 302.96 180.52 299.15C180.5 298.73 180.49 298.32 180.49 297.9C180.49 285.22 190.17 274.94 202.11 274.94C214.05 274.94 223.73 285.22 223.73 297.9L223.71 297.91Z" fill="white" stroke="black" stroke-width="4" stroke-linecap="round" stroke-linejoin="round"/>
<path d="M560.33 378.82L622.95 487.37H539.78" stroke="black" stroke-width="4" stroke-linecap="round" stroke-linejoin="round"/>
<path d="M602.71 356.03C589 311.72 554.85 292.7 530.4 283.31C485.65 266.12 480.84 240.74 480.84 240.74C480.84 240.74 494.04 231.93 488.34 205.24C484.48 187.12 470.94 180.35 462.64 177.87C462.67 177.14 462.7 176.42 462.7 175.68C462.7 149.66 441.61 128.57 415.59 128.57C394.21 128.57 376.17 142.82 370.41 162.33C366.6 162.02 354.74 162.18 346.54 174.91C332.35 196.94 347.89 214.39 354.88 220.63L354.51 217.27C352.97 204.14 361.25 191.59 367.39 187.33C367.39 187.33 381.43 224.91 423.88 228.68C426.16 223.5 430.51 219.35 435.92 220.6H435.99C442.7 222.14 445.7 229.47 442.22 235.41C437.09 244.08 428.93 242.18 428.93 242.18C428.93 242.18 417.52 275.88 427.34 304.41C431.99 317.91 442.59 339.39 460.21 346.45C459.39 332.27 462.79 310.76 477.36 304.07C508.01 289.98 528.72 309.44 569.48 389.48L597.2 438.97C603.67 430.22 614.42 393.88 602.71 356.04V356.03Z" fill="black" stroke="black" stroke-width="4" stroke-linecap="round" stroke-linejoin="round"/>
<path d="M560.59 375.13L496.07 411.56L463.11 352.83C452.36 333.79 457.75 310.4 475.14 300.58C492.53 290.76 515.34 298.23 526.09 317.26C526.09 317.26 561.52 376.76 560.59 375.12V375.13Z" fill="#FF0077" stroke="black" stroke-width="4" stroke-linecap="round" stroke-linejoin="round"/>
</g>
</g>
<defs>
<clipPath id="clip0_8020_355">
<rect width="752" height="556" fill="white"/>
</clipPath>
<clipPath id="clip1_8020_355">
<rect width="525.59" height="434.37" fill="white" transform="translate(122 55)"/>
</clipPath>
</defs>
</svg>
