<svg width="415" height="556" viewBox="0 0 415 556" fill="none" xmlns="http://www.w3.org/2000/svg">
<g clip-path="url(#clip0_8018_527)">
<path d="M248.03 208.98C274.004 208.98 295.06 187.924 295.06 161.95C295.06 135.976 274.004 114.92 248.03 114.92C222.056 114.92 201 135.976 201 161.95C201 187.924 222.056 208.98 248.03 208.98Z" fill="black" stroke="black" stroke-width="4" stroke-linecap="round" stroke-linejoin="round"/>
<path d="M168.96 236.23C197.143 236.23 219.99 213.383 219.99 185.2C219.99 157.017 197.143 134.17 168.96 134.17C140.777 134.17 117.93 157.017 117.93 185.2C117.93 213.383 140.777 236.23 168.96 236.23Z" fill="black" stroke="black" stroke-width="4" stroke-linecap="round" stroke-linejoin="round"/>
<path d="M226.53 147.62C243.021 147.62 256.39 134.251 256.39 117.76C256.39 101.269 243.021 87.8999 226.53 87.8999C210.039 87.8999 196.67 101.269 196.67 117.76C196.67 134.251 210.039 147.62 226.53 147.62Z" fill="black" stroke="black" stroke-width="4" stroke-linecap="round" stroke-linejoin="round"/>
<path d="M184.08 161.94C211.954 161.94 234.55 139.344 234.55 111.47C234.55 83.5962 211.954 61 184.08 61C156.207 61 133.61 83.5962 133.61 111.47C133.61 139.344 156.207 161.94 184.08 161.94Z" fill="black" stroke="black" stroke-width="4" stroke-linecap="round" stroke-linejoin="round"/>
<path d="M282.74 244.1C303.821 244.1 320.91 227.011 320.91 205.93C320.91 184.849 303.821 167.76 282.74 167.76C261.66 167.76 244.57 184.849 244.57 205.93C244.57 227.011 261.66 244.1 282.74 244.1Z" fill="black" stroke="black" stroke-width="4" stroke-linecap="round" stroke-linejoin="round"/>
<path d="M130.7 236.22C132.9 220.65 144.99 208.39 160.45 205.93L163.92 240.98C176.39 266.02 158.96 284.83 147.98 299.11L123.31 288.31" fill="white"/>
<path d="M130.7 236.22C132.9 220.65 144.99 208.39 160.45 205.93L163.92 240.98C176.39 266.02 167.71 292.09 156.73 306.38L123.32 291.1" stroke="black" stroke-width="4" stroke-linecap="round" stroke-linejoin="round"/>
<path d="M175.66 191.67L177.31 213.52L178 219.05C179 227.03 184.85 233.67 192.72 235.32C197.03 236.22 202.61 236.39 209.79 235.14C234.14 230.88 232.97 211.91 232.97 211.91L231.49 194.11L225.59 142.24L214.56 123.65C196.3 130.33 193.5 107.28 193.5 107.28C173.93 115.44 167.4 99.1899 167.4 99.1899C158.93 107.3 149.14 110.08 143.09 111.04L145.37 131.68L145.75 134.1L150.31 163.8C151.32 170.34 154.13 176.17 158.18 180.86C159.25 182.1 160.39 183.26 161.62 184.33C164.13 186.51 166.95 188.33 169.99 189.71C171.45 190.37 172.97 190.94 174.53 191.39C174.91 191.51 175.29 191.6 175.66 191.7C175.76 191.73 175.86 191.75 175.95 191.77C176.35 191.87 176.76 191.96 177.16 192.04C178.05 192.22 178.96 192.38 179.87 192.48C180.21 192.52 180.54 192.55 180.88 192.58C181.21 192.61 181.55 192.64 181.88 192.65C182.99 192.72 184.1 192.73 185.22 192.69C186.53 192.64 187.85 192.52 189.18 192.31C194.08 191.56 198.57 189.8 202.47 187.28" fill="white"/>
<path d="M175.66 191.67L177.31 213.52L178 219.05C179 227.03 184.85 233.67 192.72 235.32C197.03 236.22 202.61 236.39 209.79 235.14C234.14 230.88 232.97 211.91 232.97 211.91L231.49 194.11L225.59 142.24L214.56 123.65C196.3 130.33 193.5 107.28 193.5 107.28C173.93 115.44 167.4 99.1899 167.4 99.1899C158.93 107.3 149.14 110.08 143.09 111.04L145.37 131.68L145.75 134.1L150.31 163.8C151.32 170.34 154.13 176.17 158.18 180.86C159.25 182.1 160.39 183.26 161.62 184.33C164.13 186.51 166.95 188.33 169.99 189.71C171.45 190.37 172.97 190.94 174.53 191.39C174.91 191.51 175.29 191.6 175.66 191.7C175.76 191.73 175.86 191.75 175.95 191.77C176.35 191.87 176.76 191.96 177.16 192.04C178.05 192.22 178.96 192.38 179.87 192.48C180.21 192.52 180.54 192.55 180.88 192.58C181.21 192.61 181.55 192.64 181.88 192.65C182.99 192.72 184.1 192.73 185.22 192.69C186.53 192.64 187.85 192.52 189.18 192.31C194.08 191.56 198.57 189.8 202.47 187.28" stroke="black" stroke-width="4" stroke-linecap="round" stroke-linejoin="round"/>
<path d="M330.04 495.16L312.03 379.55C311.45 379.33 308.57 355.52 301.81 328.39C289.7 279.74 269.58 212.13 259.63 191.98L243.57 194.07L248.41 246.87C249.15 254.29 243.78 260.92 236.36 261.73L193.89 266.37C188.1 267.11 182.84 262.95 182.21 257.14L177.98 219.06L177.29 213.53L176.05 203.76L161.14 205.84L160.47 206.66L163.89 263.17H163.91C163.4 264.22 162.92 265.21 162.45 266.14C162.95 267.61 163.02 269.19 162.45 270.68C159.27 278.9 155.87 287.04 153.29 295.47C152.32 298.63 151.38 301.93 150.68 305.28C152.86 307.35 153.74 310.68 153.12 313.68C153.03 314.07 152.96 314.46 152.9 314.86C152.95 314.52 152.99 314.17 153.04 313.83C152.81 314.12 152.93 315.17 152.91 315.59C152.85 316.76 152.85 317.94 152.85 319.12C152.85 320.03 152.7 320.89 152.43 321.69C155.78 328.53 161.26 334.88 171.04 335.76C171.42 335.8 163.91 495.17 163.91 495.17H330.04V495.16Z" fill="#FF0077"/>
<path d="M248.06 246.44C248.76 254.01 243.27 260.75 235.71 261.61L193.89 266.36C188.1 267.1 182.83 262.94 182.21 257.13L177.98 219.05C178.99 227.03 184.83 233.67 192.7 235.32C197.01 236.22 202.59 236.4 209.77 235.14C234.12 230.88 232.95 211.91 232.95 211.91L231.47 194.11L242.92 191.99C242.92 191.99 246.23 226.58 248.06 246.45V246.44Z" fill="white" stroke="black" stroke-width="4" stroke-linecap="round" stroke-linejoin="round"/>
<path d="M123.32 291.1L100.75 461.38C99.4496 471.16 93.0296 479.51 83.8996 483.26C71.2996 488.44 55.5996 494.93 55.5996 494.93L118.13 495.12C122.57 495.13 126.41 492.06 127.36 487.72C134.35 455.82 162.44 331.94 162.44 331.94" fill="white"/>
<path d="M123.32 291.1L100.75 461.38C99.4496 471.16 93.0296 479.51 83.8996 483.26C71.2996 488.44 55.5996 494.93 55.5996 494.93L118.13 495.12C122.57 495.13 126.41 492.06 127.36 487.72C134.35 455.82 162.44 331.94 162.44 331.94" stroke="black" stroke-width="4" stroke-linecap="round" stroke-linejoin="round"/>
<path d="M193.89 266.37C188.1 267.11 182.84 262.95 182.21 257.14L177.98 219.06L177.29 213.53L176.05 203.76L161.14 205.84L160.47 206.66L162.94 247.35C163.58 257.86 162.49 268.4 159.72 278.55C157.64 286.18 155.15 295.25 153.17 302.38C150.15 313.2 153.61 324.99 162.43 331.95C165.02 334 167.92 335.47 171.04 335.74C171.42 335.78 163.91 495.15 163.91 495.15H255.12" stroke="black" stroke-width="4" stroke-linecap="round" stroke-linejoin="round"/>
<path d="M177.31 213.51L176.07 203.74L174.52 191.35C174.9 191.47 175.28 191.56 175.65 191.66C175.75 191.69 175.85 191.72 175.94 191.74C176.34 191.84 176.75 191.93 177.15 192.01C178.04 192.19 178.95 192.35 179.86 192.45C180.2 192.49 180.53 192.52 180.87 192.55C181.2 192.58 181.54 192.6 181.87 192.63C182.97 192.7 184.09 192.72 185.21 192.67C186.52 192.62 187.84 192.5 189.17 192.29C194.07 191.54 198.56 189.78 202.46 187.26" stroke="black" stroke-width="4"/>
<path d="M25 495.15H389.26" stroke="black" stroke-width="4" stroke-linecap="round" stroke-linejoin="round"/>
<path d="M302.26 265.76L286.46 253.83L297.82 308.36C289.51 308.73 282.17 303 280.51 294.84C274.08 263.13 259.07 189.18 259.07 189.18C271.1 188.34 283.14 191.6 293.15 198.57L330.04 229.2L302.25 265.75L302.26 265.76Z" fill="white" stroke="black" stroke-width="4" stroke-linecap="round" stroke-linejoin="round"/>
<path d="M130.7 236.22L123.32 291.1L152.1 304.26" stroke="black" stroke-width="4" stroke-linecap="round" stroke-linejoin="round"/>
<path d="M180.109 379.55H349.469V473.12C349.469 485.28 339.599 495.15 327.439 495.15H202.139C189.979 495.15 180.109 485.28 180.109 473.12V379.55Z" fill="black"/>
<path d="M349.47 379.55H369.08V385.62C369.08 389.97 365.55 393.51 361.19 393.51H349.46V379.55H349.47Z" fill="black"/>
<path d="M181 393.51H169.27C164.92 393.51 161.38 389.98 161.38 385.62V379.55H180.99V393.51H181Z" fill="black"/>
<path d="M201.38 130.29C219.683 130.29 234.52 118.82 234.52 104.67C234.52 90.5205 219.683 79.05 201.38 79.05C183.078 79.05 168.24 90.5205 168.24 104.67C168.24 118.82 183.078 130.29 201.38 130.29Z" fill="black" stroke="black" stroke-width="4" stroke-linecap="round" stroke-linejoin="round"/>
<path d="M150.68 115.47C158.296 115.47 164.47 109.296 164.47 101.68C164.47 94.0639 158.296 87.8899 150.68 87.8899C143.064 87.8899 136.89 94.0639 136.89 101.68C136.89 109.296 143.064 115.47 150.68 115.47Z" fill="black" stroke="black" stroke-width="4" stroke-linecap="round" stroke-linejoin="round"/>
<path d="M254.26 286.22H256C258.99 286.22 261.43 288.65 261.43 291.65V381.82H248.84V291.65C248.84 288.66 251.27 286.22 254.27 286.22H254.26Z" fill="white" stroke="black" stroke-width="4" stroke-miterlimit="10"/>
<path d="M217.72 145.97C217.72 145.97 225.69 147.98 230.87 139.59C234.39 133.83 231.59 126.59 225.04 124.97H224.97C218.43 123.33 213.34 129.83 211.71 136.38" fill="white"/>
<path d="M297.82 308.36L312.03 379.55" stroke="black" stroke-width="4" stroke-linecap="round" stroke-linejoin="round"/>
<path d="M365.5 300.44C380 294.75 381.85 271.82 369.82 261.92C351.3 246.68 329.85 229.21 329.85 229.21L302.25 265.76L320.4 280.14L264.79 310.2C264.79 310.2 253.1 310.55 250.73 311.16C249.15 311.57 247.73 311.94 246.65 312.23C245.36 312.58 244.28 313.47 243.7 314.68L240.74 320.81L236.72 325.15C236.05 325.88 235.92 327.03 236.46 327.9C237.24 329.17 238.49 330.7 239.91 332.25C243.53 336.19 247.74 339.5 252.41 341.89C252.44 341.9 252.46 341.92 252.49 341.93C255.67 343.54 259.39 343.65 262.69 342.31C282.99 334.05 365.49 300.44 365.49 300.44H365.5Z" fill="white" stroke="black" stroke-width="4" stroke-miterlimit="10"/>
<path d="M336.93 270.3L321.25 279.64" stroke="black" stroke-width="4" stroke-miterlimit="10" stroke-linecap="round"/>
<path d="M178.99 218.57L177.51 206.92L175.66 192.14C176.11 192.28 176.57 192.39 177.01 192.51C177.12 192.54 177.25 192.58 177.36 192.6C177.84 192.71 178.32 192.83 178.8 192.92C179.86 193.14 180.95 193.32 182.03 193.44C182.43 193.49 182.83 193.53 183.23 193.56C183.63 193.59 184.03 193.63 184.43 193.65C185.74 193.73 187.08 193.76 188.42 193.7C189.99 193.63 194.65 190.66 196.24 190.4C202.08 189.51 203.6 187.85 204.16 188.41" fill="black"/>
<path d="M217.51 367.78C217.51 357.88 211.45 357.88 211.45 347.98C211.45 338.08 217.51 338.08 217.51 328.18C217.51 318.28 211.45 318.28 211.45 308.38" stroke="black" stroke-width="4" stroke-miterlimit="10" stroke-linecap="round"/>
<path d="M206.47 367.78C206.47 357.88 200.41 357.88 200.41 347.98C200.41 338.08 206.47 338.08 206.47 328.18" stroke="black" stroke-width="4" stroke-miterlimit="10" stroke-linecap="round"/>
</g>
<defs>
<clipPath id="clip0_8018_527">
<rect width="368.26" height="438.16" fill="white" transform="translate(23 59)"/>
</clipPath>
</defs>
</svg>
