<svg width="415" height="556" viewBox="0 0 415 556" fill="none" xmlns="http://www.w3.org/2000/svg">
<path d="M185.827 213.775C226.227 176.192 289.502 208.792 265.856 242.774C247.439 269.226 213.753 280.237 199.929 284.331C186.093 288.438 161.964 272.288 163.422 272.264C164.88 272.24 145.428 251.359 185.827 213.775Z" fill="black"/>
<path d="M247.356 159C247.356 159 245.147 175.049 255 190.108C245.112 195.796 233.248 200.053 225.627 189.68C216.709 177.545 247.356 159 247.356 159Z" fill="black"/>
<path d="M241 176C241 176 239.791 247.964 234.058 265.768C184.617 295.61 176 265.647 176 265.647L181.9 222.924C182.954 198.307 241 176.012 241 176.012V176Z" fill="white"/>
<path d="M241 176L239.362 270L181 226.489L181.53 223.048C182.59 198.359 241 176 241 176Z" fill="black"/>
<path d="M195.5 222C173.147 222 155 203.855 155 181.506V136.807C155 124.771 164.773 115 176.81 115H214.19C226.227 115 236 124.771 236 136.807V181.506C236 203.855 217.853 222 195.5 222Z" fill="white" stroke="black" stroke-width="4"/>
<path d="M215 127C215.181 129.569 223.425 163.164 233.482 168.539C242.198 173.191 248 141.122 248 141.122L215 127Z" fill="black"/>
<path d="M298.727 276.121C281.957 256.7 244.026 246.405 244.026 246.405C244.026 246.405 243.969 234.681 241.774 229C241.774 229 209.485 249.017 191.331 270.593C189.065 267.379 172.576 242.422 172.576 242.422C148.607 242.422 122.485 276.128 114.21 316.06C96.2737 402.619 96.4992 495 96.4992 495C96.4992 495 229.776 495 298.097 495L295.751 451.199C300.255 452.055 304.593 452.744 308.713 453.266C317.823 454.391 348.149 458.504 351.944 428.077C353.993 363.965 298.749 276.114 298.749 276.114L298.727 276.128V276.121Z" fill="black"/>
<path d="M234.03 171.824C234.03 171.824 232.85 153.73 245.181 156.239C254.684 158.171 253 171.93 247.729 176.217C242.458 180.505 235.199 181 235.199 181L234.03 171.824Z" fill="white" stroke="black" stroke-width="4"/>
<path d="M232.032 172.191C232.032 172.191 230.786 154.82 243.802 157.229C253.833 159.084 252.056 172.292 246.492 176.409C240.928 180.525 232.5 181.5 232.5 181.5L232.032 172.191Z" fill="white"/>
<path d="M203.726 75C208.957 75 214.179 75.7758 219.286 77.2908L220.305 77.6035L220.309 77.6047C244.964 85.4571 259.324 108.959 252.153 131.422L252.15 131.435L252.145 131.448L245.748 150.717L244.991 153L242.706 152.245L157.822 124.226L158.28 122.844L156 122.192L161.493 103.042L161.502 103.008L161.513 102.974C166.898 86.1066 184.011 75 203.726 75Z" fill="#FF0077" stroke="black" stroke-width="4"/>
<path d="M193.5 185C201.509 185 208 176.494 208 166C208 155.506 201.509 147 193.5 147C185.492 147 179 155.506 179 166C179 176.494 185.492 185 193.5 185Z" fill="white" stroke="black" stroke-width="4"/>
<path d="M161 185C167.076 185 172 176.494 172 166C172 155.506 167.076 147 161 147C154.924 147 150 155.506 150 166C150 176.494 154.924 185 161 185Z" fill="white" stroke="black" stroke-width="4"/>
<path d="M257.584 307L280.66 368.914C282.042 372.616 279.015 376.463 275.123 375.955L203 366.555" stroke="white" stroke-width="4" stroke-linecap="round"/>
<path d="M179 265C179 265 174.5 284.816 179 301" stroke="white" stroke-width="4" stroke-linecap="round"/>
<path d="M201 265C201 265 196.5 284.816 201 301" stroke="white" stroke-width="4" stroke-linecap="round"/>
<path d="M222 146L266 159" stroke="black" stroke-width="4" stroke-linecap="round"/>
<path d="M171.33 104.209C189.823 106.667 199.672 123.755 197.767 135.565C197.815 136.396 174.416 143.663 164.411 139.951C164.881 138.649 165.508 137.469 166.243 136.372C159.962 138.686 153.79 139.734 148.775 134.311C137.13 139.24 127.161 141.132 120 119.561C130.078 125.96 151.632 101.582 171.33 104.197V104.209Z" fill="black"/>
<g clip-path="url(#clip0_7760_60)">
<path d="M152.66 346.333C156.84 346.333 160.412 349.536 161.163 353.952L168.55 397.351C169.014 400.071 168.328 402.843 166.689 404.97C165.043 407.097 162.62 408.31 160.046 408.31H144.528V346.34H152.66V346.333Z" stroke="white" stroke-width="4"/>
<path d="M129.905 316.32C136.894 316.32 143.484 322.282 144.529 328.394L143.876 331.33C144.96 337.625 139.898 335.381 132.583 335.381C126.47 335.381 121.199 334.082 119.22 329.992C117.411 330.345 115.413 330.514 113.303 330.514C110.58 330.514 108 330.234 105.701 329.64C104.826 336.026 98.0071 338.72 89.5296 338.72C80.0593 338.72 72.1239 336.705 72.3852 328.199C72.6464 319.692 79.6087 313.306 88.5173 313.306C90.7248 313.306 92.8605 313.684 94.8264 314.369C95.8649 314.728 96.9752 314.278 97.5172 313.326C99.9142 309.125 104.963 306.313 110.965 306.313C117.803 306.313 124.106 309.953 126.96 315.146C127.391 315.935 128.22 316.392 129.122 316.339C129.383 316.326 129.644 316.32 129.905 316.32Z" fill="white" stroke="black" stroke-width="4" stroke-miterlimit="10" stroke-linecap="round"/>
<path d="M91.0311 307.866C93.944 307.866 96.3083 305.504 96.3083 302.595C96.3083 299.686 93.944 297.324 91.0311 297.324C88.1182 297.324 85.7539 299.686 85.7539 302.595C85.7539 305.504 88.1182 307.866 91.0311 307.866Z" fill="white" stroke="black" stroke-width="4" stroke-miterlimit="10" stroke-linecap="round"/>
<path d="M98.4965 291.675C99.7048 291.675 100.685 290.697 100.685 289.49C100.685 288.283 99.7048 287.305 98.4965 287.305C97.2883 287.305 96.3086 288.283 96.3086 289.49C96.3086 290.697 97.2883 291.675 98.4965 291.675Z" fill="white" stroke="black" stroke-width="4" stroke-miterlimit="10" stroke-linecap="round"/>
<path d="M113.7 301.264C115.581 301.264 117.11 299.738 117.11 297.859C117.11 295.981 115.581 294.454 113.7 294.454C111.819 294.454 110.291 295.981 110.291 297.859C110.291 299.738 111.819 301.264 113.7 301.264Z" fill="white" stroke="black" stroke-width="4" stroke-miterlimit="10" stroke-linecap="round"/>
<path d="M144.567 329.34H72.3125V408.329H144.567V329.34Z" fill="#FF0077" stroke="black" stroke-width="4"/>
<path d="M72.3125 329.379V342.367H78.5237C82.6971 342.367 86.1782 345.72 86.2958 349.927C86.4591 355.668 91.2922 360.429 97.0854 360.429C102.879 360.429 107.222 355.668 106.791 349.927C106.634 347.801 108.221 346.091 110.337 346.091H144.574V329.373H72.3125V329.379Z" fill="white" stroke="black" stroke-width="4"/>
<path d="M72.3132 408.329H144.568V416.125C144.568 419.197 142.066 421.695 138.99 421.695H77.8843C74.8081 421.695 72.3066 419.197 72.3066 416.125V408.329H72.3132Z" fill="white" stroke="black" stroke-width="4" stroke-miterlimit="10" stroke-linecap="round"/>
</g>
<path d="M157.007 360.801C156.644 357.058 160.095 354.083 163.748 354.995L163.749 354.996L204.61 365.178L205.916 396.971L163.601 396.052H163.602C161.864 396.012 160.409 394.69 160.206 392.937C159.783 389.271 158.115 372.215 157.007 360.801Z" fill="white" stroke="black" stroke-width="4" stroke-linejoin="round"/>
<path d="M67.5 494.5H328.5" stroke="black" stroke-width="4" stroke-linecap="round"/>
<defs>
<clipPath id="clip0_7760_60">
<rect width="99" height="137" fill="white" transform="translate(71 286)"/>
</clipPath>
</defs>
</svg>
