<svg width="765" height="528" viewBox="0 0 765 528" fill="none" xmlns="http://www.w3.org/2000/svg">
<path d="M594.399 154.052H182.527C176.248 154.052 171.159 159.142 171.159 165.42V400.629C171.159 406.908 176.248 411.998 182.527 411.998H594.399C600.678 411.998 605.767 406.908 605.767 400.629V165.42C605.767 159.142 600.678 154.052 594.399 154.052Z" stroke="white" stroke-width="4"/>
<path d="M352.078 191.854L352.91 242.361L303.574 240.652L303.1 168.612L352.078 191.854Z" fill="white" stroke="black" stroke-width="3.32369"/>
<path d="M301.421 127.754C301.421 121.329 306.629 116.121 313.054 116.121H356.132C362.607 116.121 367.836 121.409 367.764 127.884L367.06 191.028C366.969 199.246 360.28 205.861 352.061 205.861H313.054C306.629 205.861 301.421 200.652 301.421 194.228V127.754Z" fill="white"/>
<path d="M438.997 403.177C444.34 409.202 451.957 412.726 460.028 412.726L460.142 412.612C474.466 412.612 486.744 401.471 487.88 387.147L498.794 255.389L550.292 216.055C552.111 214.805 553.034 212.319 552.352 210.5C551.216 207.473 548.352 206.5 544.722 208.438L540.852 210.5L544.267 205.824C545.29 204.118 545.404 202.299 544.608 200.822C543.812 199.457 542.221 198.548 540.288 198.548C538.469 198.548 536.764 199.344 535.741 200.822L526.352 210L527.897 201.163C528.351 199.116 527.101 196.956 525.168 196.274C524.714 196.047 525.396 196.047 523.804 196.047C522.213 196.047 520.735 196.956 520.053 198.434L512.55 213.895C510.39 214.805 504.819 217.419 501.863 221.512C500.954 222.762 499.931 224.468 498.908 226.514L481.628 226.855C473.556 226.969 470.146 231.971 469.464 234.926L469.009 236.632L446.352 340.5L430.852 313L407.393 366.798L438.997 403.177Z" fill="white" stroke="black" stroke-width="4" stroke-miterlimit="4.62023"/>
<path d="M249.904 306.476L250.927 413.5L412.925 412.5L409.401 272.94C408.946 253.955 393.943 237.361 374.958 237.02L330.504 241.59L286.169 238.835L249.904 306.476Z" fill="#FF0077"/>
<path d="M404.456 255.716L433.766 324.394L408.528 396.81L384.428 319.619L404.456 255.716Z" fill="#FF0077"/>
<path d="M247.087 339.16L212.897 381.819C211.413 383.672 212.566 386.433 214.927 386.68L280.104 393.489L280.121 393.491L280.137 393.492C283.672 393.804 287.012 394.835 290.167 396.5L316.712 416H176.312C162.497 416 154.198 409.594 150.591 402.585C147.912 397.38 148.898 391.226 151.476 385.178C154.038 379.169 157.979 373.713 160.548 370.175L160.556 370.165L160.562 370.155L206.684 304.937L247.087 339.16Z" fill="white" stroke="black" stroke-width="4"/>
<path d="M364.644 258.003L364.076 224.126L353.769 219.571L353.354 227.049L331.75 242.837L302.233 228.446L301.323 220.943H298.026L289.046 224.353L288.136 252.433L364.644 258.003Z" fill="#FF0077"/>
<path d="M339.354 78.2368C339.992 78.2368 340.56 78.2368 341.065 78.2368C341.177 78.2748 341.257 78.2928 341.273 78.2964C341.352 78.3142 341.419 78.325 341.458 78.3306L341.505 78.3364C350.198 79.3715 353.271 84.3092 353.999 87.5845L354.459 89.6528L356.497 89.0747C366.14 86.3367 372.038 87.4058 375.778 90.0308C379.56 92.6859 381.656 97.2857 382.873 102.823C383.32 106.982 382.738 110.466 380.949 113.3C379.148 116.155 375.956 118.618 370.666 120.381L369.082 120.909L369.319 122.561C369.58 124.388 369.585 126.392 369.115 128.098C368.655 129.766 367.785 131.028 366.331 131.735L366.322 131.739L366.312 131.744C365.42 132.19 364.473 132.442 363.454 132.442C361.183 132.442 359.128 131.196 357.74 130.128L356.677 129.312L355.518 129.983C353.549 131.123 349.804 132.784 345.152 132.784C341.579 132.784 338.2 131.769 334.981 129.692C330.241 126.598 328.331 122.733 327.526 119.814L326.711 116.859L324.335 118.795C321.272 121.291 316.577 124.974 313.156 127.183C308.628 129.94 305.4 131.213 303.576 131.719L302.077 132.136L302.113 133.693L302.648 157.053L297.71 158.896L292.1 126.709L292.097 126.698L291.985 126.001C290.954 118.806 294.038 111.481 299.955 107.063L323.705 89.7905L324.146 89.4702L324.363 88.9712C325.464 86.4375 329.875 78.2368 339.354 78.2368Z" fill="#FF0077" stroke="black" stroke-width="4"/>
<path d="M307.722 161.572C304.312 157.821 298.232 157.48 296.3 161.572C294.367 165.665 298.287 174.191 304.426 172.94C310.564 171.69 307.722 161.572 307.722 161.572Z" fill="white"/>
<path d="M303.083 156.836C290.204 154.759 292.697 173.039 303.083 172.624L303.083 220.402" stroke="black" stroke-width="4"/>
<path d="M335.611 175.344C342.387 175.226 347.769 168.82 347.633 161.036C347.497 153.251 341.894 147.037 335.119 147.155C328.344 147.274 322.962 153.68 323.098 161.464C323.233 169.248 328.836 175.463 335.611 175.344Z" fill="white" stroke="black" stroke-width="4" stroke-miterlimit="10"/>
<path d="M194.916 319.504L230.793 359.166L273.698 308.023L285.976 236.516C285.976 236.516 251.644 239.813 233.341 264.368C215.038 288.81 194.916 319.504 194.916 319.504Z" fill="#FF0077"/>
<path d="M350.446 415L335.995 259.14L340.769 253.342L331.334 241.633L322.353 253.569L327.128 259.595L316.352 415H350.446Z" fill="black"/>
<path d="M319.644 207.395C318.939 206.95 319.253 205.861 320.087 205.861H351.857V227.688L319.644 207.395Z" fill="black"/>
<path d="M447 337.5L440 372" stroke="black" stroke-width="4" stroke-miterlimit="10" stroke-linecap="round"/>
<path d="M251.874 390V336.215C251.874 335.079 250.509 334.624 249.827 335.533L230.16 358.156L195.352 320L233.457 264.368C241.188 253.227 252.897 245.383 266.084 242.541L289.275 237.425V225.716C289.162 225.716 303.083 219.577 303.083 219.577V228.103L331.452 241.745L352.938 227.08V219.577" stroke="black" stroke-width="4" stroke-miterlimit="10"/>
<path d="M351.41 218.576L364.647 223.102L365.329 236.516H378.061C387.156 236.516 395.568 241.518 400.002 249.476L434.675 323.256L411.143 385.554V412.5" stroke="black" stroke-width="4" stroke-miterlimit="10"/>
<path d="M411.144 328.258V389.419" stroke="black" stroke-width="4" stroke-miterlimit="10" stroke-linecap="round"/>
<path d="M320.532 204.199C319.615 204.199 318.871 204.943 318.871 205.86C318.871 206.778 319.615 207.522 320.532 207.522V204.199ZM320.532 205.86V207.522H347.895V205.86V204.199H320.532V205.86ZM367.895 185.86H369.557V130.247H367.895H366.233V185.86H367.895ZM347.895 205.86V207.522C359.859 207.522 369.557 197.824 369.557 185.86H367.895H366.233C366.233 195.988 358.023 204.199 347.895 204.199V205.86Z" fill="black"/>
<path d="M365.686 174.787C371.901 174.679 376.829 168.281 376.693 160.496C376.557 152.712 371.409 146.49 365.194 146.598C358.979 146.707 354.052 153.105 354.187 160.889C354.323 168.673 359.472 174.896 365.686 174.787Z" fill="white" stroke="black" stroke-width="4" stroke-miterlimit="10"/>
<path d="M425 412H250.5" stroke="white" stroke-width="4"/>
</svg>
