<svg width="639" height="914" viewBox="0 0 639 914" fill="none" xmlns="http://www.w3.org/2000/svg">
<path d="M347.58 239.134C347.846 227.957 354.676 219.264 361.418 216.337C368.248 213.321 391.31 217.135 397.608 235.408C403.817 253.592 397.608 267.784 397.608 267.784V295.637L381.287 303.088L367.804 289.073L366.917 272.219L375.699 269.824L369.223 271.598L358.224 274.437C353.701 275.59 349.177 272.397 348.822 267.696C348.201 259.003 347.403 246.23 347.58 239.222V239.134Z" fill="white"/>
<path d="M404.514 701.003L425.803 704.285L425.004 721.759L404.248 720.34L404.514 701.003Z" fill="black"/>
<path d="M432.645 692.488L444.177 720.163L420.05 721.76L412.244 700.028L432.645 692.488Z" fill="black"/>
<path d="M265.974 283.839C267.394 283.839 268.724 283.218 269.789 282.065C271.208 280.557 271.385 278.96 271.208 277.985C270.942 275.412 268.724 273.727 267.749 273.017L232.356 249.6L225.615 248.447L228.276 255.188L260.83 281.71C262.604 283.129 264.289 283.839 265.797 283.839H265.974Z" fill="#FF0077"/>
<path d="M228.542 250.664L229.873 254.035L262.072 280.202C263.047 281 264.467 281.887 265.975 281.887C267.483 281.887 267.749 281.532 268.547 280.645C270.942 278.073 268.724 275.501 266.862 274.259L231.824 251.019L228.631 250.487M222.954 246.14L229.163 247.205L232.357 247.737H233.066C233.066 247.825 233.687 248.269 233.687 248.269L268.724 271.509C269.877 272.307 272.539 274.436 272.982 277.718C273.159 279.137 272.982 281.177 271.031 283.218C269.611 284.726 267.837 285.613 265.886 285.613C263.934 285.613 261.894 284.814 259.765 283.129L227.567 256.873L226.857 256.252L226.502 255.365L225.172 251.994L222.865 246.14H222.954Z" fill="black"/>
<path d="M385.367 408.997L401.156 427.004C402.575 428.6 404.527 429.487 406.655 429.487H407.01C408.518 429.487 409.937 429.044 411.179 428.246L468.747 390.813C473.182 387.886 474.601 382.032 471.94 377.419L446.571 330.391L420.049 343.269L446.571 379.105L404.704 415.029L392.286 406.336C391.044 405.449 389.625 405.094 388.117 405.272L386.786 405.449C385.012 405.627 384.303 407.755 385.456 408.997H385.367Z" fill="white"/>
<path d="M308.61 437.159L394.293 420.404C394.293 420.404 417.731 444.93 423.877 494.5M302.115 468L244.071 743.609C244.071 743.609 321.289 743.713 321.308 743.609L358.75 559.853L368.044 743.599H381.5" stroke="white" stroke-width="4" stroke-linecap="round"/>
<path d="M301.535 310.893L282.198 324.287L256.031 286.411C254.877 284.726 254.345 282.686 254.434 280.734L255.41 263.881C255.587 261.22 254.523 258.559 252.482 256.785C250.442 255.011 246.362 251.374 244.765 250.398C242.104 248.802 240.685 252.438 240.685 252.438C240.685 252.438 238.379 250.487 236.605 251.906C234.831 253.325 235.807 255.188 235.807 255.188C235.807 255.188 231.815 254.301 232.081 258.204C231.017 257.938 229.065 259.889 230.13 261.752C231.194 263.615 234.742 265.655 234.742 265.655L236.25 281.887C236.427 283.839 237.048 285.79 238.024 287.564L271.908 348.503C274.481 353.115 280.335 354.8 284.947 352.139L318.565 335.02L301.357 311.07L301.535 310.893Z" fill="white"/>
<path d="M354.221 283.838C346.881 282.217 339.227 283.547 332.994 287.671L332.984 287.677L301.387 308.839L299.723 309.954L300.841 311.616L316.842 335.411L302.579 436.037L302.578 436.043C301.983 440.329 305.06 444.388 309.395 444.87L309.401 444.871C321.74 446.202 357.045 449.228 374.368 449.228C391.637 449.228 401.432 448.25 406.646 447.336V447.335C410.538 446.66 412.679 442.385 410.928 438.883L410.925 438.877L410.922 438.87L394.553 406.729C394.709 406.487 394.87 406.21 395.021 405.903C395.616 404.699 396.144 402.851 395.412 400.789L395.4 400.756C394.59 398.595 393.172 397.362 391.68 396.689C392.216 396.344 392.778 395.98 393.369 395.599L393.376 395.595L393.383 395.591C396.487 393.555 399.073 390.028 401.168 386.503C403.288 382.935 405.063 379.088 406.421 376.241V376.24L421.475 345.01L447.432 336.929V336.928C449.829 336.213 451.181 333.345 449.827 330.945H449.828L439.539 312.406C435.71 305.425 429.019 300.459 421.282 298.74L354.223 283.839L354.221 283.838Z" fill="#FF0077" stroke="black" stroke-width="4" stroke-miterlimit="10"/>
<path d="M339.331 376C339.331 376 338.976 409.086 378.005 426.472L339.331 376Z" fill="#FF0077"/>
<path d="M339.331 376C339.331 376 338.976 409.086 378.005 426.472" stroke="black" stroke-width="4" stroke-miterlimit="10" stroke-linecap="round"/>
<path d="M224.427 247.789C215.1 249.159 205.313 249.643 196.127 246.966C187.454 244.478 180.284 238.263 175.234 230.967C171.733 225.919 169.045 220.184 168.485 214.021C167.275 201.572 174.46 189.561 181.059 179.574C192.214 162.847 207.37 145.795 202.774 124.348C199.901 110.945 184.489 89.1181 158.258 81.2681" stroke="white" stroke-width="4" stroke-linecap="round"/>
<path d="M151.339 85.615C148.942 82.3358 149.658 77.735 152.937 75.3388C156.217 72.9426 160.817 73.6584 163.214 76.9376C165.61 80.2167 164.894 84.8175 161.615 87.2137C158.336 89.6099 153.735 88.8941 151.339 85.615Z" fill="#FF0077" stroke="white" stroke-width="4" stroke-miterlimit="10"/>
<path d="M193.339 150.615C190.942 147.336 191.658 142.735 194.937 140.339C198.217 137.943 202.817 138.658 205.214 141.938C207.61 145.217 206.894 149.817 203.615 152.214C200.336 154.61 195.735 153.894 193.339 150.615Z" fill="#FF0077" stroke="white" stroke-width="4" stroke-miterlimit="10"/>
<path d="M164.622 230.874C161.636 226.787 162.528 221.054 166.615 218.067C170.702 215.081 176.436 215.973 179.422 220.06C182.408 224.147 181.516 229.88 177.429 232.867C173.343 235.853 167.609 234.961 164.622 230.874Z" fill="#FF0077" stroke="white" stroke-width="4" stroke-miterlimit="10"/>
<path d="M357.869 215.361C368.957 204.539 395.922 204.095 405.502 215.361C414.993 226.626 413.929 236.649 413.929 236.649C413.929 236.649 418.36 255.925 405.055 265.505C396.273 271.803 392.729 271.509 390.334 269.557C388.383 268.05 379.424 254.567 375.698 248.89C376.408 245.519 375.166 242.326 372.771 241.616C370.11 240.818 367.094 243.036 366.03 246.672C365.852 247.293 365.764 247.825 365.675 248.358L364.788 248.535C362.304 247.382 360.708 244.898 360.708 242.149V237.713L355.385 230.706C352.458 226.892 352.547 221.836 355.385 218.288L357.869 215.361Z" fill="black"/>
<path d="M413.929 236.65C413.929 236.65 414.994 226.626 405.502 215.361C393.62 201.388 366.317 205.405 355.386 218.288C352.547 221.837 352.459 226.893 355.386 230.707L360.708 237.714V242.149C360.708 244.899 362.305 247.383 364.788 248.536L365.675 248.358C365.764 247.826 365.853 247.294 366.03 246.673C367.094 243.036 370.11 240.819 372.771 241.617C375.166 242.327 376.408 245.52 375.699 248.891C379.424 254.568 388.834 270.814 397.682 270.814" stroke="white" stroke-width="4" stroke-miterlimit="10"/>
<path d="M435.99 250.732C420.845 256.1 404.216 248.174 398.848 233.029C393.48 217.883 401.406 201.254 416.551 195.886C431.696 190.518 448.325 198.444 453.693 213.589L435.99 250.732Z" fill="black" stroke="black" stroke-width="4" stroke-miterlimit="10" stroke-linecap="round"/>
<path d="M453.681 213.713C448.313 198.568 431.684 190.642 416.539 196.01C401.394 201.378 393.468 218.007 398.836 233.152C401.054 239.412 405.197 244.439 410.364 247.803" stroke="white" stroke-width="4" stroke-miterlimit="10" stroke-linecap="round"/>
<path d="M381.01 763.271L384.25 803.231H424.5L423.9 798.44C423.23 795.81 421.05 793.881 418.43 793.591L412.1 792.87L409.56 763.271H381H381.01Z" fill="#FF0077"/>
<path d="M302.32 767.65L294.76 803.24H249V797.76C249 795.56 250.57 793.69 252.69 793.39L267.08 791.32L273.59 767.66H299.572L302.32 767.65Z" fill="#FF0077"/>
<path d="M300.5 766.894H270L276 744" stroke="white" stroke-width="4" stroke-linecap="round"/>
<path d="M381 745L382.5 763.5H411.5" stroke="white" stroke-width="4" stroke-linecap="round"/>
<path d="M139 803H497" stroke="white" stroke-width="4" stroke-linecap="round"/>
</svg>
