<svg width="400" height="400" viewBox="0 0 400 400" fill="none" xmlns="http://www.w3.org/2000/svg">
<path d="M195.23 61.3399L194.92 74.3499C194.92 74.3499 177.96 72.5699 176.83 63.2999L178.17 49.6399C178.17 49.6399 182.67 60.8599 195.23 61.3399Z" fill="black"/>
<path d="M307.82 230.06C307.82 146.81 269.2 108.15 185.91 108.15C102.62 108.15 64 146.81 64 230.06C64 313.31 102.62 351.97 185.91 351.97C269.2 351.97 307.82 313.31 307.82 230.06Z" fill="black" stroke="white" stroke-width="4" stroke-miterlimit="10"/>
<path d="M244.37 205.36C242.17 205.53 239.84 205.34 237.97 204.16C236.35 203.09 235.22 201.65 234.15 200.39C230.5 195.94 227.93 191.1 225.13 186.14C219.45 176.04 213.28 166.32 207.42 156.28C207.16 155.55 206.71 154.89 206.27 154.22C206.41 155.2 206.68 155.93 206.82 156.9C208.66 167.76 210.25 178.51 211.73 189.5C212.53 195.18 213.58 200.97 214.09 206.97C214.38 208.92 214.37 211.19 213.5 213.35C212.75 215.27 211.13 217.08 209.33 218.35C207.04 220 204.24 220.79 201.75 221.89C198.35 223.31 188.32 226.91 184.81 225.71C183.39 225.19 181.95 224.06 180.77 223.04C178.4 221.01 176.5 218.6 174.79 216.13C166.3 203.95 159.14 190.88 152.17 177.74C144.1 162.12 136.32 146.18 129.46 129.92C126.87 123.85 124.17 118.03 122.12 111.77C121.4 109.77 120.93 107.88 120.57 105.74C119.88 96.93 130.61 91.85 139.52 90.3C142.57 89.62 146.32 90.33 148.4 92.67C150.28 94.47 151.49 96.7 152.71 98.94C159.28 110.37 163.55 122.83 168.54 135.03C174.24 148.62 180.12 162.15 186.37 175.55C185.31 166.87 183.9 158.33 182.48 149.79C180.21 136 178.3 122.07 177.12 107.89C176.83 105.94 176.66 98.59 177.42 96.67C179.21 91.91 186.66 88.01 191.63 90.96C192.44 91.49 193.25 92.0301 193.94 92.8101C199.2 97.7101 202.41 104.38 206.41 110.35C216.19 125.57 225.37 141.41 234.74 157.18C230.83 141.71 226.75 126.3 221.75 111.22C217.46 97.5301 212.49 83.68 211.67 69.3601C211.73 66.6601 215.2 63.15 217.63 61.87C221.99 59.69 226.6 57.62 231.5 57.51C233.52 57.4 235.49 57.73 237.22 58.54C239.14 59.29 240.7 60.79 241.47 62.36C243.65 66.72 245.4 71.03 246.79 75.47C252.88 95.3 258.24 115.4 262.43 135.7C265.28 150.52 268.56 165.4 269.82 180.38C270.03 184.42 270.49 193.72 267.49 196.24C261 201.66 252.61 204.67 244.42 205.34L244.37 205.36Z" fill="#FF0077" stroke="black" stroke-width="4" stroke-miterlimit="10"/>
<path d="M192.36 232.64C191.53 232.8 190.85 231.96 191.19 231.19L194.29 224.1C194.79 222.13 197.63 221.97 198.82 223.62L202.74 229.08C203.19 229.7 202.84 230.58 202.09 230.73L192.36 232.65V232.64Z" fill="white" stroke="white" stroke-width="4" stroke-miterlimit="10"/>
<path d="M139.17 285.11L143.53 349.07" stroke="white" stroke-width="4" stroke-miterlimit="10"/>
<path d="M197.45 230.06L200.9 350.73" stroke="white" stroke-width="4" stroke-miterlimit="10"/>
<path d="M225.77 67.23C225.77 67.23 218.66 68.75 219.68 75.74L225.77 67.23Z" fill="black"/>
<path d="M225.77 67.23C225.77 67.23 218.66 68.75 219.68 75.74" stroke="white" stroke-width="4" stroke-miterlimit="10" stroke-linecap="round"/>
<path d="M130.28 111.04L150.98 156.88" stroke="white" stroke-width="4" stroke-miterlimit="10" stroke-linecap="round"/>
<path d="M127.49 281.51C120.49 283.07 111.33 282.38 106.02 277.13C93.69 264.65 88.78 245.92 82.97 229.21C75.89 209.02 60.88 164.47 73.54 148.1C81.56 137.89 95.93 135.48 108.28 132.97C116.64 131.27 127.3 130.78 133.79 136.73C143.76 146.2 147.24 175.89 148.67 185.51C149.62 192.46 151.69 196.73 148.42 202.75C145.33 208.72 135.56 209.58 128.98 209.64C120.01 209.7 117.02 189.09 114.75 179.27C113.14 172.88 111.01 162.83 105.14 164.91C98.33 167.22 101.73 176.75 103.57 184.08C106.03 193.85 119.3 237.04 124.1 245.82C126.08 248.92 131.67 248.91 133.02 245.57C133.77 243.78 133.58 241.44 133.15 238.95C132.35 235.76 129.86 238.58 128.03 238.44C127 238.3 125.96 237.36 125.49 236.28C124.36 234.17 121.95 226.19 122.32 223.7C122.55 222.24 123.87 221.11 125.09 220.41C133.26 215.56 152.7 212.66 154.63 217.17C155.67 219.71 163.19 254.36 162.87 259.43C162.14 273.2 140.59 278.82 127.49 281.52V281.51Z" fill="#FF0077" stroke="black" stroke-width="4" stroke-miterlimit="10"/>
<path d="M144.82 284.68L139.54 279.07C138.15 277.59 135.68 278.19 135.11 280.14L133.26 286.57C133.04 287.32 133.68 288.04 134.45 287.92L144.2 286.47C145.05 286.34 145.41 285.31 144.82 284.68Z" fill="white" stroke="white" stroke-width="4" stroke-miterlimit="10"/>
<path d="M91.49 145.56C91.49 145.56 71.43 151.38 76.63 178.46" stroke="white" stroke-width="4" stroke-miterlimit="10" stroke-linecap="round"/>
<path d="M274.25 232.56C271.04 231.19 267.28 229.62 265.52 226.51C262.54 221.1 267.17 205.48 268.92 199.52C276.45 174.23 285.86 149.42 296.54 125.07C299.55 117.92 302.62 110.59 306.53 103.77C308.08 100.63 310.25 97.5 313.29 95.92C318.75 93.37 328.96 96.45 333.2 100.67C335.05 102.37 335.77 105.52 335.64 108.15C335.02 113.28 333.23 118.2 331.45 123.11C328.92 130.64 326.15 138.29 323.26 145.69C315.9 164.86 309.87 184.31 302.51 203.47C299.82 210.32 297.24 217.42 294.19 224.14C292.57 227.47 290.82 231.16 287.64 233.1C283.72 235.39 278.36 234.27 274.24 232.56H274.25Z" fill="#FF0077" stroke="black" stroke-width="4" stroke-miterlimit="10"/>
<path d="M278.78 243.71L277.93 236.02C277.71 234 275.37 232.99 273.75 234.21L268.38 238.25C267.77 238.71 267.84 239.65 268.51 240.02L277.22 244.75C277.97 245.16 278.86 244.55 278.77 243.71H278.78Z" fill="white"/>
<path d="M273.62 242.6L246.39 342.4" stroke="white" stroke-width="4" stroke-miterlimit="10"/>
<path d="M325.81 104.05C325.43 104.02 318.4 99.7301 315.41 102.34C309.38 107.6 300.71 129.75 300.71 129.75" stroke="white" stroke-width="4" stroke-miterlimit="10" stroke-linecap="round"/>
<path d="M273.81 206.74C273.81 206.74 267.7 220.95 274.3 224.94" stroke="white" stroke-width="4" stroke-miterlimit="10" stroke-linecap="round"/>
<path d="M189.03 96.01C182.6 95.42 181.33 99.73 182.43 104.05" stroke="white" stroke-width="4" stroke-miterlimit="10" stroke-linecap="round"/>
<path d="M139.17 221.89H145.19C147.7 221.89 149.85 223.68 150.3 226.15L155.57 254.9" stroke="white" stroke-width="4" stroke-miterlimit="10" stroke-linecap="round"/>
<path d="M283.667 54.7272L306.827 53.0072C308.247 52.8972 309.437 54.0672 309.357 55.4872C308.867 63.9972 306.027 90.0772 289.817 94.0072C289.627 94.0572 289.427 94.0772 289.227 94.0772H267.367C265.157 94.0772 264.157 91.3172 265.857 89.9072C272.327 84.5472 281.687 73.8672 281.497 57.0972C281.487 55.8572 282.437 54.8172 283.677 54.7272H283.667Z" fill="#FF0077"/>
<path d="M230.3 259.05L230.05 269.53C230.05 269.53 216.38 268.1 215.47 260.63L216.55 249.62C216.55 249.62 220.18 258.66 230.3 259.05Z" fill="black"/>
<path d="M97.12 113.01L93.43 120.33C93.43 120.33 84.25 114.73 86.12 109.15L90.58 101.74C90.58 101.74 90.11 109.34 97.13 113.01H97.12Z" fill="black"/>
<path d="M171.02 313.59L166.98 321.6C166.98 321.6 156.95 315.48 158.98 309.37L163.86 301.26C163.86 301.26 163.34 309.57 171.02 313.59Z" fill="black"/>
<path d="M212.334 255.736L213.461 242.94C213.549 241.998 214.437 241.355 215.361 241.563C220.338 242.705 234.303 246.722 235.037 256.047C235.044 256.177 235.042 256.311 235.018 256.445L233.098 268.202C232.866 269.626 231.001 269.998 230.251 268.772C227.733 264.659 222.65 258.833 213.62 257.401C212.825 257.276 212.27 256.545 212.347 255.74L212.334 255.736Z" fill="#FF0077" stroke="black" stroke-width="4" stroke-miterlimit="10"/>
<path d="M100.82 247.5L106.07 263.8C106.07 263.8 84.23 268.94 78.8 257.92L74.55 240.37C74.55 240.37 85 252.36 100.81 247.51L100.82 247.5Z" fill="white"/>
<path d="M211.868 136.292L199.732 132.767C199.732 132.767 205.614 117.289 214.596 118.523L227.082 123.177C227.082 123.177 215.433 124.611 211.866 136.282L211.868 136.292Z" fill="white"/>
<path d="M282.678 291.405L282.463 261.026C282.463 261.026 322.159 263.945 325.487 285.484L323.344 317.446C323.344 317.446 312.037 291.595 282.7 291.393L282.678 291.405Z" fill="white"/>
</svg>
