<svg width="537" height="508" viewBox="0 0 537 508" fill="none" xmlns="http://www.w3.org/2000/svg">
<g clip-path="url(#clip0_6341_317)">
<path d="M292.401 117.423C311.384 97.9697 340.792 80.8503 382.612 90.0779C424.468 99.3121 445.898 124.553 456.252 151.548C466.617 178.572 465.882 207.368 463.346 223.623C455.03 276.992 418.612 326.084 384.209 361.867C367.015 379.751 350.342 394.293 337.966 404.365C331.778 409.401 326.666 413.319 323.102 415.976C321.32 417.305 319.924 418.319 318.975 419.001C318.5 419.341 318.138 419.599 317.894 419.771C317.82 419.823 317.757 419.866 317.705 419.902C317.684 419.897 317.662 419.893 317.638 419.887C317.45 419.843 317.17 419.777 316.8 419.685C316.059 419.502 314.96 419.221 313.53 418.83C310.671 418.048 306.489 416.826 301.204 415.065C290.633 411.544 275.65 405.87 258.016 397.263C222.746 380.05 176.874 351.108 134.471 304.195C92.1267 257.342 90.194 215.1 107.256 184.656C124.35 154.155 160.579 135.356 194.827 135.57C217.355 135.71 234.678 141.536 246.364 147.323C252.208 150.217 256.643 153.1 259.613 155.258C261.099 156.336 262.218 157.233 262.964 157.859C263.337 158.172 263.616 158.417 263.802 158.583C263.895 158.666 263.964 158.729 264.01 158.771C264.033 158.792 264.05 158.808 264.061 158.818C264.066 158.823 264.07 158.827 264.072 158.83C264.073 158.831 264.075 158.831 264.075 158.832V158.833L264.614 159.344L264.886 158.652C264.886 158.652 264.886 158.65 264.887 158.649C264.888 158.647 264.889 158.643 264.891 158.638L264.984 158.409C265.05 158.246 265.151 158.005 265.285 157.689C265.554 157.058 265.96 156.132 266.508 154.961C267.603 152.617 269.262 149.287 271.516 145.347C276.024 137.466 282.906 127.154 292.401 117.423Z" fill="white" stroke="black"/>
<path d="M268.31 265.2C275.15 256.1 282.13 222.04 271.76 194.42C256.1 152.72 214.35 156.8 213.71 156.85C177.94 159.75 166.71 196.15 166.71 196.15C166.71 196.15 133.34 184.08 112.91 208.57C88.08 238.35 111.11 271.54 111.11 271.54C111.11 271.54 98.18 276.78 88.45 287.79C77.61 299.67 71 315.48 71 332.83C71 369.75 100.93 399.68 137.85 399.68C138.41 399.68 138.97 399.65 139.53 399.64C163.06 400.38 194.88 379.07 199.78 356.34C199.78 356.34 223.95 309.85 240.43 320.62C249.65 326.64 260.84 326.46 261.03 326.46C278.18 326.46 292.09 312.55 292.09 295.4C292.09 280.75 281.95 268.48 268.3 265.21L268.31 265.2Z" fill="white" stroke="black" stroke-width="4"/>
<path d="M211.13 172.03L220.98 171.06C240.87 169.1 258.58 183.64 261.41 204.51L265.23 243.3C266.32 262.22 251.78 279.93 231.88 281.89L186.01 286.4L178.65 211.59C176.69 191.7 191.23 173.99 211.12 172.03H211.13Z" fill="black"/>
<path d="M341.91 273.68L338.18 352.1L394.3 310.61L388.31 254.67" fill="white"/>
<path d="M341.91 273.68L338.18 352.1L394.3 310.61L388.31 254.67" stroke="black" stroke-width="4" stroke-miterlimit="10"/>
<path d="M393.24 289.84C383.98 319.88 352.18 342.49 341.92 327.8C338.18 322.45 340.16 298.08 340.16 298.08C340.16 298.08 302.16 304.55 287.92 321.9C271.12 342.37 269.26 401.79 269.26 401.79L317.81 420.45L432.98 300.23C426.03 293.42 413.62 291.52 393.24 289.86V289.84Z" fill="white" stroke="black" stroke-width="4"/>
<path d="M217.25 305.37C217.25 305.37 227.04 304.49 232.15 311.58L273.94 357.6C304.51 388.72 362.63 370.88 382.23 331.91L392.04 312.41C398.29 299.98 408.44 290.62 422.09 293.32C427.08 294.31 434.61 297.89 434.61 299.81C434.61 299.81 424.1 317.63 409.12 334.22C396.33 348.4 388.61 358.73 372.57 374.26C347.53 398.5 317.82 420.43 317.82 420.43L259.3 400.39L219.39 372.34L192.49 344.34C187.17 337.48 195.32 325.01 197.72 316.67L189.08 303.42C192.43 291.77 205.13 305.38 217.26 305.38L217.25 305.37Z" fill="black"/>
<path d="M263.68 200.47C263.68 200.47 261.48 205.73 245.29 197.87C229.49 190.2 211.1 189.25 211.1 189.25C211.1 189.25 216.83 214.04 201.71 225.09C186.59 236.15 175.58 217.16 175.58 217.16C175.58 217.16 174.07 192.87 182.96 178.41C191.85 163.95 230.87 166.03 241.07 169.67C255.35 174.76 260.88 186.21 260.88 186.21L263.67 200.48L263.68 200.47Z" fill="white"/>
<path d="M208.86 250.68L224.43 282.63L226.12 286.76C227.78 290.83 229.61 294.82 231.6 298.74L238.6 312.52L195.12 304.86L208.85 250.68H208.86Z" fill="black"/>
<path d="M391.58 285.19L339.49 313.37V273.48L391 278L391.58 285.19Z" fill="black"/>
<path d="M265.33 351.26L232.2 306.26C231.98 306.03 231.76 305.78 231.54 305.53C221.6 294.37 204.18 294.16 194.26 305.34C194.21 305.39 194.17 305.45 194.12 305.5C179.4 321.95 179.51 350.84 198.18 362.6C214.83 373.09 232.36 384.14 232.36 384.14L265.33 351.26Z" fill="#FF0077" stroke="black" stroke-width="4"/>
<path d="M188.39 312.52C231.03 256.52 183.26 220.95 183.26 220.95L164.25 221.94" fill="white"/>
<mask id="path-13-inside-1_6341_317" fill="white">
<path d="M313.774 189.04L326.7 184.08L373.02 264.949L310.14 297.14C304.7 299.92 298.211 296.11 298 290L295.351 212.48C293.501 210.961 291.607 209.053 289.69 206.68C273 186.02 282.16 173.1 308.08 171.09L313.774 189.04Z"/>
</mask>
<path d="M313.774 189.04L326.7 184.08L373.02 264.949L310.14 297.14C304.7 299.92 298.211 296.11 298 290L295.351 212.48C293.501 210.961 291.607 209.053 289.69 206.68C273 186.02 282.16 173.1 308.08 171.09L313.774 189.04Z" fill="#FF0077"/>
<path d="M313.774 189.04L309.961 190.25L311.244 194.295L315.207 192.775L313.774 189.04ZM326.7 184.08L330.171 182.092L328.467 179.118L325.267 180.346L326.7 184.08ZM373.02 264.949L374.843 268.51L378.575 266.599L376.491 262.961L373.02 264.949ZM310.14 297.14L311.96 300.702L311.963 300.7L310.14 297.14ZM298 290L294.003 290.137L294.003 290.138L298 290ZM295.351 212.48L299.349 212.343L299.287 210.536L297.889 209.388L295.351 212.48ZM289.69 206.68L286.578 209.194L286.578 209.194L289.69 206.68ZM308.08 171.09L311.893 169.881L310.934 166.857L307.771 167.102L308.08 171.09ZM313.774 189.04L315.207 192.775L328.133 187.815L326.7 184.08L325.267 180.346L312.341 185.306L313.774 189.04ZM326.7 184.08L323.229 186.068L369.549 266.938L373.02 264.949L376.491 262.961L330.171 182.092L326.7 184.08ZM373.02 264.949L371.197 261.389L308.317 293.579L310.14 297.14L311.963 300.7L374.843 268.51L373.02 264.949ZM310.14 297.14L308.32 293.578C305.483 295.028 302.107 293.039 301.998 289.863L298 290L294.003 290.138C294.314 299.181 303.918 304.812 311.96 300.702L310.14 297.14ZM298 290L301.998 289.864L299.349 212.343L295.351 212.48L291.353 212.616L294.003 290.137L298 290ZM295.351 212.48L297.889 209.388C296.273 208.062 294.568 206.354 292.801 204.166L289.69 206.68L286.578 209.194C288.645 211.752 290.728 213.86 292.813 215.571L295.351 212.48ZM289.69 206.68L292.801 204.166C284.698 194.135 284.234 187.654 286.385 183.867C288.766 179.674 295.641 176.067 308.39 175.078L308.08 171.09L307.771 167.102C294.6 168.123 283.935 171.981 279.428 179.916C274.691 188.256 277.992 198.565 286.578 209.194L289.69 206.68ZM308.08 171.09L304.268 172.299L309.961 190.25L313.774 189.04L317.587 187.831L311.893 169.881L308.08 171.09Z" fill="black" mask="url(#path-13-inside-1_6341_317)"/>
<path d="M325.01 161.68C303.63 168.79 296.53 178.21 296 192.5L310.17 246.39C315.97 271.95 340.37 279.35 361.75 272.24C383.13 265.13 394.71 242.04 387.6 220.66L376.59 187.53C369.48 166.15 346.39 154.57 325.01 161.68Z" fill="white" stroke="black" stroke-width="4" stroke-miterlimit="10"/>
<path d="M347.762 142.633C355.756 141.7 363.955 142.623 371.78 146.297C379.602 149.97 387.17 156.447 393.817 166.81C408.799 190.179 433.969 227.934 444.407 243.551L444.408 243.553C446.279 246.344 445.287 250.149 442.283 251.677L442.282 251.678L378.642 284.098C369.01 289.002 357.389 282.05 357.579 271.456L357.58 271.438V271.42C357.58 271.132 357.596 270.819 357.623 270.482V270.481L362.894 205.281L363.084 202.927L360.731 203.127H360.73H360.726C360.723 203.127 360.718 203.129 360.712 203.129C360.699 203.13 360.679 203.132 360.653 203.134C360.601 203.138 360.523 203.144 360.42 203.153C360.215 203.169 359.911 203.194 359.521 203.224C358.739 203.284 357.608 203.368 356.218 203.46C353.436 203.645 349.618 203.866 345.472 204.012C337.34 204.298 328.254 204.279 323.119 203.235L322.635 203.13C315.787 201.566 308.987 198.63 303.86 196.056C301.307 194.773 299.187 193.591 297.71 192.731C297.17 192.416 296.717 192.144 296.359 191.927C296.364 191.459 296.379 190.839 296.423 190.091C296.531 188.265 296.803 185.689 297.456 182.718C298.766 176.762 301.587 169.327 307.596 163.133L307.595 163.132C316.591 153.864 331.703 144.507 347.762 142.633Z" fill="#FF0077" stroke="black" stroke-width="4"/>
<path d="M302 172.5C302 172.5 290.31 163.07 271.75 178.59" stroke="black" stroke-width="4"/>
<path d="M203.31 333.04C203.31 354.25 193.21 371.44 182.95 371.44C172.69 371.44 166.18 354.25 166.18 333.04C166.18 311.83 174.49 294.64 184.74 294.64C194.99 294.64 203.3 311.83 203.3 333.04H203.31Z" fill="white"/>
<path d="M198.18 362.6C207.17 343.27 207.39 320.21 197.54 301.92L200.62 298.18" stroke="black" stroke-width="4"/>
<path d="M110.47 271.9C67.3 193.04 134.24 132.01 194.83 135.07C239.96 137.35 264.42 158.47 264.42 158.47C264.42 158.47 298.65 71.04 382.72 89.59C466.8 108.14 468.93 191.08 463.84 223.7C447.16 330.75 317.81 420.44 317.81 420.44C317.81 420.44 262.23 408.08 198.63 362.27" stroke="black" stroke-width="4"/>
</g>
<defs>
<clipPath id="clip0_6341_317">
<rect width="398.45" height="337.78" fill="white" transform="translate(69 85)"/>
</clipPath>
</defs>
</svg>
