<svg width="400" height="400" viewBox="0 0 400 400" fill="none" xmlns="http://www.w3.org/2000/svg">
<path d="M129.012 112.494L93.8749 145.792C90.4244 149.061 90.0327 154.444 92.9558 158.184L193.244 286.406C196.891 291.074 203.897 291.074 207.543 286.406L307.832 158.184C310.755 154.444 310.363 149.061 306.913 145.792L271.776 112.494C270.088 110.897 267.858 110 265.538 110H135.25C132.93 110 130.7 110.897 129.012 112.494Z" fill="white" stroke="black" stroke-width="4"/>
<path d="M91.0577 151.57H308.375" stroke="black" stroke-width="4"/>
<path d="M177.409 110L142.889 151.57L200.387 289.903" stroke="black" stroke-width="4"/>
<path d="M223.38 110L257.899 151.57L200.387 289.903" stroke="black" stroke-width="4"/>
<path d="M147.741 190.449C147.621 190.798 147.108 190.798 146.973 190.449C140.253 171.519 127.732 158.807 108.912 152.102C108.551 151.98 108.551 151.463 108.912 151.327C127.671 144.545 140.268 131.91 146.973 112.98C147.093 112.63 147.606 112.63 147.741 112.98C154.461 131.91 166.982 144.621 185.801 151.327C186.163 151.448 186.163 151.965 185.801 152.102C167.042 158.883 154.446 171.519 147.741 190.449Z" fill="#FF0077" stroke="black" stroke-width="4"/>
<path d="M115.407 198.629C115.271 198.978 114.744 198.978 114.623 198.629C112.122 192.03 107.632 187.499 101.093 184.975C100.746 184.838 100.746 184.306 101.093 184.184C107.632 181.66 112.122 177.129 114.623 170.53C114.759 170.18 115.286 170.18 115.407 170.53C117.908 177.129 122.398 181.66 128.937 184.184C129.284 184.321 129.284 184.853 128.937 184.975C122.398 187.499 117.908 192.03 115.407 198.629Z" fill="white" stroke="black" stroke-width="4"/>
</svg>
