<svg width="500" height="528" viewBox="0 0 500 528" fill="none" xmlns="http://www.w3.org/2000/svg">
<path d="M383.107 345.526H381.195C381.195 339.209 376.042 334.056 369.725 334.056V332.144C376.042 332.144 381.195 326.991 381.195 320.674H383.107C383.107 326.991 388.26 332.144 394.577 332.144V334.056C388.26 334.056 383.107 339.209 383.107 345.526Z" fill="white"/>
<path d="M72.2961 193.506H69.5468C69.5468 184.422 62.1358 177.011 53.0514 177.011V174.261C62.1358 174.261 69.5468 166.85 69.5468 157.766H72.2961C72.2961 166.85 79.7071 174.261 88.7915 174.261V177.011C79.7071 177.011 72.2961 184.422 72.2961 193.506Z" fill="white"/>
<path d="M442.951 245.038H444.197C444.197 249.277 447.605 252.685 451.761 252.685V253.932C447.605 253.932 444.197 257.339 444.197 261.578H442.951C442.951 257.339 439.543 253.932 435.387 253.932V252.685C439.543 252.685 442.951 249.277 442.951 245.038Z" fill="white"/>
<path d="M290.255 200.002L284.889 222.308L301.872 232.36C304.595 232.932 310.637 239.058 310.713 236.311L315.809 168.71L283.647 163.997C283.647 163.997 283.612 164.113 283.577 164.228C283.368 164.92 282.983 166.19 282.806 168.025C282.566 171.731 283.393 178.152 288.171 188.163C289.791 191.55 291.026 196.206 290.255 200.002Z" fill="white" stroke="black" stroke-width="4"/>
<path d="M194.496 109.653C168.061 112.105 147.631 132.999 145.063 158.544L144.842 158.855C144.396 161.995 144.604 166.718 144.828 169.304C144.941 170.598 145.133 172.041 145.361 173.37L145.326 173.485C146.238 182.955 145.122 190.804 141.355 196.59C137.588 202.377 132.799 205.29 124.532 205.558C122.732 205.679 118.469 205.558 117.306 205.306C112.412 204.832 107.378 204.82 102.32 205.304C59.0355 209.331 27.1899 247.55 31.1015 290.8C35.1283 334.084 73.3479 365.929 116.597 362.018C159.731 358.072 186.69 321.018 182.698 277.618C182.281 273.587 182.22 270.043 182.17 266.879C182.125 266.613 182.114 266.232 182.184 266.001L182.183 265.686C182.18 262.92 182.176 260.496 181.926 258.115C181.362 252.906 180.161 248.135 176.006 242.721L174.499 240.628L176.869 239.456C179.424 238.088 181.325 235.137 183.159 231.158C183.843 229.728 184.413 228.263 185.017 226.683C185.272 226.256 185.447 225.679 185.621 225.103C186.365 223.061 187.225 221.054 188.28 219.232L189.045 217.952L190.499 218.141C195.058 218.891 199.676 219.029 204.469 218.591C234.518 215.848 256.694 189.185 253.951 159.135C251.208 129.086 224.545 106.91 194.496 109.653Z" fill="#FF0077" stroke="black" stroke-width="4"/>
<path d="M220.162 208.353L218.933 238.208L182.672 231.515L192.059 189.268L220.312 208.273L220.162 208.353Z" fill="white" stroke="black" stroke-width="4"/>
<path d="M181.203 228.047L190.555 185.916L222.346 207.377L223.21 217.84L181.284 228.197L181.203 228.047Z" fill="black"/>
<path d="M223.177 216.698C208.037 218.034 194.219 207.932 192.801 192.642L191.105 168.703C189.769 153.563 200.874 140.174 216.049 138.722C231.189 137.385 244.578 148.49 246.03 163.665L248.121 186.716C249.458 201.856 238.352 215.245 223.177 216.698Z" fill="white" stroke="black" stroke-width="4"/>
<path d="M225.98 255.707C226.097 250.327 226.234 241.553 226.292 236.784C226.274 234.764 224.927 232.971 223.046 232.527L179.373 221.197C177.065 220.499 174.741 221.936 174.043 224.244L169.999 239.267C169.824 239.843 169.846 240.606 169.902 241.252L172.238 253.924C172.637 255.934 174.238 257.3 176.339 257.432L221.408 259.991C223.891 260.113 225.973 258.224 225.945 255.823L225.98 255.707Z" fill="black"/>
<path d="M240.6 137.084C234.519 154.261 206.468 175.368 182.401 182.063C158.37 188.643 176.744 135.011 189.012 127.767C201.281 120.523 240.6 137.084 240.6 137.084Z" fill="#FF0077"/>
<path d="M198.062 180.254C196.984 177.157 193.171 168.95 187.125 172.283C181.078 175.617 185.293 184.575 189.838 186.203C194.349 187.946 198.151 186.2 198.151 186.2C198.151 186.2 199.14 183.351 198.062 180.254Z" fill="white"/>
<path d="M236.516 145.168C231.579 152.742 218.24 168.1 197.044 176.545C195.204 173.47 192.634 171.558 189.551 171.758C186.122 171.854 181.575 175.641 184.769 182.15C186.871 186.438 189.202 186.721 192.687 187.272" stroke="black" stroke-width="4" stroke-linecap="round"/>
<path d="M353.547 142.969L357 160.472L245.004 182.566L241.551 165.063L353.547 142.969Z" fill="black"/>
<path d="M261.083 154.708C258.808 155.152 256.934 156.348 255.729 158.251C250.606 166.02 247.216 174.729 251.126 190.522C254.121 198.104 255.621 198.558 254.682 204.571L239.997 251.007L254.99 215.621L255.221 215.691L255.451 215.761L278.031 226.878L283.03 203.706C283.497 201.328 280.285 192.799 280.285 192.799C278.031 152.363 293.487 149.579 294.089 149.454L261.083 154.708Z" fill="white" stroke="black" stroke-width="4"/>
<path d="M170.349 238.112L236.462 247.292L248.288 213.215C248.777 211.599 250.51 210.865 252.045 211.203L279.794 218.973C281.525 219.497 282.64 221.22 282.232 222.985L270.754 275.052L271.1 275.157L287.407 217.121C287.896 215.506 289.375 215.198 290.99 215.687L318.589 223.537C320.204 224.025 321.124 225.563 320.75 227.214L300.965 319.209C299.081 329.596 290.392 336.664 280.789 335.52L278.892 467.052L251.915 466.664L182.951 465.67L142.328 465.084C146.768 453.33 148.39 443.807 149.299 431.236C152.835 382.936 126.628 363.417 122.968 320.999C115.294 286.435 138.823 235.748 170.199 238.193L170.349 238.112Z" fill="black"/>
<path d="M288.271 215.532L316.526 223.507C318.141 223.996 319.061 225.534 318.688 227.184L298.902 319.18C297.018 329.566 288.329 336.634 278.726 335.49L276.829 467.023" stroke="white" stroke-width="4"/>
<path d="M267.995 284.167L262.989 305.699C254.027 344.044 208.772 360.825 176.973 337.724L154.983 321.748" stroke="white" stroke-width="4" stroke-linecap="round"/>
<path d="M423.365 154.495L309.612 173.717L309.54 173.326C304.454 173.458 298.604 169.25 297.285 162.564C295.883 155.456 299.607 148.565 304.732 147.21L304.712 147.099L416.922 121.689L423.365 154.495Z" fill="black"/>
<path d="M237.008 175.336C236.054 170.503 238.14 166.021 241.667 165.325C245.194 164.629 248.827 167.983 249.78 172.817C250.734 177.65 248.647 182.132 245.12 182.828C241.593 183.524 237.961 180.17 237.008 175.336Z" fill="black"/>
<path d="M452.842 111.22L463.338 158.912L355.132 171.648C354.979 171.685 354.825 171.721 354.669 171.752C346.701 173.323 338.507 165.809 336.368 154.967C334.229 144.124 338.955 134.061 346.924 132.489C346.974 132.479 347.025 132.47 347.076 132.46L449.933 106.233L452.842 111.22Z" fill="black"/>
<path d="M442.633 140.299C445.04 147.325 448.929 152.784 453.286 155.866C457.643 158.948 462.236 159.583 466.074 157.722C469.912 155.861 472.844 151.584 474.244 145.711C475.644 139.838 475.292 132.678 472.884 125.652C470.477 118.626 466.588 113.167 462.231 110.085C457.874 107.003 453.281 106.368 449.443 108.229C445.605 110.09 442.673 114.367 441.273 120.24C439.873 126.114 440.225 133.273 442.633 140.299Z" fill="white" stroke="black" stroke-width="4"/>
<path d="M450.326 137.068C451.736 141.147 453.957 144.212 456.331 145.938C458.821 147.7 461.268 147.937 463.187 147.006C465.106 146.076 466.797 143.817 467.544 140.516C468.291 137.216 468.14 133.14 466.845 129.096C465.435 125.016 463.214 121.951 460.84 120.225C458.35 118.464 455.903 118.227 453.984 119.158C452.065 120.088 450.374 122.347 449.627 125.647C448.88 128.948 449.031 133.024 450.326 137.068Z" fill="#FF0077" stroke="black" stroke-width="4"/>
<path d="M452.451 118.469C451.277 117.63 450.26 117.567 449.458 117.948C448.585 118.364 447.726 119.448 447.309 121.261C446.901 123.033 446.997 125.233 447.763 127.363L447.771 127.388C448.538 129.615 449.741 131.206 450.938 132.061C452.112 132.9 453.129 132.962 453.93 132.581C454.804 132.166 455.664 131.082 456.081 129.269C456.488 127.497 456.392 125.297 455.627 123.167L455.618 123.142C454.851 120.915 453.648 119.324 452.451 118.469Z" fill="white" stroke="black" stroke-width="4"/>
<path d="M436.148 163.06C437.236 162.869 437.963 161.833 437.773 160.745C437.582 159.657 436.545 158.93 435.457 159.12L436.148 163.06ZM338.972 168.155L340.317 166.675L339.612 166.034L338.67 166.178L338.972 168.155ZM304.479 171.064L305.162 169.185L304.657 169.001L304.128 169.095L304.479 171.064ZM307.054 172.001L307.738 170.121L307.054 172.001ZM356.14 175.06L355.794 173.09L356.14 175.06ZM342.086 170.986L343.432 169.507L342.086 170.986ZM435.803 161.09L435.457 159.12L355.794 173.09L356.14 175.06L356.485 177.03L436.148 163.06L435.803 161.09ZM342.086 170.986L343.432 169.507L340.317 166.675L338.972 168.155L337.627 169.635L340.741 172.466L342.086 170.986ZM338.972 168.155L338.67 166.178L310.848 170.429L311.15 172.406L311.452 174.383L339.274 170.132L338.972 168.155ZM307.054 172.001L307.738 170.121L305.162 169.185L304.479 171.064L303.795 172.944L306.371 173.88L307.054 172.001ZM304.479 171.064L304.128 169.095L273.791 174.498L274.141 176.467L274.492 178.436L304.829 173.033L304.479 171.064ZM311.15 172.406L310.848 170.429C309.802 170.589 308.732 170.483 307.738 170.121L307.054 172.001L306.371 173.88C307.995 174.471 309.743 174.644 311.452 174.383L311.15 172.406ZM356.14 175.06L355.794 173.09C351.341 173.871 346.777 172.548 343.432 169.507L342.086 170.986L340.741 172.466C345.002 176.339 350.814 178.024 356.485 177.03L356.14 175.06Z" fill="white"/>
</svg>
