<svg width="543" height="614" viewBox="0 0 543 614" fill="none" xmlns="http://www.w3.org/2000/svg">
<path d="M487 383L72 383" stroke="white" stroke-width="4.4039" stroke-linecap="round"/>
<path d="M229.916 261.936L192.273 284.576L150.965 223.105L157.63 196.966L224.399 266.9L229.916 261.936Z" fill="white"/>
<path d="M404.575 344.427L310.675 248.779C300.741 237.168 284.874 234.975 271.07 242.199L97.3005 330.826C98.5905 333.535 99.7516 336.115 100.913 338.566C105.299 348.37 108.653 355.724 116.393 361.916" stroke="white" stroke-width="4"/>
<path d="M97.2994 156.023C100.009 156.281 102.202 156.926 103.75 158.474L110.071 158.99C119.359 159.635 128.132 163.634 134.711 170.085L168.897 205.174L154.191 219.622C170.832 244.262 180.895 285.544 168.639 311.474C153.288 343.854 129.636 359.9 113.124 366.351C36.7529 305.718 50.9867 229.427 75.7556 169.44C79.3677 160.796 88.0111 155.378 97.2994 156.023Z" fill="#FF0077" stroke="black" stroke-width="4" stroke-miterlimit="10"/>
<path d="M99.8801 93.1983C102.589 80.4269 111.232 70.1065 131.873 74.7507C160.125 55.5289 190.828 61.2051 195.085 82.2329C201.277 113.194 166.833 128.288 143.483 132.803C133.034 134.867 123.229 132.803 115.489 128.675C111.619 133.577 105.685 136.673 98.9763 136.673C87.2369 136.673 77.6905 127.127 77.6905 115.387C77.6905 103.648 83.1095 96.4235 96.0099 93.8434L99.8801 93.1983Z" fill="#FF0077" stroke="black" stroke-width="4"/>
<path d="M103.182 115.03L85.8948 158.247L85.636 158.894L85.8352 159.561L87.7522 158.99L85.8362 159.564L85.8391 159.573C85.8406 159.578 85.842 159.584 85.844 159.591C85.8481 159.604 85.8541 159.621 85.8606 159.641C85.8736 159.682 85.8913 159.736 85.9143 159.803C85.9604 159.938 86.0269 160.124 86.1174 160.353C86.2984 160.812 86.5754 161.447 86.969 162.198C87.7548 163.696 89.019 165.673 90.9465 167.609C94.8536 171.534 101.343 175.148 111.609 174.532V174.531C117.977 174.159 121.782 170.558 123.92 167.169C124.981 165.488 125.648 163.843 126.051 162.623C126.254 162.01 126.391 161.496 126.481 161.128C126.525 160.943 126.558 160.795 126.58 160.688C126.589 160.647 126.596 160.611 126.602 160.583L133.298 133.278L133.906 130.802H131.82L106.129 114.096L104.086 112.768L103.182 115.03Z" fill="white" stroke="black" stroke-width="4"/>
<path d="M130.836 137.723L125.16 160.686C125.16 160.686 124.386 165.201 121.161 168.813L111.743 145.463L118.452 135.659L130.836 137.723Z" fill="black"/>
<path d="M162.318 105.712L118.199 93.4565L108.523 128.159C105.169 140.414 112.264 152.928 124.52 156.411C136.775 159.765 149.289 152.67 152.772 140.414L162.447 105.712H162.318Z" fill="white"/>
<path d="M112.006 115.774L117.425 96.1655C118.199 95.2625 118.973 94.3595 119.876 93.5854L162.447 105.325L158.19 120.805C135.614 131.771 115.231 124.031 112.006 115.516V115.774Z" fill="white"/>
<path d="M168.77 96.6818C167.738 88.2965 146.839 77.3311 129.295 78.7502C111.75 80.1692 104.397 93.3277 105.3 101.713C106.332 110.098 121.296 115.904 138.841 114.485C156.386 113.065 169.802 105.067 168.77 96.6818Z" fill="#FF0077"/>
<path d="M101.298 115.645C100.524 110.356 103.233 105.712 107.104 105.196C110.974 104.68 114.715 108.421 115.36 113.71C116.134 118.999 113.425 123.643 109.555 124.159C105.684 124.675 101.943 120.934 101.298 115.645Z" fill="white"/>
<path d="M103.528 140.927C104.044 140.927 104.56 140.927 105.076 140.927C111.656 140.153 116.558 134.089 115.655 127.381C115.268 124.156 113.591 121.318 111.14 119.254C108.56 117.19 105.463 116.287 102.109 116.674C95.5301 117.448 90.6279 123.511 91.5309 130.219C91.918 133.444 93.595 136.282 96.0461 138.347C98.2392 140.024 100.819 140.927 103.528 140.927Z" stroke="black" stroke-width="4" stroke-miterlimit="10"/>
<path d="M102.395 250.703L102.904 251.274L140.316 293.071L140.323 293.079L140.33 293.087C150.769 304.5 168.6 304.93 179.475 293.921L231.066 242.077C231.545 242.273 232.067 242.376 232.635 242.344C233.813 242.278 234.761 241.645 235.394 241.168C236.871 240.055 237.813 238.97 239.569 238.123L257.165 232.386C260.545 231.574 262.683 230.998 264.801 231.502L264.836 231.51L278.361 234.473C279.565 234.793 281.572 234.911 283.062 233.422L283.109 233.375L283.152 233.324C284.764 231.483 284.644 228.376 282.37 226.861L282.245 226.778L282.109 226.714L269.725 220.908L269.694 220.894L269.664 220.881C266.726 219.622 263.426 218.886 260.06 219.179L260.035 219.181L260.011 219.184L233.436 222.151L233.375 222.158C231.39 222.442 229.397 223.01 227.535 223.868L166.023 252.103L139.904 218.399L138.604 216.721L137.007 218.117L103.078 247.789L102.395 248.387V250.703Z" fill="white" stroke="black" stroke-width="4"/>
<path d="M247.721 246.843C246.689 248.391 244.625 248.907 243.077 248.004L228.757 239.619L235.207 235.362L246.689 242.328C248.237 243.36 248.753 245.295 247.721 246.843Z" fill="white"/>
<path d="M144.13 227.105L101.318 251.004L138.066 219.235L144.13 226.976V227.105Z" fill="black"/>
<path d="M124.478 199.777C115.31 189.322 99.3718 188.068 88.7933 197.128C78.2148 206.189 76.9454 221.94 86.1134 232.394L101.346 250.097" stroke="black" stroke-width="4" stroke-miterlimit="10" stroke-linecap="round"/>
<path d="M401.187 338.78L414.911 350.562L400.057 362.495L383.118 352.331" fill="white"/>
<path d="M395.173 380.545L395.947 371.849C396.334 367.721 399.493 363.06 399.493 363.06L414.66 350.458L464.707 371.333C467.674 372.494 469.609 375.203 469.609 378.428V380.545H395.173Z" fill="#FF0077"/>
<path d="M238.864 255.188L321.7 213.007C324.376 211.651 326.121 209.156 326.564 206.177L338.431 127.682" stroke="white" stroke-width="4" stroke-miterlimit="10" stroke-linecap="round"/>
<path d="M293.511 485.533L271.887 478.809L267.37 500.83L286.71 509.618L293.511 485.533Z" fill="white"/>
<path d="M193.53 360.786L252.253 377.369C252.218 377.493 273.696 383.558 273.696 383.558L273.297 386.394L258.611 479.701L290.642 488.746L329.388 377.166C335.589 359.48 325.996 340.283 308.453 334.525L291.812 329.826" fill="black"/>
<path d="M256.087 514.24C254.486 512.314 254.726 509.566 256.528 507.93L265.897 500.388L288.616 506.804L308.571 559.088C309.608 562.062 308.82 565.325 306.381 567.317L303.359 569.949L256.087 514.24Z" fill="#FF0077" stroke="black" stroke-width="4" stroke-miterlimit="10"/>
<path d="M329.389 377.166L327.5 376.51L327.502 376.504L329.389 377.166ZM308.454 334.524L309.073 332.623L309.078 332.624L308.454 334.524ZM245.207 316.028C244.156 315.686 243.582 314.558 243.924 313.507C244.266 312.457 245.395 311.883 246.445 312.225L245.207 316.028ZM289.39 492.361L287.501 491.705L327.5 376.51L329.389 377.166L331.278 377.822L291.279 493.017L289.39 492.361ZM329.389 377.166L327.502 376.504C333.331 359.876 324.31 341.834 307.83 336.425L308.454 334.524L309.078 332.624C327.684 338.731 337.848 359.083 331.276 377.827L329.389 377.166ZM308.454 334.524L307.835 336.426L245.207 316.028L245.826 314.127L246.445 312.225L309.073 332.623L308.454 334.524Z" fill="white"/>
<path d="M159.089 118.998L162.149 107.141C162.354 106.344 161.471 105.679 160.747 106.07C152.17 110.695 133.785 116.491 115.039 109.461C114.131 106.434 109.574 102.654 105.049 104.466C99.1095 106.845 99.6744 113.056 100.239 114.75" stroke="black" stroke-width="4"/>
<path d="M155.96 142.834C152.864 141.931 151.832 135.739 153.638 128.773C155.444 121.806 159.443 116.775 162.668 117.678C165.764 118.581 166.796 124.773 164.99 131.74C163.184 138.706 159.185 143.737 155.96 142.834Z" fill="white" stroke="black" stroke-width="4"/>
<path d="M138.87 138.349C133.71 136.93 131.13 129.834 133.065 122.223C135.129 114.741 140.805 109.71 146.094 111C151.383 112.29 153.834 119.514 151.899 127.125C149.835 134.608 144.159 139.639 138.87 138.349Z" fill="white" stroke="black" stroke-width="4"/>
<path d="M255.513 393.114V430.945" stroke="black" stroke-width="2"/>
<path d="M395 365.5L415 349" stroke="black" stroke-width="4"/>
</svg>
