<svg width="765" height="500" viewBox="0 0 765 500" fill="none" xmlns="http://www.w3.org/2000/svg">
<path d="M663 337H575" stroke="white" stroke-width="4.4039" stroke-linecap="round"/>
<path d="M572.288 336.55H583.526C607.048 336.55 628.431 322.902 638.333 301.566L665.228 253.98C670.151 245.273 672.057 235.1 670.142 225.282C668.516 216.922 664.116 208.477 653.495 205.357C629.347 198.276 598.323 218.715 598.323 218.715L572.288 336.55Z" fill="white"/>
<path d="M471.81 274.914H563.189L578.837 274.625C595.203 274.326 607.244 289.861 602.882 305.629L589.916 354.355H501.993L501.787 339.184L471.81 339.483V274.905V274.914Z" fill="black"/>
<path d="M169.058 306.255L341.41 281.79L329.08 337.512H168.731L169.058 306.255Z" fill="white" stroke="black" stroke-width="3.51643"/>
<path d="M341.41 337.512H424.924L386.913 264.199L344.428 269.281L341.41 337.512Z" fill="#FF0077" stroke="black" stroke-width="3.51643"/>
<path d="M301.456 287.591L351.808 218.827L376.61 277.016L409.856 212.167L377.815 170.074C364.353 152.39 337.328 153.763 325.726 172.717L271.974 269.767" fill="white"/>
<path d="M301.456 287.591L351.808 218.827L376.61 277.016L409.856 212.167L377.815 170.074C364.353 152.39 337.328 153.763 325.726 172.717L271.974 269.767" stroke="black" stroke-width="3.51643"/>
<path d="M169.59 337.512H90V276.783H92.0645C94.1944 276.783 96.1561 277.913 97.2211 279.763L111.785 309.03C113.335 312.141 116.708 313.906 120.155 313.402L169.917 306.097L169.59 337.522V337.512Z" fill="#FF0077" stroke="black" stroke-width="3.51643"/>
<path d="M353.013 217.193L345.371 196.501L342.681 232.308L353.013 217.193Z" fill="black"/>
<path d="M471.81 276.783C463.374 276.783 455.434 272.822 450.371 266.077L409.856 212.176L364.587 300.436C364.587 300.436 369.958 313.916 382.205 324.537C383.429 325.593 384.662 326.574 385.904 327.47C395.125 334.131 406.297 337.522 417.666 337.522H471.819V276.783H471.81Z" fill="#FF0077" stroke="black" stroke-width="3.51643"/>
<path d="M539.882 354.355L519.658 277.539L519.321 251.402C519.396 247.786 516.752 244.769 513.137 244.61H511.708V244.517L511.633 223.012C508.7 223.676 506.047 225.852 505.505 228.814L501.516 251.841C499.937 260.949 499.293 270.197 499.592 279.445L504.814 370.591C505.692 391.208 522.656 407.472 543.292 407.472C543.292 407.472 571.289 408.499 581.144 379.802L588.309 354.365H542.601L539.882 354.355Z" fill="white" stroke="black" stroke-width="3.51643"/>
<path d="M301.456 287.591L268.462 337.512H204.509V335.429C204.509 332.907 205.911 330.599 208.143 329.432L233.468 322.276C239.157 320.669 244.006 316.942 247.023 311.851L271.984 269.758L301.466 287.581L301.456 287.591Z" fill="#FF0077" stroke="black" stroke-width="3.51643"/>
<path d="M539.883 354.355L545.889 379.802" stroke="black" stroke-width="3.51643" stroke-linecap="round"/>
<path d="M366.324 256.754L362.719 300.435L376.609 277.016L366.324 256.754Z" fill="black"/>
<path d="M265.856 280.099L295.87 297.082" stroke="black" stroke-width="3.51643"/>
<path d="M261.409 287.591L290.097 304.789" stroke="black" stroke-width="3.51643"/>
<path d="M511.643 216.847V258.389" stroke="#FF0077" stroke-width="3.51643" stroke-linecap="round"/>
<path d="M518.705 175.538L518.097 131.941C517.957 124.253 510.633 118.078 501.637 118.078H433.715C424.681 118.078 417.33 124.309 417.255 132.034L416.909 176.398C416.825 184.329 424.42 190.746 433.687 190.597L493.295 189.99L502.254 198.621C503.749 200.06 506.243 199.07 506.346 196.996L506.719 189.289C513.725 187.598 518.817 182.059 518.695 175.538H518.705Z" fill="white" stroke="black" stroke-width="3.51643"/>
<path d="M443.664 163.077C447.977 163.077 451.473 159.58 451.473 155.267C451.473 150.954 447.977 147.458 443.664 147.458C439.351 147.458 435.854 150.954 435.854 155.267C435.854 159.58 439.351 163.077 443.664 163.077Z" fill="black"/>
<path d="M467.803 163.077C472.116 163.077 475.612 159.58 475.612 155.267C475.612 150.954 472.116 147.458 467.803 147.458C463.49 147.458 459.993 150.954 459.993 155.267C459.993 159.58 463.49 163.077 467.803 163.077Z" fill="black"/>
<path d="M491.941 163.077C496.254 163.077 499.751 159.58 499.751 155.267C499.751 150.954 496.254 147.458 491.941 147.458C487.628 147.458 484.132 150.954 484.132 155.267C484.132 159.58 487.628 163.077 491.941 163.077Z" fill="black"/>
<path d="M158.633 307.152V336.55" stroke="black" stroke-width="3.51643"/>
<path d="M149.356 309.656V336.55" stroke="black" stroke-width="3.51643"/>
<path d="M590.626 264.919C600.304 269.15 618.081 263.125 621.808 255.316C625.19 248.225 597.884 226.357 597.884 226.357L574.596 225.497L572.288 224.778L573.643 245.983L590.626 264.919Z" fill="#FF0077"/>
<path d="M566.758 268.03L558.266 284.247L588.645 290.347L598.332 257.184L566.758 268.03Z" fill="white" stroke="black" stroke-width="3.51643"/>
<path d="M640.762 218.472C637.782 216.006 632.644 216.987 628.525 217.146C629.749 215.492 630.879 213.521 631.421 211.4C632.906 205.599 626.059 200.219 626.619 190.97C627.32 179.05 623.256 171.792 613.102 173.389C602.649 175.024 600.21 183.712 599.641 187.719C599.566 188.224 598.893 188.355 598.65 187.906C597.66 186.122 595.633 183.441 591.831 181.769C585.329 178.91 579.724 180.685 576.23 185.104C571.606 190.942 575.315 197.836 578.603 201.424C578.603 201.424 573.372 198.294 565.282 204.291C560.677 206.935 560.761 219.761 568.075 223.003C569.206 223.498 575.549 224.451 577.081 225.74C585.479 232.793 596.156 247.749 596.156 247.749L601.761 249.57C606.423 251.42 605.199 250.57 609.459 250.486C609.234 255.185 608.721 260.042 609.561 264.246C638.137 255.698 633.429 244.189 632.159 242.844C631.43 242.078 630.608 241.163 630.795 240.126C631 238.986 632.271 238.444 633.336 237.977C638.259 235.791 641.93 231.008 642.761 225.693C643.163 223.105 642.789 220.125 640.762 218.463V218.472Z" fill="#FF0077"/>
<path d="M595.1 262.098L597.268 255.176L603.144 236.38L580.434 226.674L568.692 222.097L555.062 257.492C552.493 263.135 555.296 269.45 560.565 271.682C562.209 272.383 564.03 272.551 565.805 272.345L584.161 270.225" fill="white"/>
<path d="M595.1 262.098L597.268 255.176L603.144 236.38L580.434 226.674L568.692 222.097L555.062 257.492C552.493 263.135 555.296 269.45 560.565 271.682C562.209 272.383 564.03 272.551 565.805 272.345L584.161 270.225" stroke="black" stroke-width="3.51643" stroke-linecap="round"/>
<path d="M581.107 225.479C579.874 239.678 591.102 246.497 591.102 246.497L588.244 255.241L589.617 255.773C593.671 257.343 598.249 256.707 601.715 254.082C601.715 254.082 601.5 244.311 604.648 246.077C607.796 247.842 608.347 230.495 608.347 230.495L581.098 225.479H581.107Z" fill="#FF0077"/>
<path d="M593.597 254.83C595.932 250.337 601.051 250.664 603.321 252.812C605.591 254.97 605.759 260.323 601.827 262.63C597.94 264.91 593.167 264.564 592.438 263.032C591.317 260.697 591.523 258.819 593.597 254.821V254.83Z" fill="white"/>
<path d="M568.682 222.087C561.368 218.855 560.499 209.112 565.889 203.376C569.112 199.92 573.512 199.658 576.352 199.957C577.305 200.06 577.921 198.986 577.389 198.182C574.839 194.38 573.073 188.934 576.838 184.179C580.331 179.751 585.936 177.976 592.438 180.844C596.24 182.516 598.267 185.197 599.258 186.982C599.51 187.43 600.182 187.309 600.248 186.795C600.818 182.787 603.246 174.1 613.709 172.465C623.863 170.867 627.918 178.126 627.226 190.046C626.666 199.294 633.513 204.675 632.028 210.476C631.486 212.596 630.356 214.558 629.132 216.221C634.074 216.015 640.463 214.661 642.873 219.444C643.369 220.415 643.555 221.518 643.555 222.611C643.509 228.767 639.529 234.587 633.952 237.071C632.897 237.538 631.617 238.08 631.411 239.22C631.224 240.257 632.047 241.172 632.775 241.938C634.046 243.274 639.37 256.203 610.794 264.751C610.794 264.751 603.844 266.768 594.68 264.872C594.68 264.872 607.039 262.994 604.704 255.362C602.368 247.73 594.68 251.766 592.728 256.633L588.244 255.25L591.756 245.554C591.756 245.554 578.613 239.603 580.425 226.674L568.682 222.097V222.087Z" stroke="black" stroke-width="3.51643"/>
<path d="M559.229 284.443L585.283 271.869L561.592 272.046L559.229 284.443Z" fill="black"/>
<path d="M328.444 339.493H340.775L342.681 282.929L328.444 339.493Z" fill="black"/>
<path d="M642.546 260.659C638.969 268.767 622.07 278.1 617.707 276.185C613.354 274.26 615.185 266.955 617.492 258.389C622.256 240.687 649.142 227.833 653.495 229.748C657.848 231.672 646.115 252.541 642.537 260.659H642.546Z" fill="white"/>
<path d="M653.495 229.748C653.495 229.748 622.77 227.179 612.849 273.756L653.495 229.748Z" fill="white"/>
<path d="M653.495 229.748C653.495 229.748 622.77 227.179 612.849 273.756" stroke="black" stroke-width="3.51643" stroke-linecap="round"/>
<path fill-rule="evenodd" clip-rule="evenodd" d="M520.48 103.561C517.575 99.0775 512.409 96.4805 507.112 97.0877C504.711 97.3586 502.423 98.1807 500.442 99.5726C495.528 103.038 493.819 109.092 494.183 114.865C494.79 124.533 500.685 134.136 506.533 141.236C506.907 141.694 507.467 141.946 508.056 141.918C517.248 141.544 528.336 139.536 535.94 133.539C540.49 129.961 543.853 124.655 543.171 118.676C542.89 116.266 541.975 114.015 540.574 112.044C537.491 107.69 532.119 105.579 526.841 106.401L522.731 107.046L521.582 105.411L520.48 103.561Z" fill="#FF0077" stroke="black" stroke-width="3.51643" stroke-miterlimit="10"/>
<path fill-rule="evenodd" clip-rule="evenodd" d="M520.48 103.561C517.575 99.0772 512.409 96.4803 507.112 97.0875C504.711 97.3584 502.423 98.1804 500.442 99.5723C495.528 103.038 493.819 109.091 494.183 114.865C494.79 124.533 500.685 134.136 506.533 141.236C506.907 141.694 507.467 141.946 508.056 141.918C517.248 141.544 528.336 139.536 535.94 133.538C540.49 129.961 543.853 124.655 543.171 118.676C542.89 116.266 541.975 114.014 540.574 112.043C537.491 107.69 532.119 105.579 526.841 106.401L522.731 107.046L521.582 105.411L520.48 103.561Z" fill="#FF0077" stroke="black" stroke-width="3.51643" stroke-miterlimit="10"/>
<path d="M507 337L67 337" stroke="white" stroke-width="4.4039" stroke-linecap="round"/>
</svg>
