<svg width="500" height="500" viewBox="0 0 500 500" fill="none" xmlns="http://www.w3.org/2000/svg">
<path d="M172.713 213.955C177.433 173.885 232.667 171.876 232.667 171.876C232.667 171.876 226.943 155.206 227.144 145.062C227.345 132.208 231.462 114.332 262.293 99.4688C291.517 85.409 327.872 94.6483 348.158 129.697C368.444 164.746 341.831 156.109 367.741 198.791C393.651 241.472 366.637 291.183 353.38 296.606C340.124 301.929 261.59 292.991 213.787 265.173C166.084 237.355 172.713 213.955 172.713 213.955Z" fill="#FF0077"/>
<path d="M339.521 409.989L362.016 272.505L309.795 251.416L237.286 225.405L219.913 219.48L211.176 216.467L149.212 409.889H339.722L339.521 409.989Z" fill="black"/>
<path d="M318.428 202.607L245.82 222.994L239.694 254.428C236.38 271.601 246.523 288.573 263.294 293.695C282.676 299.62 302.963 287.568 306.98 267.584L311.499 244.887L318.529 202.507L318.428 202.607Z" fill="white"/>
<path d="M286.294 239.563L241.002 272.503L239.016 242.691L286.294 239.563Z" fill="black"/>
<path d="M299.348 129.197C275.246 117.447 246.223 127.288 234.473 151.391L226.338 178.406C226.137 182.423 225.836 186.44 225.535 190.457C223.727 212.651 221.417 235.247 243.411 243.181C254.659 247.098 296.536 245.089 308.286 220.987L321.543 193.972C333.293 169.869 323.451 140.846 299.348 129.096V129.197Z" fill="white"/>
<path d="M343.541 116.442C342.336 89.829 360.613 82.297 377.083 98.4657C393.553 114.534 389.838 137.933 380.498 145.867C371.158 153.801 345.248 150.286 343.641 116.442H343.541Z" fill="#FF0077"/>
<path d="M415.54 409.99C415.54 409.99 414.436 326.134 395.455 300.525C385.714 287.47 374.064 277.226 361.913 272.506L340.923 277.929L339.417 409.99H415.44H415.54Z" fill="black"/>
<path d="M159.155 219.28C131.337 230.929 127.822 305.044 117.277 328.142C89.2584 396.232 86.8482 409.89 86.8482 409.89H163.031L211.478 217.07C211.478 217.07 190.489 205.722 172.713 213.957L159.256 219.179L159.155 219.28Z" fill="black"/>
<path d="M316.92 192.564C316.92 192.564 302.66 178.906 308.083 145.263C316.016 95.5521 343.533 175.793 343.533 175.793L337.608 201.101L316.92 192.564Z" fill="#FF0077"/>
<path d="M331.688 194.775C327.872 188.85 319.938 187.042 314.013 190.858C308.088 194.674 306.28 202.608 310.096 208.533C310.096 208.533 315.62 212.751 325.663 210.14C332.492 208.332 335.504 200.8 331.688 194.775Z" fill="white"/>
<path d="M235.38 147.573L236.987 144.259C248.737 120.157 277.861 110.315 301.863 122.065C307.989 125.078 315.721 132.61 319.839 137.531C300.256 154.503 258.378 151.59 235.38 147.473V147.573Z" fill="#FF0077"/>
<path d="M266.007 213.553C255.864 211.445 249.939 198.59 252.751 184.731C255.563 170.872 266.108 161.231 276.251 163.34C286.394 165.449 292.319 178.304 289.507 192.163C286.695 206.021 276.15 215.662 266.007 213.553Z" fill="white" stroke="black" stroke-width="4.4039"/>
<path d="M315.315 201.411C319.544 201.411 322.94 204.808 322.94 209.036C322.94 213.265 319.544 216.661 315.315 216.661C311.086 216.661 307.69 213.265 307.69 209.036C307.69 204.808 311.086 201.411 315.315 201.411Z" fill="black" stroke="black" stroke-width="4.4039"/>
<path d="M414.941 409.991C414.339 393.521 412.23 354.857 408.715 338.989C404.296 319.205 397.367 293.195 372.159 277.829C351.974 265.577 323.955 256.439 311.903 252.723C311.903 252.723 309.091 267.887 306.581 274.114C305.074 277.829 299.049 296.509 271.231 294.601C247.932 292.994 240.701 275.419 240.199 264.473C240.199 253.526 240.4 244.187 240.4 244.187C240.4 243.986 235.88 241.575 235.378 241.174C233.771 239.969 232.165 238.563 230.859 236.956C228.148 233.742 226.139 230.026 224.733 226.11C224.432 225.206 224.331 223.8 223.729 223.097C223.126 222.394 222.022 221.892 220.816 221.49C218.205 220.486 215.494 219.381 212.883 218.477C207.56 216.569 202.137 214.862 196.614 213.757C184.763 211.447 172.411 212.452 161.866 218.477C152.828 223.599 145.798 231.734 140.776 240.772C138.768 244.488 136.96 248.505 135.655 252.522C132.441 261.862 130.332 271.503 128.323 281.144C124.005 301.329 120.691 322.419 112.054 341.299C91.9689 385.386 86.2147 409.618 86.2147 409.618" stroke="black" stroke-width="4.4039"/>
<path d="M198.28 212.598L199.007 210.519L198.969 210.506L198.931 210.494L198.28 212.598ZM159.746 217.736L158.661 215.82L158.661 215.82L159.746 217.736ZM140.241 240.772L138.265 239.8L138.247 239.837L138.231 239.874L140.241 240.772ZM127.789 281.144L129.942 281.604L129.943 281.597L129.945 281.59L127.789 281.144ZM111.519 341.299L109.517 340.383L109.516 340.386L111.519 341.299ZM84.2003 407.351L83.7138 409.499L88.0089 410.472L88.4954 408.324L84.2003 407.351ZM198.28 212.598L198.931 210.494C182.719 205.476 167.988 210.535 158.661 215.82L159.746 217.736L160.832 219.652C169.581 214.694 183.014 210.178 197.629 214.701L198.28 212.598ZM159.746 217.736L158.661 215.82C149.067 221.256 143.544 229.067 138.265 239.8L140.241 240.772L142.217 241.744C147.323 231.36 152.348 224.459 160.832 219.652L159.746 217.736ZM127.789 281.144L125.635 280.683C121.279 301.044 118.024 321.787 109.517 340.383L111.519 341.299L113.522 342.215C122.289 323.051 125.661 301.615 129.942 281.604L127.789 281.144ZM111.519 341.299L109.516 340.386C99.4435 362.495 93.1234 379.197 89.3169 390.392C87.4136 395.99 86.1388 400.21 85.3377 403.041C84.9371 404.456 84.6549 405.524 84.4718 406.243C84.3803 406.603 84.3135 406.875 84.269 407.06C84.2468 407.152 84.2302 407.222 84.2188 407.271C84.2131 407.295 84.2088 407.314 84.2057 407.327C84.2042 407.334 84.203 407.339 84.2021 407.343C84.2016 407.345 84.2012 407.347 84.201 407.348C84.2008 407.349 84.2007 407.35 84.2006 407.35C84.2004 407.351 84.2003 407.351 86.3478 407.838C88.4954 408.324 88.4953 408.324 88.4952 408.325C88.4952 408.325 88.4952 408.325 88.4952 408.325C88.4952 408.325 88.4953 408.324 88.4955 408.324C88.4958 408.322 88.4965 408.319 88.4975 408.315C88.4995 408.306 88.5027 408.292 88.5073 408.273C88.5164 408.234 88.5308 408.173 88.5507 408.09C88.5906 407.924 88.6527 407.671 88.7394 407.33C88.9129 406.649 89.185 405.619 89.5751 404.24C90.3553 401.484 91.6074 397.336 93.4863 391.81C97.2443 380.758 103.51 364.191 113.523 342.212L111.519 341.299ZM140.241 240.772L138.231 239.874C131.213 255.594 127.358 272.369 125.632 280.697L127.789 281.144L129.945 281.59C131.653 273.346 135.432 256.946 142.252 241.67L140.241 240.772ZM198.28 212.598L197.554 214.677L228.014 225.319L228.741 223.241L229.467 221.162L199.007 210.519L198.28 212.598Z" fill="white"/>
<path d="M358.701 187.946C358.701 187.946 374.267 216.768 384.711 233.339C394.754 249.507 397.867 270.296 384.711 287.268" stroke="#FF0077" stroke-width="4.4039" stroke-miterlimit="10"/>
<path d="M383.104 112.323C390.737 127.788 396.863 176.797 353.679 153.899" stroke="#FF0077" stroke-width="4.4039" stroke-miterlimit="10"/>
<mask id="mask0_6341_321" style="mask-type:alpha" maskUnits="userSpaceOnUse" x="268" y="366" width="137" height="45">
<rect width="136.56" height="43.7418" transform="matrix(-1 0 0 1 404.867 366.32)" fill="#D9D9D9"/>
</mask>
<g mask="url(#mask0_6341_321)">
<path d="M380.329 410.925L360.592 393.429C357.071 390.335 352.057 390.015 348.11 392.575L343.415 395.669L340.961 393.962C337.334 391.402 331.893 390.868 328.372 393.535C326.132 395.242 324.105 397.056 324.105 397.056C324.105 397.056 323.038 396.416 321.651 395.562C317.704 393.002 311.942 392.895 307.888 396.629L292.525 410.819H380.222L380.329 410.925Z" fill="white"/>
<path d="M305.544 400.574C286.66 389.905 282.926 388.518 280.152 390.545C277.378 392.572 279.832 396.626 284.42 401.854C289.007 407.082 293.914 410.596 293.914 410.596L305.65 400.574H305.544Z" fill="white"/>
<path d="M325.809 393.322L309.486 408.685" stroke="black" stroke-width="4.4039" stroke-linecap="round"/>
<path d="M344.692 392.575L328.369 407.938" stroke="black" stroke-width="4.4039" stroke-linecap="round"/>
<path d="M293.379 411.094C293.379 411.094 287.724 406.72 283.243 401.492C278.763 396.264 276.734 391.783 279.508 389.756C282.282 387.836 286.441 388.628 303.617 398.443L307.885 394.495C311.939 390.761 317.7 390.868 321.647 393.429C322.928 394.282 324.101 394.922 324.101 394.922C324.101 394.922 326.022 393.109 328.369 391.402C331.996 388.734 337.437 389.161 340.958 391.828L343.412 393.535L348.106 390.441C351.947 387.881 357.068 388.201 360.588 391.295L380.325 408.792" stroke="black" stroke-width="4.4039"/>
</g>
<path d="M446 408.572H55.154" stroke="white" stroke-width="4.4039" stroke-linecap="round"/>
<path d="M309.479 262.876L317.186 212.231C322.324 213.087 331.866 207.533 331.866 200.487C331.866 191.679 325.627 186.542 314.984 189.844C310.091 180.914 301.772 159.238 307.644 143.971C299.326 148.13 273.367 154.834 236.081 148.375C229.108 168.559 217.805 215.461 229.842 235.719" stroke="black" stroke-width="4.4039"/>
<path d="M227.947 202.51C220.917 201.104 217.402 189.655 220.013 176.901C222.624 164.147 230.357 155.008 237.387 156.414C244.417 157.82 247.932 169.269 245.321 182.023C242.71 194.777 234.977 203.916 227.947 202.51Z" fill="white" stroke="black" stroke-width="4.4039"/>
<path d="M170.6 167.6C169.3 167.6 168.1 167.1 167.2 166.2L157 156.4L85.8 157.1C79.4 157.1 73.4 154.7 69.3 150.5C65.9 147 64 142.6 64 138L64.4 84.7C64.5 74.4 74.3 66 86.2 66H167.8C179.6 66 189.4 74.3 189.6 84.6L190.3 137C190.4 145.1 184.6 152.4 175.8 155.1L175.4 162.9C175.3 165.5 173.1 167.6 170.5 167.6H170.6Z" fill="white"/>
<path d="M98.2001 122.1C103.392 122.1 107.6 117.892 107.6 112.7C107.6 107.509 103.392 103.3 98.2001 103.3C93.0086 103.3 88.8 107.509 88.8 112.7C88.8 117.892 93.0086 122.1 98.2001 122.1Z" fill="black"/>
<path d="M127.2 122.1C132.392 122.1 136.6 117.892 136.6 112.7C136.6 107.509 132.392 103.3 127.2 103.3C122.009 103.3 117.8 107.509 117.8 112.7C117.8 117.892 122.009 122.1 127.2 122.1Z" fill="black"/>
<path d="M156.2 122.1C161.392 122.1 165.6 117.892 165.6 112.7C165.6 107.509 161.392 103.3 156.2 103.3C151.009 103.3 146.8 107.509 146.8 112.7C146.8 117.892 151.009 122.1 156.2 122.1Z" fill="black"/>
</svg>
