<svg width="650" height="450" viewBox="0 0 650 450" fill="none" xmlns="http://www.w3.org/2000/svg">
<path d="M520.004 63H264.996C262.237 63 260 65.4293 260 68.4261V220.574C260 223.571 262.237 226 264.996 226H520.004C522.763 226 525 223.571 525 220.574V68.4261C525 65.4293 522.763 63 520.004 63Z" fill="white" stroke="black" stroke-width="4"/>
<path d="M515 61C520.523 61 525 65.4772 525 71V87H260V71C260 65.4772 264.477 61 270 61H515Z" fill="#FF0077" stroke="black" stroke-width="4"/>
<mask id="path-3-inside-1_6341_319" fill="white">
<path d="M307.3 121.4C293.3 115.3 274.9 117 262.5 126C250.5 134.8 244.8 149.6 238.3 162.4C235.4 168.1 232 173.8 226.6 177.3C221.6 180.6 215.4 181.4 209.4 181.6C197.2 182.1 185 180.5 172.8 180.9C160.6 181.3 147.9 184 138.6 191.9C128.7 200.2 123.7 214.1 126.1 226.8C128.5 239.5 138.2 250.6 150.5 254.7C155.8 256.5 162.4 257.7 164.4 263C166.5 268.4 162.3 273.8 159.5 278.9C152.9 290.8 154.2 306.5 162.3 317.5C170.3 328.5 184.5 334.6 198.1 333.4C211.7 332.2 224.4 324.3 231.9 312.9C236.6 305.8 239.5 297.4 245.6 291.5C255.9 281.6 271.8 281.8 285.7 278.8C302.3 275.2 317.7 266.3 329.1 253.7C330.4 252.3 331.7 250.7 332 248.7C332.3 246.9 331.7 245 331.2 243.2C329.6 236.8 330 229.9 332.5 223.7C334.2 219.6 336.7 215.8 337.5 211.5C338.9 204 334.8 196.7 332.3 189.4C328.4 178.1 328.6 165.8 326.7 154C324.7 141.2 319.5 127.4 307.2 121.3"/>
</mask>
<path d="M307.3 121.4C293.3 115.3 274.9 117 262.5 126C250.5 134.8 244.8 149.6 238.3 162.4C235.4 168.1 232 173.8 226.6 177.3C221.6 180.6 215.4 181.4 209.4 181.6C197.2 182.1 185 180.5 172.8 180.9C160.6 181.3 147.9 184 138.6 191.9C128.7 200.2 123.7 214.1 126.1 226.8C128.5 239.5 138.2 250.6 150.5 254.7C155.8 256.5 162.4 257.7 164.4 263C166.5 268.4 162.3 273.8 159.5 278.9C152.9 290.8 154.2 306.5 162.3 317.5C170.3 328.5 184.5 334.6 198.1 333.4C211.7 332.2 224.4 324.3 231.9 312.9C236.6 305.8 239.5 297.4 245.6 291.5C255.9 281.6 271.8 281.8 285.7 278.8C302.3 275.2 317.7 266.3 329.1 253.7C330.4 252.3 331.7 250.7 332 248.7C332.3 246.9 331.7 245 331.2 243.2C329.6 236.8 330 229.9 332.5 223.7C334.2 219.6 336.7 215.8 337.5 211.5C338.9 204 334.8 196.7 332.3 189.4C328.4 178.1 328.6 165.8 326.7 154C324.7 141.2 319.5 127.4 307.2 121.3" fill="white"/>
<path d="M262.5 126L260.15 122.763L260.142 122.768L260.135 122.774L262.5 126ZM238.3 162.4L241.865 164.214L241.867 164.211L238.3 162.4ZM226.6 177.3L224.424 173.943L224.41 173.952L224.397 173.961L226.6 177.3ZM209.4 181.6L209.267 177.602L209.251 177.603L209.236 177.603L209.4 181.6ZM138.6 191.9L141.17 194.965L141.18 194.957L141.19 194.948L138.6 191.9ZM150.5 254.7L151.786 250.912L151.776 250.909L151.765 250.905L150.5 254.7ZM164.4 263L160.658 264.412L160.665 264.431L160.672 264.45L164.4 263ZM159.5 278.9L162.998 280.84L163.002 280.832L163.006 280.825L159.5 278.9ZM162.3 317.5L165.535 315.147L165.528 315.138L165.521 315.128L162.3 317.5ZM231.9 312.9L228.565 310.692L228.558 310.701L231.9 312.9ZM245.6 291.5L242.828 288.616L242.819 288.625L245.6 291.5ZM285.7 278.8L286.544 282.71L286.548 282.709L285.7 278.8ZM329.1 253.7L326.169 250.978L326.151 250.997L326.134 251.016L329.1 253.7ZM332 248.7L328.054 248.042L328.049 248.074L328.044 248.106L332 248.7ZM331.2 243.2L327.319 244.17L327.332 244.22L327.346 244.27L331.2 243.2ZM332.5 223.7L328.805 222.168L328.798 222.186L328.79 222.204L332.5 223.7ZM337.5 211.5L333.568 210.766L333.567 210.768L337.5 211.5ZM332.3 189.4L336.084 188.104L336.081 188.095L332.3 189.4ZM326.7 154L322.748 154.617L322.749 154.627L322.751 154.636L326.7 154ZM307.3 121.4L308.898 117.733C293.65 111.089 273.742 112.898 260.15 122.763L262.5 126L264.85 129.237C276.058 121.102 292.95 119.51 305.702 125.067L307.3 121.4ZM262.5 126L260.135 122.774C253.516 127.627 248.76 134.044 244.883 140.683C241.074 147.205 237.845 154.461 234.734 160.589L238.3 162.4L241.867 164.211C245.255 157.538 248.126 150.994 251.792 144.717C255.39 138.556 259.484 133.172 264.865 129.225L262.5 126ZM238.3 162.4L234.735 160.586C231.855 166.246 228.855 171.071 224.424 173.943L226.6 177.3L228.776 180.656C235.145 176.528 238.945 169.954 241.865 164.214L238.3 162.4ZM226.6 177.3L224.397 173.961C220.374 176.617 215.134 177.407 209.267 177.602L209.4 181.6L209.533 185.598C215.666 185.393 222.826 184.583 228.803 180.638L226.6 177.3ZM209.4 181.6L209.236 177.603C203.339 177.845 197.41 177.58 191.288 177.292C185.223 177.006 178.958 176.696 172.669 176.902L172.8 180.9L172.931 184.898C178.842 184.704 184.777 184.994 190.912 185.283C196.99 185.569 203.261 185.855 209.564 185.597L209.4 181.6ZM172.8 180.9L172.669 176.902C160.098 177.314 146.318 180.096 136.01 188.851L138.6 191.9L141.19 194.948C149.482 187.904 161.102 185.286 172.931 184.898L172.8 180.9ZM138.6 191.9L136.03 188.835C125.027 198.06 119.5 213.414 122.17 227.543L126.1 226.8L130.03 226.057C127.9 214.786 132.373 202.34 141.17 194.965L138.6 191.9ZM126.1 226.8L122.17 227.543C124.84 241.671 135.562 253.937 149.235 258.495L150.5 254.7L151.765 250.905C140.838 247.263 132.16 237.328 130.03 226.057L126.1 226.8ZM150.5 254.7L149.214 258.487C152.312 259.54 154.689 260.093 157.006 261.167C159.129 262.15 160.188 263.167 160.658 264.412L164.4 263L168.142 261.588C166.612 257.533 163.371 255.299 160.369 253.908C157.561 252.607 153.988 251.66 151.786 250.912L150.5 254.7ZM164.4 263L160.672 264.45C161.178 265.75 161.058 267.269 160.109 269.491C159.065 271.935 157.641 273.974 155.994 276.975L159.5 278.9L163.006 280.825C164.159 278.725 166.235 275.515 167.466 272.634C168.792 269.531 169.722 265.649 168.128 261.55L164.4 263ZM159.5 278.9L156.002 276.96C148.609 290.289 150.094 307.67 159.079 319.872L162.3 317.5L165.521 315.128C158.306 305.33 157.191 291.311 162.998 280.84L159.5 278.9ZM162.3 317.5L159.065 319.853C167.936 332.05 183.53 338.701 198.452 337.384L198.1 333.4L197.748 329.415C185.47 330.499 172.664 324.95 165.535 315.147L162.3 317.5ZM198.1 333.4L198.452 337.384C213.326 336.072 227.102 327.47 235.242 315.098L231.9 312.9L228.558 310.701C221.698 321.13 210.074 328.328 197.748 329.415L198.1 333.4ZM231.9 312.9L235.235 315.108C237.696 311.391 239.784 307.171 241.719 303.696C243.746 300.058 245.766 296.904 248.381 294.375L245.6 291.5L242.819 288.625C239.334 291.996 236.854 295.992 234.731 299.803C232.516 303.779 230.804 307.309 228.565 310.692L231.9 312.9ZM245.6 291.5L248.372 294.384C252.75 290.176 258.463 287.964 265.171 286.466C268.523 285.718 272.008 285.171 275.63 284.611C279.207 284.057 282.931 283.49 286.544 282.71L285.7 278.8L284.856 274.89C281.519 275.61 278.043 276.142 274.407 276.705C270.817 277.26 267.077 277.844 263.429 278.658C256.137 280.286 248.75 282.924 242.828 288.616L245.6 291.5ZM285.7 278.8L286.548 282.709C303.963 278.932 320.105 269.604 332.066 256.384L329.1 253.7L326.134 251.016C315.295 262.996 300.637 271.468 284.852 274.891L285.7 278.8ZM329.1 253.7L332.031 256.422C333.346 255.006 335.457 252.616 335.956 249.293L332 248.7L328.044 248.106C327.943 248.784 327.454 249.594 326.169 250.978L329.1 253.7ZM332 248.7L335.946 249.357C336.425 246.48 335.456 243.575 335.054 242.129L331.2 243.2L327.346 244.27C327.944 246.425 328.175 247.32 328.054 248.042L332 248.7ZM331.2 243.2L335.081 242.23C333.679 236.623 334.036 230.587 336.21 225.196L332.5 223.7L328.79 222.204C325.964 229.212 325.521 236.977 327.319 244.17L331.2 243.2ZM332.5 223.7L336.195 225.232C337.008 223.272 337.897 221.638 338.959 219.373C339.941 217.279 340.938 214.887 341.433 212.231L337.5 211.5L333.567 210.768C333.262 212.412 332.609 214.071 331.716 215.977C330.903 217.712 329.692 220.028 328.805 222.168L332.5 223.7ZM337.5 211.5L341.432 212.234C342.307 207.549 341.424 203.114 340.176 199.168C339.551 197.191 338.804 195.25 338.09 193.423C337.361 191.558 336.675 189.829 336.084 188.104L332.3 189.4L328.516 190.696C329.175 192.621 329.939 194.542 330.638 196.333C331.353 198.163 332.012 199.883 332.549 201.581C333.626 204.986 334.093 207.951 333.568 210.766L337.5 211.5ZM332.3 189.4L336.081 188.095C334.277 182.867 333.39 177.316 332.725 171.437C332.076 165.711 331.617 159.377 330.649 153.364L326.7 154L322.751 154.636C323.683 160.423 324.074 166.138 324.775 172.337C325.46 178.384 326.423 184.633 328.519 190.705L332.3 189.4ZM326.7 154L330.652 153.382C328.604 140.273 323.107 124.724 308.977 117.716L307.2 121.3L305.423 124.883C315.893 130.076 320.796 142.127 322.748 154.617L326.7 154Z" fill="black" mask="url(#path-3-inside-1_6341_319)"/>
<path d="M261.2 177.1L271.2 233.4L306.4 222.5L300.7 200.9L271.3 191.9L261.2 177.1Z" fill="black"/>
<path d="M388.1 240.4H365.8V216.6V213.6H388.1V240.4Z" fill="black"/>
<path d="M292.31 125.581L276.149 128.372C263.632 130.534 255.238 142.434 257.4 154.951L263.51 190.327C265.672 202.845 277.572 211.239 290.09 209.077L306.25 206.286C318.767 204.123 327.162 192.224 325 179.706L318.889 144.33C316.727 131.813 304.827 123.419 292.31 125.581Z" fill="black"/>
<path d="M330.1 161.5C330.3 161.5 409.7 204.8 409.7 204.8" stroke="black" stroke-width="4" stroke-miterlimit="10"/>
<path d="M379.9 182.4L370.9 195.8C367.6 200.7 365.9 206.4 365.9 212.3V213.9L380.3 221.6C385.7 224 392.1 221.7 394.7 216.4L397.8 210.2C401.5 204.5 398.5 198.3 393.9 193.8L387.1 187.1" fill="black"/>
<path d="M387.8 229.9V222.1C387.8 222.1 398.6 218.3 400.4 205.3" stroke="black" stroke-width="4"/>
<path d="M404.2 211.2C402.7 211.2 401.1 210.8 399.7 210.1L366.9 192.8C364.6 191.6 363 189.6 362.2 187.2C361.4 184.8 361.7 182.2 362.9 179.9C364.6 176.8 367.8 174.8 371.3 174.8C374.8 174.8 374.4 175.2 375.7 175.9L408.5 193.2C410.8 194.4 412.4 196.4 413.2 198.8C414 201.2 413.7 203.8 412.5 206.1C410.9 209.1 407.8 211.1 404.3 211.2H404H404.2Z" fill="#FF0077"/>
<path d="M371.5 176.8C372.7 176.8 373.9 177.1 375 177.7L407.8 195C411.5 196.9 412.9 201.5 410.9 205.2C409.6 207.7 407.1 209.1 404.4 209.2C404.4 209.2 404.3 209.2 404.2 209.2C403 209.2 401.8 208.9 400.7 208.3L367.9 191C364.2 189.1 362.8 184.5 364.8 180.8C366.2 178.2 368.8 176.8 371.5 176.8ZM371.5 172.8C367.2 172.8 363.3 175.2 361.3 178.9C359.9 181.6 359.6 184.7 360.5 187.7C361.4 190.6 363.4 193.1 366.1 194.5L398.9 211.8C400.6 212.7 402.4 213.1 404.3 213.1C406.2 213.1 404.5 213.1 404.6 213.1C408.8 213 412.5 210.6 414.5 207C415.9 204.3 416.2 201.2 415.3 198.2C414.4 195.3 412.4 192.8 409.7 191.4L376.9 174.1C375.2 173.2 373.4 172.8 371.5 172.8Z" fill="black"/>
<path d="M377.9 204.6L369.5 197.7L383.1 176C384.4 174 387.6 173.9 389.6 175.2C391.6 176.5 392.4 178.3 391.7 180C392.5 180 393.4 180.4 394.1 180.9L407.3 188.5C409.8 189.7 410 193.3 408.7 195.1L405.1 200.5C404.2 201.8 402.4 202.1 400.9 201.2L385 192.3C384.8 192.2 384.7 192.1 384.5 192L377.9 204.6Z" fill="black"/>
<path d="M265.7 169.9C262.1 169.9 259.3 168.8 257.3 166.5C250.6 159 255.7 141.6 255.9 140.8C256.1 140.4 275.6 112.9 307 125.5C319.5 133 318.7 140.7 321.1 147.1C323.7 154 327 157.7 326.9 158V158.5C326.8 158.5 326.2 158.5 326.2 158.5C325.3 158.5 308.5 158.2 294.5 135.2C294.3 142.9 291.7 165.5 269.5 169.6C268.1 169.9 266.8 170 265.6 170L265.7 169.9Z" fill="white"/>
<path d="M263.6 181.1C260.6 182.2 257.6 178.9 255.2 174.6C252.5 169.7 254.6 165.3 257.5 164.2C260.5 163.1 265.1 165.8 265.9 170.7C266.7 175.2 266.5 180 263.6 181.1Z" fill="black"/>
<path d="M330.7 136.4C316.9 136.4 305.6 147.7 305.6 161.5C305.6 175.3 316.9 186.6 330.7 186.6C344.5 186.6 355.8 175.3 355.8 161.5C355.8 147.7 344.5 136.4 330.7 136.4Z" fill="#FF0077"/>
<path d="M330.7 186.6C344.562 186.6 355.8 175.362 355.8 161.5C355.8 147.638 344.562 136.4 330.7 136.4C316.838 136.4 305.6 147.638 305.6 161.5C305.6 175.362 316.838 186.6 330.7 186.6Z" fill="black"/>
<path d="M321.244 215.553C336.995 211.865 353.202 219.333 360.8 233.368V226.1H398.1V300.9C398.1 311.543 390.746 320.639 380.456 323.047L380.442 323.05C373.013 324.735 365.479 322.567 360.116 317.707L377.963 408.213L378.438 410.625L375.979 410.6L250.079 409.3H217.769L217.701 407.37L213.101 276.37L213.102 276.369C212.37 259.341 223.878 244.12 240.561 240.172L321.116 215.587L321.179 215.568L321.244 215.553ZM252.912 381.221C256.708 371.176 262.139 363.664 267.414 358.221C271.643 353.857 275.76 350.832 278.833 348.892C279.847 348.252 280.748 347.731 281.504 347.317L273.644 338.971L273.639 338.966C267.757 332.677 262.463 325.861 258.077 318.415V318.414L255.172 313.559L252.912 381.221Z" fill="#FF0077" stroke="black" stroke-width="4"/>
<path d="M274.3 79.6C276.675 79.6 278.6 77.6748 278.6 75.3C278.6 72.9252 276.675 71 274.3 71C271.925 71 270 72.9252 270 75.3C270 77.6748 271.925 79.6 274.3 79.6Z" fill="black"/>
<path d="M286.9 79.6C289.275 79.6 291.2 77.6748 291.2 75.3C291.2 72.9252 289.275 71 286.9 71C284.525 71 282.6 72.9252 282.6 75.3C282.6 77.6748 284.525 79.6 286.9 79.6Z" fill="white"/>
<path d="M556.9 193H463.2C460.439 193 458.2 195.239 458.2 198V316.6C458.2 319.361 460.439 321.6 463.2 321.6H556.9C559.661 321.6 561.9 319.361 561.9 316.6V198C561.9 195.239 559.661 193 556.9 193Z" fill="white" stroke="black" stroke-width="4"/>
<path d="M510 242.5L538.3 251.7C533.2 267.4 516.4 275.9 500.7 270.8C485 265.7 476.5 248.9 481.6 233.2C485.7 220.7 496.8 212.6 509.9 212.6V242.4L510 242.5Z" fill="black" stroke="black" stroke-width="4"/>
<path d="M510 242.5L538.3 233.3C540.3 239.6 540.3 245.5 538.3 251.7L510 242.5Z" fill="white" stroke="black" stroke-width="4"/>
<path d="M510 242.5V212.7C523.2 212.7 534.3 220.8 538.3 233.3L510 242.5Z" fill="#FF0077" stroke="black" stroke-width="4"/>
<path d="M510 254.9C516.848 254.9 522.4 249.348 522.4 242.5C522.4 235.652 516.848 230.1 510 230.1C503.152 230.1 497.6 235.652 497.6 242.5C497.6 249.348 503.152 254.9 510 254.9Z" fill="white" stroke="black" stroke-width="4"/>
<path d="M515.5 266.7L524.9 295H546.9" stroke="black" stroke-width="4" stroke-linecap="round"/>
<path d="M524.9 302.6H546.9" stroke="black" stroke-width="4" stroke-linecap="round"/>
<path d="M500.2 117.2C494.8 117.7 489.9 121.1 486.6 125.4C483.3 129.7 481.3 134.9 479.6 140.1C477.2 147.8 475.7 156.9 470.4 163.3C464.4 170.6 454.6 170.8 447.5 165C436.9 156.4 435.6 139 422.8 132.8C416.3 129.7 409 131.1 403.7 135.8C399 140 396 145.6 391.4 150C389.7 151.6 373.9 164.5 348.4 153.1" stroke="black" stroke-width="4" stroke-miterlimit="10"/>
<path d="M443.5 168.5C446.869 168.5 449.6 165.769 449.6 162.4C449.6 159.031 446.869 156.3 443.5 156.3C440.131 156.3 437.4 159.031 437.4 162.4C437.4 165.769 440.131 168.5 443.5 168.5Z" fill="#FF0077"/>
<path d="M443.5 158.2C445.8 158.2 447.6 160.1 447.6 162.3C447.6 164.5 445.7 166.4 443.5 166.4C441.3 166.4 439.4 164.5 439.4 162.3C439.4 160.1 441.3 158.2 443.5 158.2ZM443.5 154.2C439 154.2 435.4 157.9 435.4 162.3C435.4 166.7 439.1 170.4 443.5 170.4C447.9 170.4 451.6 166.7 451.6 162.3C451.6 157.9 447.9 154.2 443.5 154.2Z" fill="black"/>
<path d="M500.5 124.7C503.869 124.7 506.6 121.969 506.6 118.6C506.6 115.231 503.869 112.5 500.5 112.5C497.131 112.5 494.4 115.231 494.4 118.6C494.4 121.969 497.131 124.7 500.5 124.7Z" fill="#FF0077"/>
<path d="M500.5 114.4C502.8 114.4 504.6 116.3 504.6 118.5C504.6 120.7 502.7 122.6 500.5 122.6C498.3 122.6 496.4 120.7 496.4 118.5C496.4 116.3 498.3 114.4 500.5 114.4ZM500.5 110.4C496 110.4 492.4 114.1 492.4 118.5C492.4 122.9 496.1 126.6 500.5 126.6C504.9 126.6 508.6 122.9 508.6 118.5C508.6 114.1 504.9 110.4 500.5 110.4Z" fill="black"/>
<path d="M330.7 186.6C344.562 186.6 355.8 175.362 355.8 161.5C355.8 147.638 344.562 136.4 330.7 136.4C316.838 136.4 305.6 147.638 305.6 161.5C305.6 175.362 316.838 186.6 330.7 186.6Z" fill="#FF0077" stroke="black" stroke-width="4" stroke-miterlimit="10"/>
<path d="M389.5 156.2C386.1 156.2 383.4 153.4 383.4 150.1C383.4 146.8 386.2 144 389.5 144C392.8 144 395.6 146.8 395.6 150.1C395.6 153.4 392.8 156.2 389.5 156.2Z" fill="#FF0077"/>
<path d="M389.5 145.9C391.8 145.9 393.6 147.8 393.6 150C393.6 152.2 391.7 154.1 389.5 154.1C387.3 154.1 385.4 152.2 385.4 150C385.4 147.8 387.3 145.9 389.5 145.9ZM389.5 141.9C385 141.9 381.4 145.6 381.4 150C381.4 154.4 385.1 158.1 389.5 158.1C393.9 158.1 397.6 154.4 397.6 150C397.6 145.6 393.9 141.9 389.5 141.9Z" fill="black"/>
<path d="M330.7 174.6C337.935 174.6 343.8 168.735 343.8 161.5C343.8 154.265 337.935 148.4 330.7 148.4C323.465 148.4 317.6 154.265 317.6 161.5C317.6 168.735 323.465 174.6 330.7 174.6Z" fill="black" stroke="white" stroke-width="4" stroke-miterlimit="10"/>
<path d="M308.6 221.4C311.9 232.4 305.6 244.1 294.6 247.5C283.6 250.8 272.5 244.4 269.1 233.4" fill="black"/>
<path d="M308.6 221.4C311.9 232.4 305.6 244.1 294.6 247.5C283.6 250.8 272.5 244.4 269.1 233.4" stroke="black" stroke-width="4"/>
<path d="M365.1 225.5L365.1 213.9C365.8 204.7 368.3 196.3 373 189L382.1 174.8C383.4 172.7 386.2 172 388.4 173.3L390.5 174.6C392.6 175.9 393.3 178.6 392.2 180.7L405.7 187.3C408.4 188.6 410.4 190.9 411.3 193.7" stroke="black" stroke-width="4" stroke-linecap="round"/>
<path d="M337.2 158.6C333.8 158.6 331.1 155.8 331.1 152.5C331.1 149.2 333.9 146.4 337.2 146.4C340.5 146.4 343.3 149.2 343.3 152.5C343.3 155.8 340.5 158.6 337.2 158.6Z" fill="white"/>
<path d="M337.2 148.4C339.5 148.4 341.3 150.3 341.3 152.5C341.3 154.7 339.4 156.6 337.2 156.6C335 156.6 333.1 154.7 333.1 152.5C333.1 150.3 335 148.4 337.2 148.4ZM337.2 144.4C332.7 144.4 329.1 148.1 329.1 152.5C329.1 156.9 332.8 160.6 337.2 160.6C341.6 160.6 345.3 156.9 345.3 152.5C345.3 148.1 341.6 144.4 337.2 144.4Z" fill="black"/>
<path d="M381.8 201.6L385.6 193.9L398.3 200.1C400.9 201.4 404 200.8 405.9 198.7L410.7 193.3" stroke="black" stroke-width="4"/>
<path d="M302.3 206.9L283.3 209.1L307.7 224.2L311.8 215.5L302.3 206.9Z" fill="black"/>
<path d="M162.2 408.6H409.5" stroke="white" stroke-width="4" stroke-linecap="round"/>
<path d="M361 226.5V279" stroke="black" stroke-width="4" stroke-linecap="round"/>
</svg>
