<svg width="639" height="519" viewBox="0 0 639 519" fill="none" xmlns="http://www.w3.org/2000/svg">
<path d="M432.83 369.464L413.78 378.524L435.53 411.404L455 415.494L433.5 368.494L432.83 369.464Z" fill="white"/>
<path d="M282.5 380.494L270.73 360.704L230 409.994L244 420.494L282.5 380.494Z" fill="white"/>
<path d="M470.77 240.914C460.58 210.454 433.07 196.864 433.07 196.864L389.29 226.464C389.29 226.464 357.43 245.764 354.61 247.134H353.47V247.704C342.91 253.044 333.52 260.614 325.85 269.714L251.95 350.494L275.4 388.544L358.52 307.694C369.91 328.064 399.68 392.434 399.68 392.434L436.09 371.544L403.87 299.964L432.45 292.554C450.17 292.384 466.07 280.884 471.2 263.884C473.27 257.124 473.64 249.384 470.78 240.934L470.77 240.914Z" fill="black"/>
<path d="M495.25 248.774L497.23 249.057L497.233 249.036L497.236 249.015L495.25 248.774ZM508.05 143.264L506.069 142.986L506.067 143.005L506.065 143.023L508.05 143.264ZM440.849 133.977C440.696 135.071 441.459 136.082 442.553 136.235C443.647 136.387 444.658 135.625 444.811 134.531L440.849 133.977ZM425 293.5L424.875 295.496C447.332 296.897 464.446 292.215 476.474 283.635C488.52 275.042 495.284 262.663 497.23 249.057L495.25 248.774L493.27 248.491C491.466 261.111 485.23 272.475 474.151 280.379C463.054 288.295 446.918 292.863 425.125 291.504L425 293.5ZM495.25 248.774L497.236 249.015L510.035 143.505L508.05 143.264L506.065 143.023L493.265 248.533L495.25 248.774ZM508.05 143.264L510.031 143.542C512.57 125.42 498.93 108.727 479.973 106.113L479.7 108.094L479.427 110.075C496.43 112.42 508.27 127.288 506.069 142.986L508.05 143.264ZM479.7 108.094L479.973 106.113C461.018 103.498 443.388 115.801 440.849 133.977L442.83 134.254L444.811 134.531C447.012 118.767 462.422 107.73 479.427 110.075L479.7 108.094Z" fill="white"/>
<path d="M242.88 435.284L177.66 434.724C176.76 434.724 175.97 433.994 175.97 433.034V430.834C175.97 430.154 176.36 429.534 176.98 429.254L231.09 408.794L244.68 417.024L245.58 432.474C245.69 434.054 244.45 435.344 242.87 435.294L242.88 435.284Z" fill="#FF0077"/>
<path d="M349.95 125.67C349.95 125.67 377.584 93.9438 414.884 107.994C451.174 121.584 441.974 169.524 441.974 169.524L438.5 183.994L374.28 160.82L349.95 125.66C344.57 115.51 329.45 118.67 329.45 118.67C321.79 119.81 315 126.87 315 134.53V157.65C315 163.3 319.57 167.87 325.22 167.87C336.65 167.87 345.86 158.59 345.86 147.23" fill="black"/>
<path d="M276.31 198.084C275.92 199.214 275.24 201.524 275.01 202.254C275.69 202.644 279.29 203.044 280.14 202.874C282.96 204.394 284.88 205.804 290.12 207.664C294.8 209.294 300.49 210.084 305.11 210.424C307.42 210.594 309.39 210.654 310.8 210.704C311.08 210.704 307.36 207.384 307.58 207.384L320.57 181.614L321.75 179.524C321.75 179.524 339.03 188.374 339.09 188.544C339.26 188.884 339.48 189.444 339.77 190.064C340.33 191.364 341.24 193.104 342.25 194.914C343.32 196.714 344.56 198.574 345.97 200.044C352.9 207.034 363.28 202.244 363.28 202.244L364.86 203.544L398.15 230.614L417.18 212.284C429.19 205.524 428.06 203.504 433.08 196.854C435.62 193.524 439.56 186.374 439.56 186.374C439.5 186.264 415.81 126.094 362.56 134.834C356.25 135.454 350.78 136.354 346.89 137.084C344.97 137.474 343.4 137.764 342.32 138.044C341.81 138.154 341.36 138.274 341.14 138.324C341.03 138.324 340.97 138.324 340.86 138.384L330.21 142.444L329.87 142.554H329.36C329.19 142.554 328.97 142.554 328.63 142.614C327.95 142.674 327.05 142.844 325.87 143.004C323.5 143.394 320.23 144.134 316.63 145.254C309.3 147.564 300.96 151.684 295.66 158.784C290.08 166.224 284.84 177.104 280.95 186.234C279.03 190.804 277.46 194.854 276.33 197.794V198.074L276.31 198.084Z" fill="#FF0077" stroke="black" stroke-width="4"/>
<path d="M320.61 164.724C314.96 164.724 310.39 160.154 310.39 154.504V134.544C310.39 126.814 314.83 119.084 323.7 115.794C332.57 112.504 343.66 115.524 349.04 125.674L341.24 147.184C341.24 158.614 331.96 167.824 320.6 167.824" fill="black"/>
<path d="M422.31 203.654C422.17 203.374 421.98 203.124 421.77 202.894C414.58 204.114 407.31 204.704 400.16 206.074C399.99 206.244 399.81 206.404 399.6 206.544C399.12 206.984 398.55 207.284 397.9 207.434C397.67 207.514 397.44 207.604 397.21 207.674C396.63 207.864 395.98 207.934 395.39 207.944C394.79 207.944 394.22 207.834 393.67 207.634L397.13 218.484C397.86 220.234 396.45 222.094 394.59 221.814C387.6 220.744 367.86 216.904 357.21 213.574C342.55 209.004 321.92 204.664 316 204.664C310.08 204.664 303.6 207.314 302.3 210.414C301 213.514 304.22 214.244 304.22 214.244C304.22 214.244 320.84 212.714 326.64 216.324C332 219.704 365.11 233.094 372.66 239.524C381.34 246.964 385.48 249.294 417.2 242.014C433.18 238.344 429.51 223.894 422.3 203.654H422.31Z" fill="white"/>
<path d="M440.26 244.474H391.56L475.47 434.894H488.6L404.75 244.474H440.26Z" fill="white"/>
<path d="M371.2 244.474H384.33L327.17 434.894H314.04L371.2 244.474Z" fill="white"/>
<path d="M322.79 177.844L310.39 171.534L316.25 189.624L322.79 177.904V177.844Z" fill="black"/>
<path d="M366.63 145.084L361.45 173.224C360.66 175.144 358.12 175.474 356.77 173.904C354.57 171.314 344.96 162.024 342.71 159.994C338.65 156.384 346.94 148.994 346.94 148.994L365.43 149.624" fill="black"/>
<path d="M366.63 145.084L361.45 173.224C360.66 175.144 358.12 175.474 356.77 173.904C354.57 171.314 344.96 162.024 342.71 159.994C338.65 156.384 346.94 148.994 346.94 148.994L365.43 149.624" stroke="black" stroke-width="4"/>
<path d="M338.37 152.644V171.474L332.23 164.994C331.89 164.714 331.67 164.374 331.5 164.034L338.43 152.644H338.37Z" fill="black"/>
<path d="M342.39 159.214V129.634H330.83C323.44 129.634 317.39 135.484 317.18 142.674V142.804V142.934V143.064V159.334C317.18 166.124 322.76 171.774 329.82 171.774C336.88 171.774 342.46 166.194 342.46 159.334L342.406 160.494L342.39 159.214Z" fill="white" stroke="black" stroke-width="4"/>
<path d="M314.15 143.614C314.15 143.614 323.83 139.914 327.86 134.274C332.03 141.534 337.61 149.534 345.88 157.134C354.82 165.474 364.3 171.184 367.32 153.104C370.34 135.024 374.58 126.214 377.47 123.794C380.36 121.374 349.1 125.674 349.1 125.674C349.1 125.674 336.19 123.864 329.54 124.864C319.79 126.414 316.57 130.174 315.22 134.814C314.14 138.514 314.08 143.554 314.08 143.554L314.15 143.624V143.614Z" fill="black"/>
<path d="M295.77 201.674L313.73 205.124L328.5 206.704L326.5 216.994C329.04 216.994 315.24 227.094 310 224.994C309.32 224.204 312.96 233.314 311.5 233.994L289.08 234.664L286.12 217.734L289.08 204.494L295.79 201.664L295.77 201.674Z" fill="white"/>
<path d="M179.8 244.474H166.67L204.16 434.894H217.29L179.8 244.474Z" fill="white"/>
<path d="M280.36 180.054L201.89 180.234C199.07 180.124 196.65 182.604 196.37 185.874L195.02 235.524C194.79 238.234 196.6 240.594 198.91 240.594H281.72C284.76 240.594 287.24 237.664 287.13 234.054L285.66 186.084C285.55 182.754 283.29 180.104 280.47 179.994L280.36 180.054Z" fill="black"/>
<path d="M251.5 228.744L311.59 229.874C314.13 229.874 316.33 231.564 317.11 233.934L317.62 235.514H249.58L251.44 228.754H251.5V228.744Z" fill="black"/>
<path d="M246.2 214.584C242.98 214.584 240.35 211.954 240.35 208.734C240.35 205.514 242.98 202.884 246.2 202.884C249.42 202.884 252.05 205.514 252.05 208.734C252.05 211.954 249.42 214.584 246.2 214.584Z" fill="white"/>
<path d="M395.82 244.904C379.3 241.904 329.36 217.394 326.65 216.324C325.18 218.294 322.08 220.894 319.1 222.184C316.45 223.304 310.09 224.44 308.5 224.5" stroke="white" stroke-width="4"/>
<path d="M395.14 209.634L397.99 217.894C398.72 219.984 396.81 222.064 394.61 221.504C384.91 219.134 324.79 205.754 324.79 205.754C313.84 203.174 307.08 201.674 299.49 201.004C292.65 200.394 286.83 205.924 287.01 212.784V227.494" stroke="white" stroke-width="4" stroke-linecap="square"/>
<path d="M428 293.994C484.351 293.994 530 357.556 530 435.994" stroke="white" stroke-width="4"/>
<path d="M416.43 178.794L424.05 204.984C424.05 204.984 414.77 202.704 391.5 209.434C390.03 209.994 388.34 209.264 387.84 207.804L377.82 172.934C375.17 158.264 381.43 153.544 384.99 150.714" stroke="black" stroke-width="4" stroke-linecap="round"/>
<path d="M317.5 200C302.806 197.04 294.173 212.253 302.5 231" stroke="black" stroke-width="4" stroke-linecap="round"/>
<path d="M310 200C282.5 195 283.5 206.994 283.5 214.994V230.494" stroke="black" stroke-width="4" stroke-linecap="round"/>
<path d="M451 234.894H111.87L109 247.694H454.43L450.99 234.894H451Z" fill="white"/>
<path d="M345.88 164.634L356.03 160.634L353.05 151.484L345.88 149.624L342.45 155.384L345.88 164.634Z" fill="black"/>
<path d="M441.37 435.074L406.25 434.734C405.29 434.734 404.62 433.834 404.84 432.874L405.57 430.054C405.8 429.204 406.47 428.534 407.32 428.364L426.43 423.794L435.34 410.434L449.55 403.334L458.17 421.004L441.32 435.014L441.38 435.074H441.37Z" fill="#FF0077"/>
<path d="M314.998 283.319C315.73 282.491 315.652 281.227 314.825 280.495C313.997 279.764 312.733 279.842 312.002 280.669L314.998 283.319ZM257.25 358.744L258.965 357.715L258.96 357.707L258.955 357.699L257.25 358.744ZM254.95 348.223L256.448 349.548L314.998 283.319L313.5 281.994L312.002 280.669L253.451 346.898L254.95 348.223ZM274.5 387.494L276.215 386.465L258.965 357.715L257.25 358.744L255.535 359.773L272.785 388.523L274.5 387.494ZM257.25 358.744L258.955 357.699L256.138 353.102L254.433 354.147L252.728 355.192L255.545 359.789L257.25 358.744ZM254.95 348.223L253.451 346.898C251.413 349.203 251.12 352.569 252.728 355.192L254.433 354.147L256.138 353.102C255.449 351.978 255.575 350.535 256.448 349.548L254.95 348.223Z" fill="white"/>
<path d="M309.5 131.994C310 126.661 315 114.494 330 114.494C344.023 114.494 348.333 122.661 349.5 126.494C354 116.828 372.2 99.894 399 103.494" stroke="white" stroke-width="4" stroke-linecap="round"/>
<path d="M111.27 435.404H554.76" stroke="white" stroke-width="4" stroke-linecap="round"/>
<path d="M431.5 413.494L452.5 400.994" stroke="black" stroke-width="4" stroke-linecap="round"/>
<path d="M230.5 407.994L246 418.994" stroke="black" stroke-width="4" stroke-linecap="round"/>
<path d="M207.5 180.994C206.395 180.994 205.5 180.098 205.5 178.994C205.5 177.889 206.395 176.994 207.5 176.994V178.994V180.994ZM287.5 227.494V229.494H283.5V227.494H285.5H287.5ZM207.5 178.994V176.994H280.5V178.994V180.994H207.5V178.994ZM285.5 183.994H287.5V227.494H285.5H283.5V183.994H285.5ZM280.5 178.994V176.994C284.366 176.994 287.5 180.128 287.5 183.994H285.5H283.5C283.5 182.337 282.157 180.994 280.5 180.994V178.994Z" fill="white"/>
<path d="M393 209L395.047 216.165C395.47 217.646 394.13 219.03 392.636 218.654L316.5 199.5" stroke="black" stroke-width="4" stroke-linecap="round"/>
<path d="M311 233H453" stroke="black" stroke-width="4" stroke-linecap="round"/>
</svg>
