<svg width="543" height="531" viewBox="0 0 543 531" fill="none" xmlns="http://www.w3.org/2000/svg">
<path d="M184.998 192.627C163.438 186.597 150.498 174.237 146.818 148.807C143.168 123.397 173.928 129.527 173.928 129.527C173.928 129.527 170.628 116.887 174.658 107.337C178.608 97.9869 193.368 97.7469 202.098 84.6969C213.398 67.8869 226.328 62.2669 238.388 74.8369C254.648 91.7669 240.008 110.897 240.008 110.897C240.008 110.897 247.508 105.327 258.508 107.967C270.218 110.777 275.958 118.927 276.138 128.487C276.398 141.117 267.068 148.237 258.958 149.717C258.958 149.717 259.978 154.077 256.168 160.047C253.348 164.467 241.958 171.527 228.758 168.397C215.568 165.257 184.968 192.617 184.968 192.617L184.998 192.637V192.627Z" fill="#FF0077"/>
<path d="M396.059 399.097C396.059 399.097 370.169 396.867 370.329 398.357L374.599 415.477C374.799 417.397 398.179 399.277 396.059 399.097Z" fill="black"/>
<path d="M371.238 398.357C356.928 392.787 290.428 385.067 261.518 424.437C248.888 441.637 238.808 517.787 238.808 517.787H301.458C302.668 510.917 303.708 502.457 306.618 476.517C306.768 475.177 308.718 475.197 308.838 476.537C310.508 494.957 313.048 517.787 313.048 517.787H379.368C379.488 517.787 383.468 517.637 383.378 517.557C383.378 517.557 379.488 401.547 371.228 398.347L371.238 398.357Z" fill="black"/>
<path d="M296.368 202.017L330.839 325.047L234.969 299.967L286.879 205.917L296.368 202.017Z" fill="black"/>
<path d="M319.598 245.057C319.598 245.057 327.178 278.617 328.438 278.587C329.698 278.557 375.208 281.007 380.638 243.837C386.068 206.667 380.928 187.737 370.668 171.857C362.538 159.277 319.598 245.047 319.598 245.047V245.057Z" fill="black"/>
<path d="M362.919 272.617C362.919 272.617 394.259 273.247 392.009 238.967C389.069 194.197 366.389 165.537 366.389 165.537C366.389 165.537 386.159 200.177 383.819 235.657C381.479 271.137 362.919 272.617 362.919 272.617Z" fill="black"/>
<path d="M340.918 257.337L341.508 265.997C341.508 265.997 340.398 275.597 333.568 280.297C321.578 281.777 312.948 288.137 304.078 279.267C297.778 271.377 300.558 253.507 300.558 253.507L299.118 215.537L317.918 247.947L340.908 257.327L340.918 257.337Z" fill="white"/>
<path d="M322.048 430.277C301.258 430.277 276.548 426.987 276.298 426.957L274.568 426.727V389.647L368.738 391.207L375.318 426.567L373.358 426.937C372.658 427.067 355.828 430.167 322.698 430.277H322.048Z" fill="white"/>
<path d="M276.568 391.677L367.078 393.177L372.988 424.967C372.988 424.967 356.018 428.157 322.698 428.267C322.488 428.267 322.268 428.267 322.058 428.267C301.158 428.267 276.578 424.967 276.578 424.967V391.677M272.568 387.617V428.477L276.038 428.947C277.048 429.087 301.128 432.287 322.048 432.287H322.708C356.008 432.177 373.018 429.047 373.728 428.917L377.648 428.177L376.918 424.257L371.008 392.467L370.408 389.257L367.138 389.207L276.628 387.707L272.558 387.637L272.568 387.617Z" fill="black"/>
<path d="M442.058 399.997C434.558 396.967 413.568 376.567 395.888 359.087C390.208 353.467 384.338 347.667 378.918 342.427C378.538 342.057 378.038 341.867 377.528 341.867C377.158 341.867 376.788 341.967 376.458 342.177C375.678 342.667 375.338 343.627 375.628 344.507L393.348 397.287C382.628 398.037 340.378 400.797 303.828 400.797C277.988 400.797 260.418 399.457 251.548 396.797C246.598 368.667 247.668 316.487 248.968 303.227C249.078 302.097 248.978 300.297 248.838 297.807C248.198 286.247 239.768 260.577 256.558 256.007C259.148 255.967 286.398 257.247 298.668 256.007C299.808 271.037 309.048 280.587 318.018 282.337C319.808 282.687 321.558 282.867 323.218 282.867C334.578 282.867 342.328 274.447 343.388 261.227L359.518 263.397C364.218 264.027 368.618 266.257 371.908 269.667L372.398 270.177C378.708 276.727 383.228 281.407 383.868 281.997C385.318 283.267 386.738 284.517 388.168 285.787C402.678 298.627 417.658 311.877 437.388 315.337C435.408 325.037 434.118 346.287 441.318 356.007C443.148 358.487 445.398 360.037 448.018 360.647L443.558 394.997L442.058 399.997Z" fill="#FF0077" stroke="black" stroke-width="4"/>
<path d="M446.178 403.337C444.088 403.337 441.548 402.357 439.318 398.757C429.298 382.557 432.288 321.077 437.478 314.677L438.568 313.337L470.278 336.217L470.118 337.317C470.098 337.477 467.758 353.007 464.008 368.657C460.658 382.657 455.318 401.467 447.738 403.157C447.258 403.267 446.738 403.337 446.178 403.337Z" fill="black"/>
<path d="M450.937 391.841C450.022 392.461 449.783 393.704 450.403 394.619C451.022 395.533 452.266 395.772 453.18 395.153L450.937 391.841ZM471.558 330.497L469.568 330.302C468.728 338.865 467.74 351.838 465.043 364.002C463.697 370.076 461.94 375.869 459.606 380.751C457.264 385.648 454.408 389.49 450.937 391.841L452.058 393.497L453.18 395.153C457.459 392.254 460.706 387.722 463.214 382.477C465.728 377.219 467.566 371.105 468.948 364.867C471.711 352.407 472.722 339.129 473.549 330.692L471.558 330.497Z" fill="white"/>
<path d="M259.408 164.287C261.578 158.657 264.578 153.347 268.808 148.507C276.108 140.167 286.038 134.367 296.818 131.857C307.718 129.327 318.468 130.397 328.898 134.357C345.208 140.547 357.618 153.297 367.558 167.247C369.048 169.337 370.518 171.457 371.798 173.677L293.238 223.997C293.238 223.997 276.738 244.747 263.388 255.667C249.098 267.357 237.938 269.217 238.798 267.757C247.848 252.497 249.998 233.287 251.908 215.987C253.798 198.927 253.208 180.337 259.398 164.277L259.408 164.287Z" fill="black"/>
<path d="M335.759 161.657L319.969 162.857C302.729 166.237 291.149 183.027 293.559 195.347L298.699 215.757C301.919 232.177 313.269 248.967 313.269 248.967C313.979 249.057 319.839 249.087 330.839 249.097C344.369 249.107 357.459 249.727 360.229 217.707C360.229 217.707 363.959 194.927 349.829 170.457C345.619 163.167 344.009 160.047 335.749 161.667L335.759 161.657Z" fill="white"/>
<path d="M293.668 212.777C300.668 205.507 303.188 199.667 303.398 195.457C303.658 190.037 302.858 187.797 302.858 187.797C302.858 187.797 314.878 186.257 319.658 177.797C322.578 172.627 323.688 168.077 323.688 168.077L328.298 179.787C328.298 179.787 334.398 179.197 345.688 180.167C355.428 181.007 365.948 183.717 365.948 183.717C365.948 183.717 370.208 165.497 351.368 161.427C341.268 159.237 316.328 156.947 298.858 174.127C281.398 191.317 287.158 202.457 287.748 208.667C288.338 214.877 293.668 212.777 293.668 212.777Z" fill="black"/>
<path d="M304.638 205.527C300.178 199.717 294.308 201.677 292.028 203.587C288.458 206.577 289.558 214.077 293.368 216.947C299.208 221.357 304.528 219.857 306.588 215.247C308.648 210.637 304.628 205.527 304.628 205.527H304.638Z" fill="white"/>
<path d="M100.198 516.737H398.018" stroke="black" stroke-width="4" stroke-linecap="round"/>
<path d="M327.439 217.697C334.033 217.697 339.379 210.677 339.379 202.017C339.379 193.357 334.033 186.337 327.439 186.337C320.845 186.337 315.499 193.357 315.499 202.017C315.499 210.677 320.845 217.697 327.439 217.697Z" fill="black" stroke="black" stroke-width="4"/>
<path d="M354.479 217.697C359.714 217.697 363.959 210.677 363.959 202.017C363.959 193.357 359.714 186.337 354.479 186.337C349.243 186.337 344.999 193.357 344.999 202.017C344.999 210.677 349.243 217.697 354.479 217.697Z" fill="black" stroke="black" stroke-width="4"/>
<path d="M309.778 406.577L374.898 409.977L376.388 400.367L312.418 400.217L309.778 406.577Z" fill="black"/>
<path d="M321.228 417.077C323.189 417.077 324.778 415.487 324.778 413.527C324.778 411.566 323.189 409.977 321.228 409.977C319.268 409.977 317.678 411.566 317.678 413.527C317.678 415.487 319.268 417.077 321.228 417.077Z" fill="black"/>
<path d="M113.718 287.587L142.638 204.437C144.668 198.377 142.038 191.577 136.258 188.857C136.008 188.737 135.748 188.627 135.478 188.517L134.328 147.847C134.158 146.047 132.568 144.587 130.658 144.457C128.618 144.327 126.948 145.747 126.898 147.657L124.338 178.827L115.678 151.567C115.328 150.147 113.908 148.417 111.968 148.357C110.038 148.297 108.128 149.607 108.548 152.177L113.688 179.347C113.688 179.347 109.018 178.837 107.888 181.097C106.758 183.357 106.528 186.387 106.528 186.387C106.528 186.387 101.298 184.527 99.5183 189.027C97.8683 193.167 106.448 217.937 107.838 221.877L93.7283 264.827L113.718 287.567V287.587Z" fill="white" stroke="black" stroke-width="4" stroke-linejoin="round"/>
<path d="M125.438 191.947L114.848 196.637C112.368 197.737 111.268 200.647 112.408 203.107C113.498 205.477 116.258 206.557 118.668 205.567L129.238 201.207C129.238 201.207 109.678 212.357 121.018 231.357" fill="white"/>
<path d="M125.438 191.947L114.848 196.637C112.368 197.737 111.268 200.647 112.408 203.107C113.498 205.477 116.258 206.557 118.668 205.567L129.238 201.207C129.238 201.207 109.678 212.357 121.018 231.357" stroke="black" stroke-width="4" stroke-linecap="round" stroke-linejoin="round"/>
<path d="M221.428 223.117C187.908 191.817 135.408 218.967 155.028 247.267C170.308 269.297 198.258 278.467 209.728 281.877C221.208 285.297 241.228 271.847 240.018 271.827C238.808 271.807 254.948 254.417 221.428 223.117Z" fill="black"/>
<path d="M175.348 191.877C175.348 191.877 176.358 251.657 181.148 266.447C222.458 291.237 229.658 266.347 229.658 266.347L224.728 230.857C223.848 210.407 175.348 191.887 175.348 191.887V191.877Z" fill="white"/>
<path d="M175.348 191.877L176.708 269.737L225.168 233.697L224.728 230.847C223.848 210.397 175.348 191.877 175.348 191.877Z" fill="black"/>
<path d="M197.948 141.367H228.968C238.958 141.367 247.068 149.477 247.068 159.467V196.567C247.068 215.117 232.008 230.177 213.458 230.177C194.908 230.177 179.848 215.117 179.848 196.567V159.467C179.848 149.477 187.958 141.367 197.948 141.367Z" fill="white"/>
<path d="M271.298 268.527C257.378 252.437 234.208 246.587 234.208 246.587C234.208 246.587 235.778 255.557 233.958 250.857C233.958 250.857 221.518 269.737 196.818 245.787C194.938 243.127 185.888 241.327 183.468 239.897L172.478 246.467C172.398 243.977 166.928 240.907 142.538 255.137C118.028 269.447 91.238 302.707 91.238 302.707C93.448 297.907 122.588 301.617 122.588 301.617L140.158 245.787H98.018C98.018 245.787 85.668 277.427 72.108 315.827C63.438 340.377 74.248 354.937 92.488 363.837C101.038 368.017 110.978 368.687 119.828 365.187C126.768 362.437 129.568 358.667 129.568 358.667C121.538 415.387 115.378 467.557 119.898 488.247C120.638 491.617 123.328 494.217 126.718 494.817L129.948 495.397C128.208 516.127 128.978 517.787 128.978 517.787H194.788H245.228H270.768C274.418 488.817 272.938 453.977 269.168 417.077C272.908 417.787 273.158 416.657 276.578 417.077C284.138 418.007 312.308 419.617 315.458 394.407C317.158 341.297 271.308 268.517 271.308 268.517L271.298 268.527Z" fill="black"/>
<path d="M274.5 270.923L272.769 271.925V271.925L274.5 270.923ZM298.908 325.719C299.348 326.733 300.526 327.198 301.539 326.758C302.552 326.319 303.017 325.141 302.578 324.127L298.908 325.719ZM226.5 247.5L226.741 249.486C234.563 248.537 243.814 250.194 252.284 254.118C260.75 258.039 268.269 264.146 272.769 271.925L274.5 270.923L276.231 269.922C271.231 261.278 263 254.673 253.966 250.488C244.936 246.306 234.937 244.463 226.259 245.515L226.5 247.5ZM274.5 270.923L272.769 271.925C281.062 286.261 290.727 306.86 298.908 325.719L300.743 324.923L302.578 324.127C294.38 305.232 284.642 284.463 276.231 269.922L274.5 270.923Z" fill="white"/>
<path d="M187.598 187.767C187.598 187.767 187.178 171.567 175.478 173.927C166.468 175.747 168.168 189.487 173.168 193.527C178.168 197.567 184.728 197.987 184.728 197.987L187.598 187.767Z" fill="white"/>
<path d="M184.64 170.016C184.64 170.016 206.16 168.636 215.35 160.226C224.54 151.806 225.5 144.5 225.5 144.5C225.5 144.5 231 149 242.71 149.796C253.5 151.736 260.3 124.306 251.69 119.146C243.05 114.006 224.81 119.116 218.72 123.846C198.83 127.216 189.03 126.936 182.28 134.506C175.53 142.076 178.9 171.036 178.9 171.036L184.66 170.016H184.64Z" fill="#FF0077"/>
<path d="M184.768 189.807C181.608 189.807 179.058 187.247 179.058 184.097V171.257C179.058 168.097 181.618 169.157 184.768 169.157V165.547C187.928 165.547 190.478 168.107 190.478 171.257V184.097C190.478 187.257 187.918 189.807 184.768 189.807Z" fill="#FF0077"/>
<path d="M215.118 196.897C221.713 196.897 227.058 189.877 227.058 181.217C227.058 172.557 221.713 165.537 215.118 165.537C208.524 165.537 203.178 172.557 203.178 181.217C203.178 189.877 208.524 196.897 215.118 196.897Z" fill="black" stroke="black" stroke-width="4"/>
<path d="M242.158 196.897C247.394 196.897 251.638 189.877 251.638 181.217C251.638 172.557 247.394 165.537 242.158 165.537C236.923 165.537 232.678 172.557 232.678 181.217C232.678 189.877 236.923 196.897 242.158 196.897Z" fill="black" stroke="black" stroke-width="4"/>
<path d="M327.898 191.247L320.318 200.647" stroke="white" stroke-width="4" stroke-linecap="round"/>
<path d="M222.029 173.287L211.339 186.527" stroke="white" stroke-width="4" stroke-linecap="round"/>
<path d="M354.478 190.877L349.978 196.597" stroke="white" stroke-width="4" stroke-linecap="round"/>
<path d="M246.078 170.607L242.158 175.577" stroke="white" stroke-width="4" stroke-linecap="round"/>
<path d="M442.188 280.137C438.518 276.867 439.918 265.977 445.638 254.787C451.738 242.857 460.448 235.117 465.088 237.487" stroke="#FF0077" stroke-width="4" stroke-linecap="round"/>
<path d="M439.918 291.497C438.238 286.377 440.438 276.517 445.908 266.527C452.908 253.767 462.598 245.627 467.568 248.347" stroke="#FF0077" stroke-width="4" stroke-linecap="round"/>
<path d="M430.98 160.397H399.94C398.769 160.397 397.82 161.346 397.82 162.517V226.707C397.82 227.878 398.769 228.827 399.94 228.827H430.98C432.151 228.827 433.1 227.878 433.1 226.707V162.517C433.1 161.346 432.151 160.397 430.98 160.397Z" fill="#FF0077"/>
<path d="M412.55 168.087C413.334 168.087 413.97 167.451 413.97 166.667C413.97 165.883 413.334 165.247 412.55 165.247C411.766 165.247 411.13 165.883 411.13 166.667C411.13 167.451 411.766 168.087 412.55 168.087Z" fill="#FF0077"/>
<path d="M454.498 343.997C446.291 343.997 437.725 338.454 437.221 327.872C437.077 324.849 438.121 318.073 439.228 312.935L439.597 311.234C443.826 291.663 448.208 271.435 440.137 253.133C434.927 252.791 424.408 248.66 421.492 246.132C420.043 245.07 415.625 241.687 414.797 239.374C414.726 239.167 414.654 238.96 414.6 238.762C413.871 238.51 413.142 238.249 412.404 237.988C410.928 237.467 409.462 236.927 408.076 236.423L407.725 236.297L404.063 234.83C403.082 234.434 402.263 234.11 401.678 233.876L400.688 233.489C398.133 232.482 396.792 229.656 397.62 227.056C397.764 226.597 397.971 226.165 398.232 225.769C396.198 224.752 395.145 222.422 395.793 220.181C396.378 218.147 398.268 216.726 400.373 216.726C400.823 216.726 401.264 216.789 401.696 216.915L408.895 219.029L422.527 220.739C422.464 220.685 422.158 220.433 422.158 220.433C421.825 220.163 421.492 219.884 421.141 219.614C420.448 219.074 419.747 218.534 419.036 218.021C418.325 217.508 417.596 217.014 416.858 216.528C416.489 216.285 416.12 216.051 415.76 215.826L415.202 215.484L414.797 215.241L413.637 214.728C413.088 214.485 412.557 214.233 412.017 213.981L411.855 213.909C411.378 213.684 410.892 213.459 410.415 213.216L410.208 213.117C409.74 212.892 409.282 212.667 408.823 212.424L407.284 211.615C406.915 211.417 406.528 211.201 406.141 210.985L404.89 210.274C402.857 209.131 401.039 206.441 401.561 203.903C401.75 202.958 402.587 200.718 406.204 200.331L407.149 200.484L408.958 201.285C409.102 201.348 409.246 201.42 409.381 201.474L410.127 201.771L410.721 202.013C411 202.13 411.279 202.247 411.576 202.364L413.106 202.958C413.349 203.048 413.592 203.138 413.835 203.228C414.105 203.327 414.375 203.426 414.636 203.534C415.094 203.714 415.562 203.876 416.03 204.047L416.129 204.083C416.642 204.272 417.146 204.443 417.65 204.623L418.415 204.884L419.153 205.127C419.315 205.181 419.486 205.253 419.63 205.325L420.511 205.757L421.231 206.126C421.717 206.378 422.185 206.63 422.644 206.882C423.562 207.385 424.48 207.925 425.37 208.465C426.261 209.014 427.152 209.59 428.025 210.175C428.169 210.274 428.304 210.364 428.448 210.463C428.556 210.409 428.673 210.364 428.79 210.328C429.312 210.166 429.915 210.085 430.571 210.085C433.298 210.085 436.888 211.471 438.328 212.424C442.053 214.899 444.096 217.571 445.742 219.722C446.039 220.118 446.336 220.496 446.624 220.856L447.173 221.54C448.676 223.393 452.185 227.721 456.333 233.687L456.378 233.741C456.513 233.894 456.639 234.047 456.765 234.209C461.291 239.95 465.323 247.158 468.094 254.464C477.713 280.109 476.382 307.887 473.574 326.684C471.136 339.48 461.777 343.988 454.507 343.988L454.498 343.997Z" fill="white"/>
<path d="M454.498 343.997V345.997H455.328L455.914 345.409L454.498 343.997ZM437.221 327.872L439.219 327.777L437.221 327.872ZM439.228 312.935L437.273 312.511L437.273 312.514L439.228 312.935ZM439.597 311.234L441.551 311.658L441.552 311.657L439.597 311.234ZM440.137 253.133L441.967 252.326L441.477 251.216L440.268 251.137L440.137 253.133ZM421.492 246.132L422.803 244.621L422.741 244.567L422.674 244.519L421.492 246.132ZM414.797 239.374L412.908 240.031L412.911 240.04L412.914 240.048L414.797 239.374ZM414.6 238.762L416.529 238.236L416.251 237.217L415.253 236.872L414.6 238.762ZM408.076 236.423L408.759 234.543L408.752 234.54L408.076 236.423ZM407.725 236.297L406.981 238.153L407.015 238.167L407.049 238.179L407.725 236.297ZM404.063 234.83L403.314 236.685L403.319 236.687L404.063 234.83ZM401.678 233.876L402.421 232.019L402.414 232.016L402.406 232.014L401.678 233.876ZM400.688 233.489L399.954 235.35L399.96 235.352L400.688 233.489ZM397.62 227.056L399.526 227.662L399.528 227.654L397.62 227.056ZM398.232 225.769L399.902 226.869L401.142 224.988L399.126 223.98L398.232 225.769ZM395.793 220.181L397.714 220.737L397.715 220.734L395.793 220.181ZM401.696 216.915L402.26 214.996L402.256 214.995L401.696 216.915ZM408.895 219.029L408.331 220.948L408.486 220.994L408.646 221.014L408.895 219.029ZM422.527 220.739L422.278 222.723C423.154 222.833 423.999 222.356 424.356 221.548C424.713 220.741 424.499 219.795 423.829 219.22L422.527 220.739ZM422.158 220.433L423.429 218.889L423.424 218.884L423.418 218.879L422.158 220.433ZM421.141 219.614L419.912 221.192L419.922 221.199L421.141 219.614ZM415.76 215.826L416.82 214.13L416.813 214.125L416.805 214.121L415.76 215.826ZM415.202 215.484L416.248 213.779L416.239 213.774L416.231 213.769L415.202 215.484ZM414.797 215.241L415.826 213.526L415.72 213.462L415.606 213.412L414.797 215.241ZM413.637 214.728L412.827 216.557L412.828 216.557L413.637 214.728ZM412.017 213.981L412.863 212.169L412.846 212.161L412.829 212.154L412.017 213.981ZM411.855 213.909L411.002 215.718L411.022 215.728L411.043 215.737L411.855 213.909ZM410.415 213.216L411.323 211.434L411.301 211.423L411.278 211.412L410.415 213.216ZM410.208 213.117L409.342 214.92L409.345 214.922L410.208 213.117ZM408.823 212.424L409.758 210.657L409.754 210.655L408.823 212.424ZM407.284 211.615L406.338 213.377L406.345 213.381L406.352 213.384L407.284 211.615ZM406.141 210.985L405.153 212.724L405.16 212.727L405.166 212.731L406.141 210.985ZM404.89 210.274L405.879 208.535L405.87 208.53L404.89 210.274ZM401.561 203.903L403.52 204.306L403.522 204.295L401.561 203.903ZM406.204 200.331L406.524 198.357L406.259 198.314L405.991 198.342L406.204 200.331ZM407.149 200.484L407.959 198.655L407.723 198.551L407.469 198.509L407.149 200.484ZM408.958 201.285L408.148 203.113L408.156 203.117L408.958 201.285ZM409.381 201.474L408.638 203.331L408.642 203.332L409.381 201.474ZM410.127 201.771L410.885 199.919L410.876 199.916L410.866 199.912L410.127 201.771ZM410.721 202.013L411.495 200.169L411.487 200.166L411.479 200.162L410.721 202.013ZM411.576 202.364L410.843 204.225L410.852 204.229L411.576 202.364ZM413.106 202.958L412.382 204.823L412.397 204.828L412.411 204.834L413.106 202.958ZM413.835 203.228L413.14 205.104L413.146 205.106L413.835 203.228ZM414.636 203.534L413.871 205.382L413.888 205.389L413.905 205.396L414.636 203.534ZM416.03 204.047L415.344 205.926L415.347 205.927L416.03 204.047ZM416.129 204.083L416.821 202.206L416.813 202.204L416.129 204.083ZM417.65 204.623L416.977 206.506L416.991 206.511L417.004 206.516L417.65 204.623ZM418.415 204.884L417.769 206.777L417.779 206.78L417.789 206.784L418.415 204.884ZM419.153 205.127L419.785 203.229L419.778 203.227L419.153 205.127ZM419.63 205.325L418.735 207.114L418.742 207.117L418.75 207.121L419.63 205.325ZM420.511 205.757L421.424 203.977L421.407 203.969L421.391 203.961L420.511 205.757ZM421.231 206.126L422.152 204.35L422.143 204.346L421.231 206.126ZM425.37 208.465L426.42 206.763L426.413 206.759L426.407 206.755L425.37 208.465ZM428.025 210.175L429.158 208.527L429.148 208.52L429.138 208.513L428.025 210.175ZM428.448 210.463L427.315 212.111L428.287 212.779L429.342 212.252L428.448 210.463ZM428.79 210.328L429.378 212.239L429.383 212.238L428.79 210.328ZM438.328 212.424L439.435 210.759L439.433 210.757L438.328 212.424ZM445.742 219.722L447.342 218.522L447.336 218.514L447.33 218.506L445.742 219.722ZM446.624 220.856L445.063 222.105L445.065 222.108L446.624 220.856ZM447.173 221.54L445.613 222.792L445.62 222.799L447.173 221.54ZM456.333 233.687L454.691 234.829L454.741 234.901L454.797 234.968L456.333 233.687ZM456.378 233.741L454.842 235.022L454.86 235.043L454.879 235.065L456.378 233.741ZM456.765 234.209L455.187 235.437L455.195 235.447L456.765 234.209ZM468.094 254.464L469.967 253.762L469.964 253.755L468.094 254.464ZM473.574 326.684L475.539 327.059L475.546 327.019L475.552 326.98L473.574 326.684ZM454.507 343.988V341.988H453.677L453.091 342.575L454.507 343.988ZM454.498 343.997V341.997C447.116 341.997 439.661 337.065 439.219 327.777L437.221 327.872L435.223 327.967C435.789 339.842 445.467 345.997 454.498 345.997V343.997ZM437.221 327.872L439.219 327.777C439.157 326.469 439.356 324.183 439.736 321.475C440.11 318.811 440.639 315.881 441.183 313.356L439.228 312.935L437.273 312.514C436.71 315.127 436.163 318.153 435.775 320.918C435.393 323.638 435.142 326.251 435.223 327.967L437.221 327.872ZM439.228 312.935L441.182 313.359L441.551 311.658L439.597 311.234L437.642 310.81L437.273 312.511L439.228 312.935ZM439.597 311.234L441.552 311.657C445.749 292.233 450.346 271.327 441.967 252.326L440.137 253.133L438.307 253.94C446.07 271.543 441.903 291.093 437.642 310.812L439.597 311.234ZM440.137 253.133L440.268 251.137C437.97 250.986 434.265 249.957 430.667 248.584C428.897 247.908 427.211 247.171 425.806 246.46C424.366 245.731 423.341 245.088 422.803 244.621L421.492 246.132L420.182 247.643C421.101 248.44 422.484 249.261 423.999 250.029C425.549 250.814 427.366 251.605 429.241 252.321C432.933 253.73 437.093 254.937 440.006 255.128L440.137 253.133ZM421.492 246.132L422.674 244.519C421.975 244.006 420.573 242.943 419.26 241.745C418.603 241.145 417.997 240.538 417.521 239.97C417.021 239.375 416.768 238.946 416.68 238.7L414.797 239.374L412.914 240.048C413.24 240.959 413.85 241.819 414.457 242.542C415.088 243.293 415.832 244.031 416.564 244.699C418.029 246.036 419.56 247.196 420.31 247.745L421.492 246.132ZM414.797 239.374L416.686 238.717C416.61 238.496 416.562 238.356 416.529 238.236L414.6 238.762L412.67 239.289C412.745 239.565 412.841 239.838 412.908 240.031L414.797 239.374ZM414.6 238.762L415.253 236.872C414.533 236.623 413.818 236.367 413.071 236.103L412.404 237.988L411.737 239.874C412.465 240.132 413.208 240.398 413.946 240.653L414.6 238.762ZM412.404 237.988L413.071 236.103C411.606 235.585 410.155 235.051 408.759 234.543L408.076 236.423L407.392 238.302C408.768 238.803 410.25 239.348 411.737 239.874L412.404 237.988ZM408.076 236.423L408.752 234.54L408.401 234.414L407.725 236.297L407.049 238.179L407.4 238.305L408.076 236.423ZM407.725 236.297L408.468 234.44L404.806 232.973L404.063 234.83L403.319 236.687L406.981 238.153L407.725 236.297ZM404.063 234.83L404.811 232.975C403.827 232.578 402.996 232.25 402.421 232.019L401.678 233.876L400.935 235.733C401.53 235.971 402.336 236.29 403.314 236.685L404.063 234.83ZM401.678 233.876L402.406 232.014L401.416 231.627L400.688 233.489L399.96 235.352L400.95 235.739L401.678 233.876ZM400.688 233.489L401.422 231.629C399.842 231.006 399.018 229.257 399.526 227.662L397.62 227.056L395.714 226.449C394.566 230.055 396.423 233.957 399.955 235.35L400.688 233.489ZM397.62 227.056L399.528 227.654C399.615 227.376 399.741 227.113 399.902 226.869L398.232 225.769L396.562 224.668C396.2 225.217 395.912 225.817 395.712 226.457L397.62 227.056ZM398.232 225.769L399.126 223.98C397.948 223.391 397.337 222.042 397.714 220.737L395.793 220.181L393.872 219.625C392.954 222.801 394.448 226.113 397.337 227.558L398.232 225.769ZM395.793 220.181L397.715 220.734C398.054 219.555 399.161 218.726 400.373 218.726V216.726V214.726C397.374 214.726 394.702 216.739 393.871 219.628L395.793 220.181ZM400.373 216.726V218.726C400.634 218.726 400.886 218.762 401.136 218.835L401.696 216.915L402.256 214.995C401.642 214.816 401.013 214.726 400.373 214.726V216.726ZM401.696 216.915L401.132 218.834L408.331 220.948L408.895 219.029L409.458 217.11L402.26 214.996L401.696 216.915ZM408.895 219.029L408.646 221.014L422.278 222.723L422.527 220.739L422.776 218.754L409.144 217.045L408.895 219.029ZM422.527 220.739L423.829 219.22C423.78 219.179 423.67 219.088 423.593 219.024C423.55 218.989 423.509 218.955 423.479 218.93C423.464 218.918 423.452 218.907 423.443 218.9C423.439 218.897 423.435 218.894 423.433 218.892C423.432 218.891 423.431 218.89 423.43 218.89C423.43 218.89 423.43 218.889 423.43 218.889C423.43 218.889 423.43 218.889 423.43 218.889C423.43 218.889 423.43 218.889 423.429 218.889C423.429 218.889 423.429 218.889 423.429 218.889C423.429 218.889 423.429 218.889 422.158 220.433C420.887 221.977 420.887 221.977 420.887 221.977C420.887 221.977 420.887 221.977 420.887 221.977C420.887 221.977 420.887 221.977 420.887 221.977C420.887 221.977 420.887 221.977 420.887 221.977C420.887 221.977 420.887 221.977 420.887 221.977C420.888 221.978 420.889 221.979 420.89 221.979C420.892 221.981 420.895 221.984 420.9 221.987C420.908 221.994 420.92 222.004 420.934 222.016C420.964 222.04 421.003 222.073 421.045 222.107C421.086 222.141 421.129 222.177 421.164 222.206C421.182 222.221 421.197 222.233 421.209 222.243C421.222 222.255 421.227 222.258 421.225 222.257L422.527 220.739ZM422.158 220.433L423.418 218.879C423.118 218.636 422.738 218.319 422.361 218.029L421.141 219.614L419.922 221.199C420.246 221.449 420.533 221.69 420.898 221.986L422.158 220.433ZM421.141 219.614L422.371 218.036C421.673 217.493 420.948 216.935 420.206 216.399L419.036 218.021L417.865 219.643C418.545 220.134 419.223 220.655 419.912 221.192L421.141 219.614ZM419.036 218.021L420.206 216.399C419.465 215.865 418.711 215.353 417.958 214.857L416.858 216.528L415.758 218.198C416.481 218.674 417.185 219.152 417.865 219.643L419.036 218.021ZM416.858 216.528L417.958 214.857C417.571 214.602 417.187 214.359 416.82 214.13L415.76 215.826L414.7 217.522C415.053 217.742 415.407 217.967 415.758 218.198L416.858 216.528ZM415.76 215.826L416.805 214.121L416.248 213.779L415.202 215.484L414.157 217.189L414.715 217.531L415.76 215.826ZM415.202 215.484L416.231 213.769L415.826 213.526L414.797 215.241L413.769 216.956L414.173 217.199L415.202 215.484ZM414.797 215.241L415.606 213.412L414.445 212.899L413.637 214.728L412.828 216.557L413.989 217.07L414.797 215.241ZM413.637 214.728L414.446 212.899C413.921 212.667 413.418 212.428 412.863 212.169L412.017 213.981L411.171 215.794C411.696 216.038 412.254 216.303 412.827 216.557L413.637 214.728ZM412.017 213.981L412.829 212.154L412.667 212.082L411.855 213.909L411.043 215.737L411.205 215.809L412.017 213.981ZM411.855 213.909L412.708 212.1C412.213 211.867 411.765 211.659 411.323 211.434L410.415 213.216L409.507 214.998C410.019 215.259 410.543 215.502 411.002 215.718L411.855 213.909ZM410.415 213.216L411.278 211.412L411.071 211.313L410.208 213.117L409.345 214.922L409.552 215.021L410.415 213.216ZM410.208 213.117L411.075 211.315C410.614 211.093 410.183 210.882 409.758 210.657L408.823 212.424L407.887 214.192C408.38 214.453 408.867 214.691 409.342 214.92L410.208 213.117ZM408.823 212.424L409.754 210.655L408.215 209.845L407.284 211.615L406.352 213.384L407.891 214.194L408.823 212.424ZM407.284 211.615L408.23 209.852C407.878 209.664 407.506 209.456 407.116 209.238L406.141 210.985L405.166 212.731C405.55 212.945 405.952 213.17 406.338 213.377L407.284 211.615ZM406.141 210.985L407.129 209.246L405.879 208.535L404.89 210.274L403.902 212.013L405.153 212.724L406.141 210.985ZM404.89 210.274L405.87 208.53C405.188 208.147 404.48 207.457 404.006 206.624C403.534 205.792 403.381 204.98 403.52 204.306L401.561 203.903L399.602 203.5C399.219 205.364 399.714 207.165 400.528 208.599C401.342 210.031 402.56 211.258 403.911 212.017L404.89 210.274ZM401.561 203.903L403.522 204.295C403.568 204.064 403.7 203.653 404.052 203.28C404.374 202.938 405.028 202.468 406.417 202.319L406.204 200.331L405.991 198.342C403.763 198.581 402.19 199.424 401.142 200.536C400.124 201.616 399.743 202.797 399.6 203.511L401.561 203.903ZM407.149 200.484L406.339 202.313L408.148 203.113L408.958 201.285L409.767 199.456L407.959 198.655L407.149 200.484ZM408.958 201.285L408.156 203.117C408.205 203.138 408.248 203.159 408.336 203.199C408.41 203.233 408.519 203.283 408.638 203.331L409.381 201.474L410.123 199.617C410 199.567 410.063 199.585 409.759 199.452L408.958 201.285ZM409.381 201.474L408.642 203.332L409.388 203.629L410.127 201.771L410.866 199.912L410.119 199.615L409.381 201.474ZM410.127 201.771L409.37 203.622L409.964 203.865L410.721 202.013L411.479 200.162L410.885 199.919L410.127 201.771ZM410.721 202.013L409.948 203.858C410.224 203.974 410.523 204.099 410.843 204.225L411.576 202.364L412.309 200.504C412.036 200.396 411.776 200.287 411.495 200.169L410.721 202.013ZM411.576 202.364L410.852 204.229L412.382 204.823L413.106 202.958L413.83 201.094L412.3 200.5L411.576 202.364ZM413.106 202.958L412.411 204.834C412.533 204.879 412.654 204.924 412.776 204.969C412.897 205.014 413.019 205.059 413.14 205.104L413.835 203.228L414.529 201.353C414.408 201.308 414.286 201.263 414.165 201.218C414.043 201.173 413.922 201.128 413.8 201.083L413.106 202.958ZM413.835 203.228L413.146 205.106C413.423 205.207 413.654 205.293 413.871 205.382L414.636 203.534L415.4 201.686C415.095 201.56 414.786 201.447 414.523 201.35L413.835 203.228ZM414.636 203.534L413.905 205.396C414.393 205.587 414.92 205.771 415.344 205.926L416.03 204.047L416.717 202.169C416.205 201.982 415.796 201.841 415.366 201.672L414.636 203.534ZM416.03 204.047L415.347 205.927L415.446 205.963L416.129 204.083L416.813 202.204L416.714 202.168L416.03 204.047ZM416.129 204.083L415.438 205.96C415.956 206.151 416.52 206.343 416.977 206.506L417.65 204.623L418.323 202.739C417.772 202.543 417.328 202.393 416.821 202.206L416.129 204.083ZM417.65 204.623L417.004 206.516L417.769 206.777L418.415 204.884L419.061 202.991L418.296 202.73L417.65 204.623ZM418.415 204.884L417.789 206.784L418.527 207.027L419.153 205.127L419.778 203.227L419.04 202.984L418.415 204.884ZM419.153 205.127L418.52 207.024C418.587 207.047 418.671 207.081 418.735 207.114L419.63 205.325L420.524 203.536C420.3 203.424 420.042 203.315 419.785 203.23L419.153 205.127ZM419.63 205.325L418.75 207.121L419.632 207.553L420.511 205.757L421.391 203.961L420.509 203.529L419.63 205.325ZM420.511 205.757L419.599 207.537L420.319 207.906L421.231 206.126L422.143 204.346L421.424 203.977L420.511 205.757ZM421.231 206.126L420.311 207.901C420.779 208.144 421.232 208.388 421.681 208.635L422.644 206.882L423.606 205.128C423.138 204.871 422.656 204.611 422.152 204.35L421.231 206.126ZM422.644 206.882L421.681 208.635C422.566 209.12 423.457 209.644 424.334 210.176L425.37 208.465L426.407 206.755C425.502 206.206 424.558 205.651 423.606 205.128L422.644 206.882ZM425.37 208.465L424.321 210.168C425.188 210.702 426.057 211.264 426.912 211.836L428.025 210.175L429.138 208.513C428.247 207.916 427.335 207.327 426.42 206.763L425.37 208.465ZM428.025 210.175L426.892 211.823C426.97 211.877 427.046 211.928 427.115 211.975C427.185 212.022 427.249 212.066 427.315 212.111L428.448 210.463L429.581 208.815C429.502 208.761 429.427 208.71 429.358 208.663C429.288 208.615 429.223 208.572 429.158 208.527L428.025 210.175ZM428.448 210.463L429.342 212.252C429.337 212.254 429.338 212.253 429.346 212.251C429.353 212.248 429.364 212.244 429.378 212.239L428.79 210.328L428.202 208.416C427.999 208.479 427.777 208.562 427.553 208.674L428.448 210.463ZM428.79 210.328L429.383 212.238C429.675 212.147 430.072 212.085 430.571 212.085V210.085V208.085C429.757 208.085 428.949 208.184 428.197 208.418L428.79 210.328ZM430.571 210.085V212.085C431.641 212.085 432.995 212.366 434.308 212.797C435.627 213.23 436.704 213.747 437.223 214.092L438.328 212.424L439.433 210.757C438.513 210.148 437.074 209.495 435.556 208.997C434.033 208.497 432.229 208.085 430.571 208.085V210.085ZM438.328 212.424L437.221 214.09C440.652 216.369 442.526 218.811 444.155 220.938L445.742 219.722L447.33 218.506C445.665 216.332 443.455 213.429 439.435 210.759L438.328 212.424ZM445.742 219.722L444.142 220.922C444.456 221.341 444.767 221.736 445.063 222.105L446.624 220.856L448.186 219.606C447.905 219.255 447.622 218.895 447.342 218.522L445.742 219.722ZM446.624 220.856L445.065 222.108L445.613 222.792L447.173 221.54L448.733 220.288L448.184 219.604L446.624 220.856ZM447.173 221.54L445.62 222.799C447.113 224.641 450.586 228.924 454.691 234.829L456.333 233.687L457.975 232.546C453.785 226.519 450.239 222.145 448.727 220.28L447.173 221.54ZM456.333 233.687L454.797 234.968L454.842 235.022L456.378 233.741L457.915 232.461L457.87 232.407L456.333 233.687ZM456.378 233.741L454.879 235.065C454.984 235.183 455.083 235.304 455.187 235.437L456.765 234.209L458.344 232.981C458.195 232.79 458.043 232.605 457.878 232.418L456.378 233.741ZM456.765 234.209L455.195 235.447C459.586 241.018 463.52 248.044 466.224 255.174L468.094 254.464L469.964 253.755C467.125 246.271 462.997 238.883 458.336 232.971L456.765 234.209ZM468.094 254.464L466.222 255.167C475.667 280.349 474.382 307.732 471.596 326.389L473.574 326.684L475.552 326.98C478.381 308.041 479.759 279.869 469.967 253.762L468.094 254.464ZM473.574 326.684L471.609 326.31C469.374 338.04 460.947 341.988 454.507 341.988V343.988V345.988C462.608 345.988 472.897 340.919 475.539 327.059L473.574 326.684ZM454.507 343.988L453.091 342.575L453.082 342.584L454.498 343.997L455.914 345.409L455.923 345.4L454.507 343.988ZM406.204 200.331L405.885 202.305L406.829 202.458L407.149 200.484L407.469 198.509L406.524 198.357L406.204 200.331Z" fill="black"/>
<path d="M465.088 237.487C469.728 239.857 468.538 251.457 462.438 263.387C456.338 275.317 447.628 283.057 442.988 280.687C442.698 280.537 442.428 280.357 442.188 280.137" stroke="#FF0077" stroke-width="4" stroke-linecap="round"/>
<path d="M441.008 293.547C440.548 292.997 440.188 292.307 439.918 291.497" stroke="#FF0077" stroke-width="4" stroke-linecap="round"/>
<path d="M467.568 248.347C472.528 251.067 470.888 263.617 463.888 276.387C456.888 289.147 447.198 297.287 442.228 294.567C441.758 294.307 441.358 293.967 440.998 293.547" stroke="#FF0077" stroke-width="4" stroke-linecap="round"/>
<path d="M405.73 154.247V149.997" stroke="white" stroke-width="4" stroke-linecap="round"/>
<path d="M392.26 168.157H388" stroke="white" stroke-width="4" stroke-linecap="round"/>
<path d="M394.54 155.737L391.51 152.757" stroke="white" stroke-width="4" stroke-linecap="round"/>
<path d="M156.558 248.997L157.572 250.721L159.289 249.711L158.287 247.991L156.558 248.997ZM144.486 253.776C143.534 254.336 143.216 255.562 143.776 256.514C144.336 257.466 145.562 257.784 146.514 257.224L144.486 253.776ZM176.058 209.997L175.779 208.016C169.047 208.966 159.706 212.139 154.054 218.846C151.184 222.252 149.286 226.552 149.196 231.821C149.107 237.055 150.804 243.087 154.83 250.003L156.558 248.997L158.287 247.991C154.513 241.507 153.122 236.193 153.196 231.889C153.268 227.618 154.783 224.188 157.113 221.423C161.861 215.788 170.07 212.861 176.338 211.977L176.058 209.997ZM156.558 248.997L155.545 247.273L144.486 253.776L145.5 255.5L146.514 257.224L157.572 250.721L156.558 248.997Z" fill="white"/>
<path d="M247.5 168C247.834 163.833 245.5 151.5 245.5 151.5C242.448 151.5 232.118 150.258 226.891 145.138C226.283 144.543 225.132 144.744 224.821 145.536C221.634 153.636 211.464 165.426 190.5 168V182.75C190.5 185.649 188.15 188 185.25 188C182.351 188 180 185.649 180 182.75V173.5C177.167 173.5 170.45 173 168.5 179.5C167 184.5 167.5 187 168.5 190.5" stroke="black" stroke-width="4"/>
<path d="M294.558 128.418C293.482 128.668 292.812 129.742 293.062 130.818C293.312 131.894 294.386 132.564 295.462 132.314L294.558 128.418ZM327.09 132.866L326.38 134.736L326.38 134.736L327.09 132.866ZM365.75 165.756L364.121 166.917L364.121 166.917L365.75 165.756ZM371.23 174L372.935 172.955L372.909 172.912L372.881 172.871L371.23 174ZM375.149 268.526L373.674 269.877L376.377 272.826L377.851 271.474L375.149 268.526ZM295.01 130.366L295.462 132.314C305.934 129.884 316.279 130.901 326.38 134.736L327.09 132.866L327.8 130.996C317.041 126.911 305.886 125.788 294.558 128.418L295.01 130.366ZM327.09 132.866L326.38 134.736C342.155 140.723 354.28 153.106 364.121 166.917L365.75 165.756L367.379 164.595C357.34 150.506 344.645 137.389 327.8 130.996L327.09 132.866ZM365.75 165.756L364.121 166.917C365.054 168.224 365.937 169.572 366.833 170.953C367.722 172.325 368.63 173.74 369.579 175.129L371.23 174L372.881 172.871C371.967 171.534 371.094 170.173 370.189 168.777C369.291 167.392 368.366 165.98 367.379 164.595L365.75 165.756ZM371.23 174L369.525 175.045C377.104 187.413 384.316 205.649 386.666 223.449C389.025 241.323 386.424 258.19 375.149 268.526L376.5 270L377.851 271.474C390.576 259.81 393.052 241.261 390.632 222.926C388.202 204.518 380.779 185.754 372.935 172.955L371.23 174Z" fill="white"/>
<circle cx="406" cy="170" r="5" fill="black"/>
</svg>
