<svg width="322" height="335" viewBox="0 0 322 335" fill="none" xmlns="http://www.w3.org/2000/svg">
<path d="M144.38 278.78C148.99 288.05 155.43 290.22 164.7 285.61C173.97 281 176.13 274.56 171.53 265.29L168.14 258.46L140.99 271.96L144.38 278.79V278.78Z" fill="#FF0077" stroke="black" stroke-width="4"/>
<path d="M160.98 198.96C160.78 199.06 160.6 199.16 160.4 199.27C142.75 172 118.53 167.17 84.8403 183.92C51.1503 200.67 40.3903 222.9 51.4703 253.43C51.2703 253.52 51.0803 253.6 50.8803 253.7C42.2603 257.98 40.0703 263.59 43.9403 271.38C47.8103 279.17 53.6103 280.8 62.2203 276.52C62.4803 276.39 62.7103 276.26 62.9603 276.13C80.5403 302.26 104.52 306.67 137.67 290.19C170.82 273.71 181.78 251.92 171.56 222.14C171.81 222.02 172.06 221.92 172.32 221.79C180.94 217.51 183.13 211.9 179.26 204.11C175.39 196.32 169.59 194.69 160.98 198.97V198.96Z" fill="#FF0077" stroke="black" stroke-width="4"/>
<path d="M97.2018 229.214C99.1949 228.223 100.013 225.816 99.0302 223.838C98.0469 221.86 95.6341 221.059 93.641 222.05C91.6479 223.041 90.8293 225.447 91.8126 227.426C92.7959 229.404 95.2088 230.204 97.2018 229.214Z" fill="black"/>
<path d="M122.184 240.16C126.461 239.6 129.367 234.861 128.674 229.577C127.981 224.293 123.952 220.463 119.675 221.024C115.399 221.585 112.493 226.323 113.186 231.608C113.879 236.892 117.908 240.721 122.184 240.16Z" fill="black"/>
<path d="M124.725 206.748C126.718 205.757 127.537 203.35 126.554 201.372C125.57 199.394 123.158 198.593 121.164 199.584C119.171 200.574 118.353 202.981 119.336 204.959C120.319 206.938 122.732 207.738 124.725 206.748Z" fill="black"/>
<path d="M90.7198 268.27C96.1797 265.556 98.4238 258.966 95.732 253.551C93.0402 248.135 86.432 245.945 80.972 248.659C75.5121 251.373 73.2681 257.963 75.9598 263.379C78.6516 268.794 85.2599 270.984 90.7198 268.27Z" fill="white"/>
<path d="M151.277 231.439C156.737 228.725 158.981 222.135 156.29 216.719C153.598 211.304 146.99 209.114 141.53 211.828C136.07 214.542 133.826 221.132 136.517 226.547C139.209 231.963 145.817 234.153 151.277 231.439Z" fill="white"/>
<path d="M84.8404 183.91C84.8404 183.91 79.2204 177.18 80.4504 170.9" stroke="black" stroke-width="4" stroke-linecap="round"/>
<path d="M88.54 182.07C88.54 182.07 87.15 173.41 91.41 168.64" stroke="black" stroke-width="4" stroke-linecap="round"/>
<path d="M148.59 119.64H276.89C285.43 119.64 292.36 126.57 292.36 135.11V290.99C292.36 296.03 288.27 300.12 283.23 300.12H142.25C137.21 300.12 133.12 296.03 133.12 290.99V135.11C133.12 126.57 140.05 119.64 148.59 119.64Z" fill="#FF0077" stroke="black" stroke-width="4"/>
<path d="M292.35 165.49H133.12V216.3H292.35V165.49Z" fill="black"/>
<path d="M292.35 216.29H133.12V239.16H292.35V216.29Z" fill="white" stroke="black" stroke-width="4"/>
<path d="M133.12 169.42C146.39 169.42 146.39 182.07 159.66 182.07C172.93 182.07 172.93 169.42 186.2 169.42C199.47 169.42 199.47 182.07 212.74 182.07C226.01 182.07 226.01 169.42 239.28 169.42C252.55 169.42 252.55 182.07 265.82 182.07C279.09 182.07 279.09 169.42 292.36 169.42" fill="#FF0077"/>
<path d="M133.12 170.61C146.39 170.61 146.39 182.07 159.66 182.07C172.93 182.07 172.93 170.61 186.2 170.61C199.47 170.61 199.47 182.07 212.74 182.07C226.01 182.07 226.01 170.61 239.28 170.61C252.55 170.61 252.55 182.07 265.82 182.07C279.09 182.07 279.09 170.61 292.36 170.61V131.08C292.36 124.76 287.34 119.63 281.14 119.63H144.34C138.14 119.63 133.12 124.75 133.12 131.08V170.61Z" fill="white" stroke="black" stroke-width="4"/>
<path d="M34.2397 144.35L102.62 173C104.96 173.98 105.45 177.08 103.53 178.73L53.4097 221.94C51.4897 223.6 48.4997 222.65 47.8697 220.2L29.6097 148.34C28.9197 145.61 31.6397 143.26 34.2397 144.35Z" fill="white" stroke="black" stroke-width="4"/>
<path d="M76.4299 162.03C69.4299 194.71 46.5599 215.01 46.5599 215.01L39.6699 187.91C39.6699 187.91 51.2499 174.19 56.8099 153.81L76.4299 162.03Z" fill="#FF0077" stroke="black" stroke-width="4"/>
<path d="M165.831 83.6802C168.281 83.6802 170.271 85.6702 170.271 88.1202V119.23H161.381V88.1202C161.381 85.6702 163.371 83.6802 165.821 83.6802H165.831Z" fill="white" stroke="black" stroke-width="4"/>
<path d="M176.22 65.6501C176.78 71.3701 171.56 76.0601 165.81 76.0601C160.06 76.0601 155.4 71.4001 155.4 65.6501C155.4 59.9001 158.36 53.3001 165.81 44.8301C165.81 44.8301 166.84 50.5901 169.62 55.5001C172.02 59.7401 175.71 60.4501 176.22 65.6601V65.6501Z" fill="#FF0077" stroke="black" stroke-width="4"/>
<path d="M212.729 83.6802C215.179 83.6802 217.169 85.6702 217.169 88.1202V119.23H208.279V88.1202C208.279 85.6702 210.269 83.6802 212.719 83.6802H212.729Z" fill="white" stroke="black" stroke-width="4"/>
<path d="M223.13 65.6501C223.69 71.3701 218.47 76.0601 212.72 76.0601C206.97 76.0601 202.31 71.4001 202.31 65.6501C202.31 59.9001 205.27 53.3001 212.72 44.8301C212.72 44.8301 213.75 50.5901 216.53 55.5001C218.93 59.7401 222.62 60.4501 223.13 65.6601V65.6501Z" fill="#FF0077" stroke="black" stroke-width="4"/>
<path d="M259.64 83.6802C262.09 83.6802 264.08 85.6702 264.08 88.1202V119.23H255.19V88.1202C255.19 85.6702 257.18 83.6802 259.63 83.6802H259.64Z" fill="white" stroke="black" stroke-width="4"/>
<path d="M270.03 65.6501C270.59 71.3701 265.37 76.0601 259.62 76.0601C253.87 76.0601 249.21 71.4001 249.21 65.6501C249.21 59.9001 252.17 53.3001 259.62 44.8301C259.62 44.8301 260.65 50.5901 263.43 55.5001C265.83 59.7401 269.52 60.4501 270.03 65.6601V65.6501Z" fill="#FF0077" stroke="black" stroke-width="4"/>
</svg>
