<svg width="200" height="200" viewBox="0 0 200 200" fill="none" xmlns="http://www.w3.org/2000/svg">
<path d="M100.89 108.663C67.83 108.663 41.09 103.183 20.37 91.9325C18.85 91.1025 17 92.2025 17 93.9425V104.773C17 161.663 43.4 189.083 100.31 189.083C157.22 189.083 183.62 161.663 183.62 104.773V94.5525C183.62 92.8325 181.8 91.7325 180.27 92.5325C159.71 103.373 133.35 108.663 100.88 108.663H100.89Z" fill="black"/>
<path d="M155.8 106.092C155.6 106.092 155.41 106.102 155.22 106.112C151.93 77.1322 134.38 63.5522 100.59 63.5522C66.8005 63.5522 49.2605 77.1222 45.9605 106.112C45.7605 106.112 45.5805 106.092 45.3805 106.092C36.7405 106.092 32.7305 109.722 32.7305 117.532C32.7305 125.342 36.7405 128.972 45.3805 128.972C45.6405 128.972 45.8805 128.962 46.1305 128.952C49.8205 156.992 67.3405 170.132 100.59 170.132C133.84 170.132 151.36 156.992 155.05 128.952C155.3 128.952 155.54 128.972 155.8 128.972C164.44 128.972 168.45 125.342 168.45 117.532C168.45 109.722 164.44 106.092 155.8 106.092Z" fill="#FF0077" stroke="black" stroke-width="4"/>
<path d="M63.4503 130.202C68.9289 130.202 73.3703 125.801 73.3703 120.372C73.3703 114.944 68.9289 110.542 63.4503 110.542C57.9716 110.542 53.5303 114.944 53.5303 120.372C53.5303 125.801 57.9716 130.202 63.4503 130.202Z" fill="white"/>
<path d="M137.72 130.202C143.198 130.202 147.64 125.801 147.64 120.372C147.64 114.944 143.198 110.542 137.72 110.542C132.241 110.542 127.8 114.944 127.8 120.372C127.8 125.801 132.241 130.202 137.72 130.202Z" fill="white"/>
<path d="M84.5801 115.512H117.79" stroke="black" stroke-width="4" stroke-linecap="round"/>
<path d="M175.13 35.6224C164.99 10.2424 102.61 11.0024 102.61 11.0024H100.58H100.44H100.3H98.2699C98.2699 11.0024 35.8999 10.2424 25.7499 35.6224C15.6099 61.0024 43.9199 106.112 43.9199 106.112C43.9199 106.112 47.1299 109.062 47.5599 106.112C49.4699 92.9524 55.9699 80.3124 63.2399 74.9324C64.9099 73.6924 66.4599 72.6824 67.9299 71.8424C74.3699 68.1424 82.5099 69.3324 87.7599 74.5824L96.1799 82.4124C98.6499 84.7124 102.48 84.6924 104.93 82.3624L113.12 74.5824C118.37 69.3324 126.51 68.1424 132.95 71.8424C134.42 72.6824 135.96 73.6924 137.64 74.9324C144.91 80.3124 151.4 92.9524 153.32 106.112C153.75 109.062 156.96 106.112 156.96 106.112C156.96 106.112 185.27 61.0124 175.13 35.6224Z" fill="black"/>
<path d="M82.4901 104.493C84.4894 104.493 86.1101 102.885 86.1101 100.903C86.1101 98.9198 84.4894 97.3125 82.4901 97.3125C80.4908 97.3125 78.8701 98.9198 78.8701 100.903C78.8701 102.885 80.4908 104.493 82.4901 104.493Z" fill="black"/>
<path d="M118.69 104.493C120.69 104.493 122.31 102.885 122.31 100.903C122.31 98.9198 120.69 97.3125 118.69 97.3125C116.691 97.3125 115.07 98.9198 115.07 100.903C115.07 102.885 116.691 104.493 118.69 104.493Z" fill="black"/>
<path d="M111.94 186.403C172.81 180.903 181.45 141.703 181.83 95.3826C181.83 94.6926 180.9 94.4726 180.6 95.0926C176.06 104.643 162.8 132.273 129.53 140.663C128.82 154.843 124.19 168.553 116.16 180.263L111.94 186.403Z" fill="white" stroke="black" stroke-width="4" stroke-miterlimit="10"/>
<path d="M88.8904 186.172C28.7004 183.562 18.5704 140.542 18.1904 94.2224C18.1904 93.5324 19.1204 93.3124 19.4204 93.9324C23.9604 103.482 38.0304 132.042 71.3004 140.432C72.0104 154.612 76.6404 168.322 84.6704 180.032L88.8904 186.172Z" fill="white" stroke="black" stroke-width="4" stroke-miterlimit="10"/>
</svg>
