<svg width="200" height="200" viewBox="0 0 200 200" fill="none" xmlns="http://www.w3.org/2000/svg">
<path d="M40.0596 91.7697C40.0596 91.7697 40.9296 54.2897 54.5196 38.7197C93.7596 -6.26029 168.86 21.5997 175.97 81.4997" fill="#FF0077"/>
<path d="M40.0596 91.7697C40.0596 91.7697 40.9296 54.2897 54.5196 38.7197C93.7596 -6.26029 168.86 21.5997 175.97 81.4997" stroke="black" stroke-width="4"/>
<path d="M180.5 74.7399C180.5 60.6499 173.96 54.1099 159.87 54.1099C145.77 54.1099 139.24 60.6499 139.24 74.7399C139.24 88.8299 145.78 95.3699 159.87 95.3699C173.97 95.3699 180.5 88.8299 180.5 74.7399Z" fill="white" stroke="black" stroke-width="4" stroke-linejoin="round"/>
<path d="M155.229 112.29C155.009 112.29 154.799 112.3 154.579 112.31C150.909 80.0399 131.379 64.9199 93.7595 64.9199C56.1395 64.9199 36.5995 80.0299 32.9295 112.31C32.7095 112.31 32.4995 112.29 32.2795 112.29C22.6595 112.29 18.1895 116.33 18.1895 125.03C18.1895 133.73 22.6495 137.77 32.2795 137.77C32.5695 137.77 32.8395 137.75 33.1195 137.75C37.2295 168.97 56.7395 183.6 93.7595 183.6C130.779 183.6 150.289 168.97 154.399 137.75C154.679 137.75 154.949 137.77 155.239 137.77C164.859 137.77 169.329 133.73 169.329 125.03C169.329 116.33 164.869 112.29 155.239 112.29H155.229Z" fill="#FF0077" stroke="black" stroke-width="4"/>
<path d="M73.5993 124.26C75.825 124.26 77.6293 122.469 77.6293 120.26C77.6293 118.051 75.825 116.26 73.5993 116.26C71.3736 116.26 69.5693 118.051 69.5693 120.26C69.5693 122.469 71.3736 124.26 73.5993 124.26Z" fill="black"/>
<path d="M113.909 124.26C116.135 124.26 117.939 122.469 117.939 120.26C117.939 118.051 116.135 116.26 113.909 116.26C111.683 116.26 109.879 118.051 109.879 120.26C109.879 122.469 111.683 124.26 113.909 124.26Z" fill="black"/>
<path d="M55.4091 152.69C61.5064 152.69 66.4491 147.788 66.4491 141.74C66.4491 135.693 61.5064 130.79 55.4091 130.79C49.3119 130.79 44.3691 135.693 44.3691 141.74C44.3691 147.788 49.3119 152.69 55.4091 152.69Z" fill="white"/>
<path d="M132.1 152.69C138.197 152.69 143.14 147.788 143.14 141.74C143.14 135.693 138.197 130.79 132.1 130.79C126.002 130.79 121.06 135.693 121.06 141.74C121.06 147.788 126.002 152.69 132.1 152.69Z" fill="white"/>
<path d="M87.9902 133.8C88.3102 134.57 88.7602 135.26 89.3302 135.84C89.9002 136.42 90.5702 136.89 91.3202 137.21C92.0702 137.53 92.8902 137.71 93.7502 137.71C94.6102 137.71 95.4402 137.53 96.1802 137.21C96.9202 136.89 97.6002 136.42 98.1702 135.84C98.7402 135.26 99.1902 134.57 99.5102 133.8" stroke="black" stroke-width="4" stroke-linecap="round"/>
<path d="M149.299 105.04C148.419 105.43 147.469 105.66 146.529 105.89C143.129 106.7 139.589 107.51 136.179 106.77C133.529 106.19 130.999 104.69 128.309 105.01C126.439 105.23 124.789 106.31 123.029 106.99C119.989 108.17 116.629 108.15 113.369 108.06C106.219 107.86 99.0795 107.36 91.9695 106.58C86.4395 105.97 80.8795 105.17 75.6795 103.18C73.6695 102.41 71.6195 101.45 69.4795 101.67C66.2595 102 63.9495 104.86 61.0495 106.32C57.7095 108 53.4495 107.64 50.4395 105.43C48.8595 104.27 47.5495 102.62 45.6695 102.06C44.1695 101.61 42.5595 101.95 40.9895 101.96C39.4195 101.96 37.6295 101.48 36.9595 100.06C36.5395 99.1698 37.3795 97.9598 36.7995 97.1598C32.9395 91.7898 34.0995 87.6598 33.6995 82.8998C33.3595 78.8398 38.2595 70.7898 40.1295 66.7298C43.0095 60.4498 49.5995 62.8598 56.5095 62.7098C68.9595 62.4398 81.4594 64.6998 93.8095 63.0998C95.9695 62.8198 98.1395 62.4198 100.319 62.5398C102.879 62.6798 105.349 63.5198 107.879 63.8898C110.069 64.2098 112.289 64.1598 114.499 64.1198C123.169 63.9498 131.849 63.7798 140.519 63.6098C141.789 63.5898 143.159 63.5998 144.159 64.3798C144.829 64.8998 145.239 65.7198 145.949 66.1698C146.909 66.7798 148.209 66.6198 149.159 67.2398C150.389 68.0498 150.509 69.7798 150.499 71.2598C150.469 75.3198 150.429 79.4698 149.119 83.3098C148.589 84.8698 147.869 86.6098 148.639 88.0698C149.569 89.8198 152.179 90.0798 153.159 91.8098C153.619 92.6198 153.629 93.5998 153.629 94.5298C153.629 98.2098 153.299 102.51 150.229 104.55C149.929 104.75 149.609 104.92 149.289 105.06L149.299 105.04Z" fill="white" stroke="black" stroke-width="4" stroke-linejoin="round"/>
<path d="M134.31 37.9497C134.31 37.9497 143.15 54.7097 144.17 64.3597L134.31 37.9497Z" fill="#FF0077"/>
<path d="M134.31 37.9497C134.31 37.9497 143.15 54.7097 144.17 64.3597" stroke="black" stroke-width="4" stroke-linecap="round"/>
</svg>
