<svg width="200" height="200" viewBox="0 0 200 200" fill="none" xmlns="http://www.w3.org/2000/svg">
<path d="M58.1699 155.06C58.1699 165.41 62.9699 170.22 73.3299 170.22C83.6899 170.22 88.4899 165.41 88.4899 155.06V147.44H58.1699V155.06Z" fill="#FF0077" stroke="black" stroke-width="4"/>
<path d="M110.64 155.06C110.64 165.41 115.44 170.22 125.8 170.22C136.16 170.22 140.96 165.41 140.96 155.06V147.44H110.64V155.06Z" fill="#FF0077" stroke="black" stroke-width="4"/>
<path d="M161.04 90.9701C160.82 90.9701 160.61 90.9801 160.39 90.9901C156.72 58.7201 137.19 43.6001 99.57 43.6001C61.95 43.6001 42.41 58.7101 38.74 90.9901C38.52 90.9901 38.31 90.9701 38.09 90.9701C28.47 90.9701 24 95.0101 24 103.71C24 112.41 28.46 116.45 38.09 116.45C38.38 116.45 38.65 116.43 38.93 116.43C43.04 147.65 62.55 162.28 99.57 162.28C136.59 162.28 156.1 147.65 160.21 116.43C160.49 116.43 160.76 116.45 161.05 116.45C170.67 116.45 175.14 112.41 175.14 103.71C175.14 95.0101 170.68 90.9701 161.05 90.9701H161.04Z" fill="#FF0077" stroke="black" stroke-width="4"/>
<path d="M79.4099 87.6401C81.6356 87.6401 83.4399 85.8493 83.4399 83.6401C83.4399 81.431 81.6356 79.6401 79.4099 79.6401C77.1842 79.6401 75.3799 81.431 75.3799 83.6401C75.3799 85.8493 77.1842 87.6401 79.4099 87.6401Z" fill="black"/>
<path d="M119.719 87.6401C121.945 87.6401 123.749 85.8493 123.749 83.6401C123.749 81.431 121.945 79.6401 119.719 79.6401C117.494 79.6401 115.689 81.431 115.689 83.6401C115.689 85.8493 117.494 87.6401 119.719 87.6401Z" fill="black"/>
<path d="M61.2197 115.73C67.3169 115.73 72.2597 110.828 72.2597 104.78C72.2597 98.7326 67.3169 93.8301 61.2197 93.8301C55.1224 93.8301 50.1797 98.7326 50.1797 104.78C50.1797 110.828 55.1224 115.73 61.2197 115.73Z" fill="white"/>
<path d="M137.91 115.73C144.007 115.73 148.95 110.828 148.95 104.78C148.95 98.7326 144.007 93.8301 137.91 93.8301C131.813 93.8301 126.87 98.7326 126.87 104.78C126.87 110.828 131.813 115.73 137.91 115.73Z" fill="white"/>
<path d="M93.7998 97.1802C94.1198 97.9502 94.5698 98.6402 95.1398 99.2202C95.7098 99.8002 96.3798 100.27 97.1298 100.59C97.8798 100.91 98.6998 101.09 99.5598 101.09C100.42 101.09 101.25 100.91 101.99 100.59C102.73 100.27 103.41 99.8002 103.98 99.2202C104.55 98.6402 105 97.9502 105.32 97.1802" stroke="black" stroke-width="4" stroke-linecap="round"/>
<path d="M99.5704 43.61C99.5704 43.61 97.5405 35.08 101.43 30" stroke="black" stroke-width="4" stroke-linecap="round"/>
<path d="M103.7 43.6099C103.7 43.6099 106.31 35.2399 112.25 32.8599" stroke="black" stroke-width="4" stroke-linecap="round"/>
</svg>
