<svg width="200" height="200" viewBox="0 0 200 200" fill="none" xmlns="http://www.w3.org/2000/svg">
<path d="M100.06 43.11C100.06 43.11 98.0297 34.58 101.92 29.5" stroke="black" stroke-width="4" stroke-linecap="round"/>
<path d="M104.19 43.1099C104.19 43.1099 106.8 34.7399 112.74 32.3599" stroke="black" stroke-width="4" stroke-linecap="round"/>
<path d="M58.6602 154.56C58.6602 164.91 63.4602 169.72 73.8202 169.72C84.1802 169.72 88.9802 164.91 88.9802 154.56V146.94H58.6602V154.56Z" fill="#FF0077" stroke="black" stroke-width="4"/>
<path d="M111.14 154.56C111.14 164.91 115.94 169.72 126.3 169.72C136.66 169.72 141.46 164.91 141.46 154.56V146.94H111.14V154.56Z" fill="#FF0077" stroke="black" stroke-width="4"/>
<path d="M161.54 90.4701C161.32 90.4701 161.11 90.4801 160.89 90.4901C157.22 58.2201 137.69 43.1001 100.07 43.1001C62.45 43.1001 42.91 58.2101 39.24 90.4901C39.02 90.4901 38.81 90.4701 38.59 90.4701C28.97 90.4701 24.5 94.5101 24.5 103.21C24.5 111.91 28.96 115.95 38.59 115.95C38.88 115.95 39.15 115.93 39.43 115.93C43.54 147.15 63.05 161.78 100.07 161.78C137.09 161.78 156.6 147.15 160.71 115.93C160.99 115.93 161.26 115.95 161.55 115.95C171.17 115.95 175.64 111.91 175.64 103.21C175.64 94.5101 171.18 90.4701 161.55 90.4701H161.54Z" fill="#FF0077" stroke="black" stroke-width="4"/>
<path d="M120.22 87.1401C122.446 87.1401 124.25 85.3493 124.25 83.1401C124.25 80.931 122.446 79.1401 120.22 79.1401C117.995 79.1401 116.19 80.931 116.19 83.1401C116.19 85.3493 117.995 87.1401 120.22 87.1401Z" fill="black"/>
<path d="M61.7099 115.23C67.8071 115.23 72.7499 110.328 72.7499 104.28C72.7499 98.2326 67.8071 93.3301 61.7099 93.3301C55.6127 93.3301 50.6699 98.2326 50.6699 104.28C50.6699 110.328 55.6127 115.23 61.7099 115.23Z" fill="white"/>
<path d="M138.41 115.23C144.507 115.23 149.45 110.328 149.45 104.28C149.45 98.2326 144.507 93.3301 138.41 93.3301C132.313 93.3301 127.37 98.2326 127.37 104.28C127.37 110.328 132.313 115.23 138.41 115.23Z" fill="white"/>
<path d="M76.6602 83.1401H84.6802" stroke="black" stroke-width="4" stroke-linecap="round"/>
<path d="M100.06 90.9C101.1 90.35 102.4 90.02 103.82 90.02C107.24 90.02 110.02 91.95 110.02 94.33C110.02 96.71 107.24 98.64 103.82 98.64" stroke="black" stroke-width="4" stroke-linecap="round"/>
<path d="M99.4297 105.98C100.55 106.76 102.1 107.24 103.81 107.24C107.23 107.24 110.01 105.31 110.01 102.93C110.01 100.55 107.23 98.6201 103.81 98.6201" stroke="black" stroke-width="4" stroke-linecap="round"/>
<path fill-rule="evenodd" clip-rule="evenodd" d="M150.071 42.9207C147.927 38.8516 143.696 36.1943 139.114 36.2951C137.058 36.3389 135.014 36.8519 133.234 37.8823C128.748 40.4386 126.806 45.5337 126.67 50.5367C126.407 58.8853 130.739 67.6022 135.176 74.1619C135.478 74.6092 135.899 74.846 136.439 74.8723C144.349 75.2582 154.048 74.4341 161.046 69.874C165.251 67.1599 168.557 62.9243 168.452 57.6932C168.408 55.6368 167.786 53.6242 166.795 51.7738C164.502 47.8055 160.034 45.5692 155.443 45.8498L151.9 46.0734L150.071 42.9207Z" fill="black" stroke="black" stroke-width="4" stroke-miterlimit="10"/>
</svg>
