<svg width="200" height="200" viewBox="0 0 200 200" fill="none" xmlns="http://www.w3.org/2000/svg">
<path d="M39 85.48C39 43.5 58.48 24 100.48 24C142.48 24 161.96 43.49 161.96 85.48V163.8C161.96 170.11 154.24 173.26 149.89 168.68C147.82 166.5 145.4 164.74 141.47 164.74C131.22 164.74 131.22 176.74 120.98 176.74C110.73 176.74 110.73 164.74 100.49 164.74C90.24 164.74 90.24 176.74 80 176.74C69.75 176.74 69.75 164.74 59.51 164.74C55.58 164.74 53.16 166.51 51.08 168.68C46.73 173.25 39.01 170.11 39.01 163.8V85.48H39Z" fill="white" stroke="black" stroke-width="4" stroke-linejoin="round"/>
<path d="M80.32 71.3799C82.5457 71.3799 84.35 69.589 84.35 67.3799C84.35 65.1707 82.5457 63.3799 80.32 63.3799C78.0943 63.3799 76.29 65.1707 76.29 67.3799C76.29 69.589 78.0943 71.3799 80.32 71.3799Z" fill="black"/>
<path d="M120.63 71.3799C122.855 71.3799 124.66 69.589 124.66 67.3799C124.66 65.1707 122.855 63.3799 120.63 63.3799C118.404 63.3799 116.6 65.1707 116.6 67.3799C116.6 69.589 118.404 71.3799 120.63 71.3799Z" fill="black"/>
<path d="M62.1298 99.4698C68.2271 99.4698 73.1698 94.5673 73.1698 88.5198C73.1698 82.4723 68.2271 77.5698 62.1298 77.5698C56.0326 77.5698 51.0898 82.4723 51.0898 88.5198C51.0898 94.5673 56.0326 99.4698 62.1298 99.4698Z" fill="#FF0077"/>
<path d="M138.82 99.4698C144.917 99.4698 149.86 94.5673 149.86 88.5198C149.86 82.4723 144.917 77.5698 138.82 77.5698C132.723 77.5698 127.78 82.4723 127.78 88.5198C127.78 94.5673 132.723 99.4698 138.82 99.4698Z" fill="#FF0077"/>
<path d="M94.71 80.9199C95.03 81.6899 95.48 82.3799 96.05 82.9599C96.62 83.5399 97.29 84.0099 98.04 84.3299C98.79 84.6499 99.61 84.8299 100.47 84.8299C101.33 84.8299 102.16 84.6499 102.9 84.3299C103.65 84.0099 104.32 83.5399 104.89 82.9599C105.46 82.3799 105.91 81.6899 106.23 80.9199" stroke="black" stroke-width="4" stroke-linecap="round"/>
</svg>
