<svg width="292" height="205" viewBox="0 0 292 205" fill="none" xmlns="http://www.w3.org/2000/svg">
<path d="M246.81 82.4413C237.02 74.9913 222.99 77.0413 215.2 86.5613L179.33 130.381H68.68C56.15 130.381 46 140.541 46 153.061C46 165.591 56.16 175.741 68.68 175.741H176.29C191.82 175.741 206.53 168.771 216.37 156.751L250.65 114.871C258.76 104.961 257.09 90.2613 246.82 82.4413H246.81Z" fill="black"/>
<path d="M211.35 123.411C211.16 123.301 210.97 123.201 210.78 123.091C224.06 93.451 214.94 70.491 182.56 51.341C150.18 32.181 125.67 35.241 106.08 61.151C105.89 61.031 105.72 60.921 105.53 60.801C97.2502 55.901 91.3502 57.101 86.9202 64.591C82.4902 72.081 84.2702 77.831 92.5602 82.731C92.8102 82.881 93.0502 83.001 93.2902 83.141C80.9302 112.101 90.2702 134.631 122.13 153.481C153.99 172.331 178.23 169.681 197.67 144.901C197.91 145.051 198.13 145.201 198.38 145.341C206.66 150.241 212.56 149.041 216.99 141.551C221.42 134.061 219.64 128.311 211.35 123.411Z" fill="#FF0077" stroke="black" stroke-width="4"/>
<path d="M137.89 71.4212C139.015 69.5199 138.374 67.0599 136.458 65.9266C134.542 64.7933 132.078 65.4159 130.953 67.3172C129.828 69.2185 130.469 71.6785 132.384 72.8118C134.3 73.9451 136.765 73.3225 137.89 71.4212Z" fill="black"/>
<path d="M172.579 91.9452C173.704 90.0439 173.063 87.5838 171.147 86.4505C169.232 85.3172 166.767 85.9398 165.642 87.8411C164.517 89.7424 165.158 92.2024 167.074 93.3357C168.989 94.469 171.454 93.8465 172.579 91.9452Z" fill="black"/>
<path d="M115.704 93.2573C118.783 88.0524 117.025 81.3163 111.778 78.2116C106.53 75.107 99.78 76.8095 96.7007 82.0143C93.6213 87.2191 95.379 93.9553 100.627 97.0599C105.874 100.165 112.625 98.4621 115.704 93.2573Z" fill="white"/>
<path d="M181.723 132.315C184.803 127.11 183.045 120.374 177.797 117.269C172.55 114.165 165.8 115.867 162.72 121.072C159.641 126.277 161.399 133.013 166.646 136.118C171.894 139.222 178.644 137.52 181.723 132.315Z" fill="white"/>
<path d="M140.47 91.5611C139.69 91.2911 138.87 91.1711 138.06 91.2111C137.25 91.2511 136.45 91.4411 135.71 91.7911C134.97 92.1411 134.29 92.6311 133.72 93.2811C133.15 93.9311 132.74 94.6611 132.48 95.4411C132.22 96.2211 132.13 97.0311 132.19 97.8411C132.25 98.6511 132.46 99.4511 132.83 100.191" stroke="black" stroke-width="4" stroke-linecap="round"/>
<path d="M182.56 51.341C182.56 51.341 185.15 42.9611 191.09 40.5811" stroke="black" stroke-width="4" stroke-linecap="round"/>
<path d="M186.11 53.4408C186.11 53.4408 192.62 47.5608 198.94 48.5408" stroke="black" stroke-width="4" stroke-linecap="round"/>
<path d="M153.76 70.5409C144.93 85.3109 133.98 88.0809 119.2 79.2509C104.42 70.4209 101.67 59.4609 110.49 44.6909L153.76 70.5509V70.5409Z" fill="black"/>
<path d="M201.85 99.2812C193.02 114.051 182.07 116.821 167.29 107.991C152.51 99.1612 149.76 88.2012 158.58 73.4312L201.85 99.2912V99.2812Z" fill="black"/>
<path d="M64.5798 122.121L90.4198 137.131C91.4398 137.721 92.7298 137.421 93.3998 136.451L107.33 116.011L119.11 98.721C119.84 97.651 119.51 96.171 118.38 95.521L86.8498 77.211C85.7298 76.561 84.2798 77.001 83.7098 78.161L63.6898 119.191C63.1698 120.251 63.5598 121.521 64.5798 122.111V122.121Z" fill="white" stroke="black" stroke-width="4"/>
<path d="M70.7703 104.691L114.66 105.041L92.2303 138.171L62.7803 121.071L70.7703 104.691Z" fill="black"/>
<path d="M79.4805 86.5611C73.8905 83.7811 71.5905 77.0311 74.3505 71.4811C77.1105 65.9411 83.8805 63.7011 89.4705 66.4811C95.0605 69.2611 97.3605 76.0111 94.6005 81.5611L86.6505 76.9411C85.6705 76.3711 84.4105 76.7511 83.9005 77.7611L79.4805 86.5611Z" fill="white" stroke="black" stroke-width="4"/>
<path d="M84.0703 128.341L115.68 90.7711C117.67 88.3711 121.11 87.7511 123.81 89.3211L132.88 94.5911" stroke="black" stroke-width="4"/>
</svg>
