<svg width="400" height="400" viewBox="0 0 400 400" fill="none" xmlns="http://www.w3.org/2000/svg">
<g clip-path="url(#clip0_6454_1166)">
<path d="M102.71 140.92C120.499 140.92 134.92 126.499 134.92 108.71C134.92 90.9209 120.499 76.5 102.71 76.5C84.9209 76.5 70.5 90.9209 70.5 108.71C70.5 126.499 84.9209 140.92 102.71 140.92Z" fill="#FF0077" stroke="black" stroke-width="5"/>
<path d="M108.32 92.8098V124.6H101.19V97.7598L94.8301 104.71L91.0601 98.2998L101.6 92.7998H108.32V92.8098Z" fill="white"/>
<path d="M157.68 101.22H271.31" stroke="black" stroke-width="5" stroke-linecap="round"/>
<path d="M157.68 116.19H228.19" stroke="black" stroke-width="5" stroke-linecap="round"/>
<path d="M313.04 127.32C323.318 127.32 331.65 118.988 331.65 108.71C331.65 98.4321 323.318 90.1001 313.04 90.1001C302.762 90.1001 294.43 98.4321 294.43 108.71C294.43 118.988 302.762 127.32 313.04 127.32Z" fill="black"/>
<path fill-rule="evenodd" clip-rule="evenodd" d="M309.13 117.49C308.55 117.49 307.96 117.27 307.51 116.82L302.44 111.72C301.55 110.82 301.55 109.37 302.44 108.47C303.33 107.57 304.78 107.57 305.67 108.47L309.13 111.95L320.4 100.61C321.29 99.7101 322.74 99.7101 323.63 100.61C324.52 101.51 324.52 102.96 323.63 103.86L310.74 116.82C310.29 117.27 309.71 117.49 309.12 117.49H309.13Z" fill="white"/>
<path d="M102.71 232.05C120.499 232.05 134.92 217.629 134.92 199.84C134.92 182.051 120.499 167.63 102.71 167.63C84.9209 167.63 70.5 182.051 70.5 199.84C70.5 217.629 84.9209 232.05 102.71 232.05Z" fill="#FF0077" stroke="black" stroke-width="5"/>
<path d="M97.5799 209.03H114.47V215.37H90.4999V209.63L99.6099 203.06C103.31 200.38 107.06 197.23 107.06 193.39C107.06 190.38 105.49 188.95 102.43 188.95C97.8499 188.95 96.6499 191.86 98.1699 198.02L90.3499 197.19C88.6399 187.8 94.0499 182.52 102.38 182.52C109.69 182.52 114.59 186.68 114.59 192.93C114.59 199.59 110.47 203.02 103.3 206.35L97.5599 209.03H97.5799Z" fill="white"/>
<path d="M157.68 192.35H271.31" stroke="black" stroke-width="5" stroke-linecap="round"/>
<path d="M157.68 207.32H228.19" stroke="black" stroke-width="5" stroke-linecap="round"/>
<path d="M313.04 218.45C323.318 218.45 331.65 210.118 331.65 199.84C331.65 189.562 323.318 181.23 313.04 181.23C302.762 181.23 294.43 189.562 294.43 199.84C294.43 210.118 302.762 218.45 313.04 218.45Z" fill="black"/>
<path fill-rule="evenodd" clip-rule="evenodd" d="M309.13 208.58C308.55 208.58 307.96 208.36 307.51 207.91L302.44 202.81C301.55 201.91 301.55 200.46 302.44 199.56C303.33 198.66 304.78 198.66 305.67 199.56L309.13 203.04L320.4 191.7C321.29 190.8 322.74 190.8 323.63 191.7C324.52 192.6 324.52 194.05 323.63 194.95L310.74 207.91C310.29 208.36 309.71 208.58 309.12 208.58H309.13Z" fill="white"/>
<path d="M102.71 323.18C120.499 323.18 134.92 308.759 134.92 290.97C134.92 273.181 120.499 258.76 102.71 258.76C84.9209 258.76 70.5 273.181 70.5 290.97C70.5 308.759 84.9209 323.18 102.71 323.18Z" fill="#FF0077" stroke="black" stroke-width="5"/>
<path d="M115.67 298.29C115.67 303.29 111.32 307.59 102.95 307.59C94.5801 307.59 89.9501 303.38 89.8101 297.04L97.5401 296.16C97.5401 299.58 99.5801 301.3 103.18 301.3C106.37 301.3 108.5 299.96 108.5 297.32C108.5 294.96 106.79 293.57 102.39 293.66L98.6401 293.75V287.6L102.53 287.69C106.32 287.78 107.67 286.39 107.67 284.17C107.67 281.81 106.19 280.56 103.09 280.56C99.8101 280.56 98.2301 282.18 98.1401 285.6L90.4101 284.67C90.5501 278.47 94.9001 274.26 102.86 274.26C110.82 274.26 114.84 278.19 114.84 283.05C114.84 286.84 112.25 289.3 107.99 290.41C112.85 291.47 115.67 294.3 115.67 298.27V298.29Z" fill="white"/>
<path d="M157.68 283.48H271.31" stroke="black" stroke-width="5" stroke-linecap="round"/>
<path d="M157.68 298.45H228.19" stroke="black" stroke-width="5" stroke-linecap="round"/>
<path d="M313.04 309.58C323.318 309.58 331.65 301.248 331.65 290.97C331.65 280.692 323.318 272.36 313.04 272.36C302.762 272.36 294.43 280.692 294.43 290.97C294.43 301.248 302.762 309.58 313.04 309.58Z" fill="black"/>
<path fill-rule="evenodd" clip-rule="evenodd" d="M309.13 299.71C308.55 299.71 307.96 299.49 307.51 299.04L302.44 293.94C301.55 293.04 301.55 291.59 302.44 290.69C303.33 289.79 304.78 289.79 305.67 290.69L309.13 294.17L320.4 282.83C321.29 281.93 322.74 281.93 323.63 282.83C324.52 283.73 324.52 285.18 323.63 286.08L310.74 299.04C310.29 299.49 309.71 299.71 309.12 299.71H309.13Z" fill="white"/>
</g>
<defs>
<clipPath id="clip0_6454_1166">
<rect width="263.65" height="251.67" fill="white" transform="translate(68 74)"/>
</clipPath>
</defs>
</svg>
