<svg width="400" height="400" viewBox="0 0 400 400" fill="none" xmlns="http://www.w3.org/2000/svg">
<path d="M47.5 272.36L48.33 213.04C48.52 202.58 58.49 194.18 70.73 194.18H163.15C175.45 194.18 185.44 202.65 185.55 213.17L186.03 273.54C186.14 284.33 175.81 293.07 163.2 292.86L82.09 292.03L69.91 303.77C67.88 305.73 64.48 304.39 64.34 301.56L63.83 291.07C54.3 288.76 47.37 281.23 47.53 272.36H47.5Z" fill="#FF0077" stroke="black" stroke-width="4" stroke-miterlimit="10"/>
<path d="M354.88 214.81L353.64 125.99C353.36 110.33 338.43 97.75 320.109 97.75H181.74C163.33 97.75 148.36 110.44 148.2 126.18L147.49 216.56C147.33 232.71 162.79 245.8 181.68 245.48L303.13 244.23L321.37 261.81C324.42 264.75 329.5 262.73 329.72 258.51L330.49 242.81C344.77 239.36 355.13 228.08 354.89 214.8L354.88 214.81Z" fill="black"/>
<path d="M247.84 220.32C235.76 220.32 228.54 213.17 228.54 201.2C228.54 189.23 235.75 182.6 247.84 182.6C259.93 182.6 267.48 189.55 267.48 201.2C267.48 212.85 260.14 220.32 247.84 220.32ZM230.43 180.33V172.37C230.43 155.56 241.77 148.41 251.77 142.1C260.14 136.82 267.38 132.26 267.38 122.97C267.38 111.88 262.9 107.76 250.86 107.76C245.42 107.76 241.75 108.91 239.31 111.37C236.15 114.56 234.67 120.42 234.78 129.27L234.82 132.75L196.27 120.32L196.57 118.23C200.78 88.97 221.32 71.5 251.51 71.5C281.7 71.5 305.82 91.76 305.82 119.68C305.82 131.68 301.32 142.22 292.81 150.17C285.7 156.81 276.18 161.4 265.16 163.53V180.33H230.43Z" fill="white"/>
<path d="M251.51 74.0002C281.02 74.0002 303.32 92.3602 303.32 119.68C303.32 143.95 284.3 157.94 262.66 161.43V177.82H232.93V172.36C232.93 143.29 269.88 145.69 269.88 122.96C269.88 110.94 264.63 105.25 250.86 105.25C238.61 105.25 232.06 110.71 232.28 129.3L199.05 118.59C203.64 86.6802 226.82 74.0102 251.51 74.0102M247.84 185.1C258.86 185.1 264.98 190.88 264.98 201.2C264.98 211.52 258.85 217.82 247.84 217.82C236.83 217.82 231.04 211.87 231.04 201.2C231.04 190.53 237.16 185.1 247.84 185.1ZM251.51 69.0002C237.24 69.0002 224.52 72.9202 214.72 80.3402C203.38 88.9202 196.45 101.55 194.1 117.87L193.5 122.05L197.52 123.34L230.75 134.05L237.37 136.18L237.29 129.23C237.19 121.19 238.48 115.77 241.1 113.12C242.32 111.89 244.66 110.25 250.87 110.25C262.72 110.25 264.89 114.53 264.89 122.96C264.89 130.49 259.4 134.33 250.45 139.97C240.42 146.29 227.94 154.17 227.94 172.35V182.81H235.95C229.66 186.21 226.05 192.63 226.05 201.18C226.05 214.51 234.4 222.8 247.85 222.8C254.68 222.8 260.12 220.88 264.04 217.08C267.94 213.3 270 207.8 270 201.18C270 194.56 267.92 189.32 263.98 185.62C262.81 184.52 261.5 183.58 260.06 182.81H267.67V165.55C278.3 163.18 287.52 158.53 294.53 151.99C303.56 143.56 308.33 132.38 308.33 119.67C308.33 105.13 302.45 92.0302 291.76 82.8002C281.45 73.8902 267.16 68.9902 251.52 68.9902L251.51 69.0002Z" fill="black"/>
<path d="M97.8002 179.25C116.61 174.34 133.88 182.33 138.43 199.74C142.47 215.21 132.68 227.29 119.46 233.13L122.19 243.58L103.24 248.53L102.33 245.05C97.4902 226.52 121.44 221.9 117.66 207.41C115.66 199.75 111.36 197 102.59 199.29C94.7802 201.33 91.5102 205.9 94.7502 217.71L71.7802 216.41C69.3902 195.3 82.0502 183.37 97.8002 179.25ZM105.31 261.07C103.59 254.49 106.53 249.79 113.34 248.01C120.15 246.23 125.23 248.84 126.95 255.42C128.67 262 125.81 267.03 118.79 268.87C111.77 270.71 107.09 267.88 105.32 261.07H105.31Z" fill="black"/>
</svg>
