<svg width="400" height="400" viewBox="0 0 400 400" fill="none" xmlns="http://www.w3.org/2000/svg">
<g clip-path="url(#clip0_7325_428)">
<path d="M325.621 74.5073H93.5116C87.8993 74.5073 83.3496 79.057 83.3496 84.6693V328.124C83.3496 333.736 87.8993 338.286 93.5116 338.286H325.621C331.233 338.286 335.783 333.736 335.783 328.124V84.6693C335.783 79.057 331.233 74.5073 325.621 74.5073Z" fill="#FFD2DF"/>
<path d="M78.3998 247.648L86.3028 275.111L112.849 264.545C114.817 263.762 116.587 266.023 115.362 267.745L98.8212 291.044L123.637 305.214C125.478 306.265 124.814 309.062 122.704 309.181L94.1742 310.769L98.5683 338.999C98.8923 341.093 96.2922 342.318 94.8855 340.738L75.855 319.423L56.5242 340.461C55.0938 342.018 52.5095 340.753 52.8651 338.667L57.6623 310.501L29.1561 308.501C27.046 308.351 26.4296 305.546 28.2789 304.526L53.2919 290.712L37.0828 267.184C35.8816 265.446 37.6914 263.209 39.6434 264.015L66.0395 274.961L74.3297 247.616C74.9462 245.593 77.815 245.609 78.3998 247.648Z" fill="#FF0077" stroke="black" stroke-width="4"/>
<path d="M175.465 141.796H169.751C166.464 141.796 163.8 144.46 163.8 147.747V153.461C163.8 156.747 166.464 159.412 169.751 159.412H175.465C178.751 159.412 181.416 156.747 181.416 153.461V147.747C181.416 144.46 178.751 141.796 175.465 141.796Z" fill="white" stroke="black" stroke-width="4" stroke-linecap="round"/>
<path d="M213.304 190.85C213.304 163.134 200.446 150.26 172.714 150.26C144.982 150.26 132.124 163.134 132.124 190.85C132.124 218.566 144.982 231.44 172.714 231.44C200.272 231.63 213.304 218.566 213.304 190.85Z" fill="white" stroke="black" stroke-width="4"/>
<path d="M172.611 132.083V54.4834" stroke="black" stroke-width="4" stroke-linecap="round"/>
<path d="M168.471 140.429V136.224C168.471 133.94 170.32 132.083 172.612 132.083C174.904 132.083 176.753 133.932 176.753 136.224V140.429" stroke="black" stroke-width="4"/>
<path d="M289.797 246.44V140.776" stroke="black" stroke-width="4" stroke-linecap="round"/>
<path d="M295.677 256.801H283.609C280.323 256.801 277.658 259.465 277.658 262.752V274.82C277.658 278.106 280.323 280.771 283.609 280.771H295.677C298.964 280.771 301.628 278.106 301.628 274.82V262.752C301.628 259.465 298.964 256.801 295.677 256.801Z" fill="white" stroke="black" stroke-width="4" stroke-linecap="round"/>
<path d="M345.023 322.475C345.023 284.762 327.526 267.249 289.797 267.249C252.068 267.249 234.57 284.762 234.57 322.475C234.57 360.188 252.068 377.702 289.797 377.702C327.288 377.962 345.023 360.188 345.023 322.475Z" fill="#FF0077" stroke="black" stroke-width="4"/>
<path d="M284.154 257.512V251.933C284.154 248.898 286.612 246.44 289.647 246.44C292.682 246.44 295.139 248.898 295.139 251.933V257.512" stroke="black" stroke-width="4"/>
<path d="M310.455 270.331C308.084 289.298 296.23 305.895 279.634 314.588C261.457 324.072 248.022 341.458 244.86 361.216" fill="#FF0077"/>
<path d="M310.274 270.307C309.792 278.574 306.591 286.54 301.912 293.368C297.234 300.196 291.109 305.942 284.486 310.913C278.946 315.07 273.035 318.721 267.597 323.012C255.79 332.33 247.247 346.287 244.86 361.208" stroke="black" stroke-width="4"/>
<path d="M334.425 284.658C332.054 303.625 320.2 320.222 303.603 328.915C285.426 338.399 271.991 355.785 268.83 375.543" fill="#FF0077"/>
<path d="M334.243 284.635C333.761 292.901 330.561 300.868 325.882 307.696C321.203 314.524 315.079 320.269 308.456 325.24C302.916 329.397 297.004 333.049 291.567 337.34C279.76 346.658 271.217 360.614 268.83 375.535" stroke="black" stroke-width="4"/>
<path d="M253.852 76.3321V60.0361" stroke="black" stroke-width="4" stroke-linecap="round"/>
<path d="M249.71 92.6601V82.0543C249.71 79.7703 251.559 77.9131 253.851 77.9131C256.143 77.9131 257.992 79.7624 257.992 82.0543V90.4315" stroke="black" stroke-width="4"/>
<path d="M254.523 83.6113H253.171C251.093 85.2868 249.473 86.9543 247.979 88.6297C231.723 106.649 230.458 134.009 244.225 153.83C246.715 157.433 249.686 160.974 253.171 163.859H254.523C256.443 162.286 258.032 160.626 259.604 158.84C278.919 136.767 277.244 102.673 254.523 83.6113Z" fill="black"/>
<path d="M254.523 83.6113H253.171C251.093 85.2868 249.473 86.9543 247.979 88.6297C231.723 106.649 230.458 134.009 244.225 153.83C246.715 157.433 249.686 160.974 253.171 163.859H254.523C256.443 162.286 258.032 160.626 259.604 158.84C278.919 136.767 277.244 102.673 254.523 83.6113Z" fill="black"/>
<mask id="mask0_7325_428" style="mask-type:luminance" maskUnits="userSpaceOnUse" x="234" y="83" width="39" height="81">
<path d="M254.523 83.6113H253.171C251.093 85.2868 249.473 86.9543 247.979 88.6297C231.723 106.649 230.458 134.009 244.225 153.83C246.715 157.433 249.686 160.974 253.171 163.859H254.523C256.443 162.286 258.032 160.626 259.604 158.84C278.919 136.767 277.244 102.673 254.523 83.6113Z" fill="white"/>
</mask>
<g mask="url(#mask0_7325_428)">
<path d="M269.341 87.46C269.049 92.4468 267.121 97.2518 264.299 101.369C261.478 105.487 257.787 108.948 253.796 111.944C250.453 114.449 246.889 116.654 243.609 119.238C236.489 124.857 231.336 133.274 229.897 142.267" stroke="#FF0077" stroke-width="4"/>
<path d="M274.525 104.143C274.233 109.13 272.304 113.935 269.483 118.052C266.662 122.17 262.971 125.631 258.98 128.627C255.637 131.132 252.073 133.337 248.793 135.921C241.672 141.54 236.519 149.957 235.081 158.95" stroke="#FF0077" stroke-width="4"/>
</g>
</g>
<defs>
<clipPath id="clip0_7325_428">
<rect width="331.65" height="327.169" fill="white" transform="translate(15.3496 52.5073)"/>
</clipPath>
</defs>
</svg>
