<svg width="400" height="400" viewBox="0 0 400 400" fill="none" xmlns="http://www.w3.org/2000/svg">
<path d="M273.66 333.138C276.1 330.478 280.23 330.308 282.89 332.738L287.15 328.088C284.49 325.648 284.32 321.518 286.75 318.858C289.19 316.198 293.32 316.028 295.98 318.458L300.24 313.808C297.58 311.368 297.41 307.238 299.84 304.578C302.28 301.918 306.41 301.748 309.07 304.178L313.33 299.528C310.67 297.088 310.5 292.958 312.93 290.298C315.37 287.638 319.5 287.468 322.16 289.898L330.82 280.468C323.74 273.968 323.27 262.968 329.77 255.888L153.55 94.168C147.05 101.248 136.05 101.718 128.97 95.218L120.29 104.678C122.5 107.148 122.52 110.948 120.23 113.438C117.94 115.938 114.16 116.238 111.5 114.248L107.19 118.938C109.4 121.408 109.42 125.208 107.13 127.698C104.84 130.198 101.06 130.498 98.4 128.508L94.09 133.198C96.3 135.668 96.32 139.468 94.03 141.958C91.74 144.458 87.96 144.758 85.3 142.768L80.99 147.458C83.2 149.928 83.22 153.728 80.93 156.218C78.64 158.718 74.86 159.018 72.2 157.028L63.52 166.488C70.6 172.988 71.07 183.988 64.57 191.068L240.81 352.818C247.31 345.738 258.31 345.268 265.39 351.768L274.05 342.338C271.39 339.898 271.22 335.768 273.65 333.108L273.66 333.138Z" fill="#FFD2DF" stroke="black" stroke-width="5"/>
<path d="M157.26 112.928L85.6602 190.928" stroke="black" stroke-width="5" stroke-linecap="round"/>
<path d="M308.09 251.948L236.49 329.958" stroke="black" stroke-width="5" stroke-linecap="round"/>
<path d="M151.94 331.688C144.79 325.188 144.25 314.118 150.75 306.968L283.51 160.838C295.34 147.808 294.37 127.588 281.35 115.758C268.32 103.928 248.1 104.898 236.27 117.918L233.38 121.098C226.88 128.248 215.81 128.788 208.66 122.288C201.51 115.788 200.97 104.718 207.47 97.5679L210.36 94.3879C235.17 67.0779 277.57 65.0379 304.88 89.8479C332.19 114.658 334.22 157.058 309.41 184.368L176.66 330.498C170.16 337.648 159.09 338.188 151.94 331.688Z" fill="white"/>
<path d="M150.26 333.538C142.1 326.118 141.49 313.448 148.9 305.288L281.66 159.158C292.57 147.158 291.67 128.518 279.67 117.608C267.67 106.698 249.03 107.598 238.12 119.598L235.23 122.778C227.81 130.938 215.14 131.548 206.98 124.138C198.82 116.718 198.21 104.048 205.62 95.8881L208.51 92.7081C234.25 64.3781 278.23 62.2681 306.56 87.9981C334.89 113.738 337 157.718 311.26 186.048L178.51 332.178C171.09 340.338 158.42 340.948 150.26 333.538ZM283.02 113.908C297.07 126.668 298.11 148.478 285.35 162.518L152.61 308.648C147.05 314.768 147.5 324.278 153.63 329.838C159.75 335.398 169.26 334.948 174.82 328.818L307.56 182.698C331.44 156.408 329.48 115.588 303.19 91.7081C276.9 67.8281 236.09 69.7881 212.21 96.0681L209.32 99.2481C203.76 105.368 204.21 114.878 210.34 120.438C216.46 125.998 225.97 125.548 231.53 119.418L234.42 116.238C247.18 102.188 268.99 101.148 283.03 113.908H283.02Z" fill="black"/>
<path d="M198.28 258.248L158.61 301.908L201.16 299.868L240.83 256.208L198.28 258.248Z" fill="#FF0077"/>
<path d="M274.5 174.338L234.84 217.998L277.39 215.958L306.67 183.728C309.77 180.308 312.57 176.618 315.01 172.708L315.21 172.388L274.5 174.338Z" fill="#FF0077"/>
<path d="M153.95 303.638L203.4 301.258" stroke="black" stroke-width="5" stroke-miterlimit="10"/>
<path d="M196.77 256.498L246.21 254.128" stroke="black" stroke-width="5" stroke-miterlimit="10"/>
<path d="M230.48 219.388L279.93 217.018" stroke="black" stroke-width="5" stroke-miterlimit="10"/>
<path d="M273.3 172.258L319.37 170.048" stroke="black" stroke-width="5" stroke-miterlimit="10"/>
<path d="M302.86 91.3979L255.11 105.248C264.89 103.888 275.19 106.708 283.07 113.868C286.91 117.358 289.78 121.518 291.66 126.008L320.5 117.648C320.5 117.648 318.79 111.008 312.09 101.658C306.96 94.4879 302.84 91.3979 302.84 91.3979H302.86Z" fill="#FF0077"/>
<path d="M227.71 117.498C228.8 113.468 229.96 109.458 231.36 105.518C232.08 103.498 232.94 101.548 233.69 99.5379C234.4 97.6479 234.92 95.6979 235.58 93.7879C236.25 91.8379 237.05 89.9579 237.86 88.0579C238.64 86.2279 238.97 84.2979 239.41 82.3679C239.89 80.2579 240.56 78.1979 241.63 76.3079C242.29 75.1479 243 74.0379 243.62 72.8779C241.17 73.5279 238.71 74.1479 236.28 74.8879C234.07 75.5579 231.88 76.2879 229.7 77.0379C225.41 79.4379 221.41 82.5579 217.66 85.6379C213.21 89.2979 209.02 93.5979 206.41 98.7879C204.12 103.338 202.72 109.508 204.16 114.528C204.98 117.408 207.12 119.288 209.46 121.008C210.71 121.928 211.85 122.888 212.95 123.978C213.49 124.508 214.02 125.038 214.62 125.468C218.28 125.228 221.91 125.308 225.47 125.668C226.23 122.948 226.96 120.218 227.69 117.488L227.71 117.498Z" fill="#FF0077"/>
<path d="M289.56 128.258L321.56 117.338" stroke="black" stroke-width="5" stroke-miterlimit="10"/>
<path d="M253.69 108.088L303.44 88.938" stroke="black" stroke-width="5" stroke-miterlimit="10"/>
<path d="M226.46 125.458L241.73 74.7183" stroke="black" stroke-width="5" stroke-miterlimit="10"/>
<path d="M281.11 115.548C268.08 103.718 247.86 104.688 236.03 117.708L233.14 120.888C226.64 128.038 215.57 128.578 208.42 122.078C201.27 115.578 200.73 104.508 207.23 97.358L210.12 94.178C234.93 66.868 277.33 64.828 304.64 89.638" stroke="black" stroke-width="5" stroke-miterlimit="10"/>
<path d="M121.69 211.268L127.41 231.708L148.38 228.438C150.93 228.038 152.52 231.128 150.71 232.968L135.87 248.148L149.19 264.678C150.81 266.688 148.93 269.608 146.43 268.968L125.87 263.708L118.21 283.508C117.28 285.918 113.81 285.748 113.12 283.268L107.4 262.828L86.4302 266.098C83.8802 266.498 82.2902 263.408 84.1002 261.568L98.9402 246.388L85.6202 229.858C84.0002 227.848 85.8802 224.928 88.3802 225.568L108.94 230.828L116.6 211.028C117.53 208.618 121 208.788 121.69 211.268Z" fill="white" stroke="black" stroke-width="5"/>
</svg>
