<svg width="400" height="400" viewBox="0 0 400 400" fill="none" xmlns="http://www.w3.org/2000/svg">
<g clip-path="url(#clip0_7325_426)">
<path d="M329.64 221.53C329.64 133.05 288.59 91.96 200.07 91.96C111.55 91.96 70.5 133.05 70.5 221.53C70.5 310.01 111.55 351.1 200.07 351.1C288.59 351.1 329.64 310.01 329.64 221.53Z" fill="#FF0077" stroke="black" stroke-width="5"/>
<path d="M200.07 351.08C288.1 352.09 328.64 312.06 329.64 221.51" stroke="black" stroke-width="5"/>
<path d="M302.25 315.88C283.62 302.65 270.25 285.12 261.79 271.53H311.09C253.71 217.74 243.18 178.95 243.18 178.95H286.28C221.18 122.57 200.08 64.8101 200.08 64.8101C200.08 64.8101 178.98 122.57 113.88 178.95H156.98C156.98 178.95 146.45 217.75 89.0698 271.53H133.4C125.75 283.82 114.1 299.34 98.1698 311.98C95.8698 313.8 99.4498 320.02 102.3 320.95C113.58 324.65 122.4 338.28 146.2 343.79C170 349.3 196.33 351.1 196.33 351.1H198.88C198.88 351.1 225.21 349.3 249.01 343.79C267.91 339.42 291.98 325.54 300.78 319.78C301.29 318.48 301.78 317.18 302.27 315.88H302.25Z" fill="black"/>
<path d="M240.69 213.35C240.69 204.32 236.5 200.13 227.47 200.13C218.44 200.13 214.25 204.32 214.25 213.35C214.25 222.38 218.44 226.57 227.47 226.57C236.44 226.63 240.69 222.38 240.69 213.35Z" fill="#FF0077" stroke="black" stroke-width="5"/>
<path d="M184.29 237.24C184.29 228.21 180.1 224.02 171.07 224.02C162.04 224.02 157.85 228.21 157.85 237.24C157.85 246.27 162.04 250.46 171.07 250.46C180.04 250.52 184.29 246.27 184.29 237.24Z" fill="#FF0077" stroke="black" stroke-width="5"/>
<path d="M175.65 316.25C175.65 307.22 171.46 303.03 162.43 303.03C153.4 303.03 149.21 307.22 149.21 316.25C149.21 325.28 153.4 329.47 162.43 329.47C171.4 329.53 175.65 325.28 175.65 316.25Z" fill="white" stroke="black" stroke-width="5"/>
<path d="M232.34 269.7C232.34 260.67 228.15 256.48 219.12 256.48C210.09 256.48 205.9 260.67 205.9 269.7C205.9 278.73 210.09 282.92 219.12 282.92C228.09 282.98 232.34 278.73 232.34 269.7Z" fill="white" stroke="black" stroke-width="5"/>
<path d="M213.29 138.87C213.29 129.84 209.1 125.65 200.07 125.65C191.04 125.65 186.85 129.84 186.85 138.87C186.85 147.9 191.04 152.09 200.07 152.09C209.04 152.15 213.29 147.9 213.29 138.87Z" fill="white" stroke="black" stroke-width="5"/>
<path d="M115.53 244.26C115.09 242.56 115.13 240.74 115.64 238.83C120 222.37 160.47 202.66 165.07 200.46C204.85 181.61 227.92 162.86 233.64 144.73C237.4 132.82 232.47 124.16 229.83 119.51C229.63 119.16 229.44 118.83 229.27 118.52C222.86 106.98 204.9 87.1901 204.72 86.9901L208.42 83.6201C209.17 84.4501 226.96 104.04 233.64 116.09C233.8 116.38 233.98 116.7 234.17 117.03C236.98 121.96 242.82 132.23 238.41 146.23C232.26 165.74 208.31 185.5 167.22 204.97C156.42 210.12 129.43 224.89 122.09 236.59" fill="white"/>
<path d="M282.31 292.01C279.67 286.66 274.33 283.16 268.93 282.15C269.41 283.03 270.38 283.98 270.91 284.83C271.26 285.39 273.07 287.43 273.39 288.01C273.74 288.64 276.77 292.06 277.84 294.23C279.79 298.18 286.33 318.31 242.05 350.35L248.03 349.1L254.15 347.56C290.48 317.95 285.27 297.98 282.33 292.02L282.31 292.01Z" fill="white"/>
<path d="M197.3 111.9L191.96 95.4401L174.99 98.8001C172.45 99.3001 170.74 96.2901 172.47 94.3701L184.05 81.5101L172.65 68.4901C170.95 66.5501 172.7 63.5501 175.23 64.0901L192.15 67.6901L197.73 51.3101C198.56 48.8601 202.03 48.8901 202.83 51.3501L208.17 67.8101L225.14 64.4501C227.68 63.9501 229.39 66.9601 227.66 68.8801L216.08 81.7401L227.48 94.7601C229.18 96.7001 227.43 99.7001 224.9 99.1601L207.98 95.5601L202.4 111.94C201.57 114.39 198.1 114.36 197.3 111.9Z" fill="white" stroke="black" stroke-width="5"/>
</g>
<defs>
<clipPath id="clip0_7325_426">
<rect width="264.14" height="306.59" fill="white" transform="translate(68 47)"/>
</clipPath>
</defs>
</svg>
