<svg width="400" height="400" viewBox="0 0 400 400" fill="none" xmlns="http://www.w3.org/2000/svg">
<path fill-rule="evenodd" clip-rule="evenodd" d="M200.06 353.5C305.82 353.5 354.62 304.29 354.62 198.53C354.62 92.77 305.82 46.5 200.06 46.5C94.3 46.5 45.5 95.71 45.5 198.53C45.5 301.35 94.31 353.5 200.06 353.5Z" fill="#FF0077" stroke="black" stroke-width="4" stroke-miterlimit="10" stroke-linecap="round"/>
<path fill-rule="evenodd" clip-rule="evenodd" d="M200.06 329.99C289.62 329.99 330.95 288.32 330.95 198.76C330.95 109.2 289.62 70.0098 200.06 70.0098C110.5 70.0098 69.1802 111.69 69.1802 198.76C69.1802 285.83 110.51 329.99 200.07 329.99H200.06Z" fill="#FF8D00" stroke="black" stroke-width="4" stroke-miterlimit="10"/>
<path fill-rule="evenodd" clip-rule="evenodd" d="M200.06 307.79C274.33 307.79 308.6 273.23 308.6 198.96C308.6 124.69 274.33 92.2002 200.06 92.2002C125.79 92.2002 91.52 126.76 91.52 198.96C91.52 271.16 125.8 307.79 200.06 307.79Z" fill="#FFEE00" stroke="black" stroke-width="4" stroke-miterlimit="10"/>
<path fill-rule="evenodd" clip-rule="evenodd" d="M200.06 285.6C259.04 285.6 286.25 258.16 286.25 199.18C286.25 140.2 259.03 114.4 200.06 114.4C141.09 114.4 113.87 141.84 113.87 199.18C113.87 256.52 141.09 285.6 200.06 285.6Z" fill="#028121" stroke="black" stroke-width="4" stroke-miterlimit="10"/>
<path fill-rule="evenodd" clip-rule="evenodd" d="M200.06 260.63C242.62 260.63 262.26 240.83 262.26 198.27C262.26 155.71 242.62 137.09 200.06 137.09C157.5 137.09 137.87 156.89 137.87 198.27C137.87 239.65 157.51 260.63 200.06 260.63Z" fill="#004CFF" stroke="black" stroke-width="4" stroke-miterlimit="10"/>
<path fill-rule="evenodd" clip-rule="evenodd" d="M200.06 240.57C228.01 240.57 240.91 227.57 240.91 199.62C240.91 171.67 228.01 159.44 200.06 159.44C172.11 159.44 159.21 172.44 159.21 199.62C159.21 226.8 172.11 240.57 200.06 240.57Z" fill="#770088" stroke="black" stroke-width="4" stroke-miterlimit="10"/>
<path fill-rule="evenodd" clip-rule="evenodd" d="M200.06 218.52C212.82 218.52 218.71 212.58 218.71 199.82C218.71 187.06 212.82 181.48 200.06 181.48C187.3 181.48 181.41 187.42 181.41 199.82C181.41 212.22 187.3 218.52 200.06 218.52Z" fill="white" stroke="black" stroke-width="4" stroke-miterlimit="10"/>
</svg>
