<svg width="400" height="400" viewBox="0 0 400 400" fill="none" xmlns="http://www.w3.org/2000/svg">
<path d="M49.2902 334.8L21.8202 241.22C20.8002 237.66 23.5302 234.14 27.2302 234.23L136.15 234.34C139.64 234.43 142.16 237.7 141.35 241.09L119.12 334.81H49.2902V334.8Z" fill="black"/>
<path d="M82.8899 239.9C77.2199 220.53 76.7399 179.95 82.3199 154.44" stroke="black" stroke-width="4" stroke-miterlimit="10"/>
<path d="M84.4801 140.5C86.2501 129.07 92.5301 118.67 102.19 112.3C109.48 107.49 119.28 104.47 131.72 107.76C131.72 107.76 152.57 111.73 148.67 124.13C146.21 131.95 136.14 143.71 117.25 142.42C98.3601 141.13 94.4901 139.9 87.9901 145.41C84.4501 148.41 82.3101 154.46 82.3101 154.46L84.4701 140.51H84.4801V140.5Z" fill="#FF0077" stroke="black" stroke-width="4" stroke-miterlimit="10"/>
<path d="M78.4297 192.07C78.6397 178.22 88.9997 167.21 101.88 162.39C106.09 160.81 110.72 159.29 115.67 160.05C127.27 161.83 133.52 170.3 131.6 176.26C130.45 179.84 126.35 182.51 118.71 182.29C98.5397 181.72 91.0297 172.99 81.0297 180.74" fill="#FF0077"/>
<path d="M78.4297 192.07C78.6397 178.22 88.9997 167.21 101.88 162.39C106.09 160.81 110.72 159.29 115.67 160.05C127.27 161.83 133.52 170.3 131.6 176.26C130.45 179.84 126.35 182.51 118.71 182.29C98.5397 181.72 91.0297 172.99 81.0297 180.74" stroke="black" stroke-width="4" stroke-miterlimit="10"/>
<path d="M131.59 176.26C131.59 176.26 101.88 162.38 87.0898 176.36" stroke="black" stroke-width="4" stroke-miterlimit="10"/>
<path d="M79.1999 178.26C79.8899 164.35 67.9499 149.32 53.5599 143.93C48.8599 142.17 43.6899 140.47 38.1699 141.32C25.2199 143.31 18.2399 152.77 20.3899 159.42C21.6799 163.41 26.2499 166.4 34.7799 166.16C57.2999 165.52 69.5899 154.75 76.4599 165.22" fill="#FF0077"/>
<path d="M79.1999 178.26C79.8899 164.35 67.9499 149.32 53.5599 143.93C48.8599 142.17 43.6899 140.47 38.1699 141.32C25.2199 143.31 18.2399 152.77 20.3899 159.42C21.6799 163.41 26.2499 166.4 34.7799 166.16C57.2999 165.52 69.5899 154.75 76.4599 165.22" stroke="black" stroke-width="4" stroke-miterlimit="10"/>
<path d="M20.3901 159.42C20.3901 159.42 53.5701 143.92 70.0801 159.53" stroke="black" stroke-width="4" stroke-miterlimit="10"/>
<path d="M79.2001 212.41C77.8601 201.72 69.8801 189.47 58.3601 185.16C54.6001 183.75 50.4601 182.39 46.0401 183.07C35.6701 184.66 30.0901 192.23 31.8001 197.56C32.8301 200.76 36.4901 203.15 43.3201 202.95C61.3501 202.44 71.2701 194.11 75.7901 201.63" fill="#FF0077"/>
<path d="M79.2001 212.41C77.8601 201.72 69.8801 189.47 58.3601 185.16C54.6001 183.75 50.4601 182.39 46.0401 183.07C35.6701 184.66 30.0901 192.23 31.8001 197.56C32.8301 200.76 36.4901 203.15 43.3201 202.95C61.3501 202.44 71.2701 194.11 75.7901 201.63" stroke="black" stroke-width="4" stroke-miterlimit="10"/>
<path d="M31.8101 197.56C31.8101 197.56 58.3701 185.16 71.5901 197.65" stroke="black" stroke-width="4" stroke-miterlimit="10"/>
<path d="M79.5898 220.54C79.9498 208.81 90.5698 200.01 101.76 197.11C105.41 196.16 109.42 195.3 113.49 196.37C123.03 198.88 127.51 206.51 125.38 211.33C124.1 214.22 120.44 216.09 114.07 215.24C97.2598 212.98 90.6198 203.16 82.6398 210.5" fill="#FF0077"/>
<path d="M79.5898 220.54C79.9498 208.81 90.5698 200.01 101.76 197.11C105.41 196.16 109.42 195.3 113.49 196.37C123.03 198.88 127.51 206.51 125.38 211.33C124.1 214.22 120.44 216.09 114.07 215.24C97.2598 212.98 90.6198 203.16 82.6398 210.5" stroke="black" stroke-width="4" stroke-miterlimit="10"/>
<path d="M125.38 211.32C125.38 211.32 101.76 197.1 88.1699 207.48" stroke="black" stroke-width="4" stroke-miterlimit="10"/>
<path d="M148.67 124.12C148.67 124.12 106.99 109.61 84.54 145.68" stroke="black" stroke-width="4" stroke-miterlimit="10"/>
<path d="M152.02 178.85L304.09 140.97L357.19 179.62L231.16 269.79L152.02 178.85Z" fill="black"/>
<path d="M192.98 92L346.46 92.08C351.96 91.93 356.21 96.89 355.21 102.3L337.4 193.37L231.16 269.79L164.11 193.51L184.78 98.64C185.69 94.83 189.05 92.1 192.97 91.99L192.98 92Z" fill="white" stroke="black" stroke-width="4" stroke-miterlimit="10"/>
<path d="M346.46 92.08L192.98 92C189.06 92.11 185.7 94.83 184.79 98.65L183.01 106.81H354.39L355.22 102.31C356.21 96.9 351.97 91.94 346.47 92.09L346.46 92.08Z" fill="black"/>
<path d="M194.13 102.16C195.781 102.16 197.12 100.821 197.12 99.1699C197.12 97.5186 195.781 96.1799 194.13 96.1799C192.479 96.1799 191.14 97.5186 191.14 99.1699C191.14 100.821 192.479 102.16 194.13 102.16Z" fill="white"/>
<path d="M204.6 102.16C206.252 102.16 207.59 100.821 207.59 99.1699C207.59 97.5186 206.252 96.1799 204.6 96.1799C202.949 96.1799 201.61 97.5186 201.61 99.1699C201.61 100.821 202.949 102.16 204.6 102.16Z" fill="#FF0077"/>
<path d="M337.2 332L355.82 182.33C355.94 181.38 354.88 180.74 354.09 181.27L228.19 266.42L153.63 181.59C153.02 180.9 151.89 181.2 151.7 182.1L121.16 332.41" fill="#FF0077"/>
<path d="M337.2 332L355.82 182.33C355.94 181.38 354.88 180.74 354.09 181.27L228.19 266.42L153.63 181.59C153.02 180.9 151.89 181.2 151.7 182.1L121.16 332.41" stroke="black" stroke-width="4"/>
<path d="M185.95 137.93C194.73 136.33 204.88 136.81 212.74 143.95C232.31 161.73 213.2 196.97 222.85 217.37C227.25 226.66 238.06 230.06 247.95 228.36C254.81 227.18 261.1 223.7 266.52 219.33C283.89 205.34 297.18 184.32 297.37 161.5C297.38 160.23 297.35 158.96 297.28 157.69C296.9 151.14 295.18 144.27 290.42 139.75C282.6 132.32 266.9 132.9 260.9 142.4C256.09 150.02 257.54 161.81 262.48 169.02C266.95 175.55 274.45 179.33 281.96 181.82C289.71 184.39 297.89 185.86 306.04 185.44C314.19 185.02 322.33 182.62 329.04 177.97" stroke="black" stroke-width="4" stroke-miterlimit="10" stroke-linecap="round"/>
<path d="M131.24 332L354.1 181.27" stroke="black" stroke-width="4" stroke-miterlimit="10" stroke-linecap="round"/>
<path d="M250.7 282.28L314.18 330.53" stroke="black" stroke-width="4" stroke-miterlimit="10" stroke-linecap="round"/>
<path d="M346.38 131.92C364.169 131.92 378.59 117.499 378.59 99.71C378.59 81.9209 364.169 67.5 346.38 67.5C328.591 67.5 314.17 81.9209 314.17 99.71C314.17 117.499 328.591 131.92 346.38 131.92Z" fill="#FF0077" stroke="black" stroke-width="4"/>
<path d="M352 83.81V115.6H344.87V88.76L338.51 95.71L334.74 89.3L345.28 83.8H352V83.81Z" fill="white"/>
<path d="M27.8701 332H356.12" stroke="black" stroke-width="4" stroke-linecap="round"/>
</svg>
