<svg width="400" height="400" viewBox="0 0 400 400" fill="none" xmlns="http://www.w3.org/2000/svg">
<path d="M105.81 189.59L257.87 149.03L309.55 188.05L184.95 277.85L105.81 189.59Z" fill="black"/>
<path d="M146.77 100.05L300.25 100.13C305.75 99.98 310 104.94 309 110.35L291.19 201.42L184.95 277.84L117.9 201.56L138.57 106.69C139.48 102.88 142.84 100.15 146.76 100.04L146.77 100.05Z" fill="white" stroke="black" stroke-width="4" stroke-miterlimit="10"/>
<path d="M300.25 100.14L146.77 100.06C142.85 100.17 139.49 102.89 138.58 106.71L136.8 114.87H308.18L309.01 110.37C310 104.96 305.76 100 300.26 100.15L300.25 100.14Z" fill="black"/>
<path d="M147.92 110.22C149.572 110.22 150.91 108.881 150.91 107.23C150.91 105.579 149.572 104.24 147.92 104.24C146.269 104.24 144.93 105.579 144.93 107.23C144.93 108.881 146.269 110.22 147.92 110.22Z" fill="white"/>
<path d="M158.39 110.22C160.042 110.22 161.38 108.881 161.38 107.23C161.38 105.579 160.042 104.24 158.39 104.24C156.739 104.24 155.4 105.579 155.4 107.23C155.4 108.881 156.739 110.22 158.39 110.22Z" fill="#FF0077"/>
<path d="M290.99 340.06L309.61 190.39C309.73 189.44 308.67 188.8 307.88 189.33L181.98 274.48L107.42 189.65C106.81 188.96 105.68 189.26 105.49 190.16L74.9502 340.47" fill="black"/>
<path d="M85.0303 340.06L307.89 189.33" stroke="white" stroke-width="4" stroke-miterlimit="10" stroke-linecap="round"/>
<path d="M204.49 290.34L267.96 338.59" stroke="white" stroke-width="4" stroke-miterlimit="10" stroke-linecap="round"/>
<path d="M309.22 136.92C330.323 136.92 347.43 119.813 347.43 98.71C347.43 77.6072 330.323 60.5 309.22 60.5C288.117 60.5 271.01 77.6072 271.01 98.71C271.01 119.813 288.117 136.92 309.22 136.92Z" fill="#FF0077" stroke="black" stroke-width="4"/>
<path d="M52.5 340.06H309.91" stroke="black" stroke-width="4" stroke-linecap="round"/>
<path d="M161.38 153.99H264.55" stroke="black" stroke-width="4" stroke-miterlimit="10" stroke-linecap="round"/>
<path d="M156.81 166.22H259.97" stroke="black" stroke-width="4" stroke-miterlimit="10" stroke-linecap="round"/>
<path d="M150.91 178.95H228.74" stroke="black" stroke-width="4" stroke-miterlimit="10" stroke-linecap="round"/>
<path d="M314.43 78.3101C314.43 75.4327 312.098 73.1001 309.22 73.1001C306.343 73.1001 304.01 75.4327 304.01 78.3101V102.64C304.01 105.518 306.343 107.85 309.22 107.85C312.098 107.85 314.43 105.518 314.43 102.64V78.3101Z" fill="white"/>
<path d="M309.2 122.23C312.078 122.23 314.41 119.897 314.41 117.02C314.41 114.143 312.078 111.81 309.2 111.81C306.323 111.81 303.99 114.143 303.99 117.02C303.99 119.897 306.323 122.23 309.2 122.23Z" fill="white"/>
</svg>
