<svg width="400" height="400" viewBox="0 0 400 400" fill="none" xmlns="http://www.w3.org/2000/svg">
<path d="M113.22 126.33C124.045 126.33 132.82 117.555 132.82 106.73C132.82 95.9051 124.045 87.1299 113.22 87.1299C102.395 87.1299 93.6201 95.9051 93.6201 106.73C93.6201 117.555 102.395 126.33 113.22 126.33Z" fill="black"/>
<path d="M129.95 140.68C140.775 140.68 149.55 131.905 149.55 121.08C149.55 110.255 140.775 101.48 129.95 101.48C119.125 101.48 110.35 110.255 110.35 121.08C110.35 131.905 119.125 140.68 129.95 140.68Z" fill="black"/>
<path d="M123.51 208.58C145.933 208.58 164.11 190.403 164.11 167.98C164.11 145.557 145.933 127.38 123.51 127.38C101.087 127.38 82.9102 145.557 82.9102 167.98C82.9102 190.403 101.087 208.58 123.51 208.58Z" fill="black"/>
<path d="M228.31 192.6C234.23 209.06 223.28 221.58 207.65 223.81C192.02 226.04 156.17 231.13 156.17 231.13L119.81 193.61L186.36 187.31" fill="black"/>
<path d="M68.02 218.79C91.227 218.79 110.04 199.977 110.04 176.77C110.04 153.563 91.227 134.75 68.02 134.75C44.813 134.75 26 153.563 26 176.77C26 199.977 44.813 218.79 68.02 218.79Z" fill="black"/>
<path d="M76.2498 150.72C88.3945 150.72 98.2398 140.875 98.2398 128.73C98.2398 116.585 88.3945 106.74 76.2498 106.74C64.105 106.74 54.2598 116.585 54.2598 128.73C54.2598 140.875 64.105 150.72 76.2498 150.72Z" fill="black"/>
<path d="M90.9602 121.82C97.7202 121.82 103.2 116.34 103.2 109.58C103.2 102.82 97.7202 97.3401 90.9602 97.3401C84.2002 97.3401 78.7202 102.82 78.7202 109.58C78.7202 116.34 84.2002 121.82 90.9602 121.82Z" fill="black"/>
<path d="M84.7402 251.51L87.4002 273.99L169.43 242.47L177.34 263.96L77.5702 323.27C63.9502 331.45 46.5302 322.12 45.7802 306.25L42.8302 243.71C42.2202 234.63 44.4602 225.58 49.2402 217.83C55.2702 208.05 64.2702 200.45 74.9402 196.17L97.0402 187.29L135.9 200.4C141.53 202.3 146.06 206.67 148.27 212.34L170.49 267.32L155.84 276.87L169 339.9L53.6702 337.83L58.8202 315.35" fill="black"/>
<path d="M121.82 182.21C121.82 182.21 121.82 213.16 121.82 214.43C121.82 215.7 120.79 225.03 105.33 222.06C101.46 221.32 98.2302 219.82 95.5402 217.99C88.3902 213.11 84.4202 204.74 84.5902 196.08L85.3902 156.34L109.16 182.23L121.81 182.21H121.82Z" fill="white" stroke="black" stroke-width="4"/>
<path d="M106.62 183.38L126.91 183.43C136.57 183.45 144.42 175.64 144.44 165.98L144.52 125.36C144.53 119.07 139.44 113.95 133.15 113.94L85.1401 113.29L85.5901 203.52" fill="white"/>
<path d="M106.62 183.38L126.91 183.43C136.57 183.45 144.42 175.64 144.44 165.98L144.52 125.36C144.53 119.07 139.44 113.95 133.15 113.94L85.1401 113.29L85.5901 203.52" stroke="black" stroke-width="4"/>
<path d="M141.82 122.08C141.82 122.08 141.32 129.79 129.73 124.47C118.41 119.28 118.31 113.58 118.31 113.58C118.31 113.58 117.82 117.81 112.12 119.88C108.9 121.05 105.29 118.54 105.29 118.54C105.29 118.54 106.54 133.61 95.8099 140.9C85.0799 148.18 80.0999 136.94 80.0999 136.94C80.0999 136.94 78.8899 120.75 85.1499 111.16C91.4099 101.57 119.27 103.17 126.57 105.65C136.79 109.12 141.42 115.6 141.42 115.6L141.82 122.07V122.08Z" fill="black"/>
<path d="M90.4898 146.17C83.5898 138.47 77.8498 143.27 77.2698 146.17C76.0398 152.32 83.0198 155.65 87.0398 156.83C91.0598 158.01 94.7998 156.83 94.7998 156.83L90.4898 146.17Z" fill="white"/>
<path d="M358.93 170.32C349.98 107.47 316.66 82.4399 253.78 91.3899C190.9 100.35 165.9 133.69 174.85 196.54C183.8 259.39 217.12 284.42 280 275.47C342.88 266.51 367.88 233.17 358.93 170.32Z" fill="#FF0077" stroke="black" stroke-width="4"/>
<path d="M161.92 245.55C161.92 245.55 181.23 237.47 184.5 237L198.85 234.93C200.48 234.57 202.14 235.46 202.71 236.99C203.36 238.73 202.38 240.64 200.55 241.15L191.5 243.7C190.61 243.95 190.21 244.99 190.7 245.77C192.14 248.04 195.44 252.04 199.17 255.74C207.09 263.6 211.29 265.24 216.63 268.49C218.29 269.5 219.51 269.8 220.03 271.68C220.5 273.37 220.13 274.99 216.77 274.73C207.44 274.01 184.31 257.61 184.31 257.61L171.07 265.36L161.92 245.55Z" fill="white" stroke="black" stroke-width="4"/>
<path d="M42.8198 243.72L45.7698 306.26C46.5198 322.13 63.9398 331.45 77.5598 323.28L79.3898 322.19L42.8198 243.72Z" fill="black"/>
<path d="M100.65 180.99L120.04 200.87V180.99H100.65Z" fill="black"/>
<path d="M362.35 144.83L359.58 145.7L348.57 146.4L351.79 166.19L354.7 169.08L364.12 170.58L369.86 171.49L372.8 162.53L371.15 153.73L367.37 145.49L364.18 140.89L359.36 139.96L362.35 144.83Z" fill="white"/>
<path d="M348.72 129.95L361 138.46C362.71 139.65 364.23 141.08 365.49 142.73C367.7 145.63 370.4 148.33 371.83 155.26C372.72 159.57 372.63 162.6 372.17 164.71C371.59 167.38 369.33 171.4 366.64 170.97L354.7 169.08C353.21 168.84 352.04 167.68 351.79 166.18L350.52 157.66L349.96 153.89L349.27 149.23C349.1 148.21 349.79 147.25 350.81 147.08L360.26 145.59" stroke="black" stroke-width="4" stroke-linecap="round"/>
<path d="M314.44 126.92C332.229 126.92 346.65 112.499 346.65 94.71C346.65 76.9209 332.229 62.5 314.44 62.5C296.651 62.5 282.23 76.9209 282.23 94.71C282.23 112.499 296.651 126.92 314.44 126.92Z" fill="#FF0077" stroke="black" stroke-width="4"/>
<path d="M320.05 78.81V110.6H312.92V83.76L306.56 90.71L302.79 84.3L313.33 78.8H320.05V78.81Z" fill="white"/>
<path d="M37.1699 337.94H214.92" stroke="black" stroke-width="4" stroke-linecap="round"/>
</svg>
