<svg width="400" height="400" viewBox="0 0 400 400" fill="none" xmlns="http://www.w3.org/2000/svg">
<path d="M195.23 61.3399L194.92 74.3499C194.92 74.3499 177.96 72.5699 176.83 63.2999L178.17 49.6399C178.17 49.6399 182.67 60.8599 195.23 61.3399Z" fill="black"/>
<path d="M307.82 230.06C307.82 146.81 269.2 108.15 185.91 108.15C102.62 108.15 64 146.81 64 230.06C64 313.31 102.62 351.97 185.91 351.97C269.2 351.97 307.82 313.31 307.82 230.06Z" fill="white" stroke="black" stroke-width="4" stroke-miterlimit="10"/>
<path d="M244.37 205.36C242.17 205.53 239.84 205.34 237.97 204.16C236.35 203.09 235.22 201.65 234.15 200.39C230.5 195.94 227.93 191.1 225.13 186.14C219.45 176.04 213.28 166.32 207.42 156.28C207.16 155.55 206.71 154.89 206.27 154.22C206.41 155.2 206.68 155.93 206.82 156.9C208.66 167.76 210.25 178.51 211.73 189.5C212.53 195.18 213.58 200.97 214.09 206.97C214.38 208.92 214.37 211.19 213.5 213.35C212.75 215.27 211.13 217.08 209.33 218.35C207.04 220 204.24 220.79 201.75 221.89C198.35 223.31 188.32 226.91 184.81 225.71C183.39 225.19 181.95 224.06 180.77 223.04C178.4 221.01 176.5 218.6 174.79 216.13C166.3 203.95 159.14 190.88 152.17 177.74C144.1 162.12 136.32 146.18 129.46 129.92C126.87 123.85 124.17 118.03 122.12 111.77C121.4 109.77 120.93 107.88 120.57 105.74C119.88 96.9298 130.61 91.8498 139.52 90.2998C142.57 89.6198 146.32 90.3298 148.4 92.6698C150.28 94.4698 151.49 96.6998 152.71 98.9398C159.28 110.37 163.55 122.83 168.54 135.03C174.24 148.62 180.12 162.15 186.37 175.55C185.31 166.87 183.9 158.33 182.48 149.79C180.21 136 178.3 122.07 177.12 107.89C176.83 105.94 176.66 98.5898 177.42 96.6698C179.21 91.9098 186.66 88.0098 191.63 90.9598C192.44 91.4898 193.25 92.0298 193.94 92.8098C199.2 97.7098 202.41 104.38 206.41 110.35C216.19 125.57 225.37 141.41 234.74 157.18C230.83 141.71 226.75 126.3 221.75 111.22C217.46 97.5298 212.49 83.6798 211.67 69.3598C211.73 66.6598 215.2 63.1498 217.63 61.8698C221.99 59.6898 226.6 57.6198 231.5 57.5098C233.52 57.3998 235.49 57.7298 237.22 58.5398C239.14 59.2898 240.7 60.7898 241.47 62.3598C243.65 66.7198 245.4 71.0298 246.79 75.4698C252.88 95.2998 258.24 115.4 262.43 135.7C265.28 150.52 268.56 165.4 269.82 180.38C270.03 184.42 270.49 193.72 267.49 196.24C261 201.66 252.61 204.67 244.42 205.34L244.37 205.36Z" fill="#FF0077" stroke="black" stroke-width="4" stroke-miterlimit="10"/>
<path d="M192.36 232.64C191.53 232.8 190.85 231.96 191.19 231.19L194.29 224.1C194.79 222.13 197.63 221.97 198.82 223.62L202.74 229.08C203.19 229.7 202.84 230.58 202.09 230.73L192.36 232.65V232.64Z" fill="black" stroke="black" stroke-width="4" stroke-miterlimit="10"/>
<path d="M139.17 285.11L143.53 349.07" stroke="black" stroke-width="4" stroke-miterlimit="10"/>
<path d="M197.45 230.06L200.9 350.73" stroke="black" stroke-width="4" stroke-miterlimit="10"/>
<path d="M225.77 67.23C225.77 67.23 218.66 68.75 219.68 75.74L225.77 67.23Z" fill="black"/>
<path d="M225.77 67.23C225.77 67.23 218.66 68.75 219.68 75.74" stroke="white" stroke-width="4" stroke-miterlimit="10" stroke-linecap="round"/>
<path d="M130.28 111.04L150.98 156.88" stroke="white" stroke-width="4" stroke-miterlimit="10" stroke-linecap="round"/>
<path d="M127.49 281.51C120.49 283.07 111.33 282.38 106.02 277.13C93.6898 264.65 88.7798 245.92 82.9698 229.21C75.8898 209.02 60.8798 164.47 73.5398 148.1C81.5598 137.89 95.9298 135.48 108.28 132.97C116.64 131.27 127.3 130.78 133.79 136.73C143.76 146.2 147.24 175.89 148.67 185.51C149.62 192.46 151.69 196.73 148.42 202.75C145.33 208.72 135.56 209.58 128.98 209.64C120.01 209.7 117.02 189.09 114.75 179.27C113.14 172.88 111.01 162.83 105.14 164.91C98.3298 167.22 101.73 176.75 103.57 184.08C106.03 193.85 119.3 237.04 124.1 245.82C126.08 248.92 131.67 248.91 133.02 245.57C133.77 243.78 133.58 241.44 133.15 238.95C132.35 235.76 129.86 238.58 128.03 238.44C127 238.3 125.96 237.36 125.49 236.28C124.36 234.17 121.95 226.19 122.32 223.7C122.55 222.24 123.87 221.11 125.09 220.41C133.26 215.56 152.7 212.66 154.63 217.17C155.67 219.71 163.19 254.36 162.87 259.43C162.14 273.2 140.59 278.82 127.49 281.52V281.51Z" fill="#FF0077" stroke="black" stroke-width="4" stroke-miterlimit="10"/>
<path d="M144.82 284.68L139.54 279.07C138.15 277.59 135.68 278.19 135.11 280.14L133.26 286.57C133.04 287.32 133.68 288.04 134.45 287.92L144.2 286.47C145.05 286.34 145.41 285.31 144.82 284.68Z" fill="black" stroke="black" stroke-width="4" stroke-miterlimit="10"/>
<path d="M91.4903 145.56C91.4903 145.56 71.4303 151.38 76.6303 178.46" stroke="white" stroke-width="4" stroke-miterlimit="10" stroke-linecap="round"/>
<path d="M274.249 232.56C271.039 231.19 267.279 229.62 265.519 226.51C262.539 221.1 267.169 205.48 268.919 199.52C276.449 174.23 285.859 149.42 296.539 125.07C299.549 117.92 302.619 110.59 306.529 103.77C308.079 100.63 310.249 97.5002 313.289 95.9202C318.749 93.3702 328.959 96.4502 333.199 100.67C335.049 102.37 335.769 105.52 335.639 108.15C335.019 113.28 333.229 118.2 331.449 123.11C328.919 130.64 326.149 138.29 323.259 145.69C315.899 164.86 309.869 184.31 302.509 203.47C299.819 210.32 297.239 217.42 294.189 224.14C292.569 227.47 290.819 231.16 287.639 233.1C283.719 235.39 278.359 234.27 274.239 232.56H274.249Z" fill="#FF0077" stroke="black" stroke-width="4" stroke-miterlimit="10"/>
<path d="M278.78 243.71L277.93 236.02C277.71 234 275.37 232.99 273.75 234.21L268.38 238.25C267.77 238.71 267.84 239.65 268.51 240.02L277.22 244.75C277.97 245.16 278.86 244.55 278.77 243.71H278.78Z" fill="black" stroke="black" stroke-width="4" stroke-miterlimit="10"/>
<path d="M273.62 242.6L246.39 342.4" stroke="black" stroke-width="4" stroke-miterlimit="10"/>
<path d="M325.81 104.05C325.43 104.02 318.4 99.7303 315.41 102.34C309.38 107.6 300.71 129.75 300.71 129.75" stroke="white" stroke-width="4" stroke-miterlimit="10" stroke-linecap="round"/>
<path d="M273.809 206.74C273.809 206.74 267.699 220.95 274.299 224.94" stroke="white" stroke-width="4" stroke-miterlimit="10" stroke-linecap="round"/>
<path d="M189.03 96.01C182.6 95.42 181.33 99.73 182.43 104.05" stroke="white" stroke-width="4" stroke-miterlimit="10" stroke-linecap="round"/>
<path d="M139.17 221.89H145.19C147.7 221.89 149.85 223.68 150.3 226.15L155.57 254.9" stroke="white" stroke-width="4" stroke-miterlimit="10" stroke-linecap="round"/>
<path d="M288.36 50.7301L311.52 49.0101C312.94 48.9001 314.13 50.0701 314.05 51.4901C313.56 60.0001 310.72 86.0801 294.51 90.0101C294.32 90.0601 294.12 90.0801 293.92 90.0801H272.06C269.85 90.0801 268.85 87.3201 270.55 85.9101C277.02 80.5501 286.38 69.8701 286.19 53.1001C286.18 51.8601 287.13 50.8201 288.37 50.7301H288.36Z" fill="#FF0077" stroke="black" stroke-width="4" stroke-miterlimit="10"/>
<path d="M230.3 259.05L230.05 269.53C230.05 269.53 216.38 268.1 215.47 260.63L216.55 249.62C216.55 249.62 220.18 258.66 230.3 259.05Z" fill="black"/>
<path d="M151.25 103.5C150.22 103.5 149.26 103.25 148.4 102.77L148.21 102.66L143.9 98.7901C143.19 98.1501 142.95 97.1701 143.29 96.2801C143.63 95.3901 144.47 94.8101 145.42 94.8101H145.66C145.91 94.8501 146.2 94.8701 146.53 94.8701C148.16 94.8701 150.47 94.4001 152.25 92.1701L153.48 90.6301L161.66 96.9401L160.2 98.5401C159.74 99.0501 155.57 103.49 151.26 103.5H151.25Z" fill="white"/>
<path d="M153.81 93.4101L158.71 97.1901C158.71 97.1901 154.8 101.49 151.25 101.49C150.61 101.49 149.97 101.35 149.38 101.01L145.23 97.2801C145.04 97.1101 145.17 96.7901 145.42 96.7901C145.43 96.7901 145.44 96.7901 145.45 96.7901C145.75 96.8201 146.12 96.8501 146.53 96.8501C148.49 96.8501 151.51 96.3001 153.81 93.4001M153.13 87.8401L150.68 90.9301C149.65 92.2201 148.26 92.8701 146.53 92.8701C146.31 92.8701 146.09 92.8601 145.87 92.8401L145.66 92.8201H145.42C143.63 92.8201 142.06 93.9001 141.42 95.5701C140.78 97.2401 141.23 99.0901 142.56 100.28L146.71 104.01L147.04 104.31L147.43 104.53C148.6 105.19 149.89 105.52 151.26 105.52C156.32 105.52 160.83 100.85 161.68 99.9101L164.6 96.7001L161.17 94.0501L156.27 90.2701L153.15 87.8601L153.13 87.8401Z" fill="black"/>
<path d="M97.1204 113.01L93.4304 120.33C93.4304 120.33 84.2504 114.73 86.1204 109.15L90.5804 101.74C90.5804 101.74 90.1104 109.34 97.1304 113.01H97.1204Z" fill="black"/>
<path d="M171.02 313.59L166.98 321.6C166.98 321.6 156.95 315.48 158.98 309.37L163.86 301.26C163.86 301.26 163.34 309.57 171.02 313.59Z" fill="black"/>
<path d="M228.19 233.8L217.17 227.2C216.36 226.71 216.17 225.63 216.76 224.89C219.96 220.91 229.67 210.1 238.38 213.51C238.5 213.56 238.62 213.62 238.73 213.7L248.47 220.56C249.65 221.39 249.17 223.23 247.74 223.37C242.94 223.84 235.48 225.87 230.25 233.37C229.79 234.03 228.89 234.21 228.2 233.79L228.19 233.8Z" fill="#FF0077" stroke="black" stroke-width="4" stroke-miterlimit="10"/>
<path d="M258.98 294.55C257.19 294.55 255.48 294.18 253.88 293.46L253.68 293.37L232.56 277.43L240.63 278.79C240.63 278.79 241.72 278.97 243.44 278.97C248.33 278.97 257.43 277.61 263.47 268.53L264.56 266.89L282.43 278.4L281.11 280.12C280.66 280.71 269.95 294.55 258.98 294.56V294.55Z" fill="white"/>
<path d="M265.14 269.63L279.53 278.9C279.53 278.9 269.09 292.55 258.99 292.55C257.55 292.55 256.11 292.27 254.72 291.64L240.3 280.76C240.3 280.76 241.51 280.96 243.44 280.96C248.49 280.96 258.52 279.58 265.13 269.63M263.99 264.13L261.81 267.41C256.29 275.72 247.93 276.96 243.45 276.96C241.92 276.96 240.96 276.81 240.95 276.81L225.14 274.31L237.9 283.95L252.32 294.83L252.67 295.1L253.07 295.28C254.93 296.12 256.92 296.55 259 296.55C270.74 296.55 281.53 282.89 282.72 281.33L285.35 277.89L281.7 275.54L267.31 266.27L264 264.14L263.99 264.13Z" fill="black"/>
<path d="M100.82 247.5L106.07 263.8C106.07 263.8 84.2298 268.94 78.7998 257.92L74.5498 240.37C74.5498 240.37 84.9998 252.36 100.81 247.51L100.82 247.5Z" fill="black"/>
</svg>
