<svg width="400" height="400" viewBox="0 0 400 400" fill="none" xmlns="http://www.w3.org/2000/svg">
<path d="M354.85 212.97C354.85 129.72 316.23 91.0601 232.94 91.0601C149.65 91.0601 111.03 129.72 111.03 212.97C111.03 296.22 149.65 334.88 232.94 334.88C316.23 334.88 354.85 296.22 354.85 212.97Z" fill="black" stroke="black" stroke-width="4" stroke-miterlimit="10" stroke-linecap="round"/>
<path d="M300.95 208.68L299.42 99.28C299.07 79.99 280.68 64.5 258.12 64.5H87.6798C65.0098 64.5 46.5698 80.13 46.3698 99.52L45.4898 210.85C45.2898 230.75 64.3398 246.86 87.5998 246.47L237.18 244.94L259.65 266.59C263.4 270.21 269.67 267.73 269.93 262.52L270.88 243.18C288.46 238.93 301.23 225.03 300.94 208.68H300.95Z" fill="white" stroke="black" stroke-width="4"/>
<path fill-rule="evenodd" clip-rule="evenodd" d="M165.42 120.77C155.4 114.27 142.48 113.68 132.21 119.77C127.56 122.52 123.64 126.28 120.87 130.94C114.01 142.51 116.05 156.42 122.06 167.88C132.13 187.06 152.93 201.29 171.35 210.45C172.53 211.04 173.91 211.04 175.09 210.45C193.52 201.29 214.31 187.06 224.38 167.88C230.39 156.42 232.43 142.51 225.57 130.94C222.8 126.27 218.87 122.51 214.21 119.76C203.94 113.68 191.03 114.27 181.03 120.77L173.22 125.84L165.41 120.77H165.42Z" fill="#FF0077" stroke="black" stroke-width="4" stroke-miterlimit="10"/>
</svg>
