<svg width="400" height="400" viewBox="0 0 400 400" fill="none" xmlns="http://www.w3.org/2000/svg">
<path d="M347.34 187.354L212.749 52.7636C205.736 45.7498 194.364 45.7498 187.35 52.7636L52.7595 187.354C45.7456 194.368 45.7457 205.74 52.7595 212.754L187.35 347.344C194.364 354.358 205.736 354.358 212.749 347.344L347.34 212.754C354.354 205.74 354.354 194.368 347.34 187.354Z" fill="#FF0077" stroke="black" stroke-width="4"/>
<path d="M329.62 193.69L206.414 70.4836C202.899 66.9689 197.201 66.9689 193.686 70.4836L70.4796 193.69C66.9648 197.205 66.9648 202.903 70.4796 206.418L193.686 329.624C197.201 333.139 202.899 333.139 206.414 329.624L329.62 206.418C333.135 202.903 333.135 197.205 329.62 193.69Z" fill="white" stroke="black" stroke-width="4"/>
<path d="M200.49 98.3901H199.64C196.111 98.3901 193.25 101.251 193.25 104.78V137.45C193.25 140.979 196.111 143.84 199.64 143.84H200.49C204.019 143.84 206.88 140.979 206.88 137.45V104.78C206.88 101.251 204.019 98.3901 200.49 98.3901Z" fill="black"/>
<path d="M200.04 160.3C203.806 160.3 206.86 157.247 206.86 153.48C206.86 149.714 203.806 146.66 200.04 146.66C196.273 146.66 193.22 149.714 193.22 153.48C193.22 157.247 196.273 160.3 200.04 160.3Z" fill="black"/>
<path d="M149.77 191.79C149.77 202.44 141.7 209.57 131.74 209.57C121.78 209.57 113.71 202.44 113.71 191.79C113.71 181.14 121.78 173.91 131.74 173.91C141.7 173.91 149.77 181.04 149.77 191.79ZM141.65 191.74C141.65 183.62 139.27 181.04 131.74 181.04C124.21 181.04 121.83 183.61 121.83 191.74C121.83 199.87 124.21 202.44 131.74 202.44C139.27 202.44 141.65 199.87 141.65 191.74Z" fill="black"/>
<path d="M162.72 181.59V188.67H176.24V195.85H162.72V209.07H154.89V174.4H177.13V181.58H162.72V181.59Z" fill="black"/>
<path d="M190.37 181.59V188.67H203.89V195.85H190.37V209.07H182.54V174.4H204.78V181.58H190.37V181.59Z" fill="black"/>
<path d="M210.28 174.41H218.3V209.08H210.28V174.41Z" fill="black"/>
<path d="M250.93 193.53L258.85 195.07C257.36 204.43 250.08 209.58 241.52 209.58C231.42 209.58 223.39 202.45 223.39 191.8C223.39 181.15 231.41 173.92 241.52 173.92C250.09 173.92 257.37 179.07 258.85 188.43L250.93 189.97C249.84 183.19 247.56 181.06 241.52 181.06C234.34 181.06 231.52 184.03 231.52 191.76C231.52 199.49 234.34 202.46 241.52 202.46C247.56 202.46 249.84 200.33 250.93 193.55V193.53Z" fill="black"/>
<path d="M271.47 181.59V187.63H285.49V194.56H271.47V201.89H286.38V209.07H263.75V174.4H286.38V181.58H271.47V181.59Z" fill="black"/>
<path d="M142.54 215.63L138.23 232.68H133.24L130.29 222.89L129.75 220.14L129.21 222.89L126.26 232.68H121.27L116.96 215.63H121.35L123.4 226.42L123.77 228.71L124.28 226.42L127.2 215.63H132.32L135.24 226.42L135.75 228.71L136.12 226.42L138.17 215.63H142.56H142.54Z" fill="black"/>
<path d="M160.84 224.18C160.84 229.42 156.87 232.93 151.97 232.93C147.07 232.93 143.1 229.42 143.1 224.18C143.1 218.94 147.07 215.39 151.97 215.39C156.87 215.39 160.84 218.9 160.84 224.18ZM156.85 224.15C156.85 220.15 155.68 218.89 151.98 218.89C148.28 218.89 147.11 220.16 147.11 224.15C147.11 228.14 148.28 229.41 151.98 229.41C155.68 229.41 156.85 228.14 156.85 224.15Z" fill="black"/>
<path d="M170.04 226.18H167.38V232.68H163.53V215.63H170.81C174.64 215.63 176.9 217.72 176.9 220.89C176.9 223.47 175.46 225.3 172.95 225.93L174.34 227.42L177.24 232.68H172.76L170.03 226.18H170.04ZM167.39 222.96H170.41C172.21 222.96 172.92 222.4 172.92 220.94C172.92 219.48 172.21 218.97 170.41 218.97H167.39V222.97V222.96Z" fill="black"/>
<path d="M186.41 225.49L183.61 228.83V232.68H179.76V215.63H183.61V224.96L185.41 221.33L189.48 215.63H194.65L189.02 222.35L194.7 232.68H189.97L186.41 225.49Z" fill="black"/>
<path d="M212.73 228.98H206.03L204.76 232.68H200.67L206.69 215.63H212.12L218.09 232.68H214L212.73 228.98ZM211.58 225.59L210.31 221.89L209.38 218.84L208.43 221.89L207.16 225.59H211.57H211.58Z" fill="black"/>
<path d="M234.78 215.63V232.68H230.93V225.66H223.79V232.68H219.94V215.63H223.79V222.13H230.93V215.63H234.78Z" fill="black"/>
<path d="M242.29 219.16V222.13H249.18V225.54H242.29V229.15H249.62V232.68H238.49V215.63H249.62V219.16H242.29Z" fill="black"/>
<path d="M263.27 228.98H256.57L255.3 232.68H251.21L257.23 215.63H262.66L268.63 232.68H264.54L263.27 228.98ZM262.13 225.59L260.86 221.89L259.93 218.84L258.98 221.89L257.71 225.59H262.12H262.13Z" fill="black"/>
<path d="M270.479 215.63H277.329C282.809 215.63 286.249 219.04 286.249 224.16C286.249 229.28 282.809 232.69 277.329 232.69H270.479V215.64V215.63ZM277.229 229.15C281.059 229.15 282.249 227.96 282.249 224.16C282.249 220.36 281.059 219.17 277.229 219.17H274.329V229.16H277.229V229.15Z" fill="black"/>
<path d="M164.66 250.2H235.44" stroke="black" stroke-width="4" stroke-linecap="round"/>
</svg>
