<svg width="400" height="400" viewBox="0 0 400 400" fill="none" xmlns="http://www.w3.org/2000/svg">
<path d="M261.93 165.81H68.42C61.2845 165.81 55.5 171.595 55.5 178.73V347.82C55.5 354.956 61.2845 360.74 68.42 360.74H261.93C269.066 360.74 274.85 354.956 274.85 347.82V178.73C274.85 171.595 269.066 165.81 261.93 165.81Z" fill="#FF0077" stroke="black" stroke-width="4" stroke-miterlimit="10"/>
<path d="M228.14 130.66C228.14 95.8563 199.933 67.6499 165.13 67.6499C130.327 67.65 102.12 95.8564 102.12 130.66V165.81H70.1201V130.66C70.1202 78.1833 112.654 35.65 165.13 35.6499C217.606 35.6499 260.14 78.1832 260.14 130.66V165.81H228.14V130.66Z" stroke="black" stroke-width="4" stroke-miterlimit="10"/>
<path d="M176.9 220.75C176.9 214.272 171.651 209.02 165.175 209.02C158.7 209.02 153.45 214.272 153.45 220.75V272.5C153.45 278.978 158.7 284.23 165.175 284.23C171.651 284.23 176.9 278.978 176.9 272.5V220.75Z" fill="white" stroke="black" stroke-width="4" stroke-miterlimit="10"/>
<path d="M165.17 317.53C171.555 317.53 176.73 312.355 176.73 305.97C176.73 299.586 171.555 294.41 165.17 294.41C158.786 294.41 153.61 299.586 153.61 305.97C153.61 312.355 158.786 317.53 165.17 317.53Z" fill="white" stroke="black" stroke-width="4" stroke-miterlimit="10"/>
<path d="M359.71 210.27H226.42C223.305 210.27 220.78 212.795 220.78 215.91V330.3C220.78 333.415 223.305 335.94 226.42 335.94H359.71C362.825 335.94 365.35 333.415 365.35 330.3V215.91C365.35 212.795 362.825 210.27 359.71 210.27Z" fill="white" stroke="black" stroke-width="4"/>
<path d="M365.35 210.27H220.78V229.91H365.35V210.27Z" fill="black"/>
<path d="M230.53 224.17C233.23 224.17 235.42 221.981 235.42 219.28C235.42 216.579 233.23 214.39 230.53 214.39C227.829 214.39 225.64 216.579 225.64 219.28C225.64 221.981 227.829 224.17 230.53 224.17Z" fill="#FF0077"/>
<path d="M244.76 224.17C247.46 224.17 249.65 221.981 249.65 219.28C249.65 216.579 247.46 214.39 244.76 214.39C242.059 214.39 239.87 216.579 239.87 219.28C239.87 221.981 242.059 224.17 244.76 224.17Z" fill="white"/>
<path d="M249.32 266.32H336.82" stroke="black" stroke-width="4" stroke-linecap="round"/>
<path d="M278.43 273.71C282.511 273.71 285.82 270.402 285.82 266.32C285.82 262.239 282.511 258.93 278.43 258.93C274.349 258.93 271.04 262.239 271.04 266.32C271.04 270.402 274.349 273.71 278.43 273.71Z" fill="#FF0077" stroke="black" stroke-width="4"/>
<path d="M249.32 282.05H336.82" stroke="black" stroke-width="4" stroke-linecap="round"/>
<path d="M249.32 297.78H336.82" stroke="black" stroke-width="4" stroke-linecap="round"/>
<path d="M307.45 289.44C311.531 289.44 314.84 286.132 314.84 282.05C314.84 277.969 311.531 274.66 307.45 274.66C303.368 274.66 300.06 277.969 300.06 282.05C300.06 286.132 303.368 289.44 307.45 289.44Z" fill="#FF0077" stroke="black" stroke-width="4"/>
<path d="M263.66 305.17C267.741 305.17 271.05 301.862 271.05 297.78C271.05 293.699 267.741 290.39 263.66 290.39C259.579 290.39 256.27 293.699 256.27 297.78C256.27 301.862 259.579 305.17 263.66 305.17Z" fill="#FF0077" stroke="black" stroke-width="4"/>
</svg>
