<svg width="400" height="400" viewBox="0 0 400 400" fill="none" xmlns="http://www.w3.org/2000/svg">
<path d="M326.4 232.13C326.4 141.77 284.48 99.8101 194.08 99.8101C103.68 99.8101 61.7598 141.77 61.7598 232.13C61.7598 322.49 103.68 364.45 194.08 364.45C283.91 365.08 326.4 322.49 326.4 232.13Z" fill="#FF0077" stroke="black" stroke-width="4"/>
<mask id="mask0_6468_384" style="mask-type:luminance" maskUnits="userSpaceOnUse" x="63" y="8" width="265" height="357">
<path d="M327.83 232.13C327.83 141.77 285.91 8 195.51 8C105.11 8 63.1899 141.77 63.1899 232.13C63.1899 322.49 105.11 364.45 195.51 364.45C285.34 365.08 327.83 322.49 327.83 232.13Z" fill="white"/>
</mask>
<g mask="url(#mask0_6468_384)">
<path d="M357.53 369.52L340.34 282.25C335.15 268.65 321.95 260.84 307 257.48C279.84 251.37 244.94 239.85 243.61 239.85H152.08L83.5499 258.6C69.3099 261.79 56.6399 268 51.0599 280.72L30.6499 369.44L357.55 369.52H357.53Z" fill="#FF0077" stroke="black" stroke-width="4"/>
<path d="M200.51 236.52H191.53C160.68 236.52 135.66 211.51 135.66 180.65V115.8C135.66 84.9497 160.67 59.9297 191.53 59.9297H200.51C231.36 59.9297 256.38 84.9397 256.38 115.8L255.001 180.65C255.001 211.5 231.37 236.52 200.51 236.52Z" fill="white"/>
<path d="M237.39 261.73C220.44 294.47 172.48 294.47 155.53 261.73C153.28 257.38 151.91 252.97 151.91 248.67V204.12H241V248.67C241 252.98 239.64 257.39 237.38 261.73H237.39Z" fill="white" stroke="black" stroke-width="4"/>
<path d="M181.42 239.5L241 252.07V220.97L181.42 239.5Z" fill="black"/>
<ellipse cx="196" cy="210.5" rx="49" ry="26.5" fill="#EBF1FB"/>
<path d="M136.02 175.21C126.86 175.21 119.44 167.78 119.44 158.63C119.44 149.48 126.87 142.05 136.02 142.05V175.22V175.21Z" fill="white" stroke="black" stroke-width="4"/>
<path d="M256.63 142.04C265.79 142.02 273.23 149.44 273.24 158.6C273.25 167.76 265.84 175.2 256.68 175.21L256.62 142.04H256.63Z" fill="white" stroke="black" stroke-width="4"/>
<path d="M136.33 107.52C136.33 79.5898 163.25 67.0298 196.46 67.0298C229.67 67.0298 256.59 79.5898 256.59 107.52L256.32 179.43C256.12 212.26 229.57 238.84 196.74 239.06C163.41 239.29 136.29 212.32 136.32 178.99V107.52H136.33Z" stroke="black" stroke-width="4"/>
<path d="M172.18 141.84C179.77 141.6 178.75 152.99 172.11 153.05C164.86 153.11 164.96 142.07 172.18 141.84Z" fill="black"/>
<path d="M222.8 141C230.57 139.51 231.46 151.91 224.06 152.23C217.5 152.51 216.71 142.17 222.8 141Z" fill="black"/>
<path d="M230.39 133.61C225.87 132.92 213.24 130.98 208.41 137.96C206.59 140.59 205.99 143.49 206.93 146.45C206.95 146.51 211.07 163.3 211.07 163.3C211.07 163.3 214.66 175.95 200.05 174.37" stroke="black" stroke-width="4" stroke-linecap="round"/>
<path d="M271.77 97.8399C271.23 95.8699 269.4 92.3899 269.67 90.6699C269.77 89.9999 270.44 89.5399 270.45 88.8499C270.51 84.7299 264.18 77.5299 261.12 75.1299C257.79 72.5099 253.17 69.6099 249.07 69.1999C248.47 68.6499 253.24 64.8299 251.32 62.8299C249.4 60.8399 244.96 63.8299 244.6 63.5499C244 61.0899 242.82 58.3799 241.38 56.3299C240.47 55.0199 235.4 48.9799 234.73 52.9599C234.38 55.0599 236.07 56.9299 236.53 58.8399C236.07 59.3399 229.5 53.5799 228.49 52.9399C214.24 43.9299 194.28 47.8999 178.3 44.4999C175.96 43.9999 168.88 41.1899 167.38 41.3999C164.61 41.7899 165.15 48.7299 165.79 50.8299C161.896 51.8033 158.267 51.7462 154.35 51.7999C150.5 51.7999 146.12 50.5299 144.71 51.5199C142.9 52.7899 145.68 59.8899 145.45 60.2799C145.11 60.8499 138.17 63.3099 136.83 63.9599C131.62 66.4799 124.07 71.8199 121 76.9899C116.06 85.3099 126.83 80.1399 127.28 80.5399C127.21 80.4699 125.24 84.4699 125.07 84.8899C124.05 87.3499 122.83 89.7199 121.82 92.1799C120.8 94.6799 120.27 97.1899 119.95 99.8899C119.15 106.64 119.41 113.72 119.79 120.48C119.99 124.06 121.22 137.9 122.26 147.63C127.19 145.03 132.67 143.61 138.21 142.97C138.49 132.88 138.79 113.77 138.94 111.7C140.06 96.4099 143.29 89.9799 156.55 84.2199C157.47 83.8199 163.16 80.6199 163.57 81.0099C153.42 97.9199 168.92 88.3299 176.55 85.7199C177.22 86.4599 171.22 92.2999 173.01 94.8699C173.85 96.0799 175.46 95.6599 176.68 95.5099L195.37 88.5599C195.88 89.0199 186.3 98.1699 194.25 97.5199C201.69 96.9099 219.95 86.9799 226.23 82.1599C227.6 81.1099 230.56 77.7099 231.85 77.6899C234.08 77.6599 238.28 80.8699 240.16 82.1899C252.78 91.0299 254.93 102.69 255.08 103.51C256.61 111.83 257.31 121.44 257.17 129.93C256.03 127.88 255.39 125.55 255.33 123.2C255.2 127 255.27 130.81 255.53 134.6C255.76 137.95 252.94 146.41 257.91 147C257.91 146.31 258.17 145.52 257.91 144.88C257.71 144.38 258.28 143.9 258.81 143.78C260.62 143.38 262.22 144.82 263.62 145.73C269.07 149.26 269.78 142.84 270.5 139.13C271.59 133.5 271.63 127.74 272.23 122.05C273.04 114.24 273.94 105.58 271.83 97.8899L271.77 97.8399Z" fill="black"/>
<path d="M181.37 200C181.37 200 203.16 213.38 218.66 200.16" stroke="black" stroke-width="4" stroke-linecap="round"/>
<path d="M157.49 304.88L158.25 382.78L28 383.63L46.59 289.41C48.12 285.69 50 282.12 52.21 278.76C60.26 266.52 72.34 257.48 86.36 253.22L152.5 229.5V236.5C148.29 246.29 152.91 264.97 155.04 278.19C156.46 287.01 157.25 295.93 157.48 304.86L157.49 304.88Z" fill="black"/>
<path d="M235.76 304.88L235 391.16L365.25 392.01L346.66 289.42C345.13 285.7 343.25 282.13 341.04 278.77C332.99 266.53 320.91 257.49 306.89 253.23L236.4 228.58L238.62 233.73C242.83 243.52 240.34 264.98 238.21 278.2C236.79 287.02 236 295.94 235.77 304.87L235.76 304.88Z" fill="black"/>
<path d="M181.7 134.49C181.7 134.49 172.1 130.42 162.5 135.05" stroke="black" stroke-width="4" stroke-linecap="round"/>
<path d="M110.54 119.03C77.5198 139.53 61.7598 176.73 61.7598 232.13C61.7598 322.49 103.68 364.45 194.08 364.45C283.91 365.08 326.4 322.49 326.4 232.13C326.4 183.31 314.16 148.62 288.66 127.04" stroke="black" stroke-width="4"/>
</g>
<path fill-rule="evenodd" clip-rule="evenodd" d="M283.7 294.77C283.7 287.53 280.34 284.16 273.09 284.16C265.84 284.16 262.48 287.52 262.48 294.77C262.48 302.01 265.84 305.38 273.09 305.38C280.34 305.38 283.7 302.02 283.7 294.77Z" fill="white"/>
</svg>
