<svg width="200" height="200" viewBox="0 0 200 200" fill="none" xmlns="http://www.w3.org/2000/svg">
<path d="M86.3 120.5H114.2V139.6C114.2 142.1 112.1 144.2 109.6 144.2H90.9C88.4 144.2 86.3 142.1 86.3 139.6V120.5Z" fill="black"/>
<path d="M125.2 99.7C125.2 82.7 117.3 74.8 100.3 74.8C83.2999 74.8 75.3999 82.7 75.3999 99.7C75.3999 116.7 83.2999 124.6 100.3 124.6C117.3 124.6 125.2 116.7 125.2 99.7Z" fill="white" stroke="black" stroke-width="4"/>
<path d="M95.9001 105.1C95.9001 102.1 93.5001 99.7 90.5001 99.7C87.5001 99.7 85.1001 102.1 85.1001 105.1C85.1001 108.1 87.5001 110.5 90.5001 110.5H101.7" stroke="black" stroke-width="4"/>
<path d="M95.9001 105.1V124.4" stroke="black" stroke-width="4"/>
<path d="M104.7 105.1C104.7 102.1 107.1 99.7 110.1 99.7C113.1 99.7 115.5 102.1 115.5 105.1C115.5 108.1 113.1 110.5 110.1 110.5H101" stroke="black" stroke-width="4"/>
<path d="M104.7 105.1V124.4" stroke="black" stroke-width="4"/>
<path d="M100.3 68V55.8" stroke="#FF0077" stroke-width="4" stroke-linecap="round"/>
<path d="M124.5 77.8001L133.2 69.1001" stroke="#FF0077" stroke-width="4" stroke-linecap="round"/>
<path d="M76.3001 78.3001L67.6001 69.6001" stroke="#FF0077" stroke-width="4" stroke-linecap="round"/>
<path d="M68.6 102.5H61" stroke="#FF0077" stroke-width="4" stroke-linecap="round"/>
<path d="M131.6 101.8H139" stroke="#FF0077" stroke-width="4" stroke-linecap="round"/>
</svg>
