<svg width="200" height="200" viewBox="0 0 200 200" fill="none" xmlns="http://www.w3.org/2000/svg">
<path d="M123.778 82.553H123.866C128.931 82.553 133.038 78.4466 133.038 73.3811V56.3476C133.038 51.2821 128.931 47.1757 123.866 47.1757H123.778C118.713 47.1757 114.606 51.2821 114.606 56.3476V73.3811C114.606 78.4466 118.713 82.553 123.778 82.553Z" fill="#FF0077" stroke="black" stroke-width="3.49405" stroke-miterlimit="10" stroke-linecap="round"/>
<path d="M70.6687 153.22V158.374C70.6687 164.314 75.473 169.118 81.4129 169.118C87.3528 169.118 92.1571 164.314 92.1571 158.374V153.22" fill="#FF0077"/>
<path d="M70.6687 153.22V158.374C70.6687 164.314 75.473 169.118 81.4129 169.118C87.3528 169.118 92.1571 164.314 92.1571 158.374V153.22" stroke="black" stroke-width="3.49405" stroke-linecap="round" stroke-linejoin="bevel"/>
<path d="M70.6687 67.2666V157.413H92.0698V80.7187C83.5967 78.6223 76.0845 73.8179 70.6687 67.2666Z" fill="white" stroke="black" stroke-width="3.49405" stroke-miterlimit="10"/>
<path d="M99.7567 31.0159C108.754 30.7538 117.751 33.7238 123.866 40.8865V88.9297C123.866 88.9297 119.673 98.7131 100.892 98.7131C82.1118 98.7131 67 83.514 67 64.7334C67.0874 46.6517 81.675 31.6273 99.7567 31.0159Z" fill="white" stroke="black" stroke-width="3.49405" stroke-miterlimit="10"/>
</svg>
