<svg width="200" height="200" viewBox="0 0 200 200" fill="none" xmlns="http://www.w3.org/2000/svg">
<path d="M143.4 158.7C142.1 158.7 140.9 158.2 140 157.3L129.8 147.5L58.6 148.2C52.2 148.2 46.2 145.8 42.1 141.6C38.7 138.1 36.8 133.7 36.8 129.1L37.2001 75.8001C37.3001 65.5001 47.1 57.1001 59 57.1001H140.6C152.4 57.1001 162.2 65.4001 162.4 75.7001L163.1 128.1C163.2 136.2 157.4 143.5 148.6 146.2L148.2 154C148.1 156.6 145.9 158.7 143.3 158.7H143.4Z" fill="white"/>
<path d="M140.6 59.2001C151.4 59.2001 160.2 66.6001 160.4 75.8001L161.1 128.2C161.2 136 155.1 142.7 146.7 144.7L146.2 154C146.2 155.7 144.7 156.8 143.3 156.8C141.9 156.8 141.9 156.5 141.3 156L130.5 145.6L58.9 146.3C58.8 146.3 58.6 146.3 58.5 146.3C47.5 146.3 38.6 138.7 38.7 129.2L39.1 75.9001C39.1 66.6001 48 59.1001 58.9 59.1001H140.5M140.6 55.2001H59.1C46.1 55.2001 35.4 64.5001 35.3 75.9001L34.9 129.2C34.9 134.3 36.9 139.3 40.7 143.1C45.2 147.7 51.8 150.3 58.6 150.3C65.4 150.3 58.9 150.3 59.1 150.3L129 149.6L138.6 158.8C139.9 160 141.6 160.7 143.4 160.7C147.1 160.7 150.1 157.8 150.3 154.1L150.6 147.6C159.4 144.3 165.3 136.6 165.1 128L164.4 75.7001C164.2 64.3001 153.5 55.1001 140.6 55.1001V55.2001Z" fill="black"/>
<path fill-rule="evenodd" clip-rule="evenodd" d="M96.3 86.1C91.5 83 85.3 82.7 80.4 85.6C78.2 86.9 76.3 88.7 75 90.9C71.7 96.4 72.7 103.1 75.6 108.6C80.4 117.8 90.4 124.6 99.2 129C99.8 129.3 100.4 129.3 101 129C109.8 124.6 119.8 117.8 124.6 108.6C127.5 103.1 128.5 96.5 125.2 90.9C123.9 88.7 122 86.9 119.8 85.5C114.9 82.6 108.7 82.9 103.9 86L100.2 88.4L96.5 86L96.3 86.1Z" fill="#FF0077" stroke="black" stroke-width="4" stroke-miterlimit="10"/>
</svg>
