<svg width="200" height="200" viewBox="0 0 200 200" fill="none" xmlns="http://www.w3.org/2000/svg">
<path d="M143.4 153.4C142.1 153.4 140.9 152.9 140 152L129.8 142.2L58.5998 142.9C52.1998 142.9 46.1998 140.5 42.0998 136.3C38.6998 132.8 36.7998 128.4 36.7998 123.8L37.1998 70.5C37.2998 60.2 47.0998 51.8 58.9998 51.8H140.6C152.4 51.8 162.2 60.1001 162.4 70.4001L163.1 122.8C163.2 130.9 157.4 138.2 148.6 140.9L148.2 148.7C148.1 151.3 145.9 153.4 143.3 153.4H143.4Z" fill="white"/>
<path d="M140.6 53.9001C151.4 53.9001 160.2 61.3 160.4 70.5L161.1 122.9C161.2 130.7 155.1 137.4 146.7 139.4L146.2 148.7C146.2 150.4 144.7 151.5 143.3 151.5C141.9 151.5 141.9 151.2 141.3 150.7L130.5 140.3L58.8999 141C58.7999 141 58.5999 141 58.4999 141C47.4999 141 38.5999 133.4 38.6999 123.9L39.0999 70.6C39.0999 61.3 47.9999 53.8 58.8999 53.8H140.5M140.6 49.9001H59.0999C46.0999 49.9001 35.3999 59.2 35.2999 70.6L34.8999 123.9C34.8999 129 36.8999 134 40.6999 137.8C45.1999 142.4 51.7999 145 58.5999 145C65.3999 145 58.8999 145 59.0999 145L129 144.3L138.6 153.5C139.9 154.7 141.6 155.4 143.4 155.4C147.1 155.4 150.1 152.5 150.3 148.8L150.6 142.3C159.4 139 165.3 131.3 165.1 122.7L164.4 70.4001C164.2 59.0001 153.5 49.8 140.6 49.8V49.9001Z" fill="black"/>
<path d="M71.0001 108C76.1916 108 80.4001 103.791 80.4001 98.6C80.4001 93.4085 76.1916 89.2 71.0001 89.2C65.8086 89.2 61.6001 93.4085 61.6001 98.6C61.6001 103.791 65.8086 108 71.0001 108Z" fill="black"/>
<path d="M100 108C105.192 108 109.4 103.791 109.4 98.6C109.4 93.4085 105.192 89.2 100 89.2C94.8086 89.2 90.6001 93.4085 90.6001 98.6C90.6001 103.791 94.8086 108 100 108Z" fill="black"/>
<path d="M129 108C134.192 108 138.4 103.791 138.4 98.6C138.4 93.4085 134.192 89.2 129 89.2C123.809 89.2 119.6 93.4085 119.6 98.6C119.6 103.791 123.809 108 129 108Z" fill="black"/>
</svg>
