<svg width="200" height="200" viewBox="0 0 200 200" fill="none" xmlns="http://www.w3.org/2000/svg">
<path fill-rule="evenodd" clip-rule="evenodd" d="M106 122.7C139.7 112.6 164.3 95.5001 161 84.4001C157.7 73.3001 127.7 72.6001 93.9999 82.6001C60.2999 92.7001 35.6999 109.8 38.9999 120.9C42.2999 132 72.2999 132.7 106 122.7ZM104.5 117.5C136.2 108 159.6 92.6001 156.8 83.2001C154 73.8001 126 73.8001 94.2999 83.3001C62.5999 92.8001 39.1999 108.2 41.9999 117.6C44.7999 127 72.7999 127 104.5 117.5Z" fill="black"/>
<path d="M99.1998 137.4C119.855 137.4 136.6 120.656 136.6 100C136.6 79.3447 119.855 62.6001 99.1998 62.6001C78.5444 62.6001 61.7998 79.3447 61.7998 100C61.7998 120.656 78.5444 137.4 99.1998 137.4Z" fill="black"/>
<path fill-rule="evenodd" clip-rule="evenodd" d="M63.3999 131.8C48.4999 131.8 39.0999 128.2 37.1999 121.5C35.2999 115.3 40.3999 107.5 51.5999 99.8C62.1999 92.4 76.9999 85.7 93.4999 80.7C108.9 76.1 124.3 73.5 136.7 73.5C149.1 73.5 161 77.1 162.9 83.8C164.8 90 159.7 97.8 148.5 105.5C137.9 112.9 123.1 119.6 106.6 124.6C91.1999 129.2 75.7999 131.8 63.3999 131.8ZM136.4 78.2C124.8 78.2 110 80.7 94.6999 85.3C61.9999 95.1 41.5999 109.9 43.6999 117.1C44.7999 120.6 51.5999 122.7 62.0999 122.7C73.6999 122.7 88.4999 120.2 103.8 115.6C119 111.1 132.7 105 142.4 98.7C151.2 92.9 155.8 87.4 154.8 83.8C153.7 80.3 146.9 78.2 136.4 78.2Z" fill="#FF0077"/>
<path d="M136.6 75.6001C149.9 75.6001 159.2 78.6001 160.9 84.4001C164.2 95.5001 139.6 112.6 105.9 122.7C90.0998 127.4 75.0998 129.8 63.2998 129.8C51.4998 129.8 40.6998 126.8 38.9998 121C35.6998 109.9 60.2998 92.8001 93.9998 82.7001C109.8 78.0001 124.8 75.6001 136.6 75.6001ZM62.1998 124.7C73.4998 124.7 88.4998 122.3 104.4 117.5C136.1 108 159.5 92.6001 156.7 83.2001C155.3 78.5001 147.6 76.1001 136.4 76.1001C125.2 76.1001 110.1 78.5001 94.1998 83.3001C62.4998 92.8001 39.0998 108.2 41.8998 117.6C43.2998 122.3 50.9998 124.7 62.1998 124.7ZM136.6 71.6001C124 71.6001 108.4 74.2001 92.7998 78.9001C76.0998 83.9001 60.9998 90.8001 50.2998 98.2001C34.9998 108.8 33.5998 117.1 35.0998 122.1C37.3998 129.7 47.0998 133.8 63.2998 133.8C79.4998 133.8 91.4998 131.2 107.1 126.5C123.8 121.5 138.9 114.6 149.6 107.2C164.9 96.6001 166.3 88.3001 164.8 83.3001C162.5 75.7001 152.8 71.6001 136.6 71.6001ZM62.1998 120.7C50.1998 120.7 46.1998 118 45.6998 116.5C45.2998 115 47.0998 110.5 57.2998 103.9C66.8998 97.6001 80.3998 91.7001 95.3998 87.2001C110.4 82.7001 125 80.2001 136.5 80.2001C148 80.2001 152.5 82.9001 153 84.4001C153.4 85.9001 151.6 90.4001 141.4 97.0001C131.8 103.3 118.3 109.2 103.3 113.7C88.2998 118.2 73.6998 120.7 62.1998 120.7Z" fill="black"/>
<path d="M88.5001 64.1999C68.7001 70.0999 57.5001 90.9999 63.4001 110.8L135 89.2999C129.1 69.4999 108.2 58.2999 88.4001 64.1999H88.5001Z" fill="black"/>
</svg>
