<svg width="200" height="200" viewBox="0 0 200 200" fill="none" xmlns="http://www.w3.org/2000/svg">
<path d="M106.572 148.093C106.396 148.585 105.69 148.585 105.513 148.093C96.1941 122.002 78.8119 104.515 52.6797 95.2613C52.1893 95.0845 52.1893 94.3772 52.6797 94.2004C78.7334 84.8678 96.1941 67.4602 105.513 41.3684C105.69 40.8772 106.396 40.8772 106.572 41.3684C115.891 67.4602 133.274 84.9464 159.406 94.2004C159.896 94.3772 159.896 95.0845 159.406 95.2613C133.352 104.594 115.891 122.002 106.572 148.093Z" fill="#FF0077" stroke="black" stroke-width="4"/>
<path d="M61.3472 159.404C61.1502 159.896 60.4409 159.896 60.2439 159.404C56.7567 150.282 50.4914 144.017 41.3694 140.529C40.8769 140.332 40.8769 139.623 41.3694 139.426C50.4914 135.939 56.7567 129.674 60.2439 120.552C60.4409 120.059 61.1502 120.059 61.3472 120.552C64.8345 129.674 71.0997 135.939 80.2217 139.426C80.7143 139.623 80.7143 140.332 80.2217 140.529C71.0997 144.017 64.8345 150.282 61.3472 159.404Z" fill="white" stroke="black" stroke-width="4"/>
</svg>
