<svg width="200" height="200" viewBox="0 0 200 200" fill="none" xmlns="http://www.w3.org/2000/svg">
<path d="M140.6 63.7C140 63.7 139.4 63.7 138.8 63.7H59.4C39.4 63.7 23.1 79.9 23.1 100C23.1 120.1 39.3 136.3 59.4 136.3C79.5 136.3 88.8 126.1 93.7 111.9H106.5C111.4 126.1 124.9 136.3 140.8 136.3C156.7 136.3 177.1 120.1 177.1 100C177.1 79.9 160.9 63.7 140.8 63.7H140.6Z" fill="white" stroke="black" stroke-width="4" stroke-miterlimit="10"/>
<path d="M74.7 95.1001H67.8C66 95.1001 64.5 93.6001 64.5 91.8001V84.9001C64.5 83.1001 63 81.6001 61.2 81.6001H55.3C53.5 81.6001 52 83.1001 52 84.9001V91.8001C52 93.6001 50.5 95.1001 48.7 95.1001H41.8C40 95.1001 38.5 96.6001 38.5 98.4001V104.3C38.5 106.1 40 107.6 41.8 107.6H48.7C50.5 107.6 52 109.1 52 110.9V117.8C52 119.6 53.5 121.1 55.3 121.1H61.2C63 121.1 64.5 119.6 64.5 117.8V110.9C64.5 109.1 66 107.6 67.8 107.6H74.7C76.5 107.6 78 106.1 78 104.3V98.4001C78 96.6001 76.5 95.1001 74.7 95.1001Z" fill="black"/>
<path d="M142.7 93.2C146.676 93.2 149.9 89.9765 149.9 86C149.9 82.0236 146.676 78.8 142.7 78.8C138.724 78.8 135.5 82.0236 135.5 86C135.5 89.9765 138.724 93.2 142.7 93.2Z" fill="#FF0077" stroke="black" stroke-width="4" stroke-miterlimit="10"/>
<path d="M142.7 121.5C146.676 121.5 149.9 118.277 149.9 114.3C149.9 110.324 146.676 107.1 142.7 107.1C138.724 107.1 135.5 110.324 135.5 114.3C135.5 118.277 138.724 121.5 142.7 121.5Z" fill="#FF0077" stroke="black" stroke-width="4" stroke-miterlimit="10"/>
<path d="M156.9 107.4C160.877 107.4 164.1 104.176 164.1 100.2C164.1 96.2235 160.877 93 156.9 93C152.924 93 149.7 96.2235 149.7 100.2C149.7 104.176 152.924 107.4 156.9 107.4Z" fill="#FF0077" stroke="black" stroke-width="4" stroke-miterlimit="10"/>
<path d="M128.5 107.4C132.476 107.4 135.7 104.176 135.7 100.2C135.7 96.2235 132.476 93 128.5 93C124.524 93 121.3 96.2235 121.3 100.2C121.3 104.176 124.524 107.4 128.5 107.4Z" fill="#FF0077" stroke="black" stroke-width="4" stroke-miterlimit="10"/>
</svg>
