<svg width="200" height="200" viewBox="0 0 200 200" fill="none" xmlns="http://www.w3.org/2000/svg">
<path d="M100 136.3C120.048 136.3 136.3 120.048 136.3 100C136.3 79.952 120.048 63.7 100 63.7C79.952 63.7 63.7 79.952 63.7 100C63.7 120.048 79.952 136.3 100 136.3Z" fill="white" stroke="black" stroke-width="4" stroke-miterlimit="10"/>
<path fill-rule="evenodd" clip-rule="evenodd" d="M97.7001 89.7001C94.8001 87.8001 91.0001 87.6001 88.0001 89.4001C85.0001 91.2001 85.5001 91.3001 84.7001 92.7001C82.7001 96.1001 83.3001 100.2 85.0001 103.5C88.0001 109.1 94.0001 113.3 99.4001 116C99.7001 116.2 100.2 116.2 100.5 116C105.9 113.3 112 109.1 114.9 103.5C116.7 100.1 117.3 96.1001 115.2 92.7001C114.4 91.3001 113.2 90.2001 111.9 89.4001C108.9 87.6001 105.1 87.8001 102.2 89.7001L99.9001 91.2001L97.6001 89.7001H97.7001Z" fill="#FF0077" stroke="black" stroke-width="4" stroke-miterlimit="10"/>
</svg>
