<svg width="200" height="200" viewBox="0 0 200 200" fill="none" xmlns="http://www.w3.org/2000/svg">
<path d="M99.5 157C131.256 157 157 131.256 157 99.5C157 67.7436 131.256 42 99.5 42C67.7436 42 42 67.7436 42 99.5C42 131.256 67.7436 157 99.5 157Z" fill="white" stroke="black" stroke-width="6" stroke-miterlimit="10" stroke-linecap="round"/>
<mask id="mask0_7181_293" style="mask-type:alpha" maskUnits="userSpaceOnUse" x="39" y="39" width="121" height="121">
<path d="M99.5 157C131.256 157 157 131.256 157 99.5C157 67.7436 131.256 42 99.5 42C67.7436 42 42 67.7436 42 99.5C42 131.256 67.7436 157 99.5 157Z" fill="white" stroke="black" stroke-width="6" stroke-miterlimit="10" stroke-linecap="round"/>
</mask>
<g mask="url(#mask0_7181_293)">
<path d="M122.31 60.2955L111.023 79.8437L88.4511 79.8437L77.165 60.2955L88.4511 40.7473L111.023 40.7473L122.31 60.2955Z" stroke="black" stroke-width="6"/>
<path d="M156.05 79.7789L144.763 99.3271L122.191 99.3271L110.905 79.7789L122.191 60.2307L144.763 60.2307L156.05 79.7789Z" stroke="black" stroke-width="6"/>
<path d="M88.5703 79.7789L77.2842 99.3271L54.7118 99.3271L43.4257 79.7789L54.7119 60.2307L77.2842 60.2307L88.5703 79.7789Z" stroke="black" stroke-width="6"/>
<path d="M156.05 40.8121L144.764 60.3603L122.191 60.3603L110.905 40.8121L122.191 21.2639L144.764 21.2639L156.05 40.8121Z" fill="black"/>
<path d="M88.5703 40.8121L77.2842 60.3603L54.7119 60.3603L43.4257 40.8121L54.7119 21.2639L77.2842 21.2639L88.5703 40.8121Z" fill="black"/>
<path d="M122.31 99.2627L111.023 118.811L88.4511 118.811L77.165 99.2627L88.4511 79.7145L111.023 79.7145L122.31 99.2627Z" fill="black"/>
<path d="M189.789 99.2623L178.503 118.81L155.931 118.81L144.645 99.2623L155.931 79.7141L178.503 79.7141L189.789 99.2623Z" fill="black"/>
<path d="M54.8306 99.2623L43.5444 118.81L20.9721 118.81L9.68595 99.2623L20.9721 79.7141L43.5444 79.7141L54.8306 99.2623Z" fill="black"/>
<path d="M156.05 118.746L144.764 138.294L122.191 138.294L110.905 118.746L122.191 99.1975L144.764 99.1975L156.05 118.746Z" stroke="black" stroke-width="6"/>
<path d="M88.5703 118.746L77.2842 138.294L54.7118 138.294L43.4257 118.746L54.7119 99.1975L77.2842 99.1975L88.5703 118.746Z" stroke="black" stroke-width="6"/>
<path d="M122.31 138.229L111.023 157.777L88.4511 157.777L77.165 138.229L88.4511 118.681L111.023 118.681L122.31 138.229Z" stroke="black" stroke-width="6"/>
<path d="M156.05 157.712L144.763 177.261L122.191 177.261L110.905 157.712L122.191 138.164L144.763 138.164L156.05 157.712Z" fill="black"/>
<path d="M88.5703 157.713L77.2842 177.261L54.7118 177.261L43.4257 157.713L54.7119 138.164L77.2842 138.164L88.5703 157.713Z" fill="black"/>
</g>
<path d="M99.5 157C131.256 157 157 131.256 157 99.5C157 67.7436 131.256 42 99.5 42C67.7436 42 42 67.7436 42 99.5C42 131.256 67.7436 157 99.5 157Z" stroke="black" stroke-width="6" stroke-miterlimit="10" stroke-linecap="round"/>
</svg>
