<svg width="200" height="200" viewBox="0 0 200 200" fill="none" xmlns="http://www.w3.org/2000/svg">
<path d="M100 136.3C120.048 136.3 136.3 120.048 136.3 100C136.3 79.952 120.048 63.7 100 63.7C79.952 63.7 63.7 79.952 63.7 100C63.7 120.048 79.952 136.3 100 136.3Z" fill="#FF0077" stroke="black" stroke-width="4" stroke-miterlimit="10"/>
<path d="M84.2 112.9C88.3 109 93.9 106.5 100 106.5C106.1 106.5 111.7 108.9 115.8 112.9" stroke="black" stroke-width="4" stroke-miterlimit="10" stroke-linecap="round"/>
<path d="M87.4 93.7999C90.548 93.7999 93.1 91.2479 93.1 88.0999C93.1 84.9519 90.548 82.3999 87.4 82.3999C84.2519 82.3999 81.7 84.9519 81.7 88.0999C81.7 91.2479 84.2519 93.7999 87.4 93.7999Z" fill="black"/>
<path d="M112.6 93.7999C115.748 93.7999 118.3 91.2479 118.3 88.0999C118.3 84.9519 115.748 82.3999 112.6 82.3999C109.452 82.3999 106.9 84.9519 106.9 88.0999C106.9 91.2479 109.452 93.7999 112.6 93.7999Z" fill="black"/>
</svg>
