<svg width="200" height="200" viewBox="0 0 200 200" fill="none" xmlns="http://www.w3.org/2000/svg">
<path d="M100 140.1C123.417 140.1 142.4 121.117 142.4 97.7C142.4 74.2832 123.417 55.3 100 55.3C76.5832 55.3 57.6001 74.2832 57.6001 97.7C57.6001 121.117 76.5832 140.1 100 140.1Z" fill="white" stroke="black" stroke-width="4" stroke-miterlimit="10"/>
<path d="M117.4 96.4C122.426 96.4 126.5 92.3257 126.5 87.3C126.5 82.2742 122.426 78.2 117.4 78.2C112.374 78.2 108.3 82.2742 108.3 87.3C108.3 92.3257 112.374 96.4 117.4 96.4Z" fill="white" stroke="black" stroke-width="4" stroke-miterlimit="10"/>
<path d="M78.2 122C81.7898 122 84.7 119.09 84.7 115.5C84.7 111.91 81.7898 109 78.2 109C74.6101 109 71.7 111.91 71.7 115.5C71.7 119.09 74.6101 122 78.2 122Z" fill="white" stroke="black" stroke-width="4" stroke-miterlimit="10"/>
<path d="M57.5 96.3001C62.9 92.5001 70.3 92.6001 76.5 94.9001C82.7 97.2001 88 101.3 93.3 105.2C98.6 109.1 104.3 112.9 110.7 114.4C121.1 116.7 133.8 112.3 141.5 105" stroke="black" stroke-width="4" stroke-miterlimit="10"/>
<path d="M84.2 137.3C86.4 129.4 95 123.8 103.1 124.9C109.2 125.7 114.6 129.7 120.7 129.7C125.2 129.7 131.8 126.5 134.2 122.7" stroke="black" stroke-width="4" stroke-miterlimit="10"/>
<path d="M68.3999 70.8999C76.7999 76.4999 88.7999 77.2999 96.8999 71.0999C99.3999 69.1999 101.4 66.7999 103.8 64.7999C107.5 61.6999 112 59.6999 116.7 58.8999" stroke="black" stroke-width="4" stroke-miterlimit="10"/>
</svg>
