<svg width="200" height="200" viewBox="0 0 200 200" fill="none" xmlns="http://www.w3.org/2000/svg">
<path d="M55.4917 45.541L33.7767 66.1197C31.6443 68.14 31.4022 71.4664 33.2087 73.7779L95.1876 153.02C97.4411 155.905 101.771 155.905 104.024 153.02L166.003 73.7779C167.81 71.4664 167.568 68.14 165.435 66.1197L143.72 45.541C142.678 44.5544 141.299 44 139.865 44H59.3467C57.9127 44 56.5346 44.5544 55.4917 45.541Z" fill="#FF0077" stroke="black" stroke-width="4"/>
<path d="M32.0356 69.6904H166.339" stroke="black" stroke-width="4"/>
<path d="M85.4011 44L64.0679 69.6904L99.6015 155.181" stroke="black" stroke-width="4"/>
<path d="M113.811 44L135.144 69.6904L99.6016 155.181" stroke="black" stroke-width="4"/>
<path d="M67.0663 93.7176C66.9918 93.9338 66.6752 93.9338 66.5914 93.7176C62.4384 82.0188 54.7003 74.1632 43.07 70.0193C42.8465 69.9442 42.8465 69.6247 43.07 69.5401C54.6631 65.3492 62.4477 57.5406 66.5914 45.8418C66.6659 45.6257 66.9825 45.6257 67.0663 45.8418C71.2193 57.5406 78.9574 65.3962 90.5878 69.5401C90.8113 69.6153 90.8113 69.9348 90.5878 70.0193C78.9947 74.2102 71.21 82.0188 67.0663 93.7176Z" fill="white" stroke="black" stroke-width="4"/>
<path d="M47.0834 98.7729C46.9996 98.989 46.6737 98.989 46.5992 98.7729C45.0535 94.6948 42.2786 91.8946 38.2373 90.3347C38.0231 90.2502 38.0231 89.9213 38.2373 89.8461C42.2786 88.2863 45.0535 85.4861 46.5992 81.4079C46.683 81.1918 47.0089 81.1918 47.0834 81.4079C48.6292 85.4861 51.4041 88.2863 55.4454 89.8461C55.6596 89.9307 55.6596 90.2596 55.4454 90.3347C51.4041 91.8946 48.6292 94.6948 47.0834 98.7729Z" fill="white" stroke="black" stroke-width="4"/>
</svg>
