<svg width="200" height="200" viewBox="0 0 200 200" fill="none" xmlns="http://www.w3.org/2000/svg">
<rect x="26" y="77.4976" width="133.655" height="48.547" rx="5.67493" fill="white"/>
<path d="M159.655 98.3239V118.478C159.655 122.657 156.267 126.045 152.088 126.045H33.5666C29.3877 126.045 26 122.657 26 118.478V85.0641C26 80.8852 29.3877 77.4976 33.5666 77.4976H159.655" stroke="black" stroke-width="4" stroke-linecap="round"/>
<mask id="path-3-outside-1_6341_296" maskUnits="userSpaceOnUse" x="128.824" y="69.0002" width="50" height="39" fill="black">
<rect fill="white" x="128.824" y="69.0002" width="50" height="39"/>
<path d="M173.59 85.6118C173.928 85.9749 173.928 86.5373 173.59 86.9004L163.069 98.2082C162.484 98.8372 161.431 98.4231 161.431 97.5639V93.0873C161.431 92.5602 160.997 92.1337 160.47 92.153C149.199 92.5661 140.785 97.6047 135.656 102.704C134.905 103.451 133.492 102.686 133.894 101.707C139.726 87.5259 152.386 80.6926 160.506 80.0605C161.019 80.0206 161.431 79.6026 161.431 79.0875V74.9483C161.431 74.0891 162.484 73.675 163.069 74.304L173.59 85.6118Z"/>
</mask>
<path d="M173.59 85.6118C173.928 85.9749 173.928 86.5373 173.59 86.9004L163.069 98.2082C162.484 98.8372 161.431 98.4231 161.431 97.5639V93.0873C161.431 92.5602 160.997 92.1337 160.47 92.153C149.199 92.5661 140.785 97.6047 135.656 102.704C134.905 103.451 133.492 102.686 133.894 101.707C139.726 87.5259 152.386 80.6926 160.506 80.0605C161.019 80.0206 161.431 79.6026 161.431 79.0875V74.9483C161.431 74.0891 162.484 73.675 163.069 74.304L173.59 85.6118Z" fill="#FF0077"/>
<path d="M163.069 74.304L165.997 71.5793L163.069 74.304ZM160.506 80.0605L160.195 76.0726L160.506 80.0605ZM135.656 102.704L138.476 105.541L135.656 102.704ZM160.47 92.153L160.616 96.1503L160.47 92.153ZM163.069 98.2082L165.997 100.933L163.069 98.2082ZM173.59 86.9004L176.518 89.6251L173.59 86.9004ZM173.59 85.6118L176.518 82.8871L173.59 85.6118ZM173.59 86.9004L170.661 84.1757L160.14 95.4835L163.069 98.2082L165.997 100.933L176.518 89.6251L173.59 86.9004ZM161.431 97.5639H165.431V93.0873H161.431H157.431V97.5639H161.431ZM160.47 92.153L160.323 88.1556C147.886 88.6115 138.556 94.1807 132.836 99.8673L135.656 102.704L138.476 105.541C143.015 101.029 150.511 96.5206 160.616 96.1503L160.47 92.153ZM133.894 101.707L137.594 103.228C142.848 90.4528 154.19 84.5643 160.816 84.0485L160.506 80.0605L160.195 76.0726C150.582 76.821 136.605 84.5989 130.195 100.185L133.894 101.707ZM161.431 79.0875H165.431V74.9483H161.431H157.431V79.0875H161.431ZM163.069 74.304L160.14 77.0287L170.661 88.3365L173.59 85.6118L176.518 82.8871L165.997 71.5793L163.069 74.304ZM161.431 74.9483H165.431C165.431 77.7226 162.03 79.0599 160.14 77.0287L163.069 74.304L165.997 71.5793C162.937 68.2901 157.431 70.4556 157.431 74.9483H161.431ZM160.506 80.0605L160.816 84.0485C163.275 83.8571 165.431 81.826 165.431 79.0875H161.431H157.431C157.431 77.3792 158.763 76.1841 160.195 76.0726L160.506 80.0605ZM135.656 102.704L132.836 99.8673C133.998 98.712 135.49 98.9146 136.284 99.3552C136.721 99.5978 137.233 100.041 137.551 100.76C137.905 101.558 137.909 102.461 137.594 103.228L133.894 101.707L130.195 100.185C129.015 103.056 130.752 105.434 132.401 106.35C133.988 107.231 136.563 107.443 138.476 105.541L135.656 102.704ZM161.431 93.0873H165.431C165.431 90.3401 163.161 88.0516 160.323 88.1556L160.47 92.153L160.616 96.1503C158.832 96.2157 157.431 94.7802 157.431 93.0873H161.431ZM163.069 98.2082L160.14 95.4835C162.03 93.4523 165.431 94.7896 165.431 97.5639H161.431H157.431C157.431 102.057 162.937 104.222 165.997 100.933L163.069 98.2082ZM173.59 86.9004L176.518 89.6251C178.285 87.7265 178.285 84.7858 176.518 82.8871L173.59 85.6118L170.661 88.3365C169.571 87.1641 169.571 85.3481 170.661 84.1757L173.59 86.9004Z" fill="black" mask="url(#path-3-outside-1_6341_296)"/>
<path d="M48.9872 112.887C44.3262 112.887 40.9364 110.919 40.3008 106.168L44.3867 105.078C44.7197 108.649 46.3238 109.497 49.078 109.497C51.8322 109.497 52.9218 108.71 52.9218 106.743C52.9218 104.927 52.1046 104.563 49.7741 104.109L46.1724 103.413C43.509 102.899 40.8153 101.416 40.8153 97.3298C40.8153 93.5768 43.9327 91.0949 48.5029 91.0949C53.1639 91.0949 56.3419 93.2136 56.7354 97.693L52.9218 98.7523C52.7402 95.2111 51.015 94.5453 48.4727 94.5453C45.9303 94.5453 44.9618 95.2717 44.9618 97.1482C44.9618 99.0247 45.9606 99.4484 48.17 99.8419L51.4993 100.477C54.9194 101.113 57.038 102.808 57.038 106.198C57.038 110.223 53.9206 112.887 48.9872 112.887ZM69.0249 97.4508C72.5358 97.4508 74.3215 99.5392 74.3215 103.716V112.584H70.4777V103.928C70.4777 101.93 69.4486 100.931 67.6024 100.931C65.4535 100.931 64.1218 102.445 64.1218 105.502V112.584H60.2779V91.3976H64.1218V101.204C64.8482 98.8128 66.3615 97.4508 69.0249 97.4508ZM89.2901 97.7535H93.1339V112.584H89.2901V109.345C88.3821 111.615 86.5964 112.887 84.1448 112.887C79.9075 112.887 77.3954 109.799 77.3954 105.199C77.3954 100.538 79.8167 97.4508 83.9632 97.4508C86.5056 97.4508 88.3518 98.7523 89.2901 101.083V97.7535ZM85.2949 109.406C88.1702 109.406 89.4111 108.105 89.4111 105.199C89.4111 102.233 88.1702 100.931 85.2949 100.931C82.5104 100.931 81.2695 102.233 81.2695 105.199C81.2695 108.105 82.5104 109.406 85.2949 109.406ZM105.632 97.5114C106.177 97.5114 106.873 97.5114 107.418 97.7232V101.355C106.873 101.143 106.389 101.053 105.421 101.053C102.999 101.053 101.304 102.687 101.304 106.44V112.584H97.4606V97.7535H101.304V101.961C101.698 99.7208 102.787 97.5114 105.632 97.5114ZM123.166 104.957C123.166 105.441 123.166 105.774 123.135 106.379H112.603C112.875 108.71 113.965 109.678 116.265 109.678C118.02 109.678 118.777 109.194 119.503 107.59L122.833 109.013C121.834 111.585 119.503 112.887 116.174 112.887C111.634 112.887 108.608 109.86 108.608 105.26C108.608 100.599 111.664 97.4508 116.053 97.4508C120.29 97.4508 123.166 100.387 123.166 104.957ZM116.083 100.538C113.965 100.538 112.905 101.537 112.633 103.746H119.352C119.261 101.416 118.232 100.538 116.083 100.538Z" fill="black"/>
</svg>
