<svg width="200" height="200" viewBox="0 0 200 200" fill="none" xmlns="http://www.w3.org/2000/svg">
<path d="M159.1 44.2998H41C38.2386 44.2998 36 46.5384 36 49.2998V150.6C36 153.361 38.2386 155.6 41 155.6H159.1C161.861 155.6 164.1 153.361 164.1 150.6V49.2998C164.1 46.5384 161.861 44.2998 159.1 44.2998Z" fill="white" stroke="black" stroke-width="4"/>
<path d="M164.1 44.2998H36V61.6998H164.1V44.2998Z" fill="black"/>
<path d="M44.6 56.6C46.9749 56.6 48.9001 54.6748 48.9001 52.3C48.9001 49.9252 46.9749 48 44.6 48C42.2252 48 40.3 49.9252 40.3 52.3C40.3 54.6748 42.2252 56.6 44.6 56.6Z" fill="#FF0077"/>
<path d="M57.1999 56.6C59.5747 56.6 61.4999 54.6748 61.4999 52.3C61.4999 49.9252 59.5747 48 57.1999 48C54.8251 48 52.8999 49.9252 52.8999 52.3C52.8999 54.6748 54.8251 56.6 57.1999 56.6Z" fill="white"/>
<path d="M100 108.4L135.1 119.8C128.8 139.2 108 149.8 88.6002 143.5C69.2002 137.2 58.6002 116.4 64.9002 97C69.9002 81.5 83.7002 71.5 100 71.5V108.4Z" fill="black" stroke="black" stroke-width="4"/>
<path d="M100 108.4L135.1 97C137.6 104.7 137.6 112 135.1 119.8L100 108.4Z" fill="white" stroke="black" stroke-width="4"/>
<path d="M100 108.4V71.5C116.3 71.5 130 81.5 135.1 97L100 108.4Z" fill="#FF0077" stroke="black" stroke-width="4"/>
<path d="M100 123.7C108.45 123.7 115.3 116.85 115.3 108.4C115.3 99.9501 108.45 93.1001 100 93.1001C91.5502 93.1001 84.7002 99.9501 84.7002 108.4C84.7002 116.85 91.5502 123.7 100 123.7Z" fill="white" stroke="black" stroke-width="4"/>
</svg>
