<svg width="200" height="200" viewBox="0 0 200 200" fill="none" xmlns="http://www.w3.org/2000/svg">
<path d="M129 63.6001H71.1001C66.958 63.6001 63.6001 66.958 63.6001 71.1001V129C63.6001 133.142 66.958 136.5 71.1001 136.5H129C133.142 136.5 136.5 133.142 136.5 129V71.1001C136.5 66.958 133.142 63.6001 129 63.6001Z" fill="#FF0077" stroke="black" stroke-width="4" stroke-miterlimit="10"/>
<path d="M100.1 122.8C96.0999 122.8 93.5999 120.3 93.5999 116.3C93.5999 112.3 96.1999 110 100.1 110C104 110 106.7 112.4 106.7 116.3C106.7 120.2 104.2 122.8 100.1 122.8ZM94.8999 104.6V101.4C94.8999 98 96.6999 96.1 98.4999 94.8L87.3999 91.2L87.5999 89.5C88.5999 82.5 93.6999 78.2 100.9 78.2C108.1 78.2 114.1 83.2 114.1 90.1C114.1 97 110.7 99.3 105.3 100.7V104.6H94.8999ZM100.8 89C100.1 89 99.5999 89.1 99.2999 89.3C99.0999 89.5 98.6999 90.1 98.6999 92.1V94.6C99.1999 94.3 99.6999 94 100.1 93.7C102 92.5 102.8 91.9 102.8 90.8C102.8 89.7 102.7 89 100.7 89H100.8Z" fill="white" stroke="black" stroke-width="4"/>
</svg>
