<svg width="200" height="200" viewBox="0 0 200 200" fill="none" xmlns="http://www.w3.org/2000/svg">
<path d="M146.8 35.7002H53.1001C50.3387 35.7002 48.1001 37.9388 48.1001 40.7002V159.3C48.1001 162.062 50.3387 164.3 53.1001 164.3H146.8C149.562 164.3 151.8 162.062 151.8 159.3V40.7002C151.8 37.9388 149.562 35.7002 146.8 35.7002Z" fill="white" stroke="black" stroke-width="4"/>
<path d="M99.8999 85.2003L128.2 94.4003C123.1 110.1 106.3 118.6 90.5999 113.5C74.8999 108.4 66.3999 91.6003 71.4999 75.9003C75.5999 63.4003 86.6999 55.3003 99.7999 55.3003V85.1003L99.8999 85.2003Z" fill="black" stroke="black" stroke-width="4"/>
<path d="M99.8999 85.2005L128.2 76.0005C130.2 82.3005 130.2 88.2005 128.2 94.4005L99.8999 85.2005Z" fill="white" stroke="black" stroke-width="4"/>
<path d="M99.8999 85.2004V55.4004C113.1 55.4004 124.2 63.5004 128.2 76.0004L99.8999 85.2004Z" fill="#FF0077" stroke="black" stroke-width="4"/>
<path d="M99.9999 97.6003C106.848 97.6003 112.4 92.0486 112.4 85.2003C112.4 78.352 106.848 72.8003 99.9999 72.8003C93.1515 72.8003 87.5999 78.352 87.5999 85.2003C87.5999 92.0486 93.1515 97.6003 99.9999 97.6003Z" fill="white" stroke="black" stroke-width="4"/>
<path d="M105.5 109.4L114.2 135.6C114.6 136.8 115.8 137.7 117.1 137.7H136.9" stroke="black" stroke-width="4" stroke-linecap="round"/>
<path d="M114.9 145.3H136.9" stroke="black" stroke-width="4" stroke-linecap="round"/>
</svg>
