<svg width="200" height="200" viewBox="0 0 200 200" fill="none" xmlns="http://www.w3.org/2000/svg">
<path d="M148 120.05C148 131.335 138.856 140.479 127.57 140.479C116.285 140.479 107.141 131.335 107.141 120.05C107.141 108.764 116.285 99.6201 127.57 99.6201C132.151 99.6201 135.886 100.858 139.021 103.064V75.0518L92.7852 83.8066V135.433C92.7852 146.718 83.6409 155.862 72.3555 155.862H71.835C60.4544 155.862 52 146.546 52 135.358C52.0001 124.073 61.1443 114.929 72.4297 114.929C76.7053 114.929 80.6121 116.179 83.8809 118.427V56.7129L85.5088 56.4053L145.628 45.0352L148 44.5859V120.05Z" fill="white" stroke="black" stroke-width="4"/>
</svg>
