<svg width="200" height="200" viewBox="0 0 200 200" fill="none" xmlns="http://www.w3.org/2000/svg">
<path d="M119.1 73C116.5 73 114 73.3001 111.6 73.9001C104.5 59.9001 89.9999 50.3 73.2999 50.3C49.5999 50.3 30.3999 69.5 30.3999 93.2V99.9001H147.5C147.5 84.2001 134.8 73 119.2 73H119.1Z" fill="white" stroke="black" stroke-width="4" stroke-miterlimit="10"/>
<path d="M145.15 124C150.076 124.001 154.44 124.824 157.919 126.686C161.348 128.52 164.02 131.415 165.551 135.807L165.991 137.071L167.327 137.145V137.146H167.329C167.334 137.146 167.343 137.147 167.356 137.147C167.384 137.149 167.43 137.153 167.491 137.158C167.614 137.169 167.803 137.186 168.048 137.215C168.539 137.273 169.251 137.375 170.111 137.549C171.84 137.898 174.117 138.529 176.37 139.646C180.816 141.849 185.078 145.857 185.078 153.529V154.591H100V153.529C100 145.145 106.91 138.235 115.295 138.234H124.63L124.92 136.59C124.92 136.592 124.919 136.593 124.919 136.593L124.921 136.586L124.922 136.582L124.921 136.581C124.923 136.568 124.929 136.545 124.937 136.512C124.953 136.439 124.982 136.32 125.025 136.161C125.113 135.843 125.262 135.368 125.499 134.788C125.974 133.626 126.795 132.059 128.166 130.486C130.853 127.402 135.844 124.071 145.15 124Z" fill="white" stroke="black" stroke-width="4"/>
</svg>
