<svg width="200" height="200" viewBox="0 0 200 200" fill="none" xmlns="http://www.w3.org/2000/svg">
<path d="M159.1 44.2998H41C38.2386 44.2998 36 46.5384 36 49.2998V150.6C36 153.361 38.2386 155.6 41 155.6H159.1C161.861 155.6 164.1 153.361 164.1 150.6V49.2998C164.1 46.5384 161.861 44.2998 159.1 44.2998Z" fill="white" stroke="black" stroke-width="4"/>
<path d="M164.1 44.2998H36V61.6998H164.1V44.2998Z" fill="black"/>
<path d="M44.6 56.6C46.9749 56.6 48.9001 54.6748 48.9001 52.3C48.9001 49.9252 46.9749 48 44.6 48C42.2252 48 40.3 49.9252 40.3 52.3C40.3 54.6748 42.2252 56.6 44.6 56.6Z" fill="#FF0077"/>
<path d="M57.1999 56.6C59.5747 56.6 61.4999 54.6748 61.4999 52.3C61.4999 49.9252 59.5747 48 57.1999 48C54.8251 48 52.8999 49.9252 52.8999 52.3C52.8999 54.6748 54.8251 56.6 57.1999 56.6Z" fill="white"/>
<path d="M61.2002 94H138.8" stroke="black" stroke-width="4" stroke-linecap="round"/>
<path d="M87.0002 100.5C90.5901 100.5 93.5002 97.5899 93.5002 94C93.5002 90.4101 90.5901 87.5 87.0002 87.5C83.4104 87.5 80.5002 90.4101 80.5002 94C80.5002 97.5899 83.4104 100.5 87.0002 100.5Z" fill="#FF0077" stroke="black" stroke-width="4"/>
<path d="M61.2002 107.9H138.8" stroke="black" stroke-width="4" stroke-linecap="round"/>
<path d="M61.2002 121.9H138.8" stroke="black" stroke-width="4" stroke-linecap="round"/>
<path d="M112.7 114.4C116.29 114.4 119.2 111.49 119.2 107.9C119.2 104.31 116.29 101.4 112.7 101.4C109.11 101.4 106.2 104.31 106.2 107.9C106.2 111.49 109.11 114.4 112.7 114.4Z" fill="#FF0077" stroke="black" stroke-width="4"/>
<path d="M73.9001 128.4C77.49 128.4 80.4001 125.49 80.4001 121.9C80.4001 118.31 77.49 115.4 73.9001 115.4C70.3103 115.4 67.4001 118.31 67.4001 121.9C67.4001 125.49 70.3103 128.4 73.9001 128.4Z" fill="#FF0077" stroke="black" stroke-width="4"/>
</svg>
