<svg width="200" height="200" viewBox="0 0 200 200" fill="none" xmlns="http://www.w3.org/2000/svg">
<path d="M159.1 44.2998H41C38.2386 44.2998 36 46.5384 36 49.2998V150.6C36 153.361 38.2386 155.6 41 155.6H159.1C161.861 155.6 164.1 153.361 164.1 150.6V49.2998C164.1 46.5384 161.861 44.2998 159.1 44.2998Z" fill="white" stroke="black" stroke-width="4"/>
<path d="M164.1 44.2998H36V61.6998H164.1V44.2998Z" fill="black"/>
<path d="M44.6 56.6C46.9749 56.6 48.9001 54.6748 48.9001 52.3C48.9001 49.9252 46.9749 48 44.6 48C42.2252 48 40.3 49.9252 40.3 52.3C40.3 54.6748 42.2252 56.6 44.6 56.6Z" fill="#FF0077"/>
<path d="M57.1999 56.6C59.5747 56.6 61.4999 54.6748 61.4999 52.3C61.4999 49.9252 59.5747 48 57.1999 48C54.8251 48 52.8999 49.9252 52.8999 52.3C52.8999 54.6748 54.8251 56.6 57.1999 56.6Z" fill="white"/>
<path d="M93.1999 74.0996H53.9C52.4088 74.0996 51.2 75.3084 51.2 76.7996V88.3996C51.2 89.8908 52.4088 91.0996 53.9 91.0996H93.1999C94.6911 91.0996 95.9 89.8908 95.9 88.3996V76.7996C95.9 75.3084 94.6911 74.0996 93.1999 74.0996Z" fill="#FF0077" stroke="black" stroke-width="4" stroke-miterlimit="10"/>
<path d="M115.7 99.3994H53.9C52.4088 99.3994 51.2 100.608 51.2 102.099V113.699C51.2 115.191 52.4088 116.399 53.9 116.399H115.7C117.191 116.399 118.4 115.191 118.4 113.699V102.099C118.4 100.608 117.191 99.3994 115.7 99.3994Z" fill="#FF0077" stroke="black" stroke-width="4" stroke-miterlimit="10"/>
<path d="M94.6999 124.7H53.9C52.4088 124.7 51.2 125.909 51.2 127.4V139C51.2 140.491 52.4088 141.7 53.9 141.7H94.6999C96.1911 141.7 97.4 140.491 97.4 139V127.4C97.4 125.909 96.1911 124.7 94.6999 124.7Z" fill="#FF0077" stroke="black" stroke-width="4" stroke-miterlimit="10"/>
</svg>
