<svg width="200" height="200" viewBox="0 0 200 200" fill="none" xmlns="http://www.w3.org/2000/svg">
<path d="M145.1 156.6H59.2002C56.4002 156.6 54.2002 154.4 54.2002 151.6L58.2002 64.3999C58.2002 61.5999 60.4002 59.3999 63.2002 59.3999H141.2C144 59.3999 146.2 61.5999 146.2 64.3999L150.2 151.6C150.2 154.4 148 156.6 145.2 156.6H145.1Z" fill="white" stroke="black" stroke-width="4" stroke-miterlimit="10"/>
<path d="M83.3001 82.0001C85.8958 82.0001 88.0001 79.8958 88.0001 77.3001C88.0001 74.7044 85.8958 72.6001 83.3001 72.6001C80.7044 72.6001 78.6001 74.7044 78.6001 77.3001C78.6001 79.8958 80.7044 82.0001 83.3001 82.0001Z" fill="white" stroke="black" stroke-width="4" stroke-miterlimit="10"/>
<path d="M121 82.0001C123.596 82.0001 125.7 79.8958 125.7 77.3001C125.7 74.7044 123.596 72.6001 121 72.6001C118.404 72.6001 116.3 74.7044 116.3 77.3001C116.3 79.8958 118.404 82.0001 121 82.0001Z" fill="white" stroke="black" stroke-width="4" stroke-miterlimit="10"/>
<path d="M83.2998 72.6V55.3C83.2998 44.8 91.7998 36.3 102.3 36.3C112.8 36.3 121.3 44.8 121.3 55.3V72.6" stroke="black" stroke-width="4" stroke-miterlimit="10"/>
</svg>
