<svg width="200" height="200" viewBox="0 0 200 200" fill="none" xmlns="http://www.w3.org/2000/svg">
<path d="M150.5 97.3999H49.5L58.2 144C58.6 146.4 60.7 148.1 63.1 148.1H137C139.4 148.1 141.5 146.4 141.9 144L150.6 97.3999H150.5Z" fill="white" stroke="black" stroke-width="4" stroke-miterlimit="10"/>
<path d="M149.9 80.3999H50.1998C48.322 80.3999 46.7998 81.9221 46.7998 83.7999V93.9999C46.7998 95.8777 48.322 97.3999 50.1998 97.3999H149.9C151.778 97.3999 153.3 95.8777 153.3 93.9999V83.7999C153.3 81.9221 151.778 80.3999 149.9 80.3999Z" fill="#FF0077" stroke="black" stroke-width="4" stroke-miterlimit="10"/>
<path d="M92.5718 60.021C94.4464 58.1464 94.4464 55.1073 92.5718 53.2327C90.6973 51.3582 87.6581 51.3582 85.7836 53.2327L60.0449 78.9714C58.1704 80.8459 58.1704 83.8851 60.0449 85.7596C61.9195 87.6342 64.9586 87.6342 66.8332 85.7596L92.5718 60.021Z" fill="black" stroke="black" stroke-width="4" stroke-miterlimit="10"/>
<path d="M133.162 85.8887C135.037 87.7633 138.076 87.7633 139.95 85.8887C141.825 84.0142 141.825 80.975 139.95 79.1005L114.212 53.3618C112.337 51.4873 109.298 51.4873 107.424 53.3618C105.549 55.2363 105.549 58.2755 107.424 60.1501L133.162 85.8887Z" fill="black" stroke="black" stroke-width="4" stroke-miterlimit="10"/>
</svg>
