<svg width="200" height="200" viewBox="0 0 200 200" fill="none" xmlns="http://www.w3.org/2000/svg">
<path d="M59.0658 158.053L92.512 124.607L80.4911 112.586L47.045 146.033L59.0658 158.053Z" fill="black"/>
<path d="M53.0001 165.9C60.6769 165.9 66.9001 159.677 66.9001 152C66.9001 144.323 60.6769 138.1 53.0001 138.1C45.3233 138.1 39.1001 144.323 39.1001 152C39.1001 159.677 45.3233 165.9 53.0001 165.9Z" fill="black"/>
<path d="M97.3999 129.1L75.8999 107.6L119.3 60.4C122.4 57 126.4 54.4 130.7 52.7999L164.4 40.7L152.3 74.4C150.7 78.8 148.1 82.7 144.7 85.8L97.4999 129.2L97.3999 129.1Z" fill="white" stroke="black" stroke-width="4" stroke-miterlimit="10"/>
<path d="M63.4824 92.2686L112.697 141.483L106.969 147.211C103.505 150.676 97.8478 150.676 94.383 147.211L57.7549 110.583C54.29 107.118 54.29 101.461 57.7549 97.9961L63.4824 92.2686Z" fill="#FF0077" stroke="black" stroke-width="4" stroke-miterlimit="10"/>
<path d="M88.1001 116.9L119.6 85.3999" stroke="black" stroke-width="4" stroke-miterlimit="10" stroke-linecap="round"/>
</svg>
