<svg width="200" height="200" viewBox="0 0 200 200" fill="none" xmlns="http://www.w3.org/2000/svg">
<path d="M130.5 146.8V84.5C130.5 65.2 114.8 49.5 95.5 49.5C76.2 49.5 60.5 65.2 60.5 84.5V148.8" fill="#FF0077"/>
<path d="M130.5 146.8V84.5C130.5 65.2 114.8 49.5 95.5 49.5C76.2 49.5 60.5 65.2 60.5 84.5V148.8" stroke="black" stroke-width="4" stroke-miterlimit="10"/>
<path d="M60.5 146.5C69.5 146.5 69.5 154.5 78.5 154.5C87.5 154.5 87.5 146.5 96.5 146.5C105.5 146.5 105.5 154.5 114.5 154.5C123.5 154.5 123.5 146.5 132.5 146.5" fill="#FF0077"/>
<path d="M60.5 146.5C69.5 146.5 69.5 154.5 78.5 154.5C87.5 154.5 87.5 146.5 96.5 146.5C105.5 146.5 105.5 154.5 114.5 154.5C123.5 154.5 123.5 146.5 132.5 146.5" stroke="black" stroke-width="4" stroke-miterlimit="10"/>
<path d="M97.5 101.1C103.188 101.1 107.8 96.4885 107.8 90.8C107.8 85.1115 103.188 80.5 97.5 80.5C91.8114 80.5 87.2 85.1115 87.2 90.8C87.2 96.4885 91.8114 101.1 97.5 101.1Z" fill="white" stroke="black" stroke-width="4" stroke-miterlimit="10"/>
<path d="M124.9 101.1C130.589 101.1 135.2 96.4885 135.2 90.8C135.2 85.1115 130.589 80.5 124.9 80.5C119.212 80.5 114.6 85.1115 114.6 90.8C114.6 96.4885 119.212 101.1 124.9 101.1Z" fill="white" stroke="black" stroke-width="4" stroke-miterlimit="10"/>
</svg>
