<svg width="200" height="200" viewBox="0 0 200 200" fill="none" xmlns="http://www.w3.org/2000/svg">
<path d="M142.629 62.6747C147.26 65.3458 148.848 71.2646 146.177 75.8948C143.804 80.0079 138.87 81.717 134.551 80.1761L119.872 120.828C123.711 126.907 124.134 134.857 120.292 141.517L119.577 142.757L64.4836 110.975L65.199 109.735C69.1947 102.809 76.7073 99.1776 84.1807 99.794L111.958 67.1954C108.301 64.2565 107.23 59.0118 109.647 54.8217C112.319 50.1915 118.237 48.6034 122.868 51.2744L142.629 62.6747Z" fill="#FF0077"/>
<path d="M142.629 62.6747L143.629 60.9423L143.629 60.9423L142.629 62.6747ZM146.177 75.8948L147.909 76.8942L147.909 76.8942L146.177 75.8948ZM134.551 80.1761L135.223 78.2924L133.347 77.6228L132.67 79.4968L134.551 80.1761ZM119.872 120.828L117.991 120.149L117.659 121.069L118.181 121.896L119.872 120.828ZM120.292 141.517L122.025 142.517L122.025 142.516L120.292 141.517ZM119.577 142.757L118.578 144.49L120.31 145.489L121.309 143.757L119.577 142.757ZM64.4836 110.975L62.7512 109.975L61.7518 111.708L63.4842 112.707L64.4836 110.975ZM65.199 109.735L63.4666 108.735L63.4666 108.735L65.199 109.735ZM84.1807 99.794L84.0163 101.787L85.038 101.872L85.703 101.091L84.1807 99.794ZM111.958 67.1954L113.48 68.4926L114.815 66.9259L113.211 65.6365L111.958 67.1954ZM109.647 54.8217L107.915 53.8224L107.915 53.8224L109.647 54.8217ZM122.868 51.2744L123.867 49.542L123.867 49.542L122.868 51.2744ZM142.629 62.6747L141.63 64.4071C145.304 66.5263 146.564 71.222 144.444 74.8954L146.177 75.8948L147.909 76.8942C151.132 71.3072 149.216 64.1654 143.629 60.9423L142.629 62.6747ZM146.177 75.8948L144.444 74.8954C142.564 78.1558 138.649 79.5149 135.223 78.2924L134.551 80.1761L133.879 82.0597C139.09 83.9192 145.045 81.86 147.909 76.8942L146.177 75.8948ZM134.551 80.1761L132.67 79.4968L117.991 120.149L119.872 120.828L121.753 121.507L136.432 80.8553L134.551 80.1761ZM119.872 120.828L118.181 121.896C121.64 127.372 122.016 134.526 118.56 140.518L120.292 141.517L122.025 142.516C126.252 135.188 125.783 126.442 121.563 119.76L119.872 120.828ZM120.292 141.517L118.56 140.518L117.845 141.758L119.577 142.757L121.309 143.757L122.025 142.517L120.292 141.517ZM119.577 142.757L120.576 141.025L65.483 109.242L64.4836 110.975L63.4842 112.707L118.578 144.49L119.577 142.757ZM64.4836 110.975L66.216 111.974L66.9314 110.734L65.199 109.735L63.4666 108.735L62.7512 109.975L64.4836 110.975ZM65.199 109.735L66.9314 110.734C70.526 104.503 77.285 101.232 84.0163 101.787L84.1807 99.794L84.3451 97.8008C76.1296 97.1232 67.8635 101.114 63.4666 108.735L65.199 109.735ZM84.1807 99.794L85.703 101.091L113.48 68.4926L111.958 67.1954L110.436 65.8983L82.6584 98.4969L84.1807 99.794ZM111.958 67.1954L113.211 65.6365C110.311 63.3059 109.463 59.1436 111.38 55.8211L109.647 54.8217L107.915 53.8224C104.997 58.88 106.292 65.2072 110.705 68.7543L111.958 67.1954ZM109.647 54.8217L111.38 55.8211C113.499 52.1477 118.195 50.8877 121.868 53.0069L122.868 51.2744L123.867 49.542C118.28 46.3191 111.138 48.2354 107.915 53.8224L109.647 54.8217ZM122.868 51.2744L121.868 53.0068L141.63 64.4071L142.629 62.6747L143.629 60.9423L123.867 49.542L122.868 51.2744Z" fill="black"/>
<path d="M92.0301 126.866L78.4081 149.5" stroke="black" stroke-width="4"/>
<path d="M86.6326 150.524C80.8203 152.291 74.6756 149.013 72.9081 143.2" stroke="black" stroke-width="4" stroke-linecap="round"/>
</svg>
