<svg width="200" height="200" viewBox="0 0 200 200" fill="none" xmlns="http://www.w3.org/2000/svg">
<path d="M159.1 44.2998H41C38.2386 44.2998 36 46.5384 36 49.2998V150.6C36 153.361 38.2386 155.6 41 155.6H159.1C161.861 155.6 164.1 153.361 164.1 150.6V49.2998C164.1 46.5384 161.861 44.2998 159.1 44.2998Z" fill="white" stroke="black" stroke-width="4"/>
<path d="M70.9002 106.5C83.5002 115.4 93.8002 138.1 105.1 137.7C114.6 137.4 120.9 127.4 130.7 124.8C125.9 119.7 131.4 99.8997 115.9 101.3C107.1 102.1 105.3 107.9 96.5002 107.3C82.1002 106.2 85.3002 78.9997 70.6002 78.1997C58.0002 77.5997 62.0002 95.5997 58.7002 103.6C62.2002 102.9 66.4002 103.4 70.8002 106.5H70.9002Z" fill="#FF0077" stroke="black" stroke-width="4"/>
<path d="M145 127.2C141.5 124 137 121.9 131.5 122.2C128.1 122.4 124.8 124.3 122.2 126C117.3 129.1 111.7 134.8 105.2 135C94.0001 135.4 83.6001 112.6 71.0001 103.8C66.6001 100.7 62.4001 100.2 58.9001 100.9C52.4001 102.1 48.1001 107.3 48.1001 107.3V142.3C48.1001 144.2 49.9001 145.8 52.2001 145.8H147.9C151.6 145.8 154.2 142.1 152.9 138.6C151.6 135.1 152.3 137 152.2 136.9C150.6 133.5 148.2 130 145.1 127.2H145Z" fill="black"/>
<path d="M164.1 44.2998H36V61.6998H164.1V44.2998Z" fill="black"/>
<path d="M44.6 56.6C46.9749 56.6 48.9001 54.6748 48.9001 52.3C48.9001 49.9252 46.9749 48 44.6 48C42.2252 48 40.3 49.9252 40.3 52.3C40.3 54.6748 42.2252 56.6 44.6 56.6Z" fill="#FF0077"/>
<path d="M57.1999 56.6C59.5747 56.6 61.4999 54.6748 61.4999 52.3C61.4999 49.9252 59.5747 48 57.1999 48C54.8251 48 52.8999 49.9252 52.8999 52.3C52.8999 54.6748 54.8251 56.6 57.1999 56.6Z" fill="white"/>
</svg>
