<svg width="200" height="200" viewBox="0 0 200 200" fill="none" xmlns="http://www.w3.org/2000/svg">
<path d="M163.379 110.188C165.345 118.481 164.922 127.217 162.745 135.426C160.378 144.394 155.496 152.54 148.416 158.581C143.407 162.833 137.595 166.033 131.403 168.222C129.966 168.727 128.529 169.169 127.07 169.569C134.848 167.19 136.37 162.37 138.145 157.592C142.773 145.172 134.848 133.027 128.465 123.597C123.372 116.082 117.792 109.346 115.573 100.21C112.192 86.2967 122.696 77.6032 115.468 82.0236C113.439 83.2655 110.691 85.4126 108.853 86.9071C102.745 91.959 97.271 98.3581 94.8194 105.999C92.1776 114.229 94.8617 122.27 96.5736 130.417C96.8694 131.848 97.1442 133.469 96.2777 134.669C95.7071 135.469 94.6926 135.911 93.6782 135.911C90.4657 135.932 86.8729 130.459 85.3089 127.785C84.9285 127.133 83.9775 127.07 83.5336 127.701C80.2578 132.185 76.9397 137.447 76.665 143.657C76.4959 147.404 77.6372 161.191 90.2755 167.716C87.7605 166.748 85.3089 165.612 82.9419 164.306C75.7351 160.307 69.0143 156.034 63.4982 149.761C55.6362 140.794 51.1346 128.859 50.4583 117.008C49.5073 100.589 57.6863 85.8546 69.1834 74.6141C70.0499 73.7721 71.5082 74.4878 71.3814 75.6877C70.8319 80.8027 70.6417 90.3382 75.5448 96.8214C76.2423 97.7476 77.7006 97.3056 77.8274 96.1689C78.4191 91.0328 80.8707 80.066 90.043 69.7938C106.338 51.5017 102.195 38.7877 93.2132 32.7254C91.9451 31.8624 89.2611 29.9469 91.7549 28.9365C94.6926 27.7577 98.6025 28.6418 101.604 29.2102C104.964 29.8416 108.24 30.831 111.389 32.136C126.5 38.3878 137.278 51.7753 136.264 68.5729C135.186 86.6966 130.072 96.7794 139.434 100.505C139.434 100.505 149.727 104.82 153.298 93.9166C153.615 92.9694 154.144 92.9483 154.926 93.3272C156.532 94.1061 157.758 96.6952 158.624 98.2107C160.759 101.958 162.407 105.999 163.401 110.188H163.379Z" fill="#FF0077"/>
<mask id="path-2-inside-1_6341_286" fill="white">
<path d="M113.587 171.59C113.079 171.611 112.551 171.632 112.044 171.632C106.76 171.674 101.477 171.042 96.3833 169.695C100.568 170.748 106.612 171.8 113.608 171.59H113.587Z"/>
</mask>
<path d="M113.587 171.59C113.079 171.611 112.551 171.632 112.044 171.632C106.76 171.674 101.477 171.042 96.3833 169.695C100.568 170.748 106.612 171.8 113.608 171.59H113.587Z" fill="#FF0077"/>
<path d="M113.587 171.59V170.59H113.566L113.545 170.591L113.587 171.59ZM112.044 171.632V170.632L112.036 170.632L112.044 171.632ZM96.3833 169.695L96.6272 168.726L96.1276 170.662L96.3833 169.695ZM113.608 171.59L113.638 172.589L113.608 170.59V171.59ZM113.587 171.59L113.545 170.591C113.036 170.612 112.527 170.632 112.044 170.632V171.632V172.632C112.575 172.632 113.123 172.61 113.628 172.589L113.587 171.59ZM112.044 171.632L112.036 170.632C106.837 170.673 101.642 170.052 96.639 168.729L96.3833 169.695L96.1276 170.662C101.311 172.033 106.684 172.675 112.052 172.632L112.044 171.632ZM96.3833 169.695L96.1394 170.665C100.389 171.734 106.528 172.803 113.638 172.589L113.608 171.59L113.578 170.59C106.697 170.797 100.747 169.762 96.6272 168.726L96.3833 169.695ZM113.608 171.59V170.59H113.587V171.59V172.59H113.608V171.59Z" fill="black" mask="url(#path-2-inside-1_6341_286)"/>
<path d="M127.049 169.569C128.508 169.19 129.945 168.727 131.382 168.222C137.574 166.033 143.407 162.833 148.395 158.581C155.496 152.54 160.357 144.394 162.724 135.426C164.901 127.217 165.303 118.481 163.358 110.188C162.365 106.02 160.716 101.958 158.582 98.2107C157.736 96.7162 156.49 94.1271 154.883 93.3272C154.101 92.9483 153.573 92.9694 153.256 93.9166C149.684 104.82 139.392 100.505 139.392 100.505C130.029 96.8004 135.144 86.6966 136.222 68.5729C137.236 51.7753 126.458 38.3878 111.346 32.136C108.197 30.831 104.901 29.8416 101.561 29.2102C98.5813 28.6418 94.6503 27.7577 91.7126 28.9365C89.2188 29.9469 91.8817 31.8624 93.1709 32.7254C102.174 38.7877 106.295 51.5017 90.0008 69.7938C80.8284 80.087 78.3557 91.0328 77.7851 96.1689C77.6583 97.3056 76.2 97.7266 75.5026 96.8215C70.5994 90.3171 70.7896 80.8027 71.3391 75.6877C71.4659 74.4878 70.0076 73.7721 69.1411 74.6141C57.6863 85.8546 49.4861 100.589 50.4583 117.008C51.1346 128.859 55.6362 140.794 63.4982 149.761C69.0143 156.034 75.735 160.307 82.9419 164.306C85.3089 165.633 87.7605 166.769 90.2755 167.716C91.7972 168.306 93.34 168.832 94.9039 169.274" stroke="black" stroke-width="4"/>
<path d="M113.714 171.59C118.067 171.442 122.421 170.811 126.648 169.695" stroke="black" stroke-width="1.3"/>
<path d="M96.3623 169.695C101.477 171.042 106.739 171.674 112.023 171.632C112.53 171.632 113.058 171.632 113.566 171.59" stroke="black" stroke-width="1.3"/>
<path d="M126.648 169.674C126.775 169.632 126.923 169.611 127.049 169.569C134.827 167.19 136.349 162.37 138.124 157.592C142.752 145.173 134.827 133.027 128.444 123.597C123.351 116.082 117.771 109.346 115.552 100.211C112.171 86.2968 122.675 77.6033 115.447 82.0238C113.418 83.2657 110.67 85.4127 108.832 86.9073C102.724 91.9592 97.2499 98.3582 94.7983 105.999C92.1565 114.23 94.8406 122.271 96.5524 130.417C96.8483 131.848 97.1231 133.469 96.2566 134.669C95.6859 135.469 94.6715 135.911 93.657 135.911C90.4446 135.932 86.8518 130.459 85.2878 127.786C84.9074 127.133 83.9563 127.07 83.5125 127.701C80.2367 132.185 76.9186 137.447 76.6438 143.657C76.4748 147.404 77.616 161.191 90.2544 167.717H90.2967C90.2967 167.717 91.9874 168.453 94.8828 169.274C95.3689 169.422 95.855 169.569 96.3622 169.674C100.547 170.727 106.591 171.779 113.587 171.569C113.629 171.569 113.671 171.569 113.714 171.569C117.771 171.442 122.125 170.895 126.648 169.674Z" stroke="black" stroke-width="4"/>
</svg>
