<svg width="200" height="200" viewBox="0 0 200 200" fill="none" xmlns="http://www.w3.org/2000/svg">
<rect x="50.0001" y="61.1843" width="83.8518" height="83.8518" rx="11.43" fill="white"/>
<path d="M133.852 93.0002V129.796C133.852 138.213 127.029 145.036 118.612 145.036H65.2402C56.8233 145.036 50.0001 138.213 50.0001 129.796V76.4244C50.0001 68.0075 56.8233 61.1843 65.2402 61.1843H120.952" stroke="black" stroke-width="4" stroke-linecap="round"/>
<mask id="path-3-outside-1_6341_260" maskUnits="userSpaceOnUse" x="64.2324" y="49.0005" width="89" height="60" fill="black">
<rect fill="white" x="64.2324" y="49.0005" width="89" height="60"/>
<path d="M148.496 73.8056C149.298 74.5581 149.298 75.8316 148.496 76.5841L127.939 95.8711C126.722 97.0124 124.73 96.1499 124.73 94.4818V87.2375C124.73 86.1854 123.871 85.3305 122.819 85.3521C100.042 85.8212 83.0572 94.621 72.7431 103.546C71.1546 104.921 68.5078 103.295 69.4191 101.403C81.2923 76.7461 106.892 65.1125 122.801 64.4407C123.863 64.3958 124.73 63.5424 124.73 62.4786V55.9087C124.73 54.2406 126.722 53.3781 127.939 54.5194L148.496 73.8056Z"/>
</mask>
<path d="M148.496 73.8056C149.298 74.5581 149.298 75.8316 148.496 76.5841L127.939 95.8711C126.722 97.0124 124.73 96.1499 124.73 94.4818V87.2375C124.73 86.1854 123.871 85.3305 122.819 85.3521C100.042 85.8212 83.0572 94.621 72.7431 103.546C71.1546 104.921 68.5078 103.295 69.4191 101.403C81.2923 76.7461 106.892 65.1125 122.801 64.4407C123.863 64.3958 124.73 63.5424 124.73 62.4786V55.9087C124.73 54.2406 126.722 53.3781 127.939 54.5194L148.496 73.8056Z" fill="#FF0077"/>
<path d="M127.939 54.5194L125.202 57.4365L127.939 54.5194ZM72.7431 103.546L70.1256 100.521L72.7431 103.546ZM69.4191 101.403L65.8152 99.6671L69.4191 101.403ZM122.819 85.3521L122.737 81.353L122.819 85.3521ZM127.939 95.8711L130.676 98.7882L127.939 95.8711ZM148.496 76.5841L145.759 73.667L148.496 76.5841ZM148.496 76.5841L145.759 73.667L125.202 92.954L127.939 95.8711L130.676 98.7882L151.233 79.5012L148.496 76.5841ZM124.73 94.4818H128.73V87.2375H124.73H120.73V94.4818H124.73ZM122.819 85.3521L122.737 81.353C98.9392 81.8431 81.0764 91.0453 70.1256 100.521L72.7431 103.546L75.3605 106.571C85.038 98.1966 101.144 89.7994 122.902 89.3513L122.819 85.3521ZM69.4191 101.403L73.0231 103.138C84.1757 79.9779 108.34 69.0549 122.969 68.4372L122.801 64.4407L122.632 60.4443C105.443 61.1701 78.409 73.5143 65.8152 99.6671L69.4191 101.403ZM124.73 62.4786H128.73V55.9087H124.73H120.73V62.4786H124.73ZM127.939 54.5194L125.202 57.4365L145.759 76.7227L148.496 73.8056L151.233 70.8884L130.676 51.6022L127.939 54.5194ZM124.73 55.9087H128.73C128.73 57.7431 126.54 58.6916 125.202 57.4365L127.939 54.5194L130.676 51.6022C126.905 48.0645 120.73 50.7382 120.73 55.9087H124.73ZM122.801 64.4407L122.969 68.4372C126.042 68.3074 128.73 65.8157 128.73 62.4786H124.73H120.73C120.73 61.269 121.685 60.4842 122.632 60.4443L122.801 64.4407ZM72.7431 103.546L70.1256 100.521C70.9081 99.8443 71.8275 100.032 72.2789 100.317C72.5352 100.479 72.8851 100.801 73.0886 101.359C73.3196 101.992 73.2556 102.655 73.0231 103.138L69.4191 101.403L65.8152 99.6671C64.2687 102.879 65.9841 105.804 68.0084 107.082C69.9526 108.309 72.9896 108.623 75.3605 106.571L72.7431 103.546ZM124.73 87.2375H128.73C128.73 83.9814 126.067 81.2844 122.737 81.353L122.819 85.3521L122.902 89.3513C121.676 89.3766 120.73 88.3894 120.73 87.2375H124.73ZM127.939 95.8711L125.202 92.954C126.54 91.6988 128.73 92.6474 128.73 94.4818H124.73H120.73C120.73 99.6524 126.905 102.326 130.676 98.7882L127.939 95.8711ZM148.496 76.5841L151.233 79.5012C153.719 77.1685 153.719 73.221 151.233 70.8884L148.496 73.8056L145.759 76.7227C144.877 75.8951 144.877 74.4946 145.759 73.667L148.496 76.5841Z" fill="black" mask="url(#path-3-outside-1_6341_260)"/>
</svg>
