<svg width="200" height="200" viewBox="0 0 200 200" fill="none" xmlns="http://www.w3.org/2000/svg">
<path d="M143.4 158.7C142.1 158.7 140.9 158.2 140 157.3L129.8 147.5L58.5998 148.2C52.1998 148.2 46.1998 145.8 42.0998 141.6C38.6998 138.1 36.7998 133.7 36.7998 129.1L37.1998 75.8001C37.2998 65.5001 47.0998 57.1001 58.9998 57.1001H140.6C152.4 57.1001 162.2 65.4001 162.4 75.7001L163.1 128.1C163.2 136.2 157.4 143.5 148.6 146.2L148.2 154C148.1 156.6 145.9 158.7 143.3 158.7H143.4Z" fill="white"/>
<path d="M140.6 59.2001C151.4 59.2001 160.2 66.6001 160.4 75.8001L161.1 128.2C161.2 136 155.1 142.7 146.7 144.7L146.2 154C146.2 155.7 144.7 156.8 143.3 156.8C141.9 156.8 141.9 156.5 141.3 156L130.5 145.6L58.8999 146.3C58.7999 146.3 58.5999 146.3 58.4999 146.3C47.4999 146.3 38.5999 138.7 38.6999 129.2L39.0999 75.9001C39.0999 66.6001 47.9999 59.1001 58.8999 59.1001H140.5M140.6 55.2001H59.0999C46.0999 55.2001 35.3999 64.5001 35.2999 75.9001L34.8999 129.2C34.8999 134.3 36.8999 139.3 40.6999 143.1C45.1999 147.7 51.7999 150.3 58.5999 150.3C65.3999 150.3 58.8999 150.3 59.0999 150.3L129 149.6L138.6 158.8C139.9 160 141.6 160.7 143.4 160.7C147.1 160.7 150.1 157.8 150.3 154.1L150.6 147.6C159.4 144.3 165.3 136.6 165.1 128L164.4 75.7001C164.2 64.3001 153.5 55.1001 140.6 55.1001V55.2001Z" fill="black"/>
<path d="M99.2 74H58.5C57.3954 74 56.5 74.8954 56.5 76V85.5C56.5 86.6046 57.3954 87.5 58.5 87.5H99.2C100.305 87.5 101.2 86.6046 101.2 85.5V76C101.2 74.8954 100.305 74 99.2 74Z" fill="#FF0077" stroke="black" stroke-width="4" stroke-miterlimit="10"/>
<path d="M121.7 96.8999H58.5C57.3954 96.8999 56.5 97.7953 56.5 98.8999V108.4C56.5 109.504 57.3954 110.4 58.5 110.4H121.7C122.805 110.4 123.7 109.504 123.7 108.4V98.8999C123.7 97.7953 122.805 96.8999 121.7 96.8999Z" fill="#FF0077" stroke="black" stroke-width="4" stroke-miterlimit="10"/>
<path d="M100.7 119.8H58.5C57.3954 119.8 56.5 120.695 56.5 121.8V131.3C56.5 132.405 57.3954 133.3 58.5 133.3H100.7C101.805 133.3 102.7 132.405 102.7 131.3V121.8C102.7 120.695 101.805 119.8 100.7 119.8Z" fill="#FF0077" stroke="black" stroke-width="4" stroke-miterlimit="10"/>
</svg>
