<svg width="200" height="200" viewBox="0 0 200 200" fill="none" xmlns="http://www.w3.org/2000/svg">
<path fill-rule="evenodd" clip-rule="evenodd" d="M99.4001 72.3999C92.4001 67.8999 83.3001 67.3999 76.2001 71.6999C74 73.0324 70.2001 76.2999 68.3001 79.4999C63.5001 87.5999 64.9001 97.2999 69.1001 105.4C76.1001 118.8 90.7001 128.8 103.6 135.2C104.4 135.6 105.4 135.6 106.2 135.2C119.1 128.8 133.7 118.8 140.7 105.4C144.9 97.3999 146.3 87.5999 141.5 79.4999C139.6 76.1999 136.8 73.5999 133.6 71.6999C126.4 67.3999 117.4 67.8999 110.4 72.3999L104.9 75.8999L99.4001 72.3999Z" fill="#FF0077" stroke="black" stroke-width="4" stroke-miterlimit="10"/>
</svg>
