<svg width="200" height="200" viewBox="0 0 200 200" fill="none" xmlns="http://www.w3.org/2000/svg">
<path d="M79.0001 46.8L45.0001 80.8C43.5001 82.3 43.1001 84.5 44.0001 86.4L53.9001 108.1C54.1001 108.6 54.5001 109.1 54.9001 109.6L116.5 171.2C118.5 173.2 121.6 173.2 123.6 171.2L169.3 125.5C171.3 123.5 171.3 120.4 169.3 118.4L107.7 56.8C107.3 56.4 106.8 56 106.2 55.8L84.5001 45.9C82.6001 45 80.4001 45.4 78.9001 46.9L79.0001 46.8Z" fill="#FF0077" stroke="black" stroke-width="4" stroke-miterlimit="10"/>
<path d="M79.5999 89.2C83.8525 89.2 87.2999 85.7526 87.2999 81.5C87.2999 77.2475 83.8525 73.8 79.5999 73.8C75.3473 73.8 71.8999 77.2475 71.8999 81.5C71.8999 85.7526 75.3473 89.2 79.5999 89.2Z" fill="white" stroke="black" stroke-width="4" stroke-miterlimit="10"/>
<path d="M51.3999 74.5C41.9999 65.1 39.0999 52.8 44.7999 47.1C50.4999 41.4 62.7999 44.3 72.1999 53.7C81.5999 63.1 84.4999 75.4 78.7999 81.1C73.0999 86.8 74.2999 84 71.2999 84" stroke="black" stroke-width="4" stroke-miterlimit="10"/>
</svg>
