<svg width="200" height="200" viewBox="0 0 200 200" fill="none" xmlns="http://www.w3.org/2000/svg">
<path d="M170 130.984C170 93.7363 152.718 76.4453 115.462 76.4453C78.2049 76.4453 60.923 93.7363 60.923 130.984C60.923 168.231 78.2049 185.522 115.462 185.522C152.718 185.522 170 168.231 170 130.984Z" fill="#FF0077" stroke="black" stroke-width="4"/>
<path d="M119.825 91.4387C121.194 78.6925 111.753 67.2265 98.7378 65.8287C85.7227 64.4309 74.0622 73.6306 72.6933 86.3768C71.3243 99.123 80.7654 110.589 93.7805 111.987C106.796 113.385 118.456 104.185 119.825 91.4387Z" fill="white"/>
<path d="M82.947 82.0397L61.2585 46.6236C58.9282 42.8245 60.1251 37.8648 63.9242 35.5346C67.7233 33.2043 72.683 34.4012 75.0132 38.2003L96.7017 73.6164" fill="white"/>
<path d="M82.947 82.0397L61.2585 46.6236C58.9282 42.8245 60.1251 37.8648 63.9242 35.5346C67.7233 33.2043 72.683 34.4012 75.0132 38.2003L96.7017 73.6164" stroke="black" stroke-width="4" stroke-linecap="round"/>
<path d="M98.4334 76.5359L79.2837 45.2726C76.9535 41.4735 78.1503 36.5138 81.9495 34.1835C85.7486 31.8533 90.7083 33.0501 93.0385 36.8492L119.895 79.8907" fill="white"/>
<path d="M98.4334 76.5359L79.2837 45.2726C76.9535 41.4735 78.1503 36.5138 81.9495 34.1835C85.7486 31.8533 90.7083 33.0501 93.0385 36.8492L119.895 79.8907" stroke="black" stroke-width="4" stroke-linecap="round"/>
<path d="M59.8077 75.1851C57.2871 70.5337 50.786 70.2163 48.1203 74.7862C46.3884 77.7602 47.2952 80.7976 48.5827 82.9193C50.6137 86.256 55.247 93.3012 60.6691 101.398C60.8051 101.607 60.9411 101.806 61.0771 102.015C82.1672 133.378 110.384 161.259 142.164 181.651C142.164 181.651 154.251 179.729 164.17 161.604C169.882 151.149 170 130.984 170 130.984C164.215 128.581 157.941 122.452 152.909 117.148C141.185 104.789 133.986 88.7495 133.215 71.7396C133.034 67.741 133.224 64.5041 133.795 62.3189C134.348 60.1972 133.741 57.9486 132.109 56.4797L132.027 56.4072C129.28 53.9228 124.973 54.5575 123.005 57.6947C119.596 63.144 119.687 74.6048 119.832 78.5399C119.859 79.3469 119.397 80.0904 118.662 80.3987C95.3326 90.2909 105.433 111.988 105.433 111.988" fill="white"/>
<path d="M59.8077 75.1851C57.2871 70.5337 50.786 70.2163 48.1203 74.7862C46.3884 77.7602 47.2952 80.7976 48.5827 82.9193C50.6137 86.256 55.247 93.3012 60.6691 101.398C60.8051 101.607 60.9411 101.806 61.0771 102.015C82.1672 133.378 110.384 161.259 142.164 181.651C142.164 181.651 154.251 179.729 164.17 161.604C169.882 151.149 170 130.984 170 130.984C164.215 128.581 157.941 122.452 152.909 117.148C141.185 104.789 133.986 88.7495 133.215 71.7396C133.034 67.741 133.224 64.5041 133.795 62.3189C134.348 60.1972 133.741 57.9486 132.109 56.4797L132.027 56.4072C129.28 53.9228 124.973 54.5575 123.005 57.6947C119.596 63.144 119.687 74.6048 119.832 78.5399C119.859 79.3469 119.397 80.0904 118.662 80.3987C95.3326 90.2909 105.433 111.988 105.433 111.988" stroke="black" stroke-width="4" stroke-linecap="round"/>
<path d="M70.8694 93.2555L49.181 57.8395C46.8507 54.0404 48.0476 49.0807 51.8467 46.7504C55.6458 44.4202 60.6055 45.617 62.9357 49.4161L84.6242 84.8322" fill="white"/>
<path d="M70.8694 93.2555L49.181 57.8395C46.8507 54.0404 48.0476 49.0807 51.8467 46.7504C55.6458 44.4202 60.6055 45.617 62.9357 49.4161L84.6242 84.8322" stroke="black" stroke-width="4" stroke-linecap="round"/>
<path d="M115.461 185.522C152.519 185.948 169.583 169.101 170 130.983" stroke="black" stroke-width="4"/>
<path d="M127.802 48.8809C137.259 48.8809 144.93 56.5516 144.93 66.0086" stroke="black" stroke-width="4" stroke-linecap="round"/>
<path d="M135.164 43.323C139.879 45.0639 143.905 48.2011 146.77 52.2269C147.704 53.5507 148.511 54.9651 149.182 56.4521" stroke="black" stroke-width="4" stroke-linecap="round"/>
<path d="M75.7567 146.942C76.9354 149.209 80.8071 154.395 85.4948 157.287" stroke="black" stroke-width="4" stroke-linecap="round"/>
<path d="M76.6182 136.17C79.2295 143.243 83.9444 149.3 89.9921 153.588C91.9687 154.994 94.0995 156.209 96.3391 157.206" stroke="black" stroke-width="4" stroke-linecap="round"/>
</svg>
