<svg width="200" height="200" viewBox="0 0 200 200" fill="none" xmlns="http://www.w3.org/2000/svg">
<path d="M100 152.6C129.05 152.6 152.6 129.05 152.6 99.9999C152.6 70.9497 129.05 47.3999 100 47.3999C70.9498 47.3999 47.4 70.9497 47.4 99.9999C47.4 129.05 70.9498 152.6 100 152.6Z" fill="#FF0077" stroke="black" stroke-width="4" stroke-miterlimit="10"/>
<path d="M100.1 135.2C119.485 135.2 135.2 119.485 135.2 100.1C135.2 80.7148 119.485 65 100.1 65C80.7149 65 65.0001 80.7148 65.0001 100.1C65.0001 119.485 80.7149 135.2 100.1 135.2Z" fill="#FF0077" stroke="white" stroke-width="4" stroke-miterlimit="10"/>
<path d="M134.64 127.154C149.601 108.005 146.205 80.3535 127.056 65.3926C107.907 50.4317 80.2557 53.8269 65.2948 72.976C50.3339 92.125 53.7291 119.777 72.8782 134.738C92.0272 149.698 119.679 146.303 134.64 127.154Z" stroke="white" stroke-width="8" stroke-miterlimit="10" stroke-dasharray="3.1 12.3"/>
<path d="M113 106.191C113 112.03 109.025 116.079 102.582 116.785L102.81 123H97.5097L97.7838 116.738C91.8436 115.985 87.7768 112.83 87 106.474L94.3568 104.543C94.6766 108.122 95.9104 109.676 98.0123 110.288L98.2865 103.178L95.7733 102.707C91.5694 101.907 87.7311 99.0348 87.7311 92.914C87.7311 87.5466 91.6608 83.7799 97.6924 83.0737L97.4183 77H102.81L102.582 83.1679C107.928 83.8741 111.812 86.8403 112.589 92.9611L105.689 94.8915C105.369 91.5486 104.135 90.1832 102.308 89.6653L102.033 96.5394L104.729 97.0102C110.258 97.999 113 101.436 113 106.191ZM95.1336 92.6786C95.1336 94.609 96.0931 95.3623 98.2408 95.8332L97.9666 89.5241C95.9561 89.8066 95.1336 90.7953 95.1336 92.6786ZM102.308 110.476C104.684 110.193 105.643 109.205 105.643 107.18C105.643 105.156 104.684 104.496 102.033 103.931L102.308 110.476Z" fill="black"/>
</svg>
