<svg width="100" height="100" viewBox="0 0 100 100" fill="none" xmlns="http://www.w3.org/2000/svg">
<g clip-path="url(#clip0_6502_2614)">
<path d="M83.5853 83.7904C72.0914 95.2843 61.4249 95.2795 49.9358 83.7904L83.5853 50.1409C95.0744 61.63 95.0792 72.2965 83.5853 83.7904Z" fill="white"></path>
<path d="M5.5573 5.56508L50.0162 16.5702L16.3691 50.2173L5.5573 5.56508Z" fill="white"></path>
<path d="M16.3674 50.2189L50.0138 16.5726L83.69 50.2488L50.0436 83.8951L16.3674 50.2189Z" fill="#FF0077"></path>
<path d="M5.08118 5.10727L20.6644 9.29347L9.23544 20.7225L5.08118 5.10727Z" fill="#FF0077"></path>
<path d="M33.4854 50.1071L16.3596 50.2269L33.3924 33.1939L33.4854 50.1071Z" fill="white"></path>
<path d="M50.0163 33.3485L33.3994 33.1867L50.0163 16.5699L50.0163 33.3485Z" fill="white"></path>
</g>
<defs>
<clipPath id="clip0_6502_2614">
<rect width="100" height="100" fill="white"></rect>
</clipPath>
</defs>
</svg>