<svg width="100" height="100" viewBox="0 0 100 100" fill="none" xmlns="http://www.w3.org/2000/svg">
<path d="M5 21.4092C5 19.2 6.79086 17.4092 9 17.4092H91C93.2091 17.4092 95 19.2 95 21.4092V78.5903C95 80.7995 93.2091 82.5903 91 82.5903H9C6.79086 82.5903 5 80.7995 5 78.5903V21.4092Z" fill="white"></path>
<path fill-rule="evenodd" clip-rule="evenodd" d="M12.3726 53.5625C12.3726 51.6295 13.9396 50.0625 15.8726 50.0625H46.4954C48.4284 50.0625 49.9954 51.6295 49.9954 53.5625C49.9954 55.4955 48.4284 57.0625 46.4954 57.0625H15.8726C13.9396 57.0625 12.3726 55.4955 12.3726 53.5625Z" fill="black"></path>
<path fill-rule="evenodd" clip-rule="evenodd" d="M75.7977 68.8339C75.7977 63.9078 73.512 61.6201 68.5839 61.6201C63.6558 61.6201 61.3701 63.9078 61.3701 68.8339C61.3701 73.76 63.6558 76.0477 68.5839 76.0477C73.512 76.0477 75.7977 73.76 75.7977 68.8339Z" fill="#FF0077"></path>
<path fill-rule="evenodd" clip-rule="evenodd" d="M87.9954 68.8339C87.9954 63.9078 85.7098 61.6201 80.7816 61.6201C75.8535 61.6201 73.5679 63.9078 73.5679 68.8339C73.5679 73.76 75.8535 76.0477 80.7816 76.0477C85.7098 76.0477 87.9954 73.76 87.9954 68.8339Z" fill="#FF0077"></path>
<rect x="5.08887" y="28.125" width="89.7812" height="17.5" fill="black"></rect>
</svg>