<svg width="100" height="100" viewBox="0 0 100 100" fill="none" xmlns="http://www.w3.org/2000/svg">
<rect x="5.09961" y="5" width="89.7881" height="90" rx="4" fill="white"></rect>
<path fill-rule="evenodd" clip-rule="evenodd" d="M87.9946 22.5176C87.9946 15.3648 84.6836 12.043 77.5447 12.043C70.4057 12.043 67.0947 15.3648 67.0947 22.5176C67.0947 29.6704 70.4057 32.9922 77.5447 32.9922C84.6836 32.9922 87.9946 29.6704 87.9946 22.5176Z" fill="#FF0077"></path>
<path d="M32.6482 44.393L5 72.0782V90.9999C5 93.2091 6.79086 94.9999 9 94.9999H91C93.2091 94.9999 95 93.2091 95 90.9999V73.3499L79.1592 57.3923C77.5975 55.8191 75.0543 55.8159 73.4887 57.3852L65.2113 65.6821C63.6485 67.2487 61.1107 67.2487 59.5478 65.6821L38.3103 44.3945C36.748 42.8285 34.2113 42.8279 32.6482 44.393Z" fill="black"></path>
</svg>