<svg width="100" height="100" viewBox="0 0 100 100" fill="none" xmlns="http://www.w3.org/2000/svg">
<path fill-rule="evenodd" clip-rule="evenodd" d="M65.9542 16.6925C63.2433 13.981 58.4947 12 49.9999 12C41.505 12 36.7565 13.981 34.0456 16.6925C31.3344 19.4042 29.355 24.1532 29.355 32.6449L29.355 47.7898H70.6448V32.6449C70.6448 24.1532 68.6654 19.4042 65.9542 16.6925ZM77.6448 32.6449C77.6448 13.767 68.8856 5 49.9999 5C31.1141 5 22.355 13.767 22.355 32.6449L22.355 54.7898H77.6448V32.6449Z" fill="white"></path>
<path fill-rule="evenodd" clip-rule="evenodd" d="M84.0427 60.9574C84.0427 37.7107 73.2565 26.9148 50.0001 26.9148C26.7437 26.9148 15.9575 37.7107 15.9575 60.9574C15.9575 84.2041 26.7437 95 50.0001 95C73.2565 95 84.0427 84.2041 84.0427 60.9574Z" fill="#FF0077"></path>
<path fill-rule="evenodd" clip-rule="evenodd" d="M50 48.4207C56.6114 48.4207 59.6777 51.4897 59.6777 58.0984C59.6777 63.4044 57.7011 66.4287 53.5 67.4148L53.5 80.481C53.5 82.414 51.933 83.981 50 83.981C48.067 83.981 46.5 82.414 46.5 80.481L46.5 67.4148C42.2989 66.4287 40.3223 63.4044 40.3223 58.0984C40.3223 51.4897 43.3886 48.4207 50 48.4207Z" fill="black"></path>
</svg>