<svg width="100" height="100" viewBox="0 0 100 100" fill="none" xmlns="http://www.w3.org/2000/svg">
<path d="M50 5C80.742 5 95 19.2708 95 50C95 80.7292 80.742 95 50 95C19.258 95 5 80.7292 5 50C5 19.2708 19.258 5 50 5ZM50 12.5C24.3817 12.5 12.5 24.3924 12.5 50C12.5 75.6076 24.3817 87.5 50 87.5C75.6183 87.5 87.5 75.6076 87.5 50C87.5 24.3924 75.6183 12.5 50 12.5ZM50 19.5C61.8611 19.5 69.0731 22.2626 73.4062 26.5967C77.7397 30.931 80.5 38.1435 80.5 50C80.5 61.8565 77.7396 69.069 73.4062 73.4033C69.0731 77.7374 61.8611 80.5 50 80.5C38.1389 80.5 30.9269 77.7374 26.5938 73.4033C22.2603 69.069 19.5 61.8565 19.5 50C19.5 38.1435 22.2603 30.931 26.5938 26.5967C30.9269 22.2626 38.1389 19.5 50 19.5Z" fill="white"></path>
<path d="M47.0368 54.7761L45.1895 60.2606H62.1474V67H36V62.1197L40.2158 60.9577V54.7761H36V48.8268H40.2158V45.1084C40.2158 38.1831 45.1421 34 51.8684 34C57.5526 34 61.7211 36.7887 63 42.5986L56.1316 45.2014C55.7526 41.669 54.4263 40.693 51.9632 40.693C49.0737 40.693 47.7 42.2732 47.7 45.5732V48.8268H56.2737V54.7761H47.0368Z" fill="#FF0077"></path>
</svg>