<svg width="100" height="100" viewBox="0 0 100 100" fill="none" xmlns="http://www.w3.org/2000/svg">
<path fill-rule="evenodd" clip-rule="evenodd" d="M59.8993 46.9871C60.6634 48.2323 63.429 52.71 67.156 58.4062C69.8951 62.5926 72.9625 66.1634 82.2496 68.3162C90.1873 70.1562 90.2812 78 84.6873 83.2188C75.0176 93.759 58.3771 95.151 50.1248 94.8796C41.8724 95.151 25.2319 93.759 15.5622 83.2188C9.96836 78 10.0622 70.1562 18 68.3162C27.287 66.1634 30.3544 62.5926 33.0935 58.4062C36.5874 53.0663 38.9811 49.0035 39.8226 47.55C41.4081 44.0418 44.7413 42.375 49.9999 42.375C54.9689 42.375 58.2187 43.8633 59.8993 46.9871Z" fill="#FF0077"></path>
<path fill-rule="evenodd" clip-rule="evenodd" d="M46.4953 23.7045C44.1021 14.7728 37.3922 6.16851 28.4568 8.56274C19.5214 10.957 17.9429 21.7821 20.3361 30.7138C22.7293 39.6455 27.985 42.6831 36.9204 40.2888C45.8558 37.8946 48.8886 32.6362 46.4953 23.7045Z" fill="black"></path>
<path fill-rule="evenodd" clip-rule="evenodd" d="M53.9607 23.7045C56.354 14.7728 63.0639 6.16851 71.9993 8.56274C80.9347 10.957 82.5132 21.7821 80.12 30.7138C77.7267 39.6455 72.4711 42.6831 63.5357 40.2888C54.6002 37.8946 51.5675 32.6362 53.9607 23.7045Z" fill="black"></path>
<path fill-rule="evenodd" clip-rule="evenodd" d="M27.3684 48.6041C25.376 41.1684 21.0006 38.6396 13.5618 40.6329C6.12296 42.6261 3.59814 47.0038 5.59054 54.4395C7.58295 61.8753 11.9583 64.404 19.3972 62.4108C26.836 60.4176 29.3608 56.0399 27.3684 48.6041Z" fill="black"></path>
<path fill-rule="evenodd" clip-rule="evenodd" d="M72.6311 48.6044C74.6235 41.1686 78.9989 38.6399 86.4377 40.6331C93.8766 42.6263 96.4014 47.004 94.409 54.4398C92.4166 61.8755 88.0412 64.4043 80.6023 62.411C73.1635 60.4178 70.6387 56.0401 72.6311 48.6044Z" fill="black"></path>
</svg>