<svg width="100" height="100" viewBox="0 0 100 100" fill="none" xmlns="http://www.w3.org/2000/svg">
<mask id="mask0_6502_6500" style="mask-type:alpha" maskUnits="userSpaceOnUse" x="5" y="5" width="90" height="90">
<path fill-rule="evenodd" clip-rule="evenodd" d="M95 50C95 19.2708 80.742 5 50 5C19.258 5 5 19.2708 5 50C5 80.7292 19.258 95 50 95C80.742 95 95 80.7292 95 50Z" fill="#FF0077"></path>
</mask>
<g mask="url(#mask0_6502_6500)">
<path fill-rule="evenodd" clip-rule="evenodd" d="M95 50C95 19.2708 80.742 5 50 5C19.258 5 5 19.2708 5 50C5 80.7292 19.258 95 50 95C80.742 95 95 80.7292 95 50Z" fill="#FF0077"></path>
<path fill-rule="evenodd" clip-rule="evenodd" d="M46.75 96.5L46.75 2.94043L53.75 2.94043L53.75 96.5L46.75 96.5Z" fill="black"></path>
<path fill-rule="evenodd" clip-rule="evenodd" d="M-52.8784 13.502C-44.5513 5.17311 -32.22 1.5 -16.375 1.5C-0.529999 1.5 11.8013 5.17311 20.1284 13.502C28.4553 21.8307 32.125 34.1618 32.125 50C32.125 65.8382 28.4553 78.1693 20.1284 86.498C11.8013 94.8269 -0.529999 98.5 -16.375 98.5C-32.22 98.5 -44.5513 94.8269 -52.8784 86.498C-61.2053 78.1693 -64.875 65.8382 -64.875 50C-64.875 34.1618 -61.2053 21.8307 -52.8784 13.502ZM-47.9281 18.4512C-54.4157 24.9402 -57.875 35.1091 -57.875 50C-57.875 64.8909 -54.4157 75.0598 -47.9281 81.5488C-41.4406 88.0377 -31.272 91.5 -16.375 91.5C-1.47803 91.5 8.69064 88.0377 15.1781 81.5488C21.6657 75.0598 25.125 64.8909 25.125 50C25.125 35.1091 21.6657 24.9402 15.1781 18.4512C8.69064 11.9623 -1.47803 8.5 -16.375 8.5C-31.272 8.5 -41.4406 11.9623 -47.9281 18.4512Z" fill="black"></path>
<path fill-rule="evenodd" clip-rule="evenodd" d="M79.8716 13.502C88.1987 5.17311 100.53 1.5 116.375 1.5C132.22 1.5 144.551 5.17311 152.878 13.502C161.205 21.8307 164.875 34.1618 164.875 50C164.875 65.8382 161.205 78.1693 152.878 86.498C144.551 94.8269 132.22 98.5 116.375 98.5C100.53 98.5 88.1987 94.8269 79.8716 86.498C71.5447 78.1693 67.875 65.8382 67.875 50C67.875 34.1618 71.5447 21.8307 79.8716 13.502ZM84.8219 18.4512C78.3343 24.9402 74.875 35.1091 74.875 50C74.875 64.8909 78.3343 75.0598 84.8219 81.5488C91.3094 88.0377 101.478 91.5 116.375 91.5C131.272 91.5 141.441 88.0377 147.928 81.5488C154.416 75.0598 157.875 64.8909 157.875 50C157.875 35.1091 154.416 24.9402 147.928 18.4512C141.441 11.9623 131.272 8.5 116.375 8.5C101.478 8.5 91.3094 11.9623 84.8219 18.4512Z" fill="black"></path>
<path fill-rule="evenodd" clip-rule="evenodd" d="M8.72542 43.4814C18.0911 34.1138 31.9998 29.9404 50 29.9404C68.0002 29.9404 81.9089 34.1138 91.2746 43.4814C100.64 52.849 104.81 66.7575 104.81 84.75C104.81 102.743 100.64 116.651 91.2746 126.019C81.9089 135.386 68.0002 139.56 50 139.56C31.9998 139.56 18.0911 135.386 8.72542 126.019C-0.640072 116.651 -4.80957 102.743 -4.80957 84.75C-4.80957 66.7575 -0.640072 52.849 8.72542 43.4814ZM13.6757 48.4307C6.14952 55.9585 2.19043 67.7047 2.19043 84.75C2.19043 101.795 6.14952 113.542 13.6757 121.069C21.2018 128.597 32.9478 132.56 50 132.56C67.0522 132.56 78.7982 128.597 86.3243 121.069C93.8505 113.542 97.8096 101.795 97.8096 84.75C97.8096 67.7047 93.8505 55.9585 86.3243 48.4307C78.7982 40.903 67.0522 36.9404 50 36.9404C32.9478 36.9404 21.2018 40.903 13.6757 48.4307Z" fill="black"></path>
</g>
</svg>