<svg width="100" height="100" viewBox="0 0 100 100" fill="none" xmlns="http://www.w3.org/2000/svg">
<g clip-path="url(#clip0_9393_1161)">
<path d="M76 57C88.9799 57 95 63.0255 95 76C95 88.9745 88.9799 95 76 95C63.0201 95 57 88.9745 57 76C57 63.0255 63.0201 57 76 57ZM76 70C71.9011 70 70 71.9028 70 76C70 80.0972 71.9011 82 76 82C80.0989 82 82 80.0972 82 76C82 71.9028 80.0989 70 76 70Z" fill="black"></path>
<path d="M24 5C36.9799 5 43 11.0255 43 24C43 36.9745 36.9799 43 24 43C11.0201 43 5 36.9745 5 24C5 11.0255 11.0201 5 24 5ZM24 18C19.9011 18 18 19.9028 18 24C18 28.0972 19.9011 30 24 30C28.0989 30 30 28.0972 30 24C30 19.9028 28.0989 18 24 18Z" fill="black"></path>
<path d="M7.02674 95C6.19781 95 5.72878 94.0494 6.23313 93.3916L72.4869 6.97358C73.4399 5.73048 74.9205 5.00585 76.4868 5.01584L92.9877 5.12109C93.814 5.12637 94.2777 6.07467 93.7745 6.73008L27.5011 93.045C26.5547 94.2775 25.0891 95 23.5352 95L7.02674 95Z" fill="white"></path>
</g>
<defs>
<clipPath id="clip0_9393_1161">
<rect width="100" height="100" fill="white"></rect>
</clipPath>
</defs>
</svg>