<svg width="100" height="100" viewBox="0 0 100 100" fill="none" xmlns="http://www.w3.org/2000/svg">
<path fill-rule="evenodd" clip-rule="evenodd" d="M67.5694 22.5525C67.5637 22.5525 67.558 22.5525 67.5523 22.5525V22.5525H32.3375V22.5527C13.6626 22.5867 5 31.2938 5 50.0002C5 68.7067 13.6626 77.4138 32.3375 77.4478V77.4479H32.3618C32.3904 77.4479 32.419 77.4479 32.4477 77.4479V77.4479L67.5523 77.4479L69.575 77.4479V77.4127C86.9296 76.7959 95 68.056 95 50.0002C95 31.9444 86.9296 23.2045 69.575 22.5877V22.5525H67.5694Z" fill="black"></path>
<path fill-rule="evenodd" clip-rule="evenodd" d="M34.4049 41.4562C34.4048 38.0994 32.8472 36.5405 29.489 36.5405C26.1307 36.5405 24.5732 38.0995 24.5732 41.4564H24.5732V45.0844H20.9458L20.9458 54.9162H24.5732V58.5436H34.4049V54.9162H38.033V54.9162C41.3899 54.9162 42.9489 53.3587 42.9489 50.0004C42.9489 46.6421 41.39 45.0846 38.0332 45.0845V45.0844H34.4049V41.4562H34.4049ZM24.5734 58.5437C24.5734 61.9006 26.1309 63.4596 29.4892 63.4596C32.8475 63.4596 34.4051 61.9006 34.4051 58.5437H24.5734ZM16.0298 50.0002C16.0298 46.6419 17.5888 45.0844 20.9456 45.0844L20.9456 54.9161C17.5888 54.9161 16.0298 53.3585 16.0298 50.0002Z" fill="#FF0077"></path>
<path fill-rule="evenodd" clip-rule="evenodd" d="M65.3835 50C65.3835 46.6666 63.8369 45.1185 60.5021 45.1185C57.1673 45.1185 55.6206 46.6666 55.6206 50C55.6206 53.3334 57.1673 54.8814 60.5021 54.8814C63.8369 54.8814 65.3835 53.3334 65.3835 50Z" fill="white"></path>
<path fill-rule="evenodd" clip-rule="evenodd" d="M83.9707 49.9999C83.9707 46.6665 82.424 45.1184 79.0892 45.1184C75.7544 45.1184 74.2078 46.6665 74.2078 49.9999C74.2078 53.3333 75.7544 54.8813 79.0892 54.8813C82.424 54.8813 83.9707 53.3333 83.9707 49.9999Z" fill="white"></path>
<path fill-rule="evenodd" clip-rule="evenodd" d="M69.7955 45.5879C73.1289 45.5879 74.677 44.0412 74.677 40.7064C74.677 37.3716 73.1289 35.825 69.7955 35.825C66.4621 35.825 64.9141 37.3716 64.9141 40.7064C64.9141 44.0412 66.4621 45.5879 69.7955 45.5879Z" fill="white"></path>
<path fill-rule="evenodd" clip-rule="evenodd" d="M69.7955 64.175C73.1289 64.175 74.677 62.6284 74.677 59.2936C74.677 55.9588 73.1289 54.4121 69.7955 54.4121C66.4621 54.4121 64.9141 55.9588 64.9141 59.2936C64.9141 62.6284 66.4621 64.175 69.7955 64.175Z" fill="white"></path>
</svg>