<svg width="100" height="100" viewBox="0 0 100 100" fill="none" xmlns="http://www.w3.org/2000/svg">
<path fill-rule="evenodd" clip-rule="evenodd" d="M95 50C95 19.2708 80.742 5 50 5C19.258 5 5 19.2708 5 50C5 80.7292 19.258 95 50 95C80.742 95 95 80.7292 95 50Z" fill="white"></path>
<path fill-rule="evenodd" clip-rule="evenodd" d="M50 20.3234C51.933 20.3234 53.5 21.8904 53.5 23.8234V48.6986L78.9124 74.111C80.2792 75.4778 80.2792 77.6939 78.9124 79.0607C77.5455 80.4276 75.3295 80.4276 73.9626 79.0607L48.1109 53.209C47.0795 52.1776 46.5 50.7786 46.5 49.3199V23.8234C46.5 21.8904 48.067 20.3234 50 20.3234Z" fill="black"></path>
</svg>