<svg width="100" height="100" viewBox="0 0 100 100" fill="none" xmlns="http://www.w3.org/2000/svg">
<path d="M12 34C12 31.2386 14.2386 29 17 29H81V95H22C16.4772 95 12 90.5228 12 85V34Z" fill="black"></path>
<path d="M26.5 9.28571C26.5 6.91878 28.4188 5 30.7857 5H90.5C93.2614 5 95.5 7.23858 95.5 10V90C95.5 92.7614 93.2614 95 90.5 95H21C24.0376 95 26.5 92.5376 26.5 89.5V9.28571Z" fill="white"></path>
<path fill-rule="evenodd" clip-rule="evenodd" d="M51.2838 50.1419C51.2838 45.9478 49.3378 44 45.1419 44C40.946 44 39 45.9478 39 50.1419C39 54.336 40.946 56.2838 45.1419 56.2838C49.3378 56.2838 51.2838 54.336 51.2838 50.1419Z" fill="#FF0077"></path>
<path fill-rule="evenodd" clip-rule="evenodd" d="M66.8055 50.1419C66.8055 45.9478 64.8595 44 60.6636 44C56.4678 44 54.5217 45.9478 54.5217 50.1419C54.5217 54.336 56.4678 56.2838 60.6636 56.2838C64.8595 56.2838 66.8055 54.336 66.8055 50.1419Z" fill="#FF0077"></path>
<path fill-rule="evenodd" clip-rule="evenodd" d="M82.3275 50.1419C82.3275 45.9478 80.3815 44 76.1856 44C71.9897 44 70.0437 45.9478 70.0437 50.1419C70.0437 54.336 71.9897 56.2838 76.1856 56.2838C80.3815 56.2838 82.3275 54.336 82.3275 50.1419Z" fill="#FF0077"></path>
</svg>