<svg width="100" height="100" viewBox="0 0 100 100" fill="none" xmlns="http://www.w3.org/2000/svg">
<path fill-rule="evenodd" clip-rule="evenodd" d="M95 50C95 19.2708 80.742 5 50 5C19.258 5 5 19.2708 5 50C5 80.7292 19.258 95 50 95C80.742 95 95 80.7292 95 50Z" fill="white"></path>
<path fill-rule="evenodd" clip-rule="evenodd" d="M74.4749 34.5251C75.8417 35.892 75.8417 38.108 74.4749 39.4749L47.8891 66.0607C45.7412 68.2086 42.2588 68.2085 40.1109 66.0607L31.5251 57.4749C30.1583 56.108 30.1583 53.892 31.5251 52.5251C32.892 51.1583 35.108 51.1583 36.4749 52.5251L44 60.0503L69.5251 34.5251C70.892 33.1583 73.108 33.1583 74.4749 34.5251Z" fill="#FF0077"></path>
</svg>