<svg width="100" height="100" viewBox="0 0 100 100" fill="none" xmlns="http://www.w3.org/2000/svg">
<path d="M12.5049 5H87.9946V18.5C87.9946 19.6046 87.0992 20.5 85.9946 20.5H14.5049C13.4003 20.5 12.5049 19.6046 12.5049 18.5V5Z" fill="black"></path>
<path d="M50 95C30.7798 95 21.8655 86.0777 21.8655 66.8656V20.5H78.1344V66.8656C78.1344 86.0777 69.2202 95 50 95Z" fill="black"></path>
<path fill-rule="evenodd" clip-rule="evenodd" d="M58.6651 40.1942C58.6651 34.4306 55.9909 31.7539 50.2248 31.7539C44.4588 31.7539 41.7845 34.4306 41.7845 40.1942C41.7845 45.9579 44.4588 48.6346 50.2248 48.6346C55.9909 48.6346 58.6651 45.9579 58.6651 40.1942Z" fill="#FF0077"></path>
<path d="M49.9999 90.7663C33.6721 90.7663 26.0993 83.1867 26.0993 66.8657V39.1814H73.9005V66.8657C73.9005 83.1867 66.3278 90.7663 49.9999 90.7663Z" fill="#FF0077"></path>
<path fill-rule="evenodd" clip-rule="evenodd" d="M73.9006 24.6557C73.9006 20.1321 71.8017 18.0312 67.2761 18.0312C62.7506 18.0312 60.6517 20.1321 60.6517 24.6557C60.6517 29.1794 62.7506 31.2802 67.2761 31.2802C71.8017 31.2802 73.9006 29.1794 73.9006 24.6557Z" fill="#FF0077"></path>
<path fill-rule="evenodd" clip-rule="evenodd" d="M55.5144 14.8001C55.5144 12.9174 54.6408 12.043 52.7572 12.043C50.8736 12.043 50 12.9174 50 14.8001C50 16.6829 50.8736 17.5573 52.7572 17.5573C54.6408 17.5573 55.5144 16.6829 55.5144 14.8001Z" fill="#FF0077"></path>
</svg>