<svg width="100" height="100" viewBox="0 0 100 100" fill="none" xmlns="http://www.w3.org/2000/svg">
<path fill-rule="evenodd" clip-rule="evenodd" d="M71.75 5H12.5049V54.7175H87.9946V5H78.75V27.375C78.75 29.308 77.183 30.875 75.25 30.875C73.317 30.875 71.75 29.308 71.75 27.375V5Z" fill="#FF0077"></path>
<path d="M50.2497 95.0002C42.0047 95.0002 38.1807 91.1728 38.1807 82.9312L38.1807 65.9678H62.3188L62.3188 82.9312C62.3188 91.1728 58.4948 95.0002 50.2497 95.0002Z" fill="black"></path>
<path d="M12.5049 50H87.9946V61.9675C87.9946 64.1767 86.2038 65.9675 83.9946 65.9675H16.5049C14.2957 65.9675 12.5049 64.1767 12.5049 61.9675V50Z" fill="black"></path>
</svg>