<svg width="100" height="100" viewBox="0 0 100 100" fill="none" xmlns="http://www.w3.org/2000/svg">
<path fill-rule="evenodd" clip-rule="evenodd" d="M35.0001 5L25.4 5C23.1908 5 21.4 6.79087 21.4 9L21.4 90.9999C21.4 93.209 23.1908 94.9999 25.4 94.9999H35.0001C35.0001 84.7569 39.7528 80 50.0001 80C60.2473 80 65 84.7569 65.0001 94.9999H74.6C76.8092 94.9999 78.6 93.209 78.6 90.9999V9C78.6 6.79086 76.8092 5 74.6 5H65.0001C65.0001 15.2431 60.2474 20 50.0001 20C39.7527 20 35.0001 15.2431 35.0001 5Z" fill="#FF0077"></path>
<path fill-rule="evenodd" clip-rule="evenodd" d="M21.3751 33.6377L34.6563 33.6377L34.6563 40.6377L21.3751 40.6377L21.3751 33.6377ZM40.2188 33.6377L59.7813 33.6377L59.7813 40.6377L40.2188 40.6377L40.2188 33.6377ZM65.3438 33.6377L78.6251 33.6377L78.6251 40.6377L65.3438 40.6377L65.3438 33.6377Z" fill="black"></path>
</svg>