<svg width="100" height="100" viewBox="0 0 100 100" fill="none" xmlns="http://www.w3.org/2000/svg">
<path fill-rule="evenodd" clip-rule="evenodd" d="M50.2013 5C72.4038 5 82.7013 15.3067 82.7013 37.5L82.7012 37.5V49.9999H82.7013C82.7013 72.1932 72.4038 82.4999 50.2013 82.4999C27.9989 82.4999 17.7014 72.1932 17.7014 50V37.5C17.7014 15.3067 27.9989 5 50.2013 5Z" fill="#FF0077"></path>
<mask id="mask0_6502_7141" style="mask-type:alpha" maskUnits="userSpaceOnUse" x="17" y="5" width="66" height="78">
<path fill-rule="evenodd" clip-rule="evenodd" d="M50.2013 5C72.4038 5 82.7013 15.3067 82.7013 37.5L82.7012 37.5V49.9999H82.7013C82.7013 72.1932 72.4038 82.4999 50.2013 82.4999C27.9989 82.4999 17.7014 72.1932 17.7014 50V37.5C17.7014 15.3067 27.9989 5 50.2013 5Z" fill="#FFDCE6"></path>
</mask>
<g mask="url(#mask0_6502_7141)">
<path fill-rule="evenodd" clip-rule="evenodd" d="M41.8574 36.6328C41.8574 38.5658 40.2904 40.1328 38.3574 40.1328L15.1076 40.1328L15.1076 33.1328L38.3574 33.1328C40.2904 33.1328 41.8574 34.6998 41.8574 36.6328Z" fill="white"></path>
<path fill-rule="evenodd" clip-rule="evenodd" d="M41.8576 53.5C41.8576 55.433 40.2906 57 38.3576 57L15.1078 57L15.1078 50L38.3576 50C40.2906 50 41.8576 51.567 41.8576 53.5Z" fill="white"></path>
<path fill-rule="evenodd" clip-rule="evenodd" d="M58.5453 53.5C58.5453 51.567 60.1124 50 62.0453 50L85.2951 50L85.2951 57L62.0453 57C60.1124 57 58.5453 55.433 58.5453 53.5Z" fill="white"></path>
<path fill-rule="evenodd" clip-rule="evenodd" d="M58.5451 36.6328C58.5451 34.6998 60.1121 33.1328 62.0451 33.1328L85.2949 33.1328L85.2949 40.1328L62.0451 40.1328C60.1121 40.1328 58.5451 38.5658 58.5451 36.6328Z" fill="white"></path>
</g>
<path fill-rule="evenodd" clip-rule="evenodd" d="M83.3712 84.5128C75.7484 91.7153 64.5717 95 49.9375 95C35.2829 95 24.1109 91.6277 16.4959 84.3882C8.87006 77.1385 5.42739 66.5978 4.93993 53.6315C4.86731 51.6999 6.37434 50.0751 8.30597 50.0025C10.2376 49.9299 11.8624 51.4369 11.935 53.3685C12.385 65.3397 15.5169 73.799 21.3189 79.3149C27.1318 84.8411 36.2411 88 49.9375 88C63.6541 88 72.7587 84.9097 78.5638 79.4247C84.3529 73.9548 87.4892 65.5071 87.9399 53.3701C88.0116 51.4385 89.6357 49.9307 91.5673 50.0024C93.499 50.0741 95.0068 51.6982 94.935 53.6299C94.4482 66.7429 91.0099 77.2952 83.3712 84.5128Z" fill="black"></path>
</svg>