<svg width="100" height="100" viewBox="0 0 100 100" fill="none" xmlns="http://www.w3.org/2000/svg">
<path fill-rule="evenodd" clip-rule="evenodd" d="M30.4366 6.23901C31.8234 4.89242 34.0392 4.925 35.3858 6.31179C40.6912 11.7756 40.6912 20.6003 35.3858 26.0641C32.7178 28.8118 32.7178 33.3158 35.3858 36.0635C36.7324 37.4503 36.6998 39.6661 35.313 41.0127C33.9262 42.3593 31.7104 42.3267 30.3638 40.9399C25.0584 35.4762 25.0584 26.6514 30.3638 21.1876C33.0319 18.4399 33.0319 13.9359 30.3638 11.1882C29.0172 9.80143 29.0498 7.58559 30.4366 6.23901Z" fill="white"></path>
<path fill-rule="evenodd" clip-rule="evenodd" d="M45.3824 6.23901C46.7692 4.89242 48.985 4.925 50.3316 6.31179C55.637 11.7756 55.637 20.6003 50.3316 26.0641C47.6636 28.8118 47.6636 33.3158 50.3316 36.0635C51.6782 37.4503 51.6456 39.6661 50.2588 41.0127C48.872 42.3593 46.6562 42.3267 45.3096 40.9399C40.0042 35.4762 40.0042 26.6514 45.3096 21.1876C47.9777 18.4399 47.9777 13.9359 45.3096 11.1882C43.963 9.80143 43.9956 7.58559 45.3824 6.23901Z" fill="white"></path>
<path fill-rule="evenodd" clip-rule="evenodd" d="M73.3432 46.125H81.0788C84.9616 46.125 88.5378 47.0216 91.1002 49.5846C93.6626 52.1475 94.5583 55.7235 94.5583 59.6045C94.5583 63.4855 93.6626 67.0614 91.1002 69.6243C88.5378 72.1874 84.9616 73.084 81.0788 73.084H71.7798V66.084H81.0788C84.0135 66.084 85.4271 65.3982 86.1499 64.6751C86.873 63.9519 87.5583 62.5382 87.5583 59.6045C87.5583 56.6708 86.873 55.257 86.1499 54.5338C85.4271 53.8108 84.0135 53.125 81.0788 53.125H73.3432V46.125Z" fill="#FF0077"></path>
<path d="M40.3477 95C16.1998 95 5 83.7902 5 59.6523V46.125H75.6955V59.6523C75.6955 83.7902 64.4957 95 40.3477 95Z" fill="#FF0077"></path>
</svg>