<svg width="100" height="100" viewBox="0 0 100 100" fill="none" xmlns="http://www.w3.org/2000/svg">
<path fill-rule="evenodd" clip-rule="evenodd" d="M95 50C95 19.2708 80.742 5 50 5C19.258 5 5 19.2708 5 50C5 80.7292 19.258 95 50 95C80.742 95 95 80.7292 95 50Z" fill="white"></path>
<path fill-rule="evenodd" clip-rule="evenodd" d="M49.9998 21.3711C51.9328 21.3711 53.4998 22.9381 53.4998 24.8711L53.4998 54.2352L61.119 46.6159C62.4858 45.2491 64.7019 45.2491 66.0688 46.6159C67.4356 47.9828 67.4356 50.1989 66.0688 51.5657L53.8883 63.7462C51.7404 65.894 48.258 65.894 46.1101 63.7462L33.9297 51.5657C32.5628 50.1989 32.5628 47.9828 33.9297 46.6159C35.2965 45.2491 37.5126 45.2491 38.8794 46.6159L46.4998 54.2363L46.4998 24.8711C46.4998 22.9381 48.0668 21.3711 49.9998 21.3711ZM31.7629 75.1289C31.7629 73.1959 33.3299 71.6289 35.2629 71.6289L64.7371 71.6289C66.6701 71.6289 68.2371 73.1959 68.2371 75.1289C68.2371 77.0619 66.6701 78.6289 64.7371 78.6289L35.2629 78.6289C33.3299 78.6289 31.7629 77.0619 31.7629 75.1289Z" fill="black"></path>
</svg>