<svg width="100" height="100" viewBox="0 0 100 100" fill="none" xmlns="http://www.w3.org/2000/svg">
<rect x="30.0002" y="5" width="40" height="90" rx="2" fill="white"></rect>
<path fill-rule="evenodd" clip-rule="evenodd" d="M91.3399 30.4138C91.3399 27.8651 90.1573 26.6814 87.6075 26.6814C85.0577 26.6814 83.8751 27.8651 83.8751 30.4138H91.3399ZM83.875 40.543C83.875 43.0918 85.0576 44.2754 87.6074 44.2754C90.1572 44.2754 91.3398 43.0918 91.3398 40.543V30.4138H83.875V40.543Z" fill="black"></path>
<rect x="83.8752" y="12.2551" width="75.4897" height="67.75" rx="12" transform="rotate(90 83.8752 12.2551)" fill="black"></rect>
<path fill-rule="evenodd" clip-rule="evenodd" d="M46.5002 33.4062C46.5002 31.4733 48.0672 29.9062 50.0002 29.9062C56.1423 29.9062 61.3721 31.3272 65.0233 34.9793C68.6744 38.6311 70.094 43.8607 70.094 50C70.094 56.1393 68.6744 61.3689 65.0233 65.0207C61.3721 68.6728 56.1423 70.0938 50.0002 70.0938C43.8582 70.0938 38.6284 68.6728 34.9772 65.0207C31.3261 61.3689 29.9065 56.1393 29.9065 50C29.9065 48.067 31.4735 46.5 33.4065 46.5C35.3395 46.5 36.9065 48.067 36.9065 50C36.9065 55.1921 38.1157 58.2594 39.9275 60.0715C41.7391 61.8836 44.8062 63.0938 50.0002 63.0938C55.1943 63.0938 58.2614 61.8836 60.073 60.0715C61.8848 58.2594 63.094 55.1921 63.094 50C63.094 44.8079 61.8848 41.7406 60.073 39.9285C58.2614 38.1164 55.1943 36.9062 50.0002 36.9062C48.0672 36.9062 46.5002 35.3392 46.5002 33.4062Z" fill="white"></path>
</svg>