<svg width="100" height="100" viewBox="0 0 100 100" fill="none" xmlns="http://www.w3.org/2000/svg">
<path fill-rule="evenodd" clip-rule="evenodd" d="M66.9685 63.6311C63.2799 59.9128 57.6636 58.1226 49.9794 58.1226C42.2954 58.1226 36.6792 59.9127 32.9906 63.6307L40.9219 71.5621C40.9361 71.5474 40.95 71.5333 40.9637 71.5196C41.7052 70.7779 43.843 69.3388 49.9794 69.3388C56.1157 69.3388 58.2535 70.7779 58.995 71.5196C59.0088 71.5334 59.0229 71.5477 59.0371 71.5625L66.9685 63.6311Z" fill="#FF0077"></path>
<path fill-rule="evenodd" clip-rule="evenodd" d="M92.4265 38.1734C83.1958 28.9131 69.1629 24.4541 49.9794 24.4541C30.7961 24.4541 16.7633 28.9131 7.53259 38.1732L15.4637 46.1043C15.4771 46.0907 15.4906 46.0772 15.5041 46.0637C21.7877 39.7788 32.3426 35.6703 49.9794 35.6703C67.6163 35.6703 78.1711 39.7788 84.4547 46.0637C84.4683 46.0773 84.4819 46.0909 84.4954 46.1045L92.4265 38.1734Z" fill="#FF0077"></path>
<path fill-rule="evenodd" clip-rule="evenodd" d="M79.6676 50.9329C73.2146 44.4501 63.4 41.3286 49.9798 41.3286C36.5599 41.3286 26.7455 44.45 20.2925 50.9325L28.2236 58.8636C28.2373 58.8497 28.2511 58.8358 28.2649 58.8221C31.7708 55.3154 38.107 52.5448 49.9798 52.5448C61.8526 52.5448 68.1889 55.3154 71.6948 58.8221C71.7087 58.836 71.7226 58.8499 71.7365 58.8639L79.6676 50.9329Z" fill="#FF0077"></path>
<path fill-rule="evenodd" clip-rule="evenodd" d="M28.3051 51.258C25.7795 48.4627 23.3096 48.3363 20.5131 50.8629C17.7166 53.3895 17.5924 55.8595 20.118 58.6548C22.6435 61.4502 25.1134 61.5766 27.9099 59.05C30.7064 56.5234 30.8306 54.0534 28.3051 51.258Z" fill="#FF0077"></path>
<path fill-rule="evenodd" clip-rule="evenodd" d="M15.6375 38.3026C13.0943 35.4877 10.6072 35.3604 7.79111 37.9047C4.97503 40.4489 4.85001 42.9362 7.39319 45.7511C9.93636 48.566 12.4235 48.6932 15.2396 46.149C18.0557 43.6048 18.1807 41.1175 15.6375 38.3026Z" fill="#FF0077"></path>
<path fill-rule="evenodd" clip-rule="evenodd" d="M40.9962 63.9749C38.453 61.16 35.9658 61.0328 33.1498 63.577C30.3337 66.1213 30.2087 68.6085 32.7518 71.4234C35.295 74.2383 37.7822 74.3656 40.5982 71.8214C43.4143 69.2771 43.5393 66.7899 40.9962 63.9749Z" fill="#FF0077"></path>
<path fill-rule="evenodd" clip-rule="evenodd" d="M71.5921 51.137C74.1497 48.3061 76.6511 48.1781 79.4832 50.7369C82.3153 53.2956 82.441 55.797 79.8833 58.6279C77.3257 61.4589 74.8244 61.5868 71.9923 59.0281C69.1602 56.4694 69.0344 53.968 71.5921 51.137Z" fill="#FF0077"></path>
<path fill-rule="evenodd" clip-rule="evenodd" d="M84.2281 38.2988C86.7998 35.4524 89.3149 35.3237 92.1625 37.8965C95.0102 40.4692 95.1366 42.9844 92.5649 45.8309C89.9932 48.6774 87.4781 48.806 84.6305 46.2333C81.7828 43.6605 81.6564 41.1453 84.2281 38.2988Z" fill="#FF0077"></path>
<path fill-rule="evenodd" clip-rule="evenodd" d="M58.8295 63.8238C61.3916 60.988 63.8972 60.8598 66.7342 63.4229C69.5712 65.986 69.6971 68.4918 67.1351 71.3276C64.573 74.1634 62.0674 74.2916 59.2304 71.7284C56.3934 69.1653 56.2675 66.6596 58.8295 63.8238Z" fill="#FF0077"></path>
</svg>