<svg width="100" height="100" viewBox="0 0 100 100" fill="none" xmlns="http://www.w3.org/2000/svg">
<path d="M5 9C5 6.79086 6.79086 5 9 5H66.4158C68.6249 5 70.4158 6.79086 70.4158 9V32.7507H5V9Z" fill="#FF0077"></path>
<path d="M5 32.751H70.4158V91.0002C70.4158 93.2094 68.6249 95.0002 66.4158 95.0002H9C6.79086 95.0002 5 93.2094 5 91.0002V32.751Z" fill="black"></path>
<path fill-rule="evenodd" clip-rule="evenodd" d="M63.166 32.7354H76.7601C82.2174 32.7354 86.9459 33.9974 90.2671 37.3193C93.5882 40.6411 94.849 45.3695 94.849 50.8243C94.849 56.2791 93.5882 61.0074 90.2671 64.3292C86.9459 67.6511 82.2174 68.9132 76.7601 68.9132H63.166V61.9132H76.7601C81.2693 61.9132 83.8352 60.8619 85.3169 59.38C86.7986 57.8979 87.849 55.3318 87.849 50.8243C87.849 46.3167 86.7986 43.7506 85.3169 42.2685C83.8352 40.7866 81.2693 39.7354 76.7601 39.7354H63.166V32.7354Z" fill="black"></path>
<path fill-rule="evenodd" clip-rule="evenodd" d="M22.208 41.7197C24.141 41.7197 25.708 43.2867 25.708 45.2197V83.9697C25.708 85.9027 24.141 87.4697 22.208 87.4697C20.275 87.4697 18.708 85.9027 18.708 83.9697V45.2197C18.708 43.2867 20.275 41.7197 22.208 41.7197Z" fill="#FF0077"></path>
<path fill-rule="evenodd" clip-rule="evenodd" d="M53.208 41.7197C55.141 41.7197 56.708 43.2867 56.708 45.2197V83.9697C56.708 85.9027 55.141 87.4697 53.208 87.4697C51.275 87.4697 49.708 85.9027 49.708 83.9697V45.2197C49.708 43.2867 51.275 41.7197 53.208 41.7197Z" fill="#FF0077"></path>
</svg>