<svg width="100" height="100" viewBox="0 0 100 100" fill="none" xmlns="http://www.w3.org/2000/svg">
<rect x="5" y="37.3269" width="90" height="57.6731" rx="4" fill="white"></rect>
<path fill-rule="evenodd" clip-rule="evenodd" d="M9 17.3406C6.79086 17.3406 5 19.1314 5 21.3406V43.5735H95V21.3406C95 19.1314 93.2091 17.3406 91 17.3406H9ZM75.1684 23.6914C79.2943 23.6914 81.2078 25.6067 81.2078 29.7309C81.2078 33.855 79.2943 35.7703 75.1684 35.7703C71.0425 35.7703 69.1289 33.855 69.1289 29.7309C69.1289 25.6067 71.0425 23.6914 75.1684 23.6914ZM56.0442 29.7309C56.0442 25.6067 54.1307 23.6914 50.0048 23.6914C45.8789 23.6914 43.9653 25.6067 43.9653 29.7309C43.9653 33.855 45.8789 35.7703 50.0048 35.7703C54.1307 35.7703 56.0442 33.855 56.0442 29.7309ZM24.8095 23.6914C28.9354 23.6914 30.8489 25.6067 30.8489 29.7309C30.8489 33.855 28.9354 35.7703 24.8095 35.7703C20.6836 35.7703 18.77 33.855 18.77 29.7309C18.77 25.6067 20.6836 23.6914 24.8095 23.6914Z" fill="#FF0077"></path>
<path fill-rule="evenodd" clip-rule="evenodd" d="M55.8882 27.7938C55.3365 24.9992 53.4369 23.6853 50.0196 23.6853C47.5748 23.6853 45.9068 24.3578 44.9534 25.7639C46.5231 28.2034 48.7698 29.7308 51.2649 29.7308C52.967 29.7308 54.5534 29.02 55.8882 27.7938Z" fill="white"></path>
<path fill-rule="evenodd" clip-rule="evenodd" d="M51.6027 22.1378C52.2476 21.2115 52.8688 19.5567 52.8688 17.3963C52.8688 15.2358 52.2476 13.5811 51.6027 12.6547C51.4658 12.4582 51.3472 12.3161 51.2499 12.2145C51.1527 12.3161 51.0341 12.4582 50.8972 12.6547C50.2522 13.5811 49.6311 15.2358 49.6311 17.3963V17.3963H42.6577V17.3963C42.6577 10.5808 46.5046 5.05566 51.2499 5.05566C55.9953 5.05566 59.8422 10.5808 59.8422 17.3963C59.8422 24.2118 55.9953 29.7369 51.2499 29.7369C48.8572 29.7369 46.6929 28.3322 45.135 26.0656C45.8392 25.7317 46.7374 25.2704 47.558 24.849C48.6097 24.3089 49.5341 23.8342 49.7598 23.7768C50.1911 23.667 51.0214 22.989 51.2722 22.563L51.2697 22.5572C51.3631 22.4573 51.4749 22.3213 51.6027 22.1378ZM51.504 22.795C51.5371 22.8053 51.5527 22.8146 51.5522 22.8167C51.5518 22.8188 51.5352 22.8137 51.504 22.795ZM51.5522 11.9759C51.5527 11.978 51.5371 11.9873 51.504 11.9976C51.5352 11.9789 51.5518 11.9737 51.5522 11.9759ZM50.9959 11.9976C50.9628 11.9873 50.9472 11.978 50.9477 11.9759C50.9481 11.9737 50.9647 11.9789 50.9959 11.9976Z" fill="white"></path>
<path fill-rule="evenodd" clip-rule="evenodd" d="M30.7037 27.7382C30.152 24.9435 28.2524 23.6296 24.8351 23.6296C22.3902 23.6296 20.7222 24.3022 19.7688 25.7083C21.3385 28.1477 23.5852 29.6752 26.0803 29.6752C27.7824 29.6752 29.3688 28.9644 30.7037 27.7382Z" fill="white"></path>
<path fill-rule="evenodd" clip-rule="evenodd" d="M26.4181 22.0822C27.0631 21.1558 27.6842 19.5011 27.6842 17.3406C27.6842 15.1802 27.0631 13.5254 26.4181 12.5991C26.2812 12.4025 26.1626 12.2605 26.0654 12.1588C25.9681 12.2605 25.8495 12.4025 25.7126 12.5991C25.0677 13.5254 24.4465 15.1802 24.4465 17.3406H17.4731C17.4731 10.5251 21.32 5 26.0654 5C30.8107 5 34.6576 10.5251 34.6576 17.3406C34.6576 24.1562 30.8107 29.6813 26.0654 29.6813C23.6726 29.6813 21.5083 28.2765 19.9504 26.0099C20.6546 25.676 21.5528 25.2148 22.3735 24.7933C23.4252 24.2532 24.3495 23.7785 24.5753 23.7211C25.0065 23.6113 25.8369 22.9333 26.0876 22.5073L26.0851 22.5016C26.1785 22.4016 26.2904 22.2656 26.4181 22.0822ZM26.3194 22.7393C26.3525 22.7496 26.3681 22.759 26.3677 22.7611C26.3672 22.7632 26.3506 22.758 26.3194 22.7393ZM26.3677 11.9202C26.3681 11.9223 26.3525 11.9317 26.3194 11.942C26.3506 11.9232 26.3672 11.9181 26.3677 11.9202ZM25.8114 11.942C25.7782 11.9317 25.7626 11.9223 25.7631 11.9202C25.7636 11.9181 25.7801 11.9232 25.8114 11.942Z" fill="white"></path>
<path fill-rule="evenodd" clip-rule="evenodd" d="M81.0727 27.7938C80.521 24.9992 78.6214 23.6853 75.2041 23.6853C72.7592 23.6853 71.0912 24.3578 70.1378 25.7639C71.7075 28.2034 73.9542 29.7308 76.4493 29.7308C78.1514 29.7308 79.7379 29.02 81.0727 27.7938Z" fill="white"></path>
<path fill-rule="evenodd" clip-rule="evenodd" d="M76.7873 22.1378C77.4322 21.2115 78.0533 19.5567 78.0533 17.3963C78.0533 15.2358 77.4322 13.5811 76.7873 12.6547C76.6504 12.4582 76.5318 12.3161 76.4345 12.2145C76.3373 12.3161 76.2186 12.4582 76.0818 12.6547C75.4368 13.5811 74.8157 15.2358 74.8157 17.3963V17.3963H67.8423V17.3963C67.8423 10.5808 71.6892 5.05566 76.4345 5.05566C81.1799 5.05566 85.0267 10.5808 85.0267 17.3963C85.0267 24.2118 81.1799 29.7369 76.4345 29.7369C74.0417 29.7369 71.8774 28.3322 70.3195 26.0655C71.0238 25.7317 71.9219 25.2704 72.7425 24.849C73.7942 24.3089 74.7186 23.8342 74.9443 23.7768C75.3756 23.667 76.2059 22.989 76.4567 22.563L76.4542 22.5573C76.5476 22.4573 76.6595 22.3213 76.7873 22.1378ZM76.6885 22.795C76.7216 22.8053 76.7373 22.8146 76.7368 22.8167C76.7363 22.8188 76.7198 22.8137 76.6885 22.795ZM76.7368 11.9759C76.7373 11.978 76.7216 11.9873 76.6885 11.9976C76.7198 11.9789 76.7363 11.9737 76.7368 11.9759ZM76.1805 11.9976C76.1474 11.9873 76.1318 11.978 76.1322 11.9759C76.1327 11.9737 76.1492 11.9789 76.1805 11.9976Z" fill="white"></path>
<path fill-rule="evenodd" clip-rule="evenodd" d="M31.2764 56.04C31.2764 51.9155 29.3627 50 25.2364 50C21.1102 50 19.1964 51.9155 19.1964 56.04C19.1964 60.1645 21.1102 62.08 25.2364 62.08C29.3627 62.08 31.2764 60.1645 31.2764 56.04Z" fill="black"></path>
<path fill-rule="evenodd" clip-rule="evenodd" d="M31.1702 77.7268C31.1702 73.6022 29.2565 71.6868 25.1302 71.6868C21.004 71.6868 19.0902 73.6022 19.0902 77.7268C19.0902 81.8513 21.004 83.7668 25.1302 83.7668C29.2565 83.7668 31.1702 81.8513 31.1702 77.7268Z" fill="black"></path>
<path fill-rule="evenodd" clip-rule="evenodd" d="M56.0403 56.04C56.0403 51.9155 54.1266 50 50.0003 50C45.8741 50 43.9603 51.9155 43.9603 56.04C43.9603 60.1645 45.8741 62.08 50.0003 62.08C54.1266 62.08 56.0403 60.1645 56.0403 56.04Z" fill="black"></path>
<path fill-rule="evenodd" clip-rule="evenodd" d="M56.0403 77.7268C56.0403 73.6022 54.1266 71.6868 50.0003 71.6868C45.8741 71.6868 43.9603 73.6022 43.9603 77.7268C43.9603 81.8513 45.8741 83.7668 50.0003 83.7668C54.1266 83.7668 56.0403 81.8513 56.0403 77.7268Z" fill="black"></path>
<path fill-rule="evenodd" clip-rule="evenodd" d="M81.2093 56.04C81.2093 51.9155 79.2955 50 75.1693 50C71.043 50 69.1293 51.9155 69.1293 56.04C69.1293 60.1645 71.043 62.08 75.1693 62.08C79.2955 62.08 81.2093 60.1645 81.2093 56.04Z" fill="black"></path>
</svg>