<svg width="100" height="100" viewBox="0 0 100 100" fill="none" xmlns="http://www.w3.org/2000/svg">
<rect x="40" y="85" width="70" height="20" transform="rotate(-90 40 85)" fill="white"></rect>
<path d="M50 5C56.8287 5 60 8.16844 60 15L40 15C40 8.16844 43.1713 5 50 5Z" fill="white"></path>
<path fill-rule="evenodd" clip-rule="evenodd" d="M49.9998 50C41.4841 50 37.5293 53.9512 37.5293 62.4705C37.5293 70.9897 41.4841 74.9409 49.9998 74.9409C58.5155 74.9409 62.4702 70.9897 62.4702 62.4705C62.4702 53.9512 58.5155 50 49.9998 50Z" fill="#FF0077"></path>
<rect x="7.4707" y="85" width="70" height="20" transform="rotate(-90 7.4707 85)" fill="white"></rect>
<path d="M17.4707 95C10.642 95 7.4707 91.8316 7.4707 85L27.4707 85C27.4707 91.8316 24.2994 95 17.4707 95Z" fill="white"></path>
<path d="M17.4707 5C24.2994 5 27.4707 8.16844 27.4707 15L7.47069 15C7.47069 8.16844 10.642 5 17.4707 5Z" fill="white"></path>
<path fill-rule="evenodd" clip-rule="evenodd" d="M17.4705 16.625C8.95476 16.625 5 20.5762 5 29.0955C5 37.6147 8.95476 41.5659 17.4705 41.5659C25.9862 41.5659 29.9409 37.6147 29.9409 29.0955C29.9409 20.5762 25.9862 16.625 17.4705 16.625Z" fill="#FF0077"></path>
<rect x="72.5293" y="85" width="70" height="20" transform="rotate(-90 72.5293 85)" fill="white"></rect>
<path d="M82.5293 5C89.358 5 92.5293 8.16844 92.5293 15L72.5293 15C72.5293 8.16844 75.7006 5 82.5293 5Z" fill="white"></path>
<path d="M82.5293 95C75.7006 95 72.5293 91.8316 72.5293 85L92.5293 85C92.5293 91.8316 89.358 95 82.5293 95Z" fill="white"></path>
<path fill-rule="evenodd" clip-rule="evenodd" d="M82.5295 5.00004C74.0138 5.00004 70.0591 8.95123 70.0591 17.4705C70.0591 25.9897 74.0138 29.9409 82.5295 29.9409C91.0453 29.9409 95 25.9897 95 17.4705C95 8.95123 91.0453 5.00004 82.5295 5.00004Z" fill="#FF0077"></path>
<path d="M50 95C43.1713 95 40 91.8316 40 85L60 85C60 91.8316 56.8287 95 50 95Z" fill="white"></path>
</svg>