<svg width="100" height="100" viewBox="0 0 100 100" fill="none" xmlns="http://www.w3.org/2000/svg">
<path d="M5 23.5103C5 21.3011 6.79086 19.5103 9 19.5103H91C93.2091 19.5103 95 21.3011 95 23.5103V91C95 93.2091 93.2091 95 91 95H9C6.79086 95 5 93.2091 5 91V23.5103Z" fill="#FF0077"></path>
<path fill-rule="evenodd" clip-rule="evenodd" d="M22.75 69.8765C22.75 66.3784 21.1269 64.7539 17.6274 64.7539C14.1279 64.7539 12.5049 66.3784 12.5049 69.8765C12.5049 73.3745 14.1279 74.999 17.6274 74.999C21.1269 74.999 22.75 73.3745 22.75 69.8765Z" fill="white"></path>
<path fill-rule="evenodd" clip-rule="evenodd" d="M22.75 82.4102C22.75 78.9121 21.1269 77.2876 17.6274 77.2876C14.1279 77.2876 12.5049 78.9121 12.5049 82.4102C12.5049 85.9082 14.1279 87.5327 17.6274 87.5327C21.1269 87.5327 22.75 85.9082 22.75 82.4102Z" fill="white"></path>
<path fill-rule="evenodd" clip-rule="evenodd" d="M36.3286 69.8765C36.3286 66.3784 34.7056 64.7539 31.2061 64.7539C27.7066 64.7539 26.0835 66.3784 26.0835 69.8765C26.0835 73.3745 27.7066 74.999 31.2061 74.999C34.7056 74.999 36.3286 73.3745 36.3286 69.8765Z" fill="white"></path>
<path fill-rule="evenodd" clip-rule="evenodd" d="M36.3286 82.4102C36.3286 78.9121 34.7056 77.2876 31.2061 77.2876C27.7066 77.2876 26.0835 78.9121 26.0835 82.4102C26.0835 85.9082 27.7066 87.5327 31.2061 87.5327C34.7056 87.5327 36.3286 85.9082 36.3286 82.4102Z" fill="white"></path>
<path fill-rule="evenodd" clip-rule="evenodd" d="M49.9067 69.8765C49.9067 66.3784 48.2837 64.7539 44.7842 64.7539C41.2847 64.7539 39.6616 66.3784 39.6616 69.8765C39.6616 73.3745 41.2847 74.999 44.7842 74.999C48.2837 74.999 49.9067 73.3745 49.9067 69.8765Z" fill="white"></path>
<path fill-rule="evenodd" clip-rule="evenodd" d="M49.9067 82.4102C49.9067 78.9121 48.2837 77.2876 44.7842 77.2876C41.2847 77.2876 39.6616 78.9121 39.6616 82.4102C39.6616 85.9082 41.2847 87.5327 44.7842 87.5327C48.2837 87.5327 49.9067 85.9082 49.9067 82.4102Z" fill="white"></path>
<path fill-rule="evenodd" clip-rule="evenodd" d="M81.1189 76.1432C81.1189 68.3658 77.5103 64.7539 69.7296 64.7539C61.949 64.7539 58.3403 68.3658 58.3403 76.1432C58.3403 83.9206 61.949 87.5325 69.7296 87.5325C77.5103 87.5325 81.1189 83.9206 81.1189 76.1432Z" fill="black"></path>
<path fill-rule="evenodd" clip-rule="evenodd" d="M95.1943 7.94608C95.5348 9.84886 94.2683 11.6674 92.3655 12.0079L9.24053 26.8829C7.33776 27.2234 5.51923 25.9569 5.17874 24.0541C4.83824 22.1514 6.10472 20.3328 8.00749 19.9923L91.1325 5.11734C93.0353 4.77684 94.8538 6.04331 95.1943 7.94608Z" fill="black"></path>
<rect x="12.7539" y="31.8516" width="75.4897" height="24.625" rx="2" fill="white"></rect>
<path fill-rule="evenodd" clip-rule="evenodd" d="M69.729 36.2266C71.662 36.2266 73.229 37.7936 73.229 39.7266L73.229 56.5078L66.229 56.5078L66.229 39.7266C66.229 37.7936 67.796 36.2266 69.729 36.2266Z" fill="black"></path>
</svg>