<svg width="100" height="100" viewBox="0 0 100 100" fill="none" xmlns="http://www.w3.org/2000/svg">
<path fill-rule="evenodd" clip-rule="evenodd" d="M95 50C95 19.2708 80.742 5 50 5C19.258 5 5 19.2708 5 50C5 80.7292 19.258 95 50 95C80.742 95 95 80.7292 95 50Z" fill="white"></path>
<path d="M5 94.9154V49.8513L49.1562 94.9154H5Z" fill="white"></path>
<path fill-rule="evenodd" clip-rule="evenodd" d="M35.5161 50C35.5161 43.5236 32.5111 40.5159 26.032 40.5159C19.5529 40.5159 16.5479 43.5236 16.5479 50C16.5479 56.4764 19.5529 59.4841 26.032 59.4841C32.5111 59.4841 35.5161 56.4764 35.5161 50Z" fill="#FF0077"></path>
<path fill-rule="evenodd" clip-rule="evenodd" d="M59.4844 50C59.4844 43.5236 56.4794 40.5159 50.0002 40.5159C43.5211 40.5159 40.5161 43.5236 40.5161 50C40.5161 56.4764 43.5211 59.4841 50.0002 59.4841C56.4794 59.4841 59.4844 56.4764 59.4844 50Z" fill="#FF0077"></path>
<path fill-rule="evenodd" clip-rule="evenodd" d="M83.4526 50C83.4526 43.5236 80.4476 40.5159 73.9685 40.5159C67.4894 40.5159 64.4844 43.5236 64.4844 50C64.4844 56.4764 67.4894 59.4841 73.9685 59.4841C80.4476 59.4841 83.4526 56.4764 83.4526 50Z" fill="#FF0077"></path>
</svg>