<svg width="100" height="100" viewBox="0 0 100 100" fill="none" xmlns="http://www.w3.org/2000/svg">
<path d="M95 87.7795H50.125V69.5295H91C93.2091 69.5295 95 71.3204 95 73.5295V87.7795Z" fill="black"></path>
<path d="M41.4999 14.7449C66.4351 14.7449 77.9999 26.3201 77.9999 51.2449V87.7449H41.4999C16.5648 87.7449 5 76.1697 5 51.2449C5 26.3201 16.5648 14.7449 41.4999 14.7449Z" fill="white"></path>
<path fill-rule="evenodd" clip-rule="evenodd" d="M61.5658 51.2448C61.5658 37.5426 55.2081 31.1792 41.5002 31.1792C27.7923 31.1792 21.4346 37.5426 21.4346 51.2448C21.4346 64.9471 27.7923 71.3105 41.5002 71.3105C55.2081 71.3105 61.5658 64.9471 61.5658 51.2448Z" fill="#FF0077"></path>
<path fill-rule="evenodd" clip-rule="evenodd" d="M62.2932 11.2361C63.1267 9.49212 65.2163 8.75403 66.9603 9.58759C75.9084 13.8643 81.9338 20.9753 85.1541 30.7895C85.7567 32.6261 84.7564 34.6036 82.9197 35.2062C81.0831 35.8089 79.1056 34.8085 78.503 32.9719C75.8358 24.8434 71.0458 19.2987 63.9417 15.9033C62.1977 15.0697 61.4596 12.9802 62.2932 11.2361Z" fill="black"></path>
</svg>