<svg width="100" height="100" viewBox="0 0 100 100" fill="none" xmlns="http://www.w3.org/2000/svg">
<path d="M50 49.9655C80.742 49.9655 95 64.2473 95 95L5 95C5 64.2473 19.258 49.9655 50 49.9655Z" fill="#FF0077"></path>
<path d="M49.9999 50.0345C19.258 50.0345 4.99995 35.7527 4.99995 5.00002L94.9999 5.00003C94.9999 35.7528 80.7419 50.0345 49.9999 50.0345Z" fill="#FF0077"></path>
<path d="M50 49.9655C80.742 49.9655 95 64.2473 95 95L5 95C5 64.2473 19.258 49.9655 50 49.9655Z" fill="#FF0077"></path>
<path d="M50 49.9756L87.9482 94.9999H12.0519L50 49.9756Z" fill="black"></path>
<path d="M50 50.0499L28.9892 25.256L71.0106 25.256L50 50.0499Z" fill="black"></path>
</svg>