<svg width="100" height="100" viewBox="0 0 100 100" fill="none" xmlns="http://www.w3.org/2000/svg">
<rect x="29.9999" y="5" width="40" height="90" rx="2" fill="white"></rect>
<path fill-rule="evenodd" clip-rule="evenodd" d="M87.7448 49.9999C87.7448 24.225 75.7855 12.255 49.9998 12.255C24.2142 12.255 12.2549 24.225 12.2549 49.9999C12.2549 75.7748 24.2142 87.7449 49.9998 87.7449C75.7855 87.7449 87.7448 75.7748 87.7448 49.9999Z" fill="#FF0077"></path>
<path fill-rule="evenodd" clip-rule="evenodd" d="M50 31.5808C51.933 31.5808 53.5 33.1478 53.5 35.0808V46.4308H72.5C74.433 46.4308 76 47.9978 76 49.9308C76 51.8638 74.433 53.4308 72.5 53.4308H52C48.9624 53.4308 46.5 50.9684 46.5 47.9308V35.0808C46.5 33.1478 48.067 31.5808 50 31.5808Z" fill="white"></path>
</svg>