<svg width="100" height="100" viewBox="0 0 100 100" fill="none" xmlns="http://www.w3.org/2000/svg">
<path fill-rule="evenodd" clip-rule="evenodd" d="M35 5L25.3999 5C23.1908 5 21.3999 6.79087 21.3999 9L21.3999 90.9999C21.3999 93.209 23.1908 94.9999 25.3999 94.9999H35C35 84.7569 39.7527 80 50 80C60.2473 80 65 84.7569 65 94.9999H74.6C76.8091 94.9999 78.6 93.209 78.6 90.9999V9C78.6 6.79086 76.8091 5 74.6 5H65C65 15.2431 60.2473 20 50 20C39.7527 20 35 15.2431 35 5Z" fill="black"></path>
<path fill-rule="evenodd" clip-rule="evenodd" d="M21.375 33.6377L34.6562 33.6377L34.6563 40.6377L21.375 40.6377L21.375 33.6377ZM40.2188 33.6377L59.7812 33.6377L59.7813 40.6377L40.2188 40.6377L40.2188 33.6377ZM65.3438 33.6377L78.625 33.6377L78.625 40.6377L65.3438 40.6377L65.3438 33.6377Z" fill="white"></path>
</svg>