<svg width="100" height="100" viewBox="0 0 100 100" fill="none" xmlns="http://www.w3.org/2000/svg">
<path fill-rule="evenodd" clip-rule="evenodd" d="M24.853 12.043C22.6439 12.043 20.853 13.8338 20.853 16.043V91C20.853 93.2091 22.6439 95 24.853 95H75.6471C77.8562 95 79.6471 93.2091 79.6471 91V16.043C79.6471 13.8338 77.8562 12.043 75.6471 12.043H24.853ZM49.9353 17.062C55.4921 17.062 58.0694 19.6437 58.0694 25.2029C58.0694 30.7621 55.4921 33.3439 49.9353 33.3439C44.3785 33.3439 41.8013 30.7621 41.8013 25.2029C41.8013 19.6437 44.3785 17.062 49.9353 17.062Z" fill="#FF0077"></path>
<path fill-rule="evenodd" clip-rule="evenodd" d="M60.4231 53.3946C60.4231 46.5525 57.2485 43.375 50.4035 43.375C43.5586 43.375 40.3839 46.5525 40.3839 53.3946C40.3839 60.2367 43.5586 63.4142 50.4035 63.4142C57.2485 63.4142 60.4231 60.2367 60.4231 53.3946Z" fill="white"></path>
<path d="M50.4036 65.3418C65.4566 65.3418 72.4382 72.3296 72.4382 87.3763H28.3691C28.3691 72.3296 35.3506 65.3418 50.4036 65.3418Z" fill="white"></path>
<path fill-rule="evenodd" clip-rule="evenodd" d="M50.2042 5.04006C52.1372 5.03285 53.71 6.59399 53.7173 8.52697L53.7821 25.902C53.7894 27.835 52.2282 29.4078 50.2952 29.415C48.3622 29.4222 46.7894 27.8611 46.7822 25.9281L46.7173 8.55311C46.7101 6.62013 48.2712 5.04728 50.2042 5.04006Z" fill="black"></path>
</svg>