<svg width="100" height="100" viewBox="0 0 100 100" fill="none" xmlns="http://www.w3.org/2000/svg">
<path fill-rule="evenodd" clip-rule="evenodd" d="M33.8521 5C53.5626 5 62.7042 14.1515 62.7042 33.8572C62.7042 53.5629 53.5626 62.7144 33.8521 62.7144C32.9777 62.7144 32.1241 62.6963 31.2912 62.6602H5V33.8572V33.7619L5.00007 33.762C5.0295 14.122 14.1734 5 33.8521 5Z" fill="white"></path>
<path fill-rule="evenodd" clip-rule="evenodd" d="M31.4739 63.2313C31.4739 41.5374 41.5379 31.4626 63.237 31.4626C84.936 31.4626 95 41.5374 95 63.2313C95 84.9251 84.936 94.9999 63.237 94.9999C41.5379 94.9999 31.4739 84.9251 31.4739 63.2313Z" fill="black"></path>
<path d="M95 94.9404V63.1265L63.8325 94.9404H95Z" fill="black"></path>
<path fill-rule="evenodd" clip-rule="evenodd" d="M53.857 63.2313C53.857 59.0371 51.911 57.0894 47.7151 57.0894C43.5193 57.0894 41.5732 59.0371 41.5732 63.2313C41.5732 67.4254 43.5193 69.3732 47.7151 69.3732C51.911 69.3732 53.857 67.4254 53.857 63.2313Z" fill="white"></path>
<path fill-rule="evenodd" clip-rule="evenodd" d="M69.3788 63.2312C69.3788 59.0371 67.4327 57.0893 63.2369 57.0893C59.041 57.0893 57.095 59.0371 57.095 63.2312C57.095 67.4253 59.041 69.3731 63.2369 69.3731C67.4327 69.3731 69.3788 67.4253 69.3788 63.2312Z" fill="white"></path>
<path fill-rule="evenodd" clip-rule="evenodd" d="M84.9007 63.2312C84.9007 59.0371 82.9547 57.0893 78.7588 57.0893C74.563 57.0893 72.6169 59.0371 72.6169 63.2312C72.6169 67.4253 74.563 69.3731 78.7588 69.3731C82.9547 69.3731 84.9007 67.4253 84.9007 63.2312Z" fill="white"></path>
</svg>