<svg width="100" height="100" viewBox="0 0 100 100" fill="none" xmlns="http://www.w3.org/2000/svg">
<path fill-rule="evenodd" clip-rule="evenodd" d="M26.8374 12.9988C32.2499 7.43606 40.173 5.09375 49.9998 5.09375C59.8267 5.09375 67.7498 7.43606 73.1622 12.9988C78.5554 18.5416 80.8132 26.6252 80.8132 36.6591H73.8132C73.8132 27.528 71.744 21.5789 68.1452 17.8803C64.5659 14.2016 58.8322 12.0938 49.9998 12.0938C41.1675 12.0938 35.4338 14.2016 31.8545 17.8803C28.2557 21.5789 26.1865 27.528 26.1865 36.6591H19.1865C19.1865 26.6252 21.4443 18.5416 26.8374 12.9988Z" fill="black"></path>
<path d="M4.99998 31C4.99998 28.7909 6.79084 27 8.99998 27H91C93.2091 27 95 28.7909 95 31V91C95 93.2091 93.2091 95 91 95H8.99998C6.79084 95 4.99998 93.2091 4.99998 91V31Z" fill="#FF0077"></path>
<path fill-rule="evenodd" clip-rule="evenodd" d="M62.9682 50C62.9682 51.933 61.4012 53.5 59.4682 53.5H40.5322C38.5992 53.5 37.0322 51.933 37.0322 50C37.0322 48.067 38.5992 46.5 40.5322 46.5H59.4682C61.4012 46.5 62.9682 48.067 62.9682 50Z" fill="black"></path>
</svg>