<svg width="100" height="100" viewBox="0 0 100 100" fill="none" xmlns="http://www.w3.org/2000/svg">
<path fill-rule="evenodd" clip-rule="evenodd" d="M17.9609 37.4648V37.4651V62.7473H82.4653V37.4648H82.4652C82.4652 16.6995 73.3808 6.42041 53.875 5.31339V36.7178C53.875 38.6508 52.308 40.2178 50.375 40.2178C48.442 40.2178 46.875 38.6508 46.875 36.7178V5.2959C27.1459 6.3073 17.961 16.585 17.9609 37.4648ZM49.4274 5.21729H50.9988C50.7386 5.21435 50.4767 5.21289 50.2131 5.21289C49.9495 5.21289 49.6876 5.21435 49.4274 5.21729ZM17.961 62.7478C17.961 84.7719 28.18 95 50.2132 95C72.2464 95 82.4653 84.7719 82.4653 62.7478L17.961 62.7478Z" fill="#FF0077"></path>
</svg>