<svg width="100" height="100" viewBox="0 0 100 100" fill="none" xmlns="http://www.w3.org/2000/svg">
<g clip-path="url(#clip0_6502_2599)">
<path d="M83.5852 83.7904C72.0913 95.2843 61.4248 95.2795 49.9357 83.7904L83.5852 50.1409C95.0743 61.63 95.0791 72.2965 83.5852 83.7904Z" fill="#FF0077"></path>
<path d="M5.55724 5.56508L50.0162 16.5702L16.3691 50.2173L5.55724 5.56508Z" fill="#FF0077"></path>
<path d="M16.3673 50.2189L50.0137 16.5726L83.6898 50.2488L50.0435 83.8951L16.3673 50.2189Z" fill="black"></path>
<path d="M5.08105 5.10727L20.6643 9.29347L9.23531 20.7225L5.08105 5.10727Z" fill="black"></path>
<path d="M33.4853 50.1071L16.3595 50.2269L33.3923 33.1939L33.4853 50.1071Z" fill="#FF0077"></path>
<path d="M50.0162 33.3485L33.3994 33.1867L50.0162 16.5699L50.0162 33.3485Z" fill="#FF0077"></path>
</g>
<defs>
<clipPath id="clip0_6502_2599">
<rect width="100" height="100" fill="white"></rect>
</clipPath>
</defs>
</svg>