<svg width="100" height="100" viewBox="0 0 100 100" fill="none" xmlns="http://www.w3.org/2000/svg">
<path fill-rule="evenodd" clip-rule="evenodd" d="M93.8707 59.6644C93.8707 43.8106 86.5147 36.4479 70.6543 36.4479C70.4226 36.4479 70.1928 36.4495 69.9648 36.4527V36.4479H28.3325V36.4603C13.2371 36.7999 6.22388 44.1845 6.22388 59.6644C6.22388 75.1444 13.2371 82.5289 28.3325 82.8686V82.8809H69.9648V82.8761C70.1928 82.8792 70.4226 82.8808 70.6543 82.8808C86.5147 82.8808 93.8707 75.5182 93.8707 59.6644Z" fill="white"></path>
<path fill-rule="evenodd" clip-rule="evenodd" d="M30.0157 11.6453C34.7571 6.90296 41.6425 4.95691 50.0467 4.95691C58.451 4.95691 65.3364 6.90296 70.0778 11.6453C74.819 16.3876 76.7632 23.2728 76.7632 31.6733V41.9813H69.7632V31.6733C69.7632 24.2201 68.0294 19.4971 65.1275 16.5946C62.2257 13.6922 57.5029 11.9569 50.0467 11.9569C42.5906 11.9569 37.8678 13.6922 34.966 16.5946C32.0641 19.4971 30.3303 24.2201 30.3303 31.6733V41.9813H23.3303V31.6733C23.3303 23.2728 25.2745 16.3876 30.0157 11.6453Z" fill="black"></path>
<path fill-rule="evenodd" clip-rule="evenodd" d="M53.547 54.7098C53.547 52.7768 51.98 51.2098 50.047 51.2098C48.114 51.2098 46.547 52.7768 46.547 54.7098V56.8521H44.405C42.472 56.8521 40.905 58.4191 40.905 60.3521C40.905 62.2851 42.472 63.8521 44.405 63.8521H46.547V65.9943C46.547 67.9273 48.114 69.4943 50.047 69.4943C51.98 69.4943 53.547 67.9273 53.547 65.9943V63.8521H55.6896C57.6226 63.8521 59.1896 62.2851 59.1896 60.3521C59.1896 58.4191 57.6226 56.8521 55.6896 56.8521H53.547V54.7098Z" fill="black"></path>
<path fill-rule="evenodd" clip-rule="evenodd" d="M35.9729 60.3521C35.9729 62.285 34.4059 63.8521 32.4729 63.8521L21.1884 63.8521C19.2554 63.8521 17.6884 62.285 17.6884 60.352C17.6884 58.4191 19.2554 56.8521 21.1884 56.8521L32.4729 56.8521C34.4059 56.8521 35.9729 58.4191 35.9729 60.3521Z" fill="black"></path>
</svg>