<svg width="100" height="100" viewBox="0 0 100 100" fill="none" xmlns="http://www.w3.org/2000/svg">
<rect x="5.09961" y="26.4341" width="89.7881" height="68.5659" rx="4" fill="#FF0077"></rect>
<path d="M30.7645 13.8009C30.9756 12.8956 31.7827 12.2551 32.7123 12.2551H50V58.9443H20.2373L30.7645 13.8009Z" fill="#FF0077"></path>
<path d="M69.2355 13.8009C69.0244 12.8956 68.2173 12.2551 67.2877 12.2551H50V58.9443H79.7627L69.2355 13.8009Z" fill="#FF0077"></path>
<mask id="path-4-inside-1_6502_4211" fill="white">
<path fill-rule="evenodd" clip-rule="evenodd" d="M74.9936 60.7171C74.9936 43.6453 67.0725 35.717 49.9936 35.717C32.9148 35.717 24.9937 43.6453 24.9937 60.7171C24.9937 77.7888 32.9148 85.7171 49.9936 85.7171C67.0725 85.7171 74.9936 77.7888 74.9936 60.7171Z"></path>
</mask>
<path fill-rule="evenodd" clip-rule="evenodd" d="M74.9936 60.7171C74.9936 43.6453 67.0725 35.717 49.9936 35.717C32.9148 35.717 24.9937 43.6453 24.9937 60.7171C24.9937 77.7888 32.9148 85.7171 49.9936 85.7171C67.0725 85.7171 74.9936 77.7888 74.9936 60.7171Z" fill="black"></path>
<path d="M81.9936 60.7171C81.9936 51.2339 79.8029 42.8217 73.8485 36.8659C67.8937 30.9099 59.4811 28.717 49.9936 28.717V42.717C57.585 42.717 61.6724 44.4883 63.9479 46.7643C66.2237 49.0407 67.9936 53.1284 67.9936 60.7171H81.9936ZM49.9936 28.717C40.5062 28.717 32.0935 30.9099 26.1388 36.8659C20.1844 42.8217 17.9937 51.2339 17.9937 60.7171H31.9937C31.9937 53.1284 33.7636 49.0407 36.0394 46.7643C38.3149 44.4883 42.4023 42.717 49.9936 42.717V28.717ZM17.9937 60.7171C17.9937 70.2002 20.1844 78.6124 26.1388 84.5682C32.0935 90.5242 40.5062 92.7171 49.9936 92.7171V78.7171C42.4023 78.7171 38.3149 76.9458 36.0394 74.6698C33.7636 72.3934 31.9937 68.3057 31.9937 60.7171H17.9937ZM49.9936 92.7171C59.4811 92.7171 67.8937 90.5242 73.8485 84.5682C79.8029 78.6124 81.9936 70.2002 81.9936 60.7171H67.9936C67.9936 68.3057 66.2237 72.3934 63.9479 74.6698C61.6724 76.9458 57.585 78.7171 49.9936 78.7171V92.7171Z" fill="white" mask="url(#path-4-inside-1_6502_4211)"></path>
<path fill-rule="evenodd" clip-rule="evenodd" d="M8.13279 16.6249C6.06371 16.7197 5.09961 17.7848 5.09961 19.9635C5.09961 22.1422 6.06371 23.2073 8.1328 23.3021L8.1328 23.309L8.41963 23.309C8.42814 23.3091 8.43666 23.3091 8.4452 23.3091L8.4452 23.309L17.5247 23.309C19.8093 23.309 20.8703 22.249 20.8703 19.9634C20.8703 17.6779 19.8093 16.6179 17.5247 16.6179L8.13279 16.6179L8.13279 16.6249Z" fill="black"></path>
</svg>