<svg width="100" height="100" viewBox="0 0 100 100" fill="none" xmlns="http://www.w3.org/2000/svg">
<path fill-rule="evenodd" clip-rule="evenodd" d="M95 50C95 19.2708 80.742 5 50 5C19.258 5 5 19.2708 5 50C5 80.7292 19.258 95 50 95C80.742 95 95 80.7292 95 50Z" fill="white"></path>
<path d="M5 94.9157V49.8516L49.1562 94.9157H5Z" fill="white"></path>
<path fill-rule="evenodd" clip-rule="evenodd" d="M50.9148 44.9987C50.9148 36.1776 46.8219 32.0811 37.9972 32.0811C29.1725 32.0811 25.0796 36.1776 25.0796 44.9987H25.0888C25.0899 58.8953 33.5727 70.0699 50.9137 79.3763V46.2121V44.9987H50.9148Z" fill="black"></path>
<path fill-rule="evenodd" clip-rule="evenodd" d="M50.9153 44.9987C50.9153 36.1776 55.0081 32.0811 63.8329 32.0811C72.6576 32.0811 76.7505 36.1776 76.7505 44.9987H76.7413C76.7402 58.8953 68.2574 70.0699 50.9164 79.3763V46.2121V44.9987H50.9153Z" fill="black"></path>
</svg>