<svg width="100" height="100" viewBox="0 0 100 100" fill="none" xmlns="http://www.w3.org/2000/svg">
<path fill-rule="evenodd" clip-rule="evenodd" d="M15.7441 57.0683C15.3682 57.0442 14.9786 57.0322 14.5752 57.0322C8.26697 57.0322 5.34125 59.9606 5.34125 66.2662C5.34125 72.5717 8.26697 75.5001 14.5752 75.5001C14.9786 75.5001 15.3682 75.4881 15.7441 75.464V75.5001H85.2163V75.499C85.2854 75.4997 85.3549 75.5001 85.4248 75.5001C91.733 75.5001 94.6588 72.5717 94.6588 66.2662C94.6588 59.9606 91.733 57.0322 85.4248 57.0322C85.3549 57.0322 85.2854 57.0326 85.2163 57.0333V57.0322H15.7441V57.0683Z" fill="#FF0077"></path>
<path d="M5 75.5H95V87C95 91.4183 91.4183 95 87 95H13C8.58172 95 5 91.4183 5 87V75.5Z" fill="white"></path>
<path d="M50 5C80.742 5 95 19.2708 95 50H5C5 19.2708 19.258 5 50 5Z" fill="white"></path>
</svg>