<svg width="100" height="100" viewBox="0 0 100 100" fill="none" xmlns="http://www.w3.org/2000/svg">
<path fill-rule="evenodd" clip-rule="evenodd" d="M4.69629 87.7451C4.69629 85.8121 6.26329 84.2451 8.19629 84.2451L91.6963 84.2451C93.6293 84.2451 95.1963 85.8121 95.1963 87.7451C95.1963 89.6781 93.6293 91.2451 91.6963 91.2451L8.19629 91.2451C6.26329 91.2451 4.69629 89.6781 4.69629 87.7451Z" fill="black"></path>
<path fill-rule="evenodd" clip-rule="evenodd" d="M4.69629 87.7451C4.69629 85.8121 6.26329 84.2451 8.19629 84.2451L41.6963 84.2451C43.6293 84.2451 45.1963 85.8121 45.1963 87.7451C45.1963 89.6781 43.6293 91.2451 41.6963 91.2451L8.19629 91.2451C6.26329 91.2451 4.69629 89.6781 4.69629 87.7451Z" fill="#FF0077"></path>
<path fill-rule="evenodd" clip-rule="evenodd" d="M50.1353 87.7449C50.1353 82.7906 47.8365 80.4897 42.8801 80.4897C37.9237 80.4897 35.625 82.7906 35.625 87.7449C35.625 92.6992 37.9237 95 42.8801 95C47.8365 95 50.1353 92.6992 50.1353 87.7449Z" fill="#FF0077"></path>
<path d="M5 9C5 6.79086 6.79086 5 9 5H91C93.2091 5 95 6.79086 95 9V71C95 73.2091 93.2091 75 91 75H9C6.79086 75 5 73.2091 5 71V9Z" fill="#FF0077"></path>
<path d="M68.3695 38.7578C69.3259 39.3101 69.3259 40.6906 68.3695 41.2428L41.8908 56.5302C40.9343 57.0825 39.7388 56.3922 39.7388 55.2878L39.7388 24.7129C39.7388 23.6084 40.9343 22.9182 41.8908 23.4704L68.3695 38.7578Z" fill="white"></path>
</svg>