<svg width="100" height="100" viewBox="0 0 100 100" fill="none" xmlns="http://www.w3.org/2000/svg">
<path fill-rule="evenodd" clip-rule="evenodd" d="M95 50C95 19.2709 80.7419 5 49.9999 5C19.2579 5 4.99989 19.2709 4.99989 50C4.99989 80.7292 19.2579 95.0001 49.9999 95.0001C80.7419 95.0001 95 80.7292 95 50Z" fill="#FF0077"></path>
<path fill-rule="evenodd" clip-rule="evenodd" d="M46.5004 24.249C46.5004 22.316 48.0674 20.749 50.0004 20.749C59.5085 20.749 67.0579 22.8832 72.1675 28.0755C77.2662 33.2566 79.2519 40.7908 79.2519 50.0005C79.2519 59.4869 77.1188 67.0337 71.9302 72.1481C66.7516 77.2525 59.2184 79.252 50.0004 79.252C40.5131 79.252 32.9665 77.1168 27.8525 71.9273C22.7485 66.7481 20.7488 59.2153 20.7488 50.0005V41.5627H27.7488V50.0005C27.7488 58.3707 29.586 63.7137 32.8383 67.0139C36.0806 70.304 41.4097 72.252 50.0004 72.252C58.3745 72.252 63.7171 70.4146 67.0162 67.1628C70.3053 63.9208 72.2519 58.5918 72.2519 50.0005C72.2519 41.6254 70.4241 36.2838 67.1782 32.9854C63.9434 29.6982 58.6169 27.749 50.0004 27.749C48.0674 27.749 46.5004 26.182 46.5004 24.249Z" fill="white"></path>
<path fill-rule="evenodd" clip-rule="evenodd" d="M20.3597 36.7958C22.5076 34.6479 25.99 34.6479 28.1379 36.7958L35.3673 44.0252C36.7341 45.3921 36.7341 47.6081 35.3673 48.975C34.0004 50.3418 31.7844 50.3418 30.4175 48.975L24.2488 42.8062L18.08 48.975C16.7132 50.3418 14.4971 50.3418 13.1303 48.975C11.7634 47.6081 11.7634 45.3921 13.1303 44.0252L20.3597 36.7958Z" fill="white"></path>
</svg>