<svg width="100" height="100" viewBox="0 0 100 100" fill="none" xmlns="http://www.w3.org/2000/svg">
<path fill-rule="evenodd" clip-rule="evenodd" d="M95 50C95 24.1363 82.9995 12.125 57.125 12.125C31.2505 12.125 19.25 24.1363 19.25 50C19.25 75.8637 31.2505 87.875 57.125 87.875C82.9995 87.875 95 75.8637 95 50Z" fill="#FF0077"></path>
<path fill-rule="evenodd" clip-rule="evenodd" d="M57.1245 24.4678C59.0575 24.4678 60.6245 26.0348 60.6245 27.9678V48.6749L81.8509 69.9013C83.2178 71.2682 83.2178 73.4843 81.8509 74.8511C80.4841 76.2179 78.268 76.2179 76.9012 74.8511L55.2354 53.1853C54.204 52.1539 53.6245 50.7549 53.6245 49.2962V27.9678C53.6245 26.0348 55.1915 24.4678 57.1245 24.4678Z" fill="white"></path>
<path fill-rule="evenodd" clip-rule="evenodd" d="M39.7749 35C39.7749 36.933 38.2079 38.5 36.2749 38.5H8.5C6.567 38.5 5 36.933 5 35C5 33.067 6.567 31.5 8.5 31.5L36.2749 31.5C38.2079 31.5 39.7749 33.067 39.7749 35Z" fill="black"></path>
<path fill-rule="evenodd" clip-rule="evenodd" d="M39.7749 50C39.7749 51.933 38.2079 53.5 36.2749 53.5H16.7764C14.8434 53.5 13.2764 51.933 13.2764 50C13.2764 48.067 14.8434 46.5 16.7764 46.5H36.2749C38.2079 46.5 39.7749 48.067 39.7749 50Z" fill="black"></path>
<path fill-rule="evenodd" clip-rule="evenodd" d="M39.7749 65C39.7749 66.933 38.2079 68.5 36.2749 68.5H26.1749C24.2419 68.5 22.6749 66.933 22.6749 65C22.6749 63.067 24.2419 61.5 26.1749 61.5H36.2749C38.2079 61.5 39.7749 63.067 39.7749 65Z" fill="black"></path>
</svg>