<svg width="100" height="100" viewBox="0 0 100 100" fill="none" xmlns="http://www.w3.org/2000/svg">
<rect x="87.7449" y="5" width="90" height="75.4897" rx="4" transform="rotate(90 87.7449 5)" fill="#FF0077"></rect>
<path fill-rule="evenodd" clip-rule="evenodd" d="M63.9545 48.7922C61.679 46.5161 57.5917 44.7449 50.0002 44.7449C42.4088 44.7449 38.3215 46.5161 36.0459 48.7922C33.7701 51.0685 32.0002 55.1563 32.0002 62.7449C32.0002 70.3335 33.7701 74.4212 36.0459 76.6976C38.3215 78.9736 42.4088 80.7449 50.0002 80.7449C57.5917 80.7449 61.679 78.9736 63.9545 76.6976C66.2304 74.4212 68.0002 70.3335 68.0002 62.7449C68.0002 55.1563 66.2304 51.0685 63.9545 48.7922ZM50.0002 37.7449C67.0791 37.7449 75.0002 45.6731 75.0002 62.7449C75.0002 79.8166 67.0791 87.7449 50.0002 87.7449C32.9214 87.7449 25.0002 79.8166 25.0002 62.7449C25.0002 45.6731 32.9214 37.7449 50.0002 37.7449Z" fill="black"></path>
<path fill-rule="evenodd" clip-rule="evenodd" d="M60.0002 22.2551C60.0002 15.4264 56.8318 12.2551 50.0002 12.2551C43.1687 12.2551 40.0002 15.4264 40.0002 22.2551C40.0002 29.0838 43.1687 32.2551 50.0002 32.2551C56.8318 32.2551 60.0002 29.0838 60.0002 22.2551Z" fill="white"></path>
<path fill-rule="evenodd" clip-rule="evenodd" d="M60.0002 62.7449C60.0002 55.9162 56.8318 52.7449 50.0002 52.7449C43.1687 52.7449 40.0002 55.9162 40.0002 62.7449C40.0002 69.5736 43.1687 72.7449 50.0002 72.7449C56.8318 72.7449 60.0002 69.5736 60.0002 62.7449Z" fill="black"></path>
</svg>