<svg width="100" height="100" viewBox="0 0 100 100" fill="none" xmlns="http://www.w3.org/2000/svg">
<path d="M30.9502 24.5623H48.5142V85.6317H30.9502V24.5623Z" fill="white"></path>
<path fill-rule="evenodd" clip-rule="evenodd" d="M48.5139 26.7745C48.5139 11.9054 41.6203 5 26.757 5C11.8936 5 5 11.9054 5 26.7745C5 41.6437 11.8936 48.5491 26.757 48.5491C41.6203 48.5491 48.5139 41.6437 48.5139 26.7745Z" fill="#FF0077"></path>
<path fill-rule="evenodd" clip-rule="evenodd" d="M17.622 18.8481V30.1579H17.6192C17.6206 30.2231 17.6213 30.289 17.6213 30.3558C17.6213 33.2663 16.272 34.6179 13.3626 34.6179C10.4532 34.6179 9.10388 33.2663 9.10388 30.3558C9.10388 30.289 9.10459 30.2231 9.10601 30.1579H9.10388V18.4228H9.11155C9.21658 15.7507 10.5719 14.5061 13.3636 14.5061C16.1554 14.5061 17.5107 15.7507 17.6157 18.4228H17.622V18.6884C17.6222 18.7149 17.6224 18.7415 17.6224 18.7683C17.6224 18.795 17.6222 18.8217 17.622 18.8481Z" fill="white"></path>
<path fill-rule="evenodd" clip-rule="evenodd" d="M48.514 85.8647C48.514 79.6265 45.7314 76.7295 39.732 76.7295C33.7325 76.7295 30.95 79.6265 30.95 85.8647C30.95 92.1028 33.7325 94.9999 39.732 94.9999C45.7314 94.9999 48.514 92.1028 48.514 85.8647Z" fill="white"></path>
<path d="M69.05 24.5623H51.486V85.6317H69.05V24.5623Z" fill="white"></path>
<path fill-rule="evenodd" clip-rule="evenodd" d="M51.4861 26.7745C51.4861 11.9054 58.3797 5 73.243 5C88.1064 5 95 11.9054 95 26.7745C95 41.6437 88.1064 48.5491 73.243 48.5491C58.3797 48.5491 51.4861 41.6437 51.4861 26.7745Z" fill="#FF0077"></path>
<path fill-rule="evenodd" clip-rule="evenodd" d="M82.3782 18.8389V30.1579H82.3811C82.3796 30.2231 82.3789 30.289 82.3789 30.3558C82.3789 33.2663 83.7283 34.6179 86.6376 34.6179C89.547 34.6179 90.8964 33.2663 90.8964 30.3558C90.8964 30.289 90.8957 30.2231 90.8942 30.1579H90.8964V18.4228H90.8888C90.7837 15.7507 89.4284 14.5061 86.6367 14.5061C83.845 14.5061 82.4896 15.7507 82.3846 18.4228H82.3782V18.6977C82.3781 18.7211 82.378 18.7446 82.378 18.7683C82.378 18.7919 82.3781 18.8154 82.3782 18.8389Z" fill="white"></path>
<path fill-rule="evenodd" clip-rule="evenodd" d="M51.486 85.8647C51.486 79.6265 54.2686 76.7295 60.268 76.7295C66.2675 76.7295 69.05 79.6265 69.05 85.8647C69.05 92.1028 66.2675 94.9999 60.268 94.9999C54.2686 94.9999 51.486 92.1028 51.486 85.8647Z" fill="white"></path>
</svg>