<svg width="100" height="100" viewBox="0 0 100 100" fill="none" xmlns="http://www.w3.org/2000/svg">
<path d="M26.457 43.9403C36.9868 44.139 43.543 51.2913 43.543 63.0131C43.543 74.735 36.5894 81.2913 24.4702 81.2913C11.9536 81.2913 5 74.735 5 63.0131C5 59.437 5.39735 54.8674 10.1656 46.3244L25.6622 18.7085H50.4967L26.457 43.9403ZM70.9603 43.9403C81.4901 44.139 88.0464 51.2913 88.0464 63.0131C88.0464 74.735 81.0927 81.2913 68.9735 81.2913C56.457 81.2913 49.5033 74.735 49.5033 63.0131C49.5033 59.437 49.9007 54.8674 54.6689 46.3244L70.1656 18.7085H95L70.9603 43.9403Z" fill="black"></path>
</svg>