<svg width="100" height="100" viewBox="0 0 100 100" fill="none" xmlns="http://www.w3.org/2000/svg">
<path fill-rule="evenodd" clip-rule="evenodd" d="M95 50C95 19.2708 80.742 5 50 5C19.258 5 5 19.2708 5 50C5 80.7292 19.258 95 50 95C80.742 95 95 80.7292 95 50Z" fill="black"></path>
<path d="M5 94.9157V49.8516L49.1562 94.9157H5Z" fill="black"></path>
<path fill-rule="evenodd" clip-rule="evenodd" d="M50.8412 29.4055C51.5023 27.5891 50.5657 25.5807 48.7493 24.9195C46.9329 24.2584 44.9244 25.195 44.2633 27.0114L40.7236 36.7367L30.3735 36.7261C28.4405 36.7241 26.8719 38.2895 26.8699 40.2225C26.8679 42.1555 28.4333 43.7241 30.3663 43.7261L38.1768 43.7341L33.6262 56.2367L23.2536 56.2261C21.3206 56.2241 19.752 57.7895 19.75 59.7225C19.748 61.6555 21.3134 63.2241 23.2464 63.2261L31.0793 63.2341L28.4004 70.5944C27.7393 72.4108 28.6758 74.4193 30.4923 75.0804C32.3087 75.7415 34.3171 74.805 34.9782 72.9886L38.5258 63.2418L51.8303 63.2555L49.1592 70.5944C48.4981 72.4108 49.4346 74.4193 51.251 75.0804C53.0675 75.7415 55.0759 74.805 55.737 72.9886L59.2768 63.2631L69.6264 63.2738C71.5594 63.2758 73.1281 61.7104 73.13 59.7774C73.132 57.8444 71.5666 56.2758 69.6336 56.2738L61.8236 56.2658L66.3742 43.7631L76.7463 43.7738C78.6793 43.7758 80.2479 42.2104 80.2499 40.2774C80.2519 38.3444 78.6865 36.7758 76.7535 36.7738L68.9211 36.7657L71.6 29.4055C72.2611 27.5891 71.3245 25.5807 69.5081 24.9195C67.6917 24.2584 65.6832 25.195 65.0221 27.0114L61.4746 36.7581L48.17 36.7444L50.8412 29.4055ZM54.3772 56.2581L58.9278 43.7555L45.6232 43.7418L41.0726 56.2444L54.3772 56.2581Z" fill="white"></path>
</svg>