<svg width="100" height="100" viewBox="0 0 100 100" fill="none" xmlns="http://www.w3.org/2000/svg">
<g clip-path="url(#clip0_6502_5553)">
<path d="M90.4259 90.4661C84.5958 96.2962 79.1854 96.2938 73.3577 90.4661L34.9082 52.0166L51.9764 34.9484L90.4259 73.3978C96.2536 79.2255 96.256 84.6359 90.4259 90.4661Z" fill="white"></path>
<path fill-rule="evenodd" clip-rule="evenodd" d="M9.25522 25.9641L11.3336 28.0425L26.444 43.1527C28.0061 44.7147 30.5388 44.7147 32.1009 43.1526L43.1118 32.1417C44.6739 30.5796 44.6739 28.0469 43.1118 26.4848L28.0014 11.3747L25.9226 9.29589C34.9967 4.7482 43.8264 7.1408 53.1528 16.4672C65.6922 29.0066 65.6974 40.6481 53.1528 53.1927C40.6082 65.7373 28.9667 65.7321 16.4273 53.1927C7.10143 43.8668 4.70858 35.0376 9.25522 25.9641Z" fill="white"></path>
</g>
<defs>
<clipPath id="clip0_6502_5553">
<rect width="100" height="100" fill="white"></rect>
</clipPath>
</defs>
</svg>