<svg width="100" height="100" viewBox="0 0 100 100" fill="none" xmlns="http://www.w3.org/2000/svg">
<path fill-rule="evenodd" clip-rule="evenodd" d="M95.0002 50.0002C95.0002 19.2709 80.7421 5 49.9999 5C19.2578 5 4.99969 19.2709 4.99969 50.0002C4.99969 80.7296 19.2578 95.0005 49.9999 95.0005C80.7421 95.0005 95.0002 80.7296 95.0002 50.0002Z" fill="#FF0077"></path>
<path d="M20.9169 63.9385C15.3679 46.0081 24.698 18.9414 49.8405 18.9414C58.4832 18.9414 79.7953 23.0454 81.0721 48.7441C81.3036 53.4035 81.9751 62.8089 71.1717 63.1861C66.8938 62.9027 60.1331 61.1464 60.733 53.4074L61.0858 48.9581C61.0858 44.5286 59.6127 39.4124 51.6574 38.7284C42.6 37.9497 40.805 46.3012 40.7067 48.3532C40.6085 50.4052 37.2202 69.4593 57.5502 80.4521" stroke="white" stroke-width="7" stroke-linecap="round"></path>
<path d="M31.1496 45.4217C29.4564 52.7502 29.0695 66.0393 38.7929 77.0321M34.4392 37.3115C37.1482 33.2075 42.8812 28.6639 50.5965 28.6638C60.6586 28.6637 72.1314 34.8038 71.0188 53.2228M50.833 48.2081C50.446 54.4129 47.5973 69.3127 69.3177 72.7327" stroke="white" stroke-width="7" stroke-linecap="round"></path>
</svg>