<svg width="100" height="100" viewBox="0 0 100 100" fill="none" xmlns="http://www.w3.org/2000/svg">
<path d="M5 21.4092C5 19.2 6.79086 17.4092 9 17.4092H91C93.2091 17.4092 95 19.2 95 21.4092V78.5903C95 80.7995 93.2091 82.5903 91 82.5903H9C6.79086 82.5903 5 80.7995 5 78.5903V21.4092Z" fill="white"></path>
<path fill-rule="evenodd" clip-rule="evenodd" d="M28.8752 45.0576C29.3405 45.0576 29.7919 45.0696 30.2295 45.0938H69.771C70.2086 45.0696 70.66 45.0576 71.1252 45.0576C79.4921 45.0576 83.3726 48.9416 83.3726 57.3049C83.3726 65.6394 79.5188 69.5254 71.2116 69.5521C70.9811 69.5999 70.7422 69.625 70.4976 69.625H29.1226C28.8705 69.625 28.6248 69.5984 28.3878 69.5478C20.3576 69.3981 16.6279 65.5041 16.6279 57.3049C16.6279 48.9416 20.5084 45.0576 28.8752 45.0576ZM40.4239 62.625H59.5766C59.1079 61.1114 58.8779 59.3409 58.8779 57.3049C58.8779 55.3176 59.097 53.5832 59.5434 52.0938H40.4571C40.9034 53.5832 41.1226 55.3176 41.1226 57.3049C41.1226 59.3409 40.8926 61.1114 40.4239 62.625ZM71.5 52.0938H69.9701C67.6666 52.2468 66.9676 52.8409 66.8143 52.9942C66.6376 53.1709 65.8779 54.0705 65.8779 57.3049C65.8779 60.5393 66.6376 61.4389 66.8143 61.6156C66.9907 61.792 67.8899 62.5522 71.1252 62.5522C74.3606 62.5522 75.2598 61.792 75.4362 61.6156C75.6128 61.4389 76.3726 60.5393 76.3726 57.3049C76.3726 54.0705 75.6128 53.1709 75.4362 52.9942C75.2745 52.8325 74.5054 52.1802 71.8863 52.0727C71.7594 52.0866 71.6306 52.0938 71.5 52.0938ZM28.875 52.0938H30.0303C32.3338 52.2468 33.0329 52.8409 33.1862 52.9942C33.3628 53.1709 34.1226 54.0705 34.1226 57.3049C34.1226 60.5393 33.3628 61.4389 33.1862 61.6156C33.0098 61.792 32.1106 62.5522 28.8752 62.5522C25.6399 62.5522 24.7407 61.792 24.5643 61.6156C24.3876 61.4389 23.6279 60.5393 23.6279 57.3049C23.6279 54.0705 24.3876 53.1709 24.5643 52.9942C24.7319 52.8266 25.5522 52.1318 28.4097 52.0631C28.5619 52.0833 28.7172 52.0938 28.875 52.0938Z" fill="black"></path>
<path fill-rule="evenodd" clip-rule="evenodd" d="M87.1321 17.4668L76.4453 28.1539C75.4139 29.1853 74.0149 29.7648 72.5562 29.7648H27.4439C25.9852 29.7648 24.5862 29.1853 23.5547 28.1539L12.868 17.467L87.1321 17.4668Z" fill="#FF0077"></path>
</svg>