<svg width="100" height="100" viewBox="0 0 100 100" fill="none" xmlns="http://www.w3.org/2000/svg">
<rect x="95" y="18.2842" width="63.7856" height="90" rx="4" transform="rotate(90 95 18.2842)" fill="white"></rect>
<path fill-rule="evenodd" clip-rule="evenodd" d="M39.7771 39.983C39.7771 34.1615 37.076 31.458 31.2522 31.458C25.4283 31.458 22.7272 34.1615 22.7272 39.983C22.7272 45.8044 25.4283 48.5079 31.2522 48.5079C37.076 48.5079 39.7771 45.8044 39.7771 39.983Z" fill="black"></path>
<path d="M31.2524 50.1479C44.0599 50.1479 50 56.0934 50 68.8955H12.5049C12.5049 56.0934 18.445 50.1479 31.2524 50.1479Z" fill="black"></path>
<path fill-rule="evenodd" clip-rule="evenodd" d="M56.75 55.2734C56.75 53.3404 58.317 51.7734 60.25 51.7734H76.875C78.808 51.7734 80.375 53.3404 80.375 55.2734C80.375 57.2064 78.808 58.7734 76.875 58.7734H60.25C58.317 58.7734 56.75 57.2064 56.75 55.2734Z" fill="#FF0077"></path>
<path fill-rule="evenodd" clip-rule="evenodd" d="M56.75 45.0801C56.75 43.1471 58.317 41.5801 60.25 41.5801H84C85.933 41.5801 87.5 43.1471 87.5 45.0801C87.5 47.0131 85.933 48.5801 84 48.5801H60.25C58.317 48.5801 56.75 47.0131 56.75 45.0801Z" fill="#FF0077"></path>
</svg>