<svg width="100" height="100" viewBox="0 0 100 100" fill="none" xmlns="http://www.w3.org/2000/svg">
<path d="M67.9985 81.176C71.0495 79.4165 74.564 79.268 77.606 80.438C80.144 81.4145 83.0465 80.6045 84.77 78.503C87.8435 74.7545 90.323 70.502 92.0645 65.8805C93.059 63.239 92.1185 60.3365 89.963 58.5095C87.5375 56.4665 85.9985 53.4245 85.9985 50C85.9985 46.5755 87.5375 43.5335 89.9585 41.4815C92.114 39.6545 93.059 36.7565 92.06 34.1105C90.3185 29.4935 87.8435 25.2365 84.7655 21.488C83.042 19.3865 80.1395 18.5765 77.6015 19.553C74.564 20.732 71.0495 20.5835 67.9985 18.824C64.9385 17.0555 63.0485 14.072 62.5535 10.8365C62.1485 8.1905 60.0515 6.0755 57.41 5.6255C54.998 5.216 52.523 5 49.9985 5C47.474 5 44.999 5.216 42.587 5.6255C39.9455 6.0755 37.853 8.1905 37.4435 10.8365C36.9485 14.072 35.0585 17.0555 31.9985 18.824C28.9475 20.5835 25.433 20.732 22.391 19.5575C19.853 18.581 16.9506 19.391 15.227 21.4925C12.1536 25.241 9.67855 29.4935 7.93705 34.115C6.93805 36.7565 7.88305 39.659 10.0386 41.4815C12.4596 43.5335 13.9986 46.5755 13.9986 50C13.9986 53.4245 12.4596 56.4665 10.0386 58.5185C7.88305 60.3455 6.93805 63.2435 7.93705 65.8895C9.67855 70.5065 12.1536 74.7635 15.2316 78.512C16.9551 80.6135 19.8576 81.4235 22.3956 80.447C25.4331 79.268 28.9475 79.4165 31.9985 81.176C35.0585 82.9445 36.9485 85.928 37.4435 89.1635C37.8485 91.8095 39.9455 93.9245 42.587 94.3745C44.999 94.784 47.474 95 49.9985 95C52.523 95 54.998 94.784 57.41 94.3745C60.0515 93.929 62.1485 91.814 62.5535 89.1635C63.0485 85.928 64.9385 82.9445 67.9985 81.176Z" fill="white"></path>
<path fill-rule="evenodd" clip-rule="evenodd" d="M69.9819 50C69.9819 36.3549 63.6508 30.0181 50 30.0181C36.3492 30.0181 30.0181 36.3549 30.0181 50C30.0181 63.6451 36.3492 69.9819 50 69.9819C63.6508 69.9819 69.9819 63.6451 69.9819 50Z" fill="#FF0077"></path>
</svg>