<svg width="100" height="100" viewBox="0 0 100 100" fill="none" xmlns="http://www.w3.org/2000/svg">
<path d="M49.4153 5.11328C55.0281 5.11328 60.4185 5.53807 65.053 6.68555C69.6127 7.81458 74.0404 9.79073 76.9993 13.3643C80.1578 17.1791 81.0026 22.0172 79.8362 27.334C78.7901 32.1022 76.1113 37.4313 71.8958 43.4033C71.7166 53.9144 69.7907 62.2939 66.2014 68.2822C62.294 74.8012 56.3936 78.4346 49.4153 78.4346C42.4371 78.4345 36.5365 74.8011 32.6292 68.2822C29.0404 62.2948 27.1135 53.9169 26.9338 43.4082C19.171 32.4091 16.6047 22.2347 22.2815 14.5254C25.0235 10.8018 29.2094 8.49412 33.7542 7.10742C38.333 5.71032 43.6997 5.1133 49.4153 5.11328ZM49.4153 15.1133C44.3167 15.1133 40.0061 15.656 36.6731 16.6729C33.306 17.7002 31.3447 19.0815 30.3333 20.4551C28.7325 22.6293 27.7847 27.7696 35.9397 38.8018L36.9182 40.127V41.7744C36.9183 52.1171 38.7304 59.0109 41.2063 63.1416C43.5476 67.0477 46.3956 68.4345 49.4153 68.4346C52.435 68.4346 55.2829 67.0477 57.6243 63.1416C60.1001 59.0109 61.9123 52.1172 61.9124 41.7744V40.1396L62.8772 38.8203C67.2761 32.8106 69.3738 28.3579 70.0686 25.1914C70.7196 22.2242 70.1003 20.7113 69.2971 19.7412C68.2941 18.53 66.262 17.287 62.6497 16.3926C59.1119 15.5166 54.6167 15.1133 49.4153 15.1133Z" fill="black"></path>
<path d="M49.4995 29.0952C75.002 29.0952 86.8305 39.5292 86.8306 61.9966C86.8306 84.464 75.002 94.8979 49.4995 94.8979C23.9973 94.8978 12.1694 84.4639 12.1694 61.9966C12.1695 39.5294 23.9973 29.0953 49.4995 29.0952Z" fill="white"></path>
<path d="M58.441 48.2632C65.2012 48.2632 69.7469 53.3139 69.7469 62.2498C69.7469 71.1857 65.2012 76.2364 58.441 76.2364C51.7197 76.2364 47.2129 71.1857 47.2129 62.2498C47.2129 53.3139 51.7197 48.2632 58.441 48.2632ZM58.441 70.7972C62.5205 70.7972 63.5306 69.0877 63.5306 62.2498C63.5306 55.4119 62.5205 53.7024 58.441 53.7024C54.4393 53.7024 53.4292 55.4119 53.4292 62.2498C53.4292 69.0877 54.4393 70.7972 58.441 70.7972Z" fill="#FF0077"></path>
<path d="M36.9784 48.6519H42.7285V75.848H36.6288V52.8867L31.1895 58.831L27.9648 53.3529L36.9784 48.6519Z" fill="#FF0077"></path>
</svg>