<svg width="100" height="100" viewBox="0 0 100 100" fill="none" xmlns="http://www.w3.org/2000/svg">
<path fill-rule="evenodd" clip-rule="evenodd" d="M95 50C95 19.2708 80.742 5 50 5C19.258 5 5 19.2708 5 50C5 80.7292 19.258 95 50 95C80.742 95 95 80.7292 95 50Z" fill="white"></path>
<path fill-rule="evenodd" clip-rule="evenodd" d="M85 49.5439C85 25.6435 73.9104 14.5439 50 14.5439C26.0896 14.5439 15 25.6435 15 49.5439C15 73.4444 26.0896 84.5439 50 84.5439C73.9104 84.5439 85 73.4444 85 49.5439Z" fill="black"></path>
<path fill-rule="evenodd" clip-rule="evenodd" d="M75 49.5439C75 32.4722 67.0789 24.5439 50 24.5439C32.9211 24.5439 25 32.4722 25 49.5439C25 66.6157 32.9211 74.5439 50 74.5439C67.0789 74.5439 75 66.6157 75 49.5439Z" fill="white"></path>
<path fill-rule="evenodd" clip-rule="evenodd" d="M65 49.5439C65 39.3009 60.2473 34.5439 50 34.5439C39.7527 34.5439 35 39.3009 35 49.5439C35 59.787 39.7527 64.5439 50 64.5439C60.2473 64.5439 65 59.787 65 49.5439Z" fill="#FF0077"></path>
</svg>