<svg width="100" height="100" viewBox="0 0 100 100" fill="none" xmlns="http://www.w3.org/2000/svg">
<path fill-rule="evenodd" clip-rule="evenodd" d="M95 50C95 19.2708 80.742 5 50 5C19.258 5 5 19.2708 5 50C5 80.7292 19.258 95 50 95C80.742 95 95 80.7292 95 50Z" fill="black"></path>
<path fill-rule="evenodd" clip-rule="evenodd" d="M29.5251 29.5251C30.892 28.1583 33.108 28.1583 34.4749 29.5251L70.4749 65.5251C71.8417 66.892 71.8417 69.108 70.4749 70.4749C69.108 71.8417 66.892 71.8417 65.5251 70.4749L29.5251 34.4749C28.1583 33.108 28.1583 30.892 29.5251 29.5251Z" fill="white"></path>
<path fill-rule="evenodd" clip-rule="evenodd" d="M70.4749 29.5251C71.8417 30.892 71.8417 33.108 70.4749 34.4749L34.4749 70.4749C33.108 71.8417 30.892 71.8417 29.5251 70.4749C28.1583 69.108 28.1583 66.892 29.5251 65.5251L65.5251 29.5251C66.892 28.1583 69.108 28.1583 70.4749 29.5251Z" fill="white"></path>
</svg>