<svg width="100" height="100" viewBox="0 0 100 100" fill="none" xmlns="http://www.w3.org/2000/svg">
<path d="M50 95C19.258 95 4.99999 80.7291 5 50L95 50C95 80.7292 80.742 95 50 95Z" fill="#FF0077"></path>
<path fill-rule="evenodd" clip-rule="evenodd" d="M26.1892 13.2797C31.7428 7.57185 39.8803 5.15967 50.0001 5.15967C60.1199 5.15967 68.2574 7.57185 73.811 13.2797C79.3453 18.9676 81.6711 27.2714 81.6711 37.6062V61.5516H74.6711V37.6062C74.6711 28.1743 72.5339 22.0049 68.794 18.1612C65.0735 14.3374 59.1254 12.1597 50.0001 12.1597C40.8748 12.1597 34.9267 14.3374 31.2062 18.1612C27.4663 22.0049 25.3291 28.1743 25.3291 37.6062V61.5516H18.3291V37.6062C18.3291 27.2714 20.6549 18.9676 26.1892 13.2797Z" fill="black"></path>
</svg>