<svg width="100" height="100" viewBox="0 0 100 100" fill="none" xmlns="http://www.w3.org/2000/svg">
<path fill-rule="evenodd" clip-rule="evenodd" d="M49.9999 5.01196C74.1084 5.01196 85.2898 16.2035 85.2898 40.3019C85.2898 65.7091 57.259 89.6583 51.1615 94.5674C50.4672 95.1264 49.5311 95.1282 48.8348 94.5717C42.7301 89.6931 14.71 65.9057 14.71 40.3019C14.71 16.2035 25.8914 5.01196 49.9999 5.01196ZM49.8707 19.4076C63.1529 19.4076 69.3132 25.5734 69.3132 38.85C69.3132 52.1267 63.1529 58.2925 49.8707 58.2925C36.5885 58.2925 30.4283 52.1267 30.4283 38.85C30.4283 25.5734 36.5885 19.4076 49.8707 19.4076Z" fill="#FF0077"></path>
<path fill-rule="evenodd" clip-rule="evenodd" d="M69.3131 38.8502C69.3131 25.5735 63.1529 19.4077 49.8707 19.4077C36.5885 19.4077 30.4282 25.5735 30.4282 38.8502C30.4282 52.1268 36.5885 58.2926 49.8707 58.2926C63.1529 58.2926 69.3131 52.1268 69.3131 38.8502Z" fill="white"></path>
</svg>