<svg width="100" height="100" viewBox="0 0 100 100" fill="none" xmlns="http://www.w3.org/2000/svg">
<g clip-path="url(#clip0_6502_6424)">
<path d="M94.0744 45.5163C97.7907 47.3504 97.7907 52.6496 94.0744 54.4837L73.8606 64.4598C72.3849 65.1881 71.362 66.5959 71.1254 68.2245L67.8839 90.5318C67.288 94.6329 62.2482 96.2704 59.3555 93.3028L43.6212 77.1611C42.4725 75.9827 40.8175 75.4449 39.1955 75.7231L16.9784 79.5337C12.8939 80.2342 9.77906 75.9471 11.7075 72.2789L22.197 52.3267C22.9628 50.8701 22.9628 49.1299 22.197 47.6733L11.7075 27.721C9.77907 24.0529 12.8939 19.7657 16.9784 20.4663L39.1955 24.2768C40.8175 24.555 42.4725 24.0173 43.6212 22.8388L59.3555 6.69713C62.2482 3.72955 67.288 5.36709 67.884 9.4682L71.1254 31.7755C71.362 33.404 72.3849 34.8119 73.8606 35.5402L94.0744 45.5163Z" fill="#FF0077"></path>
</g>
<defs>
<clipPath id="clip0_6502_6424">
<rect width="100" height="100" fill="white"></rect>
</clipPath>
</defs>
</svg>