<svg width="100" height="100" viewBox="0 0 100 100" fill="none" xmlns="http://www.w3.org/2000/svg">
<path fill-rule="evenodd" clip-rule="evenodd" d="M12.2552 50.1704C12.2552 48.2374 13.8223 46.6704 15.7552 46.6704H19.1222C21.0552 46.6704 22.6222 48.2374 22.6222 50.1704C22.6222 52.1034 21.0552 53.6704 19.1222 53.6704H15.7552C13.8223 53.6704 12.2552 52.1034 12.2552 50.1704Z" fill="black"></path>
<path fill-rule="evenodd" clip-rule="evenodd" d="M77.3781 50.1704C77.3781 48.2374 78.9451 46.6704 80.8781 46.6704H84.245C86.178 46.6704 87.745 48.2374 87.745 50.1704C87.745 52.1034 86.178 53.6704 84.245 53.6704H80.8781C78.9451 53.6704 77.3781 52.1034 77.3781 50.1704Z" fill="black"></path>
<path fill-rule="evenodd" clip-rule="evenodd" d="M50.0001 5.01953C51.9331 5.01953 53.5001 6.58653 53.5001 8.51953L53.5001 11.887C53.5001 13.82 51.9331 15.387 50.0001 15.387C48.0671 15.387 46.5001 13.82 46.5001 11.887L46.5001 8.51953C46.5001 6.58653 48.0671 5.01953 50.0001 5.01953Z" fill="black"></path>
<path fill-rule="evenodd" clip-rule="evenodd" d="M73.1463 24.9743C72.0907 23.355 72.5476 21.1866 74.1668 20.1309L77.6213 17.8788C79.2406 16.8232 81.4091 17.2801 82.4647 18.8994C83.5204 20.5186 83.0635 22.6871 81.4442 23.7428L77.9897 25.9948C76.3705 27.0505 74.202 26.5936 73.1463 24.9743Z" fill="black"></path>
<path fill-rule="evenodd" clip-rule="evenodd" d="M26.8535 24.9743C27.9092 23.355 27.4523 21.1866 25.833 20.1309L22.3786 17.8788C20.7593 16.8232 18.5908 17.2801 17.5352 18.8994C16.4795 20.5186 16.9364 22.6871 18.5557 23.7428L22.0101 25.9948C23.6294 27.0505 25.7979 26.5936 26.8535 24.9743Z" fill="black"></path>
<path fill-rule="evenodd" clip-rule="evenodd" d="M66.9816 78.0184C66.9816 66.4221 61.6011 61.0367 50 61.0367C38.3989 61.0367 33.0183 66.4221 33.0183 78.0184C33.0183 89.6147 38.3989 95.0001 50 95.0001C61.6011 95.0001 66.9816 89.6147 66.9816 78.0184Z" fill="black"></path>
<path fill-rule="evenodd" clip-rule="evenodd" d="M50.0002 16.3741C67.1906 16.3741 75.1634 24.3541 75.1634 41.5373C75.1634 51.4591 72.5053 58.3124 66.9494 62.3329H33.0509C27.495 58.3124 24.8369 51.4591 24.8369 41.5373C24.8369 24.3541 32.8098 16.3741 50.0002 16.3741Z" fill="white"></path>
<path fill-rule="evenodd" clip-rule="evenodd" d="M57.648 44.4947L52.1699 65.4785L58.9429 67.2467L64.9115 44.384C65.8213 40.899 63.1916 37.4947 59.5899 37.4947H40.4187C36.81 37.4947 34.1791 40.9114 35.1013 44.4002L41.4249 68.3234L48.1925 66.5345L42.3667 44.4947H57.648Z" fill="black"></path>
<rect x="33.1165" y="62.3329" width="33.9634" height="16.3757" fill="black"></rect>
</svg>