<svg width="100" height="100" viewBox="0 0 100 100" fill="none" xmlns="http://www.w3.org/2000/svg">
<path fill-rule="evenodd" clip-rule="evenodd" d="M53.5 74.2187L53.5 94.2187L46.5 94.2188L46.5 74.2188L53.5 74.2187Z" fill="black"></path>
<rect x="5" y="5" width="90" height="20" rx="4" fill="white"></rect>
<path fill-rule="evenodd" clip-rule="evenodd" d="M22.2554 15C22.2554 11.5856 20.6711 10 17.2554 10C13.8396 10 12.2554 11.5856 12.2554 15C12.2554 18.4143 13.8396 20 17.2554 20C20.6711 20 22.2554 18.4143 22.2554 15Z" fill="black"></path>
<rect x="5" y="30" width="90" height="20" rx="4" fill="white"></rect>
<path fill-rule="evenodd" clip-rule="evenodd" d="M22.2554 40C22.2554 36.5856 20.6711 35 17.2554 35C13.8396 35 12.2554 36.5856 12.2554 40C12.2554 43.4143 13.8396 45 17.2554 45C20.6711 45 22.2554 43.4143 22.2554 40Z" fill="black"></path>
<rect x="5" y="54.1875" width="90" height="20" rx="4" fill="white"></rect>
<path fill-rule="evenodd" clip-rule="evenodd" d="M22.2554 64.1875C22.2554 60.7731 20.6711 59.1875 17.2554 59.1875C13.8396 59.1875 12.2554 60.7731 12.2554 64.1875C12.2554 67.6018 13.8396 69.1875 17.2554 69.1875C20.6711 69.1875 22.2554 67.6018 22.2554 64.1875Z" fill="black"></path>
<path fill-rule="evenodd" clip-rule="evenodd" d="M5.03955 91.4688C5.03955 89.5358 6.60655 87.9688 8.53955 87.9688H91.5396C93.4725 87.9688 95.0396 89.5358 95.0396 91.4688C95.0396 93.4017 93.4725 94.9688 91.5396 94.9688H8.53955C6.60655 94.9688 5.03955 93.4017 5.03955 91.4688Z" fill="black"></path>
<path d="M50 85C56.8287 85 60 88.1684 60 95L40 95C40 88.1684 43.1713 85 50 85Z" fill="white"></path>
</svg>