<svg width="100" height="100" viewBox="0 0 100 100" fill="none" xmlns="http://www.w3.org/2000/svg">
<path d="M31.9142 31.9142L8.41421 8.41421C7.15428 7.15428 8.04662 5 9.82843 5H31.7966C32.327 5 32.8357 5.21071 33.2108 5.58579L56.7108 29.0858C57.9707 30.3457 57.0784 32.5 55.2966 32.5H33.3284C32.798 32.5 32.2893 32.2893 31.9142 31.9142Z" fill="black"></path>
<path d="M70.3421 29.6579L91.5858 8.41421C92.8457 7.15428 91.9534 5 90.1716 5H68.2034C67.673 5 67.1643 5.21071 66.7892 5.58579L56.4551 15.9199C55.6703 16.7047 55.6746 17.9784 56.4647 18.7579L67.5234 29.6674C68.3059 30.4394 69.5648 30.4352 70.3421 29.6579Z" fill="black"></path>
<path fill-rule="evenodd" clip-rule="evenodd" d="M77.7573 67.25C77.7573 48.3004 68.9649 39.5 50.0073 39.5C31.0498 39.5 22.2573 48.3004 22.2573 67.25C22.2573 86.1996 31.0498 95 50.0073 95C68.9649 95 77.7573 86.1996 77.7573 67.25Z" fill="#FF0077"></path>
<path fill-rule="evenodd" clip-rule="evenodd" d="M33.4692 50.7143C37.4502 46.7324 43.1809 45.1526 50.0073 45.1526C56.8338 45.1526 62.5645 46.7324 66.5455 50.7143C70.5264 54.6961 72.1047 60.4265 72.1047 67.25C72.1047 74.0734 70.5264 79.8039 66.5455 83.7856C62.5645 87.7675 56.8338 89.3474 50.0073 89.3474C43.1809 89.3474 37.4502 87.7675 33.4692 83.7856C29.4883 79.8039 27.9099 74.0734 27.9099 67.25C27.9099 60.4265 29.4883 54.6961 33.4692 50.7143ZM38.4194 55.6635C36.2779 57.8056 34.9099 61.3738 34.9099 67.25C34.9099 73.1261 36.2779 76.6944 38.4194 78.8364C40.5609 80.9783 44.1289 82.3474 50.0073 82.3474C55.8858 82.3474 59.4538 80.9783 61.5952 78.8364C63.7368 76.6944 65.1047 73.1261 65.1047 67.25C65.1047 61.3738 63.7368 57.8056 61.5952 55.6635C59.4538 53.5216 55.8858 52.1526 50.0073 52.1526C44.1289 52.1526 40.5609 53.5216 38.4194 55.6635Z" fill="white"></path>
</svg>