<svg width="100" height="100" viewBox="0 0 100 100" fill="none" xmlns="http://www.w3.org/2000/svg">
<path d="M5 9C5 6.79086 6.79086 5 9 5H77.8431C78.904 5 79.9214 5.42143 80.6716 6.17157L93.8284 19.3284C94.5786 20.0786 95 21.096 95 22.1569V91C95 93.2091 93.2091 95 91 95H9C6.79086 95 5 93.2091 5 91V9Z" fill="#FF0077"></path>
<path d="M18 54C18 51.7909 19.7909 50 22 50H78C80.2091 50 82 51.7909 82 54V83C82 85.2091 80.2091 87 78 87H22C19.7909 87 18 85.2091 18 83V54Z" fill="black"></path>
<path d="M25 5H74V26C74 28.2091 72.2091 30 70 30H29C26.7909 30 25 28.2091 25 26V5Z" fill="white"></path>
</svg>