<svg width="100" height="100" viewBox="0 0 100 100" fill="none" xmlns="http://www.w3.org/2000/svg">
<path fill-rule="evenodd" clip-rule="evenodd" d="M49.9999 50C49.9999 34.6354 42.8709 27.5 27.5 27.5C12.129 27.5 5 34.6354 5 50C5 65.3646 12.129 72.5 27.5 72.5C42.8709 72.5 49.9999 65.3646 49.9999 50Z" fill="white"></path>
<path d="M16.0132 78.0062C16.0132 66.4019 21.3975 61.0127 33.0067 61.0127H50.0002V78.0062C50.0002 89.6106 44.6159 94.9998 33.0067 94.9998C21.3975 94.9998 16.0132 89.6106 16.0132 78.0062Z" fill="white"></path>
<path d="M16.0132 22.0563C16.0132 33.6606 21.3975 39.0498 33.0067 39.0498H50.0002V22.0563C50.0002 10.4519 44.6159 5.06273 33.0067 5.06273C21.3975 5.06273 16.0132 10.4519 16.0132 22.0563Z" fill="white"></path>
<rect x="27.25" y="38.0625" width="22.75" height="33.4375" fill="white"></rect>
<path fill-rule="evenodd" clip-rule="evenodd" d="M95 50C95 44.9638 92.6632 42.625 87.625 42.625C82.5867 42.625 80.25 44.9638 80.25 50C80.25 55.0362 82.5867 57.375 87.625 57.375C92.6632 57.375 95 55.0362 95 50Z" fill="black"></path>
<path fill-rule="evenodd" clip-rule="evenodd" d="M77.625 87.562C77.625 82.5258 75.2882 80.187 70.25 80.187C65.2117 80.187 62.875 82.5258 62.875 87.562C62.875 92.5982 65.2117 94.937 70.25 94.937C75.2882 94.937 77.625 92.5982 77.625 87.562Z" fill="black"></path>
<path fill-rule="evenodd" clip-rule="evenodd" d="M77.625 12.375C77.625 7.33883 75.2882 5 70.25 5C65.2117 5 62.875 7.33883 62.875 12.375C62.875 17.4112 65.2117 19.75 70.25 19.75C75.2882 19.75 77.625 17.4112 77.625 12.375Z" fill="black"></path>
<path fill-rule="evenodd" clip-rule="evenodd" d="M88.125 53.5H49.75V46.5H88.125V53.5Z" fill="black"></path>
<path fill-rule="evenodd" clip-rule="evenodd" d="M66.75 24.9312V12.1812H73.75V24.9312C73.75 30.7301 69.049 35.4312 63.25 35.4312H50V28.4312H63.25C65.183 28.4312 66.75 26.8641 66.75 24.9312Z" fill="black"></path>
<path fill-rule="evenodd" clip-rule="evenodd" d="M66.75 75.0688V87.8188H73.75V75.0688C73.75 69.2699 69.049 64.5688 63.25 64.5688H50V71.5688H63.25C65.183 71.5688 66.75 73.1359 66.75 75.0688Z" fill="black"></path>
</svg>