<svg width="100" height="100" viewBox="0 0 100 100" fill="none" xmlns="http://www.w3.org/2000/svg">
<g clip-path="url(#clip0_6502_3314)">
<rect x="62.1201" y="53.8322" width="16.9185" height="62.3438" transform="rotate(135 62.1201 53.8322)" fill="black"></rect>
<path fill-rule="evenodd" clip-rule="evenodd" d="M42.365 83.4446C56.263 97.3426 69.1659 97.3484 83.0697 83.4446C96.9736 69.5407 96.9678 56.6378 83.0697 42.7398C72.0219 31.692 61.6029 29.4226 50.8101 35.9404L20.4924 5.6458C20.1174 5.27106 19.6089 5.06056 19.0787 5.06056L16.5004 5.06056L11.7021 5.06056C11.1913 5.06055 10.6998 5.25604 10.3285 5.6069L9.85021 6.05888C9.40587 6.47876 9.17797 7.07881 9.23155 7.6878L9.84187 14.6252L7.24278 17.2243C5.68068 18.7864 5.68068 21.319 7.24278 22.8811L10.2877 25.9261L21.9338 25.9261L27.9131 31.9054L27.9131 43.5515L29.4181 45.0565L32.0024 47.6407L35.5584 51.1968C29.0494 61.9854 31.3212 72.4008 42.365 83.4446ZM66.2931 80.2362C70.9258 84.8688 75.2267 84.8708 79.8613 80.2362C84.4958 75.6016 84.4939 71.3007 79.8613 66.6681C75.2286 62.0354 70.9277 62.0335 66.2931 66.6681C61.6586 71.3026 61.6605 75.6036 66.2931 80.2362Z" fill="white"></path>
</g>
<defs>
<clipPath id="clip0_6502_3314">
<rect width="100" height="100" fill="white"></rect>
</clipPath>
</defs>
</svg>