<svg width="100" height="100" viewBox="0 0 100 100" fill="none" xmlns="http://www.w3.org/2000/svg">
<path fill-rule="evenodd" clip-rule="evenodd" d="M94.9999 50C94.9999 19.2709 80.7419 5 49.9999 5C19.2579 5 4.99988 19.2709 4.99988 50C4.99988 80.7292 19.2579 95.0001 49.9999 95.0001C80.7419 95.0001 94.9999 80.7292 94.9999 50Z" fill="black"></path>
<path fill-rule="evenodd" clip-rule="evenodd" d="M46.5003 24.249C46.5003 22.316 48.0673 20.749 50.0003 20.749C59.5085 20.749 67.0578 22.8832 72.1675 28.0755C77.2661 33.2566 79.2518 40.7908 79.2518 50.0005C79.2518 59.4869 77.1187 67.0337 71.9301 72.1481C66.7515 77.2525 59.2184 79.252 50.0003 79.252C40.5131 79.252 32.9664 77.1168 27.8524 71.9273C22.7484 66.7481 20.7488 59.2153 20.7488 50.0005V41.5627H27.7488V50.0005C27.7488 58.3707 29.586 63.7137 32.8383 67.0139C36.0805 70.304 41.4097 72.252 50.0003 72.252C58.3745 72.252 63.7171 70.4146 67.0162 67.1628C70.3053 63.9208 72.2518 58.5918 72.2518 50.0005C72.2518 41.6254 70.4241 36.2838 67.1782 32.9854C63.9433 29.6982 58.6169 27.749 50.0003 27.749C48.0673 27.749 46.5003 26.182 46.5003 24.249Z" fill="white"></path>
<path fill-rule="evenodd" clip-rule="evenodd" d="M20.3597 36.7958C22.5076 34.6479 25.99 34.6479 28.1379 36.7958L35.3673 44.0252C36.7341 45.3921 36.7341 47.6081 35.3673 48.975C34.0004 50.3418 31.7844 50.3418 30.4175 48.975L24.2488 42.8062L18.08 48.975C16.7132 50.3418 14.4971 50.3418 13.1303 48.975C11.7634 47.6081 11.7634 45.3921 13.1303 44.0252L20.3597 36.7958Z" fill="white"></path>
</svg>