<svg width="100" height="100" viewBox="0 0 100 100" fill="none" xmlns="http://www.w3.org/2000/svg">
<circle cx="50.0001" cy="50.0001" r="44.878" fill="black"></circle>
<circle cx="50.0001" cy="50.0002" r="25.8049" fill="white"></circle>
<path d="M53 91H4" stroke="black" stroke-width="7" stroke-linecap="round"></path>
<path d="M53 80L10 80" stroke="black" stroke-width="7" stroke-linecap="round"></path>
<circle cx="50" cy="50" r="21" fill="black"></circle>
<path d="M48.025 16.3793C48.3834 14.1328 51.6166 14.1328 51.975 16.3793L55.3618 37.6074C55.5619 38.8616 56.8652 39.6141 58.0514 39.1602L78.1288 31.4792C80.2536 30.6664 81.8702 33.4664 80.1039 34.9001L63.4132 48.4471C62.4271 49.2475 62.4271 50.7525 63.4132 51.5529L80.1039 65.0999C81.8702 66.5336 80.2536 69.3336 78.1288 68.5208L58.0514 60.8398C56.8652 60.3859 55.5619 61.1384 55.3618 62.3926L51.975 83.6207C51.6166 85.8672 48.3834 85.8672 48.025 83.6207L44.6382 62.3926C44.4381 61.1384 43.1348 60.3859 41.9486 60.8398L21.8712 68.5208C19.7464 69.3336 18.1298 66.5336 19.8961 65.0999L36.5868 51.5529C37.5729 50.7525 37.5729 49.2475 36.5868 48.4471L19.8961 34.9001C18.1298 33.4664 19.7464 30.6664 21.8712 31.4792L41.9486 39.1602C43.1348 39.6141 44.4381 38.8616 44.6382 37.6074L48.025 16.3793Z" fill="#FF0077"></path>
<circle cx="50" cy="50" r="8" fill="black"></circle>
<circle cx="50" cy="50" r="31" stroke="black" stroke-width="10"></circle>
</svg>