<svg width="100" height="100" viewBox="0 0 100 100" fill="none" xmlns="http://www.w3.org/2000/svg">
<path fill-rule="evenodd" clip-rule="evenodd" d="M94.9999 50C94.9999 19.2708 80.7419 5 49.9999 5C19.258 5 4.99994 19.2708 4.99994 50C4.99994 80.7292 19.258 95 49.9999 95C80.7419 95 94.9999 80.7292 94.9999 50Z" fill="#FF0077"></path>
<path d="M4.99994 94.9157V49.8516L49.1562 94.9157H4.99994Z" fill="#FF0077"></path>
<path fill-rule="evenodd" clip-rule="evenodd" d="M50.9148 44.9987C50.9148 36.1776 46.8219 32.0811 37.9971 32.0811C29.1724 32.0811 25.0795 36.1776 25.0795 44.9987H25.0887C25.0898 58.8953 33.5727 70.0699 50.9136 79.3763V46.2121V44.9987H50.9148Z" fill="white"></path>
<path fill-rule="evenodd" clip-rule="evenodd" d="M50.9152 44.9987C50.9152 36.1776 55.0081 32.0811 63.8328 32.0811C72.6575 32.0811 76.7504 36.1776 76.7504 44.9987H76.7413C76.7401 58.8953 68.2573 70.0699 50.9163 79.3763V46.2121V44.9987H50.9152Z" fill="white"></path>
</svg>