<svg width="100" height="100" viewBox="0 0 100 100" fill="none" xmlns="http://www.w3.org/2000/svg">
<rect x="5" y="5" width="90" height="90" rx="4" fill="white"></rect>
<path d="M5 9C5 6.79086 6.79086 5 9 5H91C93.2091 5 95 6.79086 95 9V19.5312H5V9Z" fill="#FF0077"></path>
<path fill-rule="evenodd" clip-rule="evenodd" d="M20.4626 31.7751C21.8295 30.4083 24.0455 30.4083 25.4124 31.7751L39.7482 46.1109C41.896 48.2588 41.896 51.7412 39.7482 53.8891L25.4124 68.2249C24.0455 69.5917 21.8295 69.5917 20.4626 68.2249C19.0958 66.858 19.0958 64.642 20.4626 63.2751L33.7378 50L20.4626 36.7249C19.0958 35.358 19.0958 33.142 20.4626 31.7751Z" fill="black"></path>
<path fill-rule="evenodd" clip-rule="evenodd" d="M40.4375 65.75C40.4375 63.817 42.0045 62.25 43.9375 62.25H70.0625C71.9955 62.25 73.5625 63.817 73.5625 65.75C73.5625 67.683 71.9955 69.25 70.0625 69.25H43.9375C42.0045 69.25 40.4375 67.683 40.4375 65.75Z" fill="black"></path>
</svg>