<svg width="100" height="100" viewBox="0 0 100 100" fill="none" xmlns="http://www.w3.org/2000/svg">
<rect x="5" y="5" width="90" height="90" rx="4" fill="white"></rect>
<path fill-rule="evenodd" clip-rule="evenodd" d="M68.8524 12.2549C81.7588 12.2549 87.7448 18.2462 87.7448 31.1473C87.7448 44.097 74.1426 56.3393 70.0216 59.7511C69.335 60.3196 68.368 60.3213 67.6795 59.7552C63.5541 56.3633 49.96 44.1959 49.96 31.1473C49.96 18.2462 55.9459 12.2549 68.8524 12.2549ZM68.783 19.9619C75.8936 19.9619 79.1915 23.2628 79.1915 30.3704C79.1915 37.478 75.8936 40.7789 68.783 40.7789C61.6724 40.7789 58.3745 37.478 58.3745 30.3704C58.3745 23.2628 61.6724 19.9619 68.783 19.9619Z" fill="black"></path>
<path fill-rule="evenodd" clip-rule="evenodd" d="M79.1915 30.3704C79.1915 23.2628 75.8936 19.9619 68.783 19.9619C61.6724 19.9619 58.3745 23.2628 58.3745 30.3704C58.3745 37.478 61.6724 40.7789 68.783 40.7789C75.8936 40.7789 79.1915 37.478 79.1915 30.3704Z" fill="white"></path>
<path fill-rule="evenodd" clip-rule="evenodd" d="M12.375 49.375L12.375 5.125H19.375L19.375 49.375C19.375 49.6511 19.5989 49.875 19.875 49.875H42.5C46.6421 49.875 50 53.2329 50 57.375V95.125H43L43 57.375C43 57.0989 42.7761 56.875 42.5 56.875H19.875C15.7329 56.875 12.375 53.5171 12.375 49.375Z" fill="#FF0077"></path>
<path fill-rule="evenodd" clip-rule="evenodd" d="M43 74.25H95.0312V81.25H50V94.125H43V74.25Z" fill="#FF0077"></path>
</svg>