<svg width="100" height="100" viewBox="0 0 100 100" fill="none" xmlns="http://www.w3.org/2000/svg">
<g clip-path="url(#clip0_6502_2261)">
<path d="M16.1892 16.5478C27.7458 4.99122 38.4705 4.99604 50.0223 16.5478L16.1892 50.3809C4.63744 38.8291 4.63262 28.1044 16.1892 16.5478Z" fill="white"></path>
<path d="M83.811 84.1699C72.2544 95.7266 61.5297 95.7217 49.978 84.1699L83.811 50.3369C95.3628 61.8887 95.3676 72.6133 83.811 84.1699Z" fill="white"></path>
<rect x="16.1887" y="50.3808" width="47.8472" height="47.8289" transform="rotate(-45 16.1887 50.3808)" fill="white"></rect>
<path fill-rule="evenodd" clip-rule="evenodd" d="M54.457 59.0622C51.3089 55.9142 48.3863 55.9129 45.237 59.0622C42.0876 62.2116 42.0889 65.1342 45.237 68.2823C48.385 71.4303 51.3076 71.4316 54.457 68.2823C57.6063 65.1329 57.605 62.2103 54.457 59.0622Z" fill="black"></path>
<path fill-rule="evenodd" clip-rule="evenodd" d="M66.0895 70.6948C62.9415 67.5468 60.0189 67.5455 56.8695 70.6948C53.7202 73.8442 53.7215 76.7668 56.8695 79.9148C60.0176 83.0629 62.9402 83.0642 66.0895 79.9148C69.2389 76.7655 69.2376 73.8428 66.0895 70.6948Z" fill="black"></path>
<path fill-rule="evenodd" clip-rule="evenodd" d="M67.9235 45.5958C64.7755 42.4478 61.8529 42.4465 58.7035 45.5958C55.5542 48.7452 55.5555 51.6678 58.7035 54.8158C61.8516 57.9639 64.7742 57.9652 67.9235 54.8158C71.0729 51.6665 71.0716 48.7438 67.9235 45.5958Z" fill="black"></path>
<path fill-rule="evenodd" clip-rule="evenodd" d="M79.5561 57.2282C76.4081 54.0802 73.4854 54.0788 70.3361 57.2282C67.1867 60.3775 67.188 63.3002 70.3361 66.4482C73.4841 69.5962 76.4067 69.5976 79.5561 66.4482C82.7055 63.2989 82.7041 60.3762 79.5561 57.2282Z" fill="black"></path>
<path fill-rule="evenodd" clip-rule="evenodd" d="M44.6156 21.9543C36.8696 14.2084 29.6783 14.2052 21.9292 21.9543C14.18 29.7035 14.1832 36.8948 21.9292 44.6408C29.6751 52.3867 36.8664 52.3899 44.6156 44.6408C52.3648 36.8916 52.3615 29.7003 44.6156 21.9543Z" fill="#FF0077"></path>
<path d="M37.2151 28.2891C38.2819 28.0033 39.2581 28.9794 38.9722 30.0462L36.4564 39.4353C36.1706 40.502 34.8371 40.8593 34.0562 40.0784L27.1829 33.2052C26.402 32.4242 26.7593 31.0907 27.8261 30.8049L37.2151 28.2891Z" fill="white"></path>
</g>
<defs>
<clipPath id="clip0_6502_2261">
<rect width="100" height="100" fill="white"></rect>
</clipPath>
</defs>
</svg>