<svg width="100" height="100" viewBox="0 0 100 100" fill="none" xmlns="http://www.w3.org/2000/svg">
<path fill-rule="evenodd" clip-rule="evenodd" d="M95 23.625C95 10.9065 89.0988 5 76.375 5C63.6512 5 57.75 10.9065 57.75 23.625C57.75 36.3435 63.6512 42.25 76.375 42.25C89.0988 42.25 95 36.3435 95 23.625Z" fill="black"></path>
<path d="M69.6251 26.75H16.0001C13.1726 26.75 10.9301 29.1387 11.1251 31.9662L14.9764 85.9325C15.3176 91.0512 19.6076 95 24.6776 95H60.8501C65.9688 95 70.2101 91.0512 70.5514 85.9325L74.4026 31.9662C74.5976 29.1387 72.3551 26.75 69.5276 26.75H69.6251Z" fill="#FF0077"></path>
<path fill-rule="evenodd" clip-rule="evenodd" d="M12.9385 57.375L14.9765 85.9325C15.3177 91.0512 19.6077 95 24.6777 95H60.8502C65.9689 95 70.2102 91.0512 70.5515 85.9325L72.5894 57.375H12.9385Z" fill="black"></path>
<path fill-rule="evenodd" clip-rule="evenodd" d="M5.125 8.625C5.125 6.692 6.692 5.125 8.625 5.125H21.5438C25.6869 5.125 29.2364 8.12346 29.8332 12.2627C29.8338 12.2664 29.8343 12.2701 29.8348 12.2738L36.462 56.8604C36.7462 58.7724 35.4266 60.5528 33.5146 60.837C31.6026 61.1212 29.8222 59.8016 29.538 57.8896L22.908 13.2833L22.9052 13.2637C22.8148 12.6312 22.2719 12.125 21.5438 12.125H8.625C6.692 12.125 5.125 10.558 5.125 8.625Z" fill="black"></path>
</svg>