<svg width="100" height="100" viewBox="0 0 100 100" fill="none" xmlns="http://www.w3.org/2000/svg">
<path fill-rule="evenodd" clip-rule="evenodd" d="M50.2013 5C72.4038 5 82.7013 15.3067 82.7013 37.5L82.7012 37.5V49.9999H82.7013C82.7013 72.1932 72.4038 82.4999 50.2013 82.4999C27.9989 82.4999 17.7014 72.1932 17.7014 50V37.5C17.7014 15.3067 27.9989 5 50.2013 5Z" fill="white"></path>
<mask id="mask0_6502_7171" style="mask-type:alpha" maskUnits="userSpaceOnUse" x="17" y="5" width="66" height="78">
<path fill-rule="evenodd" clip-rule="evenodd" d="M50.2013 5C72.4038 5 82.7013 15.3067 82.7013 37.5L82.7012 37.5V49.9999H82.7013C82.7013 72.1932 72.4038 82.4999 50.2013 82.4999C27.9989 82.4999 17.7014 72.1932 17.7014 50V37.5C17.7014 15.3067 27.9989 5 50.2013 5Z" fill="#FFDCE6"></path>
</mask>
<g mask="url(#mask0_6502_7171)">
<path fill-rule="evenodd" clip-rule="evenodd" d="M41.8573 36.6328C41.8573 38.5658 40.2903 40.1328 38.3573 40.1328L15.1075 40.1328L15.1075 33.1328L38.3573 33.1328C40.2903 33.1328 41.8573 34.6998 41.8573 36.6328Z" fill="black"></path>
<path fill-rule="evenodd" clip-rule="evenodd" d="M41.8575 53.5C41.8575 55.433 40.2905 57 38.3575 57L15.1078 57L15.1078 50L38.3575 50C40.2905 50 41.8575 51.567 41.8575 53.5Z" fill="black"></path>
<path fill-rule="evenodd" clip-rule="evenodd" d="M58.5454 53.5C58.5454 51.567 60.1124 50 62.0454 50L85.2952 50L85.2952 57L62.0454 57C60.1124 57 58.5454 55.433 58.5454 53.5Z" fill="black"></path>
<path fill-rule="evenodd" clip-rule="evenodd" d="M58.5452 36.6328C58.5452 34.6998 60.1122 33.1328 62.0452 33.1328L85.295 33.1328L85.295 40.1328L62.0452 40.1328C60.1122 40.1328 58.5452 38.5658 58.5452 36.6328Z" fill="black"></path>
</g>
<path fill-rule="evenodd" clip-rule="evenodd" d="M83.3712 84.5128C75.7484 91.7153 64.5717 95 49.9375 95C35.2829 95 24.1109 91.6277 16.4959 84.3882C8.87006 77.1385 5.42739 66.5978 4.93993 53.6315C4.86731 51.6999 6.37434 50.0751 8.30597 50.0025C10.2376 49.9299 11.8624 51.4369 11.935 53.3685C12.385 65.3397 15.5169 73.799 21.3189 79.3149C27.1318 84.8411 36.2411 88 49.9375 88C63.6541 88 72.7587 84.9097 78.5638 79.4247C84.3529 73.9548 87.4892 65.5071 87.9399 53.3701C88.0116 51.4385 89.6357 49.9307 91.5673 50.0024C93.499 50.0741 95.0068 51.6982 94.935 53.6299C94.4482 66.7429 91.0099 77.2952 83.3712 84.5128Z" fill="#FF0077"></path>
</svg>