<svg width="100" height="100" viewBox="0 0 100 100" fill="none" xmlns="http://www.w3.org/2000/svg">
<path d="M50 5C80.742 5 95 19.2708 95 50C95 80.7292 80.742 95 50 95C19.258 95 5 80.7292 5 50C5 19.2708 19.258 5 50 5ZM50 12.5C24.3817 12.5 12.5 24.3924 12.5 50C12.5 75.6076 24.3817 87.5 50 87.5C75.6183 87.5 87.5 75.6076 87.5 50C87.5 24.3924 75.6183 12.5 50 12.5ZM50 19.5C61.8611 19.5 69.0731 22.2626 73.4062 26.5967C77.7397 30.931 80.5 38.1435 80.5 50C80.5 61.8565 77.7396 69.069 73.4062 73.4033C69.0731 77.7374 61.8611 80.5 50 80.5C38.1389 80.5 30.9269 77.7374 26.5938 73.4033C22.2603 69.069 19.5 61.8565 19.5 50C19.5 38.1435 22.2603 30.931 26.5938 26.5967C30.9269 22.2626 38.1389 19.5 50 19.5Z" fill="#FF0077"></path>
<path d="M53.5251 61.8264C56.2966 61.8264 57.7066 60.9514 59.4571 58.0833L65 62.2153C62.5203 65.7153 59.4084 68 54.0113 68C46.6207 68 41.4668 63.4306 39.7164 56.2361H35V51.9097H39.0843C39.0357 51.4236 39.0357 50.9375 39.0357 50.4514C39.0357 49.8681 39.0357 49.3333 39.0843 48.7986H35V44.4722H39.765C41.564 37.4236 46.718 33 54.0113 33C58.7277 33 62.4716 35.1875 65 38.7361L59.4571 42.8681C57.7553 40.0972 56.3452 39.2222 53.5251 39.2222C50.2188 39.2222 48.3712 40.9236 47.5446 44.4722H55.8104V48.7986H47.0583C47.0097 49.3333 47.0097 49.8681 47.0097 50.4028V51.9097H55.8104V56.2361H47.4959C48.2739 60.0278 50.1216 61.8264 53.5251 61.8264Z" fill="black"></path>
</svg>