<svg width="100" height="100" viewBox="0 0 100 100" fill="none" xmlns="http://www.w3.org/2000/svg">
<path d="M49.4154 5.11328C55.0283 5.11328 60.4187 5.53807 65.0531 6.68555C69.6129 7.81458 74.0406 9.79073 76.9994 13.3643C80.158 17.1791 81.0027 22.0172 79.8363 27.334C78.7902 32.1022 76.1115 37.4313 71.8959 43.4033C71.7168 53.9144 69.7909 62.2939 66.2016 68.2822C62.2942 74.8012 56.3937 78.4346 49.4154 78.4346C42.4372 78.4345 36.5367 74.8011 32.6293 68.2822C29.0406 62.2948 27.1136 53.9169 26.934 43.4082C19.1712 32.4091 16.6049 22.2347 22.2816 14.5254C25.0237 10.8018 29.2096 8.49412 33.7543 7.10742C38.3332 5.71032 43.6998 5.1133 49.4154 5.11328ZM49.4154 15.1133C44.3169 15.1133 40.0062 15.656 36.6732 16.6729C33.3061 17.7002 31.3448 19.0815 30.3334 20.4551C28.7326 22.6293 27.7848 27.7696 35.9398 38.8018L36.9184 40.127V41.7744C36.9184 52.1171 38.7306 59.0109 41.2065 63.1416C43.5478 67.0477 46.3958 68.4345 49.4154 68.4346C52.4351 68.4346 55.283 67.0477 57.6244 63.1416C60.1003 59.0109 61.9124 52.1172 61.9125 41.7744V40.1396L62.8773 38.8203C67.2762 32.8106 69.374 28.3579 70.0688 25.1914C70.7197 22.2242 70.1004 20.7113 69.2973 19.7412C68.2943 18.53 66.2621 17.287 62.6498 16.3926C59.112 15.5166 54.6168 15.1133 49.4154 15.1133Z" fill="black"></path>
<path d="M49.4996 29.0952C75.0021 29.0952 86.8306 39.5292 86.8306 61.9966C86.8306 84.464 75.0021 94.8979 49.4996 94.8979C23.9974 94.8978 12.1695 84.4639 12.1695 61.9966C12.1695 39.5294 23.9974 29.0953 49.4996 29.0952Z" fill="#FF0077"></path>
<path d="M58.4412 48.2632C65.2014 48.2632 69.7471 53.3139 69.7471 62.2498C69.7471 71.1857 65.2014 76.2364 58.4412 76.2364C51.7199 76.2364 47.2131 71.1857 47.2131 62.2498C47.2131 53.3139 51.7199 48.2632 58.4412 48.2632ZM58.4412 70.7972C62.5206 70.7972 63.5308 69.0877 63.5308 62.2498C63.5308 55.4119 62.5206 53.7024 58.4412 53.7024C54.4395 53.7024 53.4293 55.4119 53.4293 62.2498C53.4293 69.0877 54.4395 70.7972 58.4412 70.7972Z" fill="white"></path>
<path d="M36.9786 48.6519H42.7287V75.848H36.629V52.8867L31.1897 58.831L27.965 53.3529L36.9786 48.6519Z" fill="white"></path>
</svg>