<svg width="100" height="100" viewBox="0 0 100 100" fill="none" xmlns="http://www.w3.org/2000/svg">
<path d="M81.6783 68.3567C72.5775 68.3567 68.3566 72.5814 68.3566 81.6784C68.3566 90.7754 72.5775 95.0001 81.6783 95.0001H91C93.2091 95.0001 95 93.2093 95 91.0001V81.6784C95 72.5814 90.7791 68.3567 81.6783 68.3567Z" fill="white"></path>
<path fill-rule="evenodd" clip-rule="evenodd" d="M75.1066 53.7773C75.1066 46.985 78.2581 43.8306 85.0533 43.8306C91.8484 43.8306 95 46.985 95 53.7773C95 60.5696 91.8484 63.724 85.0533 63.724C78.2581 63.724 75.1066 60.5696 75.1066 53.7773Z" fill="white"></path>
<path d="M18.3217 68.3567C27.4225 68.3567 31.6434 72.5814 31.6434 81.6784C31.6434 90.7754 27.4225 95.0001 18.3217 95.0001H9C6.79086 95.0001 5 93.2093 5 91.0001V81.6784C5 72.5814 9.22092 68.3567 18.3217 68.3567Z" fill="white"></path>
<path fill-rule="evenodd" clip-rule="evenodd" d="M72.4692 28.2729C72.4692 12.3805 65.0953 5 49.1963 5C33.2973 5 25.9233 12.3805 25.9233 28.2729C25.9233 44.1653 33.2973 51.5459 49.1963 51.5459C65.0953 51.5459 72.4692 44.1653 72.4692 28.2729Z" fill="#FF0077"></path>
<path d="M50.0865 55.5771C76.902 55.5771 89.3389 68.0793 89.3389 95H10.834C10.834 68.0793 23.2709 55.5771 50.0865 55.5771Z" fill="#FF0077"></path>
<path fill-rule="evenodd" clip-rule="evenodd" d="M24.8934 53.7773C24.8934 46.985 21.7419 43.8306 14.9467 43.8306C8.15157 43.8306 5 46.985 5 53.7773C5 60.5696 8.15157 63.724 14.9467 63.724C21.7419 63.724 24.8934 60.5696 24.8934 53.7773Z" fill="white"></path>
</svg>