<svg width="100" height="100" viewBox="0 0 100 100" fill="none" xmlns="http://www.w3.org/2000/svg">
<path fill-rule="evenodd" clip-rule="evenodd" d="M49.9999 72.5C49.9999 57.1354 42.8709 50 27.5 50C12.129 50 5 57.1354 5 72.5C5 87.8646 12.129 95 27.5 95C42.8709 95 49.9999 87.8646 49.9999 72.5Z" fill="white"></path>
<path fill-rule="evenodd" clip-rule="evenodd" d="M79 6.75C80.933 6.75 82.5 8.317 82.5 10.25V26.625C82.5 34.0808 76.4558 40.125 69 40.125H37.125C33.5351 40.125 30.625 43.0351 30.625 46.625V72.375C30.625 74.308 29.058 75.875 27.125 75.875C25.192 75.875 23.625 74.308 23.625 72.375V46.625C23.625 39.1692 29.6692 33.125 37.125 33.125H69C72.5899 33.125 75.5 30.2149 75.5 26.625V10.25C75.5 8.317 77.067 6.75 79 6.75Z" fill="#FF0077"></path>
<path fill-rule="evenodd" clip-rule="evenodd" d="M75.1109 6.59553C77.2588 4.44765 80.7412 4.44765 82.8891 6.59553L93.6624 17.3688C95.0292 18.7357 95.0292 20.9517 93.6624 22.3186C92.2955 23.6854 90.0795 23.6854 88.7126 22.3186L79 12.6059L69.2874 22.3186C67.9205 23.6854 65.7045 23.6854 64.3376 22.3186C62.9708 20.9517 62.9708 18.7357 64.3376 17.3688L75.1109 6.59553Z" fill="#FF0077"></path>
</svg>