<svg width="100" height="100" viewBox="0 0 100 100" fill="none" xmlns="http://www.w3.org/2000/svg">
<path fill-rule="evenodd" clip-rule="evenodd" d="M50 9L12 42.5V91C12 93.2091 13.7909 95 16 95H39V67.5C39 61.1487 44.1487 56 50.5 56C56.8513 56 62 61.1487 62 67.5V95H84C86.2091 95 88 93.2091 88 91V42.5L50 9Z" fill="#FF0077"></path>
<path fill-rule="evenodd" clip-rule="evenodd" d="M51.0342 12.8163C50.4549 12.265 49.5451 12.265 48.9658 12.8163L10.913 49.0353C9.51287 50.3679 7.29747 50.3132 5.96479 48.9131C4.63211 47.5129 4.68681 45.2975 6.08697 43.9648L44.1398 7.7459C47.4221 4.62181 52.5779 4.62181 55.8602 7.7459L93.913 43.9648C95.3132 45.2975 95.3679 47.5129 94.0352 48.9131C92.7025 50.3132 90.4871 50.3679 89.087 49.0353L51.0342 12.8163Z" fill="black"></path>
</svg>