<svg width="100" height="100" viewBox="0 0 100 100" fill="none" xmlns="http://www.w3.org/2000/svg">
<circle cx="50" cy="50" r="32" fill="#FF0077"></circle>
<path d="M18.5034 23.7249C18.3191 24.1268 17.6809 24.1268 17.4966 23.7249C16.4006 21.3354 14.6646 19.5994 12.2751 18.5034C11.8732 18.3191 11.8732 17.6809 12.2751 17.4966C14.6646 16.4006 16.4006 14.6646 17.4966 12.2751C17.6809 11.8732 18.3191 11.8732 18.5034 12.2751C19.5994 14.6646 21.3354 16.4006 23.725 17.4966C24.1268 17.6809 24.1268 18.3191 23.725 18.5034C21.3354 19.5994 19.5994 21.3354 18.5034 23.7249Z" fill="black"></path>
<path fill-rule="evenodd" clip-rule="evenodd" d="M18.5566 44.0257C8.61858 51.6654 3.37262 59.6216 5.67662 65.225C9.47908 74.4726 32.4058 73.8097 56.8849 63.7444C81.364 53.679 98.1257 38.0228 94.3232 28.7751C91.8489 22.7576 81.277 20.9364 67.449 23.1715C70.0847 24.8893 72.4516 26.9849 74.4728 29.3815C75.2269 29.3278 75.9615 29.2907 76.6751 29.2701C80.8143 29.1504 83.8636 29.5973 85.8328 30.2915C87.3292 30.819 87.7593 31.311 87.8467 31.4381C87.874 31.5901 87.9144 32.2423 87.2219 33.6698C86.3106 35.5484 84.4576 38.011 81.4314 40.8376C75.4183 46.4541 65.887 52.4743 54.2229 57.2703C42.5588 62.0664 31.5495 64.4922 23.3247 64.73C19.1855 64.8497 16.1362 64.4028 14.167 63.7086C12.6706 63.1811 12.2406 62.6891 12.1531 62.562C12.1258 62.4101 12.0854 61.7578 12.7779 60.3303C13.6507 58.531 15.3873 56.1961 18.1912 53.5188C18.0648 52.3632 17.9999 51.1892 17.9999 50C17.9999 47.9583 18.1911 45.9612 18.5566 44.0257ZM87.8377 31.4025C87.8382 31.4023 87.8407 31.4093 87.8439 31.4237C87.8388 31.4099 87.8372 31.4027 87.8377 31.4025ZM12.1345 62.5303C12.1349 62.5301 12.1389 62.5364 12.145 62.5497C12.137 62.5372 12.134 62.5305 12.1345 62.5303ZM12.1621 62.5976C12.1616 62.5977 12.1591 62.5908 12.1559 62.5764C12.161 62.5901 12.1626 62.5974 12.1621 62.5976ZM87.8549 31.4504C87.8628 31.4629 87.8658 31.4696 87.8654 31.4698C87.8649 31.47 87.8609 31.4637 87.8549 31.4504Z" fill="black"></path>
</svg>