<svg width="100" height="100" viewBox="0 0 100 100" fill="none" xmlns="http://www.w3.org/2000/svg">
<path fill-rule="evenodd" clip-rule="evenodd" d="M95 50C95 19.2708 80.742 5 50 5C19.258 5 5 19.2708 5 50C5 80.7292 19.258 95 50 95C80.742 95 95 80.7292 95 50Z" fill="#FF0077"></path>
<path fill-rule="evenodd" clip-rule="evenodd" d="M53.3781 5L53.3781 21.9703L46.3781 21.9703L46.3781 5L53.3781 5Z" fill="black"></path>
<path fill-rule="evenodd" clip-rule="evenodd" d="M53.3781 81.0355L53.3781 94.9999L46.3781 94.9999L46.3781 81.0355L53.3781 81.0355Z" fill="black"></path>
<mask id="path-4-inside-1_6502_2903" fill="white">
<path fill-rule="evenodd" clip-rule="evenodd" d="M67.19 50.0698C67.19 38.3312 61.7434 32.8798 49.9999 32.8798C38.2565 32.8798 32.8099 38.3312 32.8099 50.0698C32.8099 61.8083 38.2565 67.2598 49.9999 67.2598C61.7434 67.2598 67.19 61.8083 67.19 50.0698Z"></path>
</mask>
<path d="M74.19 50.0698C74.19 43.2532 72.6179 36.7935 67.949 32.1236C63.2799 27.4534 56.8197 25.8798 49.9999 25.8798V39.8798C54.9236 39.8798 57.0585 41.0318 58.0485 42.022C59.0387 43.0125 60.19 45.1478 60.19 50.0698H74.19ZM49.9999 25.8798C43.1802 25.8798 36.72 27.4534 32.0509 32.1236C27.382 36.7935 25.8099 43.2532 25.8099 50.0698H39.8099C39.8099 45.1478 40.9612 43.0125 41.9514 42.022C42.9414 41.0318 45.0763 39.8798 49.9999 39.8798V25.8798ZM25.8099 50.0698C25.8099 56.8863 27.382 63.3461 32.0509 68.0159C36.72 72.6861 43.1802 74.2598 49.9999 74.2598V60.2598C45.0763 60.2598 42.9414 59.1077 41.9514 58.1175C40.9612 57.127 39.8099 54.9918 39.8099 50.0698H25.8099ZM49.9999 74.2598C56.8197 74.2598 63.2799 72.6861 67.949 68.0159C72.6179 63.3461 74.19 56.8863 74.19 50.0698H60.19C60.19 54.9918 59.0387 57.127 58.0485 58.1175C57.0585 59.1077 54.9236 60.2598 49.9999 60.2598V74.2598Z" fill="black" mask="url(#path-4-inside-1_6502_2903)"></path>
<mask id="path-6-inside-2_6502_2903" fill="white">
<path fill-rule="evenodd" clip-rule="evenodd" d="M83.7194 50.0696C83.7194 27.0436 73.0355 16.3501 49.9999 16.3501C26.9642 16.3501 16.2804 27.0436 16.2804 50.0696C16.2804 73.0956 26.9642 83.7891 49.9999 83.7891C73.0355 83.7891 83.7194 73.0956 83.7194 50.0696Z"></path>
</mask>
<path d="M90.7194 50.0696C90.7194 37.6093 87.838 27.0172 80.4483 19.6259C73.0583 12.2343 62.4657 9.3501 49.9999 9.3501V23.3501C60.5697 23.3501 66.8369 25.8127 70.5477 29.5243C74.2588 33.2362 76.7194 39.5038 76.7194 50.0696H90.7194ZM49.9999 9.3501C37.534 9.3501 26.9415 12.2343 19.5515 19.6259C12.1618 27.0172 9.2804 37.6093 9.2804 50.0696H23.2804C23.2804 39.5038 25.7409 33.2362 29.4521 29.5243C33.1629 25.8127 39.4301 23.3501 49.9999 23.3501V9.3501ZM9.2804 50.0696C9.2804 62.5299 12.1618 73.122 19.5515 80.5133C26.9415 87.9049 37.534 90.7891 49.9999 90.7891V76.7891C39.4301 76.7891 33.1629 74.3265 29.4521 70.6149C25.7409 66.903 23.2804 60.6353 23.2804 50.0696H9.2804ZM49.9999 90.7891C62.4657 90.7891 73.0583 87.9049 80.4483 80.5133C87.838 73.122 90.7194 62.5299 90.7194 50.0696H76.7194C76.7194 60.6353 74.2588 66.903 70.5477 70.6149C66.8369 74.3265 60.5697 76.7891 49.9999 76.7891V90.7891Z" fill="black" mask="url(#path-6-inside-2_6502_2903)"></path>
<path fill-rule="evenodd" clip-rule="evenodd" d="M36.4222 53.5488L5 53.5488L5 46.5488L36.4222 46.5488L36.4222 53.5488Z" fill="black"></path>
<path fill-rule="evenodd" clip-rule="evenodd" d="M95.0001 53.549H81.162V46.549H95.0001V53.549Z" fill="black"></path>
<path fill-rule="evenodd" clip-rule="evenodd" d="M49.8781 49.3253C51.811 49.3253 53.3781 50.8923 53.3781 52.8253L53.3781 63.845L46.3781 63.845L46.3781 52.8253C46.3781 50.8923 47.9451 49.3253 49.8781 49.3253Z" fill="black"></path>
</svg>