<svg width="100" height="100" viewBox="0 0 100 100" fill="none" xmlns="http://www.w3.org/2000/svg">
<rect x="5" y="5" width="90" height="90" rx="4" fill="white"></rect>
<path d="M5 9C5 6.79086 6.79086 5 9 5H91C93.2091 5 95 6.79086 95 9V19.5312H5V9Z" fill="#FF0077"></path>
<path fill-rule="evenodd" clip-rule="evenodd" d="M33.5 26.0403C35.433 26.0403 37 27.6073 37 29.5403V39.4153H62V29.5403C62 27.6073 63.567 26.0403 65.5 26.0403C67.433 26.0403 69 27.6073 69 29.5403V39.4153H84.375C86.308 39.4153 87.875 40.9823 87.875 42.9153C87.875 44.8483 86.308 46.4153 84.375 46.4153H69V67.4153H84.375C86.308 67.4153 87.875 68.9823 87.875 70.9153C87.875 72.8483 86.308 74.4153 84.375 74.4153H69V84.2903C69 86.2233 67.433 87.7903 65.5 87.7903C63.567 87.7903 62 86.2233 62 84.2903V74.4153H37V84.2903C37 86.2233 35.433 87.7903 33.5 87.7903C31.567 87.7903 30 86.2233 30 84.2903V74.4153H15.75C13.817 74.4153 12.25 72.8483 12.25 70.9153C12.25 68.9823 13.817 67.4153 15.75 67.4153H30V46.4153H15.75C13.817 46.4153 12.25 44.8483 12.25 42.9153C12.25 40.9823 13.817 39.4153 15.75 39.4153H30V29.5403C30 27.6073 31.567 26.0403 33.5 26.0403ZM62 67.4153V46.4153H37V67.4153H62Z" fill="black"></path>
</svg>