<svg width="100" height="100" viewBox="0 0 100 100" fill="none" xmlns="http://www.w3.org/2000/svg">
<path fill-rule="evenodd" clip-rule="evenodd" d="M49.9999 72.5C49.9999 57.1354 42.8709 50 27.5 50C12.129 50 5 57.1354 5 72.5C5 87.8645 12.129 94.9999 27.5 94.9999C42.8709 94.9999 49.9999 87.8645 49.9999 72.5Z" fill="#FF0077"></path>
<path fill-rule="evenodd" clip-rule="evenodd" d="M94.9999 72.5C94.9999 57.1354 87.8709 50 72.5 50C57.129 50 50 57.1354 50 72.5C50 87.8645 57.129 94.9999 72.5 94.9999C87.8709 94.9999 94.9999 87.8645 94.9999 72.5Z" fill="#FF0077"></path>
<path fill-rule="evenodd" clip-rule="evenodd" d="M68.915 14.8785L68.915 59.8437C68.915 61.7767 70.482 63.3437 72.415 63.3437C74.348 63.3437 75.915 61.7767 75.915 59.8437L75.915 10.685C75.915 5.51981 69.4389 3.20322 66.1628 7.19664L24.794 57.6239C23.568 59.1183 23.7857 61.3237 25.2801 62.5497C26.7746 63.7757 28.9799 63.5581 30.2059 62.0636L68.915 14.8785Z" fill="white"></path>
<path fill-rule="evenodd" clip-rule="evenodd" d="M67.0249 8.625C67.0249 6.692 68.5919 5.125 70.5249 5.125H84.3374C86.2704 5.125 87.8374 6.692 87.8374 8.625C87.8374 10.558 86.2704 12.125 84.3374 12.125H70.5249C68.5919 12.125 67.0249 10.558 67.0249 8.625Z" fill="white"></path>
</svg>