<svg width="100" height="100" viewBox="0 0 100 100" fill="none" xmlns="http://www.w3.org/2000/svg">
<path d="M12 34C12 31.2386 14.2386 29 17 29H81V95H22C16.4772 95 12 90.5228 12 85V34Z" fill="black"></path>
<path d="M26 9.28571C26 6.91878 27.9188 5 30.2857 5H90C92.7614 5 95 7.23858 95 10V90C95 92.7614 92.7614 95 90 95H20.5C23.5376 95 26 92.5376 26 89.5V9.28571Z" fill="white"></path>
<path fill-rule="evenodd" clip-rule="evenodd" d="M74.3741 48.716C75.4627 47.6273 74.9646 45.7684 73.4775 45.3699L46.6245 38.1747C45.1374 37.7762 43.7766 39.137 44.1751 40.6242L51.3703 67.4771C51.7688 68.9642 53.6277 69.4623 54.7163 68.3737L59.8658 63.2243C60.6468 62.4432 61.9131 62.4432 62.6942 63.2243L72.7977 73.3278C73.5787 74.1088 74.8451 74.1088 75.6261 73.3278L79.3281 69.6258C80.1091 68.8448 80.1091 67.5784 79.3281 66.7974L69.2246 56.6939C68.4435 55.9128 68.4435 54.6465 69.2246 53.8655L74.3741 48.716Z" fill="#FF0077"></path>
</svg>