<svg width="100" height="100" viewBox="0 0 100 100" fill="none" xmlns="http://www.w3.org/2000/svg">
<g clip-path="url(#clip0_6502_4696)">
<path fill-rule="evenodd" clip-rule="evenodd" d="M5.20202 10.1609C17.5362 35.454 18.2891 61.5399 16.5607 75.4605C16.258 77.8989 17.5954 80.2899 19.9014 81.1384L57.7467 95.0642L76.1002 76.9044L94.4537 58.7446L80.9302 20.7537C80.1062 18.4389 77.7296 17.0761 75.2881 17.353C61.3436 18.9343 35.2496 17.903 10.0781 5.28478L7.64445 7.71846L5.20202 10.1609Z" fill="white"></path>
<path fill-rule="evenodd" clip-rule="evenodd" d="M57.9541 42.0458C52.5223 36.614 47.4793 36.6117 42.0452 42.0458C36.6111 47.4799 36.6134 52.5228 42.0452 57.9547C47.4771 63.3865 52.52 63.3888 57.9541 57.9547C63.3882 52.5206 63.3859 47.4777 57.9541 42.0458Z" fill="black"></path>
<path fill-rule="evenodd" clip-rule="evenodd" d="M6.01861 6.08266C7.3927 4.72312 9.60875 4.73492 10.9683 6.10902L53.7861 49.3853C55.1456 50.7594 55.1338 52.9755 53.7597 54.335C52.3857 55.6945 50.1696 55.6827 48.8101 54.3086L5.99225 11.0323C4.63271 9.65824 4.64451 7.4422 6.01861 6.08266Z" fill="black"></path>
</g>
<defs>
<clipPath id="clip0_6502_4696">
<rect width="100" height="100" fill="white"></rect>
</clipPath>
</defs>
</svg>