<svg width="100" height="100" viewBox="0 0 100 100" fill="none" xmlns="http://www.w3.org/2000/svg">
<path fill-rule="evenodd" clip-rule="evenodd" d="M27.6311 91.5623V87.7498H34.6311V91.5623C34.6311 93.4953 33.0641 95.0623 31.1311 95.0623C29.1981 95.0623 27.6311 93.4953 27.6311 91.5623Z" fill="black"></path>
<path fill-rule="evenodd" clip-rule="evenodd" d="M65.4412 91.5623V87.7498H72.4412V91.5623C72.4412 93.4953 70.8742 95.0623 68.9412 95.0623C67.0082 95.0623 65.4412 93.4953 65.4412 91.5623Z" fill="black"></path>
<path fill-rule="evenodd" clip-rule="evenodd" d="M72.4407 8.37744L72.4407 12.1899L65.4407 12.1899L65.4407 8.37744C65.4407 6.44444 67.0077 4.87744 68.9407 4.87744C70.8737 4.87744 72.4407 6.44444 72.4407 8.37744Z" fill="black"></path>
<path fill-rule="evenodd" clip-rule="evenodd" d="M34.6306 8.37744L34.6306 12.1899L27.6306 12.1899L27.6306 8.37744C27.6306 6.44444 29.1976 4.87744 31.1306 4.87744C33.0636 4.87744 34.6306 6.44444 34.6306 8.37744Z" fill="black"></path>
<path fill-rule="evenodd" clip-rule="evenodd" d="M8.44312 27.5649L12.2556 27.5649L12.2556 34.5649L8.44311 34.5649C6.51012 34.5649 4.94311 32.9979 4.94312 31.0649C4.94312 29.1319 6.51012 27.5649 8.44312 27.5649Z" fill="black"></path>
<path fill-rule="evenodd" clip-rule="evenodd" d="M8.44312 65.3748L12.2556 65.3748L12.2556 72.3748L8.44311 72.3748C6.51012 72.3748 4.94311 70.8078 4.94312 68.8748C4.94312 66.9418 6.51012 65.3748 8.44312 65.3748Z" fill="black"></path>
<path fill-rule="evenodd" clip-rule="evenodd" d="M91.6287 72.3748L87.8162 72.3748L87.8162 65.3748L91.6287 65.3748C93.5617 65.3748 95.1287 66.9418 95.1287 68.8748C95.1287 70.8078 93.5617 72.3748 91.6287 72.3748Z" fill="black"></path>
<path fill-rule="evenodd" clip-rule="evenodd" d="M91.6287 34.5649L87.8162 34.5649L87.8162 27.5649L91.6287 27.5649C93.5617 27.5649 95.1287 29.1319 95.1287 31.0649C95.1287 32.9979 93.5617 34.5649 91.6287 34.5649Z" fill="black"></path>
<rect x="12.1899" y="12.1899" width="75.6199" height="75.6199" rx="4" fill="#FF0077"></rect>
<path fill-rule="evenodd" clip-rule="evenodd" d="M32.9998 32.9998V67H67V32.9998H32.9998ZM29.9998 25.9998C27.7906 25.9998 25.9998 27.7906 25.9998 29.9998V70C25.9998 72.2091 27.7906 74 29.9998 74H70C72.2091 74 74 72.2091 74 70V29.9998C74 27.7906 72.2091 25.9998 70 25.9998H29.9998Z" fill="white"></path>
</svg>