<svg width="100" height="100" viewBox="0 0 100 100" fill="none" xmlns="http://www.w3.org/2000/svg">
<path fill-rule="evenodd" clip-rule="evenodd" d="M95 50C95 19.2708 80.742 5 50 5C19.258 5 5 19.2708 5 50C5 80.7292 19.258 95 50 95C80.742 95 95 80.7292 95 50Z" fill="white"></path>
<path d="M23.3103 23.3103L54.1228 40.5552L40.5497 54.1283L23.3103 23.3103Z" fill="#FF0077"></path>
<path d="M76.6841 76.695L45.8716 59.4502L59.4447 45.8771L76.6841 76.695Z" fill="black"></path>
<path fill-rule="evenodd" clip-rule="evenodd" d="M57.071 57.071C61.8997 52.2424 61.9017 47.7595 57.0711 42.9288C52.2404 38.0982 47.7576 38.1002 42.9289 42.9289C38.1003 47.7575 38.0983 52.2404 42.9289 57.071C47.7595 61.9016 52.2424 61.8996 57.071 57.071Z" fill="#FF0077"></path>
</svg>