<svg width="100" height="100" viewBox="0 0 100 100" fill="none" xmlns="http://www.w3.org/2000/svg">
<path fill-rule="evenodd" clip-rule="evenodd" d="M50 5C80.742 5 95 19.2708 95 50C95 80.7292 80.742 95 50 95C19.258 95 5 80.7292 5 50C5 19.2708 19.258 5 50 5ZM50 44.75C53.5866 44.75 55.25 46.4149 55.25 50C55.25 53.5851 53.5866 55.25 50 55.25C46.4134 55.25 44.75 53.5851 44.75 50C44.75 46.4149 46.4134 44.75 50 44.75Z" fill="black"></path>
<path fill-rule="evenodd" clip-rule="evenodd" d="M50 26.8516C65.814 26.8516 73.1484 34.1926 73.1484 50C73.1484 65.8074 65.814 73.1484 50 73.1484C34.186 73.1484 26.8516 65.8074 26.8516 50C26.8516 34.1926 34.186 26.8516 50 26.8516ZM50 44.75C53.5866 44.75 55.25 46.4149 55.25 50C55.25 53.5851 53.5866 55.25 50 55.25C46.4134 55.25 44.75 53.5851 44.75 50C44.75 46.4149 46.4134 44.75 50 44.75Z" fill="#FF0077"></path>
<path fill-rule="evenodd" clip-rule="evenodd" d="M61.1923 16.344C61.7401 14.4903 63.6869 13.4316 65.5407 13.9794C70.9517 15.5783 75.4893 18.1908 79.0435 21.9335C82.5942 25.6725 85.0094 30.3771 86.4257 35.9318C86.9033 37.8049 85.772 39.7104 83.8989 40.188C82.0258 40.6656 80.1203 39.5343 79.6427 37.6612C78.4673 33.0513 76.5544 29.4778 73.9676 26.7538C71.3842 24.0334 67.9749 21.9979 63.557 20.6924C61.7032 20.1446 60.6445 18.1978 61.1923 16.344Z" fill="white"></path>
</svg>