<svg width="100" height="100" viewBox="0 0 100 100" fill="none" xmlns="http://www.w3.org/2000/svg">
<path fill-rule="evenodd" clip-rule="evenodd" d="M95 50C95 19.2708 80.742 5 50 5C19.258 5 5 19.2708 5 50C5 80.7292 19.258 95 50 95C80.742 95 95 80.7292 95 50Z" fill="white"></path>
<path fill-rule="evenodd" clip-rule="evenodd" d="M85.2449 10.0139C85.2449 7.25627 82.9887 5 80.231 5H75.2171C66.894 5 60.1753 11.7187 60.1753 20.0418V50.1253C60.1753 56.6435 64.387 62.1588 70.2031 64.2646V87.4375H70.1196C70.1196 92.6017 72.5158 95 77.6822 95C82.8347 95 85.2318 92.6146 85.2447 87.4791H85.2449V10.0139Z" fill="black"></path>
<path fill-rule="evenodd" clip-rule="evenodd" d="M18.25 5.12256C20.183 5.12256 21.75 6.68956 21.75 8.62256L21.75 39.7695L14.75 39.7695L14.75 8.62256C14.75 6.68956 16.317 5.12256 18.25 5.12256Z" fill="black"></path>
<path fill-rule="evenodd" clip-rule="evenodd" d="M33.6274 5.12256C35.5604 5.12256 37.1274 6.68956 37.1274 8.62256L37.1274 42.4351L30.1274 42.4351L30.1274 8.62256C30.1274 6.68956 31.6944 5.12256 33.6274 5.12256Z" fill="black"></path>
<path fill-rule="evenodd" clip-rule="evenodd" d="M49 5.12256C50.933 5.12256 52.5 6.68956 52.5 8.62256L52.5 39.4596L45.5 39.4596L45.5 8.62256C45.5 6.68956 47.067 5.12256 49 5.12256Z" fill="black"></path>
<path d="M33.6275 95C28.4611 95 26.0649 92.6017 26.0649 87.4375H41.19C41.19 92.6017 38.7939 95 33.6275 95Z" fill="black"></path>
<path d="M33.6278 58.245C20.735 58.245 14.7554 52.26 14.7554 39.3726V36.4976H52.5003V39.3726C52.5003 52.26 46.5207 58.245 33.6278 58.245Z" fill="black"></path>
<rect x="26.0649" y="44.4351" width="15.125" height="43.3101" fill="black"></rect>
<path d="M25.9395 40.687C23.0774 40.687 21.75 39.3584 21.75 36.4976H30.1289C30.1289 39.3584 28.8015 40.687 25.9395 40.687Z" fill="white"></path>
<path d="M41.3457 40.687C38.4837 40.687 37.1562 39.3584 37.1562 36.4976H45.5352C45.5352 39.3584 44.2077 40.687 41.3457 40.687Z" fill="white"></path>
</svg>