<svg width="100" height="100" viewBox="0 0 100 100" fill="none" xmlns="http://www.w3.org/2000/svg">
<path fill-rule="evenodd" clip-rule="evenodd" d="M95 27.4805C95 12.1159 87.871 4.98047 72.5 4.98047C57.129 4.98047 50 12.1159 50 27.4805C50 42.845 57.129 49.9805 72.5 49.9805C87.871 49.9805 95 42.845 95 27.4805Z" fill="white"></path>
<path d="M50 49.9383V27.4062L72.0781 49.9383H50Z" fill="white"></path>
<path fill-rule="evenodd" clip-rule="evenodd" d="M47.5555 49.8657C47.5555 40.782 43.3407 36.5635 34.2533 36.5635C25.1658 36.5635 20.951 40.782 20.951 49.8657C20.951 58.9494 25.1658 63.1679 34.2533 63.1679C43.3407 63.1679 47.5555 58.9494 47.5555 49.8657Z" fill="#FF0077"></path>
<path d="M34.2534 65.7271C54.238 65.7271 63.5068 75.0042 63.5068 94.9805H5C5 75.0042 14.2688 65.7271 34.2534 65.7271Z" fill="#FF0077"></path>
</svg>