<svg width="100" height="100" viewBox="0 0 100 100" fill="none" xmlns="http://www.w3.org/2000/svg">
<path fill-rule="evenodd" clip-rule="evenodd" d="M95.0001 50.0347C95.0001 19.3293 80.7625 5.06946 50.0646 5.06946C19.3666 5.06946 5.12901 19.3293 5.12901 50.0347C5.12901 80.7401 19.3666 95 50.0646 95C80.7625 95 95.0001 80.7401 95.0001 50.0347Z" fill="#FF0077"></path>
<mask id="mask0_6502_1913" style="mask-type:alpha" maskUnits="userSpaceOnUse" x="5" y="5" width="90" height="90">
<path fill-rule="evenodd" clip-rule="evenodd" d="M94.8712 49.9653C94.8712 19.2598 80.6336 5 49.9357 5C19.2377 5 5.00012 19.2598 5.00012 49.9653C5.00012 80.6707 19.2377 94.9305 49.9357 94.9305C80.6336 94.9305 94.8712 80.6707 94.8712 49.9653Z" fill="#FFDCE6"></path>
</mask>
<g mask="url(#mask0_6502_1913)">
<path d="M47.8541 90.8803L36.8016 79.8205C35.7886 78.8068 35.2195 77.4323 35.2195 75.9992C35.2195 73.0136 32.7992 70.5933 29.8136 70.5933H23.5604C21.1895 70.5933 19.2675 72.5153 19.2675 74.8862C19.2675 76.0242 18.8156 77.1157 18.0111 77.9207L9.15673 86.7809C7.63654 88.3021 7.63654 90.7674 9.15673 92.2886C9.59972 92.7319 10.1431 93.0618 10.7408 93.2502L40.6835 102.692C45.2675 104.138 49.9358 100.715 49.9358 95.9084C49.9358 94.0226 49.187 92.2141 47.8541 90.8803Z" fill="black"></path>
<path d="M49.492 49.1727L62.8545 35.8014L64.2026 34.4525L67.4394 31.4448C68.3916 30.5601 69.6432 30.0684 70.9429 30.0684H73.2021C75.8554 30.0684 78.3999 31.1228 80.2755 32.9996L83.7409 36.4673C85.6165 38.3441 88.161 39.3986 90.8143 39.3986H104.137C109.66 39.3986 114.137 43.8758 114.137 49.3986V57.1227C114.137 59.7737 113.084 62.3162 111.21 64.1914L98.1373 77.2731C96.2617 79.1499 93.7172 80.2044 91.0639 80.2044H81.4902C78.8369 80.2044 76.2924 79.1499 74.4168 77.2731L69.6033 72.4564C67.7278 70.5797 65.1832 69.5252 62.5299 69.5252H56.5654C51.0426 69.5252 46.5654 65.048 46.5654 59.5252V56.2414C46.5654 53.5904 47.6181 51.0479 49.492 49.1727Z" fill="black"></path>
<path d="M53.8909 17.6777L57.2414 17.3309C57.8991 17.2628 58.5133 16.9703 58.9808 16.5025L59.0537 16.4295C59.5469 15.936 60.2158 15.6588 60.9132 15.6588C61.6107 15.6588 62.2818 15.9382 62.775 16.4317C63.8119 17.4693 63.8172 19.1569 62.7802 20.1945L61.1856 21.7902L51.6461 31.336C50.7794 32.2033 49.6039 32.6905 48.3782 32.6905C45.8257 32.6905 43.7566 30.62 43.7566 28.0659L43.7566 27.0061C43.7566 25.4985 44.3551 24.0526 45.4204 22.9866L47.8509 20.5545C49.4743 18.93 51.6072 17.9142 53.8909 17.6777Z" fill="black"></path>
<path d="M28.7731 28.5644L16.0631 15.8461C15.6691 15.4518 15.1345 15.2302 14.5771 15.2302C14.0196 15.2302 13.4851 15.4518 13.091 15.8461L3.48946 25.454C1.61553 27.3291 0.562866 29.8717 0.562866 32.5227V46.4438C0.562866 49.0948 1.61553 51.6373 3.48947 53.5125L10.1229 60.1503C11.5902 61.6186 13.5808 62.4435 15.6566 62.4435C19.9773 62.4435 23.4799 58.9409 23.4799 54.6202V52.1387C23.4799 49.4877 24.5326 46.9451 26.4065 45.07L28.7731 42.7018C32.6752 38.7971 32.6752 32.4691 28.7731 28.5644Z" fill="black"></path>
</g>
</svg>