<svg width="100" height="100" viewBox="0 0 100 100" fill="none" xmlns="http://www.w3.org/2000/svg">
<path d="M22.4537 5V19.3018H36.8213V5L29.6375 8.98218L22.4537 5Z" fill="black"></path>
<rect x="12.5049" y="12.2551" width="75.4897" height="82.7449" rx="3.17517" fill="#FF0077"></rect>
<path fill-rule="evenodd" clip-rule="evenodd" d="M21.6802 33.2754C21.6802 31.3424 23.2472 29.7754 25.1802 29.7754H71.1581C73.0911 29.7754 74.6581 31.3424 74.6581 33.2754C74.6581 35.2084 73.0911 36.7754 71.1581 36.7754H25.1802C23.2472 36.7754 21.6802 35.2084 21.6802 33.2754Z" fill="white"></path>
<path fill-rule="evenodd" clip-rule="evenodd" d="M21.6802 46.511C21.6802 44.578 23.2472 43.011 25.1802 43.011H48.1691C50.1021 43.011 51.6691 44.578 51.6691 46.511C51.6691 48.444 50.1021 50.011 48.1691 50.011H25.1802C23.2472 50.011 21.6802 48.444 21.6802 46.511Z" fill="white"></path>
</svg>