<svg width="100" height="100" viewBox="0 0 100 100" fill="none" xmlns="http://www.w3.org/2000/svg">
<path d="M50 5C80.742 5 95 19.2708 95 50C95 80.7292 80.742 95 50 95C19.258 95 5 80.7292 5 50C5 19.2708 19.258 5 50 5ZM50 12.5C24.3817 12.5 12.5 24.3924 12.5 50C12.5 75.6076 24.3817 87.5 50 87.5C75.6183 87.5 87.5 75.6076 87.5 50C87.5 24.3924 75.6183 12.5 50 12.5ZM50 19.5C61.8611 19.5 69.0731 22.2626 73.4062 26.5967C77.7397 30.931 80.5 38.1435 80.5 50C80.5 61.8565 77.7396 69.069 73.4062 73.4033C69.0731 77.7374 61.8611 80.5 50 80.5C38.1389 80.5 30.9269 77.7374 26.5938 73.4033C22.2603 69.069 19.5 61.8565 19.5 50C19.5 38.1435 22.2603 30.931 26.5938 26.5967C30.9269 22.2626 38.1389 19.5 50 19.5Z" fill="white"></path>
<path d="M62 55.3838C62 60.4606 58.3304 63.9816 52.3831 64.5957L52.594 70H47.7012L47.9543 64.5548C42.471 63.8997 38.717 61.1566 38 55.6295L44.7909 53.9509C45.0861 57.0624 46.225 58.4135 48.1652 58.9457L48.4183 52.7636L46.0984 52.3541C42.2179 51.6581 38.6749 49.1607 38.6749 43.8383C38.6749 39.1709 42.3023 35.8956 47.8699 35.2815L47.6169 30H52.594L52.3831 35.3634C57.3181 35.9775 60.9033 38.5568 61.6204 43.8792L55.2513 45.5578C54.9561 42.651 53.8172 41.4637 52.1301 41.0133L51.877 46.9908L54.3656 47.4002C59.4692 48.26 62 51.2487 62 55.3838ZM45.5079 43.6336C45.5079 45.3122 46.3937 45.9672 48.3761 46.3767L48.123 40.8905C46.2671 41.1361 45.5079 41.9959 45.5079 43.6336ZM52.1301 59.1095C54.3234 58.8639 55.2091 58.0041 55.2091 56.2436C55.2091 54.4831 54.3234 53.9099 51.877 53.4186L52.1301 59.1095Z" fill="#FF0077"></path>
</svg>