<svg width="100" height="100" viewBox="0 0 100 100" fill="none" xmlns="http://www.w3.org/2000/svg">
<g clip-path="url(#clip0_6502_3469)">
<rect x="88.4169" y="58.6978" width="41.9183" height="66.1067" transform="rotate(135 88.4169 58.6978)" fill="black"></rect>
<path fill-rule="evenodd" clip-rule="evenodd" d="M57.7501 87.3824C67.9102 97.5426 77.3429 97.5468 87.5072 87.3824C97.6716 77.2181 97.6673 67.7855 87.5072 57.6254C77.3471 47.4653 67.9145 47.461 57.7501 57.6254C47.5858 67.7897 47.59 77.2223 57.7501 87.3824Z" fill="#FF0077"></path>
<path fill-rule="evenodd" clip-rule="evenodd" d="M12.8052 42.3441C22.9335 52.4723 32.3365 52.4765 42.4689 42.3441C52.6014 32.2116 52.5972 22.8086 42.4689 12.6804C32.3407 2.55214 22.9377 2.54791 12.8052 12.6804C2.67279 22.8128 2.67702 32.2158 12.8052 42.3441Z" fill="#FF0077"></path>
</g>
<defs>
<clipPath id="clip0_6502_3469">
<rect width="100" height="100" fill="white"></rect>
</clipPath>
</defs>
</svg>