<svg width="100" height="100" viewBox="0 0 100 100" fill="none" xmlns="http://www.w3.org/2000/svg">
<path d="M54.0489 85.3738C53.8999 85.7877 53.302 85.7878 53.153 85.3738C46.127 65.8484 33.0786 52.7338 13.4899 45.7712C13.0744 45.6236 13.0731 45.0238 13.4879 44.8744C33.0106 37.8469 46.1244 24.7988 53.1529 5.27712C53.3019 4.86321 53.8998 4.8632 54.0488 5.27714C61.0747 24.8026 74.1232 37.9171 93.7119 44.8797C94.1274 45.0274 94.1287 45.6272 93.7139 45.7765C74.1912 52.804 61.0774 65.8521 54.0489 85.3738Z" fill="black"></path>
<path d="M20.2024 93.8605C20.0427 94.2727 19.4294 94.2727 19.2696 93.8605C16.6624 87.131 12.0198 82.4884 5.29033 79.8811C4.8781 79.7214 4.8781 79.1081 5.29033 78.9484C12.0198 76.3411 16.6624 71.6985 19.2696 64.969C19.4294 64.5568 20.0427 64.5568 20.2024 64.969C22.8097 71.6985 27.4522 76.3411 34.1817 78.9484C34.594 79.1081 34.594 79.7214 34.1817 79.8811C27.4522 82.4884 22.8097 87.131 20.2024 93.8605Z" fill="white"></path>
</svg>