<svg width="100" height="100" viewBox="0 0 100 100" fill="none" xmlns="http://www.w3.org/2000/svg">
<path fill-rule="evenodd" clip-rule="evenodd" d="M82.2912 52.43C93.0839 46.1988 95.205 38.2972 88.9712 27.5C82.7374 16.7028 74.834 14.5889 64.0412 20.8201C53.2485 27.0513 51.1275 34.9528 57.3612 45.75C63.595 56.5472 71.4984 58.6611 82.2912 52.43Z" fill="#FF0077"></path>
<path fill-rule="evenodd" clip-rule="evenodd" d="M35.9589 79.18C46.7516 72.9488 48.8726 65.0472 42.6388 54.25C36.4051 43.4528 28.5016 41.3389 17.7089 47.5701C6.91614 53.8013 4.79511 61.7028 11.0289 72.5C17.2627 83.2972 25.1661 85.4111 35.9589 79.18Z" fill="#FF0077"></path>
<path fill-rule="evenodd" clip-rule="evenodd" d="M64.0412 79.1799C74.834 85.4111 82.7374 83.2972 88.9712 72.5C95.205 61.7028 93.084 53.8013 82.2912 47.5701C71.4985 41.3389 63.595 43.4528 57.3613 54.25C51.1275 65.0472 53.2485 72.9487 64.0412 79.1799Z" fill="#FF0077"></path>
<path fill-rule="evenodd" clip-rule="evenodd" d="M17.7089 52.4299C28.5016 58.6611 36.4051 56.5472 42.6389 45.75C48.8726 34.9528 46.7516 27.0513 35.9589 20.8201C25.1661 14.5889 17.2627 16.7028 11.0289 27.5C4.79514 38.2972 6.91617 46.1987 17.7089 52.4299Z" fill="#FF0077"></path>
<path fill-rule="evenodd" clip-rule="evenodd" d="M68.25 23.25C68.25 10.7876 62.4676 5 50 5C37.5325 5 31.7501 10.7876 31.7501 23.25C31.7501 35.7124 37.5325 41.5 50 41.5C62.4676 41.5 68.25 35.7124 68.25 23.25Z" fill="#FF0077"></path>
<path fill-rule="evenodd" clip-rule="evenodd" d="M68.25 76.75C68.25 64.2876 62.4676 58.5 50 58.5C37.5325 58.5 31.7501 64.2876 31.7501 76.75C31.7501 89.2124 37.5325 95 50 95C62.4676 95 68.25 89.2124 68.25 76.75Z" fill="#FF0077"></path>
<path fill-rule="evenodd" clip-rule="evenodd" d="M71.2499 50C71.2499 35.489 64.517 28.75 50 28.75C35.4829 28.75 28.75 35.489 28.75 50C28.75 64.511 35.4829 71.25 50 71.25C64.517 71.25 71.2499 64.511 71.2499 50Z" fill="black"></path>
</svg>