<svg width="100" height="100" viewBox="0 0 100 100" fill="none" xmlns="http://www.w3.org/2000/svg">
<path fill-rule="evenodd" clip-rule="evenodd" d="M26.8375 12.9988C32.25 7.43606 40.173 5.09375 49.9999 5.09375C59.8267 5.09375 67.7498 7.43606 73.1623 12.9988C78.5554 18.5416 80.8132 26.6252 80.8132 36.6591H73.8132C73.8132 27.528 71.744 21.5789 68.1452 17.8803C64.5659 14.2016 58.8322 12.0938 49.9999 12.0938C41.1675 12.0938 35.4339 14.2016 31.8545 17.8803C28.2558 21.5789 26.1865 27.528 26.1865 36.6591H19.1865C19.1865 26.6252 21.4443 18.5416 26.8375 12.9988Z" fill="white"></path>
<path d="M5 31C5 28.7909 6.79086 27 9 27H91C93.2091 27 95 28.7909 95 31V91C95 93.2091 93.2091 95 91 95H9C6.79086 95 5 93.2091 5 91V31Z" fill="black"></path>
<path fill-rule="evenodd" clip-rule="evenodd" d="M62.9683 50C62.9683 51.933 61.4013 53.5 59.4683 53.5H40.5322C38.5992 53.5 37.0322 51.933 37.0322 50C37.0322 48.067 38.5992 46.5 40.5322 46.5H59.4683C61.4013 46.5 62.9683 48.067 62.9683 50Z" fill="white"></path>
</svg>