<svg width="100" height="100" viewBox="0 0 100 100" fill="none" xmlns="http://www.w3.org/2000/svg">
<rect x="87.7448" y="5" width="90" height="75.4897" rx="4" transform="rotate(90 87.7448 5)" fill="#FF0077"></rect>
<rect x="23.7947" y="12.2551" width="51.9114" height="18.679" rx="2" fill="white"></rect>
<path fill-rule="evenodd" clip-rule="evenodd" d="M47.4066 75.7267C47.4066 67.6647 43.6659 63.9207 35.6006 63.9207C27.5352 63.9207 23.7945 67.6647 23.7945 75.7267C23.7945 83.7887 27.5352 87.5327 35.6006 87.5327C43.6659 87.5327 47.4066 83.7887 47.4066 75.7267Z" fill="black"></path>
<path fill-rule="evenodd" clip-rule="evenodd" d="M63.9 35.6213C71.9654 35.6213 75.706 39.3654 75.706 47.4274L75.7059 47.4274V75.7267C75.7059 83.7887 71.9652 87.5327 63.8999 87.5327C55.8345 87.5327 52.0938 83.7887 52.0938 75.7267V47.4274L52.094 47.4274C52.094 39.3654 55.8347 35.6213 63.9 35.6213Z" fill="black"></path>
<path fill-rule="evenodd" clip-rule="evenodd" d="M47.4067 47.4274C47.4067 39.3654 43.666 35.6213 35.6007 35.6213C27.5353 35.6213 23.7947 39.3654 23.7947 47.4274C23.7947 55.4894 27.5353 59.2334 35.6007 59.2334C43.666 59.2334 47.4067 55.4894 47.4067 47.4274Z" fill="black"></path>
<path fill-rule="evenodd" clip-rule="evenodd" d="M37.8583 43.5037C37.8583 41.9621 37.143 41.2461 35.6007 41.2461C34.0584 41.2461 33.343 41.962 33.343 43.5036H33.3428V45.1702H31.6768L31.6768 49.6855H33.3428V51.3512H37.8582V49.6855H39.5243L39.5243 49.6854C41.066 49.6854 41.782 48.9701 41.782 47.4277C41.782 45.8854 41.066 45.1701 39.5243 45.1701L39.5243 45.1702H37.8582V43.5037H37.8583ZM33.3427 51.3513C33.3427 52.8929 34.058 53.6089 35.6003 53.6089C37.1427 53.6089 37.858 52.8929 37.858 51.3513H33.3427ZM29.419 47.4277C29.419 45.8853 30.135 45.17 31.6767 45.17L31.6767 49.6853C30.135 49.6853 29.419 48.97 29.419 47.4277Z" fill="white"></path>
</svg>