<svg width="100" height="100" viewBox="0 0 100 100" fill="none" xmlns="http://www.w3.org/2000/svg">
<path d="M49.9999 5C80.7418 5 94.9998 19.2708 94.9998 50C94.9998 80.7292 80.7418 95 49.9999 95C19.258 95 5 80.7292 5 50V5H49.9999Z" fill="white"></path>
<path fill-rule="evenodd" clip-rule="evenodd" d="M10.7126 10.5876C12.0795 9.22079 14.2955 9.22079 15.6624 10.5876L46.5 41.4253V25.5C46.5 23.567 48.067 22 50 22C51.933 22 53.5 23.567 53.5 25.5V48.4253L66.25 61.1753V45.1875C66.25 43.2545 67.817 41.6875 69.75 41.6875C71.683 41.6875 73.25 43.2545 73.25 45.1875V68.1753L78.3499 73.2751C79.7167 74.642 79.7167 76.858 78.3499 78.2249C76.983 79.5917 74.767 79.5917 73.4001 78.2249L68.3628 73.1875H45.875C43.942 73.1875 42.375 71.6205 42.375 69.6875C42.375 67.7545 43.942 66.1875 45.875 66.1875H61.3628L48.6753 53.5H26.125C24.192 53.5 22.625 51.933 22.625 50C22.625 48.067 24.192 46.5 26.125 46.5H41.6753L10.7126 15.5374C9.34579 14.1705 9.34579 11.9545 10.7126 10.5876Z" fill="#FF0077"></path>
</svg>