<svg width="100" height="100" viewBox="0 0 100 100" fill="none" xmlns="http://www.w3.org/2000/svg">
<g clip-path="url(#clip0_6502_6440)">
<path d="M94.0745 45.5163C97.7907 47.3504 97.7907 52.6496 94.0745 54.4837L73.8607 64.4598C72.3849 65.1881 71.3621 66.5959 71.1255 68.2245L67.884 90.5318C67.2881 94.6329 62.2482 96.2704 59.3555 93.3028L43.6213 77.1611C42.4726 75.9827 40.8176 75.4449 39.1956 75.7231L16.9785 79.5337C12.8939 80.2342 9.77912 75.9471 11.7076 72.2789L22.1971 52.3267C22.9629 50.8701 22.9629 49.1299 22.1971 47.6733L11.7076 27.721C9.77913 24.0529 12.8939 19.7657 16.9785 20.4663L39.1956 24.2768C40.8176 24.555 42.4726 24.0173 43.6213 22.8388L59.3555 6.69713C62.2482 3.72955 67.2881 5.36709 67.884 9.4682L71.1255 31.7755C71.3621 33.404 72.3849 34.8119 73.8607 35.5402L94.0745 45.5163Z" fill="white"></path>
</g>
<defs>
<clipPath id="clip0_6502_6440">
<rect width="100" height="100" fill="white"></rect>
</clipPath>
</defs>
</svg>