<svg width="100" height="100" viewBox="0 0 100 100" fill="none" xmlns="http://www.w3.org/2000/svg">
<g clip-path="url(#clip0_6502_4646)">
<path fill-rule="evenodd" clip-rule="evenodd" d="M5.20202 10.1609C17.5362 35.454 18.2891 61.5399 16.5607 75.4605C16.258 77.8989 17.5954 80.2899 19.9014 81.1384L57.7467 95.0642L76.1002 76.9044L94.4537 58.7446L80.9302 20.7537C80.1062 18.4389 77.7296 17.0761 75.2881 17.353C61.3436 18.9343 35.2496 17.903 10.0781 5.28478L7.64445 7.71846L5.20202 10.1609Z" fill="#FF0077"></path>
<path fill-rule="evenodd" clip-rule="evenodd" d="M57.9542 42.0458C52.5224 36.614 47.4795 36.6117 42.0454 42.0458C36.6113 47.4799 36.6135 52.5228 42.0454 57.9547C47.4772 63.3865 52.5201 63.3888 57.9542 57.9547C63.3883 52.5206 63.386 47.4777 57.9542 42.0458Z" fill="black"></path>
<path fill-rule="evenodd" clip-rule="evenodd" d="M6.01873 6.08266C7.39282 4.72312 9.60887 4.73492 10.9684 6.10902L53.7862 49.3853C55.1458 50.7594 55.134 52.9755 53.7599 54.335C52.3858 55.6945 50.1697 55.6827 48.8102 54.3086L5.99237 11.0323C4.63283 9.65824 4.64464 7.4422 6.01873 6.08266Z" fill="black"></path>
</g>
<defs>
<clipPath id="clip0_6502_4646">
<rect width="100" height="100" fill="white"></rect>
</clipPath>
</defs>
</svg>