<svg width="100" height="100" viewBox="0 0 100 100" fill="none" xmlns="http://www.w3.org/2000/svg">
<path fill-rule="evenodd" clip-rule="evenodd" d="M93.8708 59.6644C93.8708 43.8106 86.5148 36.4479 70.6544 36.4479C70.4227 36.4479 70.1929 36.4495 69.9649 36.4527V36.4479H28.3326V36.4603C13.2372 36.7999 6.224 44.1845 6.224 59.6644C6.224 75.1444 13.2372 82.5289 28.3326 82.8686V82.8809H69.9649V82.8761C70.1929 82.8792 70.4227 82.8808 70.6544 82.8808C86.5148 82.8808 93.8708 75.5182 93.8708 59.6644Z" fill="#FF0077"></path>
<path fill-rule="evenodd" clip-rule="evenodd" d="M30.0159 11.6453C34.7572 6.90296 41.6426 4.95691 50.0469 4.95691C58.4511 4.95691 65.3365 6.90296 70.0779 11.6453C74.8191 16.3876 76.7633 23.2728 76.7633 31.6733V41.9813H69.7633V31.6733C69.7633 24.2201 68.0295 19.4971 65.1276 16.5946C62.2258 13.6922 57.5031 11.9569 50.0469 11.9569C42.5907 11.9569 37.8679 13.6922 34.9661 16.5946C32.0642 19.4971 30.3304 24.2201 30.3304 31.6733V41.9813H23.3304V31.6733C23.3304 23.2728 25.2747 16.3876 30.0159 11.6453Z" fill="black"></path>
<path fill-rule="evenodd" clip-rule="evenodd" d="M53.547 54.7098C53.547 52.7768 51.98 51.2098 50.047 51.2098C48.114 51.2098 46.547 52.7768 46.547 54.7098V56.8521H44.405C42.472 56.8521 40.905 58.4191 40.905 60.3521C40.905 62.2851 42.472 63.8521 44.405 63.8521H46.547V65.9943C46.547 67.9273 48.114 69.4943 50.047 69.4943C51.98 69.4943 53.547 67.9273 53.547 65.9943V63.8521H55.6896C57.6226 63.8521 59.1896 62.2851 59.1896 60.3521C59.1896 58.4191 57.6226 56.8521 55.6896 56.8521H53.547V54.7098Z" fill="white"></path>
<path fill-rule="evenodd" clip-rule="evenodd" d="M35.9731 60.3521C35.9731 62.285 34.4061 63.8521 32.4731 63.8521L21.1886 63.8521C19.2556 63.8521 17.6886 62.285 17.6886 60.352C17.6886 58.4191 19.2556 56.8521 21.1886 56.8521L32.4731 56.8521C34.4061 56.8521 35.9731 58.4191 35.9731 60.3521Z" fill="white"></path>
</svg>