<svg width="100" height="100" viewBox="0 0 100 100" fill="none" xmlns="http://www.w3.org/2000/svg">
<path fill-rule="evenodd" clip-rule="evenodd" d="M95 50C95 19.2708 80.742 5 50 5C19.258 5 5 19.2708 5 50C5 80.7292 19.258 95 50 95C80.742 95 95 80.7292 95 50ZM57 29.6858C57 24.5643 54.6237 22.1858 49.5 22.1858C44.3763 22.1858 42 24.5643 42 29.6858C42 29.7378 42.0002 29.7895 42.0007 29.841H42V50.6534V50.6535C42 55.775 44.3764 58.1534 49.5 58.1534C54.6236 58.1534 57 55.775 57 50.6535V50.6534V29.841H56.9993L56.9998 29.7697L57 29.6858ZM49.5 62.3899C54.6237 62.3899 57 64.7684 57 69.8899C57 75.0114 54.6237 77.3899 49.5 77.3899C44.3763 77.3899 42 75.0114 42 69.8899C42 64.7684 44.3763 62.3899 49.5 62.3899Z" fill="#FF0077"></path>
<path fill-rule="evenodd" clip-rule="evenodd" d="M57 29.6858C57 24.5643 54.6237 22.1858 49.5 22.1858C44.3763 22.1858 42 24.5643 42 29.6858C42 29.7378 42.0002 29.7895 42.0007 29.841H42V50.6534C42 50.6534 42 50.6535 42 50.6535C42 55.775 44.3764 58.1534 49.5 58.1534C54.6236 58.1534 57 55.775 57 50.6535C57 50.6535 57 50.6534 57 50.6534V29.841H56.9993C56.9998 29.7895 57 29.7378 57 29.6858Z" fill="white"></path>
<path fill-rule="evenodd" clip-rule="evenodd" d="M57 69.8899C57 64.7684 54.6237 62.3899 49.5 62.3899C44.3763 62.3899 42 64.7684 42 69.8899C42 75.0114 44.3763 77.3899 49.5 77.3899C54.6237 77.3899 57 75.0114 57 69.8899Z" fill="white"></path>
</svg>