<svg width="100" height="100" viewBox="0 0 100 100" fill="none" xmlns="http://www.w3.org/2000/svg">
<path d="M90.6364 39.2239H86.8178V32.6122C86.8178 30.1767 84.8651 28.2041 82.4541 28.2041H9.36363C6.9527 28.2041 5 30.1767 5 32.6122V73.3878C5 75.8233 6.9527 77.7959 9.36363 77.7959H82.4541C84.8651 77.7959 86.8178 75.8233 86.8178 73.3878V66.7761H90.6364C93.0473 66.7761 95 64.8035 95 62.368V43.6331C95 41.1976 93.0473 39.225 90.6364 39.225V39.2239Z" fill="black"></path>
<rect x="12" y="36" width="13" height="36" rx="2" fill="#FF0077"></rect>
<rect x="46" y="36" width="13" height="36" rx="2" fill="#FF0077"></rect>
<rect x="29" y="36" width="13" height="36" rx="2" fill="#FF0077"></rect>
<rect x="63" y="36" width="13" height="36" rx="2" fill="#FF0077"></rect>
</svg>