<svg width="100" height="100" viewBox="0 0 100 100" fill="none" xmlns="http://www.w3.org/2000/svg">
<path fill-rule="evenodd" clip-rule="evenodd" d="M87.7446 57.2551C87.7446 31.4803 75.7854 19.5103 49.9998 19.5103C24.2142 19.5103 12.2549 31.4803 12.2549 57.2551C12.2549 83.03 24.2142 95 49.9998 95C75.7854 95 87.7446 83.03 87.7446 57.2551Z" fill="#FF0077"></path>
<path d="M50 28.4683C69.6657 28.4683 78.7866 37.5974 78.7866 57.2549H50V28.4683Z" fill="white"></path>
<path fill-rule="evenodd" clip-rule="evenodd" d="M54.5 5.5V24.3801H45.5V5.5H54.5Z" fill="#FF0077"></path>
<path fill-rule="evenodd" clip-rule="evenodd" d="M59.9688 9.5C59.9688 11.9853 57.954 14 55.4688 14L44.5312 14C42.046 14 40.0312 11.9853 40.0312 9.5C40.0312 7.01472 42.046 5 44.5312 5L55.4688 5C57.954 5 59.9688 7.01472 59.9688 9.5Z" fill="#FF0077"></path>
<path fill-rule="evenodd" clip-rule="evenodd" d="M84.7954 19.8757L74.8082 32.6668L67.7144 27.128L77.7017 14.3369L84.7954 19.8757Z" fill="#FF0077"></path>
<path fill-rule="evenodd" clip-rule="evenodd" d="M86.6442 26.3941C85.1147 28.3529 82.2868 28.701 80.3279 27.1715L71.707 20.4404C69.7481 18.9109 69.4 16.083 70.9295 14.1241C72.459 12.1652 75.2869 11.8171 77.2458 13.3466L85.8667 20.0778C87.8256 21.6073 88.1737 24.4352 86.6442 26.3941Z" fill="#FF0077"></path>
</svg>