<svg width="100" height="100" viewBox="0 0 100 100" fill="none" xmlns="http://www.w3.org/2000/svg">
<path fill-rule="evenodd" clip-rule="evenodd" d="M95.0001 35.0088C95.0001 46.7505 89.5494 52.1963 77.8126 52.1963C77.4128 52.1963 77.0203 52.19 76.635 52.1773C76.3936 38.3549 71.8607 29.4632 62.6074 25.0659C65.1365 20.1566 70.1267 17.8213 77.8126 17.8213C89.5494 17.8213 95.0001 23.2671 95.0001 35.0088Z" fill="#FF0077"></path>
<path d="M95.0001 79.6873C95.0001 63.5085 87.4897 56.0049 71.3177 56.0049C55.1457 56.0049 47.6353 63.5085 47.6353 79.6873L95.0001 79.6873Z" fill="black"></path>
<path d="M70.0002 53.5003C70.0002 36.4719 62.0954 28.5742 45.0741 28.5742C28.0528 28.5742 20.1481 36.4719 20.1481 53.5003L20.148 79.5L70.0002 79.5L70.0002 53.5003Z" fill="black"></path>
<path d="M42.5305 70.9612C42.5305 58.1417 36.5795 52.196 23.7653 52.196C10.9511 52.196 5.0001 58.1417 5.0001 70.9612L5.00006 79.6875L42.5305 79.6875L42.5305 70.9612Z" fill="black"></path>
</svg>