<svg width="100" height="100" viewBox="0 0 100 100" fill="none" xmlns="http://www.w3.org/2000/svg">
<path fill-rule="evenodd" clip-rule="evenodd" d="M30.1002 9.90755C35.2905 6.46403 42.0153 4.98022 50 4.98022C59.9169 4.98022 67.9094 7.27738 73.3797 12.7489C78.8499 18.2202 81.1449 26.2126 81.1449 36.1251V54.5398H74.1449V36.1251C74.1449 27.1598 72.0603 21.3297 68.4294 17.6981C64.7987 14.0666 58.9688 11.9802 50 11.9802C42.7898 11.9802 37.5974 13.334 33.9701 15.7405C30.4356 18.0855 28.0127 21.6782 26.7783 26.9967C26.3413 28.8797 24.4606 30.0518 22.5777 29.6148C20.6947 29.1779 19.5226 27.2972 19.9596 25.4142C21.5218 18.6826 24.817 13.4127 30.1002 9.90755Z" fill="white"></path>
<path fill-rule="evenodd" clip-rule="evenodd" d="M84.0427 60.9574C84.0427 37.7107 73.2565 26.9148 50.0001 26.9148C26.7437 26.9148 15.9575 37.7107 15.9575 60.9574C15.9575 84.2041 26.7437 95 50.0001 95C73.2565 95 84.0427 84.2041 84.0427 60.9574Z" fill="#FF0077"></path>
<path fill-rule="evenodd" clip-rule="evenodd" d="M50 48.4207C56.6114 48.4207 59.6777 51.4897 59.6777 58.0984C59.6777 63.4044 57.7011 66.4287 53.5 67.4148L53.5 80.481C53.5 82.414 51.933 83.981 50 83.981C48.067 83.981 46.5 82.414 46.5 80.481L46.5 67.4148C42.2989 66.4287 40.3223 63.4044 40.3223 58.0984C40.3223 51.4897 43.3886 48.4207 50 48.4207Z" fill="black"></path>
</svg>