<svg width="100" height="100" viewBox="0 0 100 100" fill="none" xmlns="http://www.w3.org/2000/svg">
<path fill-rule="evenodd" clip-rule="evenodd" d="M95 50C95 19.2708 80.742 5 50 5C19.258 5 5 19.2708 5 50C5 80.7292 19.258 95 50 95C80.742 95 95 80.7292 95 50Z" fill="white"></path>
<path fill-rule="evenodd" clip-rule="evenodd" d="M53.3779 5L53.3779 21.9703L46.3779 21.9703L46.3779 5L53.3779 5Z" fill="#FF0077"></path>
<path fill-rule="evenodd" clip-rule="evenodd" d="M53.3779 81.0355L53.3779 94.9999L46.3779 94.9999L46.3779 81.0355L53.3779 81.0355Z" fill="#FF0077"></path>
<mask id="path-4-inside-1_6502_2919" fill="white">
<path fill-rule="evenodd" clip-rule="evenodd" d="M67.1898 50.0698C67.1898 38.3312 61.7433 32.8798 49.9998 32.8798C38.2564 32.8798 32.8098 38.3312 32.8098 50.0698C32.8098 61.8083 38.2564 67.2598 49.9998 67.2598C61.7433 67.2598 67.1898 61.8083 67.1898 50.0698Z"></path>
</mask>
<path d="M74.1898 50.0698C74.1898 43.2532 72.6178 36.7935 67.9489 32.1236C63.2797 27.4534 56.8196 25.8798 49.9998 25.8798V39.8798C54.9235 39.8798 57.0584 41.0318 58.0483 42.022C59.0386 43.0125 60.1898 45.1478 60.1898 50.0698H74.1898ZM49.9998 25.8798C43.1801 25.8798 36.7199 27.4534 32.0507 32.1236C27.3819 36.7935 25.8098 43.2532 25.8098 50.0698H39.8098C39.8098 45.1478 40.961 43.0125 41.9513 42.022C42.9413 41.0318 45.0761 39.8798 49.9998 39.8798V25.8798ZM25.8098 50.0698C25.8098 56.8863 27.3819 63.3461 32.0507 68.0159C36.7199 72.6861 43.1801 74.2598 49.9998 74.2598V60.2598C45.0761 60.2598 42.9413 59.1077 41.9513 58.1175C40.961 57.127 39.8098 54.9918 39.8098 50.0698H25.8098ZM49.9998 74.2598C56.8196 74.2598 63.2797 72.6861 67.9489 68.0159C72.6178 63.3461 74.1898 56.8863 74.1898 50.0698H60.1898C60.1898 54.9918 59.0386 57.127 58.0483 58.1175C57.0584 59.1077 54.9235 60.2598 49.9998 60.2598V74.2598Z" fill="#FF0077" mask="url(#path-4-inside-1_6502_2919)"></path>
<mask id="path-6-inside-2_6502_2919" fill="white">
<path fill-rule="evenodd" clip-rule="evenodd" d="M83.7195 50.0696C83.7195 27.0436 73.0357 16.3501 50 16.3501C26.9644 16.3501 16.2805 27.0436 16.2805 50.0696C16.2805 73.0956 26.9644 83.7891 50 83.7891C73.0357 83.7891 83.7195 73.0956 83.7195 50.0696Z"></path>
</mask>
<path d="M90.7195 50.0696C90.7195 37.6093 87.8381 27.0172 80.4484 19.6259C73.0584 12.2343 62.4659 9.3501 50 9.3501V23.3501C60.5698 23.3501 66.837 25.8127 70.5478 29.5243C74.2589 33.2362 76.7195 39.5038 76.7195 50.0696H90.7195ZM50 9.3501C37.5342 9.3501 26.9416 12.2343 19.5516 19.6259C12.1619 27.0172 9.28052 37.6093 9.28052 50.0696H23.2805C23.2805 39.5038 25.7411 33.2362 29.4522 29.5243C33.163 25.8127 39.4302 23.3501 50 23.3501V9.3501ZM9.28052 50.0696C9.28052 62.5299 12.1619 73.122 19.5516 80.5133C26.9416 87.9049 37.5342 90.7891 50 90.7891V76.7891C39.4302 76.7891 33.163 74.3265 29.4522 70.6149C25.7411 66.903 23.2805 60.6353 23.2805 50.0696H9.28052ZM50 90.7891C62.4659 90.7891 73.0584 87.9049 80.4484 80.5133C87.8381 73.122 90.7195 62.5299 90.7195 50.0696H76.7195C76.7195 60.6353 74.2589 66.903 70.5478 70.6149C66.837 74.3265 60.5698 76.7891 50 76.7891V90.7891Z" fill="#FF0077" mask="url(#path-6-inside-2_6502_2919)"></path>
<path fill-rule="evenodd" clip-rule="evenodd" d="M36.4222 53.5488L5 53.5488L5 46.5488L36.4222 46.5488L36.4222 53.5488Z" fill="#FF0077"></path>
<path fill-rule="evenodd" clip-rule="evenodd" d="M95 53.549H81.1619V46.549H95V53.549Z" fill="#FF0077"></path>
<path fill-rule="evenodd" clip-rule="evenodd" d="M49.8779 49.3253C51.8109 49.3253 53.3779 50.8923 53.3779 52.8253L53.3779 63.845L46.3779 63.845L46.3779 52.8253C46.3779 50.8923 47.9449 49.3253 49.8779 49.3253Z" fill="#FF0077"></path>
</svg>