<svg width="100" height="100" viewBox="0 0 100 100" fill="none" xmlns="http://www.w3.org/2000/svg">
<path fill-rule="evenodd" clip-rule="evenodd" d="M46.5 8.375C46.5 6.442 48.067 4.875 50 4.875C64.6922 4.875 76.1798 8.28053 83.9513 16.0537C91.7226 23.8268 95.125 35.3141 95.125 50C95.125 51.933 93.558 53.5 91.625 53.5C89.692 53.5 88.125 51.933 88.125 50C88.125 36.2614 84.933 26.9363 79.001 21.0029C73.0691 15.0697 63.7442 11.875 50 11.875C48.067 11.875 46.5 10.308 46.5 8.375Z" fill="white"></path>
<path fill-rule="evenodd" clip-rule="evenodd" d="M46.5 20.25C46.5 18.317 48.067 16.75 50 16.75C60.6359 16.75 69.1548 19.214 74.9716 25.0321C80.7883 30.8501 83.25 39.3687 83.25 50C83.25 51.933 81.683 53.5 79.75 53.5C77.817 53.5 76.25 51.933 76.25 50C76.25 40.3159 73.9987 33.9596 70.0213 29.9813C66.0441 26.0033 59.6879 23.75 50 23.75C48.067 23.75 46.5 22.183 46.5 20.25Z" fill="white"></path>
<path d="M44.1573 55.8846C38.6313 50.3586 34.475 44.1714 31.6883 37.8897C31.1216 36.5672 31.4522 35.0086 32.4913 33.9695L36.3642 30.0966C39.5286 26.9322 39.5286 22.4452 36.742 19.6586L31.216 14.1326C27.532 10.4486 21.5337 10.4486 17.8497 14.1326L14.7797 17.2026C11.2847 20.6977 9.8205 25.7514 10.7651 30.7578C13.0794 43.0851 20.2585 56.5931 31.83 68.1646C43.4016 79.7361 56.9096 86.9152 69.2368 89.2295C74.2432 90.1741 79.2969 88.71 82.792 85.2149L85.862 82.1449C89.546 78.4609 89.546 72.4626 85.862 68.7786L80.336 63.2526C77.5494 60.466 73.0625 60.466 70.3231 63.2526L66.0723 67.5034C65.0332 68.5424 63.4746 68.8731 62.1522 68.3063C55.8705 65.5197 49.6833 61.3634 44.1573 55.8374V55.8846Z" fill="#FF0077"></path>
</svg>