<svg width="100" height="100" viewBox="0 0 100 100" fill="none" xmlns="http://www.w3.org/2000/svg">
<path fill-rule="evenodd" clip-rule="evenodd" d="M76.4889 38.5316C76.4889 20.4434 68.0961 12.043 50.0003 12.043C31.9045 12.043 23.5117 20.4434 23.5117 38.5316L23.5117 90.8897C23.5117 93.0988 25.3026 94.8897 27.5117 94.8897L72.4889 94.8897C74.6981 94.8897 76.4889 93.0988 76.4889 90.8897L76.4889 38.5316ZM50.0006 19.0059C56.1051 19.0059 58.9363 21.8397 58.9363 27.9416C58.9363 34.0435 56.1051 36.8773 50.0006 36.8773C43.8962 36.8773 41.0649 34.0435 41.0649 27.9416C41.0649 21.8397 43.8962 19.0059 50.0006 19.0059Z" fill="white"></path>
<path fill-rule="evenodd" clip-rule="evenodd" d="M47.5356 27.9976C46.1688 26.6308 46.1688 24.4147 47.5356 23.0479L64.4055 6.17802C65.7723 4.81118 67.9884 4.81118 69.3552 6.17802C70.7221 7.54485 70.7221 9.76093 69.3552 11.1278L52.4854 27.9976C51.1185 29.3645 48.9024 29.3645 47.5356 27.9976Z" fill="#FF0077"></path>
</svg>