<svg width="100" height="100" viewBox="0 0 100 100" fill="none" xmlns="http://www.w3.org/2000/svg">
<path fill-rule="evenodd" clip-rule="evenodd" d="M54.3126 30.9063C54.3126 23.2453 57.8672 19.6875 65.5314 19.6875C73.1955 19.6875 76.7501 23.2453 76.7501 30.9063C76.7501 38.5672 73.1955 42.125 65.5314 42.125C57.8672 42.125 54.3126 38.5672 54.3126 30.9063Z" fill="#FF0077"></path>
<path d="M54.3126 68.9062V31.4375L75.3439 24.1562L91.8282 53.8125L54.3126 68.9062Z" fill="#FF0077"></path>
<rect x="42.8751" y="19.6875" width="14.25" height="51.8438" fill="#FF0077"></rect>
<path d="M59.2119 12.043L54.5475 12.043C53.4429 12.043 52.5488 12.9384 52.5488 14.043V24.6875H65.8751V18.7062C65.8751 14.1561 63.7639 12.043 59.2119 12.043Z" fill="#FF0077"></path>
<path fill-rule="evenodd" clip-rule="evenodd" d="M45.3126 30.9063C45.3126 23.2453 41.758 19.6875 34.0939 19.6875C26.4297 19.6875 22.8751 23.2453 22.8751 30.9063C22.8751 38.5672 26.4297 42.125 34.0939 42.125C41.758 42.125 45.3126 38.5672 45.3126 30.9063Z" fill="#FF0077"></path>
<path d="M45.3126 68.9062V31.4375L24.2814 24.1562L7.00012 55.875L45.3126 68.9062Z" fill="#FF0077"></path>
<rect width="14.25" height="51.8438" transform="matrix(-1 0 0 1 56.7501 19.6875)" fill="#FF0077"></rect>
<path d="M40.4133 12.043L45.0778 12.043C46.1824 12.043 47.0765 12.9384 47.0765 14.043V24.6875H33.7501V18.7062C33.7501 14.1561 35.8613 12.043 40.4133 12.043Z" fill="#FF0077"></path>
<path fill-rule="evenodd" clip-rule="evenodd" d="M54.3125 72.75C54.3125 69.8158 52.951 68.4531 50.0156 68.4531C47.0802 68.4531 45.7188 69.8158 45.7188 72.75C45.7188 75.6842 47.0802 77.0469 50.0156 77.0469C52.951 77.0469 54.3125 75.6842 54.3125 72.75Z" fill="white"></path>
<path fill-rule="evenodd" clip-rule="evenodd" d="M40.5625 39.1562C40.5625 37.2233 42.1295 35.6562 44.0625 35.6562H55.9375C57.8705 35.6562 59.4375 37.2233 59.4375 39.1562C59.4375 41.0892 57.8705 42.6562 55.9375 42.6562H44.0625C42.1295 42.6562 40.5625 41.0892 40.5625 39.1562Z" fill="black"></path>
<mask id="path-11-inside-1_6502_6877" fill="white">
<path fill-rule="evenodd" clip-rule="evenodd" d="M46 67.0313C46 53.0324 39.5047 46.5312 25.5 46.5312C11.4953 46.5312 5 53.0324 5 67.0313C5 81.0301 11.4953 87.5313 25.5 87.5313C39.5047 87.5313 46 81.0301 46 67.0313Z"></path>
</mask>
<path fill-rule="evenodd" clip-rule="evenodd" d="M46 67.0313C46 53.0324 39.5047 46.5312 25.5 46.5312C11.4953 46.5312 5 53.0324 5 67.0313C5 81.0301 11.4953 87.5313 25.5 87.5313C39.5047 87.5313 46 81.0301 46 67.0313Z" fill="white"></path>
<path d="M53 67.0313C53 59.0846 51.1658 51.7973 45.952 46.5825C40.738 41.3673 33.4504 39.5312 25.5 39.5312V53.5312C31.5543 53.5312 34.5167 54.9458 36.0515 56.4809C37.5866 58.0163 39 60.9791 39 67.0313H53ZM25.5 39.5312C17.5496 39.5312 10.262 41.3673 5.04796 46.5825C-0.165761 51.7973 -2 59.0846 -2 67.0313H12C12 60.9791 13.4134 58.0163 14.9485 56.4809C16.4833 54.9458 19.4457 53.5312 25.5 53.5312V39.5312ZM-2 67.0313C-2 74.9779 -0.165761 82.2652 5.04796 87.48C10.262 92.6952 17.5496 94.5313 25.5 94.5313V80.5313C19.4457 80.5313 16.4833 79.1168 14.9485 77.5816C13.4134 76.0462 12 73.0834 12 67.0313H-2ZM25.5 94.5313C33.4504 94.5313 40.738 92.6952 45.952 87.48C51.1658 82.2652 53 74.9779 53 67.0313H39C39 73.0834 37.5866 76.0462 36.0515 77.5816C34.5167 79.1168 31.5543 80.5313 25.5 80.5313V94.5313Z" fill="#FF0077" mask="url(#path-11-inside-1_6502_6877)"></path>
<mask id="path-13-inside-2_6502_6877" fill="white">
<path fill-rule="evenodd" clip-rule="evenodd" d="M95 67.0313C95 53.0324 88.5047 46.5312 74.5 46.5312C60.4953 46.5312 54 53.0324 54 67.0313C54 81.0301 60.4953 87.5313 74.5 87.5313C88.5047 87.5313 95 81.0301 95 67.0313Z"></path>
</mask>
<path fill-rule="evenodd" clip-rule="evenodd" d="M95 67.0313C95 53.0324 88.5047 46.5312 74.5 46.5312C60.4953 46.5312 54 53.0324 54 67.0313C54 81.0301 60.4953 87.5313 74.5 87.5313C88.5047 87.5313 95 81.0301 95 67.0313Z" fill="white"></path>
<path d="M102 67.0313C102 59.0846 100.166 51.7973 94.952 46.5825C89.738 41.3673 82.4504 39.5312 74.5 39.5312V53.5312C80.5543 53.5312 83.5167 54.9458 85.0515 56.4809C86.5866 58.0163 88 60.9791 88 67.0313H102ZM74.5 39.5312C66.5496 39.5312 59.262 41.3673 54.048 46.5825C48.8342 51.7973 47 59.0846 47 67.0313H61C61 60.9791 62.4134 58.0163 63.9485 56.4809C65.4833 54.9458 68.4457 53.5312 74.5 53.5312V39.5312ZM47 67.0313C47 74.9779 48.8342 82.2652 54.048 87.48C59.262 92.6952 66.5496 94.5313 74.5 94.5313V80.5313C68.4457 80.5313 65.4833 79.1168 63.9485 77.5816C62.4134 76.0462 61 73.0834 61 67.0313H47ZM74.5 94.5313C82.4504 94.5313 89.738 92.6952 94.952 87.48C100.166 82.2652 102 74.9779 102 67.0313H88C88 73.0834 86.5866 76.0462 85.0515 77.5816C83.5167 79.1168 80.5543 80.5313 74.5 80.5313V94.5313Z" fill="#FF0077" mask="url(#path-13-inside-2_6502_6877)"></path>
</svg>