<svg width="100" height="100" viewBox="0 0 100 100" fill="none" xmlns="http://www.w3.org/2000/svg">
<path d="M43.8344 92.15C38.0498 95.4898 33.8138 94.3568 30.4727 88.5697L47.4147 78.7883C50.7558 84.5753 49.619 88.8103 43.8344 92.15Z" fill="white"></path>
<rect x="30.4727" y="88.5697" width="26.1025" height="19.563" transform="rotate(-120 30.4727 88.5697)" fill="white"></rect>
<path d="M5.16602 48.9709C5.16602 34.8025 11.74 28.2227 25.9142 28.2227V69.7191C11.74 69.7191 5.16602 63.1392 5.16602 48.9709Z" fill="#FF0077"></path>
<path d="M94.834 47.3799C94.834 56.5449 90.5815 60.8013 81.4126 60.8013L81.4126 33.9585C90.5815 33.9585 94.834 38.2148 94.834 47.3799Z" fill="white"></path>
<rect x="25.9146" y="28.2227" width="34.9504" height="41.4964" fill="#FF0077"></rect>
<path fill-rule="evenodd" clip-rule="evenodd" d="M48.1674 28.2225C47.5888 28.2225 47.0205 28.2137 46.4624 28.1959V69.7456C47.0205 69.7278 47.5888 69.719 48.1673 69.719C62.899 69.719 70.986 75.4753 73.172 87.7449H81.4128V5H73.7307C73.0037 20.8475 64.8421 28.2225 48.1674 28.2225Z" fill="#FF0077"></path>
</svg>