<svg width="100" height="100" viewBox="0 0 100 100" fill="none" xmlns="http://www.w3.org/2000/svg">
<path d="M50 49.9655C80.742 49.9655 95 64.2473 95 95L5 95C5 64.2473 19.258 49.9655 50 49.9655Z" fill="black"></path>
<path d="M50 50.0345C19.258 50.0345 5.00001 35.7527 5.00001 5.00002L95 5.00003C95 35.7528 80.742 50.0345 50 50.0345Z" fill="white"></path>
<path d="M50 49.9655C80.742 49.9655 95 64.2473 95 95L5 95C5 64.2473 19.258 49.9655 50 49.9655Z" fill="white"></path>
<path d="M50.0001 49.9756L87.9483 94.9999H12.052L50.0001 49.9756Z" fill="black"></path>
<path d="M50.0001 50.0499L28.9894 25.256L71.0107 25.256L50.0001 50.0499Z" fill="black"></path>
</svg>