<svg width="100" height="100" viewBox="0 0 100 100" fill="none" xmlns="http://www.w3.org/2000/svg">
<mask id="path-1-inside-1_6502_6988" fill="white">
<path fill-rule="evenodd" clip-rule="evenodd" d="M47.3702 50C47.3702 36.3016 41.0142 29.9399 27.3101 29.9399C13.6059 29.9399 7.25 36.3016 7.25 50C7.25 63.6985 13.6059 70.0601 27.3101 70.0601C41.0142 70.0601 47.3702 63.6985 47.3702 50Z"></path>
</mask>
<path fill-rule="evenodd" clip-rule="evenodd" d="M47.3702 50C47.3702 36.3016 41.0142 29.9399 27.3101 29.9399C13.6059 29.9399 7.25 36.3016 7.25 50C7.25 63.6985 13.6059 70.0601 27.3101 70.0601C41.0142 70.0601 47.3702 63.6985 47.3702 50Z" fill="white"></path>
<path d="M54.3702 50C54.3702 42.2035 52.5708 35.0263 47.4295 29.8839C42.2879 24.7411 35.1102 22.9399 27.3101 22.9399V36.9399C33.2141 36.9399 36.0665 38.3196 37.5289 39.7823C38.9916 41.2453 40.3702 44.0981 40.3702 50H54.3702ZM27.3101 22.9399C19.51 22.9399 12.3323 24.7411 7.1907 29.8839C2.04939 35.0263 0.25 42.2035 0.25 50H14.25C14.25 44.0981 15.6286 41.2453 17.0913 39.7823C18.5537 38.3196 21.406 36.9399 27.3101 36.9399V22.9399ZM0.25 50C0.25 57.7965 2.04939 64.9738 7.1907 70.1162C12.3323 75.2589 19.51 77.0601 27.3101 77.0601V63.0601C21.406 63.0601 18.5537 61.6805 17.0913 60.2178C15.6286 58.7548 14.25 55.902 14.25 50H0.25ZM27.3101 77.0601C35.1102 77.0601 42.2879 75.2589 47.4295 70.1162C52.5708 64.9738 54.3702 57.7965 54.3702 50H40.3702C40.3702 55.902 38.9916 58.7548 37.5289 60.2178C36.0665 61.6805 33.2141 63.0601 27.3101 63.0601V77.0601Z" fill="#FF0077" mask="url(#path-1-inside-1_6502_6988)"></path>
<mask id="path-3-inside-2_6502_6988" fill="white">
<path fill-rule="evenodd" clip-rule="evenodd" d="M92.75 50C92.75 36.3016 86.3941 29.9399 72.6899 29.9399C58.9858 29.9399 52.6298 36.3016 52.6298 50C52.6298 63.6985 58.9858 70.0601 72.6899 70.0601C86.3941 70.0601 92.75 63.6985 92.75 50Z"></path>
</mask>
<path fill-rule="evenodd" clip-rule="evenodd" d="M92.75 50C92.75 36.3016 86.3941 29.9399 72.6899 29.9399C58.9858 29.9399 52.6298 36.3016 52.6298 50C52.6298 63.6985 58.9858 70.0601 72.6899 70.0601C86.3941 70.0601 92.75 63.6985 92.75 50Z" fill="white"></path>
<path d="M99.75 50C99.75 42.2035 97.9506 35.0263 92.8093 29.8839C87.6677 24.7411 80.49 22.9399 72.6899 22.9399V36.9399C78.5939 36.9399 81.4463 38.3196 82.9087 39.7823C84.3714 41.2453 85.75 44.0981 85.75 50H99.75ZM72.6899 22.9399C64.8898 22.9399 57.7121 24.7411 52.5705 29.8839C47.4292 35.0263 45.6298 42.2035 45.6298 50H59.6298C59.6298 44.0981 61.0084 41.2453 62.4711 39.7823C63.9335 38.3196 66.7859 36.9399 72.6899 36.9399V22.9399ZM45.6298 50C45.6298 57.7965 47.4292 64.9738 52.5705 70.1162C57.7121 75.2589 64.8898 77.0601 72.6899 77.0601V63.0601C66.7859 63.0601 63.9335 61.6805 62.4711 60.2178C61.0084 58.7548 59.6298 55.902 59.6298 50H45.6298ZM72.6899 77.0601C80.49 77.0601 87.6677 75.2589 92.8093 70.1162C97.9506 64.9738 99.75 57.7965 99.75 50H85.75C85.75 55.902 84.3714 58.7548 82.9087 60.2178C81.4463 61.6805 78.5939 63.0601 72.6899 63.0601V77.0601Z" fill="#FF0077" mask="url(#path-3-inside-2_6502_6988)"></path>
<path fill-rule="evenodd" clip-rule="evenodd" d="M5 46.5625H12.4375V53.5625H5V46.5625Z" fill="#FF0077"></path>
<path fill-rule="evenodd" clip-rule="evenodd" d="M87.5625 46.5625H95V53.5625H87.5625V46.5625Z" fill="#FF0077"></path>
<path fill-rule="evenodd" clip-rule="evenodd" d="M56.972 43.8838H43.0278V54.0361H47.168C47.168 54.0345 47.168 54.0329 47.168 54.0312C47.168 52.0973 48.0653 51.1992 50 51.1992C51.9347 51.1992 52.832 52.0973 52.832 54.0312C52.832 54.0329 52.832 54.0345 52.832 54.0361H56.972V43.8838Z" fill="#FF0077"></path>
</svg>