<svg width="100" height="100" viewBox="0 0 100 100" fill="none" xmlns="http://www.w3.org/2000/svg">
<rect x="5" y="5" width="90" height="90" rx="4" fill="white"></rect>
<path d="M5 9C5 6.79086 6.79086 5 9 5H91C93.2091 5 95 6.79086 95 9V19.5312H5V9Z" fill="black"></path>
<path fill-rule="evenodd" clip-rule="evenodd" d="M17.2412 12.2551C17.2412 9.42486 15.9291 8.11047 13.1001 8.11047C10.2711 8.11047 8.95898 9.42486 8.95898 12.2551C8.95898 15.0853 10.2711 16.3997 13.1001 16.3997C15.9291 16.3997 17.2412 15.0853 17.2412 12.2551Z" fill="white"></path>
<path fill-rule="evenodd" clip-rule="evenodd" d="M27.7256 12.2552C27.7256 9.42498 26.4135 8.1106 23.5845 8.1106C20.7555 8.1106 19.4434 9.42498 19.4434 12.2552C19.4434 15.0855 20.7555 16.3999 23.5845 16.3999C26.4135 16.3999 27.7256 15.0855 27.7256 12.2552Z" fill="white"></path>
<path fill-rule="evenodd" clip-rule="evenodd" d="M38.2105 12.2551C38.2105 9.42486 36.8984 8.11047 34.0694 8.11047C31.2403 8.11047 29.9282 9.42486 29.9282 12.2551C29.9282 15.0853 31.2403 16.3997 34.0694 16.3997C36.8984 16.3997 38.2105 15.0853 38.2105 12.2551Z" fill="white"></path>
<rect x="12.2656" y="49.9708" width="20.9665" height="37.7742" rx="2" fill="#FF0077"></rect>
<rect x="39.522" y="65.6062" width="20.9665" height="22.1389" rx="2" fill="#FF0077"></rect>
<rect x="66.7784" y="30.3091" width="20.9665" height="57.4358" rx="2" fill="#FF0077"></rect>
</svg>