<svg width="100" height="100" viewBox="0 0 100 100" fill="none" xmlns="http://www.w3.org/2000/svg">
<rect x="30.0002" y="5" width="40" height="90" rx="2" fill="black"></rect>
<path fill-rule="evenodd" clip-rule="evenodd" d="M91.34 30.4138C91.34 27.8651 90.1574 26.6814 87.6076 26.6814C85.0578 26.6814 83.8752 27.8651 83.8752 30.4138H91.34ZM83.8751 40.543C83.8751 43.0918 85.0577 44.2754 87.6075 44.2754C90.1573 44.2754 91.3399 43.0918 91.3399 40.543V30.4138H83.8751V40.543Z" fill="#FF0077"></path>
<rect x="83.8751" y="12.2551" width="75.4897" height="67.75" rx="12" transform="rotate(90 83.8751 12.2551)" fill="#FF0077"></rect>
<path fill-rule="evenodd" clip-rule="evenodd" d="M46.5001 33.4062C46.5001 31.4733 48.0671 29.9062 50.0001 29.9062C56.1422 29.9062 61.372 31.3272 65.0232 34.9793C68.6743 38.6311 70.0939 43.8607 70.0939 50C70.0939 56.1393 68.6743 61.3689 65.0232 65.0207C61.372 68.6728 56.1422 70.0938 50.0001 70.0938C43.8581 70.0938 38.6283 68.6728 34.9771 65.0207C31.326 61.3689 29.9064 56.1393 29.9064 50C29.9064 48.067 31.4734 46.5 33.4064 46.5C35.3394 46.5 36.9064 48.067 36.9064 50C36.9064 55.1921 38.1156 58.2594 39.9274 60.0715C41.739 61.8836 44.8061 63.0938 50.0001 63.0938C55.1942 63.0938 58.2613 61.8836 60.0729 60.0715C61.8847 58.2594 63.0939 55.1921 63.0939 50C63.0939 44.8079 61.8847 41.7406 60.0729 39.9285C58.2613 38.1164 55.1942 36.9062 50.0001 36.9062C48.0671 36.9062 46.5001 35.3392 46.5001 33.4062Z" fill="white"></path>
</svg>