<svg width="100" height="100" viewBox="0 0 100 100" fill="none" xmlns="http://www.w3.org/2000/svg">
<path fill-rule="evenodd" clip-rule="evenodd" d="M5.00586 11.6073C5.00586 8.01091 7.92059 5.09546 11.5161 5.09546H36.4963C38.4324 5.09546 40.0018 6.66532 40.0018 8.60184C40.0018 10.5384 38.4324 12.1082 36.4963 12.1082H12.0169V36.4566C12.0169 38.3931 10.4474 39.963 8.51137 39.963C6.57533 39.963 5.00586 38.3931 5.00586 36.4566V11.6073Z" fill="black"></path>
<path fill-rule="evenodd" clip-rule="evenodd" d="M95.0059 88.5837C95.0059 92.1801 92.0911 95.0956 88.4956 95.0956L63.5154 95.0956C61.5794 95.0956 60.0099 93.5257 60.0099 91.5892C60.0099 89.6527 61.5794 88.0828 63.5154 88.0828L87.9948 88.0828L87.9949 63.7344C87.9949 61.7979 89.5643 60.2281 91.5004 60.2281C93.4364 60.2281 95.0059 61.7979 95.0059 63.7344L95.0059 88.5837Z" fill="black"></path>
<path fill-rule="evenodd" clip-rule="evenodd" d="M88.4956 5.09546C92.0911 5.09546 95.0059 8.01092 95.0059 11.6073L95.0059 36.5249C95.0059 38.4614 93.4364 40.0313 91.5004 40.0313C89.5643 40.0313 87.9948 38.4614 87.9948 36.5249L87.9948 12.1082L63.7212 12.1082C61.7851 12.1082 60.2157 10.5384 60.2157 8.60184C60.2157 6.66532 61.7851 5.09546 63.7212 5.09546L88.4956 5.09546Z" fill="black"></path>
<path fill-rule="evenodd" clip-rule="evenodd" d="M11.6587 95.0955C8.06316 95.0955 5.14844 92.18 5.14844 88.5836L5.14844 63.666C5.14844 61.7295 6.71791 60.1597 8.65395 60.1597C10.59 60.1597 12.1595 61.7295 12.1595 63.666L12.1595 88.0827L36.4331 88.0827C38.3692 88.0827 39.9386 89.6526 39.9386 91.5891C39.9386 93.5256 38.3692 95.0955 36.4331 95.0955L11.6587 95.0955Z" fill="black"></path>
<path fill-rule="evenodd" clip-rule="evenodd" d="M78.2655 50.0954C78.2655 30.7932 69.3117 21.8291 50.0063 21.8291C30.7009 21.8291 21.7471 30.7932 21.7471 50.0954C21.7471 69.3976 30.7009 78.3617 50.0063 78.3617C69.3117 78.3617 78.2655 69.3976 78.2655 50.0954Z" fill="#FF0077"></path>
</svg>