<svg width="100" height="100" viewBox="0 0 100 100" fill="none" xmlns="http://www.w3.org/2000/svg">
<g clip-path="url(#clip0_6502_7495)">
<path fill-rule="evenodd" clip-rule="evenodd" d="M17.5098 46.065L38.1936 25.3811L33.2439 20.4314L7.61273 46.0625L10.0876 48.5374C12.583 51.0327 16.0863 54.5565 20.0853 58.5789C30.0573 68.6092 43.1112 81.7394 51.3021 89.7515L56.1969 84.7475C48.0432 76.7717 35.0676 63.7202 25.1049 53.6993C22.2688 50.8466 19.6768 48.2395 17.5098 46.065Z" fill="black"></path>
<path d="M22.2161 95.0001C22.2161 85.9629 26.4113 81.7715 35.4447 81.7715L35.4447 95.0001L22.2161 95.0001Z" fill="black"></path>
<path d="M77.7837 95.0001C77.7837 85.9629 73.5885 81.7715 64.5551 81.7715L64.5551 95.0001L77.7837 95.0001Z" fill="black"></path>
<rect x="35.3363" y="81.7715" width="29.2188" height="13.2285" fill="black"></rect>
<path fill-rule="evenodd" clip-rule="evenodd" d="M17.5235 51.0051C20.9113 47.6174 20.9127 44.4722 17.5235 41.0831C14.1344 37.6939 10.9892 37.6954 7.60148 41.0831C4.21375 44.4708 4.21233 47.616 7.60148 51.0051C10.9906 54.3943 14.1358 54.3929 17.5235 51.0051Z" fill="#FF0077"></path>
<path fill-rule="evenodd" clip-rule="evenodd" d="M83.5596 60.0245C89.7459 53.8382 89.7485 48.0948 83.5596 41.9059C77.3707 35.7171 71.6274 35.7196 65.4411 41.9059C59.2548 48.0922 59.2522 53.8356 65.4411 60.0245C71.63 66.2133 77.3733 66.2108 83.5596 60.0245Z" fill="#FF0077"></path>
<path d="M53.5891 30.0543C67.7181 15.9254 80.8353 15.9195 94.9702 30.0543L53.5891 71.4353C39.4543 57.3005 39.4602 44.1832 53.5891 30.0543Z" fill="black"></path>
<path d="M34.254 10.7189C41.8271 3.14589 48.8579 3.14272 56.4341 10.7189L67.4199 21.7047L45.2398 43.8848L34.254 32.899C26.6778 25.3228 26.681 18.292 34.254 10.7189Z" fill="black"></path>
</g>
<defs>
<clipPath id="clip0_6502_7495">
<rect width="100" height="100" fill="white"></rect>
</clipPath>
</defs>
</svg>