<svg width="100" height="100" viewBox="0 0 100 100" fill="none" xmlns="http://www.w3.org/2000/svg">
<g clip-path="url(#clip0_6574_1033)">
<path d="M38.0881 85.6204C31.8861 79.9134 28 71.7284 28 62.6358C28 48.868 36.9097 37.1813 49.2778 33.0269" stroke="black" stroke-width="7"></path>
<path d="M43.5724 6.82928C42.9507 5.91639 41.7067 5.68031 40.7937 6.30197L23.9074 17.8005C22.9944 18.4222 22.7582 19.6665 23.3801 20.5795L24.3903 22.0628C25.0124 22.9763 26.2975 23.1338 27.4026 23.1432C28.4516 23.1521 29.4792 23.6587 30.111 24.5913L30.822 25.6339C31.4441 26.5461 32.6877 26.7816 33.6003 26.16L45.0188 18.3818C45.932 17.7598 46.1678 16.515 45.5452 15.6021L44.8354 14.5613C44.2008 13.631 44.1068 12.4908 44.4819 11.5132C44.8783 10.4802 45.2039 9.22467 44.581 8.31012L43.5724 6.82928Z" fill="white"></path>
<path d="M49.1883 13.9739L27.0239 29.0685C26.0417 29.7375 25.7877 31.0761 26.4566 32.0584L49.5528 65.9719C50.2217 66.9542 51.5603 67.2082 52.5426 66.5392L74.707 51.4446C75.6893 50.7756 75.9433 49.437 75.2743 48.4547L52.1782 14.5412C51.5092 13.5589 50.1706 13.3049 49.1883 13.9739Z" fill="black"></path>
<path d="M75.0822 59.4815L59.9042 69.8167C59.105 70.3618 58.0121 70.151 57.467 69.3517L30.3205 29.135L48.3885 16.8305L75.5441 57.0581C76.083 57.8588 75.8754 58.9379 75.0761 59.483L75.0822 59.4815Z" fill="black"></path>
<path d="M48 77H75" stroke="black" stroke-width="7" stroke-linecap="round"></path>
<path d="M51 73C70.8115 73 80 82.1968 80 102H22C22 82.1968 31.1885 73 51 73Z" fill="white"></path>
<circle cx="38" cy="84" r="4" fill="black"></circle>
</g>
<defs>
<clipPath id="clip0_6574_1033">
<rect width="100" height="100" fill="white"></rect>
</clipPath>
</defs>
</svg>