<svg width="100" height="100" viewBox="0 0 100 100" fill="none" xmlns="http://www.w3.org/2000/svg">
<path fill-rule="evenodd" clip-rule="evenodd" d="M26.8375 12.9988C32.25 7.43606 40.173 5.09375 49.9999 5.09375C59.8267 5.09375 67.7498 7.43606 73.1623 12.9988C78.5554 18.5416 80.8132 26.6252 80.8132 36.6591H73.8132C73.8132 27.528 71.744 21.5789 68.1452 17.8803C64.5659 14.2016 58.8322 12.0938 49.9999 12.0938C41.1675 12.0938 35.4339 14.2016 31.8545 17.8803C28.2558 21.5789 26.1865 27.528 26.1865 36.6591H19.1865C19.1865 26.6252 21.4443 18.5416 26.8375 12.9988Z" fill="white"></path>
<path d="M5 31C5 28.7909 6.79086 27 9 27H91C93.2091 27 95 28.7909 95 31V91C95 93.2091 93.2091 95 91 95H9C6.79086 95 5 93.2091 5 91V31Z" fill="black"></path>
<path fill-rule="evenodd" clip-rule="evenodd" d="M57.5625 43.8125C57.5625 42.7079 56.6671 41.8125 55.5625 41.8125H44.4375C43.3329 41.8125 42.4375 42.7079 42.4375 43.8125V51.4375C42.4375 52.5421 41.5421 53.4375 40.4375 53.4375L32.8125 53.4375C31.7079 53.4375 30.8125 54.3329 30.8125 55.4375V66.5625C30.8125 67.6671 31.7079 68.5625 32.8125 68.5625H40.4375C41.5421 68.5625 42.4375 69.4579 42.4375 70.5625V78.1875C42.4375 79.2921 43.3329 80.1875 44.4375 80.1875H55.5625C56.6671 80.1875 57.5625 79.2921 57.5625 78.1875V70.5625C57.5625 69.4579 58.4579 68.5625 59.5625 68.5625H67.1875C68.2921 68.5625 69.1875 67.6671 69.1875 66.5625V55.4375C69.1875 54.3329 68.2921 53.4375 67.1875 53.4375L59.5625 53.4375C58.4579 53.4375 57.5625 52.5421 57.5625 51.4375V43.8125Z" fill="white"></path>
</svg>