<svg width="100" height="100" viewBox="0 0 100 100" fill="none" xmlns="http://www.w3.org/2000/svg">
<path fill-rule="evenodd" clip-rule="evenodd" d="M77.4999 12H22.9999H20.9999C20.6912 12 20.4067 12.1671 20.2563 12.4367L6.63365 36.8636C6.24832 37.5545 6.30648 38.4076 6.78202 39.0399L47.6178 93.333C48.8133 94.9224 51.1963 94.9298 52.4016 93.3479L94.539 38.0454C94.5532 38.0268 94.5399 38 94.5165 38C94.5063 38 94.4968 37.9944 94.4918 37.9855L80.572 13.0259C80.2188 12.3925 79.5505 12 78.8253 12H77.4999Z" fill="#FF0077"></path>
<path fill-rule="evenodd" clip-rule="evenodd" d="M71.1305 17.9348C70.266 16.2059 68.1637 15.5051 66.4348 16.3695C64.7058 17.234 64.005 19.3364 64.8695 21.0653L71.3369 34H24.0717C24.0224 33.999 23.973 33.9989 23.9235 34H9C7.067 34 5.5 35.567 5.5 37.5C5.5 39.433 7.067 41 9 41H21.7832L45.9487 92.1194C47.5596 95.5271 52.3955 95.5628 54.0565 92.1792L79.1808 41H91C92.933 41 94.5 39.433 94.5 37.5C94.5 35.567 92.933 34 91 34H79.1631L71.1305 17.9348ZM71.3828 41H29.5259L50.0595 84.4364L71.3828 41Z" fill="black"></path>
<path d="M23.4677 30.7105C23.3071 31.1223 22.6929 31.1223 22.5323 30.7105C20.0505 24.3477 15.6523 19.9496 9.28955 17.4677C8.87768 17.3071 8.87768 16.6929 9.28954 16.5323C15.6523 14.0504 20.0505 9.65227 22.5323 3.28953C22.6929 2.87766 23.3071 2.87766 23.4677 3.28952C25.9496 9.65227 30.3477 14.0504 36.7105 16.5323C37.1224 16.6929 37.1224 17.3071 36.7105 17.4677C30.3477 19.9496 25.9496 24.3477 23.4677 30.7105Z" fill="black"></path>
</svg>