<svg width="100" height="100" viewBox="0 0 100 100" fill="none" xmlns="http://www.w3.org/2000/svg">
<path fill-rule="evenodd" clip-rule="evenodd" d="M95 50C95 19.2708 80.742 5 50 5C19.258 5 5 19.2708 5 50C5 80.7292 19.258 95 50 95C80.742 95 95 80.7292 95 50Z" fill="#FF0077"></path>
<path d="M5 94.9157V49.8516L49.1562 94.9157H5Z" fill="#FF0077"></path>
<path fill-rule="evenodd" clip-rule="evenodd" d="M63.2157 27.2279C66.747 30.7584 67.8687 35.5793 67.8687 40.4461C67.8687 44.1975 67.2114 47.8909 65.287 51.0315C63.2652 54.3308 60.2136 56.4194 56.6202 57.4624C56.4248 57.5191 56.2474 57.5974 56.1027 57.6827C56.0638 57.7057 56.0295 57.7277 55.9998 57.7483L55.9998 60.0771C55.9998 63.3909 53.3135 66.0771 49.9998 66.0771C46.6861 66.0771 43.9998 63.3909 43.9998 60.0771L43.9998 57.315C43.9998 50.859 49.2009 47.1206 53.2752 45.938C54.3829 45.6165 54.7918 45.1914 55.0552 44.7616C55.416 44.1729 55.8687 42.9215 55.8687 40.4461C55.8687 37.2045 55.1084 36.091 54.7314 35.7141C54.3542 35.3369 53.2403 34.5771 49.9998 34.5771C46.7592 34.5771 45.6454 35.3369 45.2681 35.7141C44.8912 36.091 44.1309 37.2045 44.1309 40.4461C44.1309 43.7598 41.4446 46.4461 38.1309 46.4461C34.8171 46.4461 32.1309 43.7598 32.1309 40.4461C32.1309 35.5793 33.2525 30.7584 36.7838 27.2279C40.3148 23.6976 45.1354 22.5771 49.9998 22.5771C54.8642 22.5771 59.6847 23.6976 63.2157 27.2279Z" fill="white"></path>
<path fill-rule="evenodd" clip-rule="evenodd" d="M50 80.9219C54.0972 80.9219 56 79.0208 56 74.9219C56 70.8229 54.0972 68.9219 50 68.9219C45.9028 68.9219 44 70.8229 44 74.9219C44 79.0208 45.9028 80.9219 50 80.9219Z" fill="white"></path>
</svg>