<svg width="100" height="100" viewBox="0 0 100 100" fill="none" xmlns="http://www.w3.org/2000/svg">
<path fill-rule="evenodd" clip-rule="evenodd" d="M49.9999 5C80.7419 5 94.9999 19.2708 94.9999 50C94.9999 80.7292 80.7419 95 49.9999 95C19.2579 95 4.99991 80.7292 4.99991 50C4.99991 19.2708 19.2579 5 49.9999 5ZM50 26.1601C66.2862 26.1601 73.8397 33.7204 73.8397 49.9999C73.8397 66.2793 66.2862 73.8396 50 73.8396C33.7137 73.8396 26.1602 66.2793 26.1602 49.9999C26.1602 33.7204 33.7137 26.1601 50 26.1601Z" fill="black"></path>
<path fill-rule="evenodd" clip-rule="evenodd" d="M94.9999 50C94.9999 19.2708 80.7419 5 49.9999 5V26.1601C50 26.1601 50.0001 26.1601 50.0002 26.1601C66.2865 26.1601 73.84 33.7204 73.84 49.9999C73.84 49.9999 73.84 50 73.84 50H94.9999Z" fill="#FF0077"></path>
</svg>