<svg width="100" height="100" viewBox="0 0 100 100" fill="none" xmlns="http://www.w3.org/2000/svg">
<g clip-path="url(#clip0_6502_3280)">
<rect x="62.1201" y="53.8322" width="16.9185" height="62.3438" transform="rotate(135 62.1201 53.8322)" fill="black"></rect>
<path fill-rule="evenodd" clip-rule="evenodd" d="M42.3648 83.4446C56.2629 97.3426 69.1658 97.3484 83.0696 83.4446C96.9734 69.5407 96.9676 56.6378 83.0696 42.7398C72.0218 31.692 61.6028 29.4226 50.81 35.9404L20.4923 5.6458C20.1173 5.27106 19.6088 5.06056 19.0786 5.06056L16.5003 5.06056L11.702 5.06056C11.1912 5.06055 10.6997 5.25604 10.3284 5.6069L9.85009 6.05888C9.40575 6.47876 9.17785 7.07881 9.23142 7.6878L9.84175 14.6252L7.24266 17.2243C5.68056 18.7864 5.68056 21.319 7.24266 22.8811L10.2876 25.9261L21.9337 25.9261L27.913 31.9054L27.913 43.5515L29.418 45.0565L32.0022 47.6407L35.5583 51.1968C29.0493 61.9854 31.3211 72.4008 42.3648 83.4446ZM66.293 80.2362C70.9257 84.8688 75.2266 84.8708 79.8612 80.2362C84.4957 75.6016 84.4938 71.3007 79.8612 66.6681C75.2285 62.0354 70.9276 62.0335 66.293 66.6681C61.6585 71.3026 61.6604 75.6036 66.293 80.2362Z" fill="#FF0077"></path>
</g>
<defs>
<clipPath id="clip0_6502_3280">
<rect width="100" height="100" fill="white"></rect>
</clipPath>
</defs>
</svg>