<svg width="100" height="100" viewBox="0 0 100 100" fill="none" xmlns="http://www.w3.org/2000/svg">
<path fill-rule="evenodd" clip-rule="evenodd" d="M95.0001 49.9998C95.0001 80.7417 80.7293 94.9997 50.0002 94.9997C19.2712 94.9997 5.00037 80.7417 5.00037 49.9998C5.00037 19.258 19.2712 5 50.0002 5C80.7293 5 95.0001 19.258 95.0001 49.9998ZM76.0001 49.9998C76.0001 67.7617 67.7547 75.9996 50.0003 75.9996C32.2458 75.9996 24.0004 67.7617 24.0004 49.9998C24.0004 32.2379 32.2458 24 50.0003 24C67.7547 24 76.0001 32.2379 76.0001 49.9998Z" fill="#FF0077"></path>
<path fill-rule="evenodd" clip-rule="evenodd" d="M94.5408 59C94.8476 56.1741 94.9999 53.1749 94.9999 49.9998C94.9999 46.4476 94.8093 43.1155 94.4249 40H74.8825C75.6314 42.9157 75.9999 46.245 75.9999 49.9998C75.9999 53.3323 75.7096 56.3295 75.1208 59H94.5408ZM50 94.9996C53.1749 94.9996 56.174 94.8474 58.9999 94.5406L58.9999 75.1206C56.3293 75.7094 53.3321 75.9996 50.0001 75.9996C46.2454 75.9996 42.9159 75.6312 39.9999 74.8822L39.9999 94.4246C43.1156 94.8091 46.4478 94.9996 50 94.9996ZM5.45934 59H24.8793C24.2905 56.3295 24.0002 53.3323 24.0002 49.9998C24.0002 46.245 24.3687 42.9157 25.1176 40H5.57524C5.19078 43.1155 5.00024 46.4476 5.00024 49.9998C5.00024 53.1749 5.15247 56.1741 5.45934 59ZM39.9999 5.57501L39.9999 25.1174C42.9159 24.3684 46.2454 24 50.0001 24C53.3321 24 56.3293 24.2902 58.9999 24.879L58.9999 5.45903C56.1799 5.15283 53.1874 5.00064 50.02 5H49.9801C46.4354 5.00071 43.1098 5.19124 39.9999 5.57501Z" fill="black"></path>
</svg>