<svg width="100" height="100" viewBox="0 0 100 100" fill="none" xmlns="http://www.w3.org/2000/svg">
<path d="M50 5C80.742 5 95 19.2708 95 50C95 80.7292 80.742 95 50 95C19.258 95 5 80.7292 5 50C5 19.2708 19.258 5 50 5ZM50 12.5C24.3817 12.5 12.5 24.3924 12.5 50C12.5 75.6076 24.3817 87.5 50 87.5C75.6183 87.5 87.5 75.6076 87.5 50C87.5 24.3924 75.6183 12.5 50 12.5ZM50 19.5C61.8611 19.5 69.0731 22.2626 73.4062 26.5967C77.7397 30.931 80.5 38.1435 80.5 50C80.5 61.8565 77.7396 69.069 73.4062 73.4033C69.0731 77.7374 61.8611 80.5 50 80.5C38.1389 80.5 30.9269 77.7374 26.5938 73.4033C22.2603 69.069 19.5 61.8565 19.5 50C19.5 38.1435 22.2603 30.931 26.5938 26.5967C30.9269 22.2626 38.1389 19.5 50 19.5Z" fill="#FF0077"></path>
<path d="M48 35.5H51V31H55V35.5371C60.1556 35.8885 63.1357 38.6975 63.1357 42.916C63.1356 46.0644 61.4898 48.6324 56.9229 49.751C62.5597 50.5795 64 53.5632 64 56.3389C63.9999 61.4758 60.5026 64.5 55.2773 64.5H55V69H51V64.5H48V69H44V64.5H41V35.5H44V31H48V35.5ZM47.4189 58.7412H53.6729C56.018 58.7411 57.2109 57.7468 57.2109 55.5098C57.2108 53.5214 55.6887 52.5684 53.4258 52.5684H47.4189V58.7412ZM47.4189 47.2246H53.2607C55.318 47.2246 56.3467 46.1885 56.3467 44.0342C56.3466 42.1286 54.9482 41.2589 53.0146 41.2588H47.4189V47.2246Z" fill="white"></path>
</svg>