<svg width="100" height="100" viewBox="0 0 100 100" fill="none" xmlns="http://www.w3.org/2000/svg">
<path d="M40 54.7846L60 50.1558L91.5 66.0995L90 82.5576H45L40 54.7846Z" fill="white"></path>
<path d="M18.4258 40.7979C24.8628 40.7979 30.712 44.5416 33.4082 50.3867L48.2744 82.6152L8.5 78.8574V40.7979H18.4258Z" fill="#FF0077" stroke="black" stroke-width="7"></path>
<path d="M5 75.3574H95V84.701C95 86.3578 93.6569 87.701 92 87.701H8C6.34315 87.701 5 86.3578 5 84.701V75.3574Z" fill="black"></path>
<path d="M35.5 55.8131H42.8359C48.069 55.8131 53.0937 53.7621 56.8319 50.0999L61.5 45.5269" stroke="black" stroke-width="7"></path>
<path d="M54.5 31.6406L63.5046 50.5217C65.9479 55.6449 71.1055 58.92 76.7814 58.9526C84.9239 58.9993 91.5 65.6133 91.5 73.7559V83.7242" stroke="black" stroke-width="7" stroke-linecap="round"></path>
<path d="M52.5002 28.5551C44.4851 33.0463 42.5396 42.8562 46.9057 51.1006L47.6244 52.4577L62.1368 44.3258L52.5002 28.5551Z" fill="black"></path>
<path d="M57.4904 64.1741C56.143 65.5601 56.1743 67.7759 57.5603 69.1233C58.9463 70.4707 61.1621 70.4395 62.5096 69.0535L60 66.6138L57.4904 64.1741ZM69.5 56.8418L66.9904 54.4021L57.4904 64.1741L60 66.6138L62.5096 69.0535L72.0096 59.2815L69.5 56.8418Z" fill="black"></path>
<path d="M71.4904 65.2026C70.143 66.5886 70.1743 68.8044 71.5603 70.1518C72.9463 71.4992 75.1621 71.468 76.5096 70.082L74 67.6423L71.4904 65.2026ZM82.5 58.8989L79.9904 56.4592L71.4904 65.2026L74 67.6423L76.5096 70.082L85.0096 61.3386L82.5 58.8989Z" fill="black"></path>
</svg>