<svg width="300" height="300" viewBox="0 0 300 300" fill="none" xmlns="http://www.w3.org/2000/svg">
<g clip-path="url(#clip0_6341_186)">
<path d="M124.1 200.92L72.8396 213.12C63.1297 215.43 55.1196 222.27 51.3096 231.49L37.3896 268.53H263.56L251.83 232.6C248.29 222.73 240.01 215.32 229.81 212.88C211.29 208.45 180.07 200.91 179.16 200.91" fill="black"/>
<path d="M124.1 200.92L72.8396 213.12C63.1296 215.43 55.1196 222.27 51.3096 231.49L37.3896 268.53H263.56L251.83 232.6C248.29 222.73 240.01 215.32 229.81 212.88C211.29 208.45 180.07 200.91 179.16 200.91" stroke="black" stroke-width="4"/>
<path d="M125.209 183.28H178.109V198.44C178.109 213.04 166.259 224.89 151.659 224.89C137.059 224.89 125.209 213.04 125.209 198.44V183.28Z" fill="white" stroke="black" stroke-width="4"/>
<path d="M123.89 189.64L177.42 202.5V180.71L125.92 185.32L123.89 189.64Z" fill="black"/>
<path d="M137.889 187.07C123.319 187.11 111.489 175.3 111.489 160.73V118.4C111.489 96.16 129.519 78.12 151.769 78.12C174.079 78.12 192.129 96.25 192.049 118.55V160.66C192.049 175.18 180.299 186.96 165.779 187L137.899 187.07H137.889Z" fill="white" stroke="black" stroke-width="4"/>
<path d="M111.269 151.05C105.129 151.05 100.149 146.07 100.149 139.93C100.149 133.79 105.129 128.81 111.269 128.81V151.05Z" fill="white" stroke="black" stroke-width="4"/>
<path d="M192.13 128.82C198.27 128.81 203.26 133.78 203.27 139.92C203.28 146.06 198.31 151.05 192.17 151.06L192.13 128.82Z" fill="white" stroke="black" stroke-width="4"/>
<path d="M146.16 135.2H157.37" stroke="white" stroke-width="4" stroke-miterlimit="10"/>
<path d="M167.65 56.82C167.64 48.06 160.53 41 151.77 41C143.01 41 135.91 48.06 135.9 56.82V88.61C135.9 97.38 143.01 104.49 151.77 104.49C160.53 104.49 167.65 97.38 167.65 88.61V56.82Z" fill="#FF0077" stroke="black" stroke-width="4"/>
</g>
<defs>
<clipPath id="clip0_6341_186">
<rect width="231.81" height="231.54" fill="white" transform="translate(34.5 39)"/>
</clipPath>
</defs>
</svg>
