<svg width="300" height="300" viewBox="0 0 300 300" fill="none" xmlns="http://www.w3.org/2000/svg">
<path d="M256.7 272.2C256.7 232.1 224.2 199.6 184.1 199.6H120.8C80.7002 199.6 48.2002 232.1 48.2002 272.2H256.7Z" fill="#FF0077" stroke="black" stroke-width="4"/>
<path d="M124.8 210.5L152.4 238.5L180 210.5" fill="white"/>
<path d="M124.8 210.5L152.4 238.5L180 210.5" stroke="black" stroke-width="4" stroke-linecap="round"/>
<path d="M161.1 46.7L160 41.7C168.8 39.7 177.1 41.7 182.7 47.4C188.8 53.5 190.9 62.8 188.5 72.9L183.5 71.7C185.5 63.3 183.9 55.8 179.1 50.9" fill="black"/>
<path d="M211.5 88C205.8 72.4 188.7 67.6 185.9 69.2C186.4 57.9 180 46.1 164.3 44.2C132.2 21.2 95.2001 42.2 99.7001 65.6C75.0001 66.4 97.0001 88.8 102.3 91.7C90.9001 99.5 112.2 139 112.1 140.5L199.7 136.8C199.7 136.8 218.1 106.1 211.5 88Z" fill="black"/>
<path d="M197.1 83.2C197.1 83.2 116.5 86.7 105.2 79.1C102.5 77.3 102.1 80.2 102.1 80.2C102.1 80.2 92.4 89.2 93.4 99.9C94.6 113.5 112.4 154.3 112.4 154.3L192.2 146.4C192.2 146.4 219.6 102.1 197.1 83.2Z" fill="black"/>
<path d="M180.1 92.4C174.9 92.4 130 92.4 124.8 92.4H120.3C115.8 92.4 112.1 96 112.1 100.5V202.3C112.1 207.8 116.5 212.3 122 212.3H182.3C187.8 212.3 192.3 207.9 192.3 202.3L192.7 100.4C192.7 95.9 189 92.2 184.5 92.3H180.1V92.4Z" fill="white" stroke="black" stroke-width="4"/>
<path d="M112.1 145.3C106 145.3 101 140.3 101 134.2C101 128.1 106 123.1 112.1 123.1V145.3Z" fill="white" stroke="black" stroke-width="4"/>
<path d="M192.7 123C198.8 123 203.8 128 203.8 134.1C203.8 140.2 198.8 145.2 192.7 145.2V123Z" fill="white" stroke="black" stroke-width="4"/>
<path d="M129.8 152C139.631 152 147.6 144.031 147.6 134.2C147.6 124.369 139.631 116.4 129.8 116.4C119.969 116.4 112 124.369 112 134.2C112 144.031 119.969 152 129.8 152Z" stroke="black" stroke-width="4" stroke-miterlimit="10"/>
<path d="M174.8 152C184.631 152 192.6 144.031 192.6 134.2C192.6 124.369 184.631 116.4 174.8 116.4C164.969 116.4 157 124.369 157 134.2C157 144.031 164.969 152 174.8 152Z" stroke="black" stroke-width="4" stroke-miterlimit="10"/>
<path d="M147.6 134.2H157.1" stroke="black" stroke-width="4" stroke-miterlimit="10"/>
<path d="M152.4 235.9V272.2" stroke="black" stroke-width="4"/>
<path d="M192.7 206.4C192.7 209.2 190.5 211.4 187.7 211.4H117.1C114.3 211.4 112.1 209.2 112.1 206.4V152.4L113.5 153.6C120.9 160.2 132.1 161.8 141.3 157.5H141.5C148.5 154.2 156.5 154.2 163.4 157.5C172.6 161.8 183.7 160.3 191.1 153.8L192.8 152.3V206.3L192.7 206.4Z" fill="black"/>
<path d="M152.4 272.2L125.1 257.9L133.1 232.7L116.6 226.7L122.6 212.4H126.7L152.4 238.5V272.2Z" stroke="black" stroke-width="4" stroke-linecap="round" stroke-linejoin="round"/>
<path d="M152.4 272.2L179.7 257.9L171.7 232.7L188.2 226.7L182.1 212.4H178.1L152.4 238.5V272.2Z" stroke="black" stroke-width="4" stroke-linecap="round" stroke-linejoin="round"/>
</svg>
