<svg width="300" height="300" viewBox="0 0 300 300" fill="none" xmlns="http://www.w3.org/2000/svg">
<path d="M123.9 205.5L72.6002 217.7C62.9002 220 54.9002 226.8 51.1002 236.1L37.2002 273.1H263.4L251.7 237.2C248.2 227.3 239.9 219.9 229.7 217.5C211.2 213.1 180.8 205.9 179.9 205.9" fill="#FF0077"/>
<path d="M123.9 205.5L72.6002 217.7C62.9002 220 54.9002 226.8 51.1002 236.1L37.2002 273.1H263.4L251.7 237.2C248.2 227.3 239.9 219.9 229.7 217.5C211.2 213.1 180.8 205.9 179.9 205.9" stroke="black" stroke-width="4"/>
<path d="M123.9 205.6L150.8 271C151.2 272 152.7 272 153.1 271L179.8 205.9L229.1 217.6L212.6 273.2H88.7002L72.7002 217.8L124 205.6H123.9Z" fill="white" stroke="black" stroke-width="4"/>
<path d="M125 187.9H177.9V203.1C177.9 217.7 166 229.6 151.4 229.6C136.8 229.6 124.9 217.7 124.9 203.1V187.9H125Z" fill="black" stroke="black" stroke-width="4"/>
<path d="M123.3 191.1L177.2 203.9V185.3L123.3 191.1Z" fill="black"/>
<path d="M137.6 191.7C123 191.7 111.2 179.9 111.2 165.4V123.1C111.2 100.9 129.2 82.8 151.5 82.8C173.8 82.8 191.9 100.9 191.8 123.2V165.3C191.8 179.8 180 191.6 165.5 191.6H137.6V191.7Z" fill="black" stroke="black" stroke-width="4"/>
<path d="M171 158.2H132C127.1 158.2 123.2 162.1 123.2 167V175H142.7C147.6 175 151.5 171.1 151.5 166.2C151.5 171.1 155.4 175 160.3 175H179.8V167C179.8 162.1 175.9 158.2 171 158.2Z" fill="white" stroke="black" stroke-width="4"/>
<path d="M114.1 127L111 134.4L100.5 139.4V113.8C100.5 107.7 105.4 102.8 111.5 102.8H114.9C118.6 102.8 121.6 105.8 121.6 109.5V122.5C121.6 128.6 120.2 127.1 114.1 127.1V127Z" fill="white" stroke="black" stroke-width="4"/>
<path d="M188.7 127L191.8 134.4L202.3 139.4V113.8C202.3 107.7 197.4 102.8 191.3 102.8H187.9C184.2 102.8 181.2 105.8 181.2 109.5V122.5C181.2 128.6 182.6 127.1 188.7 127.1V127Z" fill="white" stroke="black" stroke-width="4"/>
<path d="M111.1 155.7C105 155.7 100 150.7 100 144.6C100 138.5 105 133.5 111.1 133.5V155.7Z" fill="black" stroke="black" stroke-width="4"/>
<path d="M191.9 133.4C198 133.4 203 138.4 203 144.5C203 150.6 198 155.6 191.9 155.6V133.4Z" fill="black" stroke="black" stroke-width="4"/>
<path d="M140.5 126H116.7C113.718 126 111.3 128.418 111.3 131.4V148.2C111.3 151.182 113.718 153.6 116.7 153.6H140.5C143.483 153.6 145.9 151.182 145.9 148.2V131.4C145.9 128.418 143.483 126 140.5 126Z" stroke="white" stroke-width="4" stroke-miterlimit="10"/>
<path d="M186.4 126H162.6C159.618 126 157.2 128.418 157.2 131.4V148.2C157.2 151.182 159.618 153.6 162.6 153.6H186.4C189.383 153.6 191.8 151.182 191.8 148.2V131.4C191.8 128.418 189.383 126 186.4 126Z" stroke="white" stroke-width="4" stroke-miterlimit="10"/>
<path d="M145.9 139.8H157.2" stroke="white" stroke-width="4" stroke-miterlimit="10"/>
</svg>
