<svg width="300" height="300" viewBox="0 0 300 300" fill="none" xmlns="http://www.w3.org/2000/svg">
<g clip-path="url(#clip0_6341_191)">
<path d="M251.9 246.96L241.33 216.47C238.14 208.11 230.67 201.82 221.48 199.76C204.78 196 179.76 190.4 178.94 190.4H122.66L79.95 199.96C71.2 201.92 63.98 207.71 60.54 215.53L48 246.92L251.9 246.97V246.96Z" fill="black"/>
<path d="M123.5 170.18H176.4V196.63C176.4 211.23 164.55 223.08 149.95 223.08C135.35 223.08 123.5 211.23 123.5 196.63V170.18Z" fill="white" stroke="black" stroke-width="4"/>
<path d="M140.9 184.89L176.46 192.66V174.04L140.9 184.89Z" fill="black"/>
<path d="M100.24 104.45C100.24 76.99 122.49 54.73 149.95 54.73C177.41 54.73 199.67 76.99 199.67 104.45V137.35H100.24V104.45Z" fill="#FF0077"/>
<path d="M109.43 147.69C103.29 147.69 98.3101 142.71 98.3101 136.57C98.3101 130.43 103.29 125.45 109.43 125.45V147.69Z" fill="white" stroke="black" stroke-width="4"/>
<path d="M190.29 125.45C196.43 125.44 201.42 130.41 201.43 136.55C201.44 142.69 196.47 147.68 190.33 147.69L190.29 125.45Z" fill="white" stroke="black" stroke-width="4"/>
<path d="M100.26 130.62L100.35 101.88C101.82 75.74 123.47 55 149.98 55C176.49 55 198.14 75.75 199.61 101.88L199.63 102.1C199.67 102.96 199.63 131.12 199.63 131.12" stroke="black" stroke-width="4"/>
<path d="M109.64 111.79C109.64 93.07 127.69 84.65 149.95 84.65C172.21 84.65 190.26 93.07 190.26 111.79L190.08 143.97C189.95 165.98 172.15 183.79 150.14 183.95C127.8 184.1 109.61 166.02 109.64 143.68V111.8V111.79Z" fill="white" stroke="black" stroke-width="4"/>
</g>
<defs>
<clipPath id="clip0_6341_191">
<rect width="203.9" height="193.96" fill="white" transform="translate(48 53)"/>
</clipPath>
</defs>
</svg>
