<svg width="300" height="300" viewBox="0 0 300 300" fill="none" xmlns="http://www.w3.org/2000/svg">
<g clip-path="url(#clip0_6341_189)">
<path d="M181.18 80.97C181.18 80.97 204.83 70.25 187.67 58.37C166.91 45.72 102.26 59.62 101.58 85.65C101.08 104.69 101.58 129.71 101.58 129.71L198.93 130.34V101.26C198.93 91.94 194.02 83.47 181.18 80.96V80.97Z" fill="black"/>
<path d="M261.27 248.74L249.74 215.49C246.26 206.37 238.12 199.52 228.1 197.27C209.89 193.17 181.39 187.07 180.5 187.07H120.36L73.8 197.49C64.26 199.63 56.38 205.94 52.64 214.47L38.96 248.69L253.5 248.74H261.27Z" fill="#FF0077" stroke="black" stroke-width="4"/>
<path d="M150.11 227.11C150.11 227.11 123.66 210.47 123.66 195.86V169.41H176.56V195.86C176.56 210.47 150.11 227.11 150.11 227.11Z" fill="white" stroke="black" stroke-width="4"/>
<path d="M141.06 184.11L176.62 191.88V173.26L141.06 184.11Z" fill="black"/>
<path d="M109.6 146.91C103.46 146.91 98.48 141.93 98.48 135.79C98.48 129.65 103.46 124.67 109.6 124.67V146.91Z" fill="white" stroke="black" stroke-width="4"/>
<path d="M190.45 124.67C196.59 124.66 201.58 129.63 201.59 135.77C201.6 141.91 196.63 146.9 190.49 146.91L190.45 124.67Z" fill="white" stroke="black" stroke-width="4"/>
<path d="M109.8 111.01C109.8 92.29 127.85 83.87 150.11 83.87C172.37 83.87 190.42 92.29 190.42 111.01L190.24 143.19C190.11 165.2 172.31 183.01 150.3 183.17C127.96 183.32 109.77 165.24 109.8 142.9V111.02V111.01Z" fill="white" stroke="black" stroke-width="4"/>
<path d="M109.86 130.35H190.37" stroke="black" stroke-width="4" stroke-miterlimit="10"/>
<path d="M131.89 144.8C139.87 144.8 146.34 138.331 146.34 130.35C146.34 122.369 139.87 115.9 131.89 115.9C123.909 115.9 117.44 122.369 117.44 130.35C117.44 138.331 123.909 144.8 131.89 144.8Z" fill="white" stroke="black" stroke-width="4" stroke-miterlimit="10"/>
<path d="M168.45 144.8C176.431 144.8 182.9 138.331 182.9 130.35C182.9 122.369 176.431 115.9 168.45 115.9C160.469 115.9 154 122.369 154 130.35C154 138.331 160.469 144.8 168.45 144.8Z" fill="white" stroke="black" stroke-width="4" stroke-miterlimit="10"/>
<path d="M164.27 149.21H135.96C132.43 149.21 129.58 152.07 129.58 155.59V161.42H143.74C147.27 161.42 150.12 158.56 150.12 155.04C150.12 158.57 152.98 161.42 156.5 161.42H170.66V155.59C170.66 152.06 167.8 149.21 164.28 149.21H164.27Z" fill="black"/>
<path d="M150.11 227.11V248.71" stroke="black" stroke-width="4"/>
<path d="M150.11 227.11L131.89 219.36L118.25 234.83L112.914 201.856C112.519 199.412 113.043 196.909 114.387 194.831L122.31 182.57L122.87 186.29C124.46 196.89 129.44 206.69 137.07 214.23L150.11 227.11Z" fill="#FF0077" stroke="black" stroke-width="4"/>
<path d="M149.55 227.11L167.77 219.36L181.41 234.83L186.746 201.856C187.141 199.412 186.616 196.909 185.273 194.831L177.35 182.57L176.79 186.29C175.2 196.89 170.22 206.69 162.59 214.23L149.55 227.11Z" fill="#FF0077" stroke="black" stroke-width="4"/>
<path d="M122.5 62.77C122.5 62.77 151.86 46.5 156.43 47.01C161 47.52 163.03 54.12 160.32 56.32" fill="black"/>
</g>
<defs>
<clipPath id="clip0_6341_189">
<rect width="228.08" height="203.74" fill="white" transform="translate(36 47)"/>
</clipPath>
</defs>
</svg>
