<svg width="300" height="300" viewBox="0 0 300 300" fill="none" xmlns="http://www.w3.org/2000/svg">
<g clip-path="url(#clip0_6341_192)">
<path d="M109.71 86.72H114.44V116.18H101.26V95.17C101.26 90.51 105.05 86.72 109.71 86.72Z" fill="black"/>
<path d="M199.06 116.05H185.88V86.59H190.61C195.27 86.59 199.06 90.38 199.06 95.04V116.05Z" fill="black"/>
<path d="M261 237.49L249.74 204.24C246.26 195.12 238.12 188.27 228.1 186.02C209.89 181.92 171.28 175.82 176.5 175.82L123.5 175.82L73.8 186.24C64.26 188.38 56.38 194.69 52.64 203.22L38.96 237.44L259 237.49H261Z" fill="#FF0077" stroke="black" stroke-width="4"/>
<path d="M150.11 215.86C135.5 215.86 123.66 204.02 123.66 189.41V184.61V158.16H176.56V184.61V189.41C176.56 204.02 164.72 215.86 150.11 215.86Z" fill="white" stroke="black" stroke-width="4"/>
<path d="M141.06 172.87L176.62 180.63V162.01L141.06 172.87Z" fill="black"/>
<path d="M109.599 136.66C103.459 136.66 98.4795 131.68 98.4795 125.54C98.4795 119.4 103.459 114.42 109.599 114.42V136.66Z" fill="white" stroke="black" stroke-width="4"/>
<path d="M190.45 113.43C196.59 113.42 201.58 119.39 201.59 125.53C201.6 131.67 196.63 135.66 190.49 135.67L190.45 113.43Z" fill="white" stroke="black" stroke-width="4"/>
<path d="M190.45 103.3C190.45 81.0429 172.41 63 150.155 63C127.901 63 109.86 81.0429 109.86 103.3V132.02C109.86 154.277 127.901 172.32 150.155 172.32C172.41 172.32 190.45 154.277 190.45 132.02V103.3Z" fill="white" stroke="black" stroke-width="4"/>
<path d="M109.91 117.23H190.41" stroke="black" stroke-width="4" stroke-miterlimit="10"/>
<path d="M131.94 131.68C139.921 131.68 146.39 125.211 146.39 117.23C146.39 109.249 139.921 102.78 131.94 102.78C123.96 102.78 117.49 109.249 117.49 117.23C117.49 125.211 123.96 131.68 131.94 131.68Z" fill="white" stroke="black" stroke-width="4" stroke-miterlimit="10"/>
<path d="M168.49 131.68C176.471 131.68 182.94 125.211 182.94 117.23C182.94 109.249 176.471 102.78 168.49 102.78C160.51 102.78 154.04 109.249 154.04 117.23C154.04 125.211 160.51 131.68 168.49 131.68Z" fill="white" stroke="black" stroke-width="4" stroke-miterlimit="10"/>
<path d="M184 179V189.154C184 207.847 168.778 223 150 223C131.222 223 116 207.847 116 189.154V179" stroke="black" stroke-width="4"/>
</g>
<defs>
<clipPath id="clip0_6341_192">
<rect width="228.08" height="178.49" fill="white" transform="translate(36 61)"/>
</clipPath>
</defs>
</svg>
