<svg width="300" height="300" viewBox="0 0 300 300" fill="none" xmlns="http://www.w3.org/2000/svg">
<g clip-path="url(#clip0_6341_185)">
<path d="M149.97 253.45H86.7202V107.39C86.7202 73.49 115.04 46 149.97 46C184.9 46 213.22 73.48 213.22 107.39V250.74" fill="#FF0077"/>
<path d="M149.97 253.45H86.7202V107.39C86.7202 73.49 115.04 46 149.97 46C184.9 46 213.22 73.48 213.22 107.39V250.74" stroke="black" stroke-width="4"/>
<path d="M123.6 200.08L72.3396 213.28C62.6297 215.59 54.6196 222.43 50.8096 231.65L36.8896 268.69H263.06L251.33 232.76C247.79 222.89 239.51 215.48 229.31 213.04C210.79 208.61 178.08 200.07 178.08 200.07" fill="black"/>
<path d="M123.6 200.08L72.3396 213.28C62.6296 215.59 54.6196 222.43 50.8096 231.65L36.8896 268.69H263.06L251.33 232.76C247.79 222.89 239.51 215.48 229.31 213.04C210.79 208.61 178.08 200.07 178.08 200.07" stroke="black" stroke-width="4"/>
<path d="M176.42 199.61V178.19H123.52V200.07L111.43 203.49L117.53 244.11C119.02 254.06 128.5 261.48 139.72 261.48H160.03C171.33 261.48 180.86 253.95 182.25 243.91L187.97 202.84L180 200.5L176.42 199.61Z" fill="white" stroke="black" stroke-width="4"/>
<path d="M122.93 188.86L176.46 201.73V179.93L122.93 178.19V188.86Z" fill="black"/>
<path d="M109.69 118.56V147.02C109.69 169.24 127.73 187.24 149.96 187.19H150.17C172.32 187.14 190.24 169.17 190.24 147.02V118.71L109.69 118.55V118.56Z" fill="white" stroke="black" stroke-width="4"/>
<path d="M149.68 260.22V251.44" stroke="black" stroke-width="4" stroke-linecap="round"/>
</g>
<defs>
<clipPath id="clip0_6341_185">
<rect width="231.81" height="226.69" fill="white" transform="translate(34 44)"/>
</clipPath>
</defs>
</svg>
