<svg width="300" height="300" viewBox="0 0 300 300" fill="none" xmlns="http://www.w3.org/2000/svg">
<path d="M180.199 24.8C188.679 24.8 197.193 31.5902 199.551 40.2658L199.658 40.6799C201.481 48.262 199.025 57.2071 193.193 63.8849L190.428 67.051L194.629 67.1984C200 67.3869 205.167 68.8938 209.665 71.6115L209.674 71.6174L209.684 71.6223C213.33 73.7728 215.929 76.4181 217.422 79.3156L217.434 79.3391C219.651 83.5077 220.045 88.8302 218.306 93.9572L218.302 93.967L218.299 93.9777C216.55 99.3145 212.766 104.021 207.89 106.873L207.839 106.904L207.79 106.936C207.708 106.99 207.597 107.055 207.407 107.163C207.271 107.241 207.08 107.353 206.892 107.473C206.369 107.778 205.662 108.164 205.07 108.549C204.471 108.939 203.805 109.442 203.264 110.119H203.263C202.472 111.068 202.081 112.22 201.853 113.192C201.737 113.681 201.652 114.183 201.583 114.656L201.416 115.941L198.616 137.341L198.6 137.47V138.947C198.549 140.461 198.448 142.093 198.032 143.39C197.652 144.578 197.168 145.049 196.587 145.2H196.199C195.472 145.2 194.593 144.859 193.479 144.031C192.403 143.232 191.319 142.143 190.146 140.922C189.945 140.644 189.748 140.427 189.587 140.261L189.414 140.086L171.926 122.298C169.186 119.461 165.671 115.887 161.347 114.407L161.321 114.399L161.296 114.391C159.498 113.829 157.496 113.5 155.199 113.5C154.185 113.5 153.602 113.499 153.133 113.529C152.643 113.561 152.265 113.627 151.741 113.715C139.851 114.756 128.531 118.953 117.774 123.136L115.917 123.859L116.633 125.718C117.88 128.961 119.103 132.204 120.328 135.455C121.543 138.68 122.762 141.911 124.005 145.144C124.017 145.18 124.023 145.21 124.028 145.235L112.563 147.327C112.137 147.384 111.694 147.469 111.421 147.515C111.084 147.571 110.835 147.6 110.6 147.6H109.771L109.603 147.767C109.494 147.75 109.436 147.732 109.394 147.711L109.267 147.648L109.132 147.603L108.854 147.497C107.506 146.918 106.673 145.561 106.038 144.112C105 141.691 104.898 139.629 104.799 137.341C104.796 135.976 104.689 134.471 104.366 132.94C103.556 128.286 102.447 123.344 101.349 118.553C99.7427 111.326 98.0722 103.944 97.2871 96.9758L97.2832 96.9484C96.3731 89.7687 95.4976 81.6709 98.8906 74.6887C102.039 68.499 109.125 64.2005 116.499 64.2004C117.231 64.2004 117.845 64.2003 118.355 64.2004C118.403 64.2151 118.438 64.2254 118.455 64.2297C118.59 64.2638 118.708 64.2789 118.751 64.2844L118.875 64.3H119.199C119.456 64.3 119.707 64.2746 119.949 64.2277C120.17 64.2219 120.384 64.216 120.538 64.2121C120.596 64.2106 120.661 64.2084 120.71 64.2062C120.723 64.2057 120.744 64.2049 120.769 64.2033C120.781 64.2025 120.801 64.2007 120.826 64.1984C120.842 64.197 120.9 64.1919 120.973 64.1799C121.002 64.175 121.095 64.1591 121.211 64.1252C121.274 64.1054 121.436 64.0445 121.532 64.0002C121.697 63.9092 122.128 63.5527 122.353 63.2541C122.423 63.0818 122.46 62.8589 122.477 62.6174C122.861 62.1066 123.136 61.5158 123.261 60.8918L123.271 60.8381L123.279 60.7824C123.976 55.9078 125.218 50.3097 129.113 46.4142C133.111 42.4162 138.664 41.2864 144.792 40.0607L144.803 40.0588C148.151 39.3694 151.858 38.6345 155.173 37.2443L155.184 37.2394L155.194 37.2355C158.41 35.8419 161.361 33.8264 164.271 31.7189C168.4 28.799 172.365 26.0699 177.079 25.0637C178.161 24.8856 179.137 24.8 180.199 24.8Z" fill="#FF0077" stroke="black" stroke-width="4"/>
<path d="M177.5 175.5H124.6V210.5H177.5V175.5Z" fill="black" stroke="black" stroke-width="4"/>
<path d="M142.5 190.2L178.1 198V179.4L142.5 190.2Z" fill="black"/>
<path d="M244.3 272.2C247.4 272.2 248.6 268.2 246.1 266.3C226.7 252.4 179.1 218.4 177.5 218.4H124.6L54.3997 266.2C51.7997 268 52.9997 272.1 56.0997 272.1H244.2L244.3 272.2Z" fill="white" stroke="black" stroke-width="4"/>
<path d="M151.6 189.1C129.3 189.3 111.1 171.2 111.1 148.8V108.3C111.1 105.5 113.3 103.3 116.1 103.3H186.8C189.6 103.3 191.8 105.6 191.8 108.3L191.6 149C191.5 171 173.7 188.8 151.7 189L151.6 189.1Z" fill="black" stroke="black" stroke-width="4"/>
<path d="M111.1 153C105 153 100 148 100 141.9C100 135.8 105 130.8 111.1 130.8V153Z" fill="black" stroke="black" stroke-width="4"/>
<path d="M191.6 130.8C197.7 130.8 202.7 135.8 202.7 141.9C202.7 148 197.7 153 191.6 153V130.8Z" fill="black" stroke="black" stroke-width="4"/>
<path d="M150 211.4V272.2" stroke="black" stroke-width="4"/>
<path d="M177.5 198H124.6V218.5H177.5V198Z" fill="white" stroke="black" stroke-width="4"/>
<path d="M150 235.9H162.1" stroke="black" stroke-width="4" stroke-linecap="round"/>
<path d="M128.9 158.3C138.73 158.3 146.7 150.331 146.7 140.5C146.7 130.669 138.73 122.7 128.9 122.7C119.069 122.7 111.1 130.669 111.1 140.5C111.1 150.331 119.069 158.3 128.9 158.3Z" stroke="white" stroke-width="4" stroke-miterlimit="10"/>
<path d="M173.9 158.3C183.73 158.3 191.7 150.331 191.7 140.5C191.7 130.669 183.73 122.7 173.9 122.7C164.069 122.7 156.1 130.669 156.1 140.5C156.1 150.331 164.069 158.3 173.9 158.3Z" stroke="white" stroke-width="4" stroke-miterlimit="10"/>
<path d="M146.699 140.5H156.099" stroke="white" stroke-width="4" stroke-miterlimit="10"/>
</svg>
