<svg width="300" height="300" viewBox="0 0 300 300" fill="none" xmlns="http://www.w3.org/2000/svg">
<path d="M201.09 133.017C203.34 125.597 204.08 117.597 202.98 109.407C198.86 78.827 170.73 57.387 140.15 61.507C109.57 65.627 88.1299 93.757 92.2499 124.337C92.2899 124.627 92.3499 124.917 92.3899 125.207C81.3499 133.207 74.9499 146.857 76.8999 161.317C79.7199 182.257 98.9799 196.937 119.92 194.117C132.3 192.447 142.5 185.027 148.18 174.907C151.79 194.927 170.56 208.747 190.93 206.007C211.87 203.187 226.55 183.927 223.73 162.987C221.88 149.247 212.94 138.197 201.09 133.017Z" fill="white" stroke="black" stroke-width="4" stroke-linecap="round"/>
<path d="M142.12 185.677L177.67 193.437V174.817L142.12 185.677Z" fill="black"/>
<path d="M245.69 270.497L235.75 240.007C232.75 231.647 225.73 225.357 217.09 223.297C201.39 219.537 175.19 213.937 175.19 213.937H124.19L84.04 223.497C75.81 225.457 69.02 231.247 65.8 239.067L54 270.457L245.67 270.507L245.69 270.497Z" fill="#FF0077" stroke="black" stroke-width="4"/>
<path d="M150.05 209.727C129.69 209.877 113.11 191.797 113.13 169.457V142.067C113.13 132.077 121.22 123.987 131.21 123.987C131.31 123.987 131.41 123.987 131.51 123.987H168.19C178.39 123.987 186.58 123.987 186.58 123.987L186.45 169.767C186.33 191.777 170.11 209.587 150.05 209.737V209.727Z" fill="black" stroke="black" stroke-width="4"/>
<path d="M173.72 168.897H125.98V217.987H173.72V168.897Z" fill="black" stroke="black" stroke-width="4"/>
<path d="M115.57 236.897L112.02 217.957L149.81 213.927L187.69 217.837L184.12 236.887C183.22 241.687 179.03 245.167 174.15 245.167H125.55C120.67 245.167 116.48 241.697 115.58 236.897H115.57Z" fill="black" stroke="black" stroke-width="4"/>
<path d="M245.69 270.497L235.75 240.007C232.75 231.647 225.73 225.357 217.09 223.297C201.39 219.537 175.19 213.937 175.19 213.937H124.19L84.04 223.497C75.81 225.457 69.02 231.247 65.8 239.067L54 270.457L245.67 270.507L245.69 270.497Z" stroke="black" stroke-width="4"/>
<path d="M191.43 122.077C191.43 136.977 179.35 149.047 164.46 149.047C149.57 149.047 137.49 136.967 137.49 122.077" fill="white"/>
<path d="M193.43 122.077C193.43 120.972 192.535 120.077 191.43 120.077C190.326 120.077 189.43 120.972 189.43 122.077H193.43ZM191.43 122.077H189.43C189.43 135.872 178.246 147.047 164.46 147.047V149.047V151.047C180.454 151.047 193.43 138.082 193.43 122.077H191.43ZM164.46 149.047V147.047C150.675 147.047 139.49 135.862 139.49 122.077H137.49H135.49C135.49 138.072 148.466 151.047 164.46 151.047V149.047Z" fill="black"/>
<path d="M138.37 118.427L139.64 122.867H188.78L190.56 118.427H138.37Z" fill="white"/>
<path d="M94.3901 261.397L92.1001 270.497" stroke="black" stroke-width="4" stroke-linecap="round"/>
<path d="M205.31 261.397L207.6 270.497" stroke="black" stroke-width="4" stroke-linecap="round"/>
</svg>
