<svg width="300" height="300" viewBox="0 0 300 300" fill="none" xmlns="http://www.w3.org/2000/svg">
<path d="M150.6 211.4C140.5 211.4 130.4 209.5 120.9 205.6C111.4 201.7 102.5 196 94.8002 188.3C87.1002 180.6 72.0002 159.5 68.2002 150L75.6002 139.9C83.6002 129 90.5002 117.4 96.1002 105.1L105.1 83.3C117 57 140.5 53.7 150.6 53.7" fill="#FF0077"/>
<path d="M152 211.4C162.1 211.4 172.2 209.5 181.7 205.6C191.2 201.7 200.1 196 207.8 188.3C215.5 180.6 230.6 159.5 234.4 150L227 139.9C219 129 212.1 117.4 206.5 105.1L197.5 83.3C185.6 57 162.1 53.7 152 53.7" fill="#FF0077"/>
<path d="M177.8 175.5H124.9V272.2H177.8V175.5Z" fill="white" stroke="black" stroke-width="4"/>
<path d="M142.3 190.2L177.8 198V179.4L142.3 190.2Z" fill="black"/>
<path d="M245.8 275L235.9 244.5C232.9 236.1 225.9 229.9 217.2 227.8C201.5 224 178 218.4 177.2 218.4H124.3L84.2002 228C76.0002 230 69.2002 235.8 66.0002 243.6L54.2002 275H245.9H245.8Z" fill="black"/>
<path d="M151.3 153.1C178.749 153.1 201 130.849 201 103.4C201 75.9515 178.749 53.7 151.3 53.7C123.852 53.7 101.6 75.9515 101.6 103.4C101.6 130.849 123.852 153.1 151.3 153.1Z" fill="#FF0077"/>
<path d="M151.5 189.1C129.2 189.3 111 171.2 111 148.8V108.3C111 105.5 113.2 103.3 116 103.3H186.7C189.5 103.3 191.7 105.6 191.7 108.3L191.5 149C191.4 171 173.6 188.8 151.6 189L151.5 189.1Z" fill="white" stroke="black" stroke-width="4"/>
<path d="M151.2 105.6C151.2 117 140.1 126.3 126.4 126.3C112.7 126.3 101.6 117 101.6 105.6C101.6 94.2 137.7 84.9 151.4 84.9C151.4 84.9 151.2 94.2 151.2 105.6Z" fill="#FF0077"/>
<path d="M150.9 105.6C150.9 117 162 126.3 175.7 126.3C189.4 126.3 200.5 117 200.5 105.6C200.5 94.2 164.4 84.9 150.7 84.9C150.7 84.9 150.9 94.2 150.9 105.6Z" fill="#FF0077"/>
<path d="M191.6 120.5C187.3 123.5 181.7 126.3 175.7 126.3C162 126.3 150.9 117 150.9 105.6H150.7C150.7 117 139.6 126.3 125.9 126.3C112.2 126.3 115 123.7 110.9 121.1" stroke="black" stroke-width="4" stroke-linecap="round" stroke-linejoin="round"/>
<path d="M110.8 153C104.7 153 99.7002 148 99.7002 141.9C99.7002 135.8 104.7 130.8 110.8 130.8V153Z" fill="white" stroke="black" stroke-width="4"/>
<path d="M191.7 130.8C197.8 130.8 202.8 135.8 202.8 141.9C202.8 148 197.8 153 191.7 153V130.8Z" fill="white" stroke="black" stroke-width="4"/>
<path d="M177.9 204.2H124.9V233.9H177.9V204.2Z" fill="black"/>
<path d="M152 211.4C162.1 211.4 172.2 209.5 181.7 205.6C191.2 201.7 200.1 196 207.8 188.3C214.3 181.8 226 165.8 231.8 155.2C233.5 152.1 233.2 148.4 231.2 145.6L227 139.9C219 129 212.1 117.4 206.5 105.1L197.5 83.3C185.6 57 162.1 53.7 152 53.7H150.6C140.5 53.7 117 57 105.1 83.3L96.1 105.1C90.5 117.4 83.6 129.1 75.6 139.9L71.4 145.6C69.3 148.4 69.1 152.2 70.8 155.2C76.6 165.8 88.4 181.8 94.8 188.3C102.5 196 111.4 201.8 120.9 205.6C130.4 209.4 140.5 211.4 150.6 211.4" stroke="black" stroke-width="4" stroke-miterlimit="10"/>
</svg>
