<svg width="300" height="300" viewBox="0 0 300 300" fill="none" xmlns="http://www.w3.org/2000/svg">
<g clip-path="url(#clip0_6341_187)">
<path d="M111.59 179.71C106.09 181.75 97.94 181.34 95.06 175.37C93.63 172.41 93.73 168.65 91.41 166.31C89.05 163.94 84.71 163.64 83.44 160.54C82.06 157.16 85.49 152.67 82.54 150.04C82.03 149.59 81.4 149.3 80.75 149.1C77.52 148.09 73.95 148.68 70.8 147.32C69.14 146.6 67.66 145.21 67.3 143.44C66.77 140.8 68.86 138.13 69.98 135.89C70.11 135.63 70.24 135.36 70.23 135.07C70.21 134.52 69.71 134.13 69.26 133.82C62.62 129.26 56.38 123.19 59.77 114.42C61.42 110.16 64.9 106.89 69.09 105.09C71.54 104.04 74.12 103.41 76.7 103.43C77.38 103.43 77.68 102.58 77.13 102.19C74.36 100.24 71.91 97.85 70.16 94.97C67.45 90.54 66.9 85.47 68.25 80.5C71.54 68.39 81.65 67.49 94.59 74.22C96.88 75.42 99.15 76.08 101.34 76.45C102.47 76.64 103.48 75.88 103.65 74.75C105.77 60.67 119.86 63.27 125.71 64.99C126.95 65.35 128.19 64.45 128.23 63.16C128.35 59.53 129.04 52.95 132.29 48.1C136.93 41.19 148.85 43.29 157.92 34.15C169.63 22.38 180.92 19.87 188.67 31.87C196 43.21 190.92 53.05 187.23 57.92C186.51 58.87 187.29 60.2 188.47 60.03C191.28 59.62 195.28 59.67 199.7 61.68C208.69 65.77 212.04 73.22 210.7 80.95C210.33 83.11 209.35 85.19 208.21 86.99C207.2 88.57 208.24 90.67 210.1 90.89C213.87 91.35 218.66 91.93 218.66 91.93C234.34 93.07 251.7 99.09 248.23 116.59C246.85 123.57 243.19 129.85 237.23 133.86C234.71 135.56 231.9 136.8 228.99 137.66C227.31 138.16 225.57 138.74 223.81 139.09C222.39 139.37 221.96 141.2 223.11 142.09C227.76 145.69 231.69 149.18 233.32 155.89C235.33 164.18 232.67 173.82 225.9 179.2C220.6 183.41 213.08 184.67 206.74 182.49C205.52 182.07 204.32 183.17 204.57 184.44C205.07 186.95 204.7 189.65 203.42 191.88C201.85 194.62 198.83 196.51 195.72 197.11C192.99 197.63 190.43 196.21 188.85 195.02C187.97 194.36 186.75 194.55 186.11 195.44C178.91 205.43 156.47 205.23 150.96 190.07L125.14 176.48L111.61 179.73" fill="white"/>
<path d="M111.59 179.71C106.09 181.75 97.94 181.34 95.06 175.37C93.63 172.41 93.73 168.65 91.41 166.31C89.05 163.94 84.71 163.64 83.44 160.54C82.06 157.16 85.49 152.67 82.54 150.04C82.03 149.59 81.4 149.3 80.75 149.1C77.52 148.09 73.95 148.68 70.8 147.32C69.14 146.6 67.66 145.21 67.3 143.44C66.77 140.8 68.86 138.13 69.98 135.89C70.11 135.63 70.24 135.36 70.23 135.07C70.21 134.52 69.71 134.13 69.26 133.82C62.62 129.26 56.38 123.19 59.77 114.42C61.42 110.16 64.9 106.89 69.09 105.09C71.54 104.04 74.12 103.41 76.7 103.43C77.38 103.43 77.68 102.58 77.13 102.19C74.36 100.24 71.91 97.85 70.16 94.97C67.45 90.54 66.9 85.47 68.25 80.5C71.54 68.39 81.65 67.49 94.59 74.22C96.88 75.42 99.15 76.08 101.34 76.45C102.47 76.64 103.48 75.88 103.65 74.75C105.77 60.67 119.86 63.27 125.71 64.99C126.95 65.35 128.19 64.45 128.23 63.16C128.35 59.53 129.04 52.95 132.29 48.1C136.93 41.19 148.85 43.29 157.92 34.15C169.63 22.38 180.92 19.87 188.67 31.87C196 43.21 190.92 53.05 187.23 57.92C186.51 58.87 187.29 60.2 188.47 60.03C191.28 59.62 195.28 59.67 199.7 61.68C208.69 65.77 212.04 73.22 210.7 80.95C210.33 83.11 209.35 85.19 208.21 86.99C207.2 88.57 208.24 90.67 210.1 90.89C213.87 91.35 218.66 91.93 218.66 91.93C234.34 93.07 251.7 99.09 248.23 116.59C246.85 123.57 243.19 129.85 237.23 133.86C234.71 135.56 231.9 136.8 228.99 137.66C227.31 138.16 225.57 138.74 223.81 139.09C222.39 139.37 221.96 141.2 223.11 142.09C227.76 145.69 231.69 149.18 233.32 155.89C235.33 164.18 232.67 173.82 225.9 179.2C220.6 183.41 213.08 184.67 206.74 182.49C205.52 182.07 204.32 183.17 204.57 184.44C205.07 186.95 204.7 189.65 203.42 191.88C201.85 194.62 198.83 196.51 195.72 197.11C192.99 197.63 190.43 196.21 188.85 195.02C187.97 194.36 186.75 194.55 186.11 195.44C178.91 205.43 156.47 205.23 150.96 190.07L125.14 176.48L111.61 179.73" stroke="black" stroke-width="4" stroke-linecap="round"/>
<path d="M114.88 123.25C110.78 123.25 107.45 126.56 107.45 130.66V164.11C107.45 186.33 125.49 204.33 147.72 204.28H147.93C170.08 204.23 188 186.26 188 164.11V130.78C188 126.69 184.69 123.37 180.6 123.37L117 123.24L114.88 123.25Z" fill="black" stroke="black" stroke-width="4"/>
<path d="M243.56 268.64L233.62 238.15C230.62 229.79 223.6 223.5 214.96 221.44C199.26 217.68 173.06 212.08 173.06 212.08H122.06L81.9101 221.64C73.6801 223.6 66.8901 229.39 63.6701 237.21L51.8701 268.6L243.54 268.65L243.56 268.64Z" fill="#FF0077" stroke="black" stroke-width="4"/>
<path d="M171.26 167.38H124.18V215.79H171.26V167.38Z" fill="black" stroke="black" stroke-width="4"/>
<path d="M157.96 268.61H138.37C122.88 268.61 118.33 268.61 118.33 268.61L110.33 215.09L148.12 208.08L186 214.88L178 268.62H157.96V268.61Z" fill="black" stroke="black" stroke-width="4"/>
<path d="M176.8 214.13C176.8 233.27 163.78 248.79 147.72 248.79C131.66 248.79 118.64 233.27 118.64 214.13" fill="black"/>
<path d="M176.8 214.13C176.8 233.27 163.78 248.79 147.72 248.79C131.66 248.79 118.64 233.27 118.64 214.13" stroke="white" stroke-width="4" stroke-linecap="round"/>
<path d="M243.56 268.64L233.62 238.15C230.62 229.79 223.6 223.5 214.96 221.44C199.26 217.68 173.06 212.08 173.06 212.08H122.06L81.9101 221.64C73.6801 223.6 66.8901 229.39 63.6701 237.21L51.8701 268.6L243.54 268.65L243.56 268.64Z" stroke="black" stroke-width="4"/>
</g>
<defs>
<clipPath id="clip0_6341_187">
<rect width="201.68" height="248.64" fill="white" transform="translate(49 22)"/>
</clipPath>
</defs>
</svg>
